G04 Layer: TopSolderMaskLayer*
G04 EasyEDA v6.3.53, 2020-06-11T20:36:36+02:00*
G04 f86898c5f0de4d6e8d1821827ec38a2b,d798ca008b2c48fc9d28453cf4f639a5,10*
G04 Gerber Generator version 0.2*
G04 Scale: 100 percent, Rotated: No, Reflected: No *
G04 Dimensions in millimeters *
G04 leading zeros omitted , absolute positions ,3 integer and 3 decimal *
%FSLAX33Y33*%
%MOMM*%
G90*
G71D02*

%ADD33C,2.003196*%

%LPD*%
G36*
G01X16144Y7508D02*
G01X16144Y9509D01*
G01X18145Y9509D01*
G01X18145Y7508D01*
G01X16144Y7508D01*
G37*
G54D33*
G01X19685Y8509D03*
G01X22225Y8509D03*
G01X17145Y5969D03*
G01X19685Y5969D03*
G36*
G01X21224Y4968D02*
G01X21224Y6969D01*
G01X23225Y6969D01*
G01X23225Y4968D01*
G01X21224Y4968D01*
G37*
G36*
G01X16705Y20106D02*
G01X16705Y20909D01*
G01X18206Y20909D01*
G01X18206Y20106D01*
G01X16705Y20106D01*
G37*
G36*
G01X14305Y19156D02*
G01X14305Y19959D01*
G01X15806Y19959D01*
G01X15806Y19156D01*
G01X14305Y19156D01*
G37*
G36*
G01X16705Y18206D02*
G01X16705Y19009D01*
G01X18206Y19009D01*
G01X18206Y18206D01*
G01X16705Y18206D01*
G37*
G36*
G01X19753Y12613D02*
G01X19753Y13416D01*
G01X21254Y13416D01*
G01X21254Y12613D01*
G01X19753Y12613D01*
G37*
G36*
G01X17353Y11663D02*
G01X17353Y12466D01*
G01X18854Y12466D01*
G01X18854Y11663D01*
G01X17353Y11663D01*
G37*
G36*
G01X19753Y10713D02*
G01X19753Y11516D01*
G01X21254Y11516D01*
G01X21254Y10713D01*
G01X19753Y10713D01*
G37*
G36*
G01X7249Y19644D02*
G01X7249Y21249D01*
G01X8651Y21249D01*
G01X8651Y19644D01*
G01X7249Y19644D01*
G37*
G36*
G01X4048Y19644D02*
G01X4048Y21249D01*
G01X5450Y21249D01*
G01X5450Y19644D01*
G01X4048Y19644D01*
G37*
G36*
G01X23764Y22748D02*
G01X23764Y24749D01*
G01X25765Y24749D01*
G01X25765Y22748D01*
G01X23764Y22748D01*
G37*
G01X24765Y21209D03*
G01X24765Y18669D03*
G01X24765Y16129D03*
G01X24765Y13589D03*
G01X24765Y11049D03*
G01X24765Y8509D03*
G01X24765Y5969D03*
G36*
G01X904Y4968D02*
G01X904Y6969D01*
G01X2905Y6969D01*
G01X2905Y4968D01*
G01X904Y4968D01*
G37*
G01X1905Y8509D03*
G01X1905Y11049D03*
G01X1905Y13589D03*
G01X1905Y16129D03*
G01X1905Y18669D03*
G01X1905Y21209D03*
G01X1905Y23749D03*
G36*
G01X13825Y15488D02*
G01X13825Y16692D01*
G01X15130Y16692D01*
G01X15130Y15488D01*
G01X13825Y15488D01*
G37*
G36*
G01X13825Y17089D02*
G01X13825Y18293D01*
G01X15130Y18293D01*
G01X15130Y17089D01*
G01X13825Y17089D01*
G37*
G36*
G01X15222Y12898D02*
G01X15222Y14102D01*
G01X16527Y14102D01*
G01X16527Y12898D01*
G01X15222Y12898D01*
G37*
G36*
G01X15222Y11297D02*
G01X15222Y12501D01*
G01X16527Y12501D01*
G01X16527Y11297D01*
G01X15222Y11297D01*
G37*
G36*
G01X4460Y17881D02*
G01X4460Y18491D01*
G01X6466Y18491D01*
G01X6466Y17881D01*
G01X4460Y17881D01*
G37*
G36*
G01X4460Y17221D02*
G01X4460Y17830D01*
G01X6466Y17830D01*
G01X6466Y17221D01*
G01X4460Y17221D01*
G37*
G36*
G01X4460Y16586D02*
G01X4460Y17195D01*
G01X6466Y17195D01*
G01X6466Y16586D01*
G01X4460Y16586D01*
G37*
G36*
G01X4460Y15925D02*
G01X4460Y16535D01*
G01X6466Y16535D01*
G01X6466Y15925D01*
G01X4460Y15925D01*
G37*
G36*
G01X4460Y15265D02*
G01X4460Y15875D01*
G01X6466Y15875D01*
G01X6466Y15265D01*
G01X4460Y15265D01*
G37*
G36*
G01X4460Y14630D02*
G01X4460Y15240D01*
G01X6466Y15240D01*
G01X6466Y14630D01*
G01X4460Y14630D01*
G37*
G36*
G01X4460Y13970D02*
G01X4460Y14579D01*
G01X6466Y14579D01*
G01X6466Y13970D01*
G01X4460Y13970D01*
G37*
G36*
G01X4460Y13335D02*
G01X4460Y13944D01*
G01X6466Y13944D01*
G01X6466Y13335D01*
G01X4460Y13335D01*
G37*
G36*
G01X4460Y12674D02*
G01X4460Y13284D01*
G01X6466Y13284D01*
G01X6466Y12674D01*
G01X4460Y12674D01*
G37*
G36*
G01X4460Y12014D02*
G01X4460Y12623D01*
G01X6466Y12623D01*
G01X6466Y12014D01*
G01X4460Y12014D01*
G37*
G36*
G01X4460Y11379D02*
G01X4460Y11988D01*
G01X6466Y11988D01*
G01X6466Y11379D01*
G01X4460Y11379D01*
G37*
G36*
G01X4460Y10718D02*
G01X4460Y11328D01*
G01X6466Y11328D01*
G01X6466Y10718D01*
G01X4460Y10718D01*
G37*
G36*
G01X11059Y10718D02*
G01X11059Y11328D01*
G01X13065Y11328D01*
G01X13065Y10718D01*
G01X11059Y10718D01*
G37*
G36*
G01X11059Y11379D02*
G01X11059Y11988D01*
G01X13065Y11988D01*
G01X13065Y11379D01*
G01X11059Y11379D01*
G37*
G36*
G01X11059Y12014D02*
G01X11059Y12623D01*
G01X13065Y12623D01*
G01X13065Y12014D01*
G01X11059Y12014D01*
G37*
G36*
G01X11059Y12674D02*
G01X11059Y13284D01*
G01X13065Y13284D01*
G01X13065Y12674D01*
G01X11059Y12674D01*
G37*
G36*
G01X11059Y13335D02*
G01X11059Y13944D01*
G01X13065Y13944D01*
G01X13065Y13335D01*
G01X11059Y13335D01*
G37*
G36*
G01X11059Y13970D02*
G01X11059Y14579D01*
G01X13065Y14579D01*
G01X13065Y13970D01*
G01X11059Y13970D01*
G37*
G36*
G01X11059Y14630D02*
G01X11059Y15240D01*
G01X13065Y15240D01*
G01X13065Y14630D01*
G01X11059Y14630D01*
G37*
G36*
G01X11059Y15265D02*
G01X11059Y15875D01*
G01X13065Y15875D01*
G01X13065Y15265D01*
G01X11059Y15265D01*
G37*
G36*
G01X11059Y15925D02*
G01X11059Y16535D01*
G01X13065Y16535D01*
G01X13065Y15925D01*
G01X11059Y15925D01*
G37*
G36*
G01X11059Y16586D02*
G01X11059Y17195D01*
G01X13065Y17195D01*
G01X13065Y16586D01*
G01X11059Y16586D01*
G37*
G36*
G01X11059Y17221D02*
G01X11059Y17830D01*
G01X13065Y17830D01*
G01X13065Y17221D01*
G01X11059Y17221D01*
G37*
G36*
G01X11059Y17881D02*
G01X11059Y18491D01*
G01X13065Y18491D01*
G01X13065Y17881D01*
G01X11059Y17881D01*
G37*
G36*
G01X11473Y19794D02*
G01X11473Y21099D01*
G01X12677Y21099D01*
G01X12677Y19794D01*
G01X11473Y19794D01*
G37*
G36*
G01X9674Y19794D02*
G01X9674Y21099D01*
G01X10876Y21099D01*
G01X10876Y19794D01*
G01X9674Y19794D01*
G37*
G36*
G01X19347Y14206D02*
G01X19347Y15511D01*
G01X20551Y15511D01*
G01X20551Y14206D01*
G01X19347Y14206D01*
G37*
G36*
G01X17548Y14206D02*
G01X17548Y15511D01*
G01X18750Y15511D01*
G01X18750Y14206D01*
G01X17548Y14206D01*
G37*
G01X4445Y5969D03*
G01X6985Y5969D03*
G01X9525Y5969D03*
G36*
G01X11064Y4968D02*
G01X11064Y6969D01*
G01X13065Y6969D01*
G01X13065Y4968D01*
G01X11064Y4968D01*
G37*
G36*
G01X21244Y22567D02*
G01X21244Y24930D01*
G01X22646Y24930D01*
G01X22646Y22567D01*
G01X21244Y22567D01*
G37*
G36*
G01X19263Y22567D02*
G01X19263Y24930D01*
G01X20665Y24930D01*
G01X20665Y22567D01*
G01X19263Y22567D01*
G37*
G01X17145Y23749D03*
G01X14605Y23749D03*
G01X12065Y23749D03*
G01X9525Y23749D03*
G01X6985Y23749D03*
G36*
G01X3444Y22748D02*
G01X3444Y24749D01*
G01X5445Y24749D01*
G01X5445Y22748D01*
G01X3444Y22748D01*
G37*
M00*
M02*
