G04 Layer: BottomLayer*
G04 EasyEDA v6.3.53, 2020-06-11T20:36:36+02:00*
G04 f86898c5f0de4d6e8d1821827ec38a2b,d798ca008b2c48fc9d28453cf4f639a5,10*
G04 Gerber Generator version 0.2*
G04 Scale: 100 percent, Rotated: No, Reflected: No *
G04 Dimensions in millimeters *
G04 leading zeros omitted , absolute positions ,3 integer and 3 decimal *
%FSLAX33Y33*%
%MOMM*%
G90*
G71D02*

%ADD10C,0.254000*%
%ADD11C,0.508000*%
%ADD12C,0.762000*%
%ADD13C,0.609600*%
%ADD14C,0.610006*%
%ADD20R,1.799996X1.799996*%
%ADD21C,1.799996*%
%ADD22R,1.198880X2.159000*%

%LPD*%
G36*
G01X26311Y27302D02*
G01X358Y27302D01*
G01X343Y27301D01*
G01X329Y27298D01*
G01X315Y27293D01*
G01X303Y27286D01*
G01X291Y27277D01*
G01X281Y27267D01*
G01X272Y27255D01*
G01X265Y27243D01*
G01X260Y27229D01*
G01X257Y27215D01*
G01X256Y27200D01*
G01X256Y2677D01*
G01X257Y2663D01*
G01X260Y2649D01*
G01X265Y2635D01*
G01X272Y2623D01*
G01X281Y2611D01*
G01X291Y2601D01*
G01X303Y2592D01*
G01X315Y2585D01*
G01X329Y2580D01*
G01X343Y2577D01*
G01X358Y2576D01*
G01X372Y2577D01*
G01X386Y2580D01*
G01X400Y2585D01*
G01X413Y2592D01*
G01X424Y2601D01*
G01X435Y2611D01*
G01X443Y2623D01*
G01X450Y2636D01*
G01X455Y2649D01*
G01X473Y2707D01*
G01X492Y2764D01*
G01X514Y2820D01*
G01X537Y2875D01*
G01X563Y2930D01*
G01X590Y2984D01*
G01X619Y3037D01*
G01X649Y3088D01*
G01X682Y3139D01*
G01X716Y3189D01*
G01X752Y3237D01*
G01X789Y3284D01*
G01X828Y3330D01*
G01X869Y3374D01*
G01X911Y3417D01*
G01X954Y3459D01*
G01X999Y3499D01*
G01X1045Y3538D01*
G01X1093Y3575D01*
G01X1141Y3610D01*
G01X1191Y3644D01*
G01X1242Y3676D01*
G01X1294Y3706D01*
G01X1347Y3735D01*
G01X1401Y3761D01*
G01X1456Y3786D01*
G01X1512Y3809D01*
G01X1568Y3830D01*
G01X1625Y3849D01*
G01X1683Y3866D01*
G01X1741Y3881D01*
G01X1800Y3894D01*
G01X1859Y3906D01*
G01X1918Y3915D01*
G01X1978Y3922D01*
G01X2038Y3927D01*
G01X2098Y3930D01*
G01X2159Y3931D01*
G01X2219Y3930D01*
G01X2279Y3927D01*
G01X2340Y3922D01*
G01X2400Y3915D01*
G01X2460Y3905D01*
G01X2519Y3894D01*
G01X2578Y3881D01*
G01X2637Y3865D01*
G01X2695Y3848D01*
G01X2752Y3829D01*
G01X2809Y3807D01*
G01X2865Y3784D01*
G01X2920Y3759D01*
G01X2974Y3732D01*
G01X3027Y3704D01*
G01X3079Y3673D01*
G01X3131Y3641D01*
G01X3181Y3607D01*
G01X3230Y3571D01*
G01X3277Y3533D01*
G01X3323Y3494D01*
G01X3368Y3454D01*
G01X3412Y3412D01*
G01X3454Y3368D01*
G01X3494Y3323D01*
G01X3533Y3277D01*
G01X3571Y3230D01*
G01X3607Y3181D01*
G01X3641Y3131D01*
G01X3673Y3079D01*
G01X3704Y3027D01*
G01X3732Y2974D01*
G01X3759Y2920D01*
G01X3784Y2865D01*
G01X3807Y2809D01*
G01X3829Y2752D01*
G01X3848Y2695D01*
G01X3865Y2637D01*
G01X3881Y2578D01*
G01X3894Y2519D01*
G01X3905Y2460D01*
G01X3915Y2400D01*
G01X3922Y2340D01*
G01X3927Y2279D01*
G01X3930Y2219D01*
G01X3931Y2159D01*
G01X3930Y2098D01*
G01X3927Y2038D01*
G01X3922Y1978D01*
G01X3915Y1918D01*
G01X3906Y1859D01*
G01X3894Y1800D01*
G01X3881Y1741D01*
G01X3866Y1683D01*
G01X3849Y1625D01*
G01X3830Y1568D01*
G01X3809Y1512D01*
G01X3786Y1456D01*
G01X3761Y1401D01*
G01X3735Y1347D01*
G01X3706Y1294D01*
G01X3676Y1242D01*
G01X3644Y1191D01*
G01X3610Y1141D01*
G01X3575Y1093D01*
G01X3538Y1045D01*
G01X3499Y999D01*
G01X3459Y954D01*
G01X3417Y911D01*
G01X3374Y869D01*
G01X3330Y828D01*
G01X3284Y789D01*
G01X3237Y752D01*
G01X3189Y716D01*
G01X3139Y682D01*
G01X3088Y649D01*
G01X3037Y619D01*
G01X2984Y590D01*
G01X2930Y563D01*
G01X2875Y537D01*
G01X2820Y514D01*
G01X2764Y492D01*
G01X2707Y473D01*
G01X2649Y455D01*
G01X2636Y450D01*
G01X2623Y443D01*
G01X2611Y435D01*
G01X2601Y424D01*
G01X2592Y413D01*
G01X2585Y400D01*
G01X2580Y386D01*
G01X2577Y372D01*
G01X2576Y358D01*
G01X2577Y343D01*
G01X2580Y329D01*
G01X2585Y315D01*
G01X2592Y303D01*
G01X2601Y291D01*
G01X2611Y281D01*
G01X2623Y272D01*
G01X2635Y265D01*
G01X2649Y260D01*
G01X2663Y257D01*
G01X2677Y256D01*
G01X23992Y256D01*
G01X24006Y257D01*
G01X24020Y260D01*
G01X24034Y265D01*
G01X24046Y272D01*
G01X24058Y281D01*
G01X24068Y291D01*
G01X24077Y303D01*
G01X24084Y315D01*
G01X24089Y329D01*
G01X24092Y343D01*
G01X24093Y358D01*
G01X24092Y372D01*
G01X24089Y386D01*
G01X24084Y400D01*
G01X24077Y413D01*
G01X24068Y424D01*
G01X24058Y435D01*
G01X24046Y443D01*
G01X24033Y450D01*
G01X24020Y455D01*
G01X23962Y473D01*
G01X23905Y492D01*
G01X23849Y514D01*
G01X23794Y537D01*
G01X23739Y563D01*
G01X23685Y590D01*
G01X23632Y619D01*
G01X23581Y649D01*
G01X23530Y682D01*
G01X23480Y716D01*
G01X23432Y752D01*
G01X23385Y789D01*
G01X23339Y828D01*
G01X23295Y869D01*
G01X23252Y911D01*
G01X23210Y954D01*
G01X23170Y999D01*
G01X23131Y1045D01*
G01X23094Y1093D01*
G01X23059Y1141D01*
G01X23025Y1191D01*
G01X22993Y1242D01*
G01X22963Y1294D01*
G01X22934Y1347D01*
G01X22908Y1401D01*
G01X22883Y1456D01*
G01X22860Y1512D01*
G01X22839Y1568D01*
G01X22820Y1625D01*
G01X22803Y1683D01*
G01X22788Y1741D01*
G01X22775Y1800D01*
G01X22763Y1859D01*
G01X22754Y1918D01*
G01X22747Y1978D01*
G01X22742Y2038D01*
G01X22739Y2098D01*
G01X22738Y2159D01*
G01X22739Y2219D01*
G01X22742Y2279D01*
G01X22747Y2340D01*
G01X22754Y2400D01*
G01X22764Y2460D01*
G01X22775Y2519D01*
G01X22788Y2578D01*
G01X22804Y2637D01*
G01X22821Y2695D01*
G01X22840Y2752D01*
G01X22862Y2809D01*
G01X22885Y2865D01*
G01X22910Y2920D01*
G01X22937Y2974D01*
G01X22965Y3027D01*
G01X22996Y3079D01*
G01X23028Y3131D01*
G01X23062Y3181D01*
G01X23098Y3230D01*
G01X23136Y3277D01*
G01X23175Y3323D01*
G01X23215Y3368D01*
G01X23257Y3412D01*
G01X23301Y3454D01*
G01X23346Y3494D01*
G01X23392Y3533D01*
G01X23439Y3571D01*
G01X23488Y3607D01*
G01X23538Y3641D01*
G01X23590Y3673D01*
G01X23642Y3704D01*
G01X23695Y3732D01*
G01X23749Y3759D01*
G01X23804Y3784D01*
G01X23860Y3807D01*
G01X23917Y3829D01*
G01X23974Y3848D01*
G01X24032Y3865D01*
G01X24091Y3881D01*
G01X24150Y3894D01*
G01X24209Y3905D01*
G01X24269Y3915D01*
G01X24329Y3922D01*
G01X24390Y3927D01*
G01X24450Y3930D01*
G01X24511Y3931D01*
G01X24571Y3930D01*
G01X24631Y3927D01*
G01X24691Y3922D01*
G01X24751Y3915D01*
G01X24810Y3906D01*
G01X24869Y3894D01*
G01X24928Y3881D01*
G01X24986Y3866D01*
G01X25044Y3849D01*
G01X25101Y3830D01*
G01X25157Y3809D01*
G01X25213Y3786D01*
G01X25268Y3761D01*
G01X25322Y3735D01*
G01X25375Y3706D01*
G01X25427Y3676D01*
G01X25478Y3644D01*
G01X25528Y3610D01*
G01X25576Y3575D01*
G01X25624Y3538D01*
G01X25670Y3499D01*
G01X25715Y3459D01*
G01X25758Y3417D01*
G01X25800Y3374D01*
G01X25841Y3330D01*
G01X25880Y3284D01*
G01X25917Y3237D01*
G01X25953Y3189D01*
G01X25987Y3139D01*
G01X26020Y3088D01*
G01X26050Y3037D01*
G01X26079Y2984D01*
G01X26106Y2930D01*
G01X26132Y2875D01*
G01X26155Y2820D01*
G01X26177Y2764D01*
G01X26196Y2707D01*
G01X26214Y2649D01*
G01X26219Y2636D01*
G01X26226Y2623D01*
G01X26234Y2611D01*
G01X26245Y2601D01*
G01X26256Y2592D01*
G01X26269Y2585D01*
G01X26283Y2580D01*
G01X26297Y2577D01*
G01X26311Y2576D01*
G01X26326Y2577D01*
G01X26340Y2580D01*
G01X26354Y2585D01*
G01X26366Y2592D01*
G01X26378Y2601D01*
G01X26388Y2611D01*
G01X26397Y2623D01*
G01X26404Y2635D01*
G01X26409Y2649D01*
G01X26412Y2663D01*
G01X26413Y2677D01*
G01X26413Y27200D01*
G01X26412Y27215D01*
G01X26409Y27229D01*
G01X26404Y27243D01*
G01X26397Y27255D01*
G01X26388Y27267D01*
G01X26378Y27277D01*
G01X26366Y27286D01*
G01X26354Y27293D01*
G01X26340Y27298D01*
G01X26326Y27301D01*
G01X26311Y27302D01*
G37*

%LPC*%
G36*
G01X20563Y25085D02*
G01X19364Y25085D01*
G01X19341Y25083D01*
G01X19317Y25080D01*
G01X19294Y25075D01*
G01X19272Y25067D01*
G01X19250Y25058D01*
G01X19229Y25046D01*
G01X19210Y25033D01*
G01X19192Y25018D01*
G01X19175Y25001D01*
G01X19160Y24983D01*
G01X19146Y24963D01*
G01X19135Y24942D01*
G01X19125Y24921D01*
G01X19118Y24898D01*
G01X19112Y24875D01*
G01X19109Y24852D01*
G01X19108Y24828D01*
G01X19108Y22710D01*
G01X19107Y22695D01*
G01X19104Y22681D01*
G01X19099Y22667D01*
G01X19092Y22655D01*
G01X19083Y22643D01*
G01X19073Y22633D01*
G01X19061Y22624D01*
G01X19049Y22617D01*
G01X19035Y22612D01*
G01X19021Y22609D01*
G01X19006Y22608D01*
G01X17854Y22608D01*
G01X17840Y22609D01*
G01X17826Y22612D01*
G01X17812Y22617D01*
G01X17799Y22624D01*
G01X17788Y22633D01*
G01X17777Y22643D01*
G01X17769Y22655D01*
G01X17762Y22667D01*
G01X17757Y22681D01*
G01X17754Y22695D01*
G01X17753Y22710D01*
G01X17754Y22726D01*
G01X17758Y22742D01*
G01X17764Y22757D01*
G01X17773Y22771D01*
G01X17784Y22783D01*
G01X17797Y22794D01*
G01X17837Y22822D01*
G01X17876Y22853D01*
G01X17913Y22885D01*
G01X17949Y22918D01*
G01X17984Y22953D01*
G01X18017Y22990D01*
G01X18049Y23027D01*
G01X18079Y23067D01*
G01X18107Y23107D01*
G01X18133Y23149D01*
G01X18158Y23191D01*
G01X18181Y23235D01*
G01X17658Y23235D01*
G01X17658Y22710D01*
G01X17657Y22695D01*
G01X17654Y22681D01*
G01X17649Y22667D01*
G01X17642Y22655D01*
G01X17633Y22643D01*
G01X17623Y22633D01*
G01X17611Y22624D01*
G01X17599Y22617D01*
G01X17585Y22612D01*
G01X17571Y22609D01*
G01X17556Y22608D01*
G01X16733Y22608D01*
G01X16718Y22609D01*
G01X16704Y22612D01*
G01X16690Y22617D01*
G01X16678Y22624D01*
G01X16666Y22633D01*
G01X16656Y22643D01*
G01X16647Y22655D01*
G01X16640Y22667D01*
G01X16635Y22681D01*
G01X16632Y22695D01*
G01X16631Y22710D01*
G01X16631Y23235D01*
G01X16108Y23235D01*
G01X16131Y23191D01*
G01X16156Y23149D01*
G01X16182Y23107D01*
G01X16210Y23067D01*
G01X16240Y23027D01*
G01X16272Y22990D01*
G01X16305Y22953D01*
G01X16340Y22918D01*
G01X16376Y22885D01*
G01X16413Y22853D01*
G01X16452Y22822D01*
G01X16492Y22794D01*
G01X16505Y22783D01*
G01X16516Y22771D01*
G01X16525Y22757D01*
G01X16531Y22742D01*
G01X16535Y22726D01*
G01X16536Y22710D01*
G01X16535Y22695D01*
G01X16532Y22681D01*
G01X16527Y22667D01*
G01X16520Y22655D01*
G01X16512Y22643D01*
G01X16501Y22633D01*
G01X16490Y22624D01*
G01X16477Y22617D01*
G01X16463Y22612D01*
G01X16449Y22609D01*
G01X16435Y22608D01*
G01X16075Y22608D01*
G01X16060Y22609D01*
G01X16044Y22613D01*
G01X16029Y22619D01*
G01X16016Y22627D01*
G01X16004Y22638D01*
G01X15612Y23030D01*
G01X15601Y23042D01*
G01X15593Y23055D01*
G01X15587Y23070D01*
G01X15583Y23086D01*
G01X15582Y23102D01*
G01X15584Y23120D01*
G01X15588Y23137D01*
G01X15596Y23154D01*
G01X15622Y23199D01*
G01X15646Y23245D01*
G01X15667Y23293D01*
G01X15687Y23341D01*
G01X15704Y23390D01*
G01X15719Y23440D01*
G01X15732Y23490D01*
G01X15742Y23541D01*
G01X15751Y23593D01*
G01X15756Y23645D01*
G01X15760Y23696D01*
G01X15761Y23749D01*
G01X15760Y23798D01*
G01X15757Y23847D01*
G01X15752Y23895D01*
G01X15744Y23944D01*
G01X15735Y23992D01*
G01X15724Y24040D01*
G01X15710Y24087D01*
G01X15695Y24134D01*
G01X15678Y24180D01*
G01X15658Y24225D01*
G01X15637Y24269D01*
G01X15614Y24313D01*
G01X15589Y24355D01*
G01X15563Y24396D01*
G01X15534Y24436D01*
G01X15504Y24475D01*
G01X15473Y24513D01*
G01X15439Y24549D01*
G01X15405Y24583D01*
G01X15369Y24617D01*
G01X15331Y24648D01*
G01X15292Y24678D01*
G01X15252Y24707D01*
G01X15211Y24733D01*
G01X15169Y24758D01*
G01X15125Y24781D01*
G01X15081Y24802D01*
G01X15036Y24822D01*
G01X14990Y24839D01*
G01X14943Y24854D01*
G01X14896Y24868D01*
G01X14848Y24879D01*
G01X14800Y24888D01*
G01X14751Y24896D01*
G01X14703Y24901D01*
G01X14654Y24904D01*
G01X14605Y24905D01*
G01X14555Y24904D01*
G01X14506Y24901D01*
G01X14458Y24896D01*
G01X14409Y24888D01*
G01X14361Y24879D01*
G01X14313Y24868D01*
G01X14266Y24854D01*
G01X14219Y24839D01*
G01X14173Y24822D01*
G01X14128Y24802D01*
G01X14084Y24781D01*
G01X14040Y24758D01*
G01X13998Y24733D01*
G01X13957Y24707D01*
G01X13917Y24678D01*
G01X13878Y24648D01*
G01X13840Y24617D01*
G01X13804Y24583D01*
G01X13770Y24549D01*
G01X13736Y24513D01*
G01X13705Y24475D01*
G01X13675Y24436D01*
G01X13646Y24396D01*
G01X13620Y24355D01*
G01X13595Y24313D01*
G01X13572Y24269D01*
G01X13551Y24225D01*
G01X13531Y24180D01*
G01X13514Y24134D01*
G01X13499Y24087D01*
G01X13485Y24040D01*
G01X13474Y23992D01*
G01X13465Y23944D01*
G01X13457Y23895D01*
G01X13452Y23847D01*
G01X13449Y23798D01*
G01X13448Y23749D01*
G01X13449Y23699D01*
G01X13452Y23650D01*
G01X13457Y23602D01*
G01X13465Y23553D01*
G01X13474Y23505D01*
G01X13485Y23457D01*
G01X13499Y23410D01*
G01X13514Y23363D01*
G01X13531Y23317D01*
G01X13551Y23272D01*
G01X13572Y23228D01*
G01X13595Y23184D01*
G01X13620Y23142D01*
G01X13646Y23101D01*
G01X13675Y23061D01*
G01X13705Y23022D01*
G01X13736Y22984D01*
G01X13770Y22948D01*
G01X13804Y22914D01*
G01X13840Y22880D01*
G01X13878Y22849D01*
G01X13917Y22819D01*
G01X13957Y22790D01*
G01X13998Y22764D01*
G01X14040Y22739D01*
G01X14084Y22716D01*
G01X14128Y22695D01*
G01X14173Y22675D01*
G01X14219Y22658D01*
G01X14266Y22643D01*
G01X14313Y22629D01*
G01X14361Y22618D01*
G01X14409Y22609D01*
G01X14458Y22601D01*
G01X14506Y22596D01*
G01X14555Y22593D01*
G01X14605Y22592D01*
G01X14657Y22593D01*
G01X14710Y22597D01*
G01X14763Y22603D01*
G01X14815Y22611D01*
G01X14867Y22622D01*
G01X14890Y22625D01*
G01X14906Y22623D01*
G01X14921Y22620D01*
G01X14936Y22614D01*
G01X14950Y22605D01*
G01X14962Y22595D01*
G01X15156Y22400D01*
G01X15166Y22388D01*
G01X15175Y22375D01*
G01X15181Y22360D01*
G01X15185Y22345D01*
G01X15186Y22329D01*
G01X15185Y22314D01*
G01X15182Y22300D01*
G01X15177Y22286D01*
G01X15170Y22274D01*
G01X15161Y22262D01*
G01X15151Y22252D01*
G01X15139Y22243D01*
G01X15126Y22236D01*
G01X15113Y22231D01*
G01X15099Y22228D01*
G01X15084Y22227D01*
G01X14675Y22227D01*
G01X14660Y22228D01*
G01X14645Y22232D01*
G01X14631Y22237D01*
G01X14618Y22245D01*
G01X14606Y22254D01*
G01X14580Y22277D01*
G01X14552Y22299D01*
G01X14523Y22318D01*
G01X14493Y22336D01*
G01X14461Y22352D01*
G01X14429Y22366D01*
G01X14396Y22378D01*
G01X14362Y22387D01*
G01X14328Y22395D01*
G01X14293Y22400D01*
G01X14259Y22404D01*
G01X14224Y22405D01*
G01X14190Y22404D01*
G01X14156Y22401D01*
G01X14122Y22396D01*
G01X14089Y22389D01*
G01X14056Y22379D01*
G01X14024Y22368D01*
G01X13993Y22355D01*
G01X13963Y22341D01*
G01X13933Y22324D01*
G01X13905Y22305D01*
G01X13877Y22285D01*
G01X13851Y22264D01*
G01X13803Y22216D01*
G01X13782Y22190D01*
G01X13762Y22162D01*
G01X13743Y22134D01*
G01X13726Y22104D01*
G01X13712Y22074D01*
G01X13699Y22043D01*
G01X13688Y22011D01*
G01X13678Y21978D01*
G01X13671Y21945D01*
G01X13666Y21911D01*
G01X13663Y21877D01*
G01X13662Y21844D01*
G01X13663Y21810D01*
G01X13666Y21776D01*
G01X13671Y21742D01*
G01X13678Y21709D01*
G01X13688Y21676D01*
G01X13699Y21644D01*
G01X13712Y21613D01*
G01X13726Y21583D01*
G01X13743Y21553D01*
G01X13762Y21525D01*
G01X13782Y21497D01*
G01X13803Y21471D01*
G01X13851Y21423D01*
G01X13877Y21402D01*
G01X13905Y21382D01*
G01X13933Y21363D01*
G01X13963Y21346D01*
G01X13993Y21332D01*
G01X14024Y21319D01*
G01X14056Y21308D01*
G01X14089Y21298D01*
G01X14122Y21291D01*
G01X14156Y21286D01*
G01X14190Y21283D01*
G01X14224Y21282D01*
G01X14269Y21284D01*
G01X14315Y21290D01*
G01X14331Y21291D01*
G01X14346Y21290D01*
G01X14360Y21287D01*
G01X14373Y21282D01*
G01X14386Y21275D01*
G01X14398Y21266D01*
G01X14408Y21256D01*
G01X14417Y21244D01*
G01X14424Y21232D01*
G01X14429Y21218D01*
G01X14432Y21204D01*
G01X14433Y21189D01*
G01X14431Y21173D01*
G01X14426Y21127D01*
G01X14424Y21082D01*
G01X14425Y21048D01*
G01X14428Y21014D01*
G01X14433Y20980D01*
G01X14440Y20947D01*
G01X14449Y20915D01*
G01X14460Y20883D01*
G01X14465Y20865D01*
G01X14467Y20847D01*
G01X14466Y20832D01*
G01X14463Y20818D01*
G01X14458Y20804D01*
G01X14451Y20792D01*
G01X14442Y20780D01*
G01X14432Y20770D01*
G01X14420Y20761D01*
G01X14408Y20754D01*
G01X14394Y20749D01*
G01X14380Y20746D01*
G01X14365Y20745D01*
G01X13459Y20745D01*
G01X13434Y20744D01*
G01X13409Y20740D01*
G01X13385Y20734D01*
G01X13361Y20726D01*
G01X13338Y20715D01*
G01X13317Y20702D01*
G01X13297Y20687D01*
G01X13278Y20671D01*
G01X13266Y20661D01*
G01X13252Y20652D01*
G01X13238Y20646D01*
G01X13222Y20643D01*
G01X13207Y20641D01*
G01X13192Y20642D01*
G01X13178Y20645D01*
G01X13164Y20651D01*
G01X13152Y20657D01*
G01X13140Y20666D01*
G01X13130Y20676D01*
G01X13121Y20688D01*
G01X13114Y20701D01*
G01X13109Y20714D01*
G01X13106Y20728D01*
G01X13105Y20743D01*
G01X13105Y22300D01*
G01X13104Y22324D01*
G01X13101Y22348D01*
G01X13095Y22371D01*
G01X13088Y22393D01*
G01X13078Y22415D01*
G01X13067Y22436D01*
G01X13053Y22455D01*
G01X13038Y22473D01*
G01X13021Y22490D01*
G01X13003Y22505D01*
G01X12983Y22519D01*
G01X12963Y22530D01*
G01X12941Y22540D01*
G01X12919Y22547D01*
G01X12896Y22553D01*
G01X12872Y22556D01*
G01X12848Y22557D01*
G01X12693Y22557D01*
G01X12679Y22558D01*
G01X12664Y22561D01*
G01X12651Y22566D01*
G01X12638Y22573D01*
G01X12627Y22582D01*
G01X12616Y22592D01*
G01X12608Y22604D01*
G01X12601Y22616D01*
G01X12596Y22630D01*
G01X12593Y22644D01*
G01X12591Y22659D01*
G01X12593Y22674D01*
G01X12596Y22689D01*
G01X12602Y22703D01*
G01X12609Y22716D01*
G01X12619Y22728D01*
G01X12630Y22738D01*
G01X12642Y22747D01*
G01X12685Y22773D01*
G01X12727Y22801D01*
G01X12768Y22831D01*
G01X12808Y22862D01*
G01X12846Y22896D01*
G01X12882Y22930D01*
G01X12917Y22967D01*
G01X12950Y23005D01*
G01X12982Y23044D01*
G01X13012Y23085D01*
G01X13040Y23127D01*
G01X13066Y23170D01*
G01X13090Y23214D01*
G01X13113Y23260D01*
G01X13133Y23306D01*
G01X13151Y23353D01*
G01X13167Y23401D01*
G01X13182Y23449D01*
G01X13194Y23498D01*
G01X13203Y23548D01*
G01X13211Y23597D01*
G01X13217Y23648D01*
G01X13220Y23698D01*
G01X13221Y23749D01*
G01X13220Y23798D01*
G01X13217Y23847D01*
G01X13212Y23895D01*
G01X13204Y23944D01*
G01X13195Y23992D01*
G01X13184Y24040D01*
G01X13170Y24087D01*
G01X13155Y24134D01*
G01X13138Y24180D01*
G01X13118Y24225D01*
G01X13097Y24269D01*
G01X13074Y24313D01*
G01X13049Y24355D01*
G01X13023Y24396D01*
G01X12994Y24436D01*
G01X12964Y24475D01*
G01X12933Y24513D01*
G01X12899Y24549D01*
G01X12865Y24583D01*
G01X12829Y24617D01*
G01X12791Y24648D01*
G01X12752Y24678D01*
G01X12712Y24707D01*
G01X12671Y24733D01*
G01X12629Y24758D01*
G01X12585Y24781D01*
G01X12541Y24802D01*
G01X12496Y24822D01*
G01X12450Y24839D01*
G01X12403Y24854D01*
G01X12356Y24868D01*
G01X12308Y24879D01*
G01X12260Y24888D01*
G01X12211Y24896D01*
G01X12163Y24901D01*
G01X12114Y24904D01*
G01X12065Y24905D01*
G01X12015Y24904D01*
G01X11966Y24901D01*
G01X11918Y24896D01*
G01X11869Y24888D01*
G01X11821Y24879D01*
G01X11773Y24868D01*
G01X11726Y24854D01*
G01X11679Y24839D01*
G01X11633Y24822D01*
G01X11588Y24802D01*
G01X11544Y24781D01*
G01X11500Y24758D01*
G01X11458Y24733D01*
G01X11417Y24707D01*
G01X11377Y24678D01*
G01X11338Y24648D01*
G01X11300Y24617D01*
G01X11264Y24583D01*
G01X11230Y24549D01*
G01X11196Y24513D01*
G01X11165Y24475D01*
G01X11135Y24436D01*
G01X11106Y24396D01*
G01X11080Y24355D01*
G01X11055Y24313D01*
G01X11032Y24269D01*
G01X11011Y24225D01*
G01X10991Y24180D01*
G01X10974Y24134D01*
G01X10959Y24087D01*
G01X10945Y24040D01*
G01X10934Y23992D01*
G01X10925Y23944D01*
G01X10917Y23895D01*
G01X10912Y23847D01*
G01X10909Y23798D01*
G01X10908Y23749D01*
G01X10909Y23699D01*
G01X10912Y23650D01*
G01X10917Y23602D01*
G01X10925Y23553D01*
G01X10934Y23505D01*
G01X10945Y23457D01*
G01X10959Y23410D01*
G01X10974Y23363D01*
G01X10991Y23317D01*
G01X11011Y23272D01*
G01X11032Y23228D01*
G01X11055Y23185D01*
G01X11080Y23142D01*
G01X11106Y23101D01*
G01X11134Y23061D01*
G01X11164Y23022D01*
G01X11196Y22985D01*
G01X11229Y22949D01*
G01X11264Y22914D01*
G01X11300Y22881D01*
G01X11338Y22849D01*
G01X11376Y22819D01*
G01X11416Y22791D01*
G01X11458Y22764D01*
G01X11500Y22739D01*
G01X11543Y22716D01*
G01X11557Y22708D01*
G01X11569Y22697D01*
G01X11580Y22685D01*
G01X11588Y22672D01*
G01X11594Y22657D01*
G01X11598Y22641D01*
G01X11599Y22625D01*
G01X11598Y22611D01*
G01X11595Y22597D01*
G01X11590Y22583D01*
G01X11583Y22571D01*
G01X11575Y22559D01*
G01X11564Y22549D01*
G01X11553Y22540D01*
G01X11540Y22533D01*
G01X11519Y22522D01*
G01X11498Y22509D01*
G01X11479Y22494D01*
G01X11462Y22477D01*
G01X11446Y22458D01*
G01X11432Y22439D01*
G01X11420Y22417D01*
G01X11410Y22395D01*
G01X11402Y22372D01*
G01X11396Y22349D01*
G01X11393Y22325D01*
G01X11392Y22300D01*
G01X11392Y19101D01*
G01X11393Y19077D01*
G01X11396Y19053D01*
G01X11402Y19030D01*
G01X11409Y19008D01*
G01X11419Y18986D01*
G01X11430Y18965D01*
G01X11444Y18946D01*
G01X11459Y18928D01*
G01X11476Y18911D01*
G01X11494Y18896D01*
G01X11513Y18882D01*
G01X11534Y18871D01*
G01X11556Y18861D01*
G01X11578Y18854D01*
G01X11601Y18848D01*
G01X11625Y18845D01*
G01X11648Y18844D01*
G01X11763Y18844D01*
G01X11778Y18843D01*
G01X11792Y18840D01*
G01X11805Y18835D01*
G01X11818Y18828D01*
G01X11830Y18819D01*
G01X11840Y18809D01*
G01X11849Y18797D01*
G01X11856Y18785D01*
G01X11861Y18771D01*
G01X11864Y18757D01*
G01X11865Y18742D01*
G01X11865Y18621D01*
G01X11864Y18606D01*
G01X11861Y18592D01*
G01X11856Y18579D01*
G01X11849Y18566D01*
G01X11840Y18554D01*
G01X11830Y18544D01*
G01X11818Y18535D01*
G01X11805Y18528D01*
G01X11792Y18523D01*
G01X11778Y18520D01*
G01X11763Y18519D01*
G01X11738Y18522D01*
G01X11706Y18529D01*
G01X11673Y18531D01*
G01X11423Y18531D01*
G01X11401Y18530D01*
G01X11378Y18527D01*
G01X11356Y18521D01*
G01X11334Y18514D01*
G01X11316Y18510D01*
G01X11298Y18508D01*
G01X11280Y18510D01*
G01X11263Y18514D01*
G01X11234Y18523D01*
G01X11205Y18529D01*
G01X11175Y18531D01*
G01X11175Y18347D01*
G01X11172Y18326D01*
G01X11168Y18300D01*
G01X11167Y18274D01*
G01X11167Y17632D01*
G01X11165Y17599D01*
G01X11167Y17566D01*
G01X11167Y16924D01*
G01X11168Y16898D01*
G01X11172Y16872D01*
G01X11175Y16851D01*
G01X11175Y16318D01*
G01X11173Y16303D01*
G01X11170Y16289D01*
G01X11165Y16275D01*
G01X11158Y16263D01*
G01X11150Y16251D01*
G01X11139Y16241D01*
G01X11128Y16232D01*
G01X11115Y16225D01*
G01X11101Y16220D01*
G01X11084Y16214D01*
G01X11067Y16210D01*
G01X11049Y16208D01*
G01X11031Y16210D01*
G01X11013Y16214D01*
G01X10996Y16220D01*
G01X10982Y16225D01*
G01X10969Y16232D01*
G01X10958Y16241D01*
G01X10947Y16251D01*
G01X10939Y16263D01*
G01X10932Y16275D01*
G01X10927Y16289D01*
G01X10924Y16303D01*
G01X10923Y16318D01*
G01X10923Y16851D01*
G01X10925Y16872D01*
G01X10929Y16898D01*
G01X10930Y16924D01*
G01X10930Y17563D01*
G01X10932Y17599D01*
G01X10930Y17636D01*
G01X10930Y18274D01*
G01X10929Y18300D01*
G01X10925Y18326D01*
G01X10923Y18347D01*
G01X10923Y18531D01*
G01X10892Y18529D01*
G01X10863Y18523D01*
G01X10834Y18514D01*
G01X10817Y18510D01*
G01X10799Y18508D01*
G01X10781Y18510D01*
G01X10763Y18514D01*
G01X10741Y18521D01*
G01X10719Y18527D01*
G01X10696Y18530D01*
G01X10673Y18531D01*
G01X10423Y18531D01*
G01X10391Y18529D01*
G01X10359Y18522D01*
G01X10334Y18519D01*
G01X10319Y18520D01*
G01X10305Y18523D01*
G01X10292Y18528D01*
G01X10279Y18535D01*
G01X10267Y18544D01*
G01X10257Y18554D01*
G01X10248Y18566D01*
G01X10241Y18579D01*
G01X10236Y18592D01*
G01X10233Y18606D01*
G01X10232Y18621D01*
G01X10232Y18742D01*
G01X10233Y18757D01*
G01X10236Y18771D01*
G01X10241Y18785D01*
G01X10248Y18797D01*
G01X10257Y18809D01*
G01X10267Y18819D01*
G01X10279Y18828D01*
G01X10292Y18835D01*
G01X10305Y18840D01*
G01X10319Y18843D01*
G01X10334Y18844D01*
G01X10449Y18844D01*
G01X10472Y18845D01*
G01X10496Y18848D01*
G01X10519Y18854D01*
G01X10541Y18861D01*
G01X10563Y18871D01*
G01X10584Y18882D01*
G01X10603Y18896D01*
G01X10621Y18911D01*
G01X10638Y18928D01*
G01X10653Y18946D01*
G01X10667Y18965D01*
G01X10678Y18986D01*
G01X10688Y19008D01*
G01X10695Y19030D01*
G01X10701Y19053D01*
G01X10704Y19077D01*
G01X10705Y19101D01*
G01X10705Y22300D01*
G01X10704Y22324D01*
G01X10701Y22348D01*
G01X10695Y22371D01*
G01X10688Y22393D01*
G01X10678Y22415D01*
G01X10667Y22436D01*
G01X10653Y22455D01*
G01X10638Y22473D01*
G01X10621Y22490D01*
G01X10603Y22505D01*
G01X10584Y22519D01*
G01X10563Y22530D01*
G01X10541Y22540D01*
G01X10519Y22547D01*
G01X10496Y22553D01*
G01X10472Y22556D01*
G01X10449Y22557D01*
G01X10153Y22557D01*
G01X10139Y22558D01*
G01X10124Y22561D01*
G01X10111Y22566D01*
G01X10098Y22573D01*
G01X10087Y22582D01*
G01X10076Y22592D01*
G01X10068Y22604D01*
G01X10061Y22616D01*
G01X10056Y22630D01*
G01X10053Y22644D01*
G01X10051Y22659D01*
G01X10053Y22674D01*
G01X10056Y22689D01*
G01X10062Y22703D01*
G01X10069Y22716D01*
G01X10079Y22728D01*
G01X10090Y22738D01*
G01X10102Y22747D01*
G01X10145Y22773D01*
G01X10187Y22801D01*
G01X10228Y22831D01*
G01X10268Y22862D01*
G01X10306Y22896D01*
G01X10342Y22930D01*
G01X10377Y22967D01*
G01X10410Y23005D01*
G01X10442Y23044D01*
G01X10472Y23085D01*
G01X10500Y23127D01*
G01X10526Y23170D01*
G01X10550Y23214D01*
G01X10573Y23260D01*
G01X10593Y23306D01*
G01X10611Y23353D01*
G01X10627Y23401D01*
G01X10642Y23449D01*
G01X10654Y23498D01*
G01X10663Y23548D01*
G01X10671Y23597D01*
G01X10677Y23648D01*
G01X10680Y23698D01*
G01X10681Y23749D01*
G01X10680Y23798D01*
G01X10677Y23847D01*
G01X10672Y23895D01*
G01X10664Y23944D01*
G01X10655Y23992D01*
G01X10644Y24040D01*
G01X10630Y24087D01*
G01X10615Y24134D01*
G01X10598Y24180D01*
G01X10578Y24225D01*
G01X10557Y24269D01*
G01X10534Y24313D01*
G01X10509Y24355D01*
G01X10483Y24396D01*
G01X10454Y24436D01*
G01X10424Y24475D01*
G01X10393Y24513D01*
G01X10359Y24549D01*
G01X10325Y24583D01*
G01X10289Y24617D01*
G01X10251Y24648D01*
G01X10212Y24678D01*
G01X10172Y24707D01*
G01X10131Y24733D01*
G01X10089Y24758D01*
G01X10045Y24781D01*
G01X10001Y24802D01*
G01X9956Y24822D01*
G01X9910Y24839D01*
G01X9863Y24854D01*
G01X9816Y24868D01*
G01X9768Y24879D01*
G01X9720Y24888D01*
G01X9671Y24896D01*
G01X9623Y24901D01*
G01X9574Y24904D01*
G01X9525Y24905D01*
G01X9475Y24904D01*
G01X9426Y24901D01*
G01X9378Y24896D01*
G01X9329Y24888D01*
G01X9281Y24879D01*
G01X9233Y24868D01*
G01X9186Y24854D01*
G01X9139Y24839D01*
G01X9093Y24822D01*
G01X9048Y24802D01*
G01X9004Y24781D01*
G01X8960Y24758D01*
G01X8918Y24733D01*
G01X8877Y24707D01*
G01X8837Y24678D01*
G01X8798Y24648D01*
G01X8760Y24617D01*
G01X8724Y24583D01*
G01X8690Y24549D01*
G01X8656Y24513D01*
G01X8625Y24475D01*
G01X8595Y24436D01*
G01X8566Y24396D01*
G01X8540Y24355D01*
G01X8515Y24313D01*
G01X8492Y24269D01*
G01X8471Y24225D01*
G01X8451Y24180D01*
G01X8434Y24134D01*
G01X8419Y24087D01*
G01X8405Y24040D01*
G01X8394Y23992D01*
G01X8385Y23944D01*
G01X8377Y23895D01*
G01X8372Y23847D01*
G01X8369Y23798D01*
G01X8368Y23749D01*
G01X8369Y23698D01*
G01X8372Y23648D01*
G01X8378Y23598D01*
G01X8385Y23549D01*
G01X8395Y23499D01*
G01X8407Y23451D01*
G01X8421Y23402D01*
G01X8437Y23355D01*
G01X8455Y23308D01*
G01X8475Y23262D01*
G01X8497Y23217D01*
G01X8521Y23173D01*
G01X8547Y23130D01*
G01X8575Y23088D01*
G01X8605Y23047D01*
G01X8636Y23008D01*
G01X8669Y22970D01*
G01X8704Y22934D01*
G01X8740Y22899D01*
G01X8777Y22866D01*
G01X8816Y22834D01*
G01X8857Y22804D01*
G01X8898Y22776D01*
G01X8941Y22750D01*
G01X8985Y22726D01*
G01X9030Y22703D01*
G01X9076Y22683D01*
G01X9089Y22676D01*
G01X9101Y22667D01*
G01X9112Y22657D01*
G01X9121Y22645D01*
G01X9128Y22632D01*
G01X9134Y22618D01*
G01X9137Y22604D01*
G01X9138Y22589D01*
G01X9137Y22573D01*
G01X9133Y22558D01*
G01X9127Y22543D01*
G01X9119Y22530D01*
G01X9109Y22517D01*
G01X9097Y22507D01*
G01X9078Y22492D01*
G01X9061Y22475D01*
G01X9045Y22457D01*
G01X9031Y22437D01*
G01X9020Y22416D01*
G01X9010Y22394D01*
G01X9002Y22372D01*
G01X8997Y22348D01*
G01X8993Y22324D01*
G01X8992Y22300D01*
G01X8992Y22214D01*
G01X8991Y22199D01*
G01X8988Y22185D01*
G01X8983Y22171D01*
G01X8976Y22159D01*
G01X8967Y22147D01*
G01X8957Y22137D01*
G01X8945Y22128D01*
G01X8933Y22121D01*
G01X8919Y22116D01*
G01X8905Y22113D01*
G01X8890Y22112D01*
G01X8875Y22113D01*
G01X8859Y22117D01*
G01X8845Y22123D01*
G01X8831Y22131D01*
G01X8819Y22141D01*
G01X8809Y22153D01*
G01X8800Y22167D01*
G01X8794Y22181D01*
G01X8786Y22203D01*
G01X8776Y22223D01*
G01X8764Y22243D01*
G01X8750Y22261D01*
G01X8735Y22279D01*
G01X8719Y22294D01*
G01X8701Y22309D01*
G01X8682Y22321D01*
G01X8661Y22332D01*
G01X8640Y22341D01*
G01X8619Y22348D01*
G01X8596Y22353D01*
G01X8573Y22356D01*
G01X8551Y22357D01*
G01X8339Y22357D01*
G01X8339Y21914D01*
G01X8890Y21914D01*
G01X8905Y21913D01*
G01X8919Y21910D01*
G01X8933Y21905D01*
G01X8945Y21898D01*
G01X8957Y21889D01*
G01X8967Y21879D01*
G01X8976Y21867D01*
G01X8983Y21855D01*
G01X8988Y21841D01*
G01X8991Y21827D01*
G01X8992Y21812D01*
G01X8992Y21389D01*
G01X8991Y21374D01*
G01X8988Y21360D01*
G01X8983Y21346D01*
G01X8976Y21334D01*
G01X8967Y21322D01*
G01X8957Y21312D01*
G01X8945Y21303D01*
G01X8933Y21296D01*
G01X8919Y21291D01*
G01X8905Y21288D01*
G01X8890Y21287D01*
G01X8339Y21287D01*
G01X8339Y20844D01*
G01X8551Y20844D01*
G01X8573Y20845D01*
G01X8596Y20848D01*
G01X8619Y20853D01*
G01X8640Y20860D01*
G01X8661Y20869D01*
G01X8682Y20880D01*
G01X8701Y20892D01*
G01X8719Y20907D01*
G01X8735Y20922D01*
G01X8750Y20940D01*
G01X8764Y20958D01*
G01X8776Y20978D01*
G01X8786Y20998D01*
G01X8794Y21020D01*
G01X8800Y21034D01*
G01X8809Y21048D01*
G01X8819Y21060D01*
G01X8831Y21070D01*
G01X8845Y21078D01*
G01X8859Y21084D01*
G01X8875Y21088D01*
G01X8890Y21089D01*
G01X8905Y21088D01*
G01X8919Y21085D01*
G01X8933Y21080D01*
G01X8945Y21073D01*
G01X8957Y21064D01*
G01X8967Y21054D01*
G01X8976Y21042D01*
G01X8983Y21030D01*
G01X8988Y21016D01*
G01X8991Y21002D01*
G01X8992Y20988D01*
G01X8992Y20413D01*
G01X8991Y20399D01*
G01X8988Y20385D01*
G01X8983Y20371D01*
G01X8976Y20358D01*
G01X8967Y20347D01*
G01X8957Y20336D01*
G01X8945Y20328D01*
G01X8933Y20321D01*
G01X8919Y20316D01*
G01X8905Y20313D01*
G01X8890Y20312D01*
G01X8875Y20313D01*
G01X8859Y20317D01*
G01X8845Y20323D01*
G01X8831Y20331D01*
G01X8819Y20341D01*
G01X8809Y20353D01*
G01X8800Y20367D01*
G01X8794Y20381D01*
G01X8786Y20403D01*
G01X8776Y20423D01*
G01X8764Y20443D01*
G01X8750Y20461D01*
G01X8735Y20479D01*
G01X8719Y20494D01*
G01X8701Y20509D01*
G01X8682Y20521D01*
G01X8661Y20532D01*
G01X8640Y20541D01*
G01X8618Y20548D01*
G01X8596Y20553D01*
G01X8573Y20556D01*
G01X8551Y20557D01*
G01X7450Y20557D01*
G01X7427Y20556D01*
G01X7403Y20553D01*
G01X7380Y20547D01*
G01X7357Y20539D01*
G01X7335Y20530D01*
G01X7314Y20518D01*
G01X7295Y20504D01*
G01X7276Y20489D01*
G01X7260Y20472D01*
G01X7247Y20460D01*
G01X7233Y20451D01*
G01X7217Y20444D01*
G01X7201Y20440D01*
G01X7184Y20438D01*
G01X6912Y20438D01*
G01X6895Y20440D01*
G01X6879Y20444D01*
G01X6863Y20451D01*
G01X6849Y20460D01*
G01X6836Y20472D01*
G01X6820Y20489D01*
G01X6801Y20504D01*
G01X6782Y20518D01*
G01X6761Y20530D01*
G01X6739Y20539D01*
G01X6716Y20547D01*
G01X6693Y20553D01*
G01X6669Y20556D01*
G01X6646Y20557D01*
G01X5860Y20557D01*
G01X5844Y20558D01*
G01X5829Y20562D01*
G01X5814Y20568D01*
G01X5800Y20576D01*
G01X5788Y20587D01*
G01X5704Y20671D01*
G01X5694Y20683D01*
G01X5686Y20696D01*
G01X5680Y20711D01*
G01X5676Y20726D01*
G01X5675Y20742D01*
G01X5676Y20758D01*
G01X5679Y20773D01*
G01X5685Y20787D01*
G01X5693Y20801D01*
G01X5703Y20813D01*
G01X5715Y20823D01*
G01X5728Y20832D01*
G01X5742Y20838D01*
G01X5757Y20842D01*
G01X5757Y21287D01*
G01X5279Y21287D01*
G01X5271Y21273D01*
G01X5260Y21260D01*
G01X5248Y21250D01*
G01X5234Y21241D01*
G01X5219Y21235D01*
G01X5204Y21231D01*
G01X5187Y21230D01*
G01X5172Y21231D01*
G01X5156Y21235D01*
G01X5141Y21241D01*
G01X5128Y21249D01*
G01X5116Y21259D01*
G01X4271Y22104D01*
G01X4258Y22120D01*
G01X4248Y22138D01*
G01X4234Y22170D01*
G01X4217Y22202D01*
G01X4199Y22232D01*
G01X4178Y22261D01*
G01X4156Y22289D01*
G01X4132Y22315D01*
G01X4106Y22340D01*
G01X4079Y22363D01*
G01X4051Y22384D01*
G01X4021Y22404D01*
G01X3986Y22423D01*
G01X3973Y22431D01*
G01X3961Y22442D01*
G01X3950Y22454D01*
G01X3942Y22467D01*
G01X3936Y22482D01*
G01X3932Y22498D01*
G01X3931Y22513D01*
G01X3931Y23235D01*
G01X3215Y23235D01*
G01X3201Y23232D01*
G01X3186Y23231D01*
G01X3170Y23232D01*
G01X3155Y23236D01*
G01X3140Y23242D01*
G01X3127Y23250D01*
G01X3115Y23260D01*
G01X3043Y23332D01*
G01X3032Y23344D01*
G01X3024Y23358D01*
G01X3018Y23373D01*
G01X3014Y23388D01*
G01X3013Y23404D01*
G01X3017Y23432D01*
G01X3030Y23484D01*
G01X3041Y23536D01*
G01X3050Y23589D01*
G01X3056Y23642D01*
G01X3060Y23695D01*
G01X3061Y23749D01*
G01X3060Y23798D01*
G01X3057Y23847D01*
G01X3052Y23895D01*
G01X3044Y23944D01*
G01X3035Y23992D01*
G01X3024Y24040D01*
G01X3010Y24087D01*
G01X2995Y24134D01*
G01X2978Y24180D01*
G01X2958Y24225D01*
G01X2937Y24269D01*
G01X2914Y24313D01*
G01X2889Y24355D01*
G01X2863Y24396D01*
G01X2834Y24436D01*
G01X2804Y24475D01*
G01X2773Y24513D01*
G01X2739Y24549D01*
G01X2705Y24583D01*
G01X2669Y24617D01*
G01X2631Y24648D01*
G01X2592Y24678D01*
G01X2552Y24707D01*
G01X2511Y24733D01*
G01X2469Y24758D01*
G01X2425Y24781D01*
G01X2381Y24802D01*
G01X2336Y24822D01*
G01X2290Y24839D01*
G01X2243Y24854D01*
G01X2196Y24868D01*
G01X2148Y24879D01*
G01X2100Y24888D01*
G01X2051Y24896D01*
G01X2003Y24901D01*
G01X1954Y24904D01*
G01X1905Y24905D01*
G01X1855Y24904D01*
G01X1806Y24901D01*
G01X1758Y24896D01*
G01X1709Y24888D01*
G01X1661Y24879D01*
G01X1613Y24868D01*
G01X1566Y24854D01*
G01X1519Y24839D01*
G01X1473Y24822D01*
G01X1428Y24802D01*
G01X1384Y24781D01*
G01X1340Y24758D01*
G01X1298Y24733D01*
G01X1257Y24707D01*
G01X1217Y24678D01*
G01X1178Y24648D01*
G01X1140Y24617D01*
G01X1104Y24583D01*
G01X1070Y24549D01*
G01X1036Y24513D01*
G01X1005Y24475D01*
G01X975Y24436D01*
G01X946Y24396D01*
G01X920Y24355D01*
G01X895Y24313D01*
G01X872Y24269D01*
G01X851Y24225D01*
G01X831Y24180D01*
G01X814Y24134D01*
G01X799Y24087D01*
G01X785Y24040D01*
G01X774Y23992D01*
G01X765Y23944D01*
G01X757Y23895D01*
G01X752Y23847D01*
G01X749Y23798D01*
G01X748Y23749D01*
G01X749Y23699D01*
G01X752Y23650D01*
G01X757Y23602D01*
G01X765Y23553D01*
G01X774Y23505D01*
G01X785Y23457D01*
G01X799Y23410D01*
G01X814Y23363D01*
G01X831Y23317D01*
G01X851Y23272D01*
G01X872Y23228D01*
G01X895Y23184D01*
G01X920Y23142D01*
G01X946Y23101D01*
G01X975Y23061D01*
G01X1005Y23022D01*
G01X1036Y22984D01*
G01X1070Y22948D01*
G01X1104Y22914D01*
G01X1140Y22880D01*
G01X1178Y22849D01*
G01X1217Y22819D01*
G01X1257Y22790D01*
G01X1298Y22764D01*
G01X1340Y22739D01*
G01X1384Y22716D01*
G01X1428Y22695D01*
G01X1473Y22675D01*
G01X1519Y22658D01*
G01X1566Y22643D01*
G01X1613Y22629D01*
G01X1661Y22618D01*
G01X1709Y22609D01*
G01X1758Y22601D01*
G01X1806Y22596D01*
G01X1855Y22593D01*
G01X1905Y22592D01*
G01X1958Y22593D01*
G01X2011Y22597D01*
G01X2064Y22603D01*
G01X2117Y22612D01*
G01X2169Y22623D01*
G01X2221Y22636D01*
G01X2249Y22640D01*
G01X2265Y22639D01*
G01X2280Y22635D01*
G01X2295Y22629D01*
G01X2309Y22621D01*
G01X2321Y22610D01*
G01X2512Y22419D01*
G01X2523Y22406D01*
G01X2531Y22393D01*
G01X2537Y22378D01*
G01X2541Y22363D01*
G01X2542Y22347D01*
G01X2541Y22332D01*
G01X2538Y22318D01*
G01X2533Y22305D01*
G01X2526Y22292D01*
G01X2517Y22280D01*
G01X2507Y22270D01*
G01X2496Y22261D01*
G01X2483Y22254D01*
G01X2469Y22249D01*
G01X2455Y22246D01*
G01X2441Y22245D01*
G01X2418Y22248D01*
G01X2418Y21722D01*
G01X2944Y21722D01*
G01X2941Y21745D01*
G01X2942Y21759D01*
G01X2945Y21773D01*
G01X2950Y21787D01*
G01X2957Y21800D01*
G01X2966Y21811D01*
G01X2976Y21821D01*
G01X2988Y21830D01*
G01X3001Y21837D01*
G01X3014Y21842D01*
G01X3028Y21845D01*
G01X3043Y21846D01*
G01X3059Y21845D01*
G01X3074Y21841D01*
G01X3089Y21835D01*
G01X3102Y21827D01*
G01X3115Y21816D01*
G01X3188Y21743D01*
G01X3201Y21728D01*
G01X3210Y21710D01*
G01X3224Y21679D01*
G01X3240Y21649D01*
G01X3257Y21619D01*
G01X3277Y21591D01*
G01X3298Y21564D01*
G01X3320Y21539D01*
G01X3344Y21515D01*
G01X3370Y21492D01*
G01X3397Y21471D01*
G01X3425Y21452D01*
G01X3454Y21434D01*
G01X3484Y21418D01*
G01X3515Y21405D01*
G01X3533Y21395D01*
G01X3549Y21382D01*
G01X5259Y19672D01*
G01X5270Y19660D01*
G01X5278Y19646D01*
G01X5284Y19631D01*
G01X5288Y19616D01*
G01X5289Y19600D01*
G01X5289Y19301D01*
G01X5290Y19276D01*
G01X5294Y19251D01*
G01X5300Y19227D01*
G01X5308Y19203D01*
G01X5319Y19181D01*
G01X5331Y19159D01*
G01X5346Y19139D01*
G01X5363Y19121D01*
G01X5373Y19109D01*
G01X5381Y19095D01*
G01X5387Y19081D01*
G01X5390Y19065D01*
G01X5392Y19050D01*
G01X5390Y19034D01*
G01X5387Y19018D01*
G01X5381Y19004D01*
G01X5373Y18990D01*
G01X5363Y18978D01*
G01X5346Y18960D01*
G01X5331Y18940D01*
G01X5319Y18918D01*
G01X5308Y18896D01*
G01X5300Y18872D01*
G01X5294Y18848D01*
G01X5290Y18823D01*
G01X5289Y18798D01*
G01X5289Y17798D01*
G01X5290Y17775D01*
G01X5293Y17751D01*
G01X5299Y17728D01*
G01X5306Y17706D01*
G01X5316Y17684D01*
G01X5327Y17663D01*
G01X5341Y17644D01*
G01X5356Y17626D01*
G01X5373Y17609D01*
G01X5391Y17594D01*
G01X5410Y17580D01*
G01X5431Y17569D01*
G01X5453Y17559D01*
G01X5475Y17552D01*
G01X5498Y17546D01*
G01X5522Y17543D01*
G01X5545Y17542D01*
G01X6646Y17542D01*
G01X6668Y17543D01*
G01X6691Y17546D01*
G01X6714Y17551D01*
G01X6735Y17558D01*
G01X6756Y17567D01*
G01X6777Y17578D01*
G01X6796Y17591D01*
G01X6814Y17605D01*
G01X6830Y17621D01*
G01X6846Y17638D01*
G01X6859Y17656D01*
G01X6871Y17676D01*
G01X6881Y17697D01*
G01X6889Y17718D01*
G01X6895Y17733D01*
G01X6904Y17746D01*
G01X6914Y17758D01*
G01X6926Y17769D01*
G01X6940Y17777D01*
G01X6954Y17783D01*
G01X6970Y17787D01*
G01X6986Y17788D01*
G01X7110Y17788D01*
G01X7126Y17787D01*
G01X7142Y17783D01*
G01X7156Y17777D01*
G01X7170Y17769D01*
G01X7182Y17758D01*
G01X7192Y17746D01*
G01X7201Y17733D01*
G01X7207Y17718D01*
G01X7215Y17697D01*
G01X7225Y17676D01*
G01X7237Y17656D01*
G01X7251Y17638D01*
G01X7266Y17621D01*
G01X7282Y17605D01*
G01X7300Y17591D01*
G01X7319Y17578D01*
G01X7340Y17567D01*
G01X7361Y17558D01*
G01X7383Y17551D01*
G01X7405Y17546D01*
G01X7428Y17543D01*
G01X7451Y17542D01*
G01X8551Y17542D01*
G01X8579Y17544D01*
G01X8607Y17548D01*
G01X8634Y17556D01*
G01X8650Y17560D01*
G01X8667Y17561D01*
G01X8683Y17560D01*
G01X8699Y17557D01*
G01X8713Y17550D01*
G01X8727Y17542D01*
G01X8739Y17532D01*
G01X9062Y17208D01*
G01X9073Y17196D01*
G01X9081Y17183D01*
G01X9087Y17168D01*
G01X9091Y17152D01*
G01X9092Y17137D01*
G01X9092Y16899D01*
G01X9094Y16869D01*
G01X9099Y16839D01*
G01X9108Y16810D01*
G01X9113Y16792D01*
G01X9115Y16774D01*
G01X9113Y16756D01*
G01X9108Y16739D01*
G01X9099Y16710D01*
G01X9094Y16680D01*
G01X9092Y16650D01*
G01X9275Y16650D01*
G01X9296Y16648D01*
G01X9322Y16644D01*
G01X9349Y16642D01*
G01X9949Y16642D01*
G01X9975Y16644D01*
G01X10001Y16648D01*
G01X10022Y16650D01*
G01X10228Y16650D01*
G01X10238Y16661D01*
G01X10250Y16670D01*
G01X10263Y16677D01*
G01X10277Y16683D01*
G01X10292Y16686D01*
G01X10307Y16687D01*
G01X10323Y16686D01*
G01X10340Y16682D01*
G01X10367Y16674D01*
G01X10395Y16669D01*
G01X10423Y16667D01*
G01X10565Y16667D01*
G01X10581Y16666D01*
G01X10596Y16663D01*
G01X10611Y16657D01*
G01X10624Y16649D01*
G01X10636Y16639D01*
G01X10647Y16627D01*
G01X10655Y16613D01*
G01X10662Y16599D01*
G01X10665Y16584D01*
G01X10667Y16568D01*
G01X10669Y16545D01*
G01X10672Y16522D01*
G01X10678Y16500D01*
G01X10686Y16478D01*
G01X10695Y16457D01*
G01X10706Y16437D01*
G01X10720Y16418D01*
G01X10734Y16401D01*
G01X10744Y16389D01*
G01X10751Y16376D01*
G01X10757Y16362D01*
G01X10760Y16347D01*
G01X10761Y16332D01*
G01X10760Y16316D01*
G01X10757Y16301D01*
G01X10751Y16287D01*
G01X10743Y16273D01*
G01X10733Y16261D01*
G01X10721Y16251D01*
G01X10708Y16243D01*
G01X10694Y16236D01*
G01X10679Y16232D01*
G01X10664Y16230D01*
G01X10637Y16228D01*
G01X10610Y16222D01*
G01X10584Y16214D01*
G01X10567Y16210D01*
G01X10549Y16208D01*
G01X10530Y16210D01*
G01X10513Y16214D01*
G01X10484Y16223D01*
G01X10455Y16229D01*
G01X10424Y16231D01*
G01X10424Y16046D01*
G01X10422Y16026D01*
G01X10418Y16000D01*
G01X10417Y15974D01*
G01X10417Y15699D01*
G01X10416Y15674D01*
G01X10416Y15234D01*
G01X10418Y15199D01*
G01X10423Y15163D01*
G01X10424Y15145D01*
G01X10424Y15106D01*
G01X10423Y15091D01*
G01X10420Y15077D01*
G01X10415Y15063D01*
G01X10408Y15051D01*
G01X10400Y15039D01*
G01X10389Y15029D01*
G01X10378Y15020D01*
G01X10365Y15013D01*
G01X10351Y15008D01*
G01X10337Y15005D01*
G01X10323Y15004D01*
G01X10306Y15005D01*
G01X10290Y15009D01*
G01X10275Y15016D01*
G01X10261Y15025D01*
G01X10249Y15036D01*
G01X10200Y15088D01*
G01X10190Y15100D01*
G01X10183Y15113D01*
G01X10177Y15127D01*
G01X10174Y15142D01*
G01X10172Y15158D01*
G01X10172Y15460D01*
G01X10134Y15460D01*
G01X10119Y15461D01*
G01X10105Y15465D01*
G01X10091Y15470D01*
G01X10079Y15477D01*
G01X10067Y15485D01*
G01X10057Y15496D01*
G01X10048Y15507D01*
G01X10041Y15520D01*
G01X10036Y15533D01*
G01X10033Y15548D01*
G01X10032Y15562D01*
G01X10032Y15592D01*
G01X10033Y15607D01*
G01X10036Y15622D01*
G01X10042Y15636D01*
G01X10049Y15649D01*
G01X10058Y15661D01*
G01X10069Y15671D01*
G01X10081Y15679D01*
G01X10101Y15693D01*
G01X10120Y15708D01*
G01X10137Y15725D01*
G01X10152Y15743D01*
G01X10166Y15763D01*
G01X10178Y15784D01*
G01X10187Y15805D01*
G01X10195Y15828D01*
G01X10201Y15851D01*
G01X10204Y15875D01*
G01X10205Y15899D01*
G01X10205Y16149D01*
G01X10204Y16172D01*
G01X10201Y16195D01*
G01X10196Y16217D01*
G01X10189Y16239D01*
G01X10182Y16256D01*
G01X10177Y16270D01*
G01X10173Y16284D01*
G01X10172Y16298D01*
G01X10172Y16332D01*
G01X10173Y16346D01*
G01X10176Y16360D01*
G01X10181Y16374D01*
G01X10188Y16387D01*
G01X10197Y16398D01*
G01X10022Y16398D01*
G01X10001Y16400D01*
G01X9975Y16404D01*
G01X9949Y16406D01*
G01X9681Y16406D01*
G01X9648Y16407D01*
G01X9616Y16406D01*
G01X9349Y16406D01*
G01X9322Y16404D01*
G01X9296Y16400D01*
G01X9275Y16398D01*
G01X9092Y16398D01*
G01X9094Y16368D01*
G01X9099Y16338D01*
G01X9108Y16310D01*
G01X9113Y16292D01*
G01X9114Y16274D01*
G01X9113Y16256D01*
G01X9108Y16239D01*
G01X9101Y16217D01*
G01X9096Y16195D01*
G01X9093Y16172D01*
G01X9092Y16149D01*
G01X9092Y15899D01*
G01X9093Y15875D01*
G01X9096Y15851D01*
G01X9102Y15828D01*
G01X9110Y15806D01*
G01X9119Y15784D01*
G01X9131Y15763D01*
G01X9145Y15743D01*
G01X9160Y15725D01*
G01X9177Y15708D01*
G01X9196Y15693D01*
G01X9216Y15680D01*
G01X9228Y15671D01*
G01X9239Y15661D01*
G01X9248Y15649D01*
G01X9255Y15636D01*
G01X9261Y15622D01*
G01X9264Y15607D01*
G01X9265Y15593D01*
G01X9265Y15321D01*
G01X9264Y15306D01*
G01X9261Y15292D01*
G01X9256Y15279D01*
G01X9249Y15266D01*
G01X9240Y15254D01*
G01X9230Y15244D01*
G01X9218Y15235D01*
G01X9192Y15223D01*
G01X9178Y15220D01*
G01X9163Y15219D01*
G01X9148Y15221D01*
G01X9133Y15224D01*
G01X9104Y15232D01*
G01X9075Y15238D01*
G01X9046Y15241D01*
G01X9017Y15242D01*
G01X5661Y15242D01*
G01X5646Y15243D01*
G01X5630Y15247D01*
G01X5615Y15253D01*
G01X5602Y15261D01*
G01X5590Y15272D01*
G01X4604Y16258D01*
G01X4593Y16270D01*
G01X4585Y16283D01*
G01X4579Y16298D01*
G01X4575Y16314D01*
G01X4574Y16329D01*
G01X4574Y17653D01*
G01X4573Y17683D01*
G01X4569Y17712D01*
G01X4563Y17742D01*
G01X4555Y17771D01*
G01X4545Y17799D01*
G01X4532Y17827D01*
G01X4518Y17853D01*
G01X4501Y17878D01*
G01X4482Y17902D01*
G01X4462Y17924D01*
G01X3446Y18940D01*
G01X3424Y18960D01*
G01X3400Y18979D01*
G01X3375Y18996D01*
G01X3349Y19010D01*
G01X3321Y19023D01*
G01X3293Y19033D01*
G01X3264Y19041D01*
G01X3234Y19047D01*
G01X3205Y19051D01*
G01X3175Y19052D01*
G01X3065Y19052D01*
G01X3050Y19053D01*
G01X3036Y19056D01*
G01X3022Y19062D01*
G01X3009Y19069D01*
G01X2997Y19078D01*
G01X2987Y19089D01*
G01X2978Y19101D01*
G01X2972Y19114D01*
G01X2952Y19159D01*
G01X2930Y19202D01*
G01X2907Y19245D01*
G01X2882Y19286D01*
G01X2855Y19327D01*
G01X2827Y19366D01*
G01X2797Y19404D01*
G01X2765Y19441D01*
G01X2732Y19477D01*
G01X2697Y19511D01*
G01X2661Y19543D01*
G01X2624Y19574D01*
G01X2585Y19603D01*
G01X2546Y19631D01*
G01X2505Y19657D01*
G01X2463Y19681D01*
G01X2420Y19704D01*
G01X2376Y19725D01*
G01X2331Y19744D01*
G01X2286Y19760D01*
G01X2239Y19776D01*
G01X2193Y19789D01*
G01X2145Y19800D01*
G01X2098Y19809D01*
G01X2050Y19816D01*
G01X2001Y19821D01*
G01X1953Y19824D01*
G01X1905Y19825D01*
G01X1855Y19824D01*
G01X1806Y19821D01*
G01X1758Y19816D01*
G01X1709Y19808D01*
G01X1661Y19799D01*
G01X1613Y19788D01*
G01X1566Y19774D01*
G01X1519Y19759D01*
G01X1473Y19742D01*
G01X1428Y19722D01*
G01X1384Y19701D01*
G01X1340Y19678D01*
G01X1298Y19653D01*
G01X1257Y19627D01*
G01X1217Y19598D01*
G01X1178Y19568D01*
G01X1140Y19537D01*
G01X1104Y19503D01*
G01X1070Y19469D01*
G01X1036Y19433D01*
G01X1005Y19395D01*
G01X975Y19356D01*
G01X946Y19316D01*
G01X920Y19275D01*
G01X895Y19233D01*
G01X872Y19189D01*
G01X851Y19145D01*
G01X831Y19100D01*
G01X814Y19054D01*
G01X799Y19007D01*
G01X785Y18960D01*
G01X774Y18912D01*
G01X765Y18864D01*
G01X757Y18815D01*
G01X752Y18767D01*
G01X749Y18718D01*
G01X748Y18669D01*
G01X749Y18619D01*
G01X752Y18570D01*
G01X757Y18522D01*
G01X765Y18473D01*
G01X774Y18425D01*
G01X785Y18377D01*
G01X799Y18330D01*
G01X814Y18283D01*
G01X831Y18237D01*
G01X851Y18192D01*
G01X872Y18148D01*
G01X895Y18104D01*
G01X920Y18062D01*
G01X946Y18021D01*
G01X975Y17981D01*
G01X1005Y17942D01*
G01X1036Y17904D01*
G01X1070Y17868D01*
G01X1104Y17834D01*
G01X1140Y17800D01*
G01X1178Y17769D01*
G01X1217Y17739D01*
G01X1257Y17710D01*
G01X1298Y17684D01*
G01X1340Y17659D01*
G01X1384Y17636D01*
G01X1428Y17615D01*
G01X1473Y17595D01*
G01X1519Y17578D01*
G01X1566Y17563D01*
G01X1613Y17549D01*
G01X1661Y17538D01*
G01X1709Y17529D01*
G01X1758Y17521D01*
G01X1806Y17516D01*
G01X1855Y17513D01*
G01X1905Y17512D01*
G01X1954Y17513D01*
G01X2004Y17516D01*
G01X2054Y17522D01*
G01X2103Y17529D01*
G01X2152Y17539D01*
G01X2200Y17550D01*
G01X2248Y17564D01*
G01X2295Y17580D01*
G01X2342Y17598D01*
G01X2387Y17618D01*
G01X2432Y17639D01*
G01X2476Y17663D01*
G01X2519Y17689D01*
G01X2560Y17716D01*
G01X2601Y17745D01*
G01X2640Y17776D01*
G01X2678Y17808D01*
G01X2714Y17842D01*
G01X2749Y17878D01*
G01X2782Y17915D01*
G01X2814Y17954D01*
G01X2844Y17993D01*
G01X2872Y18034D01*
G01X2898Y18077D01*
G01X2923Y18120D01*
G01X2945Y18164D01*
G01X2954Y18178D01*
G01X2964Y18191D01*
G01X2976Y18202D01*
G01X2990Y18210D01*
G01X3005Y18217D01*
G01X3021Y18220D01*
G01X3037Y18222D01*
G01X3053Y18220D01*
G01X3068Y18217D01*
G01X3083Y18211D01*
G01X3097Y18202D01*
G01X3109Y18192D01*
G01X3777Y17523D01*
G01X3788Y17511D01*
G01X3796Y17498D01*
G01X3802Y17483D01*
G01X3806Y17467D01*
G01X3807Y17452D01*
G01X3807Y16527D01*
G01X3806Y16512D01*
G01X3803Y16498D01*
G01X3798Y16485D01*
G01X3791Y16472D01*
G01X3782Y16460D01*
G01X3772Y16450D01*
G01X3760Y16441D01*
G01X3748Y16434D01*
G01X3734Y16429D01*
G01X3720Y16426D01*
G01X3705Y16425D01*
G01X3690Y16426D01*
G01X3675Y16430D01*
G01X3661Y16436D01*
G01X3647Y16443D01*
G01X3623Y16459D01*
G01X3597Y16473D01*
G01X3571Y16485D01*
G01X3543Y16494D01*
G01X3515Y16502D01*
G01X3487Y16508D01*
G01X3458Y16511D01*
G01X3429Y16512D01*
G01X3065Y16512D01*
G01X3050Y16513D01*
G01X3036Y16516D01*
G01X3022Y16522D01*
G01X3009Y16529D01*
G01X2997Y16538D01*
G01X2987Y16549D01*
G01X2978Y16561D01*
G01X2972Y16574D01*
G01X2952Y16619D01*
G01X2930Y16662D01*
G01X2907Y16705D01*
G01X2882Y16746D01*
G01X2855Y16787D01*
G01X2827Y16826D01*
G01X2797Y16864D01*
G01X2765Y16901D01*
G01X2732Y16937D01*
G01X2697Y16971D01*
G01X2661Y17003D01*
G01X2624Y17034D01*
G01X2585Y17063D01*
G01X2546Y17091D01*
G01X2505Y17117D01*
G01X2463Y17141D01*
G01X2420Y17164D01*
G01X2376Y17185D01*
G01X2331Y17204D01*
G01X2286Y17220D01*
G01X2239Y17236D01*
G01X2193Y17249D01*
G01X2145Y17260D01*
G01X2098Y17269D01*
G01X2050Y17276D01*
G01X2001Y17281D01*
G01X1953Y17284D01*
G01X1905Y17285D01*
G01X1855Y17284D01*
G01X1806Y17281D01*
G01X1758Y17276D01*
G01X1709Y17268D01*
G01X1661Y17259D01*
G01X1613Y17248D01*
G01X1566Y17234D01*
G01X1519Y17219D01*
G01X1473Y17202D01*
G01X1428Y17182D01*
G01X1384Y17161D01*
G01X1340Y17138D01*
G01X1298Y17113D01*
G01X1257Y17087D01*
G01X1217Y17058D01*
G01X1178Y17028D01*
G01X1140Y16997D01*
G01X1104Y16963D01*
G01X1070Y16929D01*
G01X1036Y16893D01*
G01X1005Y16855D01*
G01X975Y16816D01*
G01X946Y16776D01*
G01X920Y16735D01*
G01X895Y16693D01*
G01X872Y16649D01*
G01X851Y16605D01*
G01X831Y16560D01*
G01X814Y16514D01*
G01X799Y16467D01*
G01X785Y16420D01*
G01X774Y16372D01*
G01X765Y16324D01*
G01X757Y16275D01*
G01X752Y16227D01*
G01X749Y16178D01*
G01X748Y16129D01*
G01X749Y16079D01*
G01X752Y16030D01*
G01X757Y15982D01*
G01X765Y15933D01*
G01X774Y15885D01*
G01X785Y15837D01*
G01X799Y15790D01*
G01X814Y15743D01*
G01X831Y15697D01*
G01X851Y15652D01*
G01X872Y15608D01*
G01X895Y15564D01*
G01X920Y15522D01*
G01X946Y15481D01*
G01X975Y15441D01*
G01X1005Y15402D01*
G01X1036Y15364D01*
G01X1070Y15328D01*
G01X1104Y15294D01*
G01X1140Y15260D01*
G01X1178Y15229D01*
G01X1217Y15199D01*
G01X1257Y15170D01*
G01X1298Y15144D01*
G01X1340Y15119D01*
G01X1384Y15096D01*
G01X1428Y15075D01*
G01X1473Y15055D01*
G01X1519Y15038D01*
G01X1566Y15023D01*
G01X1613Y15009D01*
G01X1661Y14998D01*
G01X1709Y14989D01*
G01X1758Y14981D01*
G01X1806Y14976D01*
G01X1855Y14973D01*
G01X1905Y14972D01*
G01X1953Y14973D01*
G01X2001Y14976D01*
G01X2050Y14981D01*
G01X2098Y14988D01*
G01X2145Y14997D01*
G01X2193Y15008D01*
G01X2239Y15021D01*
G01X2286Y15037D01*
G01X2331Y15053D01*
G01X2376Y15072D01*
G01X2420Y15093D01*
G01X2463Y15116D01*
G01X2505Y15140D01*
G01X2546Y15166D01*
G01X2585Y15194D01*
G01X2624Y15223D01*
G01X2661Y15254D01*
G01X2697Y15286D01*
G01X2732Y15320D01*
G01X2765Y15356D01*
G01X2797Y15393D01*
G01X2827Y15431D01*
G01X2855Y15470D01*
G01X2882Y15511D01*
G01X2907Y15552D01*
G01X2930Y15595D01*
G01X2952Y15638D01*
G01X2972Y15683D01*
G01X2978Y15696D01*
G01X2987Y15708D01*
G01X2997Y15719D01*
G01X3009Y15728D01*
G01X3022Y15735D01*
G01X3036Y15741D01*
G01X3050Y15744D01*
G01X3065Y15745D01*
G01X3228Y15745D01*
G01X3243Y15744D01*
G01X3259Y15740D01*
G01X3274Y15734D01*
G01X3287Y15726D01*
G01X3299Y15715D01*
G01X4910Y14105D01*
G01X4920Y14093D01*
G01X4928Y14079D01*
G01X4935Y14064D01*
G01X4938Y14049D01*
G01X4940Y14033D01*
G01X4938Y14017D01*
G01X4935Y14002D01*
G01X4928Y13987D01*
G01X4920Y13973D01*
G01X4910Y13961D01*
G01X2840Y11891D01*
G01X2828Y11881D01*
G01X2814Y11873D01*
G01X2800Y11867D01*
G01X2784Y11863D01*
G01X2768Y11862D01*
G01X2753Y11863D01*
G01X2738Y11866D01*
G01X2724Y11872D01*
G01X2710Y11880D01*
G01X2698Y11889D01*
G01X2662Y11922D01*
G01X2625Y11953D01*
G01X2586Y11983D01*
G01X2547Y12010D01*
G01X2506Y12037D01*
G01X2463Y12061D01*
G01X2420Y12084D01*
G01X2376Y12104D01*
G01X2332Y12123D01*
G01X2286Y12140D01*
G01X2240Y12155D01*
G01X2193Y12168D01*
G01X2146Y12180D01*
G01X2098Y12189D01*
G01X2050Y12196D01*
G01X2002Y12201D01*
G01X1953Y12204D01*
G01X1905Y12205D01*
G01X1855Y12204D01*
G01X1806Y12201D01*
G01X1758Y12196D01*
G01X1709Y12188D01*
G01X1661Y12179D01*
G01X1613Y12168D01*
G01X1566Y12154D01*
G01X1519Y12139D01*
G01X1473Y12122D01*
G01X1428Y12102D01*
G01X1384Y12081D01*
G01X1340Y12058D01*
G01X1298Y12033D01*
G01X1257Y12007D01*
G01X1217Y11978D01*
G01X1178Y11948D01*
G01X1140Y11917D01*
G01X1104Y11883D01*
G01X1070Y11849D01*
G01X1036Y11813D01*
G01X1005Y11775D01*
G01X975Y11736D01*
G01X946Y11696D01*
G01X920Y11655D01*
G01X895Y11613D01*
G01X872Y11569D01*
G01X851Y11525D01*
G01X831Y11480D01*
G01X814Y11434D01*
G01X799Y11387D01*
G01X785Y11340D01*
G01X774Y11292D01*
G01X765Y11244D01*
G01X757Y11195D01*
G01X752Y11147D01*
G01X749Y11098D01*
G01X748Y11049D01*
G01X749Y10999D01*
G01X752Y10950D01*
G01X757Y10902D01*
G01X765Y10853D01*
G01X774Y10805D01*
G01X785Y10757D01*
G01X799Y10710D01*
G01X814Y10663D01*
G01X831Y10617D01*
G01X851Y10572D01*
G01X872Y10528D01*
G01X895Y10484D01*
G01X920Y10442D01*
G01X946Y10401D01*
G01X975Y10361D01*
G01X1005Y10322D01*
G01X1036Y10284D01*
G01X1070Y10248D01*
G01X1104Y10214D01*
G01X1140Y10180D01*
G01X1178Y10149D01*
G01X1217Y10119D01*
G01X1257Y10090D01*
G01X1298Y10064D01*
G01X1340Y10039D01*
G01X1384Y10016D01*
G01X1428Y9995D01*
G01X1473Y9975D01*
G01X1519Y9958D01*
G01X1566Y9943D01*
G01X1613Y9929D01*
G01X1661Y9918D01*
G01X1709Y9909D01*
G01X1758Y9901D01*
G01X1806Y9896D01*
G01X1855Y9893D01*
G01X1905Y9892D01*
G01X1953Y9893D01*
G01X2002Y9896D01*
G01X2051Y9901D01*
G01X2099Y9908D01*
G01X2147Y9918D01*
G01X2194Y9929D01*
G01X2241Y9942D01*
G01X2288Y9957D01*
G01X2334Y9975D01*
G01X2379Y9994D01*
G01X2423Y10015D01*
G01X2466Y10037D01*
G01X2508Y10062D01*
G01X2549Y10088D01*
G01X2589Y10116D01*
G01X2628Y10146D01*
G01X2702Y10210D01*
G01X2736Y10245D01*
G01X2769Y10281D01*
G01X2801Y10318D01*
G01X2831Y10356D01*
G01X2859Y10396D01*
G01X2870Y10409D01*
G01X2882Y10420D01*
G01X2896Y10429D01*
G01X2911Y10435D01*
G01X2927Y10439D01*
G01X2943Y10440D01*
G01X2958Y10439D01*
G01X2972Y10436D01*
G01X2986Y10431D01*
G01X2998Y10424D01*
G01X3010Y10416D01*
G01X3020Y10405D01*
G01X3029Y10394D01*
G01X3036Y10381D01*
G01X3041Y10367D01*
G01X3044Y10353D01*
G01X3045Y10339D01*
G01X3045Y9852D01*
G01X3044Y9837D01*
G01X3040Y9821D01*
G01X3034Y9806D01*
G01X3026Y9793D01*
G01X3015Y9781D01*
G01X2700Y9466D01*
G01X2688Y9455D01*
G01X2675Y9447D01*
G01X2660Y9441D01*
G01X2644Y9437D01*
G01X2628Y9436D01*
G01X2613Y9437D01*
G01X2598Y9441D01*
G01X2583Y9446D01*
G01X2570Y9454D01*
G01X2528Y9483D01*
G01X2485Y9509D01*
G01X2440Y9533D01*
G01X2395Y9556D01*
G01X2349Y9576D01*
G01X2301Y9595D01*
G01X2253Y9611D01*
G01X2205Y9625D01*
G01X2156Y9637D01*
G01X2106Y9647D01*
G01X2056Y9655D01*
G01X2006Y9661D01*
G01X1955Y9664D01*
G01X1905Y9665D01*
G01X1855Y9664D01*
G01X1806Y9661D01*
G01X1758Y9656D01*
G01X1709Y9648D01*
G01X1661Y9639D01*
G01X1613Y9628D01*
G01X1566Y9614D01*
G01X1519Y9599D01*
G01X1473Y9582D01*
G01X1428Y9562D01*
G01X1384Y9541D01*
G01X1340Y9518D01*
G01X1298Y9493D01*
G01X1257Y9467D01*
G01X1217Y9438D01*
G01X1178Y9408D01*
G01X1140Y9377D01*
G01X1104Y9343D01*
G01X1070Y9309D01*
G01X1036Y9273D01*
G01X1005Y9235D01*
G01X975Y9196D01*
G01X946Y9156D01*
G01X920Y9115D01*
G01X895Y9073D01*
G01X872Y9029D01*
G01X851Y8985D01*
G01X831Y8940D01*
G01X814Y8894D01*
G01X799Y8847D01*
G01X785Y8800D01*
G01X774Y8752D01*
G01X765Y8704D01*
G01X757Y8655D01*
G01X752Y8607D01*
G01X749Y8558D01*
G01X748Y8509D01*
G01X749Y8459D01*
G01X752Y8410D01*
G01X757Y8362D01*
G01X765Y8313D01*
G01X774Y8265D01*
G01X785Y8217D01*
G01X799Y8170D01*
G01X814Y8123D01*
G01X831Y8077D01*
G01X851Y8032D01*
G01X872Y7988D01*
G01X895Y7944D01*
G01X920Y7902D01*
G01X946Y7861D01*
G01X975Y7821D01*
G01X1005Y7782D01*
G01X1036Y7744D01*
G01X1070Y7708D01*
G01X1104Y7674D01*
G01X1140Y7640D01*
G01X1178Y7609D01*
G01X1217Y7579D01*
G01X1257Y7550D01*
G01X1298Y7524D01*
G01X1340Y7499D01*
G01X1384Y7476D01*
G01X1428Y7455D01*
G01X1473Y7435D01*
G01X1519Y7418D01*
G01X1566Y7403D01*
G01X1613Y7389D01*
G01X1661Y7378D01*
G01X1709Y7369D01*
G01X1758Y7361D01*
G01X1806Y7356D01*
G01X1855Y7353D01*
G01X1905Y7352D01*
G01X1954Y7353D01*
G01X2003Y7356D01*
G01X2051Y7361D01*
G01X2100Y7369D01*
G01X2148Y7378D01*
G01X2196Y7389D01*
G01X2243Y7403D01*
G01X2290Y7418D01*
G01X2336Y7435D01*
G01X2381Y7455D01*
G01X2425Y7476D01*
G01X2469Y7499D01*
G01X2511Y7524D01*
G01X2552Y7550D01*
G01X2592Y7579D01*
G01X2631Y7609D01*
G01X2669Y7640D01*
G01X2705Y7674D01*
G01X2739Y7708D01*
G01X2773Y7744D01*
G01X2804Y7782D01*
G01X2834Y7821D01*
G01X2863Y7861D01*
G01X2889Y7902D01*
G01X2914Y7944D01*
G01X2937Y7988D01*
G01X2958Y8032D01*
G01X2978Y8077D01*
G01X2995Y8123D01*
G01X3010Y8170D01*
G01X3024Y8217D01*
G01X3035Y8265D01*
G01X3044Y8313D01*
G01X3052Y8362D01*
G01X3057Y8410D01*
G01X3060Y8459D01*
G01X3061Y8509D01*
G01X3060Y8563D01*
G01X3056Y8618D01*
G01X3049Y8672D01*
G01X3048Y8687D01*
G01X3050Y8703D01*
G01X3053Y8718D01*
G01X3059Y8733D01*
G01X3068Y8747D01*
G01X3078Y8759D01*
G01X3700Y9380D01*
G01X3720Y9402D01*
G01X3739Y9426D01*
G01X3756Y9451D01*
G01X3770Y9477D01*
G01X3783Y9505D01*
G01X3793Y9533D01*
G01X3801Y9562D01*
G01X3807Y9592D01*
G01X3811Y9621D01*
G01X3812Y9652D01*
G01X3812Y10848D01*
G01X3813Y10863D01*
G01X3817Y10879D01*
G01X3823Y10894D01*
G01X3831Y10907D01*
G01X3842Y10919D01*
G01X5844Y12921D01*
G01X5856Y12932D01*
G01X5869Y12940D01*
G01X5884Y12946D01*
G01X5900Y12950D01*
G01X5915Y12951D01*
G01X7927Y12951D01*
G01X7942Y12950D01*
G01X7958Y12946D01*
G01X7973Y12940D01*
G01X7986Y12932D01*
G01X7998Y12921D01*
G01X9761Y11158D01*
G01X9783Y11138D01*
G01X9807Y11119D01*
G01X9832Y11102D01*
G01X9858Y11088D01*
G01X9886Y11075D01*
G01X9914Y11065D01*
G01X9943Y11057D01*
G01X9973Y11051D01*
G01X10002Y11047D01*
G01X10033Y11046D01*
G01X10089Y11046D01*
G01X10104Y11045D01*
G01X10119Y11041D01*
G01X10133Y11036D01*
G01X10146Y11028D01*
G01X10158Y11019D01*
G01X10184Y10996D01*
G01X10212Y10974D01*
G01X10241Y10955D01*
G01X10271Y10937D01*
G01X10303Y10921D01*
G01X10335Y10907D01*
G01X10368Y10895D01*
G01X10402Y10886D01*
G01X10436Y10878D01*
G01X10471Y10873D01*
G01X10505Y10869D01*
G01X10541Y10868D01*
G01X10574Y10869D01*
G01X10608Y10872D01*
G01X10642Y10877D01*
G01X10675Y10884D01*
G01X10708Y10894D01*
G01X10740Y10905D01*
G01X10771Y10918D01*
G01X10801Y10932D01*
G01X10831Y10949D01*
G01X10859Y10968D01*
G01X10887Y10988D01*
G01X10913Y11009D01*
G01X10961Y11057D01*
G01X10982Y11083D01*
G01X11002Y11111D01*
G01X11021Y11139D01*
G01X11038Y11169D01*
G01X11052Y11199D01*
G01X11065Y11230D01*
G01X11076Y11262D01*
G01X11086Y11295D01*
G01X11093Y11328D01*
G01X11098Y11362D01*
G01X11101Y11396D01*
G01X11102Y11430D01*
G01X11101Y11464D01*
G01X11098Y11498D01*
G01X11092Y11532D01*
G01X11085Y11565D01*
G01X11076Y11598D01*
G01X11065Y11631D01*
G01X11051Y11662D01*
G01X11036Y11693D01*
G01X11019Y11723D01*
G01X11000Y11752D01*
G01X10980Y11779D01*
G01X10957Y11805D01*
G01X10934Y11830D01*
G01X10909Y11853D01*
G01X10882Y11875D01*
G01X10854Y11895D01*
G01X10825Y11913D01*
G01X10795Y11930D01*
G01X10764Y11944D01*
G01X10751Y11951D01*
G01X10739Y11960D01*
G01X10728Y11970D01*
G01X10719Y11982D01*
G01X10712Y11995D01*
G01X10707Y12009D01*
G01X10704Y12023D01*
G01X10703Y12038D01*
G01X10706Y12061D01*
G01X10714Y12104D01*
G01X10719Y12148D01*
G01X10721Y12192D01*
G01X10720Y12226D01*
G01X10716Y12261D01*
G01X10711Y12296D01*
G01X10703Y12330D01*
G01X10694Y12364D01*
G01X10682Y12397D01*
G01X10668Y12429D01*
G01X10652Y12460D01*
G01X10635Y12490D01*
G01X10615Y12519D01*
G01X10594Y12547D01*
G01X10571Y12573D01*
G01X10546Y12598D01*
G01X10520Y12622D01*
G01X10510Y12632D01*
G01X10501Y12644D01*
G01X10493Y12657D01*
G01X10488Y12670D01*
G01X10485Y12685D01*
G01X10484Y12700D01*
G01X10485Y12714D01*
G01X10488Y12729D01*
G01X10493Y12742D01*
G01X10501Y12755D01*
G01X10510Y12767D01*
G01X10520Y12777D01*
G01X10546Y12800D01*
G01X10570Y12825D01*
G01X10593Y12850D01*
G01X10614Y12878D01*
G01X10633Y12906D01*
G01X10651Y12936D01*
G01X10666Y12966D01*
G01X10680Y12998D01*
G01X10692Y13030D01*
G01X10702Y13063D01*
G01X10710Y13096D01*
G01X10715Y13130D01*
G01X10719Y13164D01*
G01X10721Y13179D01*
G01X10726Y13194D01*
G01X10733Y13207D01*
G01X10741Y13220D01*
G01X10751Y13231D01*
G01X10763Y13240D01*
G01X10776Y13248D01*
G01X10791Y13253D01*
G01X10805Y13257D01*
G01X10820Y13258D01*
G01X10837Y13256D01*
G01X10853Y13252D01*
G01X10868Y13246D01*
G01X10882Y13237D01*
G01X10895Y13226D01*
G01X11277Y12818D01*
G01X11285Y12809D01*
G01X11748Y12346D01*
G01X11759Y12334D01*
G01X11767Y12321D01*
G01X11773Y12306D01*
G01X11777Y12290D01*
G01X11778Y12274D01*
G01X11778Y11514D01*
G01X11779Y11491D01*
G01X11782Y11467D01*
G01X11788Y11444D01*
G01X11795Y11422D01*
G01X11805Y11400D01*
G01X11817Y11379D01*
G01X11830Y11360D01*
G01X11845Y11342D01*
G01X11862Y11325D01*
G01X11880Y11310D01*
G01X11900Y11296D01*
G01X11920Y11285D01*
G01X11942Y11275D01*
G01X11964Y11268D01*
G01X11987Y11262D01*
G01X12011Y11259D01*
G01X12035Y11258D01*
G01X12884Y11258D01*
G01X12900Y11257D01*
G01X12915Y11253D01*
G01X12930Y11247D01*
G01X12943Y11239D01*
G01X12956Y11228D01*
G01X13190Y10993D01*
G01X13201Y10981D01*
G01X13209Y10968D01*
G01X13215Y10953D01*
G01X13219Y10937D01*
G01X13220Y10922D01*
G01X13219Y10906D01*
G01X13215Y10890D01*
G01X13209Y10875D01*
G01X13201Y10862D01*
G01X13190Y10850D01*
G01X12829Y10488D01*
G01X12816Y10477D01*
G01X12803Y10469D01*
G01X12788Y10463D01*
G01X12773Y10459D01*
G01X12757Y10458D01*
G01X12035Y10458D01*
G01X12011Y10457D01*
G01X11987Y10454D01*
G01X11964Y10448D01*
G01X11942Y10441D01*
G01X11920Y10431D01*
G01X11900Y10420D01*
G01X11880Y10406D01*
G01X11862Y10391D01*
G01X11845Y10374D01*
G01X11830Y10356D01*
G01X11816Y10337D01*
G01X11805Y10316D01*
G01X11795Y10294D01*
G01X11788Y10272D01*
G01X11782Y10249D01*
G01X11779Y10225D01*
G01X11778Y10202D01*
G01X11778Y9101D01*
G01X11779Y9078D01*
G01X11782Y9054D01*
G01X11788Y9031D01*
G01X11795Y9009D01*
G01X11805Y8987D01*
G01X11816Y8966D01*
G01X11830Y8947D01*
G01X11845Y8929D01*
G01X11862Y8912D01*
G01X11880Y8897D01*
G01X11900Y8883D01*
G01X11920Y8872D01*
G01X11942Y8862D01*
G01X11964Y8855D01*
G01X11987Y8849D01*
G01X12011Y8846D01*
G01X12035Y8845D01*
G01X13035Y8845D01*
G01X13058Y8846D01*
G01X13081Y8849D01*
G01X13103Y8854D01*
G01X13125Y8861D01*
G01X13146Y8871D01*
G01X13167Y8882D01*
G01X13186Y8894D01*
G01X13204Y8909D01*
G01X13221Y8925D01*
G01X13236Y8943D01*
G01X13249Y8961D01*
G01X13258Y8973D01*
G01X13268Y8983D01*
G01X13280Y8992D01*
G01X13293Y8998D01*
G01X13306Y9003D01*
G01X13320Y9006D01*
G01X13335Y9007D01*
G01X13349Y9006D01*
G01X13363Y9003D01*
G01X13377Y8998D01*
G01X13389Y8992D01*
G01X13401Y8983D01*
G01X13411Y8973D01*
G01X13420Y8961D01*
G01X13433Y8943D01*
G01X13448Y8925D01*
G01X13465Y8909D01*
G01X13483Y8894D01*
G01X13502Y8882D01*
G01X13523Y8871D01*
G01X13544Y8861D01*
G01X13566Y8854D01*
G01X13589Y8849D01*
G01X13611Y8846D01*
G01X13635Y8845D01*
G01X14357Y8845D01*
G01X14373Y8844D01*
G01X14388Y8840D01*
G01X14403Y8834D01*
G01X14416Y8826D01*
G01X14429Y8815D01*
G01X14940Y8303D01*
G01X14951Y8291D01*
G01X14959Y8278D01*
G01X14965Y8263D01*
G01X14969Y8248D01*
G01X14970Y8232D01*
G01X14969Y8217D01*
G01X14966Y8203D01*
G01X14961Y8189D01*
G01X14954Y8177D01*
G01X14945Y8165D01*
G01X14935Y8155D01*
G01X14923Y8146D01*
G01X14911Y8139D01*
G01X14897Y8134D01*
G01X14883Y8131D01*
G01X14868Y8130D01*
G01X11757Y8130D01*
G01X11742Y8131D01*
G01X11726Y8135D01*
G01X11711Y8141D01*
G01X11698Y8149D01*
G01X11686Y8160D01*
G01X10558Y9288D01*
G01X10536Y9308D01*
G01X10512Y9327D01*
G01X10487Y9344D01*
G01X10461Y9358D01*
G01X10433Y9371D01*
G01X10405Y9381D01*
G01X10376Y9389D01*
G01X10346Y9395D01*
G01X10317Y9399D01*
G01X10287Y9400D01*
G01X5150Y9400D01*
G01X5135Y9401D01*
G01X5120Y9405D01*
G01X5106Y9410D01*
G01X5093Y9418D01*
G01X5081Y9427D01*
G01X5055Y9450D01*
G01X5027Y9472D01*
G01X4998Y9491D01*
G01X4968Y9509D01*
G01X4936Y9525D01*
G01X4904Y9539D01*
G01X4871Y9551D01*
G01X4837Y9560D01*
G01X4803Y9568D01*
G01X4768Y9573D01*
G01X4734Y9577D01*
G01X4699Y9578D01*
G01X4665Y9577D01*
G01X4631Y9574D01*
G01X4597Y9569D01*
G01X4564Y9562D01*
G01X4531Y9552D01*
G01X4499Y9541D01*
G01X4468Y9528D01*
G01X4438Y9514D01*
G01X4408Y9497D01*
G01X4380Y9478D01*
G01X4352Y9458D01*
G01X4326Y9437D01*
G01X4278Y9389D01*
G01X4257Y9363D01*
G01X4237Y9335D01*
G01X4218Y9307D01*
G01X4201Y9277D01*
G01X4187Y9247D01*
G01X4174Y9216D01*
G01X4163Y9184D01*
G01X4153Y9151D01*
G01X4146Y9118D01*
G01X4141Y9084D01*
G01X4138Y9050D01*
G01X4137Y9017D01*
G01X4138Y8983D01*
G01X4141Y8949D01*
G01X4146Y8915D01*
G01X4153Y8882D01*
G01X4163Y8849D01*
G01X4174Y8817D01*
G01X4187Y8786D01*
G01X4201Y8756D01*
G01X4218Y8726D01*
G01X4237Y8698D01*
G01X4257Y8670D01*
G01X4278Y8644D01*
G01X4326Y8596D01*
G01X4352Y8575D01*
G01X4380Y8555D01*
G01X4408Y8536D01*
G01X4438Y8519D01*
G01X4468Y8505D01*
G01X4499Y8492D01*
G01X4531Y8481D01*
G01X4564Y8471D01*
G01X4597Y8464D01*
G01X4631Y8459D01*
G01X4665Y8456D01*
G01X4699Y8455D01*
G01X4734Y8456D01*
G01X4768Y8460D01*
G01X4803Y8465D01*
G01X4837Y8473D01*
G01X4871Y8482D01*
G01X4904Y8494D01*
G01X4936Y8508D01*
G01X4968Y8524D01*
G01X4998Y8542D01*
G01X5027Y8561D01*
G01X5055Y8583D01*
G01X5081Y8606D01*
G01X5093Y8615D01*
G01X5106Y8623D01*
G01X5120Y8628D01*
G01X5135Y8632D01*
G01X5150Y8633D01*
G01X10086Y8633D01*
G01X10101Y8632D01*
G01X10117Y8628D01*
G01X10132Y8622D01*
G01X10145Y8614D01*
G01X10157Y8603D01*
G01X11285Y7475D01*
G01X11307Y7455D01*
G01X11331Y7436D01*
G01X11356Y7419D01*
G01X11382Y7405D01*
G01X11410Y7392D01*
G01X11438Y7382D01*
G01X11467Y7374D01*
G01X11497Y7368D01*
G01X11526Y7364D01*
G01X11557Y7363D01*
G01X14785Y7363D01*
G01X14800Y7362D01*
G01X14816Y7358D01*
G01X14831Y7352D01*
G01X14844Y7344D01*
G01X14856Y7333D01*
G01X15971Y6219D01*
G01X15981Y6207D01*
G01X15990Y6193D01*
G01X15996Y6178D01*
G01X15999Y6163D01*
G01X16001Y6147D01*
G01X16000Y6132D01*
G01X15993Y6078D01*
G01X15989Y6023D01*
G01X15988Y5969D01*
G01X15989Y5919D01*
G01X15992Y5870D01*
G01X15997Y5822D01*
G01X16005Y5773D01*
G01X16014Y5725D01*
G01X16025Y5677D01*
G01X16039Y5630D01*
G01X16054Y5583D01*
G01X16071Y5537D01*
G01X16091Y5492D01*
G01X16112Y5448D01*
G01X16135Y5404D01*
G01X16160Y5362D01*
G01X16186Y5321D01*
G01X16215Y5281D01*
G01X16245Y5242D01*
G01X16276Y5204D01*
G01X16310Y5168D01*
G01X16344Y5134D01*
G01X16380Y5100D01*
G01X16418Y5069D01*
G01X16457Y5039D01*
G01X16497Y5010D01*
G01X16538Y4984D01*
G01X16580Y4959D01*
G01X16624Y4936D01*
G01X16668Y4915D01*
G01X16713Y4895D01*
G01X16759Y4878D01*
G01X16806Y4863D01*
G01X16853Y4849D01*
G01X16901Y4838D01*
G01X16949Y4829D01*
G01X16998Y4821D01*
G01X17046Y4816D01*
G01X17095Y4813D01*
G01X17145Y4812D01*
G01X17194Y4813D01*
G01X17243Y4816D01*
G01X17291Y4821D01*
G01X17340Y4829D01*
G01X17388Y4838D01*
G01X17436Y4849D01*
G01X17483Y4863D01*
G01X17530Y4878D01*
G01X17576Y4895D01*
G01X17621Y4915D01*
G01X17665Y4936D01*
G01X17709Y4959D01*
G01X17751Y4984D01*
G01X17792Y5010D01*
G01X17832Y5039D01*
G01X17871Y5069D01*
G01X17909Y5100D01*
G01X17945Y5134D01*
G01X17979Y5168D01*
G01X18013Y5204D01*
G01X18044Y5242D01*
G01X18074Y5281D01*
G01X18103Y5321D01*
G01X18129Y5362D01*
G01X18154Y5404D01*
G01X18177Y5448D01*
G01X18198Y5492D01*
G01X18218Y5537D01*
G01X18235Y5583D01*
G01X18250Y5630D01*
G01X18264Y5677D01*
G01X18275Y5725D01*
G01X18284Y5773D01*
G01X18292Y5822D01*
G01X18297Y5870D01*
G01X18300Y5919D01*
G01X18301Y5969D01*
G01X18300Y6018D01*
G01X18297Y6067D01*
G01X18292Y6115D01*
G01X18284Y6164D01*
G01X18275Y6212D01*
G01X18264Y6260D01*
G01X18250Y6307D01*
G01X18235Y6354D01*
G01X18218Y6400D01*
G01X18198Y6445D01*
G01X18177Y6489D01*
G01X18154Y6533D01*
G01X18129Y6575D01*
G01X18103Y6616D01*
G01X18074Y6656D01*
G01X18044Y6695D01*
G01X18013Y6733D01*
G01X17979Y6769D01*
G01X17945Y6803D01*
G01X17909Y6837D01*
G01X17871Y6868D01*
G01X17832Y6898D01*
G01X17792Y6927D01*
G01X17751Y6953D01*
G01X17709Y6978D01*
G01X17665Y7001D01*
G01X17621Y7022D01*
G01X17576Y7042D01*
G01X17530Y7059D01*
G01X17483Y7074D01*
G01X17436Y7088D01*
G01X17388Y7099D01*
G01X17340Y7108D01*
G01X17291Y7116D01*
G01X17243Y7121D01*
G01X17194Y7124D01*
G01X17145Y7125D01*
G01X17094Y7124D01*
G01X17043Y7121D01*
G01X16993Y7115D01*
G01X16943Y7107D01*
G01X16893Y7097D01*
G01X16844Y7085D01*
G01X16796Y7071D01*
G01X16748Y7055D01*
G01X16700Y7036D01*
G01X16654Y7016D01*
G01X16609Y6993D01*
G01X16564Y6969D01*
G01X16521Y6943D01*
G01X16479Y6914D01*
G01X16466Y6906D01*
G01X16451Y6901D01*
G01X16436Y6897D01*
G01X16421Y6896D01*
G01X16405Y6897D01*
G01X16389Y6901D01*
G01X16374Y6907D01*
G01X16361Y6915D01*
G01X16349Y6926D01*
G01X16085Y7189D01*
G01X16075Y7202D01*
G01X16066Y7215D01*
G01X16060Y7230D01*
G01X16056Y7245D01*
G01X16055Y7261D01*
G01X16056Y7276D01*
G01X16059Y7290D01*
G01X16064Y7303D01*
G01X16071Y7316D01*
G01X16080Y7328D01*
G01X16090Y7338D01*
G01X16102Y7347D01*
G01X16115Y7354D01*
G01X16128Y7359D01*
G01X16142Y7362D01*
G01X16157Y7363D01*
G01X16182Y7360D01*
G01X16213Y7354D01*
G01X16245Y7352D01*
G01X18044Y7352D01*
G01X18068Y7353D01*
G01X18092Y7356D01*
G01X18115Y7362D01*
G01X18137Y7369D01*
G01X18159Y7379D01*
G01X18180Y7390D01*
G01X18199Y7404D01*
G01X18217Y7419D01*
G01X18234Y7436D01*
G01X18249Y7454D01*
G01X18263Y7473D01*
G01X18274Y7494D01*
G01X18284Y7516D01*
G01X18291Y7538D01*
G01X18297Y7561D01*
G01X18300Y7585D01*
G01X18301Y7609D01*
G01X18301Y9408D01*
G01X18300Y9432D01*
G01X18297Y9456D01*
G01X18291Y9479D01*
G01X18284Y9501D01*
G01X18274Y9523D01*
G01X18263Y9544D01*
G01X18249Y9563D01*
G01X18234Y9581D01*
G01X18217Y9598D01*
G01X18199Y9613D01*
G01X18180Y9627D01*
G01X18159Y9638D01*
G01X18137Y9648D01*
G01X18115Y9655D01*
G01X18092Y9661D01*
G01X18068Y9664D01*
G01X18044Y9665D01*
G01X16245Y9665D01*
G01X16221Y9664D01*
G01X16197Y9661D01*
G01X16174Y9655D01*
G01X16152Y9648D01*
G01X16130Y9638D01*
G01X16109Y9627D01*
G01X16090Y9613D01*
G01X16072Y9598D01*
G01X16055Y9581D01*
G01X16040Y9563D01*
G01X16026Y9544D01*
G01X16015Y9523D01*
G01X16005Y9501D01*
G01X15998Y9479D01*
G01X15992Y9456D01*
G01X15989Y9432D01*
G01X15988Y9408D01*
G01X15988Y8994D01*
G01X15987Y8979D01*
G01X15984Y8965D01*
G01X15979Y8951D01*
G01X15972Y8939D01*
G01X15963Y8927D01*
G01X15953Y8917D01*
G01X15941Y8908D01*
G01X15929Y8901D01*
G01X15915Y8896D01*
G01X15901Y8893D01*
G01X15886Y8892D01*
G01X15479Y8892D01*
G01X15463Y8893D01*
G01X15447Y8897D01*
G01X15432Y8903D01*
G01X15419Y8911D01*
G01X15407Y8922D01*
G01X14921Y9408D01*
G01X14911Y9420D01*
G01X14902Y9433D01*
G01X14896Y9448D01*
G01X14892Y9464D01*
G01X14891Y9479D01*
G01X14891Y10202D01*
G01X14890Y10224D01*
G01X14887Y10247D01*
G01X14882Y10269D01*
G01X14875Y10291D01*
G01X14866Y10312D01*
G01X14855Y10333D01*
G01X14842Y10352D01*
G01X14828Y10370D01*
G01X14820Y10381D01*
G01X14813Y10394D01*
G01X14807Y10408D01*
G01X14804Y10422D01*
G01X14803Y10436D01*
G01X14804Y10451D01*
G01X14807Y10465D01*
G01X14813Y10479D01*
G01X14819Y10491D01*
G01X14828Y10503D01*
G01X14838Y10513D01*
G01X14850Y10522D01*
G01X14863Y10529D01*
G01X14876Y10534D01*
G01X14891Y10537D01*
G01X14905Y10538D01*
G01X15740Y10538D01*
G01X15755Y10537D01*
G01X15769Y10534D01*
G01X15783Y10529D01*
G01X15795Y10522D01*
G01X15807Y10513D01*
G01X15817Y10503D01*
G01X15826Y10491D01*
G01X15833Y10479D01*
G01X15838Y10465D01*
G01X15841Y10451D01*
G01X15842Y10436D01*
G01X15842Y10371D01*
G01X15843Y10348D01*
G01X15846Y10324D01*
G01X15852Y10301D01*
G01X15859Y10279D01*
G01X15869Y10257D01*
G01X15880Y10236D01*
G01X15894Y10217D01*
G01X15909Y10199D01*
G01X15926Y10182D01*
G01X15944Y10167D01*
G01X15964Y10153D01*
G01X15984Y10142D01*
G01X16006Y10132D01*
G01X16028Y10125D01*
G01X16051Y10119D01*
G01X16075Y10116D01*
G01X16099Y10115D01*
G01X17099Y10115D01*
G01X17122Y10116D01*
G01X17145Y10119D01*
G01X17167Y10124D01*
G01X17189Y10131D01*
G01X17210Y10141D01*
G01X17231Y10152D01*
G01X17250Y10164D01*
G01X17268Y10179D01*
G01X17285Y10195D01*
G01X17300Y10213D01*
G01X17313Y10231D01*
G01X17322Y10243D01*
G01X17332Y10253D01*
G01X17344Y10262D01*
G01X17357Y10268D01*
G01X17370Y10273D01*
G01X17384Y10276D01*
G01X17399Y10277D01*
G01X17413Y10276D01*
G01X17427Y10273D01*
G01X17441Y10268D01*
G01X17453Y10262D01*
G01X17465Y10253D01*
G01X17475Y10243D01*
G01X17484Y10231D01*
G01X17497Y10213D01*
G01X17512Y10195D01*
G01X17529Y10179D01*
G01X17547Y10164D01*
G01X17566Y10152D01*
G01X17587Y10141D01*
G01X17608Y10131D01*
G01X17630Y10124D01*
G01X17653Y10119D01*
G01X17675Y10116D01*
G01X17699Y10115D01*
G01X18699Y10115D01*
G01X18722Y10116D01*
G01X18746Y10119D01*
G01X18769Y10125D01*
G01X18791Y10132D01*
G01X18813Y10142D01*
G01X18834Y10153D01*
G01X18853Y10167D01*
G01X18871Y10182D01*
G01X18888Y10199D01*
G01X18903Y10217D01*
G01X18917Y10236D01*
G01X18928Y10257D01*
G01X18938Y10279D01*
G01X18945Y10301D01*
G01X18951Y10324D01*
G01X18954Y10348D01*
G01X18955Y10371D01*
G01X18955Y10436D01*
G01X18956Y10451D01*
G01X18959Y10465D01*
G01X18964Y10479D01*
G01X18971Y10491D01*
G01X18980Y10503D01*
G01X18990Y10513D01*
G01X19002Y10522D01*
G01X19014Y10529D01*
G01X19028Y10534D01*
G01X19042Y10537D01*
G01X19057Y10538D01*
G01X19484Y10538D01*
G01X19499Y10537D01*
G01X19515Y10533D01*
G01X19530Y10527D01*
G01X19543Y10519D01*
G01X19555Y10508D01*
G01X20406Y9658D01*
G01X20416Y9646D01*
G01X20424Y9632D01*
G01X20430Y9618D01*
G01X20434Y9602D01*
G01X20435Y9586D01*
G01X20434Y9572D01*
G01X20431Y9558D01*
G01X20426Y9544D01*
G01X20419Y9531D01*
G01X20410Y9520D01*
G01X20400Y9509D01*
G01X20389Y9501D01*
G01X20376Y9494D01*
G01X20362Y9489D01*
G01X20348Y9486D01*
G01X20334Y9485D01*
G01X20315Y9486D01*
G01X20298Y9491D01*
G01X20281Y9499D01*
G01X20236Y9525D01*
G01X20189Y9549D01*
G01X20142Y9571D01*
G01X20093Y9590D01*
G01X20044Y9608D01*
G01X19994Y9623D01*
G01X19944Y9636D01*
G01X19892Y9646D01*
G01X19841Y9654D01*
G01X19789Y9660D01*
G01X19737Y9664D01*
G01X19685Y9665D01*
G01X19635Y9664D01*
G01X19586Y9661D01*
G01X19538Y9656D01*
G01X19489Y9648D01*
G01X19441Y9639D01*
G01X19393Y9628D01*
G01X19346Y9614D01*
G01X19299Y9599D01*
G01X19253Y9582D01*
G01X19208Y9562D01*
G01X19164Y9541D01*
G01X19120Y9518D01*
G01X19078Y9493D01*
G01X19037Y9467D01*
G01X18997Y9438D01*
G01X18958Y9408D01*
G01X18920Y9377D01*
G01X18884Y9343D01*
G01X18850Y9309D01*
G01X18816Y9273D01*
G01X18785Y9235D01*
G01X18755Y9196D01*
G01X18726Y9156D01*
G01X18700Y9115D01*
G01X18675Y9073D01*
G01X18652Y9029D01*
G01X18631Y8985D01*
G01X18611Y8940D01*
G01X18594Y8894D01*
G01X18579Y8847D01*
G01X18565Y8800D01*
G01X18554Y8752D01*
G01X18545Y8704D01*
G01X18537Y8655D01*
G01X18532Y8607D01*
G01X18529Y8558D01*
G01X18528Y8509D01*
G01X18529Y8459D01*
G01X18532Y8410D01*
G01X18537Y8361D01*
G01X18545Y8313D01*
G01X18554Y8265D01*
G01X18565Y8217D01*
G01X18579Y8169D01*
G01X18594Y8123D01*
G01X18612Y8077D01*
G01X18631Y8032D01*
G01X18652Y7987D01*
G01X18675Y7944D01*
G01X18700Y7901D01*
G01X18727Y7860D01*
G01X18755Y7820D01*
G01X18785Y7781D01*
G01X18817Y7744D01*
G01X18850Y7707D01*
G01X18885Y7673D01*
G01X18921Y7640D01*
G01X18959Y7608D01*
G01X18998Y7578D01*
G01X19038Y7550D01*
G01X19079Y7523D01*
G01X19122Y7498D01*
G01X19135Y7490D01*
G01X19146Y7479D01*
G01X19156Y7467D01*
G01X19164Y7454D01*
G01X19169Y7440D01*
G01X19173Y7425D01*
G01X19174Y7409D01*
G01X19174Y7068D01*
G01X19173Y7052D01*
G01X19169Y7037D01*
G01X19164Y7023D01*
G01X19156Y7010D01*
G01X19146Y6998D01*
G01X19135Y6987D01*
G01X19122Y6979D01*
G01X19079Y6954D01*
G01X19038Y6927D01*
G01X18998Y6899D01*
G01X18959Y6869D01*
G01X18921Y6837D01*
G01X18885Y6804D01*
G01X18850Y6770D01*
G01X18817Y6733D01*
G01X18785Y6696D01*
G01X18755Y6657D01*
G01X18727Y6617D01*
G01X18700Y6576D01*
G01X18675Y6533D01*
G01X18652Y6490D01*
G01X18631Y6445D01*
G01X18612Y6400D01*
G01X18594Y6354D01*
G01X18579Y6308D01*
G01X18565Y6260D01*
G01X18554Y6212D01*
G01X18545Y6164D01*
G01X18537Y6116D01*
G01X18532Y6067D01*
G01X18529Y6018D01*
G01X18528Y5969D01*
G01X18529Y5919D01*
G01X18532Y5870D01*
G01X18537Y5822D01*
G01X18545Y5773D01*
G01X18554Y5725D01*
G01X18565Y5677D01*
G01X18579Y5630D01*
G01X18594Y5583D01*
G01X18611Y5537D01*
G01X18631Y5492D01*
G01X18652Y5448D01*
G01X18675Y5404D01*
G01X18700Y5362D01*
G01X18726Y5321D01*
G01X18755Y5281D01*
G01X18785Y5242D01*
G01X18816Y5204D01*
G01X18850Y5168D01*
G01X18884Y5134D01*
G01X18920Y5100D01*
G01X18958Y5069D01*
G01X18997Y5039D01*
G01X19037Y5010D01*
G01X19078Y4984D01*
G01X19120Y4959D01*
G01X19164Y4936D01*
G01X19208Y4915D01*
G01X19253Y4895D01*
G01X19299Y4878D01*
G01X19346Y4863D01*
G01X19393Y4849D01*
G01X19441Y4838D01*
G01X19489Y4829D01*
G01X19538Y4821D01*
G01X19586Y4816D01*
G01X19635Y4813D01*
G01X19685Y4812D01*
G01X19734Y4813D01*
G01X19783Y4816D01*
G01X19831Y4821D01*
G01X19880Y4829D01*
G01X19928Y4838D01*
G01X19976Y4849D01*
G01X20023Y4863D01*
G01X20070Y4878D01*
G01X20116Y4895D01*
G01X20161Y4915D01*
G01X20205Y4936D01*
G01X20249Y4959D01*
G01X20291Y4984D01*
G01X20332Y5010D01*
G01X20372Y5039D01*
G01X20411Y5069D01*
G01X20449Y5100D01*
G01X20485Y5134D01*
G01X20519Y5168D01*
G01X20553Y5204D01*
G01X20584Y5242D01*
G01X20614Y5281D01*
G01X20643Y5321D01*
G01X20669Y5362D01*
G01X20694Y5404D01*
G01X20717Y5448D01*
G01X20738Y5492D01*
G01X20758Y5537D01*
G01X20775Y5583D01*
G01X20790Y5630D01*
G01X20804Y5677D01*
G01X20815Y5725D01*
G01X20824Y5773D01*
G01X20832Y5822D01*
G01X20837Y5870D01*
G01X20840Y5919D01*
G01X20841Y5969D01*
G01X20840Y6018D01*
G01X20837Y6067D01*
G01X20832Y6116D01*
G01X20824Y6164D01*
G01X20815Y6212D01*
G01X20804Y6260D01*
G01X20790Y6308D01*
G01X20775Y6354D01*
G01X20757Y6400D01*
G01X20738Y6445D01*
G01X20717Y6490D01*
G01X20694Y6533D01*
G01X20669Y6576D01*
G01X20642Y6617D01*
G01X20614Y6657D01*
G01X20584Y6696D01*
G01X20552Y6733D01*
G01X20519Y6770D01*
G01X20484Y6804D01*
G01X20448Y6837D01*
G01X20410Y6869D01*
G01X20371Y6899D01*
G01X20331Y6927D01*
G01X20290Y6954D01*
G01X20247Y6979D01*
G01X20234Y6987D01*
G01X20223Y6998D01*
G01X20213Y7010D01*
G01X20205Y7023D01*
G01X20200Y7037D01*
G01X20196Y7052D01*
G01X20195Y7068D01*
G01X20195Y7409D01*
G01X20196Y7425D01*
G01X20200Y7440D01*
G01X20205Y7454D01*
G01X20213Y7467D01*
G01X20223Y7479D01*
G01X20234Y7490D01*
G01X20247Y7498D01*
G01X20290Y7523D01*
G01X20331Y7550D01*
G01X20371Y7578D01*
G01X20410Y7608D01*
G01X20448Y7640D01*
G01X20484Y7673D01*
G01X20519Y7707D01*
G01X20552Y7744D01*
G01X20584Y7781D01*
G01X20614Y7820D01*
G01X20642Y7860D01*
G01X20669Y7901D01*
G01X20694Y7944D01*
G01X20717Y7987D01*
G01X20738Y8032D01*
G01X20757Y8077D01*
G01X20775Y8123D01*
G01X20790Y8169D01*
G01X20804Y8217D01*
G01X20815Y8265D01*
G01X20824Y8313D01*
G01X20832Y8361D01*
G01X20837Y8410D01*
G01X20840Y8459D01*
G01X20841Y8509D01*
G01X20840Y8561D01*
G01X20836Y8613D01*
G01X20830Y8665D01*
G01X20822Y8716D01*
G01X20812Y8768D01*
G01X20799Y8818D01*
G01X20784Y8868D01*
G01X20766Y8917D01*
G01X20747Y8966D01*
G01X20725Y9013D01*
G01X20701Y9060D01*
G01X20675Y9105D01*
G01X20667Y9122D01*
G01X20662Y9139D01*
G01X20661Y9158D01*
G01X20662Y9172D01*
G01X20665Y9186D01*
G01X20670Y9200D01*
G01X20677Y9213D01*
G01X20685Y9224D01*
G01X20696Y9234D01*
G01X20707Y9243D01*
G01X20720Y9250D01*
G01X20734Y9255D01*
G01X20748Y9258D01*
G01X20762Y9259D01*
G01X20778Y9258D01*
G01X20794Y9254D01*
G01X20808Y9248D01*
G01X20822Y9240D01*
G01X20834Y9230D01*
G01X21098Y8965D01*
G01X21109Y8953D01*
G01X21117Y8939D01*
G01X21123Y8925D01*
G01X21127Y8909D01*
G01X21128Y8893D01*
G01X21127Y8878D01*
G01X21123Y8862D01*
G01X21109Y8813D01*
G01X21096Y8763D01*
G01X21086Y8713D01*
G01X21078Y8662D01*
G01X21073Y8611D01*
G01X21069Y8560D01*
G01X21068Y8509D01*
G01X21069Y8459D01*
G01X21072Y8410D01*
G01X21077Y8362D01*
G01X21085Y8313D01*
G01X21094Y8265D01*
G01X21105Y8217D01*
G01X21119Y8170D01*
G01X21134Y8123D01*
G01X21151Y8077D01*
G01X21171Y8032D01*
G01X21192Y7988D01*
G01X21215Y7944D01*
G01X21240Y7902D01*
G01X21266Y7861D01*
G01X21295Y7821D01*
G01X21325Y7782D01*
G01X21356Y7744D01*
G01X21390Y7708D01*
G01X21424Y7674D01*
G01X21460Y7640D01*
G01X21498Y7609D01*
G01X21537Y7579D01*
G01X21577Y7550D01*
G01X21618Y7524D01*
G01X21660Y7499D01*
G01X21704Y7476D01*
G01X21748Y7455D01*
G01X21793Y7435D01*
G01X21839Y7418D01*
G01X21886Y7403D01*
G01X21933Y7389D01*
G01X21981Y7378D01*
G01X22029Y7369D01*
G01X22078Y7361D01*
G01X22126Y7356D01*
G01X22175Y7353D01*
G01X22225Y7352D01*
G01X22274Y7353D01*
G01X22323Y7356D01*
G01X22371Y7361D01*
G01X22420Y7369D01*
G01X22468Y7378D01*
G01X22516Y7389D01*
G01X22563Y7403D01*
G01X22610Y7418D01*
G01X22656Y7435D01*
G01X22701Y7455D01*
G01X22745Y7476D01*
G01X22789Y7499D01*
G01X22831Y7524D01*
G01X22872Y7550D01*
G01X22912Y7579D01*
G01X22951Y7609D01*
G01X22989Y7640D01*
G01X23025Y7674D01*
G01X23059Y7708D01*
G01X23093Y7744D01*
G01X23124Y7782D01*
G01X23154Y7821D01*
G01X23183Y7861D01*
G01X23209Y7902D01*
G01X23234Y7944D01*
G01X23257Y7988D01*
G01X23278Y8032D01*
G01X23298Y8077D01*
G01X23315Y8123D01*
G01X23330Y8170D01*
G01X23344Y8217D01*
G01X23355Y8265D01*
G01X23364Y8313D01*
G01X23372Y8362D01*
G01X23377Y8410D01*
G01X23380Y8459D01*
G01X23381Y8509D01*
G01X23380Y8558D01*
G01X23377Y8607D01*
G01X23372Y8655D01*
G01X23364Y8704D01*
G01X23355Y8752D01*
G01X23344Y8800D01*
G01X23330Y8847D01*
G01X23315Y8894D01*
G01X23298Y8940D01*
G01X23278Y8985D01*
G01X23257Y9029D01*
G01X23234Y9073D01*
G01X23209Y9115D01*
G01X23183Y9156D01*
G01X23154Y9196D01*
G01X23124Y9235D01*
G01X23093Y9273D01*
G01X23059Y9309D01*
G01X23025Y9343D01*
G01X22989Y9377D01*
G01X22951Y9408D01*
G01X22912Y9438D01*
G01X22872Y9467D01*
G01X22831Y9493D01*
G01X22789Y9518D01*
G01X22745Y9541D01*
G01X22701Y9562D01*
G01X22656Y9582D01*
G01X22610Y9599D01*
G01X22563Y9614D01*
G01X22516Y9628D01*
G01X22468Y9639D01*
G01X22420Y9648D01*
G01X22371Y9656D01*
G01X22323Y9661D01*
G01X22274Y9664D01*
G01X22225Y9665D01*
G01X22176Y9664D01*
G01X22127Y9661D01*
G01X22078Y9656D01*
G01X22030Y9649D01*
G01X21981Y9639D01*
G01X21934Y9628D01*
G01X21887Y9615D01*
G01X21840Y9599D01*
G01X21794Y9582D01*
G01X21749Y9563D01*
G01X21705Y9542D01*
G01X21691Y9536D01*
G01X21675Y9532D01*
G01X21659Y9531D01*
G01X21644Y9532D01*
G01X21628Y9536D01*
G01X21613Y9542D01*
G01X21600Y9550D01*
G01X21588Y9561D01*
G01X19956Y11193D01*
G01X19934Y11213D01*
G01X19910Y11232D01*
G01X19885Y11249D01*
G01X19859Y11263D01*
G01X19831Y11276D01*
G01X19803Y11286D01*
G01X19774Y11294D01*
G01X19744Y11300D01*
G01X19715Y11304D01*
G01X19685Y11305D01*
G01X19057Y11305D01*
G01X19042Y11306D01*
G01X19028Y11309D01*
G01X19014Y11314D01*
G01X19002Y11321D01*
G01X18990Y11330D01*
G01X18980Y11340D01*
G01X18971Y11352D01*
G01X18964Y11364D01*
G01X18959Y11378D01*
G01X18956Y11392D01*
G01X18955Y11407D01*
G01X18955Y11472D01*
G01X18954Y11495D01*
G01X18951Y11519D01*
G01X18945Y11542D01*
G01X18938Y11564D01*
G01X18928Y11586D01*
G01X18917Y11607D01*
G01X18903Y11626D01*
G01X18888Y11644D01*
G01X18871Y11661D01*
G01X18853Y11676D01*
G01X18834Y11690D01*
G01X18813Y11701D01*
G01X18791Y11711D01*
G01X18769Y11718D01*
G01X18746Y11724D01*
G01X18722Y11727D01*
G01X18699Y11728D01*
G01X17699Y11728D01*
G01X17675Y11727D01*
G01X17653Y11724D01*
G01X17630Y11719D01*
G01X17608Y11712D01*
G01X17587Y11702D01*
G01X17566Y11691D01*
G01X17547Y11679D01*
G01X17529Y11664D01*
G01X17512Y11648D01*
G01X17497Y11630D01*
G01X17484Y11612D01*
G01X17475Y11600D01*
G01X17465Y11590D01*
G01X17453Y11581D01*
G01X17441Y11575D01*
G01X17427Y11570D01*
G01X17413Y11567D01*
G01X17399Y11566D01*
G01X17384Y11567D01*
G01X17370Y11570D01*
G01X17357Y11575D01*
G01X17344Y11581D01*
G01X17332Y11590D01*
G01X17322Y11600D01*
G01X17313Y11612D01*
G01X17300Y11630D01*
G01X17285Y11648D01*
G01X17268Y11664D01*
G01X17250Y11679D01*
G01X17231Y11691D01*
G01X17210Y11702D01*
G01X17189Y11712D01*
G01X17167Y11719D01*
G01X17145Y11724D01*
G01X17122Y11727D01*
G01X17099Y11728D01*
G01X16099Y11728D01*
G01X16075Y11727D01*
G01X16051Y11724D01*
G01X16028Y11718D01*
G01X16006Y11711D01*
G01X15984Y11701D01*
G01X15964Y11690D01*
G01X15944Y11676D01*
G01X15926Y11661D01*
G01X15909Y11644D01*
G01X15894Y11626D01*
G01X15880Y11607D01*
G01X15869Y11586D01*
G01X15859Y11564D01*
G01X15852Y11542D01*
G01X15846Y11519D01*
G01X15843Y11495D01*
G01X15842Y11472D01*
G01X15842Y11407D01*
G01X15841Y11392D01*
G01X15838Y11378D01*
G01X15833Y11364D01*
G01X15826Y11352D01*
G01X15817Y11340D01*
G01X15807Y11330D01*
G01X15795Y11321D01*
G01X15783Y11314D01*
G01X15769Y11309D01*
G01X15755Y11306D01*
G01X15740Y11305D01*
G01X14976Y11305D01*
G01X14961Y11306D01*
G01X14947Y11309D01*
G01X14934Y11314D01*
G01X14921Y11321D01*
G01X14909Y11330D01*
G01X14899Y11340D01*
G01X14890Y11352D01*
G01X14884Y11364D01*
G01X14878Y11378D01*
G01X14875Y11392D01*
G01X14874Y11407D01*
G01X14876Y11422D01*
G01X14879Y11437D01*
G01X14886Y11463D01*
G01X14890Y11488D01*
G01X14891Y11514D01*
G01X14891Y11726D01*
G01X14448Y11726D01*
G01X14448Y11407D01*
G01X14447Y11392D01*
G01X14444Y11378D01*
G01X14439Y11364D01*
G01X14432Y11352D01*
G01X14423Y11340D01*
G01X14413Y11330D01*
G01X14401Y11321D01*
G01X14389Y11314D01*
G01X14375Y11309D01*
G01X14361Y11306D01*
G01X14346Y11305D01*
G01X14006Y11305D01*
G01X13990Y11306D01*
G01X13974Y11310D01*
G01X13959Y11316D01*
G01X13946Y11324D01*
G01X13934Y11335D01*
G01X13851Y11418D01*
G01X13840Y11430D01*
G01X13832Y11444D01*
G01X13826Y11458D01*
G01X13822Y11474D01*
G01X13821Y11490D01*
G01X13821Y11726D01*
G01X13585Y11726D01*
G01X13569Y11727D01*
G01X13553Y11731D01*
G01X13539Y11737D01*
G01X13525Y11745D01*
G01X13513Y11756D01*
G01X13321Y11948D01*
G01X13311Y11960D01*
G01X13302Y11973D01*
G01X13296Y11988D01*
G01X13292Y12004D01*
G01X13291Y12019D01*
G01X13291Y12301D01*
G01X13292Y12316D01*
G01X13295Y12330D01*
G01X13300Y12344D01*
G01X13307Y12356D01*
G01X13316Y12368D01*
G01X13326Y12378D01*
G01X13338Y12387D01*
G01X13351Y12394D01*
G01X13364Y12399D01*
G01X13378Y12402D01*
G01X13393Y12403D01*
G01X13821Y12403D01*
G01X13821Y12871D01*
G01X13634Y12871D01*
G01X13611Y12870D01*
G01X13588Y12867D01*
G01X13566Y12862D01*
G01X13544Y12855D01*
G01X13523Y12845D01*
G01X13502Y12834D01*
G01X13483Y12822D01*
G01X13465Y12807D01*
G01X13448Y12791D01*
G01X13433Y12774D01*
G01X13420Y12755D01*
G01X13411Y12743D01*
G01X13401Y12733D01*
G01X13389Y12725D01*
G01X13376Y12718D01*
G01X13363Y12713D01*
G01X13349Y12710D01*
G01X13335Y12709D01*
G01X13320Y12710D01*
G01X13306Y12713D01*
G01X13293Y12718D01*
G01X13280Y12725D01*
G01X13268Y12733D01*
G01X13258Y12743D01*
G01X13249Y12755D01*
G01X13236Y12774D01*
G01X13221Y12791D01*
G01X13204Y12807D01*
G01X13186Y12822D01*
G01X13167Y12834D01*
G01X13146Y12845D01*
G01X13125Y12855D01*
G01X13103Y12862D01*
G01X13081Y12867D01*
G01X13058Y12870D01*
G01X13035Y12871D01*
G01X12350Y12871D01*
G01X12335Y12872D01*
G01X12319Y12876D01*
G01X12304Y12882D01*
G01X12291Y12890D01*
G01X12279Y12901D01*
G01X11834Y13345D01*
G01X11831Y13349D01*
G01X11112Y14115D01*
G01X11102Y14127D01*
G01X11095Y14140D01*
G01X11089Y14155D01*
G01X11086Y14170D01*
G01X11085Y14185D01*
G01X11086Y14199D01*
G01X11089Y14213D01*
G01X11094Y14227D01*
G01X11101Y14240D01*
G01X11109Y14251D01*
G01X11120Y14262D01*
G01X11131Y14270D01*
G01X11144Y14277D01*
G01X11157Y14282D01*
G01X11172Y14285D01*
G01X11186Y14286D01*
G01X11204Y14285D01*
G01X11221Y14280D01*
G01X11237Y14273D01*
G01X11263Y14259D01*
G01X11289Y14248D01*
G01X11316Y14238D01*
G01X11344Y14231D01*
G01X11372Y14225D01*
G01X11401Y14222D01*
G01X11430Y14221D01*
G01X14277Y14221D01*
G01X14292Y14220D01*
G01X14308Y14216D01*
G01X14323Y14210D01*
G01X14336Y14202D01*
G01X14348Y14191D01*
G01X15730Y12809D01*
G01X15757Y12785D01*
G01X15786Y12763D01*
G01X15816Y12745D01*
G01X15829Y12736D01*
G01X15841Y12726D01*
G01X15851Y12714D01*
G01X15859Y12700D01*
G01X15864Y12686D01*
G01X15868Y12671D01*
G01X15869Y12656D01*
G01X15869Y12530D01*
G01X15870Y12507D01*
G01X15873Y12483D01*
G01X15879Y12460D01*
G01X15886Y12438D01*
G01X15896Y12416D01*
G01X15907Y12395D01*
G01X15921Y12376D01*
G01X15936Y12358D01*
G01X15953Y12341D01*
G01X15971Y12326D01*
G01X15991Y12312D01*
G01X16011Y12301D01*
G01X16033Y12291D01*
G01X16055Y12284D01*
G01X16078Y12278D01*
G01X16102Y12275D01*
G01X16126Y12274D01*
G01X17126Y12274D01*
G01X17149Y12275D01*
G01X17173Y12278D01*
G01X17196Y12284D01*
G01X17218Y12291D01*
G01X17240Y12301D01*
G01X17261Y12312D01*
G01X17280Y12326D01*
G01X17298Y12341D01*
G01X17315Y12358D01*
G01X17330Y12376D01*
G01X17344Y12395D01*
G01X17355Y12416D01*
G01X17365Y12438D01*
G01X17372Y12460D01*
G01X17378Y12483D01*
G01X17381Y12507D01*
G01X17382Y12530D01*
G01X17382Y13631D01*
G01X17381Y13654D01*
G01X17378Y13677D01*
G01X17373Y13700D01*
G01X17365Y13722D01*
G01X17356Y13743D01*
G01X17345Y13764D01*
G01X17332Y13783D01*
G01X17317Y13802D01*
G01X17300Y13818D01*
G01X17283Y13833D01*
G01X17264Y13847D01*
G01X17243Y13858D01*
G01X17222Y13868D01*
G01X17209Y13875D01*
G01X17196Y13883D01*
G01X17185Y13894D01*
G01X17176Y13906D01*
G01X17168Y13919D01*
G01X17163Y13933D01*
G01X17160Y13947D01*
G01X17159Y13962D01*
G01X17160Y13977D01*
G01X17163Y13991D01*
G01X17168Y14005D01*
G01X17175Y14017D01*
G01X17183Y14029D01*
G01X17194Y14039D01*
G01X17205Y14048D01*
G01X17218Y14055D01*
G01X17232Y14060D01*
G01X17246Y14063D01*
G01X17260Y14064D01*
G01X17695Y14064D01*
G01X17718Y14065D01*
G01X17742Y14068D01*
G01X17765Y14074D01*
G01X17787Y14081D01*
G01X17809Y14091D01*
G01X17830Y14102D01*
G01X17849Y14116D01*
G01X17867Y14131D01*
G01X17884Y14148D01*
G01X17899Y14166D01*
G01X17913Y14185D01*
G01X17924Y14206D01*
G01X17934Y14228D01*
G01X17941Y14250D01*
G01X17947Y14273D01*
G01X17950Y14297D01*
G01X17951Y14321D01*
G01X17951Y15321D01*
G01X17950Y15344D01*
G01X17947Y15367D01*
G01X17942Y15389D01*
G01X17935Y15411D01*
G01X17925Y15432D01*
G01X17914Y15453D01*
G01X17902Y15472D01*
G01X17887Y15490D01*
G01X17871Y15507D01*
G01X17854Y15522D01*
G01X17835Y15535D01*
G01X17823Y15544D01*
G01X17813Y15554D01*
G01X17805Y15566D01*
G01X17798Y15579D01*
G01X17793Y15592D01*
G01X17790Y15606D01*
G01X17789Y15621D01*
G01X17790Y15635D01*
G01X17793Y15649D01*
G01X17798Y15662D01*
G01X17805Y15675D01*
G01X17813Y15687D01*
G01X17823Y15697D01*
G01X17835Y15706D01*
G01X17854Y15719D01*
G01X17871Y15734D01*
G01X17887Y15751D01*
G01X17902Y15769D01*
G01X17914Y15788D01*
G01X17925Y15809D01*
G01X17935Y15830D01*
G01X17942Y15852D01*
G01X17947Y15874D01*
G01X17950Y15897D01*
G01X17951Y15920D01*
G01X17951Y16920D01*
G01X17950Y16944D01*
G01X17947Y16968D01*
G01X17941Y16991D01*
G01X17934Y17013D01*
G01X17924Y17035D01*
G01X17913Y17055D01*
G01X17899Y17075D01*
G01X17884Y17093D01*
G01X17867Y17110D01*
G01X17849Y17125D01*
G01X17830Y17139D01*
G01X17809Y17150D01*
G01X17787Y17160D01*
G01X17765Y17167D01*
G01X17742Y17173D01*
G01X17718Y17176D01*
G01X17695Y17177D01*
G01X16594Y17177D01*
G01X16571Y17176D01*
G01X16547Y17173D01*
G01X16524Y17167D01*
G01X16502Y17160D01*
G01X16480Y17150D01*
G01X16459Y17139D01*
G01X16440Y17125D01*
G01X16422Y17110D01*
G01X16405Y17093D01*
G01X16390Y17075D01*
G01X16376Y17055D01*
G01X16365Y17035D01*
G01X16355Y17013D01*
G01X16348Y16991D01*
G01X16342Y16968D01*
G01X16339Y16944D01*
G01X16338Y16920D01*
G01X16338Y16905D01*
G01X16337Y16891D01*
G01X16334Y16877D01*
G01X16329Y16863D01*
G01X16322Y16851D01*
G01X16313Y16839D01*
G01X16303Y16829D01*
G01X16291Y16820D01*
G01X16279Y16813D01*
G01X16265Y16808D01*
G01X16251Y16805D01*
G01X16236Y16804D01*
G01X16076Y16804D01*
G01X16060Y16805D01*
G01X16044Y16809D01*
G01X16030Y16815D01*
G01X16016Y16823D01*
G01X16004Y16834D01*
G01X15577Y17261D01*
G01X15567Y17273D01*
G01X15558Y17286D01*
G01X15552Y17301D01*
G01X15548Y17317D01*
G01X15547Y17332D01*
G01X15548Y17347D01*
G01X15551Y17361D01*
G01X15556Y17375D01*
G01X15563Y17387D01*
G01X15572Y17399D01*
G01X15582Y17409D01*
G01X15594Y17418D01*
G01X15607Y17425D01*
G01X15620Y17430D01*
G01X15634Y17433D01*
G01X15649Y17434D01*
G01X18307Y17434D01*
G01X18322Y17433D01*
G01X18336Y17430D01*
G01X18350Y17425D01*
G01X18362Y17418D01*
G01X18374Y17409D01*
G01X18384Y17399D01*
G01X18393Y17387D01*
G01X18400Y17375D01*
G01X18405Y17361D01*
G01X18408Y17347D01*
G01X18409Y17332D01*
G01X18409Y16467D01*
G01X18410Y16444D01*
G01X18413Y16420D01*
G01X18419Y16397D01*
G01X18426Y16375D01*
G01X18436Y16353D01*
G01X18447Y16332D01*
G01X18461Y16313D01*
G01X18476Y16295D01*
G01X18493Y16278D01*
G01X18511Y16263D01*
G01X18531Y16249D01*
G01X18551Y16238D01*
G01X18573Y16228D01*
G01X18595Y16221D01*
G01X18618Y16215D01*
G01X18642Y16212D01*
G01X18666Y16211D01*
G01X19208Y16211D01*
G01X19224Y16210D01*
G01X19239Y16206D01*
G01X19254Y16200D01*
G01X19268Y16192D01*
G01X19280Y16181D01*
G01X19495Y15965D01*
G01X19506Y15953D01*
G01X19514Y15940D01*
G01X19520Y15925D01*
G01X19524Y15910D01*
G01X19525Y15894D01*
G01X19524Y15879D01*
G01X19521Y15865D01*
G01X19516Y15852D01*
G01X19509Y15839D01*
G01X19501Y15828D01*
G01X19490Y15817D01*
G01X19479Y15809D01*
G01X19479Y15324D01*
G01X19927Y15324D01*
G01X19933Y15339D01*
G01X19941Y15353D01*
G01X19951Y15365D01*
G01X19964Y15375D01*
G01X19977Y15384D01*
G01X19992Y15390D01*
G01X20008Y15394D01*
G01X20024Y15395D01*
G01X20040Y15394D01*
G01X20055Y15390D01*
G01X20070Y15384D01*
G01X20083Y15376D01*
G01X20095Y15365D01*
G01X20179Y15281D01*
G01X20190Y15269D01*
G01X20198Y15256D01*
G01X20204Y15241D01*
G01X20208Y15226D01*
G01X20209Y15210D01*
G01X20209Y14435D01*
G01X20210Y14412D01*
G01X20213Y14388D01*
G01X20219Y14365D01*
G01X20226Y14343D01*
G01X20236Y14321D01*
G01X20248Y14300D01*
G01X20261Y14281D01*
G01X20276Y14263D01*
G01X20293Y14246D01*
G01X20311Y14231D01*
G01X20331Y14217D01*
G01X20351Y14206D01*
G01X20373Y14196D01*
G01X20395Y14189D01*
G01X20418Y14183D01*
G01X20442Y14180D01*
G01X20466Y14179D01*
G01X21466Y14179D01*
G01X21489Y14180D01*
G01X21513Y14183D01*
G01X21536Y14189D01*
G01X21558Y14196D01*
G01X21580Y14206D01*
G01X21601Y14217D01*
G01X21620Y14231D01*
G01X21638Y14246D01*
G01X21655Y14263D01*
G01X21670Y14281D01*
G01X21684Y14300D01*
G01X21695Y14321D01*
G01X21705Y14343D01*
G01X21712Y14365D01*
G01X21718Y14388D01*
G01X21721Y14412D01*
G01X21722Y14435D01*
G01X21722Y15536D01*
G01X21721Y15559D01*
G01X21718Y15583D01*
G01X21712Y15606D01*
G01X21705Y15628D01*
G01X21695Y15650D01*
G01X21684Y15671D01*
G01X21670Y15690D01*
G01X21655Y15708D01*
G01X21638Y15725D01*
G01X21620Y15740D01*
G01X21601Y15754D01*
G01X21580Y15765D01*
G01X21558Y15775D01*
G01X21536Y15782D01*
G01X21513Y15788D01*
G01X21489Y15791D01*
G01X21466Y15792D01*
G01X21155Y15792D01*
G01X21139Y15793D01*
G01X21123Y15797D01*
G01X21109Y15803D01*
G01X21095Y15811D01*
G01X21083Y15822D01*
G01X20682Y16223D01*
G01X20671Y16235D01*
G01X20663Y16249D01*
G01X20657Y16264D01*
G01X20653Y16279D01*
G01X20652Y16295D01*
G01X20652Y16679D01*
G01X20268Y16679D01*
G01X20252Y16680D01*
G01X20237Y16684D01*
G01X20222Y16690D01*
G01X20208Y16698D01*
G01X20196Y16709D01*
G01X19952Y16953D01*
G01X19942Y16965D01*
G01X19933Y16979D01*
G01X19927Y16993D01*
G01X19923Y17009D01*
G01X19922Y17025D01*
G01X19922Y17568D01*
G01X19921Y17591D01*
G01X19918Y17615D01*
G01X19912Y17638D01*
G01X19904Y17661D01*
G01X19895Y17683D01*
G01X19883Y17704D01*
G01X19869Y17724D01*
G01X19854Y17742D01*
G01X19825Y17771D01*
G01X19816Y17785D01*
G01X19809Y17801D01*
G01X19804Y17817D01*
G01X19803Y17834D01*
G01X19803Y18072D01*
G01X19802Y18109D01*
G01X19799Y18146D01*
G01X19793Y18183D01*
G01X19786Y18219D01*
G01X19776Y18255D01*
G01X19764Y18291D01*
G01X19759Y18308D01*
G01X19758Y18325D01*
G01X19759Y18340D01*
G01X19762Y18354D01*
G01X19767Y18368D01*
G01X19774Y18380D01*
G01X19783Y18392D01*
G01X19793Y18402D01*
G01X19804Y18411D01*
G01X19823Y18424D01*
G01X19841Y18439D01*
G01X19857Y18456D01*
G01X19872Y18474D01*
G01X19885Y18494D01*
G01X19896Y18514D01*
G01X19905Y18535D01*
G01X19913Y18557D01*
G01X19918Y18580D01*
G01X19921Y18603D01*
G01X19922Y18626D01*
G01X19922Y19727D01*
G01X19921Y19750D01*
G01X19918Y19774D01*
G01X19912Y19797D01*
G01X19904Y19820D01*
G01X19895Y19842D01*
G01X19883Y19863D01*
G01X19869Y19883D01*
G01X19854Y19901D01*
G01X19825Y19930D01*
G01X19816Y19944D01*
G01X19809Y19960D01*
G01X19804Y19976D01*
G01X19803Y19993D01*
G01X19803Y20446D01*
G01X19804Y20463D01*
G01X19810Y20500D01*
G01X19813Y20537D01*
G01X19814Y20574D01*
G01X19813Y20611D01*
G01X19810Y20648D01*
G01X19804Y20685D01*
G01X19797Y20721D01*
G01X19787Y20758D01*
G01X19784Y20772D01*
G01X19783Y20787D01*
G01X19784Y20801D01*
G01X19787Y20815D01*
G01X19792Y20829D01*
G01X19799Y20842D01*
G01X19807Y20853D01*
G01X19818Y20864D01*
G01X19829Y20872D01*
G01X19842Y20879D01*
G01X19856Y20884D01*
G01X19870Y20887D01*
G01X19884Y20888D01*
G01X21071Y20888D01*
G01X21087Y20887D01*
G01X21102Y20883D01*
G01X21117Y20877D01*
G01X21131Y20869D01*
G01X21143Y20859D01*
G01X22319Y19682D01*
G01X22330Y19670D01*
G01X22338Y19657D01*
G01X22344Y19642D01*
G01X22348Y19626D01*
G01X22349Y19611D01*
G01X22349Y10477D01*
G01X22350Y10447D01*
G01X22354Y10417D01*
G01X22360Y10387D01*
G01X22368Y10358D01*
G01X22378Y10330D01*
G01X22391Y10303D01*
G01X22405Y10277D01*
G01X22422Y10252D01*
G01X22441Y10228D01*
G01X22461Y10206D01*
G01X23655Y9012D01*
G01X23665Y9000D01*
G01X23673Y8987D01*
G01X23679Y8972D01*
G01X23683Y8956D01*
G01X23684Y8941D01*
G01X23683Y8923D01*
G01X23678Y8906D01*
G01X23662Y8858D01*
G01X23648Y8809D01*
G01X23636Y8760D01*
G01X23626Y8710D01*
G01X23618Y8660D01*
G01X23612Y8610D01*
G01X23609Y8559D01*
G01X23608Y8509D01*
G01X23609Y8459D01*
G01X23612Y8410D01*
G01X23617Y8362D01*
G01X23625Y8313D01*
G01X23634Y8265D01*
G01X23645Y8217D01*
G01X23659Y8170D01*
G01X23674Y8123D01*
G01X23691Y8077D01*
G01X23711Y8032D01*
G01X23732Y7988D01*
G01X23755Y7944D01*
G01X23780Y7902D01*
G01X23806Y7861D01*
G01X23835Y7821D01*
G01X23865Y7782D01*
G01X23896Y7744D01*
G01X23930Y7708D01*
G01X23964Y7674D01*
G01X24000Y7640D01*
G01X24038Y7609D01*
G01X24077Y7579D01*
G01X24117Y7550D01*
G01X24158Y7524D01*
G01X24200Y7499D01*
G01X24244Y7476D01*
G01X24288Y7455D01*
G01X24333Y7435D01*
G01X24379Y7418D01*
G01X24426Y7403D01*
G01X24473Y7389D01*
G01X24521Y7378D01*
G01X24569Y7369D01*
G01X24618Y7361D01*
G01X24666Y7356D01*
G01X24715Y7353D01*
G01X24765Y7352D01*
G01X24814Y7353D01*
G01X24863Y7356D01*
G01X24911Y7361D01*
G01X24960Y7369D01*
G01X25008Y7378D01*
G01X25056Y7389D01*
G01X25103Y7403D01*
G01X25150Y7418D01*
G01X25196Y7435D01*
G01X25241Y7455D01*
G01X25285Y7476D01*
G01X25329Y7499D01*
G01X25371Y7524D01*
G01X25412Y7550D01*
G01X25452Y7579D01*
G01X25491Y7609D01*
G01X25529Y7640D01*
G01X25565Y7674D01*
G01X25599Y7708D01*
G01X25633Y7744D01*
G01X25664Y7782D01*
G01X25694Y7821D01*
G01X25723Y7861D01*
G01X25749Y7902D01*
G01X25774Y7944D01*
G01X25797Y7988D01*
G01X25818Y8032D01*
G01X25838Y8077D01*
G01X25855Y8123D01*
G01X25870Y8170D01*
G01X25884Y8217D01*
G01X25895Y8265D01*
G01X25904Y8313D01*
G01X25912Y8362D01*
G01X25917Y8410D01*
G01X25920Y8459D01*
G01X25921Y8509D01*
G01X25920Y8558D01*
G01X25917Y8607D01*
G01X25912Y8655D01*
G01X25904Y8704D01*
G01X25895Y8752D01*
G01X25884Y8800D01*
G01X25870Y8847D01*
G01X25855Y8894D01*
G01X25838Y8940D01*
G01X25818Y8985D01*
G01X25797Y9029D01*
G01X25774Y9073D01*
G01X25749Y9115D01*
G01X25723Y9156D01*
G01X25694Y9196D01*
G01X25664Y9235D01*
G01X25633Y9273D01*
G01X25599Y9309D01*
G01X25565Y9343D01*
G01X25529Y9377D01*
G01X25491Y9408D01*
G01X25452Y9438D01*
G01X25412Y9467D01*
G01X25371Y9493D01*
G01X25329Y9518D01*
G01X25285Y9541D01*
G01X25241Y9562D01*
G01X25196Y9582D01*
G01X25150Y9599D01*
G01X25103Y9614D01*
G01X25056Y9628D01*
G01X25008Y9639D01*
G01X24960Y9648D01*
G01X24911Y9656D01*
G01X24863Y9661D01*
G01X24814Y9664D01*
G01X24765Y9665D01*
G01X24715Y9664D01*
G01X24666Y9661D01*
G01X24616Y9656D01*
G01X24567Y9648D01*
G01X24519Y9639D01*
G01X24471Y9627D01*
G01X24423Y9614D01*
G01X24376Y9598D01*
G01X24330Y9580D01*
G01X24285Y9561D01*
G01X24271Y9556D01*
G01X24257Y9553D01*
G01X24242Y9552D01*
G01X24227Y9553D01*
G01X24211Y9557D01*
G01X24196Y9563D01*
G01X24183Y9571D01*
G01X24171Y9581D01*
G01X23146Y10606D01*
G01X23135Y10618D01*
G01X23127Y10632D01*
G01X23121Y10647D01*
G01X23117Y10662D01*
G01X23116Y10678D01*
G01X23116Y11465D01*
G01X23117Y11479D01*
G01X23120Y11493D01*
G01X23125Y11507D01*
G01X23132Y11520D01*
G01X23141Y11531D01*
G01X23151Y11542D01*
G01X23163Y11550D01*
G01X23175Y11557D01*
G01X23189Y11562D01*
G01X23203Y11565D01*
G01X23218Y11566D01*
G01X23234Y11565D01*
G01X23249Y11561D01*
G01X23264Y11555D01*
G01X23277Y11547D01*
G01X23289Y11537D01*
G01X23584Y11242D01*
G01X23594Y11230D01*
G01X23603Y11216D01*
G01X23609Y11202D01*
G01X23613Y11186D01*
G01X23614Y11170D01*
G01X23613Y11160D01*
G01X23609Y11104D01*
G01X23608Y11049D01*
G01X23609Y10999D01*
G01X23612Y10950D01*
G01X23617Y10902D01*
G01X23625Y10853D01*
G01X23634Y10805D01*
G01X23645Y10757D01*
G01X23659Y10710D01*
G01X23674Y10663D01*
G01X23691Y10617D01*
G01X23711Y10572D01*
G01X23732Y10528D01*
G01X23755Y10484D01*
G01X23780Y10442D01*
G01X23806Y10401D01*
G01X23835Y10361D01*
G01X23865Y10322D01*
G01X23896Y10284D01*
G01X23930Y10248D01*
G01X23964Y10214D01*
G01X24000Y10180D01*
G01X24038Y10149D01*
G01X24077Y10119D01*
G01X24117Y10090D01*
G01X24158Y10064D01*
G01X24200Y10039D01*
G01X24244Y10016D01*
G01X24288Y9995D01*
G01X24333Y9975D01*
G01X24379Y9958D01*
G01X24426Y9943D01*
G01X24473Y9929D01*
G01X24521Y9918D01*
G01X24569Y9909D01*
G01X24618Y9901D01*
G01X24666Y9896D01*
G01X24715Y9893D01*
G01X24765Y9892D01*
G01X24814Y9893D01*
G01X24863Y9896D01*
G01X24911Y9901D01*
G01X24960Y9909D01*
G01X25008Y9918D01*
G01X25056Y9929D01*
G01X25103Y9943D01*
G01X25150Y9958D01*
G01X25196Y9975D01*
G01X25241Y9995D01*
G01X25285Y10016D01*
G01X25329Y10039D01*
G01X25371Y10064D01*
G01X25412Y10090D01*
G01X25452Y10119D01*
G01X25491Y10149D01*
G01X25529Y10180D01*
G01X25565Y10214D01*
G01X25599Y10248D01*
G01X25633Y10284D01*
G01X25664Y10322D01*
G01X25694Y10361D01*
G01X25723Y10401D01*
G01X25749Y10442D01*
G01X25774Y10484D01*
G01X25797Y10528D01*
G01X25818Y10572D01*
G01X25838Y10617D01*
G01X25855Y10663D01*
G01X25870Y10710D01*
G01X25884Y10757D01*
G01X25895Y10805D01*
G01X25904Y10853D01*
G01X25912Y10902D01*
G01X25917Y10950D01*
G01X25920Y10999D01*
G01X25921Y11049D01*
G01X25920Y11098D01*
G01X25917Y11147D01*
G01X25912Y11195D01*
G01X25904Y11244D01*
G01X25895Y11292D01*
G01X25884Y11340D01*
G01X25870Y11387D01*
G01X25855Y11434D01*
G01X25838Y11480D01*
G01X25818Y11525D01*
G01X25797Y11569D01*
G01X25774Y11613D01*
G01X25749Y11655D01*
G01X25723Y11696D01*
G01X25694Y11736D01*
G01X25664Y11775D01*
G01X25633Y11813D01*
G01X25599Y11849D01*
G01X25565Y11883D01*
G01X25529Y11917D01*
G01X25491Y11948D01*
G01X25452Y11978D01*
G01X25412Y12007D01*
G01X25371Y12033D01*
G01X25329Y12058D01*
G01X25285Y12081D01*
G01X25241Y12102D01*
G01X25196Y12122D01*
G01X25150Y12139D01*
G01X25103Y12154D01*
G01X25056Y12168D01*
G01X25008Y12179D01*
G01X24960Y12188D01*
G01X24911Y12196D01*
G01X24863Y12201D01*
G01X24814Y12204D01*
G01X24765Y12205D01*
G01X24714Y12204D01*
G01X24665Y12201D01*
G01X24615Y12195D01*
G01X24565Y12188D01*
G01X24516Y12178D01*
G01X24468Y12166D01*
G01X24419Y12152D01*
G01X24372Y12136D01*
G01X24325Y12118D01*
G01X24279Y12098D01*
G01X24234Y12076D01*
G01X24190Y12053D01*
G01X24148Y12027D01*
G01X24106Y11999D01*
G01X24065Y11970D01*
G01X24051Y11961D01*
G01X24036Y11954D01*
G01X24020Y11950D01*
G01X24004Y11949D01*
G01X23988Y11950D01*
G01X23973Y11954D01*
G01X23958Y11960D01*
G01X23944Y11968D01*
G01X23932Y11979D01*
G01X23654Y12257D01*
G01X23643Y12269D01*
G01X23635Y12283D01*
G01X23629Y12298D01*
G01X23625Y12313D01*
G01X23624Y12329D01*
G01X23624Y12879D01*
G01X23625Y12893D01*
G01X23628Y12907D01*
G01X23633Y12921D01*
G01X23640Y12934D01*
G01X23649Y12945D01*
G01X23659Y12956D01*
G01X23671Y12964D01*
G01X23683Y12971D01*
G01X23697Y12976D01*
G01X23711Y12979D01*
G01X23726Y12980D01*
G01X23742Y12979D01*
G01X23758Y12975D01*
G01X23773Y12969D01*
G01X23787Y12960D01*
G01X23799Y12949D01*
G01X23810Y12936D01*
G01X23838Y12896D01*
G01X23868Y12858D01*
G01X23900Y12821D01*
G01X23933Y12785D01*
G01X23967Y12750D01*
G01X24041Y12686D01*
G01X24080Y12656D01*
G01X24120Y12628D01*
G01X24161Y12602D01*
G01X24203Y12577D01*
G01X24246Y12555D01*
G01X24290Y12534D01*
G01X24335Y12515D01*
G01X24381Y12497D01*
G01X24428Y12482D01*
G01X24475Y12469D01*
G01X24522Y12458D01*
G01X24570Y12448D01*
G01X24618Y12441D01*
G01X24667Y12436D01*
G01X24716Y12433D01*
G01X24765Y12432D01*
G01X24814Y12433D01*
G01X24863Y12436D01*
G01X24911Y12441D01*
G01X24960Y12449D01*
G01X25008Y12458D01*
G01X25056Y12469D01*
G01X25103Y12483D01*
G01X25150Y12498D01*
G01X25196Y12515D01*
G01X25241Y12535D01*
G01X25285Y12556D01*
G01X25329Y12579D01*
G01X25371Y12604D01*
G01X25412Y12630D01*
G01X25452Y12659D01*
G01X25491Y12689D01*
G01X25529Y12720D01*
G01X25565Y12754D01*
G01X25599Y12788D01*
G01X25633Y12824D01*
G01X25664Y12862D01*
G01X25694Y12901D01*
G01X25723Y12941D01*
G01X25749Y12982D01*
G01X25774Y13024D01*
G01X25797Y13068D01*
G01X25818Y13112D01*
G01X25838Y13157D01*
G01X25855Y13203D01*
G01X25870Y13250D01*
G01X25884Y13297D01*
G01X25895Y13345D01*
G01X25904Y13393D01*
G01X25912Y13442D01*
G01X25917Y13490D01*
G01X25920Y13539D01*
G01X25921Y13589D01*
G01X25920Y13638D01*
G01X25917Y13687D01*
G01X25912Y13735D01*
G01X25904Y13784D01*
G01X25895Y13832D01*
G01X25884Y13880D01*
G01X25870Y13927D01*
G01X25855Y13974D01*
G01X25838Y14020D01*
G01X25818Y14065D01*
G01X25797Y14109D01*
G01X25774Y14153D01*
G01X25749Y14195D01*
G01X25723Y14236D01*
G01X25694Y14276D01*
G01X25664Y14315D01*
G01X25633Y14353D01*
G01X25599Y14389D01*
G01X25565Y14423D01*
G01X25529Y14457D01*
G01X25491Y14488D01*
G01X25452Y14518D01*
G01X25412Y14547D01*
G01X25371Y14573D01*
G01X25329Y14598D01*
G01X25285Y14621D01*
G01X25241Y14642D01*
G01X25196Y14662D01*
G01X25150Y14679D01*
G01X25103Y14694D01*
G01X25056Y14708D01*
G01X25008Y14719D01*
G01X24960Y14728D01*
G01X24911Y14736D01*
G01X24863Y14741D01*
G01X24814Y14744D01*
G01X24765Y14745D01*
G01X24716Y14744D01*
G01X24667Y14741D01*
G01X24618Y14736D01*
G01X24570Y14729D01*
G01X24522Y14719D01*
G01X24475Y14708D01*
G01X24428Y14695D01*
G01X24381Y14680D01*
G01X24335Y14662D01*
G01X24290Y14643D01*
G01X24246Y14622D01*
G01X24203Y14600D01*
G01X24161Y14575D01*
G01X24120Y14549D01*
G01X24080Y14521D01*
G01X24041Y14491D01*
G01X23967Y14427D01*
G01X23933Y14392D01*
G01X23900Y14356D01*
G01X23868Y14319D01*
G01X23838Y14281D01*
G01X23810Y14241D01*
G01X23799Y14228D01*
G01X23787Y14217D01*
G01X23773Y14208D01*
G01X23758Y14202D01*
G01X23742Y14198D01*
G01X23726Y14197D01*
G01X23711Y14198D01*
G01X23697Y14201D01*
G01X23683Y14206D01*
G01X23671Y14213D01*
G01X23659Y14221D01*
G01X23649Y14232D01*
G01X23640Y14243D01*
G01X23633Y14256D01*
G01X23628Y14270D01*
G01X23625Y14284D01*
G01X23624Y14298D01*
G01X23624Y15419D01*
G01X23625Y15433D01*
G01X23628Y15447D01*
G01X23633Y15461D01*
G01X23640Y15474D01*
G01X23649Y15485D01*
G01X23659Y15496D01*
G01X23671Y15504D01*
G01X23683Y15511D01*
G01X23697Y15516D01*
G01X23711Y15519D01*
G01X23726Y15520D01*
G01X23742Y15519D01*
G01X23758Y15515D01*
G01X23773Y15509D01*
G01X23787Y15500D01*
G01X23799Y15489D01*
G01X23810Y15476D01*
G01X23838Y15436D01*
G01X23869Y15397D01*
G01X23901Y15360D01*
G01X23934Y15324D01*
G01X23969Y15289D01*
G01X24006Y15256D01*
G01X24043Y15224D01*
G01X24083Y15194D01*
G01X24123Y15166D01*
G01X24165Y15140D01*
G01X24207Y15115D01*
G01X24251Y15092D01*
G01X24251Y15615D01*
G01X23726Y15615D01*
G01X23711Y15616D01*
G01X23697Y15619D01*
G01X23683Y15624D01*
G01X23671Y15631D01*
G01X23659Y15640D01*
G01X23649Y15650D01*
G01X23640Y15662D01*
G01X23633Y15674D01*
G01X23628Y15688D01*
G01X23625Y15702D01*
G01X23624Y15717D01*
G01X23624Y16540D01*
G01X23625Y16555D01*
G01X23628Y16569D01*
G01X23633Y16583D01*
G01X23640Y16595D01*
G01X23649Y16607D01*
G01X23659Y16617D01*
G01X23671Y16626D01*
G01X23683Y16633D01*
G01X23697Y16638D01*
G01X23711Y16641D01*
G01X23726Y16642D01*
G01X24251Y16642D01*
G01X24251Y17165D01*
G01X24207Y17142D01*
G01X24165Y17117D01*
G01X24123Y17091D01*
G01X24083Y17063D01*
G01X24043Y17033D01*
G01X24006Y17001D01*
G01X23969Y16968D01*
G01X23934Y16933D01*
G01X23901Y16897D01*
G01X23869Y16860D01*
G01X23838Y16821D01*
G01X23810Y16781D01*
G01X23799Y16768D01*
G01X23787Y16757D01*
G01X23773Y16748D01*
G01X23758Y16742D01*
G01X23742Y16738D01*
G01X23726Y16737D01*
G01X23711Y16738D01*
G01X23697Y16741D01*
G01X23683Y16746D01*
G01X23671Y16753D01*
G01X23659Y16761D01*
G01X23649Y16772D01*
G01X23640Y16783D01*
G01X23633Y16796D01*
G01X23628Y16810D01*
G01X23625Y16824D01*
G01X23624Y16838D01*
G01X23624Y17959D01*
G01X23625Y17973D01*
G01X23628Y17987D01*
G01X23633Y18001D01*
G01X23640Y18014D01*
G01X23649Y18025D01*
G01X23659Y18036D01*
G01X23671Y18044D01*
G01X23683Y18051D01*
G01X23697Y18056D01*
G01X23711Y18059D01*
G01X23726Y18060D01*
G01X23742Y18059D01*
G01X23758Y18055D01*
G01X23773Y18049D01*
G01X23787Y18040D01*
G01X23799Y18029D01*
G01X23810Y18016D01*
G01X23838Y17976D01*
G01X23868Y17938D01*
G01X23900Y17901D01*
G01X23933Y17865D01*
G01X23967Y17830D01*
G01X24041Y17766D01*
G01X24080Y17736D01*
G01X24120Y17708D01*
G01X24161Y17682D01*
G01X24203Y17657D01*
G01X24246Y17635D01*
G01X24290Y17614D01*
G01X24335Y17595D01*
G01X24381Y17577D01*
G01X24428Y17562D01*
G01X24475Y17549D01*
G01X24522Y17538D01*
G01X24570Y17528D01*
G01X24618Y17521D01*
G01X24667Y17516D01*
G01X24716Y17513D01*
G01X24765Y17512D01*
G01X24814Y17513D01*
G01X24863Y17516D01*
G01X24911Y17521D01*
G01X24960Y17529D01*
G01X25008Y17538D01*
G01X25056Y17549D01*
G01X25103Y17563D01*
G01X25150Y17578D01*
G01X25196Y17595D01*
G01X25241Y17615D01*
G01X25285Y17636D01*
G01X25329Y17659D01*
G01X25371Y17684D01*
G01X25412Y17710D01*
G01X25452Y17739D01*
G01X25491Y17769D01*
G01X25529Y17800D01*
G01X25565Y17834D01*
G01X25599Y17868D01*
G01X25633Y17904D01*
G01X25664Y17942D01*
G01X25694Y17981D01*
G01X25723Y18021D01*
G01X25749Y18062D01*
G01X25774Y18104D01*
G01X25797Y18148D01*
G01X25818Y18192D01*
G01X25838Y18237D01*
G01X25855Y18283D01*
G01X25870Y18330D01*
G01X25884Y18377D01*
G01X25895Y18425D01*
G01X25904Y18473D01*
G01X25912Y18522D01*
G01X25917Y18570D01*
G01X25920Y18619D01*
G01X25921Y18669D01*
G01X25920Y18718D01*
G01X25917Y18767D01*
G01X25912Y18815D01*
G01X25904Y18864D01*
G01X25895Y18912D01*
G01X25884Y18960D01*
G01X25870Y19007D01*
G01X25855Y19054D01*
G01X25838Y19100D01*
G01X25818Y19145D01*
G01X25797Y19189D01*
G01X25774Y19233D01*
G01X25749Y19275D01*
G01X25723Y19316D01*
G01X25694Y19356D01*
G01X25664Y19395D01*
G01X25633Y19433D01*
G01X25599Y19469D01*
G01X25565Y19503D01*
G01X25529Y19537D01*
G01X25491Y19568D01*
G01X25452Y19598D01*
G01X25412Y19627D01*
G01X25371Y19653D01*
G01X25329Y19678D01*
G01X25285Y19701D01*
G01X25241Y19722D01*
G01X25196Y19742D01*
G01X25150Y19759D01*
G01X25103Y19774D01*
G01X25056Y19788D01*
G01X25008Y19799D01*
G01X24960Y19808D01*
G01X24911Y19816D01*
G01X24863Y19821D01*
G01X24814Y19824D01*
G01X24765Y19825D01*
G01X24707Y19824D01*
G01X24702Y19823D01*
G01X24686Y19825D01*
G01X24671Y19828D01*
G01X24656Y19835D01*
G01X24642Y19843D01*
G01X24630Y19853D01*
G01X24602Y19882D01*
G01X24591Y19894D01*
G01X24583Y19908D01*
G01X24577Y19922D01*
G01X24573Y19938D01*
G01X24572Y19954D01*
G01X24573Y19968D01*
G01X24576Y19982D01*
G01X24581Y19996D01*
G01X24588Y20009D01*
G01X24597Y20020D01*
G01X24607Y20030D01*
G01X24619Y20039D01*
G01X24631Y20046D01*
G01X24645Y20051D01*
G01X24659Y20054D01*
G01X24673Y20055D01*
G01X24681Y20055D01*
G01X24765Y20052D01*
G01X24814Y20053D01*
G01X24863Y20056D01*
G01X24911Y20061D01*
G01X24960Y20069D01*
G01X25008Y20078D01*
G01X25056Y20089D01*
G01X25103Y20103D01*
G01X25150Y20118D01*
G01X25196Y20135D01*
G01X25241Y20155D01*
G01X25285Y20176D01*
G01X25329Y20199D01*
G01X25371Y20224D01*
G01X25412Y20250D01*
G01X25452Y20279D01*
G01X25491Y20309D01*
G01X25529Y20340D01*
G01X25565Y20374D01*
G01X25599Y20408D01*
G01X25633Y20444D01*
G01X25664Y20482D01*
G01X25694Y20521D01*
G01X25723Y20561D01*
G01X25749Y20602D01*
G01X25774Y20644D01*
G01X25797Y20688D01*
G01X25818Y20732D01*
G01X25838Y20777D01*
G01X25855Y20823D01*
G01X25870Y20870D01*
G01X25884Y20917D01*
G01X25895Y20965D01*
G01X25904Y21013D01*
G01X25912Y21062D01*
G01X25917Y21110D01*
G01X25920Y21159D01*
G01X25921Y21209D01*
G01X25920Y21258D01*
G01X25917Y21307D01*
G01X25912Y21355D01*
G01X25904Y21404D01*
G01X25895Y21452D01*
G01X25884Y21500D01*
G01X25870Y21547D01*
G01X25855Y21594D01*
G01X25838Y21640D01*
G01X25818Y21685D01*
G01X25797Y21729D01*
G01X25774Y21773D01*
G01X25749Y21815D01*
G01X25723Y21856D01*
G01X25694Y21896D01*
G01X25664Y21935D01*
G01X25633Y21973D01*
G01X25599Y22009D01*
G01X25565Y22043D01*
G01X25529Y22077D01*
G01X25491Y22108D01*
G01X25452Y22138D01*
G01X25412Y22167D01*
G01X25371Y22193D01*
G01X25329Y22218D01*
G01X25285Y22241D01*
G01X25241Y22262D01*
G01X25196Y22282D01*
G01X25150Y22299D01*
G01X25103Y22314D01*
G01X25056Y22328D01*
G01X25008Y22339D01*
G01X24960Y22348D01*
G01X24911Y22356D01*
G01X24863Y22361D01*
G01X24814Y22364D01*
G01X24765Y22365D01*
G01X24715Y22364D01*
G01X24666Y22361D01*
G01X24618Y22356D01*
G01X24569Y22348D01*
G01X24521Y22339D01*
G01X24473Y22328D01*
G01X24426Y22314D01*
G01X24379Y22299D01*
G01X24333Y22282D01*
G01X24288Y22262D01*
G01X24244Y22241D01*
G01X24200Y22218D01*
G01X24158Y22193D01*
G01X24117Y22167D01*
G01X24077Y22138D01*
G01X24038Y22108D01*
G01X24000Y22077D01*
G01X23964Y22043D01*
G01X23930Y22009D01*
G01X23896Y21973D01*
G01X23865Y21935D01*
G01X23835Y21896D01*
G01X23806Y21856D01*
G01X23780Y21815D01*
G01X23755Y21773D01*
G01X23732Y21729D01*
G01X23711Y21685D01*
G01X23691Y21640D01*
G01X23674Y21594D01*
G01X23659Y21547D01*
G01X23645Y21500D01*
G01X23634Y21452D01*
G01X23625Y21404D01*
G01X23617Y21355D01*
G01X23612Y21307D01*
G01X23609Y21258D01*
G01X23608Y21209D01*
G01X23611Y21125D01*
G01X23611Y21117D01*
G01X23610Y21103D01*
G01X23607Y21089D01*
G01X23602Y21075D01*
G01X23595Y21063D01*
G01X23586Y21051D01*
G01X23576Y21041D01*
G01X23565Y21032D01*
G01X23552Y21025D01*
G01X23538Y21020D01*
G01X23524Y21017D01*
G01X23510Y21016D01*
G01X23494Y21017D01*
G01X23478Y21021D01*
G01X23464Y21027D01*
G01X23450Y21035D01*
G01X23438Y21046D01*
G01X22244Y22239D01*
G01X22234Y22251D01*
G01X22226Y22265D01*
G01X22220Y22279D01*
G01X22216Y22295D01*
G01X22215Y22311D01*
G01X22215Y22319D01*
G01X22207Y22319D01*
G01X22191Y22320D01*
G01X22175Y22324D01*
G01X22161Y22330D01*
G01X22147Y22338D01*
G01X22135Y22349D01*
G01X21988Y22496D01*
G01X21966Y22516D01*
G01X21942Y22535D01*
G01X21917Y22552D01*
G01X21891Y22566D01*
G01X21863Y22579D01*
G01X21835Y22589D01*
G01X21806Y22597D01*
G01X21776Y22603D01*
G01X21747Y22607D01*
G01X21717Y22608D01*
G01X21683Y22608D01*
G01X21669Y22609D01*
G01X21655Y22612D01*
G01X21641Y22617D01*
G01X21629Y22624D01*
G01X21617Y22633D01*
G01X21607Y22643D01*
G01X21598Y22655D01*
G01X21591Y22667D01*
G01X21586Y22681D01*
G01X21583Y22695D01*
G01X21582Y22710D01*
G01X21582Y23145D01*
G01X21089Y23145D01*
G01X21089Y22710D01*
G01X21088Y22695D01*
G01X21085Y22681D01*
G01X21080Y22667D01*
G01X21073Y22655D01*
G01X21064Y22643D01*
G01X21054Y22633D01*
G01X21042Y22624D01*
G01X21030Y22617D01*
G01X21016Y22612D01*
G01X21002Y22609D01*
G01X20988Y22608D01*
G01X20921Y22608D01*
G01X20907Y22609D01*
G01X20893Y22612D01*
G01X20879Y22617D01*
G01X20867Y22624D01*
G01X20855Y22633D01*
G01X20845Y22643D01*
G01X20836Y22655D01*
G01X20829Y22667D01*
G01X20824Y22681D01*
G01X20821Y22695D01*
G01X20820Y22710D01*
G01X20820Y24828D01*
G01X20819Y24852D01*
G01X20816Y24875D01*
G01X20810Y24898D01*
G01X20803Y24921D01*
G01X20793Y24942D01*
G01X20781Y24963D01*
G01X20768Y24983D01*
G01X20753Y25001D01*
G01X20736Y25018D01*
G01X20718Y25033D01*
G01X20698Y25046D01*
G01X20678Y25058D01*
G01X20656Y25067D01*
G01X20634Y25075D01*
G01X20610Y25080D01*
G01X20587Y25083D01*
G01X20563Y25085D01*
G37*
G36*
G01X25664Y24905D02*
G01X23865Y24905D01*
G01X23841Y24904D01*
G01X23817Y24901D01*
G01X23794Y24895D01*
G01X23772Y24888D01*
G01X23750Y24878D01*
G01X23729Y24867D01*
G01X23710Y24853D01*
G01X23692Y24838D01*
G01X23675Y24821D01*
G01X23660Y24803D01*
G01X23646Y24784D01*
G01X23635Y24763D01*
G01X23625Y24741D01*
G01X23618Y24719D01*
G01X23612Y24696D01*
G01X23609Y24672D01*
G01X23608Y24648D01*
G01X23608Y22849D01*
G01X23609Y22825D01*
G01X23612Y22801D01*
G01X23618Y22778D01*
G01X23625Y22756D01*
G01X23635Y22734D01*
G01X23646Y22713D01*
G01X23660Y22694D01*
G01X23675Y22676D01*
G01X23692Y22659D01*
G01X23710Y22644D01*
G01X23729Y22630D01*
G01X23750Y22619D01*
G01X23772Y22609D01*
G01X23794Y22602D01*
G01X23817Y22596D01*
G01X23841Y22593D01*
G01X23865Y22592D01*
G01X25664Y22592D01*
G01X25688Y22593D01*
G01X25712Y22596D01*
G01X25735Y22602D01*
G01X25757Y22609D01*
G01X25779Y22619D01*
G01X25800Y22630D01*
G01X25819Y22644D01*
G01X25837Y22659D01*
G01X25854Y22676D01*
G01X25869Y22694D01*
G01X25883Y22713D01*
G01X25894Y22734D01*
G01X25904Y22756D01*
G01X25911Y22778D01*
G01X25917Y22801D01*
G01X25920Y22825D01*
G01X25921Y22849D01*
G01X25921Y24648D01*
G01X25920Y24672D01*
G01X25917Y24696D01*
G01X25911Y24719D01*
G01X25904Y24741D01*
G01X25894Y24763D01*
G01X25883Y24784D01*
G01X25869Y24803D01*
G01X25854Y24821D01*
G01X25837Y24838D01*
G01X25819Y24853D01*
G01X25800Y24867D01*
G01X25779Y24878D01*
G01X25757Y24888D01*
G01X25735Y24895D01*
G01X25712Y24901D01*
G01X25688Y24904D01*
G01X25664Y24905D01*
G37*
G36*
G01X7034Y7124D02*
G01X6985Y7125D01*
G01X6935Y7124D01*
G01X6886Y7121D01*
G01X6838Y7116D01*
G01X6789Y7108D01*
G01X6741Y7099D01*
G01X6693Y7088D01*
G01X6646Y7074D01*
G01X6599Y7059D01*
G01X6553Y7042D01*
G01X6508Y7022D01*
G01X6464Y7001D01*
G01X6420Y6978D01*
G01X6378Y6953D01*
G01X6337Y6927D01*
G01X6297Y6898D01*
G01X6258Y6868D01*
G01X6220Y6837D01*
G01X6184Y6803D01*
G01X6150Y6769D01*
G01X6116Y6733D01*
G01X6085Y6695D01*
G01X6055Y6656D01*
G01X6026Y6616D01*
G01X6000Y6575D01*
G01X5975Y6533D01*
G01X5952Y6489D01*
G01X5931Y6445D01*
G01X5911Y6400D01*
G01X5894Y6354D01*
G01X5879Y6307D01*
G01X5865Y6260D01*
G01X5854Y6212D01*
G01X5845Y6164D01*
G01X5837Y6115D01*
G01X5832Y6067D01*
G01X5829Y6018D01*
G01X5828Y5969D01*
G01X5829Y5919D01*
G01X5832Y5870D01*
G01X5837Y5822D01*
G01X5845Y5773D01*
G01X5854Y5725D01*
G01X5865Y5677D01*
G01X5879Y5630D01*
G01X5894Y5583D01*
G01X5911Y5537D01*
G01X5931Y5492D01*
G01X5952Y5448D01*
G01X5975Y5404D01*
G01X6000Y5362D01*
G01X6026Y5321D01*
G01X6055Y5281D01*
G01X6085Y5242D01*
G01X6116Y5204D01*
G01X6150Y5168D01*
G01X6184Y5134D01*
G01X6220Y5100D01*
G01X6258Y5069D01*
G01X6297Y5039D01*
G01X6337Y5010D01*
G01X6378Y4984D01*
G01X6420Y4959D01*
G01X6464Y4936D01*
G01X6508Y4915D01*
G01X6553Y4895D01*
G01X6599Y4878D01*
G01X6646Y4863D01*
G01X6693Y4849D01*
G01X6741Y4838D01*
G01X6789Y4829D01*
G01X6838Y4821D01*
G01X6886Y4816D01*
G01X6935Y4813D01*
G01X6985Y4812D01*
G01X7034Y4813D01*
G01X7083Y4816D01*
G01X7131Y4821D01*
G01X7180Y4829D01*
G01X7228Y4838D01*
G01X7276Y4849D01*
G01X7323Y4863D01*
G01X7370Y4878D01*
G01X7416Y4895D01*
G01X7461Y4915D01*
G01X7505Y4936D01*
G01X7549Y4959D01*
G01X7591Y4984D01*
G01X7632Y5010D01*
G01X7672Y5039D01*
G01X7711Y5069D01*
G01X7749Y5100D01*
G01X7785Y5134D01*
G01X7819Y5168D01*
G01X7853Y5204D01*
G01X7884Y5242D01*
G01X7914Y5281D01*
G01X7943Y5321D01*
G01X7969Y5362D01*
G01X7994Y5404D01*
G01X8017Y5448D01*
G01X8038Y5492D01*
G01X8058Y5537D01*
G01X8075Y5583D01*
G01X8090Y5630D01*
G01X8104Y5677D01*
G01X8115Y5725D01*
G01X8124Y5773D01*
G01X8132Y5822D01*
G01X8137Y5870D01*
G01X8140Y5919D01*
G01X8141Y5969D01*
G01X8140Y6018D01*
G01X8137Y6067D01*
G01X8132Y6115D01*
G01X8124Y6164D01*
G01X8115Y6212D01*
G01X8104Y6260D01*
G01X8090Y6307D01*
G01X8075Y6354D01*
G01X8058Y6400D01*
G01X8038Y6445D01*
G01X8017Y6489D01*
G01X7994Y6533D01*
G01X7969Y6575D01*
G01X7943Y6616D01*
G01X7914Y6656D01*
G01X7884Y6695D01*
G01X7853Y6733D01*
G01X7819Y6769D01*
G01X7785Y6803D01*
G01X7749Y6837D01*
G01X7711Y6868D01*
G01X7672Y6898D01*
G01X7632Y6927D01*
G01X7591Y6953D01*
G01X7549Y6978D01*
G01X7505Y7001D01*
G01X7461Y7022D01*
G01X7416Y7042D01*
G01X7370Y7059D01*
G01X7323Y7074D01*
G01X7276Y7088D01*
G01X7228Y7099D01*
G01X7180Y7108D01*
G01X7131Y7116D01*
G01X7083Y7121D01*
G01X7034Y7124D01*
G37*
G36*
G01X12964Y7125D02*
G01X11165Y7125D01*
G01X11141Y7124D01*
G01X11117Y7121D01*
G01X11094Y7115D01*
G01X11072Y7108D01*
G01X11050Y7098D01*
G01X11029Y7087D01*
G01X11010Y7073D01*
G01X10992Y7058D01*
G01X10975Y7041D01*
G01X10960Y7023D01*
G01X10946Y7004D01*
G01X10935Y6983D01*
G01X10925Y6961D01*
G01X10918Y6939D01*
G01X10912Y6916D01*
G01X10909Y6892D01*
G01X10908Y6868D01*
G01X10908Y5069D01*
G01X10909Y5045D01*
G01X10912Y5021D01*
G01X10918Y4998D01*
G01X10925Y4976D01*
G01X10935Y4954D01*
G01X10946Y4933D01*
G01X10960Y4914D01*
G01X10975Y4896D01*
G01X10992Y4879D01*
G01X11010Y4864D01*
G01X11029Y4850D01*
G01X11050Y4839D01*
G01X11072Y4829D01*
G01X11094Y4822D01*
G01X11117Y4816D01*
G01X11141Y4813D01*
G01X11165Y4812D01*
G01X12964Y4812D01*
G01X12988Y4813D01*
G01X13012Y4816D01*
G01X13035Y4822D01*
G01X13057Y4829D01*
G01X13079Y4839D01*
G01X13100Y4850D01*
G01X13119Y4864D01*
G01X13137Y4879D01*
G01X13154Y4896D01*
G01X13169Y4914D01*
G01X13183Y4933D01*
G01X13194Y4954D01*
G01X13204Y4976D01*
G01X13211Y4998D01*
G01X13217Y5021D01*
G01X13220Y5045D01*
G01X13221Y5069D01*
G01X13221Y6868D01*
G01X13220Y6892D01*
G01X13217Y6916D01*
G01X13211Y6939D01*
G01X13204Y6961D01*
G01X13194Y6983D01*
G01X13183Y7004D01*
G01X13169Y7023D01*
G01X13154Y7041D01*
G01X13137Y7058D01*
G01X13119Y7073D01*
G01X13100Y7087D01*
G01X13079Y7098D01*
G01X13057Y7108D01*
G01X13035Y7115D01*
G01X13012Y7121D01*
G01X12988Y7124D01*
G01X12964Y7125D01*
G37*
G36*
G01X9574Y7124D02*
G01X9525Y7125D01*
G01X9475Y7124D01*
G01X9426Y7121D01*
G01X9378Y7116D01*
G01X9329Y7108D01*
G01X9281Y7099D01*
G01X9233Y7088D01*
G01X9186Y7074D01*
G01X9139Y7059D01*
G01X9093Y7042D01*
G01X9048Y7022D01*
G01X9004Y7001D01*
G01X8960Y6978D01*
G01X8918Y6953D01*
G01X8877Y6927D01*
G01X8837Y6898D01*
G01X8798Y6868D01*
G01X8760Y6837D01*
G01X8724Y6803D01*
G01X8690Y6769D01*
G01X8656Y6733D01*
G01X8625Y6695D01*
G01X8595Y6656D01*
G01X8566Y6616D01*
G01X8540Y6575D01*
G01X8515Y6533D01*
G01X8492Y6489D01*
G01X8471Y6445D01*
G01X8451Y6400D01*
G01X8434Y6354D01*
G01X8419Y6307D01*
G01X8405Y6260D01*
G01X8394Y6212D01*
G01X8385Y6164D01*
G01X8377Y6115D01*
G01X8372Y6067D01*
G01X8369Y6018D01*
G01X8368Y5969D01*
G01X8369Y5919D01*
G01X8372Y5870D01*
G01X8377Y5822D01*
G01X8385Y5773D01*
G01X8394Y5725D01*
G01X8405Y5677D01*
G01X8419Y5630D01*
G01X8434Y5583D01*
G01X8451Y5537D01*
G01X8471Y5492D01*
G01X8492Y5448D01*
G01X8515Y5404D01*
G01X8540Y5362D01*
G01X8566Y5321D01*
G01X8595Y5281D01*
G01X8625Y5242D01*
G01X8656Y5204D01*
G01X8690Y5168D01*
G01X8724Y5134D01*
G01X8760Y5100D01*
G01X8798Y5069D01*
G01X8837Y5039D01*
G01X8877Y5010D01*
G01X8918Y4984D01*
G01X8960Y4959D01*
G01X9004Y4936D01*
G01X9048Y4915D01*
G01X9093Y4895D01*
G01X9139Y4878D01*
G01X9186Y4863D01*
G01X9233Y4849D01*
G01X9281Y4838D01*
G01X9329Y4829D01*
G01X9378Y4821D01*
G01X9426Y4816D01*
G01X9475Y4813D01*
G01X9525Y4812D01*
G01X9574Y4813D01*
G01X9623Y4816D01*
G01X9671Y4821D01*
G01X9720Y4829D01*
G01X9768Y4838D01*
G01X9816Y4849D01*
G01X9863Y4863D01*
G01X9910Y4878D01*
G01X9956Y4895D01*
G01X10001Y4915D01*
G01X10045Y4936D01*
G01X10089Y4959D01*
G01X10131Y4984D01*
G01X10172Y5010D01*
G01X10212Y5039D01*
G01X10251Y5069D01*
G01X10289Y5100D01*
G01X10325Y5134D01*
G01X10359Y5168D01*
G01X10393Y5204D01*
G01X10424Y5242D01*
G01X10454Y5281D01*
G01X10483Y5321D01*
G01X10509Y5362D01*
G01X10534Y5404D01*
G01X10557Y5448D01*
G01X10578Y5492D01*
G01X10598Y5537D01*
G01X10615Y5583D01*
G01X10630Y5630D01*
G01X10644Y5677D01*
G01X10655Y5725D01*
G01X10664Y5773D01*
G01X10672Y5822D01*
G01X10677Y5870D01*
G01X10680Y5919D01*
G01X10681Y5969D01*
G01X10680Y6018D01*
G01X10677Y6067D01*
G01X10672Y6115D01*
G01X10664Y6164D01*
G01X10655Y6212D01*
G01X10644Y6260D01*
G01X10630Y6307D01*
G01X10615Y6354D01*
G01X10598Y6400D01*
G01X10578Y6445D01*
G01X10557Y6489D01*
G01X10534Y6533D01*
G01X10509Y6575D01*
G01X10483Y6616D01*
G01X10454Y6656D01*
G01X10424Y6695D01*
G01X10393Y6733D01*
G01X10359Y6769D01*
G01X10325Y6803D01*
G01X10289Y6837D01*
G01X10251Y6868D01*
G01X10212Y6898D01*
G01X10172Y6927D01*
G01X10131Y6953D01*
G01X10089Y6978D01*
G01X10045Y7001D01*
G01X10001Y7022D01*
G01X9956Y7042D01*
G01X9910Y7059D01*
G01X9863Y7074D01*
G01X9816Y7088D01*
G01X9768Y7099D01*
G01X9720Y7108D01*
G01X9671Y7116D01*
G01X9623Y7121D01*
G01X9574Y7124D01*
G37*
G36*
G01X7034Y24904D02*
G01X6985Y24905D01*
G01X6935Y24904D01*
G01X6886Y24901D01*
G01X6838Y24896D01*
G01X6789Y24888D01*
G01X6741Y24879D01*
G01X6693Y24868D01*
G01X6646Y24854D01*
G01X6599Y24839D01*
G01X6553Y24822D01*
G01X6508Y24802D01*
G01X6464Y24781D01*
G01X6420Y24758D01*
G01X6378Y24733D01*
G01X6337Y24707D01*
G01X6297Y24678D01*
G01X6258Y24648D01*
G01X6220Y24617D01*
G01X6184Y24583D01*
G01X6150Y24549D01*
G01X6116Y24513D01*
G01X6085Y24475D01*
G01X6055Y24436D01*
G01X6026Y24396D01*
G01X6000Y24355D01*
G01X5975Y24313D01*
G01X5952Y24269D01*
G01X5931Y24225D01*
G01X5911Y24180D01*
G01X5894Y24134D01*
G01X5879Y24087D01*
G01X5865Y24040D01*
G01X5854Y23992D01*
G01X5845Y23944D01*
G01X5837Y23895D01*
G01X5832Y23847D01*
G01X5829Y23798D01*
G01X5828Y23749D01*
G01X5829Y23699D01*
G01X5832Y23650D01*
G01X5837Y23602D01*
G01X5845Y23553D01*
G01X5854Y23505D01*
G01X5865Y23457D01*
G01X5879Y23410D01*
G01X5894Y23363D01*
G01X5911Y23317D01*
G01X5931Y23272D01*
G01X5952Y23228D01*
G01X5975Y23184D01*
G01X6000Y23142D01*
G01X6026Y23101D01*
G01X6055Y23061D01*
G01X6085Y23022D01*
G01X6116Y22984D01*
G01X6150Y22948D01*
G01X6184Y22914D01*
G01X6220Y22880D01*
G01X6258Y22849D01*
G01X6297Y22819D01*
G01X6337Y22790D01*
G01X6378Y22764D01*
G01X6420Y22739D01*
G01X6464Y22716D01*
G01X6508Y22695D01*
G01X6553Y22675D01*
G01X6599Y22658D01*
G01X6646Y22643D01*
G01X6693Y22629D01*
G01X6741Y22618D01*
G01X6789Y22609D01*
G01X6838Y22601D01*
G01X6886Y22596D01*
G01X6935Y22593D01*
G01X6985Y22592D01*
G01X7034Y22593D01*
G01X7083Y22596D01*
G01X7131Y22601D01*
G01X7180Y22609D01*
G01X7228Y22618D01*
G01X7276Y22629D01*
G01X7323Y22643D01*
G01X7370Y22658D01*
G01X7416Y22675D01*
G01X7461Y22695D01*
G01X7505Y22716D01*
G01X7549Y22739D01*
G01X7591Y22764D01*
G01X7632Y22790D01*
G01X7672Y22819D01*
G01X7711Y22849D01*
G01X7749Y22880D01*
G01X7785Y22914D01*
G01X7819Y22948D01*
G01X7853Y22984D01*
G01X7884Y23022D01*
G01X7914Y23061D01*
G01X7943Y23101D01*
G01X7969Y23142D01*
G01X7994Y23184D01*
G01X8017Y23228D01*
G01X8038Y23272D01*
G01X8058Y23317D01*
G01X8075Y23363D01*
G01X8090Y23410D01*
G01X8104Y23457D01*
G01X8115Y23505D01*
G01X8124Y23553D01*
G01X8132Y23602D01*
G01X8137Y23650D01*
G01X8140Y23699D01*
G01X8141Y23749D01*
G01X8140Y23798D01*
G01X8137Y23847D01*
G01X8132Y23895D01*
G01X8124Y23944D01*
G01X8115Y23992D01*
G01X8104Y24040D01*
G01X8090Y24087D01*
G01X8075Y24134D01*
G01X8058Y24180D01*
G01X8038Y24225D01*
G01X8017Y24269D01*
G01X7994Y24313D01*
G01X7969Y24355D01*
G01X7943Y24396D01*
G01X7914Y24436D01*
G01X7884Y24475D01*
G01X7853Y24513D01*
G01X7819Y24549D01*
G01X7785Y24583D01*
G01X7749Y24617D01*
G01X7711Y24648D01*
G01X7672Y24678D01*
G01X7632Y24707D01*
G01X7591Y24733D01*
G01X7549Y24758D01*
G01X7505Y24781D01*
G01X7461Y24802D01*
G01X7416Y24822D01*
G01X7370Y24839D01*
G01X7323Y24854D01*
G01X7276Y24868D01*
G01X7228Y24879D01*
G01X7180Y24888D01*
G01X7131Y24896D01*
G01X7083Y24901D01*
G01X7034Y24904D01*
G37*
G36*
G01X1954Y14744D02*
G01X1905Y14745D01*
G01X1855Y14744D01*
G01X1806Y14741D01*
G01X1758Y14736D01*
G01X1709Y14728D01*
G01X1661Y14719D01*
G01X1613Y14708D01*
G01X1566Y14694D01*
G01X1519Y14679D01*
G01X1473Y14662D01*
G01X1428Y14642D01*
G01X1384Y14621D01*
G01X1340Y14598D01*
G01X1298Y14573D01*
G01X1257Y14547D01*
G01X1217Y14518D01*
G01X1178Y14488D01*
G01X1140Y14457D01*
G01X1104Y14423D01*
G01X1070Y14389D01*
G01X1036Y14353D01*
G01X1005Y14315D01*
G01X975Y14276D01*
G01X946Y14236D01*
G01X920Y14195D01*
G01X895Y14153D01*
G01X872Y14109D01*
G01X851Y14065D01*
G01X831Y14020D01*
G01X814Y13974D01*
G01X799Y13927D01*
G01X785Y13880D01*
G01X774Y13832D01*
G01X765Y13784D01*
G01X757Y13735D01*
G01X752Y13687D01*
G01X749Y13638D01*
G01X748Y13589D01*
G01X749Y13539D01*
G01X752Y13490D01*
G01X757Y13442D01*
G01X765Y13393D01*
G01X774Y13345D01*
G01X785Y13297D01*
G01X799Y13250D01*
G01X814Y13203D01*
G01X831Y13157D01*
G01X851Y13112D01*
G01X872Y13068D01*
G01X895Y13024D01*
G01X920Y12982D01*
G01X946Y12941D01*
G01X975Y12901D01*
G01X1005Y12862D01*
G01X1036Y12824D01*
G01X1070Y12788D01*
G01X1104Y12754D01*
G01X1140Y12720D01*
G01X1178Y12689D01*
G01X1217Y12659D01*
G01X1257Y12630D01*
G01X1298Y12604D01*
G01X1340Y12579D01*
G01X1384Y12556D01*
G01X1428Y12535D01*
G01X1473Y12515D01*
G01X1519Y12498D01*
G01X1566Y12483D01*
G01X1613Y12469D01*
G01X1661Y12458D01*
G01X1709Y12449D01*
G01X1758Y12441D01*
G01X1806Y12436D01*
G01X1855Y12433D01*
G01X1905Y12432D01*
G01X1954Y12433D01*
G01X2003Y12436D01*
G01X2051Y12441D01*
G01X2100Y12449D01*
G01X2148Y12458D01*
G01X2196Y12469D01*
G01X2243Y12483D01*
G01X2290Y12498D01*
G01X2336Y12515D01*
G01X2381Y12535D01*
G01X2425Y12556D01*
G01X2469Y12579D01*
G01X2511Y12604D01*
G01X2552Y12630D01*
G01X2592Y12659D01*
G01X2631Y12689D01*
G01X2669Y12720D01*
G01X2705Y12754D01*
G01X2739Y12788D01*
G01X2773Y12824D01*
G01X2804Y12862D01*
G01X2834Y12901D01*
G01X2863Y12941D01*
G01X2889Y12982D01*
G01X2914Y13024D01*
G01X2937Y13068D01*
G01X2958Y13112D01*
G01X2978Y13157D01*
G01X2995Y13203D01*
G01X3010Y13250D01*
G01X3024Y13297D01*
G01X3035Y13345D01*
G01X3044Y13393D01*
G01X3052Y13442D01*
G01X3057Y13490D01*
G01X3060Y13539D01*
G01X3061Y13589D01*
G01X3060Y13638D01*
G01X3057Y13687D01*
G01X3052Y13735D01*
G01X3044Y13784D01*
G01X3035Y13832D01*
G01X3024Y13880D01*
G01X3010Y13927D01*
G01X2995Y13974D01*
G01X2978Y14020D01*
G01X2958Y14065D01*
G01X2937Y14109D01*
G01X2914Y14153D01*
G01X2889Y14195D01*
G01X2863Y14236D01*
G01X2834Y14276D01*
G01X2804Y14315D01*
G01X2773Y14353D01*
G01X2739Y14389D01*
G01X2705Y14423D01*
G01X2669Y14457D01*
G01X2631Y14488D01*
G01X2592Y14518D01*
G01X2552Y14547D01*
G01X2511Y14573D01*
G01X2469Y14598D01*
G01X2425Y14621D01*
G01X2381Y14642D01*
G01X2336Y14662D01*
G01X2290Y14679D01*
G01X2243Y14694D01*
G01X2196Y14708D01*
G01X2148Y14719D01*
G01X2100Y14728D01*
G01X2051Y14736D01*
G01X2003Y14741D01*
G01X1954Y14744D01*
G37*
G36*
G01X4494Y7124D02*
G01X4445Y7125D01*
G01X4395Y7124D01*
G01X4346Y7121D01*
G01X4298Y7116D01*
G01X4249Y7108D01*
G01X4201Y7099D01*
G01X4153Y7088D01*
G01X4106Y7074D01*
G01X4059Y7059D01*
G01X4013Y7042D01*
G01X3968Y7022D01*
G01X3924Y7001D01*
G01X3880Y6978D01*
G01X3838Y6953D01*
G01X3797Y6927D01*
G01X3757Y6898D01*
G01X3718Y6868D01*
G01X3680Y6837D01*
G01X3644Y6803D01*
G01X3610Y6769D01*
G01X3576Y6733D01*
G01X3545Y6695D01*
G01X3515Y6656D01*
G01X3486Y6616D01*
G01X3460Y6575D01*
G01X3435Y6533D01*
G01X3412Y6489D01*
G01X3391Y6445D01*
G01X3371Y6400D01*
G01X3354Y6354D01*
G01X3339Y6307D01*
G01X3325Y6260D01*
G01X3314Y6212D01*
G01X3305Y6164D01*
G01X3297Y6115D01*
G01X3292Y6067D01*
G01X3289Y6018D01*
G01X3288Y5969D01*
G01X3289Y5919D01*
G01X3292Y5870D01*
G01X3297Y5822D01*
G01X3305Y5773D01*
G01X3314Y5725D01*
G01X3325Y5677D01*
G01X3339Y5630D01*
G01X3354Y5583D01*
G01X3371Y5537D01*
G01X3391Y5492D01*
G01X3412Y5448D01*
G01X3435Y5404D01*
G01X3460Y5362D01*
G01X3486Y5321D01*
G01X3515Y5281D01*
G01X3545Y5242D01*
G01X3576Y5204D01*
G01X3610Y5168D01*
G01X3644Y5134D01*
G01X3680Y5100D01*
G01X3718Y5069D01*
G01X3757Y5039D01*
G01X3797Y5010D01*
G01X3838Y4984D01*
G01X3880Y4959D01*
G01X3924Y4936D01*
G01X3968Y4915D01*
G01X4013Y4895D01*
G01X4059Y4878D01*
G01X4106Y4863D01*
G01X4153Y4849D01*
G01X4201Y4838D01*
G01X4249Y4829D01*
G01X4298Y4821D01*
G01X4346Y4816D01*
G01X4395Y4813D01*
G01X4445Y4812D01*
G01X4494Y4813D01*
G01X4543Y4816D01*
G01X4591Y4821D01*
G01X4640Y4829D01*
G01X4688Y4838D01*
G01X4736Y4849D01*
G01X4783Y4863D01*
G01X4830Y4878D01*
G01X4876Y4895D01*
G01X4921Y4915D01*
G01X4965Y4936D01*
G01X5009Y4959D01*
G01X5051Y4984D01*
G01X5092Y5010D01*
G01X5132Y5039D01*
G01X5171Y5069D01*
G01X5209Y5100D01*
G01X5245Y5134D01*
G01X5279Y5168D01*
G01X5313Y5204D01*
G01X5344Y5242D01*
G01X5374Y5281D01*
G01X5403Y5321D01*
G01X5429Y5362D01*
G01X5454Y5404D01*
G01X5477Y5448D01*
G01X5498Y5492D01*
G01X5518Y5537D01*
G01X5535Y5583D01*
G01X5550Y5630D01*
G01X5564Y5677D01*
G01X5575Y5725D01*
G01X5584Y5773D01*
G01X5592Y5822D01*
G01X5597Y5870D01*
G01X5600Y5919D01*
G01X5601Y5969D01*
G01X5600Y6018D01*
G01X5597Y6067D01*
G01X5592Y6115D01*
G01X5584Y6164D01*
G01X5575Y6212D01*
G01X5564Y6260D01*
G01X5550Y6307D01*
G01X5535Y6354D01*
G01X5518Y6400D01*
G01X5498Y6445D01*
G01X5477Y6489D01*
G01X5454Y6533D01*
G01X5429Y6575D01*
G01X5403Y6616D01*
G01X5374Y6656D01*
G01X5344Y6695D01*
G01X5313Y6733D01*
G01X5279Y6769D01*
G01X5245Y6803D01*
G01X5209Y6837D01*
G01X5171Y6868D01*
G01X5132Y6898D01*
G01X5092Y6927D01*
G01X5051Y6953D01*
G01X5009Y6978D01*
G01X4965Y7001D01*
G01X4921Y7022D01*
G01X4876Y7042D01*
G01X4830Y7059D01*
G01X4783Y7074D01*
G01X4736Y7088D01*
G01X4688Y7099D01*
G01X4640Y7108D01*
G01X4591Y7116D01*
G01X4543Y7121D01*
G01X4494Y7124D01*
G37*
G36*
G01X2804Y7125D02*
G01X1005Y7125D01*
G01X981Y7124D01*
G01X957Y7121D01*
G01X934Y7115D01*
G01X912Y7108D01*
G01X890Y7098D01*
G01X869Y7087D01*
G01X850Y7073D01*
G01X832Y7058D01*
G01X815Y7041D01*
G01X800Y7023D01*
G01X786Y7004D01*
G01X775Y6983D01*
G01X765Y6961D01*
G01X758Y6939D01*
G01X752Y6916D01*
G01X749Y6892D01*
G01X748Y6868D01*
G01X748Y5069D01*
G01X749Y5045D01*
G01X752Y5021D01*
G01X758Y4998D01*
G01X765Y4976D01*
G01X775Y4954D01*
G01X786Y4933D01*
G01X800Y4914D01*
G01X815Y4896D01*
G01X832Y4879D01*
G01X850Y4864D01*
G01X869Y4850D01*
G01X890Y4839D01*
G01X912Y4829D01*
G01X934Y4822D01*
G01X957Y4816D01*
G01X981Y4813D01*
G01X1005Y4812D01*
G01X2804Y4812D01*
G01X2828Y4813D01*
G01X2852Y4816D01*
G01X2875Y4822D01*
G01X2897Y4829D01*
G01X2919Y4839D01*
G01X2940Y4850D01*
G01X2959Y4864D01*
G01X2977Y4879D01*
G01X2994Y4896D01*
G01X3009Y4914D01*
G01X3023Y4933D01*
G01X3034Y4954D01*
G01X3044Y4976D01*
G01X3051Y4998D01*
G01X3057Y5021D01*
G01X3060Y5045D01*
G01X3061Y5069D01*
G01X3061Y6868D01*
G01X3060Y6892D01*
G01X3057Y6916D01*
G01X3051Y6939D01*
G01X3044Y6961D01*
G01X3034Y6983D01*
G01X3023Y7004D01*
G01X3009Y7023D01*
G01X2994Y7041D01*
G01X2977Y7058D01*
G01X2959Y7073D01*
G01X2940Y7087D01*
G01X2919Y7098D01*
G01X2897Y7108D01*
G01X2875Y7115D01*
G01X2852Y7121D01*
G01X2828Y7124D01*
G01X2804Y7125D01*
G37*
G36*
G01X3931Y24905D02*
G01X3545Y24905D01*
G01X3521Y24904D01*
G01X3497Y24901D01*
G01X3474Y24895D01*
G01X3452Y24888D01*
G01X3430Y24878D01*
G01X3409Y24867D01*
G01X3390Y24853D01*
G01X3372Y24838D01*
G01X3355Y24821D01*
G01X3340Y24803D01*
G01X3326Y24784D01*
G01X3315Y24763D01*
G01X3305Y24741D01*
G01X3298Y24719D01*
G01X3292Y24696D01*
G01X3289Y24672D01*
G01X3288Y24648D01*
G01X3288Y24262D01*
G01X3931Y24262D01*
G01X3931Y24905D01*
G37*
G36*
G01X21711Y7125D02*
G01X21325Y7125D01*
G01X21301Y7124D01*
G01X21277Y7121D01*
G01X21254Y7115D01*
G01X21232Y7108D01*
G01X21210Y7098D01*
G01X21189Y7087D01*
G01X21170Y7073D01*
G01X21152Y7058D01*
G01X21135Y7041D01*
G01X21120Y7023D01*
G01X21106Y7004D01*
G01X21095Y6983D01*
G01X21085Y6961D01*
G01X21078Y6939D01*
G01X21072Y6916D01*
G01X21069Y6892D01*
G01X21068Y6868D01*
G01X21068Y6482D01*
G01X21711Y6482D01*
G01X21711Y7125D01*
G37*
G36*
G01X23124Y7125D02*
G01X22738Y7125D01*
G01X22738Y6482D01*
G01X23381Y6482D01*
G01X23381Y6868D01*
G01X23380Y6892D01*
G01X23377Y6916D01*
G01X23371Y6939D01*
G01X23364Y6961D01*
G01X23354Y6983D01*
G01X23343Y7004D01*
G01X23329Y7023D01*
G01X23314Y7041D01*
G01X23297Y7058D01*
G01X23279Y7073D01*
G01X23260Y7087D01*
G01X23239Y7098D01*
G01X23217Y7108D01*
G01X23195Y7115D01*
G01X23172Y7121D01*
G01X23148Y7124D01*
G01X23124Y7125D01*
G37*
G36*
G01X5344Y24905D02*
G01X4958Y24905D01*
G01X4958Y24262D01*
G01X5601Y24262D01*
G01X5601Y24648D01*
G01X5600Y24672D01*
G01X5597Y24696D01*
G01X5591Y24719D01*
G01X5584Y24741D01*
G01X5574Y24763D01*
G01X5563Y24784D01*
G01X5549Y24803D01*
G01X5534Y24821D01*
G01X5517Y24838D01*
G01X5499Y24853D01*
G01X5480Y24867D01*
G01X5459Y24878D01*
G01X5437Y24888D01*
G01X5415Y24895D01*
G01X5392Y24901D01*
G01X5368Y24904D01*
G01X5344Y24905D01*
G37*
G36*
G01X21711Y5455D02*
G01X21068Y5455D01*
G01X21068Y5069D01*
G01X21069Y5045D01*
G01X21072Y5021D01*
G01X21078Y4998D01*
G01X21085Y4976D01*
G01X21095Y4954D01*
G01X21106Y4933D01*
G01X21120Y4914D01*
G01X21135Y4896D01*
G01X21152Y4879D01*
G01X21170Y4864D01*
G01X21189Y4850D01*
G01X21210Y4839D01*
G01X21232Y4829D01*
G01X21254Y4822D01*
G01X21277Y4816D01*
G01X21301Y4813D01*
G01X21325Y4812D01*
G01X21711Y4812D01*
G01X21711Y5455D01*
G37*
G36*
G01X23381Y5455D02*
G01X22738Y5455D01*
G01X22738Y4812D01*
G01X23124Y4812D01*
G01X23148Y4813D01*
G01X23172Y4816D01*
G01X23195Y4822D01*
G01X23217Y4829D01*
G01X23239Y4839D01*
G01X23260Y4850D01*
G01X23279Y4864D01*
G01X23297Y4879D01*
G01X23314Y4896D01*
G01X23329Y4914D01*
G01X23343Y4933D01*
G01X23354Y4954D01*
G01X23364Y4976D01*
G01X23371Y4998D01*
G01X23377Y5021D01*
G01X23380Y5045D01*
G01X23381Y5069D01*
G01X23381Y5455D01*
G37*
G36*
G01X5601Y23235D02*
G01X4958Y23235D01*
G01X4958Y22592D01*
G01X5344Y22592D01*
G01X5368Y22593D01*
G01X5392Y22596D01*
G01X5415Y22602D01*
G01X5437Y22609D01*
G01X5459Y22619D01*
G01X5480Y22630D01*
G01X5499Y22644D01*
G01X5517Y22659D01*
G01X5534Y22676D01*
G01X5549Y22694D01*
G01X5563Y22713D01*
G01X5574Y22734D01*
G01X5584Y22756D01*
G01X5591Y22778D01*
G01X5597Y22801D01*
G01X5600Y22825D01*
G01X5601Y22849D01*
G01X5601Y23235D01*
G37*
G36*
G01X22801Y23145D02*
G01X22308Y23145D01*
G01X22308Y22412D01*
G01X22545Y22412D01*
G01X22568Y22414D01*
G01X22592Y22417D01*
G01X22615Y22422D01*
G01X22637Y22430D01*
G01X22659Y22439D01*
G01X22680Y22451D01*
G01X22699Y22464D01*
G01X22717Y22479D01*
G01X22734Y22496D01*
G01X22749Y22514D01*
G01X22763Y22534D01*
G01X22774Y22555D01*
G01X22784Y22576D01*
G01X22791Y22599D01*
G01X22797Y22622D01*
G01X22800Y22645D01*
G01X22801Y22669D01*
G01X22801Y23145D01*
G37*
G36*
G01X22545Y25085D02*
G01X22308Y25085D01*
G01X22308Y24352D01*
G01X22801Y24352D01*
G01X22801Y24828D01*
G01X22800Y24852D01*
G01X22797Y24875D01*
G01X22791Y24898D01*
G01X22784Y24921D01*
G01X22774Y24942D01*
G01X22763Y24963D01*
G01X22749Y24983D01*
G01X22734Y25001D01*
G01X22717Y25018D01*
G01X22699Y25033D01*
G01X22680Y25046D01*
G01X22659Y25058D01*
G01X22637Y25067D01*
G01X22615Y25075D01*
G01X22592Y25080D01*
G01X22568Y25083D01*
G01X22545Y25085D01*
G37*
G36*
G01X21582Y25085D02*
G01X21346Y25085D01*
G01X21322Y25083D01*
G01X21299Y25080D01*
G01X21275Y25075D01*
G01X21253Y25067D01*
G01X21231Y25058D01*
G01X21211Y25046D01*
G01X21191Y25033D01*
G01X21173Y25018D01*
G01X21156Y25001D01*
G01X21141Y24983D01*
G01X21128Y24963D01*
G01X21116Y24942D01*
G01X21106Y24921D01*
G01X21099Y24898D01*
G01X21093Y24875D01*
G01X21090Y24852D01*
G01X21089Y24828D01*
G01X21089Y24352D01*
G01X21582Y24352D01*
G01X21582Y25085D01*
G37*
G36*
G01X1391Y21722D02*
G01X1391Y22245D01*
G01X1347Y22222D01*
G01X1303Y22196D01*
G01X1261Y22169D01*
G01X1220Y22141D01*
G01X1180Y22110D01*
G01X1142Y22078D01*
G01X1105Y22044D01*
G01X1069Y22008D01*
G01X1035Y21971D01*
G01X1003Y21933D01*
G01X972Y21893D01*
G01X944Y21852D01*
G01X917Y21810D01*
G01X891Y21766D01*
G01X868Y21722D01*
G01X1391Y21722D01*
G37*
G36*
G01X24251Y6482D02*
G01X24251Y7005D01*
G01X24207Y6982D01*
G01X24163Y6956D01*
G01X24121Y6929D01*
G01X24080Y6901D01*
G01X24040Y6870D01*
G01X24002Y6838D01*
G01X23965Y6804D01*
G01X23929Y6768D01*
G01X23895Y6731D01*
G01X23863Y6693D01*
G01X23832Y6653D01*
G01X23804Y6612D01*
G01X23777Y6570D01*
G01X23751Y6526D01*
G01X23728Y6482D01*
G01X24251Y6482D01*
G37*
G36*
G01X16631Y24262D02*
G01X16631Y24785D01*
G01X16587Y24762D01*
G01X16543Y24736D01*
G01X16501Y24709D01*
G01X16460Y24681D01*
G01X16420Y24650D01*
G01X16382Y24618D01*
G01X16345Y24584D01*
G01X16309Y24548D01*
G01X16275Y24511D01*
G01X16243Y24473D01*
G01X16212Y24433D01*
G01X16184Y24392D01*
G01X16157Y24350D01*
G01X16131Y24306D01*
G01X16108Y24262D01*
G01X16631Y24262D01*
G37*
G36*
G01X25801Y5455D02*
G01X25278Y5455D01*
G01X25278Y4932D01*
G01X25322Y4955D01*
G01X25366Y4981D01*
G01X25408Y5008D01*
G01X25449Y5036D01*
G01X25489Y5067D01*
G01X25527Y5099D01*
G01X25564Y5133D01*
G01X25600Y5169D01*
G01X25634Y5206D01*
G01X25666Y5244D01*
G01X25697Y5284D01*
G01X25725Y5325D01*
G01X25752Y5367D01*
G01X25778Y5411D01*
G01X25801Y5455D01*
G37*
G36*
G01X25801Y15615D02*
G01X25278Y15615D01*
G01X25278Y15092D01*
G01X25322Y15115D01*
G01X25366Y15141D01*
G01X25408Y15168D01*
G01X25449Y15196D01*
G01X25489Y15227D01*
G01X25527Y15259D01*
G01X25564Y15293D01*
G01X25600Y15329D01*
G01X25634Y15366D01*
G01X25666Y15404D01*
G01X25697Y15444D01*
G01X25725Y15485D01*
G01X25752Y15527D01*
G01X25778Y15571D01*
G01X25801Y15615D01*
G37*
G36*
G01X25322Y17142D02*
G01X25278Y17165D01*
G01X25278Y16642D01*
G01X25801Y16642D01*
G01X25778Y16686D01*
G01X25752Y16730D01*
G01X25725Y16772D01*
G01X25697Y16813D01*
G01X25666Y16853D01*
G01X25634Y16891D01*
G01X25600Y16928D01*
G01X25564Y16964D01*
G01X25527Y16998D01*
G01X25489Y17030D01*
G01X25449Y17061D01*
G01X25408Y17089D01*
G01X25366Y17116D01*
G01X25322Y17142D01*
G37*
G36*
G01X17702Y24762D02*
G01X17658Y24785D01*
G01X17658Y24262D01*
G01X18181Y24262D01*
G01X18158Y24306D01*
G01X18132Y24350D01*
G01X18105Y24392D01*
G01X18077Y24433D01*
G01X18046Y24473D01*
G01X18014Y24511D01*
G01X17980Y24548D01*
G01X17944Y24584D01*
G01X17907Y24618D01*
G01X17869Y24650D01*
G01X17829Y24681D01*
G01X17788Y24709D01*
G01X17746Y24736D01*
G01X17702Y24762D01*
G37*
G36*
G01X25322Y6982D02*
G01X25278Y7005D01*
G01X25278Y6482D01*
G01X25801Y6482D01*
G01X25778Y6526D01*
G01X25752Y6570D01*
G01X25725Y6612D01*
G01X25697Y6653D01*
G01X25666Y6693D01*
G01X25634Y6731D01*
G01X25600Y6768D01*
G01X25564Y6804D01*
G01X25527Y6838D01*
G01X25489Y6870D01*
G01X25449Y6901D01*
G01X25408Y6929D01*
G01X25366Y6956D01*
G01X25322Y6982D01*
G37*
G36*
G01X1391Y20695D02*
G01X868Y20695D01*
G01X891Y20651D01*
G01X917Y20607D01*
G01X944Y20565D01*
G01X972Y20524D01*
G01X1003Y20484D01*
G01X1035Y20446D01*
G01X1069Y20409D01*
G01X1105Y20373D01*
G01X1142Y20339D01*
G01X1180Y20307D01*
G01X1220Y20276D01*
G01X1261Y20248D01*
G01X1303Y20221D01*
G01X1347Y20195D01*
G01X1391Y20172D01*
G01X1391Y20695D01*
G37*
G36*
G01X24251Y5455D02*
G01X23728Y5455D01*
G01X23751Y5411D01*
G01X23777Y5367D01*
G01X23804Y5325D01*
G01X23832Y5284D01*
G01X23863Y5244D01*
G01X23895Y5206D01*
G01X23929Y5169D01*
G01X23965Y5133D01*
G01X24002Y5099D01*
G01X24040Y5067D01*
G01X24080Y5036D01*
G01X24121Y5008D01*
G01X24163Y4981D01*
G01X24207Y4955D01*
G01X24251Y4932D01*
G01X24251Y5455D01*
G37*
G36*
G01X2941Y20695D02*
G01X2418Y20695D01*
G01X2418Y20172D01*
G01X2462Y20195D01*
G01X2506Y20221D01*
G01X2548Y20248D01*
G01X2589Y20276D01*
G01X2629Y20307D01*
G01X2667Y20339D01*
G01X2704Y20373D01*
G01X2740Y20409D01*
G01X2774Y20446D01*
G01X2806Y20484D01*
G01X2837Y20524D01*
G01X2865Y20565D01*
G01X2892Y20607D01*
G01X2918Y20651D01*
G01X2941Y20695D01*
G37*
G36*
G01X18112Y12742D02*
G01X17669Y12742D01*
G01X17669Y12530D01*
G01X17670Y12507D01*
G01X17673Y12483D01*
G01X17679Y12460D01*
G01X17686Y12438D01*
G01X17696Y12416D01*
G01X17707Y12395D01*
G01X17721Y12376D01*
G01X17736Y12358D01*
G01X17753Y12341D01*
G01X17771Y12326D01*
G01X17790Y12312D01*
G01X17811Y12301D01*
G01X17833Y12291D01*
G01X17855Y12284D01*
G01X17878Y12278D01*
G01X17902Y12275D01*
G01X17925Y12274D01*
G01X18112Y12274D01*
G01X18112Y12742D01*
G37*
G36*
G01X20652Y18838D02*
G01X20209Y18838D01*
G01X20209Y18626D01*
G01X20210Y18603D01*
G01X20213Y18579D01*
G01X20219Y18556D01*
G01X20226Y18534D01*
G01X20236Y18512D01*
G01X20247Y18491D01*
G01X20261Y18472D01*
G01X20276Y18454D01*
G01X20293Y18437D01*
G01X20311Y18422D01*
G01X20330Y18408D01*
G01X20351Y18397D01*
G01X20373Y18387D01*
G01X20395Y18380D01*
G01X20418Y18374D01*
G01X20442Y18371D01*
G01X20465Y18370D01*
G01X20652Y18370D01*
G01X20652Y18838D01*
G37*
G36*
G01X19182Y12742D02*
G01X18739Y12742D01*
G01X18739Y12274D01*
G01X18925Y12274D01*
G01X18949Y12275D01*
G01X18973Y12278D01*
G01X18996Y12284D01*
G01X19018Y12291D01*
G01X19040Y12301D01*
G01X19061Y12312D01*
G01X19080Y12326D01*
G01X19098Y12341D01*
G01X19115Y12358D01*
G01X19130Y12376D01*
G01X19144Y12395D01*
G01X19155Y12416D01*
G01X19165Y12438D01*
G01X19172Y12460D01*
G01X19178Y12483D01*
G01X19181Y12507D01*
G01X19182Y12530D01*
G01X19182Y12742D01*
G37*
G36*
G01X21722Y18838D02*
G01X21279Y18838D01*
G01X21279Y18370D01*
G01X21465Y18370D01*
G01X21489Y18371D01*
G01X21513Y18374D01*
G01X21536Y18380D01*
G01X21558Y18387D01*
G01X21580Y18397D01*
G01X21601Y18408D01*
G01X21620Y18422D01*
G01X21638Y18437D01*
G01X21655Y18454D01*
G01X21670Y18472D01*
G01X21684Y18491D01*
G01X21695Y18512D01*
G01X21705Y18534D01*
G01X21712Y18556D01*
G01X21718Y18579D01*
G01X21721Y18603D01*
G01X21722Y18626D01*
G01X21722Y18838D01*
G37*
G36*
G01X21722Y16679D02*
G01X21279Y16679D01*
G01X21279Y16211D01*
G01X21465Y16211D01*
G01X21489Y16212D01*
G01X21513Y16215D01*
G01X21536Y16221D01*
G01X21558Y16228D01*
G01X21580Y16238D01*
G01X21601Y16249D01*
G01X21620Y16263D01*
G01X21638Y16278D01*
G01X21655Y16295D01*
G01X21670Y16313D01*
G01X21684Y16332D01*
G01X21695Y16353D01*
G01X21705Y16375D01*
G01X21712Y16397D01*
G01X21718Y16420D01*
G01X21721Y16444D01*
G01X21722Y16467D01*
G01X21722Y16679D01*
G37*
G36*
G01X18852Y14647D02*
G01X18409Y14647D01*
G01X18409Y14435D01*
G01X18410Y14412D01*
G01X18413Y14388D01*
G01X18419Y14365D01*
G01X18426Y14343D01*
G01X18436Y14321D01*
G01X18447Y14300D01*
G01X18461Y14281D01*
G01X18476Y14263D01*
G01X18493Y14246D01*
G01X18511Y14231D01*
G01X18530Y14217D01*
G01X18551Y14206D01*
G01X18573Y14196D01*
G01X18595Y14189D01*
G01X18618Y14183D01*
G01X18642Y14180D01*
G01X18666Y14179D01*
G01X18852Y14179D01*
G01X18852Y14647D01*
G37*
G36*
G01X18112Y13887D02*
G01X17925Y13887D01*
G01X17902Y13886D01*
G01X17878Y13883D01*
G01X17855Y13877D01*
G01X17833Y13870D01*
G01X17811Y13860D01*
G01X17790Y13849D01*
G01X17771Y13835D01*
G01X17753Y13820D01*
G01X17736Y13803D01*
G01X17721Y13785D01*
G01X17707Y13766D01*
G01X17696Y13745D01*
G01X17686Y13723D01*
G01X17679Y13701D01*
G01X17673Y13678D01*
G01X17670Y13654D01*
G01X17669Y13631D01*
G01X17669Y13419D01*
G01X18112Y13419D01*
G01X18112Y13887D01*
G37*
G36*
G01X21465Y19983D02*
G01X21279Y19983D01*
G01X21279Y19515D01*
G01X21722Y19515D01*
G01X21722Y19727D01*
G01X21721Y19750D01*
G01X21718Y19774D01*
G01X21712Y19797D01*
G01X21705Y19819D01*
G01X21695Y19841D01*
G01X21684Y19862D01*
G01X21670Y19881D01*
G01X21655Y19899D01*
G01X21638Y19916D01*
G01X21620Y19931D01*
G01X21601Y19945D01*
G01X21580Y19956D01*
G01X21558Y19966D01*
G01X21536Y19973D01*
G01X21513Y19979D01*
G01X21489Y19982D01*
G01X21465Y19983D01*
G37*
G36*
G01X18925Y13887D02*
G01X18739Y13887D01*
G01X18739Y13419D01*
G01X19182Y13419D01*
G01X19182Y13631D01*
G01X19181Y13654D01*
G01X19178Y13678D01*
G01X19172Y13701D01*
G01X19165Y13723D01*
G01X19155Y13745D01*
G01X19144Y13766D01*
G01X19130Y13785D01*
G01X19115Y13803D01*
G01X19098Y13820D01*
G01X19080Y13835D01*
G01X19061Y13849D01*
G01X19040Y13860D01*
G01X19018Y13870D01*
G01X18996Y13877D01*
G01X18973Y13883D01*
G01X18949Y13886D01*
G01X18925Y13887D01*
G37*
G36*
G01X20652Y17824D02*
G01X20465Y17824D01*
G01X20442Y17823D01*
G01X20418Y17820D01*
G01X20395Y17814D01*
G01X20373Y17807D01*
G01X20351Y17797D01*
G01X20330Y17786D01*
G01X20311Y17772D01*
G01X20293Y17757D01*
G01X20276Y17740D01*
G01X20261Y17722D01*
G01X20247Y17703D01*
G01X20236Y17682D01*
G01X20226Y17660D01*
G01X20219Y17638D01*
G01X20213Y17615D01*
G01X20210Y17591D01*
G01X20209Y17568D01*
G01X20209Y17356D01*
G01X20652Y17356D01*
G01X20652Y17824D01*
G37*
G36*
G01X14634Y12871D02*
G01X14448Y12871D01*
G01X14448Y12403D01*
G01X14891Y12403D01*
G01X14891Y12615D01*
G01X14890Y12638D01*
G01X14887Y12662D01*
G01X14881Y12685D01*
G01X14874Y12707D01*
G01X14864Y12729D01*
G01X14853Y12750D01*
G01X14839Y12769D01*
G01X14824Y12787D01*
G01X14807Y12804D01*
G01X14789Y12819D01*
G01X14769Y12833D01*
G01X14749Y12844D01*
G01X14727Y12854D01*
G01X14705Y12861D01*
G01X14682Y12867D01*
G01X14658Y12870D01*
G01X14634Y12871D01*
G37*
G36*
G01X20652Y19983D02*
G01X20465Y19983D01*
G01X20442Y19982D01*
G01X20418Y19979D01*
G01X20395Y19973D01*
G01X20373Y19966D01*
G01X20351Y19956D01*
G01X20330Y19945D01*
G01X20311Y19931D01*
G01X20293Y19916D01*
G01X20276Y19899D01*
G01X20261Y19881D01*
G01X20247Y19862D01*
G01X20236Y19841D01*
G01X20226Y19819D01*
G01X20219Y19797D01*
G01X20213Y19774D01*
G01X20210Y19750D01*
G01X20209Y19727D01*
G01X20209Y19515D01*
G01X20652Y19515D01*
G01X20652Y19983D01*
G37*
G36*
G01X18852Y15792D02*
G01X18666Y15792D01*
G01X18642Y15791D01*
G01X18618Y15788D01*
G01X18595Y15782D01*
G01X18573Y15775D01*
G01X18551Y15765D01*
G01X18530Y15754D01*
G01X18511Y15740D01*
G01X18493Y15725D01*
G01X18476Y15708D01*
G01X18461Y15690D01*
G01X18447Y15671D01*
G01X18436Y15650D01*
G01X18426Y15628D01*
G01X18419Y15606D01*
G01X18413Y15583D01*
G01X18410Y15559D01*
G01X18409Y15536D01*
G01X18409Y15324D01*
G01X18852Y15324D01*
G01X18852Y15792D01*
G37*
G36*
G01X21465Y17824D02*
G01X21279Y17824D01*
G01X21279Y17356D01*
G01X21722Y17356D01*
G01X21722Y17568D01*
G01X21721Y17591D01*
G01X21718Y17615D01*
G01X21712Y17638D01*
G01X21705Y17660D01*
G01X21695Y17682D01*
G01X21684Y17703D01*
G01X21670Y17722D01*
G01X21655Y17740D01*
G01X21638Y17757D01*
G01X21620Y17772D01*
G01X21601Y17786D01*
G01X21580Y17797D01*
G01X21558Y17807D01*
G01X21536Y17814D01*
G01X21513Y17820D01*
G01X21489Y17823D01*
G01X21465Y17824D01*
G37*
G36*
G01X5757Y22357D02*
G01X5546Y22357D01*
G01X5522Y22356D01*
G01X5498Y22353D01*
G01X5475Y22347D01*
G01X5453Y22340D01*
G01X5431Y22330D01*
G01X5411Y22319D01*
G01X5391Y22305D01*
G01X5373Y22290D01*
G01X5356Y22273D01*
G01X5341Y22255D01*
G01X5327Y22236D01*
G01X5316Y22215D01*
G01X5306Y22193D01*
G01X5299Y22171D01*
G01X5293Y22148D01*
G01X5290Y22124D01*
G01X5289Y22101D01*
G01X5289Y21914D01*
G01X5757Y21914D01*
G01X5757Y22357D01*
G37*
G36*
G01X7662Y22357D02*
G01X7451Y22357D01*
G01X7427Y22356D01*
G01X7403Y22353D01*
G01X7380Y22347D01*
G01X7358Y22340D01*
G01X7336Y22330D01*
G01X7316Y22319D01*
G01X7296Y22305D01*
G01X7278Y22290D01*
G01X7261Y22273D01*
G01X7246Y22255D01*
G01X7232Y22236D01*
G01X7221Y22215D01*
G01X7211Y22193D01*
G01X7204Y22171D01*
G01X7198Y22148D01*
G01X7195Y22124D01*
G01X7194Y22101D01*
G01X7194Y21914D01*
G01X7662Y21914D01*
G01X7662Y22357D01*
G37*
G36*
G01X8551Y17255D02*
G01X8339Y17255D01*
G01X8339Y16812D01*
G01X8807Y16812D01*
G01X8807Y16999D01*
G01X8806Y17022D01*
G01X8803Y17046D01*
G01X8797Y17069D01*
G01X8790Y17091D01*
G01X8780Y17113D01*
G01X8769Y17134D01*
G01X8755Y17153D01*
G01X8740Y17171D01*
G01X8723Y17188D01*
G01X8705Y17203D01*
G01X8686Y17217D01*
G01X8665Y17228D01*
G01X8643Y17238D01*
G01X8621Y17245D01*
G01X8598Y17251D01*
G01X8574Y17254D01*
G01X8551Y17255D01*
G37*
G36*
G01X5757Y17255D02*
G01X5546Y17255D01*
G01X5522Y17254D01*
G01X5498Y17251D01*
G01X5475Y17245D01*
G01X5453Y17238D01*
G01X5431Y17228D01*
G01X5411Y17217D01*
G01X5391Y17203D01*
G01X5373Y17188D01*
G01X5356Y17171D01*
G01X5341Y17153D01*
G01X5327Y17134D01*
G01X5316Y17113D01*
G01X5306Y17091D01*
G01X5299Y17069D01*
G01X5293Y17046D01*
G01X5290Y17022D01*
G01X5289Y16998D01*
G01X5289Y16812D01*
G01X5757Y16812D01*
G01X5757Y17255D01*
G37*
G36*
G01X6646Y22357D02*
G01X6434Y22357D01*
G01X6434Y21914D01*
G01X6902Y21914D01*
G01X6902Y22101D01*
G01X6901Y22124D01*
G01X6898Y22148D01*
G01X6892Y22171D01*
G01X6885Y22193D01*
G01X6875Y22215D01*
G01X6864Y22236D01*
G01X6850Y22255D01*
G01X6835Y22273D01*
G01X6818Y22290D01*
G01X6800Y22305D01*
G01X6781Y22319D01*
G01X6760Y22330D01*
G01X6738Y22340D01*
G01X6716Y22347D01*
G01X6693Y22353D01*
G01X6669Y22356D01*
G01X6646Y22357D01*
G37*
G36*
G01X7662Y17255D02*
G01X7450Y17255D01*
G01X7427Y17254D01*
G01X7403Y17251D01*
G01X7380Y17245D01*
G01X7358Y17238D01*
G01X7336Y17228D01*
G01X7315Y17217D01*
G01X7296Y17203D01*
G01X7278Y17188D01*
G01X7261Y17171D01*
G01X7246Y17153D01*
G01X7232Y17134D01*
G01X7221Y17113D01*
G01X7211Y17091D01*
G01X7204Y17069D01*
G01X7198Y17046D01*
G01X7195Y17022D01*
G01X7194Y16999D01*
G01X7194Y16812D01*
G01X7662Y16812D01*
G01X7662Y17255D01*
G37*
G36*
G01X6646Y17255D02*
G01X6434Y17255D01*
G01X6434Y16812D01*
G01X6902Y16812D01*
G01X6902Y16998D01*
G01X6901Y17022D01*
G01X6898Y17046D01*
G01X6892Y17069D01*
G01X6885Y17091D01*
G01X6875Y17113D01*
G01X6864Y17134D01*
G01X6850Y17153D01*
G01X6835Y17171D01*
G01X6818Y17188D01*
G01X6800Y17203D01*
G01X6781Y17217D01*
G01X6760Y17228D01*
G01X6738Y17238D01*
G01X6716Y17245D01*
G01X6693Y17251D01*
G01X6669Y17254D01*
G01X6646Y17255D01*
G37*
G36*
G01X5757Y16185D02*
G01X5289Y16185D01*
G01X5289Y15998D01*
G01X5290Y15975D01*
G01X5293Y15951D01*
G01X5299Y15928D01*
G01X5306Y15906D01*
G01X5316Y15884D01*
G01X5327Y15863D01*
G01X5341Y15844D01*
G01X5356Y15826D01*
G01X5373Y15809D01*
G01X5391Y15794D01*
G01X5411Y15780D01*
G01X5431Y15769D01*
G01X5453Y15759D01*
G01X5475Y15752D01*
G01X5498Y15746D01*
G01X5522Y15743D01*
G01X5546Y15742D01*
G01X5757Y15742D01*
G01X5757Y16185D01*
G37*
G36*
G01X7662Y21287D02*
G01X7194Y21287D01*
G01X7194Y21101D01*
G01X7195Y21077D01*
G01X7198Y21053D01*
G01X7204Y21030D01*
G01X7211Y21008D01*
G01X7221Y20986D01*
G01X7232Y20965D01*
G01X7246Y20946D01*
G01X7261Y20928D01*
G01X7278Y20911D01*
G01X7296Y20896D01*
G01X7316Y20882D01*
G01X7336Y20871D01*
G01X7358Y20861D01*
G01X7380Y20854D01*
G01X7403Y20848D01*
G01X7427Y20845D01*
G01X7451Y20844D01*
G01X7662Y20844D01*
G01X7662Y21287D01*
G37*
G36*
G01X8807Y16185D02*
G01X8339Y16185D01*
G01X8339Y15742D01*
G01X8551Y15742D01*
G01X8574Y15743D01*
G01X8598Y15746D01*
G01X8621Y15752D01*
G01X8643Y15759D01*
G01X8665Y15769D01*
G01X8686Y15780D01*
G01X8705Y15794D01*
G01X8723Y15809D01*
G01X8740Y15826D01*
G01X8755Y15844D01*
G01X8769Y15863D01*
G01X8780Y15884D01*
G01X8790Y15906D01*
G01X8797Y15928D01*
G01X8803Y15951D01*
G01X8806Y15975D01*
G01X8807Y15999D01*
G01X8807Y16185D01*
G37*
G36*
G01X19922Y14647D02*
G01X19479Y14647D01*
G01X19479Y14179D01*
G01X19666Y14179D01*
G01X19689Y14180D01*
G01X19713Y14183D01*
G01X19736Y14189D01*
G01X19758Y14196D01*
G01X19780Y14206D01*
G01X19801Y14217D01*
G01X19820Y14231D01*
G01X19838Y14246D01*
G01X19855Y14263D01*
G01X19870Y14281D01*
G01X19884Y14300D01*
G01X19895Y14321D01*
G01X19905Y14343D01*
G01X19912Y14365D01*
G01X19918Y14388D01*
G01X19921Y14412D01*
G01X19922Y14435D01*
G01X19922Y14647D01*
G37*
G36*
G01X7662Y16185D02*
G01X7194Y16185D01*
G01X7194Y15999D01*
G01X7195Y15975D01*
G01X7198Y15951D01*
G01X7204Y15928D01*
G01X7211Y15906D01*
G01X7221Y15884D01*
G01X7232Y15863D01*
G01X7246Y15844D01*
G01X7261Y15826D01*
G01X7278Y15809D01*
G01X7296Y15794D01*
G01X7315Y15780D01*
G01X7336Y15769D01*
G01X7358Y15759D01*
G01X7380Y15752D01*
G01X7403Y15746D01*
G01X7427Y15743D01*
G01X7450Y15742D01*
G01X7662Y15742D01*
G01X7662Y16185D01*
G37*
G36*
G01X6902Y16185D02*
G01X6434Y16185D01*
G01X6434Y15742D01*
G01X6646Y15742D01*
G01X6669Y15743D01*
G01X6693Y15746D01*
G01X6716Y15752D01*
G01X6738Y15759D01*
G01X6760Y15769D01*
G01X6781Y15780D01*
G01X6800Y15794D01*
G01X6818Y15809D01*
G01X6835Y15826D01*
G01X6850Y15844D01*
G01X6864Y15863D01*
G01X6875Y15884D01*
G01X6885Y15906D01*
G01X6892Y15928D01*
G01X6898Y15951D01*
G01X6901Y15975D01*
G01X6902Y15998D01*
G01X6902Y16185D01*
G37*
G36*
G01X6902Y21287D02*
G01X6434Y21287D01*
G01X6434Y20844D01*
G01X6646Y20844D01*
G01X6669Y20845D01*
G01X6693Y20848D01*
G01X6716Y20854D01*
G01X6738Y20861D01*
G01X6760Y20871D01*
G01X6781Y20882D01*
G01X6800Y20896D01*
G01X6818Y20911D01*
G01X6835Y20928D01*
G01X6850Y20946D01*
G01X6864Y20965D01*
G01X6875Y20986D01*
G01X6885Y21008D01*
G01X6892Y21030D01*
G01X6898Y21053D01*
G01X6901Y21077D01*
G01X6902Y21101D01*
G01X6902Y21287D01*
G37*

%LPD*%
G36*
G01X15970Y20888D02*
G01X15948Y20888D01*
G01X15933Y20887D01*
G01X15917Y20883D01*
G01X15902Y20877D01*
G01X15889Y20869D01*
G01X15877Y20859D01*
G01X15828Y20810D01*
G01X15806Y20790D01*
G01X15782Y20771D01*
G01X15757Y20754D01*
G01X15731Y20740D01*
G01X15704Y20727D01*
G01X15676Y20717D01*
G01X15647Y20709D01*
G01X15617Y20703D01*
G01X15587Y20699D01*
G01X15557Y20698D01*
G01X15547Y20698D01*
G01X15532Y20697D01*
G01X15518Y20694D01*
G01X15504Y20689D01*
G01X15492Y20682D01*
G01X15480Y20673D01*
G01X15470Y20663D01*
G01X15461Y20651D01*
G01X15454Y20639D01*
G01X15449Y20625D01*
G01X15446Y20611D01*
G01X15445Y20596D01*
G01X15445Y20277D01*
G01X15002Y20277D01*
G01X15002Y20424D01*
G01X15001Y20438D01*
G01X14998Y20453D01*
G01X14993Y20466D01*
G01X14986Y20479D01*
G01X14977Y20491D01*
G01X14966Y20501D01*
G01X14954Y20510D01*
G01X14942Y20517D01*
G01X14928Y20522D01*
G01X14913Y20525D01*
G01X14878Y20530D01*
G01X14843Y20538D01*
G01X14817Y20542D01*
G01X14802Y20541D01*
G01X14788Y20538D01*
G01X14775Y20533D01*
G01X14762Y20526D01*
G01X14750Y20517D01*
G01X14740Y20507D01*
G01X14731Y20495D01*
G01X14724Y20482D01*
G01X14719Y20469D01*
G01X14716Y20455D01*
G01X14715Y20440D01*
G01X14715Y20252D01*
G01X14716Y20236D01*
G01X14720Y20221D01*
G01X14727Y20206D01*
G01X14735Y20192D01*
G01X14762Y20152D01*
G01X14786Y20111D01*
G01X14807Y20068D01*
G01X14821Y20033D01*
G01X14833Y19997D01*
G01X14843Y19961D01*
G01X14851Y19924D01*
G01X14857Y19887D01*
G01X14860Y19849D01*
G01X14861Y19812D01*
G01X14861Y19702D01*
G01X14862Y19687D01*
G01X14865Y19673D01*
G01X14870Y19659D01*
G01X14877Y19647D01*
G01X14886Y19635D01*
G01X14896Y19625D01*
G01X14908Y19616D01*
G01X14920Y19609D01*
G01X14934Y19604D01*
G01X14948Y19601D01*
G01X14963Y19600D01*
G01X15445Y19600D01*
G01X15445Y19132D01*
G01X15258Y19132D01*
G01X15234Y19133D01*
G01X15209Y19137D01*
G01X15185Y19143D01*
G01X15161Y19151D01*
G01X15139Y19162D01*
G01X15117Y19174D01*
G01X15097Y19189D01*
G01X15078Y19206D01*
G01X15062Y19224D01*
G01X15047Y19244D01*
G01X15036Y19257D01*
G01X15024Y19268D01*
G01X15010Y19276D01*
G01X14995Y19283D01*
G01X14979Y19287D01*
G01X14963Y19288D01*
G01X14948Y19287D01*
G01X14934Y19284D01*
G01X14920Y19279D01*
G01X14908Y19272D01*
G01X14896Y19263D01*
G01X14886Y19253D01*
G01X14877Y19242D01*
G01X14870Y19229D01*
G01X14865Y19215D01*
G01X14862Y19201D01*
G01X14861Y19187D01*
G01X14861Y18876D01*
G01X14862Y18861D01*
G01X14865Y18847D01*
G01X14870Y18833D01*
G01X14878Y18820D01*
G01X14887Y18808D01*
G01X14897Y18798D01*
G01X14909Y18789D01*
G01X14929Y18776D01*
G01X14948Y18760D01*
G01X14977Y18731D01*
G01X14991Y18722D01*
G01X15007Y18715D01*
G01X15023Y18711D01*
G01X15040Y18709D01*
G01X18235Y18709D01*
G01X18251Y18710D01*
G01X18267Y18714D01*
G01X18281Y18720D01*
G01X18295Y18729D01*
G01X18307Y18739D01*
G01X18379Y18811D01*
G01X18390Y18823D01*
G01X18398Y18837D01*
G01X18404Y18851D01*
G01X18408Y18867D01*
G01X18409Y18883D01*
G01X18409Y19727D01*
G01X18410Y19750D01*
G01X18413Y19774D01*
G01X18419Y19797D01*
G01X18427Y19820D01*
G01X18436Y19842D01*
G01X18448Y19863D01*
G01X18462Y19882D01*
G01X18477Y19901D01*
G01X18494Y19917D01*
G01X18506Y19930D01*
G01X18515Y19944D01*
G01X18522Y19959D01*
G01X18526Y19976D01*
G01X18528Y19993D01*
G01X18528Y20562D01*
G01X18529Y20602D01*
G01X18533Y20641D01*
G01X18539Y20680D01*
G01X18547Y20718D01*
G01X18558Y20756D01*
G01X18562Y20771D01*
G01X18563Y20787D01*
G01X18562Y20801D01*
G01X18559Y20815D01*
G01X18554Y20829D01*
G01X18547Y20842D01*
G01X18538Y20853D01*
G01X18528Y20864D01*
G01X18516Y20872D01*
G01X18503Y20879D01*
G01X18490Y20884D01*
G01X18476Y20887D01*
G01X18461Y20888D01*
G01X16457Y20888D01*
G01X16442Y20887D01*
G01X16428Y20884D01*
G01X16414Y20879D01*
G01X16402Y20872D01*
G01X16390Y20864D01*
G01X16380Y20853D01*
G01X16371Y20842D01*
G01X16364Y20829D01*
G01X16359Y20815D01*
G01X16356Y20801D01*
G01X16355Y20787D01*
G01X16356Y20770D01*
G01X16360Y20754D01*
G01X16367Y20739D01*
G01X16376Y20725D01*
G01X16387Y20713D01*
G01X16400Y20702D01*
G01X16419Y20689D01*
G01X16436Y20674D01*
G01X16452Y20657D01*
G01X16466Y20639D01*
G01X16479Y20620D01*
G01X16490Y20600D01*
G01X16499Y20578D01*
G01X16506Y20557D01*
G01X16511Y20534D01*
G01X16514Y20511D01*
G01X16515Y20489D01*
G01X16515Y20277D01*
G01X16072Y20277D01*
G01X16072Y20787D01*
G01X16071Y20801D01*
G01X16068Y20815D01*
G01X16063Y20829D01*
G01X16056Y20842D01*
G01X16047Y20853D01*
G01X16037Y20864D01*
G01X16025Y20872D01*
G01X16013Y20879D01*
G01X15999Y20884D01*
G01X15985Y20887D01*
G01X15970Y20888D01*
G37*

%LPC*%
G36*
G01X16515Y19600D02*
G01X16072Y19600D01*
G01X16072Y19132D01*
G01X16258Y19132D01*
G01X16282Y19133D01*
G01X16306Y19136D01*
G01X16329Y19142D01*
G01X16351Y19149D01*
G01X16373Y19159D01*
G01X16394Y19170D01*
G01X16413Y19184D01*
G01X16431Y19199D01*
G01X16448Y19216D01*
G01X16463Y19234D01*
G01X16477Y19253D01*
G01X16488Y19274D01*
G01X16498Y19296D01*
G01X16505Y19318D01*
G01X16511Y19341D01*
G01X16514Y19365D01*
G01X16515Y19388D01*
G01X16515Y19600D01*
G37*

%LPD*%
G36*
G01X15148Y16578D02*
G01X15132Y16579D01*
G01X15117Y16578D01*
G01X15103Y16575D01*
G01X15089Y16570D01*
G01X15077Y16563D01*
G01X15065Y16554D01*
G01X15055Y16544D01*
G01X15046Y16532D01*
G01X15039Y16520D01*
G01X15034Y16506D01*
G01X15031Y16492D01*
G01X15030Y16477D01*
G01X15030Y15972D01*
G01X15029Y15948D01*
G01X15026Y15924D01*
G01X15020Y15901D01*
G01X15013Y15879D01*
G01X15003Y15857D01*
G01X14992Y15837D01*
G01X14978Y15817D01*
G01X14963Y15799D01*
G01X14946Y15782D01*
G01X14928Y15767D01*
G01X14909Y15753D01*
G01X14888Y15742D01*
G01X14866Y15732D01*
G01X14844Y15725D01*
G01X14821Y15719D01*
G01X14797Y15716D01*
G01X14774Y15715D01*
G01X13673Y15715D01*
G01X13650Y15716D01*
G01X13626Y15719D01*
G01X13603Y15725D01*
G01X13581Y15732D01*
G01X13559Y15742D01*
G01X13538Y15753D01*
G01X13519Y15767D01*
G01X13501Y15782D01*
G01X13484Y15799D01*
G01X13469Y15817D01*
G01X13455Y15837D01*
G01X13444Y15857D01*
G01X13434Y15879D01*
G01X13427Y15901D01*
G01X13421Y15924D01*
G01X13418Y15948D01*
G01X13417Y15972D01*
G01X13417Y16039D01*
G01X13416Y16053D01*
G01X13413Y16067D01*
G01X13408Y16081D01*
G01X13401Y16094D01*
G01X13392Y16105D01*
G01X13382Y16116D01*
G01X13370Y16124D01*
G01X13358Y16131D01*
G01X13344Y16136D01*
G01X13330Y16139D01*
G01X13315Y16140D01*
G01X12449Y16140D01*
G01X12413Y16142D01*
G01X12403Y16143D01*
G01X12276Y16143D01*
G01X12261Y16142D01*
G01X12247Y16138D01*
G01X12233Y16133D01*
G01X12221Y16126D01*
G01X12209Y16118D01*
G01X12199Y16107D01*
G01X12190Y16096D01*
G01X12183Y16083D01*
G01X12178Y16070D01*
G01X12175Y16055D01*
G01X12174Y16041D01*
G01X12176Y16022D01*
G01X12180Y15992D01*
G01X12182Y15978D01*
G01X12186Y15964D01*
G01X12192Y15951D01*
G01X12200Y15938D01*
G01X12209Y15928D01*
G01X12220Y15918D01*
G01X12233Y15910D01*
G01X12246Y15904D01*
G01X12260Y15900D01*
G01X12275Y15898D01*
G01X12289Y15889D01*
G01X12304Y15882D01*
G01X12320Y15878D01*
G01X12337Y15877D01*
G01X12560Y15877D01*
G01X12577Y15878D01*
G01X12593Y15882D01*
G01X12608Y15889D01*
G01X12622Y15898D01*
G01X13005Y15898D01*
G01X13004Y15872D01*
G01X12999Y15846D01*
G01X12993Y15821D01*
G01X12989Y15805D01*
G01X12988Y15790D01*
G01X12989Y15774D01*
G01X12993Y15758D01*
G01X12999Y15743D01*
G01X13007Y15730D01*
G01X13018Y15718D01*
G01X13210Y15526D01*
G01X13222Y15515D01*
G01X13235Y15507D01*
G01X13250Y15501D01*
G01X13266Y15497D01*
G01X13281Y15496D01*
G01X16368Y15496D01*
G01X16385Y15498D01*
G01X16402Y15502D01*
G01X16418Y15509D01*
G01X16432Y15519D01*
G01X16454Y15535D01*
G01X16466Y15544D01*
G01X16476Y15554D01*
G01X16485Y15566D01*
G01X16491Y15579D01*
G01X16496Y15592D01*
G01X16499Y15606D01*
G01X16500Y15620D01*
G01X16499Y15635D01*
G01X16496Y15649D01*
G01X16491Y15662D01*
G01X16485Y15675D01*
G01X16476Y15687D01*
G01X16466Y15697D01*
G01X16454Y15706D01*
G01X16436Y15719D01*
G01X16418Y15734D01*
G01X16402Y15751D01*
G01X16387Y15769D01*
G01X16375Y15788D01*
G01X16364Y15809D01*
G01X16354Y15830D01*
G01X16347Y15852D01*
G01X16342Y15874D01*
G01X16339Y15897D01*
G01X16338Y15920D01*
G01X16338Y15935D01*
G01X16337Y15950D01*
G01X16334Y15964D01*
G01X16329Y15977D01*
G01X16322Y15990D01*
G01X16313Y16002D01*
G01X16303Y16012D01*
G01X16291Y16021D01*
G01X16279Y16028D01*
G01X16265Y16033D01*
G01X16251Y16036D01*
G01X16236Y16037D01*
G01X15875Y16037D01*
G01X15845Y16038D01*
G01X15815Y16042D01*
G01X15785Y16047D01*
G01X15756Y16056D01*
G01X15728Y16066D01*
G01X15701Y16079D01*
G01X15674Y16093D01*
G01X15649Y16110D01*
G01X15626Y16129D01*
G01X15604Y16149D01*
G01X15203Y16549D01*
G01X15191Y16560D01*
G01X15178Y16568D01*
G01X15163Y16574D01*
G01X15148Y16578D01*
G37*

%LPD*%
G54D10*
G01X10541Y11430D02*
G01X10033Y11430D01*
G01X8128Y13335D01*
G01X5715Y13335D01*
G01X3429Y11049D01*
G01X3429Y9652D01*
G01X2286Y8509D01*
G01X1905Y8509D01*
G01X9906Y13970D02*
G01X9017Y14859D01*
G01X5461Y14859D01*
G01X4191Y16129D01*
G01X4191Y17653D01*
G01X3175Y18669D01*
G01X1905Y18669D01*
G01X10160Y12192D02*
G01X9779Y12573D01*
G01X9652Y12573D01*
G01X8382Y13843D01*
G01X5334Y13843D01*
G01X2540Y11049D01*
G01X1905Y11049D01*
G01X10160Y13208D02*
G01X9652Y13208D01*
G01X8509Y14351D01*
G01X5207Y14351D01*
G01X3429Y16129D01*
G01X1905Y16129D01*
G01X1905Y18161D02*
G01X1905Y18669D01*
G01X16625Y13081D02*
G01X16002Y13081D01*
G01X14859Y14224D01*
G01X10800Y15674D02*
G01X10800Y15234D01*
G01X11430Y14605D01*
G01X14478Y14605D01*
G01X14859Y14224D01*
G01X10299Y15674D02*
G01X10299Y15100D01*
G01X11430Y13970D01*
G01X13589Y13970D01*
G01X13589Y13970D02*
G01X14134Y13424D01*
G01X14134Y12065D01*
G01X11549Y17599D02*
G01X12248Y18299D01*
G01X12248Y20701D01*
G01X12449Y16524D02*
G01X14171Y16524D01*
G01X14224Y16472D01*
G01X10549Y17599D02*
G01X9849Y18299D01*
G01X9849Y20701D01*
G01X14135Y9652D02*
G01X15278Y8509D01*
G01X17018Y8509D01*
G01X9648Y16024D02*
G01X9648Y15116D01*
G01X11557Y13081D01*
G01X12534Y12103D01*
G01X12534Y12065D01*
G01X12535Y9652D02*
G01X13805Y10922D01*
G01X16599Y10922D01*
G01X13805Y10922D02*
G01X12662Y12065D01*
G01X12534Y12065D01*
G01X18199Y10922D02*
G01X19685Y10922D01*
G01X22098Y8509D01*
G54D12*
G01X19177Y20574D02*
G01X19165Y20562D01*
G01X19165Y19177D01*
G01X12449Y17524D02*
G01X13208Y17780D01*
G01X14224Y18072D01*
G01X14224Y18072D02*
G01X19165Y18072D01*
G01X19165Y17018D01*
G01X18542Y18072D02*
G01X19165Y18695D01*
G01X19165Y19177D01*
G54D11*
G01X8001Y18299D02*
G01X8000Y18298D01*
G01X6096Y18298D01*
G54D12*
G01X9648Y17524D02*
G01X8874Y18299D01*
G01X8001Y18299D01*
G01X8001Y18299D02*
G01X8001Y19801D01*
G01X8001Y19801D02*
G01X6096Y19801D01*
G01X6096Y18298D02*
G01X6096Y19801D01*
G54D10*
G01X14224Y18072D02*
G01X15875Y16420D01*
G01X17145Y16420D01*
G54D11*
G01X19165Y17018D02*
G01X20966Y15217D01*
G01X20966Y14986D01*
G54D10*
G01X17145Y14820D02*
G01X16852Y15113D01*
G01X13081Y15113D01*
G01X12700Y15494D01*
G01X11938Y15494D01*
G01X11798Y15633D01*
G01X11798Y15674D01*
G54D11*
G01X19685Y8509D02*
G01X19685Y5969D01*
G54D10*
G01X24765Y18669D02*
G01X24765Y19177D01*
G01X21717Y22225D01*
G01X15875Y22225D01*
G01X14605Y23495D01*
G01X14605Y23749D01*
G01X12448Y16024D02*
G01X13058Y16024D01*
G01X13462Y15621D01*
G01X19166Y15621D01*
G01X19166Y14986D01*
G54D12*
G01X14224Y19812D02*
G01X14224Y18083D01*
G01X14235Y18072D01*
G54D10*
G01X4699Y9017D02*
G01X10287Y9017D01*
G01X11557Y7747D01*
G01X14986Y7747D01*
G01X16764Y5969D01*
G01X17145Y5969D01*
G01X24765Y10985D02*
G01X24384Y10985D01*
G01X23241Y12128D01*
G01X23241Y19939D01*
G01X21463Y21717D01*
G01X15748Y21717D01*
G01X15621Y21844D01*
G01X14224Y21844D01*
G01X24765Y8445D02*
G01X22733Y10477D01*
G01X22733Y19812D01*
G01X21272Y21272D01*
G01X15748Y21272D01*
G01X15557Y21082D01*
G01X14986Y21082D01*
G54D11*
G01X3729Y21924D02*
G01X5852Y19801D01*
G01X6096Y19801D01*
G01X3729Y21924D02*
G01X1905Y23749D01*
G36*
G01X13635Y9101D02*
G01X14635Y9101D01*
G01X14635Y10202D01*
G01X13635Y10202D01*
G01X13635Y9101D01*
G37*
G36*
G01X12035Y9101D02*
G01X13035Y9101D01*
G01X13035Y10202D01*
G01X12035Y10202D01*
G01X12035Y9101D01*
G37*
G36*
G01X17699Y10371D02*
G01X18699Y10371D01*
G01X18699Y11472D01*
G01X17699Y11472D01*
G01X17699Y10371D01*
G37*
G36*
G01X16099Y10371D02*
G01X17099Y10371D01*
G01X17099Y11472D01*
G01X16099Y11472D01*
G01X16099Y10371D01*
G37*
G36*
G01X13034Y12615D02*
G01X12034Y12615D01*
G01X12034Y11514D01*
G01X13034Y11514D01*
G01X13034Y12615D01*
G37*
G36*
G01X14634Y12615D02*
G01X13634Y12615D01*
G01X13634Y11514D01*
G01X14634Y11514D01*
G01X14634Y12615D01*
G37*
G36*
G01X5545Y18798D02*
G01X5545Y17798D01*
G01X6646Y17798D01*
G01X6646Y18798D01*
G01X5545Y18798D01*
G37*
G36*
G01X5545Y16998D02*
G01X5545Y15998D01*
G01X6646Y15998D01*
G01X6646Y16998D01*
G01X5545Y16998D01*
G37*
G36*
G01X8551Y19301D02*
G01X8551Y20301D01*
G01X7450Y20301D01*
G01X7450Y19301D01*
G01X8551Y19301D01*
G37*
G36*
G01X8551Y21101D02*
G01X8551Y22101D01*
G01X7450Y22101D01*
G01X7450Y21101D01*
G01X8551Y21101D01*
G37*
G36*
G01X6646Y19301D02*
G01X6646Y20301D01*
G01X5545Y20301D01*
G01X5545Y19301D01*
G01X6646Y19301D01*
G37*
G36*
G01X6646Y21101D02*
G01X6646Y22101D01*
G01X5545Y22101D01*
G01X5545Y21101D01*
G01X6646Y21101D01*
G37*
G36*
G01X21465Y17568D02*
G01X20465Y17568D01*
G01X20465Y16467D01*
G01X21465Y16467D01*
G01X21465Y17568D01*
G37*
G36*
G01X19665Y17568D02*
G01X18665Y17568D01*
G01X18665Y16467D01*
G01X19665Y16467D01*
G01X19665Y17568D01*
G37*
G36*
G01X18925Y13631D02*
G01X17925Y13631D01*
G01X17925Y12530D01*
G01X18925Y12530D01*
G01X18925Y13631D01*
G37*
G36*
G01X17125Y13631D02*
G01X16125Y13631D01*
G01X16125Y12530D01*
G01X17125Y12530D01*
G01X17125Y13631D01*
G37*
G36*
G01X21465Y19727D02*
G01X20465Y19727D01*
G01X20465Y18626D01*
G01X21465Y18626D01*
G01X21465Y19727D01*
G37*
G36*
G01X19665Y19727D02*
G01X18665Y19727D01*
G01X18665Y18626D01*
G01X19665Y18626D01*
G01X19665Y19727D01*
G37*
G36*
G01X18666Y14435D02*
G01X19666Y14435D01*
G01X19666Y15536D01*
G01X18666Y15536D01*
G01X18666Y14435D01*
G37*
G36*
G01X20466Y14435D02*
G01X21466Y14435D01*
G01X21466Y15536D01*
G01X20466Y15536D01*
G01X20466Y14435D01*
G37*
G36*
G01X16258Y20489D02*
G01X15258Y20489D01*
G01X15258Y19388D01*
G01X16258Y19388D01*
G01X16258Y20489D01*
G37*
G36*
G01X14458Y20489D02*
G01X13458Y20489D01*
G01X13458Y19388D01*
G01X14458Y19388D01*
G01X14458Y20489D01*
G37*
G36*
G01X8551Y15999D02*
G01X8551Y16999D01*
G01X7450Y16999D01*
G01X7450Y15999D01*
G01X8551Y15999D01*
G37*
G36*
G01X8551Y17799D02*
G01X8551Y18799D01*
G01X7450Y18799D01*
G01X7450Y17799D01*
G01X8551Y17799D01*
G37*
G36*
G01X11674Y15374D02*
G01X11924Y15374D01*
G01X11924Y15974D01*
G01X11674Y15974D01*
G01X11674Y15374D01*
G37*
G36*
G01X11174Y15374D02*
G01X11424Y15374D01*
G01X11424Y15974D01*
G01X11174Y15974D01*
G01X11174Y15374D01*
G37*
G36*
G01X10674Y15374D02*
G01X10924Y15374D01*
G01X10924Y15974D01*
G01X10674Y15974D01*
G01X10674Y15374D01*
G37*
G36*
G01X10174Y15374D02*
G01X10424Y15374D01*
G01X10424Y15974D01*
G01X10174Y15974D01*
G01X10174Y15374D01*
G37*
G36*
G01X9349Y16149D02*
G01X9349Y15899D01*
G01X9949Y15899D01*
G01X9949Y16149D01*
G01X9349Y16149D01*
G37*
G36*
G01X9349Y16649D02*
G01X9349Y16399D01*
G01X9949Y16399D01*
G01X9949Y16649D01*
G01X9349Y16649D01*
G37*
G36*
G01X9349Y17149D02*
G01X9349Y16899D01*
G01X9949Y16899D01*
G01X9949Y17149D01*
G01X9349Y17149D01*
G37*
G36*
G01X9348Y17649D02*
G01X9348Y17399D01*
G01X9948Y17399D01*
G01X9948Y17649D01*
G01X9348Y17649D01*
G37*
G36*
G01X10674Y18274D02*
G01X10424Y18274D01*
G01X10424Y16924D01*
G01X10674Y16924D01*
G01X10674Y18274D01*
G37*
G36*
G01X11173Y18274D02*
G01X10924Y18274D01*
G01X10924Y16574D01*
G01X11173Y16574D01*
G01X11173Y18274D01*
G37*
G36*
G01X11674Y18274D02*
G01X11424Y18274D01*
G01X11424Y16924D01*
G01X11674Y16924D01*
G01X11674Y18274D01*
G37*
G36*
G01X12749Y17399D02*
G01X12749Y17649D01*
G01X12149Y17649D01*
G01X12149Y17399D01*
G01X12749Y17399D01*
G37*
G36*
G01X12749Y16899D02*
G01X12749Y17149D01*
G01X12149Y17149D01*
G01X12149Y16899D01*
G01X12749Y16899D01*
G37*
G36*
G01X12749Y16399D02*
G01X12749Y16649D01*
G01X12149Y16649D01*
G01X12149Y16399D01*
G01X12749Y16399D01*
G37*
G36*
G01X12749Y15899D02*
G01X12749Y16149D01*
G01X12149Y16149D01*
G01X12149Y15899D01*
G01X12749Y15899D01*
G37*
G36*
G01X12149Y16899D02*
G01X12399Y16899D01*
G01X12399Y17649D01*
G01X12149Y17649D01*
G01X12149Y16899D01*
G37*
G36*
G01X9948Y17649D02*
G01X9698Y17649D01*
G01X9698Y16899D01*
G01X9948Y16899D01*
G01X9948Y17649D01*
G37*
G36*
G01X14774Y17572D02*
G01X14774Y18572D01*
G01X13673Y18572D01*
G01X13673Y17572D01*
G01X14774Y17572D01*
G37*
G36*
G01X14774Y15972D02*
G01X14774Y16972D01*
G01X13673Y16972D01*
G01X13673Y15972D01*
G01X14774Y15972D01*
G37*
G36*
G01X16594Y15320D02*
G01X16594Y14320D01*
G01X17695Y14320D01*
G01X17695Y15320D01*
G01X16594Y15320D01*
G37*
G36*
G01X16594Y16920D02*
G01X16594Y15920D01*
G01X17695Y15920D01*
G01X17695Y16920D01*
G01X16594Y16920D01*
G37*
G36*
G01X11648Y19101D02*
G01X12848Y19101D01*
G01X12848Y22300D01*
G01X11648Y22300D01*
G01X11648Y19101D01*
G37*
G36*
G01X9249Y19101D02*
G01X10449Y19101D01*
G01X10449Y22300D01*
G01X9249Y22300D01*
G01X9249Y19101D01*
G37*
G36*
G01X16245Y7609D02*
G01X18044Y7609D01*
G01X18044Y9408D01*
G01X16245Y9408D01*
G01X16245Y7609D01*
G37*
G54D21*
G01X19685Y8509D03*
G01X22225Y8509D03*
G01X17145Y5969D03*
G01X19685Y5969D03*
G54D20*
G01X22225Y5969D03*
G01X24765Y23749D03*
G54D21*
G01X24765Y21209D03*
G01X24765Y18669D03*
G01X24765Y16129D03*
G01X24765Y13589D03*
G01X24765Y11049D03*
G01X24765Y8509D03*
G01X24765Y5969D03*
G54D20*
G01X1905Y5969D03*
G54D21*
G01X1905Y8509D03*
G01X1905Y11049D03*
G01X1905Y13589D03*
G01X1905Y16129D03*
G01X1905Y18669D03*
G01X1905Y21209D03*
G01X1905Y23749D03*
G01X4445Y5969D03*
G01X6985Y5969D03*
G01X9525Y5969D03*
G54D20*
G01X12065Y5969D03*
G54D22*
G01X21945Y23749D03*
G01X19964Y23749D03*
G54D21*
G01X17145Y23749D03*
G01X14605Y23749D03*
G01X12065Y23749D03*
G01X9525Y23749D03*
G01X6985Y23749D03*
G54D20*
G01X4445Y23749D03*
G54D13*
G01X19177Y20574D03*
G54D14*
G01X14986Y21082D03*
G54D13*
G01X14224Y21844D03*
G01X4699Y9017D03*
G01X10160Y12192D03*
G01X10541Y11430D03*
G01X10160Y13208D03*
G01X9906Y13970D03*
G01X13843Y13843D03*
G54D14*
G01X17399Y19558D03*
G01X3729Y21924D03*
M00*
M02*
