G04 Layer: BottomPasteMaskLayer*
G04 EasyEDA v6.3.53, 2020-06-11T20:36:36+02:00*
G04 f86898c5f0de4d6e8d1821827ec38a2b,d798ca008b2c48fc9d28453cf4f639a5,10*
G04 Gerber Generator version 0.2*
G04 Scale: 100 percent, Rotated: No, Reflected: No *
G04 Dimensions in millimeters *
G04 leading zeros omitted , absolute positions ,3 integer and 3 decimal *
%FSLAX33Y33*%
%MOMM*%
G90*
G71D02*


%LPD*%
G36*
G01X13635Y9101D02*
G01X14635Y9101D01*
G01X14635Y10202D01*
G01X13635Y10202D01*
G01X13635Y9101D01*
G37*
G36*
G01X12035Y9101D02*
G01X13035Y9101D01*
G01X13035Y10202D01*
G01X12035Y10202D01*
G01X12035Y9101D01*
G37*
G36*
G01X17699Y10371D02*
G01X18699Y10371D01*
G01X18699Y11472D01*
G01X17699Y11472D01*
G01X17699Y10371D01*
G37*
G36*
G01X16099Y10371D02*
G01X17099Y10371D01*
G01X17099Y11472D01*
G01X16099Y11472D01*
G01X16099Y10371D01*
G37*
G36*
G01X13034Y12615D02*
G01X12034Y12615D01*
G01X12034Y11514D01*
G01X13034Y11514D01*
G01X13034Y12615D01*
G37*
G36*
G01X14634Y12615D02*
G01X13634Y12615D01*
G01X13634Y11514D01*
G01X14634Y11514D01*
G01X14634Y12615D01*
G37*
G36*
G01X5545Y18798D02*
G01X5545Y17798D01*
G01X6646Y17798D01*
G01X6646Y18798D01*
G01X5545Y18798D01*
G37*
G36*
G01X5545Y16998D02*
G01X5545Y15998D01*
G01X6646Y15998D01*
G01X6646Y16998D01*
G01X5545Y16998D01*
G37*
G36*
G01X8551Y19301D02*
G01X8551Y20301D01*
G01X7450Y20301D01*
G01X7450Y19301D01*
G01X8551Y19301D01*
G37*
G36*
G01X8551Y21101D02*
G01X8551Y22101D01*
G01X7450Y22101D01*
G01X7450Y21101D01*
G01X8551Y21101D01*
G37*
G36*
G01X6646Y19301D02*
G01X6646Y20301D01*
G01X5545Y20301D01*
G01X5545Y19301D01*
G01X6646Y19301D01*
G37*
G36*
G01X6646Y21101D02*
G01X6646Y22101D01*
G01X5545Y22101D01*
G01X5545Y21101D01*
G01X6646Y21101D01*
G37*
G36*
G01X21465Y17568D02*
G01X20465Y17568D01*
G01X20465Y16467D01*
G01X21465Y16467D01*
G01X21465Y17568D01*
G37*
G36*
G01X19665Y17568D02*
G01X18665Y17568D01*
G01X18665Y16467D01*
G01X19665Y16467D01*
G01X19665Y17568D01*
G37*
G36*
G01X18925Y13631D02*
G01X17925Y13631D01*
G01X17925Y12530D01*
G01X18925Y12530D01*
G01X18925Y13631D01*
G37*
G36*
G01X17125Y13631D02*
G01X16125Y13631D01*
G01X16125Y12530D01*
G01X17125Y12530D01*
G01X17125Y13631D01*
G37*
G36*
G01X21465Y19727D02*
G01X20465Y19727D01*
G01X20465Y18626D01*
G01X21465Y18626D01*
G01X21465Y19727D01*
G37*
G36*
G01X19665Y19727D02*
G01X18665Y19727D01*
G01X18665Y18626D01*
G01X19665Y18626D01*
G01X19665Y19727D01*
G37*
G36*
G01X18666Y14435D02*
G01X19666Y14435D01*
G01X19666Y15536D01*
G01X18666Y15536D01*
G01X18666Y14435D01*
G37*
G36*
G01X20466Y14435D02*
G01X21466Y14435D01*
G01X21466Y15536D01*
G01X20466Y15536D01*
G01X20466Y14435D01*
G37*
G36*
G01X16258Y20489D02*
G01X15258Y20489D01*
G01X15258Y19388D01*
G01X16258Y19388D01*
G01X16258Y20489D01*
G37*
G36*
G01X14458Y20489D02*
G01X13458Y20489D01*
G01X13458Y19388D01*
G01X14458Y19388D01*
G01X14458Y20489D01*
G37*
G36*
G01X8551Y15999D02*
G01X8551Y16999D01*
G01X7450Y16999D01*
G01X7450Y15999D01*
G01X8551Y15999D01*
G37*
G36*
G01X8551Y17799D02*
G01X8551Y18799D01*
G01X7450Y18799D01*
G01X7450Y17799D01*
G01X8551Y17799D01*
G37*
G36*
G01X11674Y15374D02*
G01X11924Y15374D01*
G01X11924Y15974D01*
G01X11674Y15974D01*
G01X11674Y15374D01*
G37*
G36*
G01X11174Y15374D02*
G01X11424Y15374D01*
G01X11424Y15974D01*
G01X11174Y15974D01*
G01X11174Y15374D01*
G37*
G36*
G01X10674Y15374D02*
G01X10924Y15374D01*
G01X10924Y15974D01*
G01X10674Y15974D01*
G01X10674Y15374D01*
G37*
G36*
G01X10174Y15374D02*
G01X10424Y15374D01*
G01X10424Y15974D01*
G01X10174Y15974D01*
G01X10174Y15374D01*
G37*
G36*
G01X9349Y16149D02*
G01X9349Y15899D01*
G01X9949Y15899D01*
G01X9949Y16149D01*
G01X9349Y16149D01*
G37*
G36*
G01X9349Y16649D02*
G01X9349Y16399D01*
G01X9949Y16399D01*
G01X9949Y16649D01*
G01X9349Y16649D01*
G37*
G36*
G01X9349Y17149D02*
G01X9349Y16899D01*
G01X9949Y16899D01*
G01X9949Y17149D01*
G01X9349Y17149D01*
G37*
G36*
G01X9348Y17649D02*
G01X9348Y17399D01*
G01X9948Y17399D01*
G01X9948Y17649D01*
G01X9348Y17649D01*
G37*
G36*
G01X10674Y18274D02*
G01X10424Y18274D01*
G01X10424Y16924D01*
G01X10674Y16924D01*
G01X10674Y18274D01*
G37*
G36*
G01X11173Y18274D02*
G01X10924Y18274D01*
G01X10924Y16574D01*
G01X11173Y16574D01*
G01X11173Y18274D01*
G37*
G36*
G01X11674Y18274D02*
G01X11424Y18274D01*
G01X11424Y16924D01*
G01X11674Y16924D01*
G01X11674Y18274D01*
G37*
G36*
G01X12749Y17399D02*
G01X12749Y17649D01*
G01X12149Y17649D01*
G01X12149Y17399D01*
G01X12749Y17399D01*
G37*
G36*
G01X12749Y16899D02*
G01X12749Y17149D01*
G01X12149Y17149D01*
G01X12149Y16899D01*
G01X12749Y16899D01*
G37*
G36*
G01X12749Y16399D02*
G01X12749Y16649D01*
G01X12149Y16649D01*
G01X12149Y16399D01*
G01X12749Y16399D01*
G37*
G36*
G01X12749Y15899D02*
G01X12749Y16149D01*
G01X12149Y16149D01*
G01X12149Y15899D01*
G01X12749Y15899D01*
G37*
G36*
G01X12149Y16899D02*
G01X12399Y16899D01*
G01X12399Y17649D01*
G01X12149Y17649D01*
G01X12149Y16899D01*
G37*
G36*
G01X9948Y17649D02*
G01X9698Y17649D01*
G01X9698Y16899D01*
G01X9948Y16899D01*
G01X9948Y17649D01*
G37*
G36*
G01X14774Y17572D02*
G01X14774Y18572D01*
G01X13673Y18572D01*
G01X13673Y17572D01*
G01X14774Y17572D01*
G37*
G36*
G01X14774Y15972D02*
G01X14774Y16972D01*
G01X13673Y16972D01*
G01X13673Y15972D01*
G01X14774Y15972D01*
G37*
G36*
G01X16594Y15320D02*
G01X16594Y14320D01*
G01X17695Y14320D01*
G01X17695Y15320D01*
G01X16594Y15320D01*
G37*
G36*
G01X16594Y16920D02*
G01X16594Y15920D01*
G01X17695Y15920D01*
G01X17695Y16920D01*
G01X16594Y16920D01*
G37*
G36*
G01X11648Y19101D02*
G01X12848Y19101D01*
G01X12848Y22300D01*
G01X11648Y22300D01*
G01X11648Y19101D01*
G37*
G36*
G01X9249Y19101D02*
G01X10449Y19101D01*
G01X10449Y22300D01*
G01X9249Y22300D01*
G01X9249Y19101D01*
G37*
M00*
M02*
