G04 Layer: TopSilkLayer*
G04 EasyEDA v6.3.53, 2020-06-11T20:36:36+02:00*
G04 f86898c5f0de4d6e8d1821827ec38a2b,d798ca008b2c48fc9d28453cf4f639a5,10*
G04 Gerber Generator version 0.2*
G04 Scale: 100 percent, Rotated: No, Reflected: No *
G04 Dimensions in millimeters *
G04 leading zeros omitted , absolute positions ,3 integer and 3 decimal *
%FSLAX33Y33*%
%MOMM*%
G90*
G71D02*

%ADD10C,0.254000*%
%ADD29C,0.203200*%
%ADD30C,0.152400*%
%ADD31C,0.202997*%

%LPD*%
G54D10*
G01X17145Y2159D02*
G01X17145Y-4191D01*
G01X19685Y2159D02*
G01X19685Y-4191D01*
G01X22225Y2159D02*
G01X22225Y-4191D01*
G01X23495Y2159D02*
G01X15875Y2159D01*
G01X15875Y4699D01*
G01X23495Y4699D01*
G01X23495Y2159D01*
G01X16955Y19244D02*
G01X16955Y19871D01*
G01X15556Y18058D02*
G01X15556Y18922D01*
G01X15556Y20193D02*
G01X15556Y21057D01*
G01X15556Y18058D02*
G01X16556Y18058D01*
G01X15556Y21057D02*
G01X16556Y21057D01*
G01X20003Y11751D02*
G01X20003Y12378D01*
G01X18604Y10565D02*
G01X18604Y11429D01*
G01X18604Y12700D02*
G01X18604Y13564D01*
G01X18604Y10565D02*
G01X19604Y10565D01*
G01X18604Y13564D02*
G01X19604Y13564D01*
G01X7950Y21590D02*
G01X6478Y21590D01*
G01X6478Y21590D01*
G01X4750Y21590D01*
G01X7949Y19304D02*
G01X4749Y19304D01*
G01X7949Y19304D02*
G01X7949Y19515D01*
G01X7949Y21378D02*
G01X7949Y21590D01*
G01X4749Y19304D02*
G01X4749Y19515D01*
G01X4749Y21378D02*
G01X4749Y21590D01*
G01X7039Y19304D02*
G01X7039Y21590D01*
G01X25984Y25268D02*
G01X25984Y4449D01*
G01X25984Y4449D02*
G01X23545Y4449D01*
G01X23545Y4449D02*
G01X23545Y25268D01*
G01X23545Y25268D02*
G01X25984Y25268D01*
G01X685Y4449D02*
G01X685Y25268D01*
G01X685Y25268D02*
G01X3124Y25268D01*
G01X3124Y25268D02*
G01X3124Y4449D01*
G01X3124Y4449D02*
G01X685Y4449D01*
G01X15278Y18440D02*
G01X13677Y18440D01*
G01X13683Y16590D02*
G01X13683Y15340D01*
G01X15283Y16590D02*
G01X15283Y15340D01*
G01X13677Y17190D02*
G01X13677Y18440D01*
G01X15278Y17190D02*
G01X15278Y18440D01*
G01X15283Y15340D02*
G01X13683Y15340D01*
G01X15074Y11150D02*
G01X16675Y11150D01*
G01X16669Y13000D02*
G01X16669Y14250D01*
G01X15069Y13000D02*
G01X15069Y14250D01*
G01X16675Y12400D02*
G01X16675Y11150D01*
G01X15074Y12400D02*
G01X15074Y11150D01*
G01X15069Y14250D02*
G01X16669Y14250D01*
G01X6163Y10505D02*
G01X11362Y10505D01*
G01X11362Y18704D02*
G01X11362Y18620D01*
G01X11362Y10589D02*
G01X11362Y10505D01*
G01X6163Y18704D02*
G01X6163Y18620D01*
G01X6163Y10589D02*
G01X6163Y10505D01*
G01X11362Y18704D02*
G01X9362Y18704D01*
G01X6163Y18704D02*
G01X8163Y18704D01*
G01X9525Y19846D02*
G01X9525Y21046D01*
G01X11575Y19646D02*
G01X12575Y19646D01*
G01X11575Y21247D02*
G01X12575Y21247D01*
G01X10775Y19646D02*
G01X9776Y19646D01*
G01X10775Y21247D02*
G01X9776Y21247D01*
G01X12826Y19846D02*
G01X12826Y21046D01*
G01X12626Y19646D02*
G01X12575Y19646D01*
G01X12625Y21247D02*
G01X12575Y21247D01*
G01X9725Y19646D02*
G01X9776Y19646D01*
G01X9726Y21247D02*
G01X9776Y21247D01*
G01X17399Y14258D02*
G01X17399Y15458D01*
G01X19449Y14058D02*
G01X20449Y14058D01*
G01X19449Y15659D02*
G01X20449Y15659D01*
G01X18649Y14058D02*
G01X17650Y14058D01*
G01X18649Y15659D02*
G01X17650Y15659D01*
G01X20700Y14258D02*
G01X20700Y15458D01*
G01X20500Y14058D02*
G01X20449Y14058D01*
G01X20499Y15659D02*
G01X20449Y15659D01*
G01X17599Y14058D02*
G01X17650Y14058D01*
G01X17600Y15659D02*
G01X17650Y15659D01*
G01X6985Y2159D02*
G01X6985Y-3841D01*
G01X9525Y2159D02*
G01X9525Y-3841D01*
G01X4445Y2159D02*
G01X4445Y-3841D01*
G01X12065Y2159D02*
G01X12065Y-3841D01*
G01X13335Y2159D02*
G01X3175Y2159D01*
G01X3175Y4699D01*
G01X13335Y4699D01*
G01X13335Y2159D01*
G01X23901Y21412D02*
G01X18059Y21412D01*
G01X18059Y21412D02*
G01X18059Y25908D01*
G01X18059Y25908D02*
G01X23901Y25908D01*
G01X23901Y25908D02*
G01X23901Y21412D01*
G01X4445Y27559D02*
G01X4445Y33559D01*
G01X6985Y27559D02*
G01X6985Y33559D01*
G01X9525Y27559D02*
G01X9525Y33559D01*
G01X12065Y27559D02*
G01X12065Y33559D01*
G01X14605Y27559D02*
G01X14605Y33559D01*
G01X17145Y27559D02*
G01X17145Y33559D01*
G01X3175Y27559D02*
G01X18415Y27559D01*
G01X18415Y24892D01*
G01X3175Y24892D01*
G01X3175Y27559D01*
G54D29*
G01X3683Y4312D02*
G01X3683Y3596D01*
G01X3683Y4312D02*
G01X3990Y4312D01*
G01X4091Y4279D01*
G01X4124Y4244D01*
G01X4160Y4175D01*
G01X4160Y4107D01*
G01X4124Y4041D01*
G01X4091Y4005D01*
G01X3990Y3972D01*
G01X3683Y3972D02*
G01X3990Y3972D01*
G01X4091Y3937D01*
G01X4124Y3903D01*
G01X4160Y3835D01*
G01X4160Y3733D01*
G01X4124Y3665D01*
G01X4091Y3632D01*
G01X3990Y3596D01*
G01X3683Y3596D01*
G01X4589Y4312D02*
G01X4488Y4279D01*
G01X4419Y4175D01*
G01X4384Y4005D01*
G01X4384Y3903D01*
G01X4419Y3733D01*
G01X4488Y3632D01*
G01X4589Y3596D01*
G01X4658Y3596D01*
G01X4759Y3632D01*
G01X4828Y3733D01*
G01X4861Y3903D01*
G01X4861Y4005D01*
G01X4828Y4175D01*
G01X4759Y4279D01*
G01X4658Y4312D01*
G01X4589Y4312D01*
G01X5087Y4175D02*
G01X5156Y4211D01*
G01X5257Y4312D01*
G01X5257Y3596D01*
G01X6096Y4312D02*
G01X6096Y3596D01*
G01X6096Y4312D02*
G01X6403Y4312D01*
G01X6504Y4279D01*
G01X6537Y4244D01*
G01X6573Y4175D01*
G01X6573Y4107D01*
G01X6537Y4041D01*
G01X6504Y4005D01*
G01X6403Y3972D01*
G01X6096Y3972D02*
G01X6403Y3972D01*
G01X6504Y3937D01*
G01X6537Y3903D01*
G01X6573Y3835D01*
G01X6573Y3733D01*
G01X6537Y3665D01*
G01X6504Y3632D01*
G01X6403Y3596D01*
G01X6096Y3596D01*
G01X7002Y4312D02*
G01X6901Y4279D01*
G01X6832Y4175D01*
G01X6797Y4005D01*
G01X6797Y3903D01*
G01X6832Y3733D01*
G01X6901Y3632D01*
G01X7002Y3596D01*
G01X7071Y3596D01*
G01X7172Y3632D01*
G01X7241Y3733D01*
G01X7274Y3903D01*
G01X7274Y4005D01*
G01X7241Y4175D01*
G01X7172Y4279D01*
G01X7071Y4312D01*
G01X7002Y4312D01*
G01X7533Y4142D02*
G01X7533Y4175D01*
G01X7569Y4244D01*
G01X7602Y4279D01*
G01X7670Y4312D01*
G01X7807Y4312D01*
G01X7876Y4279D01*
G01X7909Y4244D01*
G01X7942Y4175D01*
G01X7942Y4107D01*
G01X7909Y4041D01*
G01X7840Y3937D01*
G01X7500Y3596D01*
G01X7978Y3596D01*
G01X8907Y4312D02*
G01X8636Y3596D01*
G01X8907Y4312D02*
G01X9182Y3596D01*
G01X8737Y3835D02*
G01X9077Y3835D01*
G01X9611Y4312D02*
G01X9509Y4279D01*
G01X9441Y4175D01*
G01X9405Y4005D01*
G01X9405Y3903D01*
G01X9441Y3733D01*
G01X9509Y3632D01*
G01X9611Y3596D01*
G01X9679Y3596D01*
G01X9781Y3632D01*
G01X9850Y3733D01*
G01X9883Y3903D01*
G01X9883Y4005D01*
G01X9850Y4175D01*
G01X9781Y4279D01*
G01X9679Y4312D01*
G01X9611Y4312D01*
G01X10142Y4142D02*
G01X10142Y4175D01*
G01X10177Y4244D01*
G01X10210Y4279D01*
G01X10279Y4312D01*
G01X10416Y4312D01*
G01X10482Y4279D01*
G01X10518Y4244D01*
G01X10551Y4175D01*
G01X10551Y4107D01*
G01X10518Y4041D01*
G01X10449Y3937D01*
G01X10109Y3596D01*
G01X10586Y3596D01*
G01X11574Y4312D02*
G01X11303Y3596D01*
G01X11574Y4312D02*
G01X11849Y3596D01*
G01X11404Y3835D02*
G01X11744Y3835D01*
G01X12278Y4312D02*
G01X12176Y4279D01*
G01X12108Y4175D01*
G01X12072Y4005D01*
G01X12072Y3903D01*
G01X12108Y3733D01*
G01X12176Y3632D01*
G01X12278Y3596D01*
G01X12346Y3596D01*
G01X12448Y3632D01*
G01X12517Y3733D01*
G01X12550Y3903D01*
G01X12550Y4005D01*
G01X12517Y4175D01*
G01X12448Y4279D01*
G01X12346Y4312D01*
G01X12278Y4312D01*
G01X12776Y4175D02*
G01X12844Y4211D01*
G01X12946Y4312D01*
G01X12946Y3596D01*
G01X16764Y4175D02*
G01X16832Y4211D01*
G01X16934Y4312D01*
G01X16934Y3596D01*
G01X17569Y4312D02*
G01X17228Y4312D01*
G01X17193Y4005D01*
G01X17228Y4041D01*
G01X17330Y4074D01*
G01X17432Y4074D01*
G01X17533Y4041D01*
G01X17602Y3972D01*
G01X17637Y3868D01*
G01X17637Y3802D01*
G01X17602Y3698D01*
G01X17533Y3632D01*
G01X17432Y3596D01*
G01X17330Y3596D01*
G01X17228Y3632D01*
G01X17193Y3665D01*
G01X17160Y3733D01*
G01X18669Y4312D02*
G01X18940Y3596D01*
G01X19215Y4312D02*
G01X18940Y3596D01*
G01X19951Y4142D02*
G01X19916Y4211D01*
G01X19847Y4279D01*
G01X19781Y4312D01*
G01X19644Y4312D01*
G01X19575Y4279D01*
G01X19507Y4211D01*
G01X19474Y4142D01*
G01X19438Y4041D01*
G01X19438Y3868D01*
G01X19474Y3766D01*
G01X19507Y3698D01*
G01X19575Y3632D01*
G01X19644Y3596D01*
G01X19781Y3596D01*
G01X19847Y3632D01*
G01X19916Y3698D01*
G01X19951Y3766D01*
G01X20688Y4142D02*
G01X20652Y4211D01*
G01X20584Y4279D01*
G01X20515Y4312D01*
G01X20380Y4312D01*
G01X20312Y4279D01*
G01X20243Y4211D01*
G01X20210Y4142D01*
G01X20175Y4041D01*
G01X20175Y3868D01*
G01X20210Y3766D01*
G01X20243Y3698D01*
G01X20312Y3632D01*
G01X20380Y3596D01*
G01X20515Y3596D01*
G01X20584Y3632D01*
G01X20652Y3698D01*
G01X20688Y3766D01*
G01X21719Y4142D02*
G01X21686Y4211D01*
G01X21617Y4279D01*
G01X21549Y4312D01*
G01X21414Y4312D01*
G01X21346Y4279D01*
G01X21277Y4211D01*
G01X21242Y4142D01*
G01X21209Y4041D01*
G01X21209Y3868D01*
G01X21242Y3766D01*
G01X21277Y3698D01*
G01X21346Y3632D01*
G01X21414Y3596D01*
G01X21549Y3596D01*
G01X21617Y3632D01*
G01X21686Y3698D01*
G01X21719Y3766D01*
G01X21719Y3868D01*
G01X21549Y3868D02*
G01X21719Y3868D01*
G01X21945Y4312D02*
G01X21945Y3596D01*
G01X21945Y4312D02*
G01X22423Y3596D01*
G01X22423Y4312D02*
G01X22423Y3596D01*
G01X22646Y4312D02*
G01X22646Y3596D01*
G01X22646Y4312D02*
G01X22885Y4312D01*
G01X22989Y4279D01*
G01X23055Y4211D01*
G01X23091Y4142D01*
G01X23124Y4041D01*
G01X23124Y3868D01*
G01X23091Y3766D01*
G01X23055Y3698D01*
G01X22989Y3632D01*
G01X22885Y3596D01*
G01X22646Y3596D01*
G01X13695Y1308D02*
G01X14003Y762D01*
G01X14310Y1308D01*
G01X14003Y1531D02*
G01X14003Y2146D01*
G01X13832Y3304D02*
G01X14310Y3304D01*
G01X13934Y3304D02*
G01X13865Y3235D01*
G01X13832Y3169D01*
G01X13832Y3065D01*
G01X13865Y2997D01*
G01X13934Y2931D01*
G01X14038Y2895D01*
G01X14104Y2895D01*
G01X14208Y2931D01*
G01X14274Y2997D01*
G01X14310Y3065D01*
G01X14310Y3169D01*
G01X14274Y3235D01*
G01X14208Y3304D01*
G01X13832Y3530D02*
G01X14310Y3530D01*
G01X13970Y3530D02*
G01X13865Y3632D01*
G01X13832Y3700D01*
G01X13832Y3802D01*
G01X13865Y3870D01*
G01X13970Y3903D01*
G01X14310Y3903D01*
G01X13594Y4231D02*
G01X14173Y4231D01*
G01X14274Y4267D01*
G01X14310Y4335D01*
G01X14310Y4401D01*
G01X13832Y4130D02*
G01X13832Y4368D01*
G01X14038Y4627D02*
G01X14038Y5036D01*
G01X13970Y5036D01*
G01X13901Y5003D01*
G01X13865Y4968D01*
G01X13832Y4899D01*
G01X13832Y4798D01*
G01X13865Y4729D01*
G01X13934Y4660D01*
G01X14038Y4627D01*
G01X14104Y4627D01*
G01X14208Y4660D01*
G01X14274Y4729D01*
G01X14310Y4798D01*
G01X14310Y4899D01*
G01X14274Y4968D01*
G01X14208Y5036D01*
G01X13832Y5262D02*
G01X14310Y5262D01*
G01X13970Y5262D02*
G01X13865Y5364D01*
G01X13832Y5433D01*
G01X13832Y5534D01*
G01X13865Y5603D01*
G01X13970Y5636D01*
G01X14310Y5636D01*
G01X13832Y5862D02*
G01X14310Y5862D01*
G01X13970Y5862D02*
G01X13865Y5963D01*
G01X13832Y6032D01*
G01X13832Y6134D01*
G01X13865Y6202D01*
G01X13970Y6238D01*
G01X14310Y6238D01*
G01X13832Y6870D02*
G01X14310Y6870D01*
G01X13934Y6870D02*
G01X13865Y6802D01*
G01X13832Y6733D01*
G01X13832Y6631D01*
G01X13865Y6563D01*
G01X13934Y6497D01*
G01X14038Y6461D01*
G01X14104Y6461D01*
G01X14208Y6497D01*
G01X14274Y6563D01*
G01X14310Y6631D01*
G01X14310Y6733D01*
G01X14274Y6802D01*
G01X14208Y6870D01*
G01X16951Y10297D02*
G01X16918Y10195D01*
G01X16850Y10126D01*
G01X16748Y10091D01*
G01X16715Y10091D01*
G01X16611Y10126D01*
G01X16543Y10195D01*
G01X16510Y10297D01*
G01X16510Y10330D01*
G01X16543Y10434D01*
G01X16611Y10502D01*
G01X16715Y10535D01*
G01X16748Y10535D01*
G01X16850Y10502D01*
G01X16918Y10434D01*
G01X16951Y10297D01*
G01X16951Y10126D01*
G01X16918Y9956D01*
G01X16850Y9855D01*
G01X16748Y9819D01*
G01X16680Y9819D01*
G01X16578Y9855D01*
G01X16543Y9921D01*
G01X17178Y10535D02*
G01X17449Y9819D01*
G01X17724Y10535D02*
G01X17449Y9819D01*
G01X21998Y10535D02*
G01X21658Y10535D01*
G01X21623Y10228D01*
G01X21658Y10264D01*
G01X21760Y10297D01*
G01X21861Y10297D01*
G01X21965Y10264D01*
G01X22031Y10195D01*
G01X22067Y10091D01*
G01X22067Y10025D01*
G01X22031Y9921D01*
G01X21965Y9855D01*
G01X21861Y9819D01*
G01X21760Y9819D01*
G01X21658Y9855D01*
G01X21623Y9888D01*
G01X21590Y9956D01*
G01X22291Y10535D02*
G01X22565Y9819D01*
G01X22837Y10535D02*
G01X22565Y9819D01*
G01X4066Y25986D02*
G01X4033Y26055D01*
G01X3964Y26123D01*
G01X3896Y26156D01*
G01X3761Y26156D01*
G01X3693Y26123D01*
G01X3624Y26055D01*
G01X3589Y25986D01*
G01X3556Y25885D01*
G01X3556Y25712D01*
G01X3589Y25610D01*
G01X3624Y25542D01*
G01X3693Y25476D01*
G01X3761Y25440D01*
G01X3896Y25440D01*
G01X3964Y25476D01*
G01X4033Y25542D01*
G01X4066Y25610D01*
G01X4066Y25712D01*
G01X3896Y25712D02*
G01X4066Y25712D01*
G01X4292Y26156D02*
G01X4292Y25440D01*
G01X4292Y26156D02*
G01X4770Y25440D01*
G01X4770Y26156D02*
G01X4770Y25440D01*
G01X4993Y26156D02*
G01X4993Y25440D01*
G01X4993Y26156D02*
G01X5232Y26156D01*
G01X5336Y26123D01*
G01X5402Y26055D01*
G01X5438Y25986D01*
G01X5471Y25885D01*
G01X5471Y25712D01*
G01X5438Y25610D01*
G01X5402Y25542D01*
G01X5336Y25476D01*
G01X5232Y25440D01*
G01X4993Y25440D01*
G01X6477Y26156D02*
G01X6477Y25440D01*
G01X6477Y26156D02*
G01X6784Y26156D01*
G01X6885Y26123D01*
G01X6918Y26088D01*
G01X6954Y26019D01*
G01X6954Y25951D01*
G01X6918Y25885D01*
G01X6885Y25849D01*
G01X6784Y25816D01*
G01X6477Y25816D01*
G01X6715Y25816D02*
G01X6954Y25440D01*
G01X7178Y26156D02*
G01X7655Y25440D01*
G01X7655Y26156D02*
G01X7178Y25440D01*
G01X9001Y26156D02*
G01X9001Y25440D01*
G01X8763Y26156D02*
G01X9240Y26156D01*
G01X9464Y26156D02*
G01X9941Y25440D01*
G01X9941Y26156D02*
G01X9464Y25440D01*
G01X11117Y26156D02*
G01X11490Y26156D01*
G01X11287Y25885D01*
G01X11389Y25885D01*
G01X11457Y25849D01*
G01X11490Y25816D01*
G01X11526Y25712D01*
G01X11526Y25646D01*
G01X11490Y25542D01*
G01X11424Y25476D01*
G01X11320Y25440D01*
G01X11219Y25440D01*
G01X11117Y25476D01*
G01X11082Y25509D01*
G01X11049Y25577D01*
G01X11750Y26156D02*
G01X12024Y25440D01*
G01X12296Y26156D02*
G01X12024Y25440D01*
G01X12590Y26156D02*
G01X12964Y26156D01*
G01X12760Y25885D01*
G01X12862Y25885D01*
G01X12931Y25849D01*
G01X12964Y25816D01*
G01X12999Y25712D01*
G01X12999Y25646D01*
G01X12964Y25542D01*
G01X12895Y25476D01*
G01X12793Y25440D01*
G01X12692Y25440D01*
G01X12590Y25476D01*
G01X12555Y25509D01*
G01X12522Y25577D01*
G01X14556Y26156D02*
G01X14452Y26123D01*
G01X14384Y26019D01*
G01X14351Y25849D01*
G01X14351Y25747D01*
G01X14384Y25577D01*
G01X14452Y25476D01*
G01X14556Y25440D01*
G01X14622Y25440D01*
G01X14726Y25476D01*
G01X14792Y25577D01*
G01X14828Y25747D01*
G01X14828Y25849D01*
G01X14792Y26019D01*
G01X14726Y26123D01*
G01X14622Y26156D01*
G01X14556Y26156D01*
G01X16639Y25986D02*
G01X16606Y26055D01*
G01X16537Y26123D01*
G01X16469Y26156D01*
G01X16334Y26156D01*
G01X16266Y26123D01*
G01X16197Y26055D01*
G01X16162Y25986D01*
G01X16129Y25885D01*
G01X16129Y25712D01*
G01X16162Y25610D01*
G01X16197Y25542D01*
G01X16266Y25476D01*
G01X16334Y25440D01*
G01X16469Y25440D01*
G01X16537Y25476D01*
G01X16606Y25542D01*
G01X16639Y25610D01*
G01X16639Y25712D01*
G01X16469Y25712D02*
G01X16639Y25712D01*
G01X16865Y26156D02*
G01X16865Y25440D01*
G01X16865Y26156D02*
G01X17343Y25440D01*
G01X17343Y26156D02*
G01X17343Y25440D01*
G01X17566Y26156D02*
G01X17566Y25440D01*
G01X17566Y26156D02*
G01X17805Y26156D01*
G01X17909Y26123D01*
G01X17975Y26055D01*
G01X18011Y25986D01*
G01X18044Y25885D01*
G01X18044Y25712D01*
G01X18011Y25610D01*
G01X17975Y25542D01*
G01X17909Y25476D01*
G01X17805Y25440D01*
G01X17566Y25440D01*
G01X15387Y8724D02*
G01X15079Y9271D01*
G01X14772Y8724D01*
G01X15079Y8501D02*
G01X15079Y7886D01*
G01X15387Y6659D02*
G01X15455Y6728D01*
G01X15488Y6830D01*
G01X15488Y6967D01*
G01X15455Y7068D01*
G01X15387Y7137D01*
G01X15318Y7137D01*
G01X15250Y7101D01*
G01X15217Y7068D01*
G01X15181Y7000D01*
G01X15113Y6797D01*
G01X15079Y6728D01*
G01X15044Y6692D01*
G01X14978Y6659D01*
G01X14874Y6659D01*
G01X14808Y6728D01*
G01X14772Y6830D01*
G01X14772Y6967D01*
G01X14808Y7068D01*
G01X14874Y7137D01*
G01X15488Y6433D02*
G01X14772Y6433D01*
G01X15488Y6433D02*
G01X15488Y6195D01*
G01X15455Y6093D01*
G01X15387Y6024D01*
G01X15318Y5991D01*
G01X15217Y5956D01*
G01X15044Y5956D01*
G01X14942Y5991D01*
G01X14874Y6024D01*
G01X14808Y6093D01*
G01X14772Y6195D01*
G01X14772Y6433D01*
G01X15148Y4798D02*
G01X15217Y4866D01*
G01X15250Y4935D01*
G01X15250Y5036D01*
G01X15217Y5105D01*
G01X15148Y5173D01*
G01X15044Y5207D01*
G01X14978Y5207D01*
G01X14874Y5173D01*
G01X14808Y5105D01*
G01X14772Y5036D01*
G01X14772Y4935D01*
G01X14808Y4866D01*
G01X14874Y4798D01*
G01X15250Y4163D02*
G01X14772Y4163D01*
G01X15148Y4163D02*
G01X15217Y4231D01*
G01X15250Y4300D01*
G01X15250Y4401D01*
G01X15217Y4470D01*
G01X15148Y4538D01*
G01X15044Y4574D01*
G01X14978Y4574D01*
G01X14874Y4538D01*
G01X14808Y4470D01*
G01X14772Y4401D01*
G01X14772Y4300D01*
G01X14808Y4231D01*
G01X14874Y4163D01*
G01X15250Y3939D02*
G01X14772Y3939D01*
G01X15044Y3939D02*
G01X15148Y3903D01*
G01X15217Y3837D01*
G01X15250Y3769D01*
G01X15250Y3665D01*
G01X15488Y3032D02*
G01X14772Y3032D01*
G01X15148Y3032D02*
G01X15217Y3101D01*
G01X15250Y3169D01*
G01X15250Y3271D01*
G01X15217Y3340D01*
G01X15148Y3406D01*
G01X15044Y3441D01*
G01X14978Y3441D01*
G01X14874Y3406D01*
G01X14808Y3340D01*
G01X14772Y3271D01*
G01X14772Y3169D01*
G01X14808Y3101D01*
G01X14874Y3032D01*
G01X762Y26283D02*
G01X1033Y25567D01*
G01X1308Y26283D02*
G01X1033Y25567D01*
G01X2044Y26113D02*
G01X2009Y26182D01*
G01X1940Y26250D01*
G01X1874Y26283D01*
G01X1737Y26283D01*
G01X1668Y26250D01*
G01X1600Y26182D01*
G01X1567Y26113D01*
G01X1531Y26012D01*
G01X1531Y25839D01*
G01X1567Y25737D01*
G01X1600Y25669D01*
G01X1668Y25603D01*
G01X1737Y25567D01*
G01X1874Y25567D01*
G01X1940Y25603D01*
G01X2009Y25669D01*
G01X2044Y25737D01*
G01X2781Y26113D02*
G01X2745Y26182D01*
G01X2677Y26250D01*
G01X2608Y26283D01*
G01X2473Y26283D01*
G01X2405Y26250D01*
G01X2336Y26182D01*
G01X2303Y26113D01*
G01X2268Y26012D01*
G01X2268Y25839D01*
G01X2303Y25737D01*
G01X2336Y25669D01*
G01X2405Y25603D01*
G01X2473Y25567D01*
G01X2608Y25567D01*
G01X2677Y25603D01*
G01X2745Y25669D01*
G01X2781Y25737D01*
G01X24325Y26283D02*
G01X24698Y26283D01*
G01X24495Y26012D01*
G01X24597Y26012D01*
G01X24665Y25976D01*
G01X24698Y25943D01*
G01X24734Y25839D01*
G01X24734Y25773D01*
G01X24698Y25669D01*
G01X24632Y25603D01*
G01X24528Y25567D01*
G01X24427Y25567D01*
G01X24325Y25603D01*
G01X24290Y25636D01*
G01X24257Y25704D01*
G01X24958Y26283D02*
G01X25232Y25567D01*
G01X25504Y26283D02*
G01X25232Y25567D01*
G01X25798Y26283D02*
G01X26172Y26283D01*
G01X25968Y26012D01*
G01X26070Y26012D01*
G01X26139Y25976D01*
G01X26172Y25943D01*
G01X26207Y25839D01*
G01X26207Y25773D01*
G01X26172Y25669D01*
G01X26103Y25603D01*
G01X26001Y25567D01*
G01X25900Y25567D01*
G01X25798Y25603D01*
G01X25763Y25636D01*
G01X25730Y25704D01*
G01X21592Y26748D02*
G01X21559Y26817D01*
G01X21490Y26885D01*
G01X21422Y26918D01*
G01X21287Y26918D01*
G01X21219Y26885D01*
G01X21150Y26817D01*
G01X21115Y26748D01*
G01X21082Y26647D01*
G01X21082Y26474D01*
G01X21115Y26372D01*
G01X21150Y26304D01*
G01X21219Y26238D01*
G01X21287Y26202D01*
G01X21422Y26202D01*
G01X21490Y26238D01*
G01X21559Y26304D01*
G01X21592Y26372D01*
G01X21592Y26474D01*
G01X21422Y26474D02*
G01X21592Y26474D01*
G01X21818Y26918D02*
G01X21818Y26202D01*
G01X21818Y26918D02*
G01X22296Y26202D01*
G01X22296Y26918D02*
G01X22296Y26202D01*
G01X22519Y26918D02*
G01X22519Y26202D01*
G01X22519Y26918D02*
G01X22758Y26918D01*
G01X22862Y26885D01*
G01X22928Y26817D01*
G01X22964Y26748D01*
G01X22997Y26647D01*
G01X22997Y26474D01*
G01X22964Y26372D01*
G01X22928Y26304D01*
G01X22862Y26238D01*
G01X22758Y26202D01*
G01X22519Y26202D01*
G01X4790Y8343D02*
G01X4732Y8455D01*
G01X4617Y8569D01*
G01X4505Y8628D01*
G01X4277Y8628D01*
G01X4163Y8569D01*
G01X4051Y8455D01*
G01X3992Y8343D01*
G01X3937Y8173D01*
G01X3937Y7889D01*
G01X3992Y7719D01*
G01X4051Y7604D01*
G01X4163Y7490D01*
G01X4277Y7434D01*
G01X4505Y7434D01*
G01X4617Y7490D01*
G01X4732Y7604D01*
G01X4790Y7719D01*
G01X5278Y8628D02*
G01X5902Y8628D01*
G01X5562Y8173D01*
G01X5732Y8173D01*
G01X5847Y8115D01*
G01X5902Y8059D01*
G01X5958Y7889D01*
G01X5958Y7774D01*
G01X5902Y7604D01*
G01X5788Y7490D01*
G01X5618Y7434D01*
G01X5448Y7434D01*
G01X5278Y7490D01*
G01X5222Y7548D01*
G01X5163Y7660D01*
G01X6334Y7945D02*
G01X7358Y7945D01*
G01X7731Y8628D02*
G01X7731Y7434D01*
G01X7731Y8628D02*
G01X8244Y8628D01*
G01X8415Y8569D01*
G01X8470Y8514D01*
G01X8526Y8399D01*
G01X8526Y8229D01*
G01X8470Y8115D01*
G01X8415Y8059D01*
G01X8244Y8003D01*
G01X7731Y8003D01*
G01X8902Y8628D02*
G01X8902Y7434D01*
G01X8902Y8628D02*
G01X9413Y8628D01*
G01X9585Y8569D01*
G01X9641Y8514D01*
G01X9697Y8399D01*
G01X9697Y8285D01*
G01X9641Y8173D01*
G01X9585Y8115D01*
G01X9413Y8059D01*
G01X8902Y8059D01*
G01X9301Y8059D02*
G01X9697Y7434D01*
G01X10947Y8229D02*
G01X10947Y7434D01*
G01X10947Y7889D02*
G01X11005Y8059D01*
G01X11117Y8173D01*
G01X11231Y8229D01*
G01X11402Y8229D01*
G01X11833Y7719D02*
G01X11777Y7660D01*
G01X11833Y7604D01*
G01X11892Y7660D01*
G01X11833Y7719D01*
G01X12265Y8399D02*
G01X12379Y8455D01*
G01X12550Y8628D01*
G01X12550Y7434D01*
G01X22034Y11757D02*
G01X22362Y11176D01*
G01X22689Y11757D01*
G01X22362Y11998D02*
G01X22362Y12651D01*
G01X22179Y13451D02*
G01X22943Y13451D01*
G01X22288Y13451D02*
G01X22217Y13525D01*
G01X22179Y13596D01*
G01X22179Y13705D01*
G01X22217Y13779D01*
G01X22288Y13853D01*
G01X22397Y13888D01*
G01X22471Y13888D01*
G01X22580Y13853D01*
G01X22654Y13779D01*
G01X22689Y13705D01*
G01X22689Y13596D01*
G01X22654Y13525D01*
G01X22580Y13451D01*
G01X21925Y14127D02*
G01X22689Y14127D01*
G01X22179Y14767D02*
G01X22689Y14368D01*
G01X22179Y14368D02*
G01X22179Y14767D01*
G01X22689Y14368D02*
G01X22689Y14767D01*
G01X21925Y15714D02*
G01X21960Y15750D01*
G01X21925Y15786D01*
G01X21889Y15750D01*
G01X21925Y15714D01*
G01X22179Y15750D02*
G01X22799Y15750D01*
G01X22908Y15714D01*
G01X22943Y15641D01*
G01X22943Y15567D01*
G01X22179Y16027D02*
G01X22545Y16027D01*
G01X22654Y16062D01*
G01X22689Y16136D01*
G01X22689Y16245D01*
G01X22654Y16316D01*
G01X22545Y16426D01*
G01X22179Y16426D02*
G01X22689Y16426D01*
G01X22179Y16667D02*
G01X22689Y16667D01*
G01X22326Y16667D02*
G01X22217Y16776D01*
G01X22179Y16847D01*
G01X22179Y16957D01*
G01X22217Y17030D01*
G01X22326Y17066D01*
G01X22689Y17066D01*
G01X22326Y17066D02*
G01X22217Y17175D01*
G01X22179Y17249D01*
G01X22179Y17358D01*
G01X22217Y17429D01*
G01X22326Y17467D01*
G01X22689Y17467D01*
G01X22179Y17706D02*
G01X22943Y17706D01*
G01X22288Y17706D02*
G01X22217Y17780D01*
G01X22179Y17851D01*
G01X22179Y17960D01*
G01X22217Y18034D01*
G01X22288Y18107D01*
G01X22397Y18143D01*
G01X22471Y18143D01*
G01X22580Y18107D01*
G01X22654Y18034D01*
G01X22689Y17960D01*
G01X22689Y17851D01*
G01X22654Y17780D01*
G01X22580Y17706D01*
G01X22397Y18384D02*
G01X22397Y18818D01*
G01X22326Y18818D01*
G01X22252Y18783D01*
G01X22217Y18747D01*
G01X22179Y18674D01*
G01X22179Y18564D01*
G01X22217Y18491D01*
G01X22288Y18420D01*
G01X22397Y18384D01*
G01X22471Y18384D01*
G01X22580Y18420D01*
G01X22654Y18491D01*
G01X22689Y18564D01*
G01X22689Y18674D01*
G01X22654Y18747D01*
G01X22580Y18818D01*
G01X22179Y19060D02*
G01X22689Y19060D01*
G01X22397Y19060D02*
G01X22288Y19095D01*
G01X22217Y19169D01*
G01X22179Y19240D01*
G01X22179Y19349D01*
G54D30*
G01X18600Y20076D02*
G01X18496Y20025D01*
G01X18392Y19921D01*
G01X18338Y19817D01*
G01X18288Y19659D01*
G01X18288Y19400D01*
G01X18338Y19245D01*
G01X18392Y19141D01*
G01X18496Y19037D01*
G01X18600Y18986D01*
G01X18808Y18986D01*
G01X18910Y19037D01*
G01X19014Y19141D01*
G01X19067Y19245D01*
G01X19118Y19400D01*
G01X19118Y19659D01*
G01X19067Y19817D01*
G01X19014Y19921D01*
G01X18910Y20025D01*
G01X18808Y20076D01*
G01X18600Y20076D01*
G01X18755Y19192D02*
G01X19067Y18882D01*
G01X19565Y20076D02*
G01X20137Y20076D01*
G01X19824Y19659D01*
G01X19982Y19659D01*
G01X20086Y19608D01*
G01X20137Y19558D01*
G01X20190Y19400D01*
G01X20190Y19296D01*
G01X20137Y19141D01*
G01X20032Y19037D01*
G01X19878Y18986D01*
G01X19723Y18986D01*
G01X19565Y19037D01*
G01X19514Y19088D01*
G01X19461Y19192D01*
G01X18658Y11234D02*
G01X18709Y11130D01*
G01X18813Y11026D01*
G01X18917Y10972D01*
G01X19075Y10922D01*
G01X19334Y10922D01*
G01X19489Y10972D01*
G01X19593Y11026D01*
G01X19697Y11130D01*
G01X19748Y11234D01*
G01X19748Y11442D01*
G01X19697Y11544D01*
G01X19593Y11648D01*
G01X19489Y11701D01*
G01X19334Y11752D01*
G01X19075Y11752D01*
G01X18917Y11701D01*
G01X18813Y11648D01*
G01X18709Y11544D01*
G01X18658Y11442D01*
G01X18658Y11234D01*
G01X19542Y11389D02*
G01X19852Y11701D01*
G01X18658Y12616D02*
G01X19385Y12095D01*
G01X19385Y12875D01*
G01X18658Y12616D02*
G01X19748Y12616D01*
G01X6459Y20187D02*
G01X6512Y20083D01*
G01X6616Y19979D01*
G01X6718Y19928D01*
G01X6926Y19928D01*
G01X7030Y19979D01*
G01X7134Y20083D01*
G01X7188Y20187D01*
G01X7239Y20345D01*
G01X7239Y20604D01*
G01X7188Y20759D01*
G01X7134Y20863D01*
G01X7030Y20967D01*
G01X6926Y21018D01*
G01X6718Y21018D01*
G01X6616Y20967D01*
G01X6512Y20863D01*
G01X6459Y20759D01*
G01X6012Y19928D02*
G01X5440Y19928D01*
G01X5753Y20345D01*
G01X5598Y20345D01*
G01X5494Y20396D01*
G01X5440Y20447D01*
G01X5389Y20604D01*
G01X5389Y20708D01*
G01X5440Y20863D01*
G01X5544Y20967D01*
G01X5702Y21018D01*
G01X5857Y21018D01*
G01X6012Y20967D01*
G01X6065Y20916D01*
G01X6116Y20812D01*
G01X16647Y17018D02*
G01X15557Y17018D01*
G01X16647Y17018D02*
G01X16647Y16550D01*
G01X16596Y16395D01*
G01X16543Y16342D01*
G01X16438Y16291D01*
G01X16334Y16291D01*
G01X16230Y16342D01*
G01X16179Y16395D01*
G01X16129Y16550D01*
G01X16129Y17018D01*
G01X16129Y16654D02*
G01X15557Y16291D01*
G01X16438Y15948D02*
G01X16492Y15844D01*
G01X16647Y15687D01*
G01X15557Y15687D01*
G01X13705Y11176D02*
G01X14795Y11176D01*
G01X13705Y11176D02*
G01X13705Y11643D01*
G01X13756Y11798D01*
G01X13809Y11851D01*
G01X13914Y11902D01*
G01X14018Y11902D01*
G01X14122Y11851D01*
G01X14173Y11798D01*
G01X14224Y11643D01*
G01X14224Y11176D01*
G01X14224Y11539D02*
G01X14795Y11902D01*
G01X13705Y12766D02*
G01X14432Y12245D01*
G01X14432Y13025D01*
G01X13705Y12766D02*
G01X14795Y12766D01*
G01X7747Y10170D02*
G01X7747Y9390D01*
G01X7797Y9235D01*
G01X7901Y9131D01*
G01X8059Y9080D01*
G01X8163Y9080D01*
G01X8318Y9131D01*
G01X8422Y9235D01*
G01X8473Y9390D01*
G01X8473Y10170D01*
G01X8816Y9961D02*
G01X8920Y10015D01*
G01X9077Y10170D01*
G01X9077Y9080D01*
G01X13825Y20060D02*
G01X13878Y19956D01*
G01X13982Y19852D01*
G01X14084Y19801D01*
G01X14292Y19801D01*
G01X14396Y19852D01*
G01X14500Y19956D01*
G01X14554Y20060D01*
G01X14605Y20218D01*
G01X14605Y20477D01*
G01X14554Y20632D01*
G01X14500Y20736D01*
G01X14396Y20840D01*
G01X14292Y20891D01*
G01X14084Y20891D01*
G01X13982Y20840D01*
G01X13878Y20736D01*
G01X13825Y20632D01*
G01X13482Y20010D02*
G01X13378Y19956D01*
G01X13223Y19801D01*
G01X13223Y20891D01*
G01X19159Y16377D02*
G01X19212Y16273D01*
G01X19316Y16169D01*
G01X19418Y16118D01*
G01X19626Y16118D01*
G01X19730Y16169D01*
G01X19834Y16273D01*
G01X19888Y16377D01*
G01X19939Y16535D01*
G01X19939Y16794D01*
G01X19888Y16949D01*
G01X19834Y17053D01*
G01X19730Y17157D01*
G01X19626Y17208D01*
G01X19418Y17208D01*
G01X19316Y17157D01*
G01X19212Y17053D01*
G01X19159Y16949D01*
G01X18765Y16377D02*
G01X18765Y16327D01*
G01X18712Y16222D01*
G01X18661Y16169D01*
G01X18557Y16118D01*
G01X18348Y16118D01*
G01X18244Y16169D01*
G01X18194Y16222D01*
G01X18140Y16327D01*
G01X18140Y16431D01*
G01X18194Y16535D01*
G01X18298Y16690D01*
G01X18816Y17208D01*
G01X18089Y17208D01*
G01X23114Y20182D02*
G01X23114Y20962D01*
G01X23063Y21117D01*
G01X22959Y21221D01*
G01X22801Y21272D01*
G01X22697Y21272D01*
G01X22542Y21221D01*
G01X22438Y21117D01*
G01X22387Y20962D01*
G01X22387Y20182D01*
G01X21940Y20182D02*
G01X21369Y20182D01*
G01X21678Y20599D01*
G01X21523Y20599D01*
G01X21419Y20650D01*
G01X21369Y20701D01*
G01X21315Y20858D01*
G01X21315Y20962D01*
G01X21369Y21117D01*
G01X21473Y21221D01*
G01X21628Y21272D01*
G01X21783Y21272D01*
G01X21940Y21221D01*
G01X21991Y21170D01*
G01X22044Y21066D01*
G54D31*
G01X18923Y26969D02*
G01X19215Y26205D01*
G01X19504Y26969D02*
G01X19215Y26205D01*
G01X19745Y26969D02*
G01X19745Y26205D01*
G01X19984Y26969D02*
G01X19984Y26205D01*
G01X19984Y26969D02*
G01X20492Y26205D01*
G01X20492Y26969D02*
G01X20492Y26205D01*
G54D30*
G01X10668Y35062D02*
G01X10668Y33972D01*
G01X11394Y35062D02*
G01X11394Y33972D01*
G01X10668Y34544D02*
G01X11394Y34544D01*
G01X12362Y34907D02*
G01X12308Y35011D01*
G01X12153Y35062D01*
G01X12049Y35062D01*
G01X11894Y35011D01*
G01X11790Y34853D01*
G01X11737Y34594D01*
G01X11737Y34335D01*
G01X11790Y34127D01*
G01X11894Y34023D01*
G01X12049Y33972D01*
G01X12103Y33972D01*
G01X12258Y34023D01*
G01X12362Y34127D01*
G01X12412Y34282D01*
G01X12412Y34335D01*
G01X12362Y34490D01*
G01X12258Y34594D01*
G01X12103Y34645D01*
G01X12049Y34645D01*
G01X11894Y34594D01*
G01X11790Y34490D01*
G01X11737Y34335D01*
G54D10*
G75*
G01X9363Y18705D02*
G02X8162Y18706I-600J0D01*
G01*
G75*
G01X12826Y19847D02*
G02X12626Y19647I-200J0D01*
G01*
G75*
G01X12826Y21047D02*
G03X12626Y21247I-200J0D01*
G01*
G75*
G01X9526Y19847D02*
G03X9726Y19647I200J0D01*
G01*
G75*
G01X9526Y21047D02*
G02X9726Y21247I200J0D01*
G01*
G75*
G01X20700Y14259D02*
G02X20500Y14059I-200J0D01*
G01*
G75*
G01X20700Y15459D02*
G03X20500Y15659I-200J0D01*
G01*
G75*
G01X17400Y14259D02*
G03X17600Y14059I200J0D01*
G01*
G75*
G01X17400Y15459D02*
G02X17600Y15659I200J0D01*
G01*
G75*
G01X7252Y18110D02*
G03X7252Y18110I-254J0D01*
G01*
G75*
G01X5217Y18669D02*
G03X5217Y18669I-10J0D01*
G01*
M00*
M02*
