;Layer: Drill PTH
;EasyEDA v6.3.53, 2020-06-11T20:36:36+02:00
;f86898c5f0de4d6e8d1821827ec38a2b,d798ca008b2c48fc9d28453cf4f639a5,10
;Gerber Generator version 0.2
M48
METRIC,LZ,000.000
;Holesize 1 = 0.305 METRIC
T01C0.305
;Holesize 2 = 0.306 METRIC
T02C0.306
;Holesize 3 = 0.798 METRIC
T03C0.798
;Holesize 4 = 1.101 METRIC
T04C1.101
;Holesize 5 = 1.200 METRIC
T05C1.200
%
G05
G90
T01
X+019177Y+020574
X+014224Y+021844
X+004699Y+009017
X+010160Y+012192
X+010541Y+011430
X+010160Y+013208
X+009906Y+013970
X+013843Y+013843
X+017399Y+019558
T02
X+014986Y+021082
X+003729Y+021924
T03
X+021945Y+023749
X+019964Y+023749
T04
X+017145Y+005969
X+019685Y+005969
X+022225Y+005969
X+004445Y+005969
X+006985Y+005969
X+009525Y+005969
X+012065Y+005969
X+017145Y+023749
X+014605Y+023749
X+012065Y+023749
X+009525Y+023749
X+006985Y+023749
X+004445Y+023749
T05
X+017145Y+008509
X+019685Y+008509
X+022225Y+008509
X+024765Y+023749
X+024765Y+021209
X+024765Y+018669
X+024765Y+016129
X+024765Y+013589
X+024765Y+011049
X+024765Y+008509
X+024765Y+005969
X+001905Y+005969
X+001905Y+008509
X+001905Y+011049
X+001905Y+013589
X+001905Y+016129
X+001905Y+018669
X+001905Y+021209
X+001905Y+023749
M30
