;Layer: Drill PTH
;EasyEDA v6.4.0, 2020-07-20T23:37:23+02:00
;8414f0393b39484c82beb45b477d05cc,d798ca008b2c48fc9d28453cf4f639a5,10
;Gerber Generator version 0.2
M48
METRIC,LZ,000.000
;Holesize 1 = 0.305 METRIC
T01C0.305
;Holesize 2 = 0.798 METRIC
T02C0.798
;Holesize 3 = 1.101 METRIC
T03C1.101
;Holesize 4 = 1.200 METRIC
T04C1.200
%
G05
G90
T01
X+014859Y+020447
X+009525Y+016002
X+010414Y+008890
X+022225Y+024892
X+008636Y+021209
X+008001Y+022225
X+018669Y+024511
X+022860Y+012954
X+003429Y+009906
X+010414Y+007493
X+010414Y+006096
X+010414Y+010033
X+010414Y+011303
X+023114Y+017653
T02
X+022580Y+005969
X+020599Y+005969
T03
X+015621Y+002159
X+018161Y+002159
X+020701Y+002159
X+005207Y+002159
X+007747Y+002159
X+010287Y+002159
X+012827Y+002159
T04
X+024765Y+023749
X+024765Y+021209
X+024765Y+018669
X+024765Y+016129
X+024765Y+013589
X+024765Y+011049
X+024765Y+008509
X+024765Y+005969
X+001905Y+005969
X+001905Y+008509
X+001905Y+011049
X+001905Y+013589
X+001905Y+016129
X+001905Y+018669
X+001905Y+021209
X+001905Y+023749
M30
