G04 Layer: BottomSilkLayer*
G04 EasyEDA v6.4.0, 2020-07-20T23:37:23+02:00*
G04 8414f0393b39484c82beb45b477d05cc,d798ca008b2c48fc9d28453cf4f639a5,10*
G04 Gerber Generator version 0.2*
G04 Scale: 100 percent, Rotated: No, Reflected: No *
G04 Dimensions in millimeters *
G04 leading zeros omitted , absolute positions ,3 integer and 3 decimal *
%FSLAX33Y33*%
%MOMM*%
G90*
G71D02*

%ADD10C,0.254000*%
%ADD26C,0.203200*%
%ADD27C,0.152400*%

%LPD*%
G54D10*
G01X12463Y27774D02*
G01X4963Y27774D01*
G01X5544Y18478D02*
G01X6672Y18478D01*
G01X10833Y18478D02*
G01X11981Y18478D01*
G01X12445Y21005D02*
G01X12445Y23542D01*
G01X12445Y26506D02*
G01X12445Y27774D01*
G01X5062Y27764D02*
G01X5062Y26506D01*
G01X5062Y23542D02*
G01X5062Y21005D01*
G54D26*
G01X18792Y26367D02*
G01X18826Y26435D01*
G01X18894Y26503D01*
G01X18963Y26537D01*
G01X19099Y26537D01*
G01X19167Y26503D01*
G01X19235Y26435D01*
G01X19269Y26367D01*
G01X19304Y26265D01*
G01X19304Y26094D01*
G01X19269Y25992D01*
G01X19235Y25924D01*
G01X19167Y25856D01*
G01X19099Y25821D01*
G01X18963Y25821D01*
G01X18894Y25856D01*
G01X18826Y25924D01*
G01X18792Y25992D01*
G01X18792Y26094D01*
G01X18963Y26094D02*
G01X18792Y26094D01*
G01X18567Y26537D02*
G01X18567Y25821D01*
G01X18567Y26537D02*
G01X18090Y25821D01*
G01X18090Y26537D02*
G01X18090Y25821D01*
G01X17865Y26537D02*
G01X17865Y25821D01*
G01X17865Y26537D02*
G01X17626Y26537D01*
G01X17524Y26503D01*
G01X17456Y26435D01*
G01X17422Y26367D01*
G01X17388Y26265D01*
G01X17388Y26094D01*
G01X17422Y25992D01*
G01X17456Y25924D01*
G01X17524Y25856D01*
G01X17626Y25821D01*
G01X17865Y25821D01*
G01X16764Y26537D02*
G01X16491Y25821D01*
G01X16218Y26537D02*
G01X16491Y25821D01*
G01X15993Y26537D02*
G01X15993Y25821D01*
G01X15768Y26537D02*
G01X15768Y25821D01*
G01X15768Y26537D02*
G01X15291Y25821D01*
G01X15291Y26537D02*
G01X15291Y25821D01*
G01X25585Y26029D02*
G01X25210Y26029D01*
G01X25415Y25757D01*
G01X25313Y25757D01*
G01X25244Y25723D01*
G01X25210Y25688D01*
G01X25176Y25586D01*
G01X25176Y25518D01*
G01X25210Y25416D01*
G01X25278Y25348D01*
G01X25381Y25313D01*
G01X25483Y25313D01*
G01X25585Y25348D01*
G01X25619Y25382D01*
G01X25654Y25450D01*
G01X24951Y26029D02*
G01X24678Y25313D01*
G01X24406Y26029D02*
G01X24678Y25313D01*
G01X24113Y26029D02*
G01X23738Y26029D01*
G01X23942Y25757D01*
G01X23840Y25757D01*
G01X23772Y25723D01*
G01X23738Y25688D01*
G01X23703Y25586D01*
G01X23703Y25518D01*
G01X23738Y25416D01*
G01X23806Y25348D01*
G01X23908Y25313D01*
G01X24010Y25313D01*
G01X24113Y25348D01*
G01X24147Y25382D01*
G01X24181Y25450D01*
G01X5207Y4566D02*
G01X5207Y3850D01*
G01X5207Y4566D02*
G01X4900Y4566D01*
G01X4797Y4532D01*
G01X4763Y4498D01*
G01X4729Y4430D01*
G01X4729Y4362D01*
G01X4763Y4294D01*
G01X4797Y4260D01*
G01X4900Y4225D01*
G01X5207Y4225D02*
G01X4900Y4225D01*
G01X4797Y4191D01*
G01X4763Y4157D01*
G01X4729Y4089D01*
G01X4729Y3987D01*
G01X4763Y3919D01*
G01X4797Y3885D01*
G01X4900Y3850D01*
G01X5207Y3850D01*
G01X4300Y4566D02*
G01X4402Y4532D01*
G01X4470Y4430D01*
G01X4504Y4260D01*
G01X4504Y4157D01*
G01X4470Y3987D01*
G01X4402Y3885D01*
G01X4300Y3850D01*
G01X4231Y3850D01*
G01X4129Y3885D01*
G01X4061Y3987D01*
G01X4027Y4157D01*
G01X4027Y4260D01*
G01X4061Y4430D01*
G01X4129Y4532D01*
G01X4231Y4566D01*
G01X4300Y4566D01*
G01X3802Y4430D02*
G01X3734Y4464D01*
G01X3631Y4566D01*
G01X3631Y3850D01*
G01X7874Y4566D02*
G01X7874Y3850D01*
G01X7874Y4566D02*
G01X7567Y4566D01*
G01X7464Y4532D01*
G01X7430Y4498D01*
G01X7396Y4430D01*
G01X7396Y4362D01*
G01X7430Y4294D01*
G01X7464Y4260D01*
G01X7567Y4225D01*
G01X7874Y4225D02*
G01X7567Y4225D01*
G01X7464Y4191D01*
G01X7430Y4157D01*
G01X7396Y4089D01*
G01X7396Y3987D01*
G01X7430Y3919D01*
G01X7464Y3885D01*
G01X7567Y3850D01*
G01X7874Y3850D01*
G01X6967Y4566D02*
G01X7069Y4532D01*
G01X7137Y4430D01*
G01X7171Y4260D01*
G01X7171Y4157D01*
G01X7137Y3987D01*
G01X7069Y3885D01*
G01X6967Y3850D01*
G01X6898Y3850D01*
G01X6796Y3885D01*
G01X6728Y3987D01*
G01X6694Y4157D01*
G01X6694Y4260D01*
G01X6728Y4430D01*
G01X6796Y4532D01*
G01X6898Y4566D01*
G01X6967Y4566D01*
G01X6435Y4396D02*
G01X6435Y4430D01*
G01X6401Y4498D01*
G01X6367Y4532D01*
G01X6298Y4566D01*
G01X6162Y4566D01*
G01X6094Y4532D01*
G01X6060Y4498D01*
G01X6026Y4430D01*
G01X6026Y4362D01*
G01X6060Y4294D01*
G01X6128Y4191D01*
G01X6469Y3850D01*
G01X5992Y3850D01*
G01X10268Y4566D02*
G01X10541Y3850D01*
G01X10268Y4566D02*
G01X9995Y3850D01*
G01X10438Y4089D02*
G01X10097Y4089D01*
G01X9565Y4566D02*
G01X9668Y4532D01*
G01X9736Y4430D01*
G01X9770Y4260D01*
G01X9770Y4157D01*
G01X9736Y3987D01*
G01X9668Y3885D01*
G01X9565Y3850D01*
G01X9497Y3850D01*
G01X9395Y3885D01*
G01X9327Y3987D01*
G01X9293Y4157D01*
G01X9293Y4260D01*
G01X9327Y4430D01*
G01X9395Y4532D01*
G01X9497Y4566D01*
G01X9565Y4566D01*
G01X9034Y4396D02*
G01X9034Y4430D01*
G01X9000Y4498D01*
G01X8965Y4532D01*
G01X8897Y4566D01*
G01X8761Y4566D01*
G01X8693Y4532D01*
G01X8659Y4498D01*
G01X8625Y4430D01*
G01X8625Y4362D01*
G01X8659Y4294D01*
G01X8727Y4191D01*
G01X9068Y3850D01*
G01X8590Y3850D01*
G01X12808Y4566D02*
G01X13081Y3850D01*
G01X12808Y4566D02*
G01X12535Y3850D01*
G01X12978Y4089D02*
G01X12637Y4089D01*
G01X12105Y4566D02*
G01X12208Y4532D01*
G01X12276Y4430D01*
G01X12310Y4260D01*
G01X12310Y4157D01*
G01X12276Y3987D01*
G01X12208Y3885D01*
G01X12105Y3850D01*
G01X12037Y3850D01*
G01X11935Y3885D01*
G01X11867Y3987D01*
G01X11833Y4157D01*
G01X11833Y4260D01*
G01X11867Y4430D01*
G01X11935Y4532D01*
G01X12037Y4566D01*
G01X12105Y4566D01*
G01X11608Y4430D02*
G01X11540Y4464D01*
G01X11437Y4566D01*
G01X11437Y3850D01*
G01X20701Y4566D02*
G01X20428Y3850D01*
G01X20155Y4566D02*
G01X20428Y3850D01*
G01X19419Y4396D02*
G01X19453Y4464D01*
G01X19521Y4532D01*
G01X19589Y4566D01*
G01X19725Y4566D01*
G01X19794Y4532D01*
G01X19862Y4464D01*
G01X19896Y4396D01*
G01X19930Y4294D01*
G01X19930Y4123D01*
G01X19896Y4021D01*
G01X19862Y3953D01*
G01X19794Y3885D01*
G01X19725Y3850D01*
G01X19589Y3850D01*
G01X19521Y3885D01*
G01X19453Y3953D01*
G01X19419Y4021D01*
G01X18682Y4396D02*
G01X18716Y4464D01*
G01X18785Y4532D01*
G01X18853Y4566D01*
G01X18989Y4566D01*
G01X19057Y4532D01*
G01X19125Y4464D01*
G01X19160Y4396D01*
G01X19194Y4294D01*
G01X19194Y4123D01*
G01X19160Y4021D01*
G01X19125Y3953D01*
G01X19057Y3885D01*
G01X18989Y3850D01*
G01X18853Y3850D01*
G01X18785Y3885D01*
G01X18716Y3953D01*
G01X18682Y4021D01*
G01X17653Y4430D02*
G01X17584Y4464D01*
G01X17482Y4566D01*
G01X17482Y3850D01*
G01X16848Y4566D02*
G01X17189Y4566D01*
G01X17223Y4260D01*
G01X17189Y4294D01*
G01X17087Y4328D01*
G01X16984Y4328D01*
G01X16882Y4294D01*
G01X16814Y4225D01*
G01X16780Y4123D01*
G01X16780Y4055D01*
G01X16814Y3953D01*
G01X16882Y3885D01*
G01X16984Y3850D01*
G01X17087Y3850D01*
G01X17189Y3885D01*
G01X17223Y3919D01*
G01X17257Y3987D01*
G01X22729Y4396D02*
G01X22763Y4464D01*
G01X22831Y4532D01*
G01X22900Y4566D01*
G01X23036Y4566D01*
G01X23104Y4532D01*
G01X23172Y4464D01*
G01X23206Y4396D01*
G01X23241Y4294D01*
G01X23241Y4123D01*
G01X23206Y4021D01*
G01X23172Y3953D01*
G01X23104Y3885D01*
G01X23036Y3850D01*
G01X22900Y3850D01*
G01X22831Y3885D01*
G01X22763Y3953D01*
G01X22729Y4021D01*
G01X22729Y4123D01*
G01X22900Y4123D02*
G01X22729Y4123D01*
G01X22504Y4566D02*
G01X22504Y3850D01*
G01X22504Y4566D02*
G01X22027Y3850D01*
G01X22027Y4566D02*
G01X22027Y3850D01*
G01X21802Y4566D02*
G01X21802Y3850D01*
G01X21802Y4566D02*
G01X21563Y4566D01*
G01X21461Y4532D01*
G01X21393Y4464D01*
G01X21359Y4396D01*
G01X21325Y4294D01*
G01X21325Y4123D01*
G01X21359Y4021D01*
G01X21393Y3953D01*
G01X21461Y3885D01*
G01X21563Y3850D01*
G01X21802Y3850D01*
G01X11721Y5668D02*
G01X11630Y5577D01*
G01X11539Y5532D01*
G01X11403Y5532D01*
G01X11312Y5577D01*
G01X11221Y5668D01*
G01X11176Y5804D01*
G01X11176Y5895D01*
G01X11221Y6032D01*
G01X11312Y6123D01*
G01X11403Y6168D01*
G01X11539Y6168D01*
G01X11630Y6123D01*
G01X11721Y6032D01*
G01X12112Y5213D02*
G01X12612Y5213D01*
G01X12339Y5577D01*
G01X12475Y5577D01*
G01X12566Y5623D01*
G01X12612Y5668D01*
G01X12657Y5804D01*
G01X12657Y5895D01*
G01X12612Y6032D01*
G01X12521Y6123D01*
G01X12385Y6168D01*
G01X12248Y6168D01*
G01X12112Y6123D01*
G01X12066Y6077D01*
G01X12021Y5986D01*
G01X13503Y5213D02*
G01X13503Y6168D01*
G01X13503Y5668D02*
G01X13412Y5577D01*
G01X13321Y5532D01*
G01X13185Y5532D01*
G01X13094Y5577D01*
G01X13003Y5668D01*
G01X12957Y5804D01*
G01X12957Y5895D01*
G01X13003Y6032D01*
G01X13094Y6123D01*
G01X13185Y6168D01*
G01X13321Y6168D01*
G01X13412Y6123D01*
G01X13503Y6032D01*
G01X13848Y5441D02*
G01X13848Y5395D01*
G01X13894Y5304D01*
G01X13939Y5259D01*
G01X14030Y5213D01*
G01X14212Y5213D01*
G01X14303Y5259D01*
G01X14348Y5304D01*
G01X14394Y5395D01*
G01X14394Y5486D01*
G01X14348Y5577D01*
G01X14257Y5713D01*
G01X13803Y6168D01*
G01X14439Y6168D01*
G01X14785Y5941D02*
G01X14739Y5986D01*
G01X14785Y6032D01*
G01X14830Y5986D01*
G01X14785Y5941D01*
G01X15675Y5213D02*
G01X15675Y6168D01*
G01X15675Y5668D02*
G01X15585Y5577D01*
G01X15494Y5532D01*
G01X15357Y5532D01*
G01X15266Y5577D01*
G01X15175Y5668D01*
G01X15130Y5804D01*
G01X15130Y5895D01*
G01X15175Y6032D01*
G01X15266Y6123D01*
G01X15357Y6168D01*
G01X15494Y6168D01*
G01X15585Y6123D01*
G01X15675Y6032D01*
G01X15975Y5804D02*
G01X16521Y5804D01*
G01X16521Y5713D01*
G01X16475Y5623D01*
G01X16430Y5577D01*
G01X16339Y5532D01*
G01X16203Y5532D01*
G01X16112Y5577D01*
G01X16021Y5668D01*
G01X15975Y5804D01*
G01X15975Y5895D01*
G01X16021Y6032D01*
G01X16112Y6123D01*
G01X16203Y6168D01*
G01X16339Y6168D01*
G01X16430Y6123D01*
G01X16521Y6032D01*
G01X18248Y5350D02*
G01X17521Y5759D01*
G01X18248Y6168D01*
G01X19276Y5350D02*
G01X18548Y5759D01*
G01X19276Y6168D01*
G01X20303Y5350D02*
G01X19576Y5759D01*
G01X20303Y6168D01*
G01X21421Y5032D02*
G01X20603Y6486D01*
G01X21721Y5350D02*
G01X22448Y5759D01*
G01X21721Y6168D01*
G01X22748Y5350D02*
G01X23476Y5759D01*
G01X22748Y6168D01*
G01X11592Y8216D02*
G01X11650Y8328D01*
G01X11765Y8442D01*
G01X11877Y8501D01*
G01X12105Y8501D01*
G01X12219Y8442D01*
G01X12331Y8328D01*
G01X12390Y8216D01*
G01X12446Y8046D01*
G01X12446Y7762D01*
G01X12390Y7592D01*
G01X12331Y7477D01*
G01X12219Y7363D01*
G01X12105Y7307D01*
G01X11877Y7307D01*
G01X11765Y7363D01*
G01X11650Y7477D01*
G01X11592Y7592D01*
G01X11104Y8501D02*
G01X10480Y8501D01*
G01X10820Y8046D01*
G01X10650Y8046D01*
G01X10535Y7988D01*
G01X10480Y7932D01*
G01X10424Y7762D01*
G01X10424Y7647D01*
G01X10480Y7477D01*
G01X10594Y7363D01*
G01X10764Y7307D01*
G01X10934Y7307D01*
G01X11104Y7363D01*
G01X11160Y7421D01*
G01X11219Y7533D01*
G01X10048Y7818D02*
G01X9024Y7818D01*
G01X8651Y8501D02*
G01X8651Y7307D01*
G01X8651Y8501D02*
G01X8138Y8501D01*
G01X7967Y8442D01*
G01X7912Y8387D01*
G01X7856Y8272D01*
G01X7856Y8102D01*
G01X7912Y7988D01*
G01X7967Y7932D01*
G01X8138Y7876D01*
G01X8651Y7876D01*
G01X7480Y8501D02*
G01X7480Y7307D01*
G01X7480Y8501D02*
G01X6969Y8501D01*
G01X6797Y8442D01*
G01X6741Y8387D01*
G01X6685Y8272D01*
G01X6685Y8158D01*
G01X6741Y8046D01*
G01X6797Y7988D01*
G01X6969Y7932D01*
G01X7480Y7932D01*
G01X7081Y7932D02*
G01X6685Y7307D01*
G01X5435Y8102D02*
G01X5435Y7307D01*
G01X5435Y7762D02*
G01X5377Y7932D01*
G01X5265Y8046D01*
G01X5151Y8102D01*
G01X4980Y8102D01*
G01X4549Y7592D02*
G01X4605Y7533D01*
G01X4549Y7477D01*
G01X4490Y7533D01*
G01X4549Y7592D01*
G01X4117Y8272D02*
G01X4003Y8328D01*
G01X3832Y8501D01*
G01X3832Y7307D01*
G54D27*
G01X6858Y24119D02*
G01X6858Y24899D01*
G01X6908Y25054D01*
G01X7012Y25158D01*
G01X7170Y25209D01*
G01X7274Y25209D01*
G01X7429Y25158D01*
G01X7533Y25054D01*
G01X7584Y24899D01*
G01X7584Y24119D01*
G01X8656Y24274D02*
G01X8552Y24170D01*
G01X8394Y24119D01*
G01X8188Y24119D01*
G01X8031Y24170D01*
G01X7927Y24274D01*
G01X7927Y24378D01*
G01X7980Y24483D01*
G01X8031Y24536D01*
G01X8135Y24587D01*
G01X8448Y24691D01*
G01X8552Y24742D01*
G01X8602Y24795D01*
G01X8656Y24899D01*
G01X8656Y25054D01*
G01X8552Y25158D01*
G01X8394Y25209D01*
G01X8188Y25209D01*
G01X8031Y25158D01*
G01X7927Y25054D01*
G01X8999Y24119D02*
G01X8999Y25209D01*
G01X8999Y24119D02*
G01X9466Y24119D01*
G01X9621Y24170D01*
G01X9674Y24223D01*
G01X9725Y24328D01*
G01X9725Y24432D01*
G01X9674Y24536D01*
G01X9621Y24587D01*
G01X9466Y24638D01*
G01X8999Y24638D02*
G01X9466Y24638D01*
G01X9621Y24691D01*
G01X9674Y24742D01*
G01X9725Y24846D01*
G01X9725Y25003D01*
G01X9674Y25107D01*
G01X9621Y25158D01*
G01X9466Y25209D01*
G01X8999Y25209D01*
G01X10121Y24378D02*
G01X10121Y24328D01*
G01X10172Y24223D01*
G01X10223Y24170D01*
G01X10327Y24119D01*
G01X10535Y24119D01*
G01X10640Y24170D01*
G01X10693Y24223D01*
G01X10744Y24328D01*
G01X10744Y24432D01*
G01X10693Y24536D01*
G01X10589Y24691D01*
G01X10068Y25209D01*
G01X10795Y25209D01*
M00*
M02*
