G04 Layer: BottomLayer*
G04 EasyEDA v6.4.0, 2020-07-20T23:37:23+02:00*
G04 8414f0393b39484c82beb45b477d05cc,d798ca008b2c48fc9d28453cf4f639a5,10*
G04 Gerber Generator version 0.2*
G04 Scale: 100 percent, Rotated: No, Reflected: No *
G04 Dimensions in millimeters *
G04 leading zeros omitted , absolute positions ,3 integer and 3 decimal *
%FSLAX33Y33*%
%MOMM*%
G90*
G71D02*

%ADD10C,0.254000*%
%ADD11C,0.508000*%
%ADD12C,0.611022*%
%ADD20R,1.198880X2.159000*%
%ADD21C,1.799996*%
%ADD22R,1.799996X1.799996*%

%LPD*%
G36*
G01X26311Y27302D02*
G01X358Y27302D01*
G01X343Y27301D01*
G01X329Y27298D01*
G01X315Y27293D01*
G01X303Y27286D01*
G01X291Y27277D01*
G01X281Y27267D01*
G01X272Y27255D01*
G01X265Y27243D01*
G01X260Y27229D01*
G01X257Y27215D01*
G01X256Y27200D01*
G01X256Y2677D01*
G01X257Y2663D01*
G01X260Y2649D01*
G01X265Y2635D01*
G01X272Y2623D01*
G01X281Y2611D01*
G01X291Y2601D01*
G01X303Y2592D01*
G01X315Y2585D01*
G01X329Y2580D01*
G01X343Y2577D01*
G01X358Y2576D01*
G01X372Y2577D01*
G01X386Y2580D01*
G01X400Y2585D01*
G01X413Y2592D01*
G01X424Y2601D01*
G01X435Y2611D01*
G01X443Y2623D01*
G01X450Y2636D01*
G01X455Y2649D01*
G01X473Y2707D01*
G01X492Y2764D01*
G01X514Y2820D01*
G01X537Y2875D01*
G01X563Y2930D01*
G01X590Y2984D01*
G01X619Y3037D01*
G01X649Y3088D01*
G01X682Y3139D01*
G01X716Y3189D01*
G01X752Y3237D01*
G01X789Y3284D01*
G01X828Y3330D01*
G01X869Y3374D01*
G01X911Y3417D01*
G01X954Y3459D01*
G01X999Y3499D01*
G01X1045Y3538D01*
G01X1093Y3575D01*
G01X1141Y3610D01*
G01X1191Y3644D01*
G01X1242Y3676D01*
G01X1294Y3706D01*
G01X1347Y3735D01*
G01X1401Y3761D01*
G01X1456Y3786D01*
G01X1512Y3809D01*
G01X1568Y3830D01*
G01X1625Y3849D01*
G01X1683Y3866D01*
G01X1741Y3881D01*
G01X1800Y3894D01*
G01X1859Y3906D01*
G01X1918Y3915D01*
G01X1978Y3922D01*
G01X2038Y3927D01*
G01X2098Y3930D01*
G01X2159Y3931D01*
G01X2220Y3930D01*
G01X2281Y3927D01*
G01X2342Y3922D01*
G01X2403Y3914D01*
G01X2463Y3905D01*
G01X2523Y3893D01*
G01X2583Y3880D01*
G01X2642Y3864D01*
G01X2700Y3846D01*
G01X2758Y3826D01*
G01X2816Y3805D01*
G01X2872Y3781D01*
G01X2928Y3755D01*
G01X2982Y3728D01*
G01X3036Y3699D01*
G01X3089Y3667D01*
G01X3140Y3634D01*
G01X3191Y3600D01*
G01X3240Y3563D01*
G01X3288Y3525D01*
G01X3334Y3485D01*
G01X3379Y3444D01*
G01X3423Y3401D01*
G01X3465Y3356D01*
G01X3505Y3311D01*
G01X3544Y3264D01*
G01X3582Y3215D01*
G01X3617Y3165D01*
G01X3651Y3114D01*
G01X3683Y3062D01*
G01X3714Y3009D01*
G01X3742Y2955D01*
G01X3769Y2900D01*
G01X3793Y2844D01*
G01X3816Y2787D01*
G01X3837Y2729D01*
G01X3855Y2671D01*
G01X3872Y2612D01*
G01X3887Y2553D01*
G01X3899Y2493D01*
G01X3903Y2478D01*
G01X3910Y2464D01*
G01X3918Y2450D01*
G01X3928Y2439D01*
G01X3940Y2429D01*
G01X3954Y2421D01*
G01X3968Y2415D01*
G01X3983Y2412D01*
G01X3999Y2410D01*
G01X4013Y2411D01*
G01X4028Y2414D01*
G01X4054Y2426D01*
G01X4066Y2435D01*
G01X4076Y2445D01*
G01X4085Y2457D01*
G01X4097Y2483D01*
G01X4111Y2531D01*
G01X4128Y2577D01*
G01X4147Y2623D01*
G01X4168Y2668D01*
G01X4191Y2712D01*
G01X4216Y2755D01*
G01X4242Y2797D01*
G01X4270Y2838D01*
G01X4300Y2877D01*
G01X4332Y2915D01*
G01X4365Y2952D01*
G01X4400Y2987D01*
G01X4436Y3021D01*
G01X4474Y3053D01*
G01X4513Y3084D01*
G01X4553Y3113D01*
G01X4595Y3140D01*
G01X4637Y3165D01*
G01X4681Y3189D01*
G01X4726Y3210D01*
G01X4771Y3230D01*
G01X4818Y3248D01*
G01X4865Y3263D01*
G01X4912Y3277D01*
G01X4961Y3289D01*
G01X5009Y3298D01*
G01X5058Y3305D01*
G01X5107Y3311D01*
G01X5157Y3314D01*
G01X5207Y3315D01*
G01X5256Y3314D01*
G01X5305Y3311D01*
G01X5353Y3306D01*
G01X5402Y3298D01*
G01X5450Y3289D01*
G01X5498Y3278D01*
G01X5545Y3264D01*
G01X5592Y3249D01*
G01X5638Y3232D01*
G01X5683Y3212D01*
G01X5727Y3191D01*
G01X5771Y3168D01*
G01X5813Y3143D01*
G01X5854Y3117D01*
G01X5894Y3088D01*
G01X5933Y3058D01*
G01X5971Y3027D01*
G01X6007Y2993D01*
G01X6041Y2959D01*
G01X6075Y2923D01*
G01X6106Y2885D01*
G01X6136Y2846D01*
G01X6165Y2806D01*
G01X6191Y2765D01*
G01X6216Y2723D01*
G01X6239Y2679D01*
G01X6260Y2635D01*
G01X6280Y2590D01*
G01X6297Y2544D01*
G01X6312Y2497D01*
G01X6326Y2450D01*
G01X6337Y2402D01*
G01X6346Y2354D01*
G01X6354Y2305D01*
G01X6359Y2257D01*
G01X6362Y2208D01*
G01X6363Y2159D01*
G01X6362Y2109D01*
G01X6359Y2060D01*
G01X6354Y2012D01*
G01X6346Y1963D01*
G01X6337Y1915D01*
G01X6326Y1867D01*
G01X6312Y1820D01*
G01X6297Y1773D01*
G01X6280Y1727D01*
G01X6260Y1682D01*
G01X6239Y1638D01*
G01X6216Y1594D01*
G01X6191Y1552D01*
G01X6165Y1511D01*
G01X6136Y1471D01*
G01X6106Y1432D01*
G01X6075Y1394D01*
G01X6041Y1358D01*
G01X6007Y1324D01*
G01X5971Y1290D01*
G01X5933Y1259D01*
G01X5894Y1229D01*
G01X5854Y1200D01*
G01X5813Y1174D01*
G01X5771Y1149D01*
G01X5727Y1126D01*
G01X5683Y1105D01*
G01X5638Y1085D01*
G01X5592Y1068D01*
G01X5545Y1053D01*
G01X5498Y1039D01*
G01X5450Y1028D01*
G01X5402Y1019D01*
G01X5353Y1011D01*
G01X5305Y1006D01*
G01X5256Y1003D01*
G01X5207Y1002D01*
G01X5157Y1003D01*
G01X5107Y1006D01*
G01X5058Y1012D01*
G01X5009Y1019D01*
G01X4961Y1028D01*
G01X4912Y1040D01*
G01X4865Y1054D01*
G01X4818Y1069D01*
G01X4771Y1087D01*
G01X4726Y1107D01*
G01X4681Y1128D01*
G01X4637Y1152D01*
G01X4595Y1177D01*
G01X4553Y1204D01*
G01X4513Y1233D01*
G01X4474Y1264D01*
G01X4436Y1296D01*
G01X4400Y1330D01*
G01X4365Y1365D01*
G01X4332Y1402D01*
G01X4300Y1440D01*
G01X4270Y1479D01*
G01X4242Y1520D01*
G01X4216Y1562D01*
G01X4191Y1605D01*
G01X4168Y1649D01*
G01X4147Y1694D01*
G01X4128Y1740D01*
G01X4111Y1786D01*
G01X4097Y1834D01*
G01X4085Y1860D01*
G01X4076Y1872D01*
G01X4066Y1882D01*
G01X4054Y1891D01*
G01X4028Y1903D01*
G01X4013Y1906D01*
G01X3999Y1907D01*
G01X3983Y1905D01*
G01X3968Y1902D01*
G01X3954Y1896D01*
G01X3940Y1888D01*
G01X3928Y1878D01*
G01X3918Y1867D01*
G01X3910Y1853D01*
G01X3903Y1839D01*
G01X3899Y1824D01*
G01X3887Y1765D01*
G01X3872Y1705D01*
G01X3856Y1647D01*
G01X3837Y1589D01*
G01X3816Y1531D01*
G01X3794Y1475D01*
G01X3769Y1419D01*
G01X3743Y1364D01*
G01X3715Y1310D01*
G01X3685Y1257D01*
G01X3653Y1205D01*
G01X3619Y1154D01*
G01X3584Y1105D01*
G01X3547Y1056D01*
G01X3508Y1009D01*
G01X3467Y963D01*
G01X3426Y919D01*
G01X3382Y876D01*
G01X3337Y835D01*
G01X3291Y795D01*
G01X3244Y757D01*
G01X3195Y721D01*
G01X3145Y686D01*
G01X3094Y653D01*
G01X3041Y621D01*
G01X2988Y592D01*
G01X2934Y564D01*
G01X2878Y539D01*
G01X2822Y515D01*
G01X2765Y493D01*
G01X2708Y473D01*
G01X2649Y455D01*
G01X2636Y450D01*
G01X2623Y443D01*
G01X2611Y435D01*
G01X2601Y424D01*
G01X2592Y413D01*
G01X2585Y400D01*
G01X2580Y386D01*
G01X2577Y372D01*
G01X2576Y358D01*
G01X2577Y343D01*
G01X2580Y329D01*
G01X2585Y315D01*
G01X2592Y303D01*
G01X2601Y291D01*
G01X2611Y281D01*
G01X2623Y272D01*
G01X2635Y265D01*
G01X2649Y260D01*
G01X2663Y257D01*
G01X2677Y256D01*
G01X23992Y256D01*
G01X24006Y257D01*
G01X24020Y260D01*
G01X24034Y265D01*
G01X24046Y272D01*
G01X24058Y281D01*
G01X24068Y291D01*
G01X24077Y303D01*
G01X24084Y315D01*
G01X24089Y329D01*
G01X24092Y343D01*
G01X24093Y358D01*
G01X24092Y372D01*
G01X24089Y386D01*
G01X24084Y400D01*
G01X24077Y413D01*
G01X24068Y424D01*
G01X24058Y435D01*
G01X24046Y443D01*
G01X24033Y450D01*
G01X24020Y455D01*
G01X23962Y473D01*
G01X23905Y492D01*
G01X23849Y514D01*
G01X23794Y537D01*
G01X23739Y563D01*
G01X23685Y590D01*
G01X23632Y619D01*
G01X23581Y649D01*
G01X23530Y682D01*
G01X23480Y716D01*
G01X23432Y752D01*
G01X23385Y789D01*
G01X23339Y828D01*
G01X23295Y869D01*
G01X23252Y911D01*
G01X23210Y954D01*
G01X23170Y999D01*
G01X23131Y1045D01*
G01X23094Y1093D01*
G01X23059Y1141D01*
G01X23025Y1191D01*
G01X22993Y1242D01*
G01X22963Y1294D01*
G01X22934Y1347D01*
G01X22908Y1401D01*
G01X22883Y1456D01*
G01X22860Y1512D01*
G01X22839Y1568D01*
G01X22820Y1625D01*
G01X22803Y1683D01*
G01X22788Y1741D01*
G01X22775Y1800D01*
G01X22763Y1859D01*
G01X22754Y1918D01*
G01X22747Y1978D01*
G01X22742Y2038D01*
G01X22739Y2098D01*
G01X22738Y2159D01*
G01X22739Y2219D01*
G01X22742Y2279D01*
G01X22747Y2340D01*
G01X22754Y2400D01*
G01X22764Y2460D01*
G01X22775Y2519D01*
G01X22788Y2578D01*
G01X22804Y2637D01*
G01X22821Y2695D01*
G01X22840Y2752D01*
G01X22862Y2809D01*
G01X22885Y2865D01*
G01X22910Y2920D01*
G01X22937Y2974D01*
G01X22965Y3027D01*
G01X22996Y3079D01*
G01X23028Y3131D01*
G01X23062Y3181D01*
G01X23098Y3230D01*
G01X23136Y3277D01*
G01X23175Y3323D01*
G01X23215Y3368D01*
G01X23257Y3412D01*
G01X23301Y3454D01*
G01X23346Y3494D01*
G01X23392Y3533D01*
G01X23439Y3571D01*
G01X23488Y3607D01*
G01X23538Y3641D01*
G01X23590Y3673D01*
G01X23642Y3704D01*
G01X23695Y3732D01*
G01X23749Y3759D01*
G01X23804Y3784D01*
G01X23860Y3807D01*
G01X23917Y3829D01*
G01X23974Y3848D01*
G01X24032Y3865D01*
G01X24091Y3881D01*
G01X24150Y3894D01*
G01X24209Y3905D01*
G01X24269Y3915D01*
G01X24329Y3922D01*
G01X24390Y3927D01*
G01X24450Y3930D01*
G01X24511Y3931D01*
G01X24571Y3930D01*
G01X24631Y3927D01*
G01X24691Y3922D01*
G01X24751Y3915D01*
G01X24810Y3906D01*
G01X24869Y3894D01*
G01X24928Y3881D01*
G01X24986Y3866D01*
G01X25044Y3849D01*
G01X25101Y3830D01*
G01X25157Y3809D01*
G01X25213Y3786D01*
G01X25268Y3761D01*
G01X25322Y3735D01*
G01X25375Y3706D01*
G01X25427Y3676D01*
G01X25478Y3644D01*
G01X25528Y3610D01*
G01X25576Y3575D01*
G01X25624Y3538D01*
G01X25670Y3499D01*
G01X25715Y3459D01*
G01X25758Y3417D01*
G01X25800Y3374D01*
G01X25841Y3330D01*
G01X25880Y3284D01*
G01X25917Y3237D01*
G01X25953Y3189D01*
G01X25987Y3139D01*
G01X26020Y3088D01*
G01X26050Y3037D01*
G01X26079Y2984D01*
G01X26106Y2930D01*
G01X26132Y2875D01*
G01X26155Y2820D01*
G01X26177Y2764D01*
G01X26196Y2707D01*
G01X26214Y2649D01*
G01X26219Y2636D01*
G01X26226Y2623D01*
G01X26234Y2611D01*
G01X26245Y2601D01*
G01X26256Y2592D01*
G01X26269Y2585D01*
G01X26283Y2580D01*
G01X26297Y2577D01*
G01X26311Y2576D01*
G01X26326Y2577D01*
G01X26340Y2580D01*
G01X26354Y2585D01*
G01X26366Y2592D01*
G01X26378Y2601D01*
G01X26388Y2611D01*
G01X26397Y2623D01*
G01X26404Y2635D01*
G01X26409Y2649D01*
G01X26412Y2663D01*
G01X26413Y2677D01*
G01X26413Y27200D01*
G01X26412Y27215D01*
G01X26409Y27229D01*
G01X26404Y27243D01*
G01X26397Y27255D01*
G01X26388Y27267D01*
G01X26378Y27277D01*
G01X26366Y27286D01*
G01X26354Y27293D01*
G01X26340Y27298D01*
G01X26326Y27301D01*
G01X26311Y27302D01*
G37*

%LPC*%
G36*
G01X1955Y12204D02*
G01X1905Y12205D01*
G01X1855Y12204D01*
G01X1806Y12201D01*
G01X1758Y12196D01*
G01X1709Y12188D01*
G01X1661Y12179D01*
G01X1613Y12168D01*
G01X1566Y12154D01*
G01X1519Y12139D01*
G01X1473Y12122D01*
G01X1428Y12102D01*
G01X1384Y12081D01*
G01X1340Y12058D01*
G01X1298Y12033D01*
G01X1257Y12007D01*
G01X1217Y11978D01*
G01X1178Y11948D01*
G01X1140Y11917D01*
G01X1104Y11883D01*
G01X1070Y11849D01*
G01X1036Y11813D01*
G01X1005Y11775D01*
G01X975Y11736D01*
G01X946Y11696D01*
G01X920Y11655D01*
G01X895Y11613D01*
G01X872Y11569D01*
G01X851Y11525D01*
G01X831Y11480D01*
G01X814Y11434D01*
G01X799Y11387D01*
G01X785Y11340D01*
G01X774Y11292D01*
G01X765Y11244D01*
G01X757Y11195D01*
G01X752Y11147D01*
G01X749Y11098D01*
G01X748Y11049D01*
G01X749Y10999D01*
G01X752Y10950D01*
G01X757Y10901D01*
G01X765Y10853D01*
G01X774Y10804D01*
G01X785Y10757D01*
G01X799Y10709D01*
G01X814Y10663D01*
G01X832Y10617D01*
G01X851Y10571D01*
G01X872Y10527D01*
G01X895Y10484D01*
G01X920Y10441D01*
G01X947Y10400D01*
G01X975Y10360D01*
G01X1006Y10321D01*
G01X1037Y10283D01*
G01X1071Y10247D01*
G01X1105Y10212D01*
G01X1142Y10179D01*
G01X1179Y10147D01*
G01X1218Y10117D01*
G01X1259Y10089D01*
G01X1300Y10063D01*
G01X1342Y10038D01*
G01X1386Y10015D01*
G01X1430Y9994D01*
G01X1476Y9974D01*
G01X1522Y9957D01*
G01X1568Y9942D01*
G01X1616Y9929D01*
G01X1664Y9917D01*
G01X1712Y9908D01*
G01X1761Y9901D01*
G01X1775Y9898D01*
G01X1789Y9893D01*
G01X1802Y9886D01*
G01X1814Y9878D01*
G01X1824Y9867D01*
G01X1833Y9856D01*
G01X1840Y9843D01*
G01X1845Y9829D01*
G01X1849Y9815D01*
G01X1850Y9800D01*
G01X1848Y9784D01*
G01X1845Y9769D01*
G01X1839Y9754D01*
G01X1830Y9740D01*
G01X1820Y9728D01*
G01X1769Y9678D01*
G01X1757Y9667D01*
G01X1744Y9659D01*
G01X1729Y9653D01*
G01X1714Y9649D01*
G01X1666Y9640D01*
G01X1618Y9629D01*
G01X1570Y9616D01*
G01X1523Y9600D01*
G01X1477Y9583D01*
G01X1432Y9564D01*
G01X1387Y9543D01*
G01X1344Y9520D01*
G01X1301Y9495D01*
G01X1260Y9469D01*
G01X1220Y9440D01*
G01X1180Y9410D01*
G01X1143Y9379D01*
G01X1106Y9346D01*
G01X1071Y9311D01*
G01X1038Y9275D01*
G01X1006Y9237D01*
G01X976Y9198D01*
G01X948Y9158D01*
G01X921Y9117D01*
G01X896Y9074D01*
G01X873Y9031D01*
G01X851Y8986D01*
G01X832Y8941D01*
G01X814Y8895D01*
G01X799Y8848D01*
G01X786Y8801D01*
G01X774Y8753D01*
G01X765Y8705D01*
G01X757Y8656D01*
G01X752Y8607D01*
G01X749Y8558D01*
G01X748Y8509D01*
G01X749Y8459D01*
G01X752Y8410D01*
G01X757Y8362D01*
G01X765Y8313D01*
G01X774Y8265D01*
G01X785Y8217D01*
G01X799Y8170D01*
G01X814Y8123D01*
G01X831Y8077D01*
G01X851Y8032D01*
G01X872Y7988D01*
G01X895Y7944D01*
G01X920Y7902D01*
G01X946Y7861D01*
G01X975Y7821D01*
G01X1005Y7782D01*
G01X1036Y7744D01*
G01X1070Y7708D01*
G01X1104Y7674D01*
G01X1140Y7640D01*
G01X1178Y7609D01*
G01X1217Y7579D01*
G01X1257Y7550D01*
G01X1298Y7524D01*
G01X1340Y7499D01*
G01X1384Y7476D01*
G01X1428Y7455D01*
G01X1473Y7435D01*
G01X1519Y7418D01*
G01X1566Y7403D01*
G01X1613Y7389D01*
G01X1661Y7378D01*
G01X1709Y7369D01*
G01X1758Y7361D01*
G01X1806Y7356D01*
G01X1855Y7353D01*
G01X1905Y7352D01*
G01X1954Y7353D01*
G01X2003Y7356D01*
G01X2051Y7361D01*
G01X2100Y7369D01*
G01X2148Y7378D01*
G01X2196Y7389D01*
G01X2243Y7403D01*
G01X2290Y7418D01*
G01X2336Y7435D01*
G01X2381Y7455D01*
G01X2425Y7476D01*
G01X2469Y7499D01*
G01X2511Y7524D01*
G01X2552Y7550D01*
G01X2592Y7579D01*
G01X2631Y7609D01*
G01X2669Y7640D01*
G01X2705Y7674D01*
G01X2739Y7708D01*
G01X2773Y7744D01*
G01X2804Y7782D01*
G01X2834Y7821D01*
G01X2863Y7861D01*
G01X2889Y7902D01*
G01X2914Y7944D01*
G01X2937Y7988D01*
G01X2958Y8032D01*
G01X2978Y8077D01*
G01X2995Y8123D01*
G01X3010Y8170D01*
G01X3024Y8217D01*
G01X3035Y8265D01*
G01X3044Y8313D01*
G01X3052Y8362D01*
G01X3057Y8410D01*
G01X3060Y8459D01*
G01X3061Y8509D01*
G01X3060Y8559D01*
G01X3057Y8609D01*
G01X3051Y8659D01*
G01X3044Y8709D01*
G01X3034Y8759D01*
G01X3022Y8808D01*
G01X3008Y8856D01*
G01X2991Y8904D01*
G01X2973Y8951D01*
G01X2953Y8997D01*
G01X2931Y9042D01*
G01X2906Y9086D01*
G01X2880Y9129D01*
G01X2852Y9171D01*
G01X2823Y9212D01*
G01X2791Y9251D01*
G01X2758Y9289D01*
G01X2723Y9326D01*
G01X2687Y9360D01*
G01X2675Y9373D01*
G01X2666Y9387D01*
G01X2659Y9402D01*
G01X2655Y9419D01*
G01X2654Y9435D01*
G01X2655Y9451D01*
G01X2659Y9467D01*
G01X2665Y9481D01*
G01X2673Y9495D01*
G01X2684Y9507D01*
G01X2797Y9621D01*
G01X2809Y9631D01*
G01X2823Y9639D01*
G01X2837Y9645D01*
G01X2853Y9649D01*
G01X2869Y9650D01*
G01X2883Y9649D01*
G01X2898Y9646D01*
G01X2911Y9641D01*
G01X2924Y9634D01*
G01X2936Y9625D01*
G01X2946Y9615D01*
G01X2955Y9603D01*
G01X2974Y9575D01*
G01X2995Y9548D01*
G01X3017Y9523D01*
G01X3041Y9499D01*
G01X3066Y9476D01*
G01X3093Y9455D01*
G01X3121Y9435D01*
G01X3150Y9417D01*
G01X3180Y9401D01*
G01X3211Y9387D01*
G01X3243Y9375D01*
G01X3275Y9365D01*
G01X3308Y9357D01*
G01X3341Y9350D01*
G01X3375Y9346D01*
G01X3409Y9344D01*
G01X3424Y9342D01*
G01X3439Y9338D01*
G01X3453Y9332D01*
G01X3466Y9324D01*
G01X3478Y9314D01*
G01X8999Y3792D01*
G01X9021Y3772D01*
G01X9045Y3753D01*
G01X9070Y3736D01*
G01X9096Y3722D01*
G01X9124Y3709D01*
G01X9152Y3699D01*
G01X9181Y3691D01*
G01X9211Y3685D01*
G01X9240Y3681D01*
G01X9271Y3680D01*
G01X14023Y3680D01*
G01X14038Y3679D01*
G01X14054Y3675D01*
G01X14069Y3669D01*
G01X14082Y3661D01*
G01X14094Y3650D01*
G01X14718Y3026D01*
G01X14728Y3014D01*
G01X14737Y3001D01*
G01X14743Y2986D01*
G01X14747Y2971D01*
G01X14748Y2955D01*
G01X14746Y2937D01*
G01X14742Y2921D01*
G01X14735Y2905D01*
G01X14725Y2890D01*
G01X14694Y2851D01*
G01X14666Y2811D01*
G01X14639Y2770D01*
G01X14613Y2727D01*
G01X14590Y2683D01*
G01X14568Y2639D01*
G01X14549Y2593D01*
G01X14531Y2547D01*
G01X14516Y2500D01*
G01X14502Y2452D01*
G01X14490Y2404D01*
G01X14481Y2356D01*
G01X14473Y2307D01*
G01X14468Y2257D01*
G01X14465Y2208D01*
G01X14464Y2159D01*
G01X14465Y2109D01*
G01X14468Y2060D01*
G01X14473Y2012D01*
G01X14481Y1963D01*
G01X14490Y1915D01*
G01X14501Y1867D01*
G01X14515Y1820D01*
G01X14530Y1773D01*
G01X14547Y1727D01*
G01X14567Y1682D01*
G01X14588Y1638D01*
G01X14611Y1594D01*
G01X14636Y1552D01*
G01X14662Y1511D01*
G01X14691Y1471D01*
G01X14721Y1432D01*
G01X14752Y1394D01*
G01X14786Y1358D01*
G01X14820Y1324D01*
G01X14856Y1290D01*
G01X14894Y1259D01*
G01X14933Y1229D01*
G01X14973Y1200D01*
G01X15014Y1174D01*
G01X15056Y1149D01*
G01X15100Y1126D01*
G01X15144Y1105D01*
G01X15189Y1085D01*
G01X15235Y1068D01*
G01X15282Y1053D01*
G01X15329Y1039D01*
G01X15377Y1028D01*
G01X15425Y1019D01*
G01X15474Y1011D01*
G01X15522Y1006D01*
G01X15571Y1003D01*
G01X15621Y1002D01*
G01X15670Y1003D01*
G01X15719Y1006D01*
G01X15767Y1011D01*
G01X15816Y1019D01*
G01X15864Y1028D01*
G01X15912Y1039D01*
G01X15959Y1053D01*
G01X16006Y1068D01*
G01X16052Y1085D01*
G01X16097Y1105D01*
G01X16141Y1126D01*
G01X16185Y1149D01*
G01X16227Y1174D01*
G01X16268Y1200D01*
G01X16308Y1229D01*
G01X16347Y1259D01*
G01X16385Y1290D01*
G01X16421Y1324D01*
G01X16455Y1358D01*
G01X16489Y1394D01*
G01X16520Y1432D01*
G01X16550Y1471D01*
G01X16579Y1511D01*
G01X16605Y1552D01*
G01X16630Y1594D01*
G01X16653Y1638D01*
G01X16674Y1682D01*
G01X16694Y1727D01*
G01X16711Y1773D01*
G01X16726Y1820D01*
G01X16740Y1867D01*
G01X16751Y1915D01*
G01X16760Y1963D01*
G01X16768Y2012D01*
G01X16773Y2060D01*
G01X16776Y2109D01*
G01X16777Y2159D01*
G01X16776Y2208D01*
G01X16773Y2257D01*
G01X16768Y2305D01*
G01X16760Y2354D01*
G01X16751Y2402D01*
G01X16740Y2450D01*
G01X16726Y2497D01*
G01X16711Y2544D01*
G01X16694Y2590D01*
G01X16674Y2635D01*
G01X16653Y2679D01*
G01X16630Y2723D01*
G01X16605Y2765D01*
G01X16579Y2806D01*
G01X16550Y2846D01*
G01X16520Y2885D01*
G01X16489Y2923D01*
G01X16455Y2959D01*
G01X16421Y2993D01*
G01X16385Y3027D01*
G01X16347Y3058D01*
G01X16308Y3088D01*
G01X16268Y3117D01*
G01X16227Y3143D01*
G01X16185Y3168D01*
G01X16141Y3191D01*
G01X16097Y3212D01*
G01X16052Y3232D01*
G01X16006Y3249D01*
G01X15959Y3264D01*
G01X15912Y3278D01*
G01X15864Y3289D01*
G01X15816Y3298D01*
G01X15767Y3306D01*
G01X15719Y3311D01*
G01X15670Y3314D01*
G01X15621Y3315D01*
G01X15563Y3314D01*
G01X15558Y3313D01*
G01X15542Y3315D01*
G01X15527Y3318D01*
G01X15512Y3325D01*
G01X15498Y3333D01*
G01X15486Y3343D01*
G01X14495Y4335D01*
G01X14473Y4355D01*
G01X14449Y4374D01*
G01X14424Y4391D01*
G01X14398Y4405D01*
G01X14370Y4418D01*
G01X14342Y4428D01*
G01X14313Y4436D01*
G01X14283Y4442D01*
G01X14254Y4446D01*
G01X14224Y4447D01*
G01X9471Y4447D01*
G01X9456Y4448D01*
G01X9440Y4452D01*
G01X9425Y4458D01*
G01X9412Y4466D01*
G01X9400Y4477D01*
G01X4020Y9856D01*
G01X4010Y9868D01*
G01X4002Y9881D01*
G01X3996Y9895D01*
G01X3992Y9910D01*
G01X3990Y9925D01*
G01X3988Y9959D01*
G01X3984Y9993D01*
G01X3977Y10026D01*
G01X3969Y10059D01*
G01X3959Y10091D01*
G01X3947Y10123D01*
G01X3933Y10154D01*
G01X3917Y10184D01*
G01X3899Y10213D01*
G01X3879Y10241D01*
G01X3858Y10268D01*
G01X3835Y10293D01*
G01X3811Y10317D01*
G01X3786Y10339D01*
G01X3759Y10360D01*
G01X3731Y10379D01*
G01X3719Y10388D01*
G01X3709Y10398D01*
G01X3700Y10410D01*
G01X3693Y10423D01*
G01X3688Y10436D01*
G01X3685Y10451D01*
G01X3684Y10465D01*
G01X3685Y10481D01*
G01X3689Y10497D01*
G01X3695Y10511D01*
G01X3703Y10525D01*
G01X3713Y10537D01*
G01X3812Y10635D01*
G01X3824Y10646D01*
G01X3837Y10654D01*
G01X3852Y10660D01*
G01X3868Y10664D01*
G01X3883Y10665D01*
G01X6403Y10665D01*
G01X6418Y10664D01*
G01X6434Y10660D01*
G01X6449Y10654D01*
G01X6462Y10646D01*
G01X6474Y10635D01*
G01X8984Y8125D01*
G01X8995Y8113D01*
G01X9003Y8100D01*
G01X9009Y8085D01*
G01X9013Y8069D01*
G01X9014Y8054D01*
G01X9014Y6731D01*
G01X9015Y6700D01*
G01X9019Y6671D01*
G01X9025Y6641D01*
G01X9033Y6612D01*
G01X9043Y6584D01*
G01X9056Y6556D01*
G01X9070Y6530D01*
G01X9087Y6505D01*
G01X9106Y6481D01*
G01X9126Y6459D01*
G01X9761Y5824D01*
G01X9783Y5804D01*
G01X9807Y5786D01*
G01X9831Y5769D01*
G01X9857Y5754D01*
G01X9884Y5742D01*
G01X9912Y5731D01*
G01X9941Y5723D01*
G01X9970Y5717D01*
G01X9985Y5713D01*
G01X9999Y5708D01*
G01X10012Y5700D01*
G01X10024Y5690D01*
G01X10051Y5666D01*
G01X10079Y5644D01*
G01X10108Y5623D01*
G01X10139Y5605D01*
G01X10171Y5588D01*
G01X10204Y5574D01*
G01X10237Y5562D01*
G01X10272Y5552D01*
G01X10307Y5544D01*
G01X10342Y5538D01*
G01X10378Y5535D01*
G01X10414Y5533D01*
G01X10447Y5534D01*
G01X10481Y5538D01*
G01X10515Y5543D01*
G01X10548Y5550D01*
G01X10581Y5559D01*
G01X10613Y5570D01*
G01X10644Y5583D01*
G01X10675Y5598D01*
G01X10704Y5615D01*
G01X10733Y5633D01*
G01X10760Y5653D01*
G01X10786Y5675D01*
G01X10811Y5698D01*
G01X10834Y5723D01*
G01X10856Y5749D01*
G01X10876Y5776D01*
G01X10894Y5805D01*
G01X10911Y5834D01*
G01X10926Y5865D01*
G01X10939Y5896D01*
G01X10950Y5928D01*
G01X10959Y5961D01*
G01X10966Y5994D01*
G01X10971Y6028D01*
G01X10975Y6062D01*
G01X10976Y6096D01*
G01X10975Y6129D01*
G01X10971Y6163D01*
G01X10966Y6197D01*
G01X10959Y6230D01*
G01X10950Y6263D01*
G01X10939Y6295D01*
G01X10926Y6326D01*
G01X10911Y6357D01*
G01X10894Y6386D01*
G01X10876Y6415D01*
G01X10856Y6442D01*
G01X10834Y6468D01*
G01X10811Y6493D01*
G01X10786Y6516D01*
G01X10760Y6538D01*
G01X10733Y6558D01*
G01X10704Y6576D01*
G01X10675Y6593D01*
G01X10644Y6608D01*
G01X10613Y6621D01*
G01X10581Y6632D01*
G01X10548Y6641D01*
G01X10515Y6648D01*
G01X10481Y6653D01*
G01X10447Y6657D01*
G01X10414Y6658D01*
G01X10377Y6656D01*
G01X10341Y6653D01*
G01X10305Y6647D01*
G01X10269Y6639D01*
G01X10234Y6628D01*
G01X10200Y6615D01*
G01X10167Y6601D01*
G01X10153Y6595D01*
G01X10138Y6591D01*
G01X10122Y6590D01*
G01X10106Y6591D01*
G01X10091Y6595D01*
G01X10076Y6601D01*
G01X10063Y6610D01*
G01X10050Y6620D01*
G01X9811Y6860D01*
G01X9800Y6872D01*
G01X9792Y6885D01*
G01X9786Y6900D01*
G01X9782Y6916D01*
G01X9781Y6931D01*
G01X9781Y7094D01*
G01X9782Y7109D01*
G01X9785Y7123D01*
G01X9790Y7136D01*
G01X9797Y7149D01*
G01X9806Y7161D01*
G01X9816Y7171D01*
G01X9828Y7180D01*
G01X9840Y7187D01*
G01X9854Y7192D01*
G01X9868Y7195D01*
G01X9883Y7196D01*
G01X9898Y7195D01*
G01X9914Y7191D01*
G01X9928Y7185D01*
G01X9942Y7177D01*
G01X9954Y7167D01*
G01X9964Y7155D01*
G01X9986Y7128D01*
G01X10009Y7102D01*
G01X10034Y7078D01*
G01X10060Y7055D01*
G01X10088Y7034D01*
G01X10117Y7015D01*
G01X10147Y6998D01*
G01X10178Y6982D01*
G01X10210Y6969D01*
G01X10243Y6957D01*
G01X10276Y6948D01*
G01X10310Y6940D01*
G01X10344Y6935D01*
G01X10379Y6932D01*
G01X10414Y6930D01*
G01X10447Y6931D01*
G01X10481Y6935D01*
G01X10515Y6940D01*
G01X10548Y6947D01*
G01X10581Y6956D01*
G01X10613Y6967D01*
G01X10644Y6980D01*
G01X10675Y6995D01*
G01X10704Y7012D01*
G01X10733Y7030D01*
G01X10760Y7050D01*
G01X10786Y7072D01*
G01X10811Y7095D01*
G01X10834Y7120D01*
G01X10856Y7146D01*
G01X10876Y7173D01*
G01X10894Y7202D01*
G01X10911Y7231D01*
G01X10926Y7262D01*
G01X10939Y7293D01*
G01X10950Y7325D01*
G01X10959Y7358D01*
G01X10966Y7391D01*
G01X10971Y7425D01*
G01X10975Y7459D01*
G01X10976Y7493D01*
G01X10974Y7528D01*
G01X10971Y7564D01*
G01X10965Y7599D01*
G01X10957Y7634D01*
G01X10947Y7669D01*
G01X10935Y7702D01*
G01X10921Y7735D01*
G01X10904Y7767D01*
G01X10886Y7798D01*
G01X10865Y7827D01*
G01X10843Y7855D01*
G01X10819Y7882D01*
G01X10809Y7894D01*
G01X10801Y7907D01*
G01X10796Y7921D01*
G01X10792Y7936D01*
G01X10786Y7965D01*
G01X10778Y7994D01*
G01X10767Y8022D01*
G01X10755Y8049D01*
G01X10740Y8075D01*
G01X10723Y8099D01*
G01X10705Y8123D01*
G01X10685Y8145D01*
G01X7002Y11828D01*
G01X6980Y11848D01*
G01X6956Y11867D01*
G01X6931Y11884D01*
G01X6905Y11898D01*
G01X6877Y11911D01*
G01X6849Y11921D01*
G01X6820Y11929D01*
G01X6790Y11935D01*
G01X6761Y11939D01*
G01X6731Y11940D01*
G01X2677Y11940D01*
G01X2660Y11941D01*
G01X2644Y11946D01*
G01X2629Y11952D01*
G01X2615Y11961D01*
G01X2574Y11992D01*
G01X2531Y12020D01*
G01X2488Y12047D01*
G01X2443Y12072D01*
G01X2398Y12095D01*
G01X2351Y12115D01*
G01X2304Y12134D01*
G01X2256Y12150D01*
G01X2207Y12165D01*
G01X2157Y12177D01*
G01X2107Y12187D01*
G01X2057Y12195D01*
G01X2006Y12201D01*
G01X1955Y12204D01*
G37*
G36*
G01X22258Y25453D02*
G01X22225Y25454D01*
G01X22191Y25453D01*
G01X22157Y25449D01*
G01X22123Y25444D01*
G01X22090Y25437D01*
G01X22057Y25428D01*
G01X22025Y25417D01*
G01X21994Y25404D01*
G01X21963Y25389D01*
G01X21934Y25372D01*
G01X21905Y25354D01*
G01X21878Y25334D01*
G01X21852Y25312D01*
G01X21827Y25289D01*
G01X21804Y25264D01*
G01X21782Y25238D01*
G01X21762Y25211D01*
G01X21744Y25182D01*
G01X21727Y25153D01*
G01X21712Y25122D01*
G01X21699Y25091D01*
G01X21688Y25059D01*
G01X21679Y25026D01*
G01X21672Y24993D01*
G01X21667Y24959D01*
G01X21663Y24925D01*
G01X21662Y24892D01*
G01X21664Y24854D01*
G01X21667Y24817D01*
G01X21673Y24781D01*
G01X21682Y24745D01*
G01X21693Y24709D01*
G01X21706Y24674D01*
G01X21712Y24655D01*
G01X21714Y24635D01*
G01X21714Y23777D01*
G01X21713Y23762D01*
G01X21710Y23748D01*
G01X21705Y23735D01*
G01X21698Y23722D01*
G01X21689Y23710D01*
G01X21679Y23700D01*
G01X21667Y23691D01*
G01X21655Y23684D01*
G01X21641Y23679D01*
G01X21627Y23676D01*
G01X21612Y23675D01*
G01X21596Y23676D01*
G01X21581Y23680D01*
G01X21566Y23686D01*
G01X21553Y23695D01*
G01X21541Y23705D01*
G01X20464Y24782D01*
G01X20442Y24802D01*
G01X20418Y24821D01*
G01X20393Y24838D01*
G01X20367Y24852D01*
G01X20339Y24865D01*
G01X20311Y24875D01*
G01X20282Y24883D01*
G01X20252Y24889D01*
G01X20223Y24893D01*
G01X20193Y24894D01*
G01X19121Y24894D01*
G01X19106Y24895D01*
G01X19091Y24899D01*
G01X19077Y24904D01*
G01X19064Y24912D01*
G01X19052Y24921D01*
G01X19026Y24945D01*
G01X18998Y24966D01*
G01X18969Y24986D01*
G01X18938Y25004D01*
G01X18907Y25019D01*
G01X18875Y25033D01*
G01X18842Y25045D01*
G01X18808Y25055D01*
G01X18773Y25063D01*
G01X18739Y25068D01*
G01X18704Y25071D01*
G01X18669Y25073D01*
G01X18635Y25072D01*
G01X18601Y25068D01*
G01X18567Y25063D01*
G01X18534Y25056D01*
G01X18501Y25047D01*
G01X18469Y25036D01*
G01X18438Y25023D01*
G01X18407Y25008D01*
G01X18378Y24991D01*
G01X18349Y24973D01*
G01X18322Y24953D01*
G01X18296Y24931D01*
G01X18271Y24908D01*
G01X18248Y24883D01*
G01X18226Y24857D01*
G01X18206Y24830D01*
G01X18188Y24801D01*
G01X18171Y24772D01*
G01X18156Y24741D01*
G01X18143Y24710D01*
G01X18132Y24678D01*
G01X18123Y24645D01*
G01X18116Y24612D01*
G01X18111Y24578D01*
G01X18107Y24544D01*
G01X18106Y24511D01*
G01X18107Y24477D01*
G01X18111Y24443D01*
G01X18116Y24409D01*
G01X18123Y24376D01*
G01X18132Y24343D01*
G01X18143Y24311D01*
G01X18156Y24280D01*
G01X18171Y24249D01*
G01X18188Y24220D01*
G01X18206Y24191D01*
G01X18226Y24164D01*
G01X18248Y24138D01*
G01X18271Y24113D01*
G01X18296Y24090D01*
G01X18322Y24068D01*
G01X18349Y24048D01*
G01X18378Y24030D01*
G01X18407Y24013D01*
G01X18438Y23998D01*
G01X18469Y23985D01*
G01X18501Y23974D01*
G01X18534Y23965D01*
G01X18567Y23958D01*
G01X18601Y23953D01*
G01X18635Y23949D01*
G01X18669Y23948D01*
G01X18704Y23950D01*
G01X18739Y23953D01*
G01X18773Y23958D01*
G01X18808Y23966D01*
G01X18842Y23976D01*
G01X18875Y23988D01*
G01X18907Y24002D01*
G01X18938Y24017D01*
G01X18969Y24035D01*
G01X18998Y24055D01*
G01X19026Y24076D01*
G01X19052Y24100D01*
G01X19064Y24109D01*
G01X19077Y24117D01*
G01X19091Y24122D01*
G01X19106Y24126D01*
G01X19121Y24127D01*
G01X19992Y24127D01*
G01X20007Y24126D01*
G01X20023Y24122D01*
G01X20038Y24116D01*
G01X20051Y24108D01*
G01X20063Y24097D01*
G01X21176Y22984D01*
G01X21187Y22972D01*
G01X21195Y22959D01*
G01X21201Y22944D01*
G01X21205Y22928D01*
G01X21206Y22913D01*
G01X21206Y11684D01*
G01X21207Y11653D01*
G01X21211Y11624D01*
G01X21217Y11594D01*
G01X21225Y11565D01*
G01X21235Y11537D01*
G01X21248Y11509D01*
G01X21262Y11483D01*
G01X21279Y11458D01*
G01X21298Y11434D01*
G01X21318Y11412D01*
G01X23672Y9058D01*
G01X23683Y9046D01*
G01X23691Y9032D01*
G01X23697Y9018D01*
G01X23701Y9002D01*
G01X23702Y8986D01*
G01X23700Y8967D01*
G01X23695Y8948D01*
G01X23677Y8901D01*
G01X23661Y8854D01*
G01X23647Y8805D01*
G01X23635Y8757D01*
G01X23625Y8708D01*
G01X23618Y8658D01*
G01X23612Y8608D01*
G01X23609Y8559D01*
G01X23608Y8509D01*
G01X23609Y8459D01*
G01X23612Y8410D01*
G01X23617Y8362D01*
G01X23625Y8313D01*
G01X23634Y8265D01*
G01X23645Y8217D01*
G01X23659Y8170D01*
G01X23674Y8123D01*
G01X23691Y8077D01*
G01X23711Y8032D01*
G01X23732Y7988D01*
G01X23755Y7944D01*
G01X23780Y7902D01*
G01X23806Y7861D01*
G01X23835Y7821D01*
G01X23865Y7782D01*
G01X23896Y7744D01*
G01X23930Y7708D01*
G01X23964Y7674D01*
G01X24000Y7640D01*
G01X24038Y7609D01*
G01X24077Y7579D01*
G01X24117Y7550D01*
G01X24158Y7524D01*
G01X24200Y7499D01*
G01X24244Y7476D01*
G01X24288Y7455D01*
G01X24333Y7435D01*
G01X24379Y7418D01*
G01X24426Y7403D01*
G01X24473Y7389D01*
G01X24521Y7378D01*
G01X24569Y7369D01*
G01X24618Y7361D01*
G01X24666Y7356D01*
G01X24715Y7353D01*
G01X24765Y7352D01*
G01X24814Y7353D01*
G01X24863Y7356D01*
G01X24911Y7361D01*
G01X24960Y7369D01*
G01X25008Y7378D01*
G01X25056Y7389D01*
G01X25103Y7403D01*
G01X25150Y7418D01*
G01X25196Y7435D01*
G01X25241Y7455D01*
G01X25285Y7476D01*
G01X25329Y7499D01*
G01X25371Y7524D01*
G01X25412Y7550D01*
G01X25452Y7579D01*
G01X25491Y7609D01*
G01X25529Y7640D01*
G01X25565Y7674D01*
G01X25599Y7708D01*
G01X25633Y7744D01*
G01X25664Y7782D01*
G01X25694Y7821D01*
G01X25723Y7861D01*
G01X25749Y7902D01*
G01X25774Y7944D01*
G01X25797Y7988D01*
G01X25818Y8032D01*
G01X25838Y8077D01*
G01X25855Y8123D01*
G01X25870Y8170D01*
G01X25884Y8217D01*
G01X25895Y8265D01*
G01X25904Y8313D01*
G01X25912Y8362D01*
G01X25917Y8410D01*
G01X25920Y8459D01*
G01X25921Y8509D01*
G01X25920Y8558D01*
G01X25917Y8607D01*
G01X25912Y8655D01*
G01X25904Y8704D01*
G01X25895Y8752D01*
G01X25884Y8800D01*
G01X25870Y8847D01*
G01X25855Y8894D01*
G01X25838Y8940D01*
G01X25818Y8985D01*
G01X25797Y9029D01*
G01X25774Y9073D01*
G01X25749Y9115D01*
G01X25723Y9156D01*
G01X25694Y9196D01*
G01X25664Y9235D01*
G01X25633Y9273D01*
G01X25599Y9309D01*
G01X25565Y9343D01*
G01X25529Y9377D01*
G01X25491Y9408D01*
G01X25452Y9438D01*
G01X25412Y9467D01*
G01X25371Y9493D01*
G01X25329Y9518D01*
G01X25285Y9541D01*
G01X25241Y9562D01*
G01X25196Y9582D01*
G01X25150Y9599D01*
G01X25103Y9614D01*
G01X25056Y9628D01*
G01X25008Y9639D01*
G01X24960Y9648D01*
G01X24911Y9656D01*
G01X24863Y9661D01*
G01X24814Y9664D01*
G01X24765Y9665D01*
G01X24714Y9664D01*
G01X24665Y9661D01*
G01X24615Y9655D01*
G01X24565Y9648D01*
G01X24516Y9638D01*
G01X24468Y9626D01*
G01X24419Y9612D01*
G01X24372Y9596D01*
G01X24325Y9578D01*
G01X24306Y9573D01*
G01X24287Y9571D01*
G01X24271Y9572D01*
G01X24255Y9576D01*
G01X24241Y9582D01*
G01X24227Y9590D01*
G01X24215Y9601D01*
G01X23324Y10492D01*
G01X23314Y10504D01*
G01X23305Y10517D01*
G01X23299Y10532D01*
G01X23295Y10547D01*
G01X23294Y10563D01*
G01X23295Y10578D01*
G01X23298Y10592D01*
G01X23303Y10606D01*
G01X23310Y10618D01*
G01X23319Y10630D01*
G01X23329Y10640D01*
G01X23341Y10649D01*
G01X23354Y10656D01*
G01X23367Y10661D01*
G01X23381Y10664D01*
G01X23396Y10665D01*
G01X23604Y10665D01*
G01X23619Y10664D01*
G01X23633Y10661D01*
G01X23647Y10655D01*
G01X23660Y10648D01*
G01X23672Y10639D01*
G01X23682Y10628D01*
G01X23691Y10616D01*
G01X23697Y10603D01*
G01X23717Y10558D01*
G01X23739Y10515D01*
G01X23762Y10472D01*
G01X23787Y10431D01*
G01X23814Y10390D01*
G01X23842Y10351D01*
G01X23872Y10313D01*
G01X23904Y10276D01*
G01X23937Y10240D01*
G01X23972Y10206D01*
G01X24008Y10174D01*
G01X24045Y10143D01*
G01X24084Y10114D01*
G01X24123Y10086D01*
G01X24164Y10060D01*
G01X24206Y10036D01*
G01X24249Y10013D01*
G01X24293Y9992D01*
G01X24338Y9973D01*
G01X24430Y9941D01*
G01X24476Y9928D01*
G01X24524Y9917D01*
G01X24571Y9908D01*
G01X24619Y9901D01*
G01X24668Y9896D01*
G01X24716Y9893D01*
G01X24765Y9892D01*
G01X24814Y9893D01*
G01X24863Y9896D01*
G01X24911Y9901D01*
G01X24960Y9909D01*
G01X25008Y9918D01*
G01X25056Y9929D01*
G01X25103Y9943D01*
G01X25150Y9958D01*
G01X25196Y9975D01*
G01X25241Y9995D01*
G01X25285Y10016D01*
G01X25329Y10039D01*
G01X25371Y10064D01*
G01X25412Y10090D01*
G01X25452Y10119D01*
G01X25491Y10149D01*
G01X25529Y10180D01*
G01X25565Y10214D01*
G01X25599Y10248D01*
G01X25633Y10284D01*
G01X25664Y10322D01*
G01X25694Y10361D01*
G01X25723Y10401D01*
G01X25749Y10442D01*
G01X25774Y10484D01*
G01X25797Y10528D01*
G01X25818Y10572D01*
G01X25838Y10617D01*
G01X25855Y10663D01*
G01X25870Y10710D01*
G01X25884Y10757D01*
G01X25895Y10805D01*
G01X25904Y10853D01*
G01X25912Y10902D01*
G01X25917Y10950D01*
G01X25920Y10999D01*
G01X25921Y11049D01*
G01X25920Y11098D01*
G01X25917Y11147D01*
G01X25912Y11195D01*
G01X25904Y11244D01*
G01X25895Y11292D01*
G01X25884Y11340D01*
G01X25870Y11387D01*
G01X25855Y11434D01*
G01X25838Y11480D01*
G01X25818Y11525D01*
G01X25797Y11569D01*
G01X25774Y11613D01*
G01X25749Y11655D01*
G01X25723Y11696D01*
G01X25694Y11736D01*
G01X25664Y11775D01*
G01X25633Y11813D01*
G01X25599Y11849D01*
G01X25565Y11883D01*
G01X25529Y11917D01*
G01X25491Y11948D01*
G01X25452Y11978D01*
G01X25412Y12007D01*
G01X25371Y12033D01*
G01X25329Y12058D01*
G01X25285Y12081D01*
G01X25241Y12102D01*
G01X25196Y12122D01*
G01X25150Y12139D01*
G01X25103Y12154D01*
G01X25056Y12168D01*
G01X25008Y12179D01*
G01X24960Y12188D01*
G01X24911Y12196D01*
G01X24863Y12201D01*
G01X24814Y12204D01*
G01X24765Y12205D01*
G01X24716Y12204D01*
G01X24668Y12201D01*
G01X24619Y12196D01*
G01X24571Y12189D01*
G01X24524Y12180D01*
G01X24476Y12169D01*
G01X24430Y12156D01*
G01X24338Y12124D01*
G01X24293Y12105D01*
G01X24249Y12084D01*
G01X24206Y12061D01*
G01X24164Y12037D01*
G01X24123Y12011D01*
G01X24084Y11983D01*
G01X24045Y11954D01*
G01X24008Y11923D01*
G01X23972Y11891D01*
G01X23937Y11857D01*
G01X23904Y11821D01*
G01X23872Y11784D01*
G01X23842Y11746D01*
G01X23814Y11707D01*
G01X23787Y11666D01*
G01X23762Y11625D01*
G01X23739Y11582D01*
G01X23717Y11539D01*
G01X23697Y11494D01*
G01X23691Y11481D01*
G01X23682Y11469D01*
G01X23672Y11458D01*
G01X23660Y11449D01*
G01X23647Y11442D01*
G01X23633Y11436D01*
G01X23619Y11433D01*
G01X23604Y11432D01*
G01X23187Y11432D01*
G01X23172Y11433D01*
G01X23156Y11437D01*
G01X23141Y11443D01*
G01X23128Y11451D01*
G01X23116Y11462D01*
G01X22511Y12067D01*
G01X22500Y12079D01*
G01X22492Y12092D01*
G01X22486Y12107D01*
G01X22482Y12123D01*
G01X22481Y12138D01*
G01X22481Y12350D01*
G01X22482Y12365D01*
G01X22485Y12379D01*
G01X22490Y12393D01*
G01X22497Y12405D01*
G01X22506Y12417D01*
G01X22516Y12427D01*
G01X22528Y12436D01*
G01X22540Y12443D01*
G01X22554Y12448D01*
G01X22568Y12451D01*
G01X22583Y12452D01*
G01X22597Y12451D01*
G01X22611Y12448D01*
G01X22625Y12443D01*
G01X22657Y12429D01*
G01X22689Y12418D01*
G01X22723Y12408D01*
G01X22756Y12401D01*
G01X22791Y12396D01*
G01X22825Y12393D01*
G01X22860Y12391D01*
G01X22893Y12392D01*
G01X22927Y12396D01*
G01X22961Y12401D01*
G01X22994Y12408D01*
G01X23027Y12417D01*
G01X23059Y12428D01*
G01X23090Y12441D01*
G01X23121Y12456D01*
G01X23150Y12473D01*
G01X23179Y12491D01*
G01X23206Y12511D01*
G01X23232Y12533D01*
G01X23257Y12556D01*
G01X23280Y12581D01*
G01X23302Y12607D01*
G01X23322Y12634D01*
G01X23340Y12663D01*
G01X23357Y12692D01*
G01X23372Y12723D01*
G01X23385Y12754D01*
G01X23396Y12786D01*
G01X23405Y12819D01*
G01X23412Y12852D01*
G01X23417Y12886D01*
G01X23421Y12920D01*
G01X23422Y12954D01*
G01X23420Y12989D01*
G01X23417Y13024D01*
G01X23412Y13058D01*
G01X23404Y13093D01*
G01X23394Y13127D01*
G01X23382Y13160D01*
G01X23368Y13192D01*
G01X23353Y13223D01*
G01X23335Y13254D01*
G01X23315Y13283D01*
G01X23294Y13311D01*
G01X23270Y13337D01*
G01X23261Y13349D01*
G01X23253Y13362D01*
G01X23248Y13376D01*
G01X23244Y13391D01*
G01X23243Y13406D01*
G01X23243Y17030D01*
G01X23244Y17046D01*
G01X23248Y17061D01*
G01X23253Y17075D01*
G01X23261Y17088D01*
G01X23271Y17100D01*
G01X23282Y17111D01*
G01X23295Y17119D01*
G01X23309Y17126D01*
G01X23341Y17139D01*
G01X23372Y17153D01*
G01X23402Y17170D01*
G01X23430Y17188D01*
G01X23458Y17208D01*
G01X23484Y17230D01*
G01X23509Y17253D01*
G01X23533Y17278D01*
G01X23555Y17304D01*
G01X23575Y17332D01*
G01X23594Y17360D01*
G01X23610Y17390D01*
G01X23625Y17421D01*
G01X23639Y17452D01*
G01X23650Y17484D01*
G01X23659Y17517D01*
G01X23666Y17551D01*
G01X23671Y17584D01*
G01X23675Y17618D01*
G01X23676Y17653D01*
G01X23675Y17686D01*
G01X23671Y17720D01*
G01X23666Y17754D01*
G01X23659Y17787D01*
G01X23650Y17820D01*
G01X23639Y17852D01*
G01X23626Y17883D01*
G01X23611Y17914D01*
G01X23594Y17943D01*
G01X23576Y17972D01*
G01X23556Y17999D01*
G01X23534Y18025D01*
G01X23511Y18050D01*
G01X23486Y18073D01*
G01X23460Y18095D01*
G01X23433Y18115D01*
G01X23404Y18133D01*
G01X23375Y18150D01*
G01X23344Y18165D01*
G01X23313Y18178D01*
G01X23281Y18189D01*
G01X23248Y18198D01*
G01X23215Y18205D01*
G01X23181Y18210D01*
G01X23147Y18214D01*
G01X23114Y18215D01*
G01X23079Y18213D01*
G01X23044Y18210D01*
G01X23010Y18205D01*
G01X22976Y18197D01*
G01X22943Y18188D01*
G01X22910Y18176D01*
G01X22878Y18163D01*
G01X22847Y18147D01*
G01X22817Y18130D01*
G01X22788Y18111D01*
G01X22760Y18090D01*
G01X22734Y18067D01*
G01X22709Y18043D01*
G01X22686Y18017D01*
G01X22664Y17990D01*
G01X22654Y17978D01*
G01X22642Y17968D01*
G01X22628Y17960D01*
G01X22614Y17954D01*
G01X22598Y17950D01*
G01X22583Y17949D01*
G01X22568Y17950D01*
G01X22554Y17953D01*
G01X22540Y17958D01*
G01X22528Y17965D01*
G01X22516Y17974D01*
G01X22506Y17984D01*
G01X22497Y17996D01*
G01X22490Y18009D01*
G01X22485Y18022D01*
G01X22482Y18036D01*
G01X22481Y18051D01*
G01X22481Y24333D01*
G01X22482Y24347D01*
G01X22485Y24361D01*
G01X22490Y24375D01*
G01X22497Y24388D01*
G01X22506Y24399D01*
G01X22516Y24410D01*
G01X22528Y24418D01*
G01X22557Y24438D01*
G01X22584Y24460D01*
G01X22611Y24483D01*
G01X22636Y24508D01*
G01X22659Y24535D01*
G01X22680Y24562D01*
G01X22700Y24592D01*
G01X22718Y24622D01*
G01X22734Y24653D01*
G01X22747Y24685D01*
G01X22759Y24719D01*
G01X22769Y24752D01*
G01X22777Y24787D01*
G01X22782Y24821D01*
G01X22785Y24856D01*
G01X22787Y24892D01*
G01X22786Y24925D01*
G01X22782Y24959D01*
G01X22777Y24993D01*
G01X22770Y25026D01*
G01X22761Y25059D01*
G01X22750Y25091D01*
G01X22737Y25122D01*
G01X22722Y25153D01*
G01X22705Y25182D01*
G01X22687Y25211D01*
G01X22667Y25238D01*
G01X22645Y25264D01*
G01X22622Y25289D01*
G01X22597Y25312D01*
G01X22571Y25334D01*
G01X22544Y25354D01*
G01X22515Y25372D01*
G01X22486Y25389D01*
G01X22455Y25404D01*
G01X22424Y25417D01*
G01X22392Y25428D01*
G01X22359Y25437D01*
G01X22326Y25444D01*
G01X22292Y25449D01*
G01X22258Y25453D01*
G37*
G36*
G01X1954Y19824D02*
G01X1905Y19825D01*
G01X1855Y19824D01*
G01X1806Y19821D01*
G01X1758Y19816D01*
G01X1709Y19808D01*
G01X1661Y19799D01*
G01X1613Y19788D01*
G01X1566Y19774D01*
G01X1519Y19759D01*
G01X1473Y19742D01*
G01X1428Y19722D01*
G01X1384Y19701D01*
G01X1340Y19678D01*
G01X1298Y19653D01*
G01X1257Y19627D01*
G01X1217Y19598D01*
G01X1178Y19568D01*
G01X1140Y19537D01*
G01X1104Y19503D01*
G01X1070Y19469D01*
G01X1036Y19433D01*
G01X1005Y19395D01*
G01X975Y19356D01*
G01X946Y19316D01*
G01X920Y19275D01*
G01X895Y19233D01*
G01X872Y19189D01*
G01X851Y19145D01*
G01X831Y19100D01*
G01X814Y19054D01*
G01X799Y19007D01*
G01X785Y18960D01*
G01X774Y18912D01*
G01X765Y18864D01*
G01X757Y18815D01*
G01X752Y18767D01*
G01X749Y18718D01*
G01X748Y18669D01*
G01X749Y18619D01*
G01X752Y18570D01*
G01X757Y18522D01*
G01X765Y18473D01*
G01X774Y18425D01*
G01X785Y18377D01*
G01X799Y18330D01*
G01X814Y18283D01*
G01X831Y18237D01*
G01X851Y18192D01*
G01X872Y18148D01*
G01X895Y18104D01*
G01X920Y18062D01*
G01X946Y18021D01*
G01X975Y17981D01*
G01X1005Y17942D01*
G01X1036Y17904D01*
G01X1070Y17868D01*
G01X1104Y17834D01*
G01X1140Y17800D01*
G01X1178Y17769D01*
G01X1217Y17739D01*
G01X1257Y17710D01*
G01X1298Y17684D01*
G01X1340Y17659D01*
G01X1384Y17636D01*
G01X1428Y17615D01*
G01X1473Y17595D01*
G01X1519Y17578D01*
G01X1566Y17563D01*
G01X1613Y17549D01*
G01X1661Y17538D01*
G01X1709Y17529D01*
G01X1758Y17521D01*
G01X1806Y17516D01*
G01X1855Y17513D01*
G01X1905Y17512D01*
G01X1955Y17513D01*
G01X2004Y17516D01*
G01X2054Y17522D01*
G01X2104Y17529D01*
G01X2153Y17539D01*
G01X2201Y17551D01*
G01X2250Y17565D01*
G01X2297Y17581D01*
G01X2344Y17599D01*
G01X2363Y17604D01*
G01X2382Y17606D01*
G01X2398Y17605D01*
G01X2414Y17601D01*
G01X2428Y17595D01*
G01X2442Y17587D01*
G01X2454Y17576D01*
G01X3345Y16685D01*
G01X3355Y16673D01*
G01X3364Y16660D01*
G01X3370Y16645D01*
G01X3374Y16630D01*
G01X3375Y16614D01*
G01X3374Y16599D01*
G01X3371Y16585D01*
G01X3366Y16571D01*
G01X3359Y16559D01*
G01X3350Y16547D01*
G01X3340Y16537D01*
G01X3328Y16528D01*
G01X3315Y16521D01*
G01X3302Y16516D01*
G01X3288Y16513D01*
G01X3273Y16512D01*
G01X3065Y16512D01*
G01X3050Y16513D01*
G01X3036Y16516D01*
G01X3022Y16522D01*
G01X3009Y16529D01*
G01X2997Y16538D01*
G01X2987Y16549D01*
G01X2978Y16561D01*
G01X2972Y16574D01*
G01X2952Y16619D01*
G01X2930Y16662D01*
G01X2907Y16705D01*
G01X2882Y16746D01*
G01X2855Y16787D01*
G01X2827Y16826D01*
G01X2797Y16864D01*
G01X2765Y16901D01*
G01X2732Y16937D01*
G01X2697Y16971D01*
G01X2661Y17003D01*
G01X2624Y17034D01*
G01X2585Y17063D01*
G01X2546Y17091D01*
G01X2505Y17117D01*
G01X2463Y17141D01*
G01X2420Y17164D01*
G01X2376Y17185D01*
G01X2331Y17204D01*
G01X2286Y17220D01*
G01X2239Y17236D01*
G01X2193Y17249D01*
G01X2145Y17260D01*
G01X2098Y17269D01*
G01X2050Y17276D01*
G01X2001Y17281D01*
G01X1953Y17284D01*
G01X1905Y17285D01*
G01X1855Y17284D01*
G01X1806Y17281D01*
G01X1758Y17276D01*
G01X1709Y17268D01*
G01X1661Y17259D01*
G01X1613Y17248D01*
G01X1566Y17234D01*
G01X1519Y17219D01*
G01X1473Y17202D01*
G01X1428Y17182D01*
G01X1384Y17161D01*
G01X1340Y17138D01*
G01X1298Y17113D01*
G01X1257Y17087D01*
G01X1217Y17058D01*
G01X1178Y17028D01*
G01X1140Y16997D01*
G01X1104Y16963D01*
G01X1070Y16929D01*
G01X1036Y16893D01*
G01X1005Y16855D01*
G01X975Y16816D01*
G01X946Y16776D01*
G01X920Y16735D01*
G01X895Y16693D01*
G01X872Y16649D01*
G01X851Y16605D01*
G01X831Y16560D01*
G01X814Y16514D01*
G01X799Y16467D01*
G01X785Y16420D01*
G01X774Y16372D01*
G01X765Y16324D01*
G01X757Y16275D01*
G01X752Y16227D01*
G01X749Y16178D01*
G01X748Y16129D01*
G01X749Y16079D01*
G01X752Y16030D01*
G01X757Y15982D01*
G01X765Y15933D01*
G01X774Y15885D01*
G01X785Y15837D01*
G01X799Y15790D01*
G01X814Y15743D01*
G01X831Y15697D01*
G01X851Y15652D01*
G01X872Y15608D01*
G01X895Y15564D01*
G01X920Y15522D01*
G01X946Y15481D01*
G01X975Y15441D01*
G01X1005Y15402D01*
G01X1036Y15364D01*
G01X1070Y15328D01*
G01X1104Y15294D01*
G01X1140Y15260D01*
G01X1178Y15229D01*
G01X1217Y15199D01*
G01X1257Y15170D01*
G01X1298Y15144D01*
G01X1340Y15119D01*
G01X1384Y15096D01*
G01X1428Y15075D01*
G01X1473Y15055D01*
G01X1519Y15038D01*
G01X1566Y15023D01*
G01X1613Y15009D01*
G01X1661Y14998D01*
G01X1709Y14989D01*
G01X1758Y14981D01*
G01X1806Y14976D01*
G01X1855Y14973D01*
G01X1905Y14972D01*
G01X1953Y14973D01*
G01X2001Y14976D01*
G01X2050Y14981D01*
G01X2098Y14988D01*
G01X2145Y14997D01*
G01X2193Y15008D01*
G01X2239Y15021D01*
G01X2286Y15037D01*
G01X2331Y15053D01*
G01X2376Y15072D01*
G01X2420Y15093D01*
G01X2463Y15116D01*
G01X2505Y15140D01*
G01X2546Y15166D01*
G01X2585Y15194D01*
G01X2624Y15223D01*
G01X2661Y15254D01*
G01X2697Y15286D01*
G01X2732Y15320D01*
G01X2765Y15356D01*
G01X2797Y15393D01*
G01X2827Y15431D01*
G01X2855Y15470D01*
G01X2882Y15511D01*
G01X2907Y15552D01*
G01X2930Y15595D01*
G01X2952Y15638D01*
G01X2972Y15683D01*
G01X2978Y15696D01*
G01X2987Y15708D01*
G01X2997Y15719D01*
G01X3009Y15728D01*
G01X3022Y15735D01*
G01X3036Y15741D01*
G01X3050Y15744D01*
G01X3065Y15745D01*
G01X3609Y15745D01*
G01X3624Y15744D01*
G01X3640Y15740D01*
G01X3655Y15734D01*
G01X3668Y15726D01*
G01X3680Y15715D01*
G01X9634Y9761D01*
G01X9656Y9741D01*
G01X9680Y9722D01*
G01X9705Y9705D01*
G01X9731Y9691D01*
G01X9759Y9678D01*
G01X9787Y9668D01*
G01X9816Y9660D01*
G01X9846Y9654D01*
G01X9875Y9650D01*
G01X9906Y9649D01*
G01X9961Y9649D01*
G01X9976Y9648D01*
G01X9991Y9644D01*
G01X10005Y9639D01*
G01X10018Y9631D01*
G01X10030Y9622D01*
G01X10056Y9598D01*
G01X10084Y9577D01*
G01X10113Y9557D01*
G01X10144Y9539D01*
G01X10175Y9524D01*
G01X10207Y9510D01*
G01X10240Y9498D01*
G01X10274Y9488D01*
G01X10309Y9480D01*
G01X10343Y9475D01*
G01X10378Y9472D01*
G01X10414Y9470D01*
G01X10447Y9471D01*
G01X10481Y9475D01*
G01X10515Y9480D01*
G01X10548Y9487D01*
G01X10581Y9496D01*
G01X10613Y9507D01*
G01X10644Y9520D01*
G01X10675Y9535D01*
G01X10704Y9552D01*
G01X10733Y9570D01*
G01X10760Y9590D01*
G01X10786Y9612D01*
G01X10811Y9635D01*
G01X10834Y9660D01*
G01X10856Y9686D01*
G01X10876Y9713D01*
G01X10894Y9742D01*
G01X10911Y9771D01*
G01X10926Y9802D01*
G01X10939Y9833D01*
G01X10950Y9865D01*
G01X10959Y9898D01*
G01X10966Y9931D01*
G01X10971Y9965D01*
G01X10975Y9999D01*
G01X10976Y10033D01*
G01X10975Y10067D01*
G01X10971Y10101D01*
G01X10966Y10134D01*
G01X10959Y10168D01*
G01X10950Y10201D01*
G01X10939Y10233D01*
G01X10925Y10264D01*
G01X10910Y10295D01*
G01X10894Y10325D01*
G01X10875Y10353D01*
G01X10855Y10381D01*
G01X10833Y10407D01*
G01X10809Y10432D01*
G01X10784Y10455D01*
G01X10758Y10477D01*
G01X10730Y10497D01*
G01X10701Y10515D01*
G01X10672Y10532D01*
G01X10641Y10547D01*
G01X10609Y10559D01*
G01X10577Y10570D01*
G01X10563Y10575D01*
G01X10551Y10582D01*
G01X10539Y10591D01*
G01X10529Y10601D01*
G01X10521Y10613D01*
G01X10514Y10626D01*
G01X10509Y10639D01*
G01X10506Y10653D01*
G01X10505Y10668D01*
G01X10506Y10682D01*
G01X10509Y10696D01*
G01X10514Y10709D01*
G01X10521Y10722D01*
G01X10529Y10734D01*
G01X10539Y10744D01*
G01X10551Y10753D01*
G01X10563Y10760D01*
G01X10577Y10765D01*
G01X10609Y10776D01*
G01X10641Y10788D01*
G01X10672Y10803D01*
G01X10701Y10820D01*
G01X10730Y10838D01*
G01X10758Y10858D01*
G01X10784Y10880D01*
G01X10809Y10903D01*
G01X10833Y10928D01*
G01X10855Y10954D01*
G01X10875Y10982D01*
G01X10894Y11010D01*
G01X10910Y11040D01*
G01X10925Y11071D01*
G01X10939Y11102D01*
G01X10950Y11134D01*
G01X10959Y11167D01*
G01X10966Y11201D01*
G01X10971Y11234D01*
G01X10975Y11268D01*
G01X10976Y11303D01*
G01X10975Y11336D01*
G01X10971Y11370D01*
G01X10966Y11404D01*
G01X10959Y11437D01*
G01X10950Y11470D01*
G01X10939Y11502D01*
G01X10926Y11533D01*
G01X10911Y11564D01*
G01X10894Y11593D01*
G01X10876Y11622D01*
G01X10856Y11649D01*
G01X10834Y11675D01*
G01X10811Y11700D01*
G01X10786Y11723D01*
G01X10760Y11745D01*
G01X10733Y11765D01*
G01X10704Y11783D01*
G01X10675Y11800D01*
G01X10644Y11815D01*
G01X10613Y11828D01*
G01X10581Y11839D01*
G01X10548Y11848D01*
G01X10515Y11855D01*
G01X10481Y11860D01*
G01X10447Y11864D01*
G01X10414Y11865D01*
G01X10378Y11863D01*
G01X10343Y11860D01*
G01X10309Y11855D01*
G01X10274Y11847D01*
G01X10240Y11837D01*
G01X10207Y11825D01*
G01X10175Y11811D01*
G01X10144Y11796D01*
G01X10113Y11778D01*
G01X10084Y11758D01*
G01X10056Y11737D01*
G01X10030Y11713D01*
G01X10018Y11704D01*
G01X10005Y11696D01*
G01X9991Y11691D01*
G01X9976Y11687D01*
G01X9961Y11686D01*
G01X9471Y11686D01*
G01X9456Y11687D01*
G01X9440Y11691D01*
G01X9425Y11697D01*
G01X9412Y11705D01*
G01X9400Y11716D01*
G01X3271Y17844D01*
G01X3261Y17856D01*
G01X3253Y17870D01*
G01X3246Y17885D01*
G01X3243Y17900D01*
G01X3241Y17916D01*
G01X3242Y17930D01*
G01X3246Y17945D01*
G01X3251Y17958D01*
G01X3258Y17971D01*
G01X3266Y17983D01*
G01X3277Y17993D01*
G01X3288Y18001D01*
G01X3301Y18008D01*
G01X3314Y18014D01*
G01X3329Y18017D01*
G01X3343Y18018D01*
G01X3749Y18018D01*
G01X3749Y18836D01*
G01X3134Y18836D01*
G01X3118Y18837D01*
G01X3103Y18840D01*
G01X3089Y18846D01*
G01X3076Y18853D01*
G01X3064Y18863D01*
G01X3054Y18874D01*
G01X3045Y18887D01*
G01X3039Y18901D01*
G01X3034Y18915D01*
G01X3022Y18967D01*
G01X3007Y19019D01*
G01X2989Y19069D01*
G01X2970Y19119D01*
G01X2948Y19168D01*
G01X2924Y19215D01*
G01X2897Y19262D01*
G01X2869Y19307D01*
G01X2841Y19348D01*
G01X2811Y19387D01*
G01X2779Y19425D01*
G01X2746Y19462D01*
G01X2711Y19498D01*
G01X2675Y19531D01*
G01X2637Y19564D01*
G01X2598Y19594D01*
G01X2558Y19623D01*
G01X2516Y19650D01*
G01X2474Y19675D01*
G01X2430Y19699D01*
G01X2385Y19720D01*
G01X2340Y19740D01*
G01X2293Y19758D01*
G01X2246Y19773D01*
G01X2199Y19787D01*
G01X2150Y19799D01*
G01X2102Y19808D01*
G01X2053Y19815D01*
G01X2004Y19821D01*
G01X1954Y19824D01*
G37*
G36*
G01X6604Y22869D02*
G01X6563Y22870D01*
G01X6522Y22869D01*
G01X6481Y22866D01*
G01X6441Y22861D01*
G01X6401Y22854D01*
G01X6361Y22845D01*
G01X6321Y22833D01*
G01X6283Y22820D01*
G01X6245Y22805D01*
G01X6208Y22788D01*
G01X6171Y22769D01*
G01X6136Y22748D01*
G01X6102Y22726D01*
G01X6069Y22702D01*
G01X6037Y22676D01*
G01X6007Y22648D01*
G01X5978Y22620D01*
G01X5951Y22589D01*
G01X5925Y22558D01*
G01X5901Y22525D01*
G01X5878Y22490D01*
G01X5858Y22455D01*
G01X5839Y22419D01*
G01X5822Y22382D01*
G01X5807Y22344D01*
G01X5793Y22305D01*
G01X5782Y22266D01*
G01X5773Y22226D01*
G01X5766Y22186D01*
G01X5760Y22145D01*
G01X5757Y22105D01*
G01X5756Y22064D01*
G01X5757Y22023D01*
G01X5760Y21982D01*
G01X5766Y21942D01*
G01X5773Y21901D01*
G01X5782Y21862D01*
G01X5793Y21822D01*
G01X5807Y21784D01*
G01X5822Y21746D01*
G01X5839Y21709D01*
G01X5858Y21672D01*
G01X5878Y21637D01*
G01X5901Y21603D01*
G01X5925Y21570D01*
G01X5951Y21538D01*
G01X5978Y21508D01*
G01X6007Y21479D01*
G01X6037Y21452D01*
G01X6069Y21426D01*
G01X6102Y21402D01*
G01X6136Y21379D01*
G01X6171Y21359D01*
G01X6208Y21340D01*
G01X6245Y21323D01*
G01X6283Y21308D01*
G01X6321Y21294D01*
G01X6361Y21283D01*
G01X6401Y21274D01*
G01X6441Y21267D01*
G01X6481Y21261D01*
G01X6522Y21258D01*
G01X6563Y21257D01*
G01X6604Y21258D01*
G01X6646Y21262D01*
G01X6687Y21267D01*
G01X6728Y21274D01*
G01X6769Y21284D01*
G01X6809Y21296D01*
G01X6848Y21309D01*
G01X6887Y21325D01*
G01X6924Y21343D01*
G01X6961Y21362D01*
G01X6997Y21384D01*
G01X7031Y21407D01*
G01X7064Y21432D01*
G01X7096Y21459D01*
G01X7127Y21487D01*
G01X7156Y21517D01*
G01X7183Y21548D01*
G01X7209Y21581D01*
G01X7233Y21615D01*
G01X7255Y21650D01*
G01X7276Y21686D01*
G01X7294Y21724D01*
G01X7311Y21762D01*
G01X7325Y21801D01*
G01X7338Y21841D01*
G01X7348Y21881D01*
G01X7353Y21895D01*
G01X7360Y21909D01*
G01X7368Y21921D01*
G01X7378Y21932D01*
G01X7390Y21942D01*
G01X7403Y21949D01*
G01X7417Y21955D01*
G01X7432Y21958D01*
G01X7447Y21959D01*
G01X7464Y21958D01*
G01X7480Y21954D01*
G01X7495Y21947D01*
G01X7509Y21938D01*
G01X7522Y21927D01*
G01X7532Y21914D01*
G01X7549Y21890D01*
G01X7557Y21876D01*
G01X7564Y21861D01*
G01X7567Y21846D01*
G01X7569Y21830D01*
G01X7569Y20569D01*
G01X7568Y20555D01*
G01X7565Y20541D01*
G01X7560Y20527D01*
G01X7553Y20514D01*
G01X7544Y20503D01*
G01X7534Y20492D01*
G01X7522Y20484D01*
G01X7509Y20477D01*
G01X7496Y20472D01*
G01X7482Y20469D01*
G01X7467Y20468D01*
G01X7448Y20469D01*
G01X7425Y20473D01*
G01X7401Y20474D01*
G01X6903Y20474D01*
G01X6880Y20473D01*
G01X6856Y20469D01*
G01X6833Y20464D01*
G01X6811Y20456D01*
G01X6789Y20447D01*
G01X6768Y20435D01*
G01X6749Y20422D01*
G01X6730Y20407D01*
G01X6714Y20390D01*
G01X6698Y20372D01*
G01X6685Y20352D01*
G01X6674Y20332D01*
G01X6664Y20310D01*
G01X6656Y20287D01*
G01X6651Y20264D01*
G01X6648Y20241D01*
G01X6647Y20217D01*
G01X6647Y18995D01*
G01X6646Y18982D01*
G01X6643Y18950D01*
G01X6642Y18917D01*
G01X6642Y16850D01*
G01X6643Y16816D01*
G01X6646Y16783D01*
G01X6651Y16750D01*
G01X6659Y16718D01*
G01X6669Y16686D01*
G01X6680Y16654D01*
G01X6694Y16624D01*
G01X6710Y16595D01*
G01X6728Y16566D01*
G01X6747Y16539D01*
G01X6768Y16513D01*
G01X6791Y16489D01*
G01X7639Y15640D01*
G01X7664Y15618D01*
G01X7690Y15596D01*
G01X7717Y15577D01*
G01X7745Y15559D01*
G01X7775Y15544D01*
G01X7805Y15530D01*
G01X7836Y15518D01*
G01X7868Y15508D01*
G01X7901Y15501D01*
G01X7934Y15495D01*
G01X7967Y15492D01*
G01X8001Y15491D01*
G01X9268Y15491D01*
G01X9288Y15489D01*
G01X9307Y15483D01*
G01X9342Y15470D01*
G01X9378Y15459D01*
G01X9414Y15450D01*
G01X9450Y15444D01*
G01X9487Y15441D01*
G01X9525Y15439D01*
G01X9558Y15440D01*
G01X9592Y15444D01*
G01X9626Y15449D01*
G01X9659Y15456D01*
G01X9692Y15465D01*
G01X9724Y15476D01*
G01X9755Y15489D01*
G01X9786Y15504D01*
G01X9815Y15521D01*
G01X9844Y15539D01*
G01X9871Y15559D01*
G01X9897Y15581D01*
G01X9922Y15604D01*
G01X9945Y15629D01*
G01X9967Y15655D01*
G01X9987Y15682D01*
G01X10005Y15711D01*
G01X10022Y15740D01*
G01X10037Y15771D01*
G01X10050Y15802D01*
G01X10061Y15834D01*
G01X10070Y15867D01*
G01X10077Y15900D01*
G01X10082Y15934D01*
G01X10086Y15968D01*
G01X10087Y16002D01*
G01X10086Y16035D01*
G01X10082Y16069D01*
G01X10077Y16103D01*
G01X10070Y16136D01*
G01X10061Y16169D01*
G01X10050Y16201D01*
G01X10037Y16232D01*
G01X10022Y16263D01*
G01X10005Y16292D01*
G01X9987Y16321D01*
G01X9967Y16348D01*
G01X9945Y16374D01*
G01X9922Y16399D01*
G01X9897Y16422D01*
G01X9871Y16444D01*
G01X9844Y16464D01*
G01X9815Y16482D01*
G01X9786Y16499D01*
G01X9755Y16514D01*
G01X9724Y16527D01*
G01X9692Y16538D01*
G01X9659Y16547D01*
G01X9626Y16554D01*
G01X9592Y16559D01*
G01X9558Y16563D01*
G01X9525Y16564D01*
G01X9487Y16562D01*
G01X9450Y16559D01*
G01X9414Y16553D01*
G01X9378Y16544D01*
G01X9342Y16533D01*
G01X9307Y16520D01*
G01X9288Y16514D01*
G01X9268Y16512D01*
G01X8254Y16512D01*
G01X8238Y16513D01*
G01X8223Y16517D01*
G01X8208Y16523D01*
G01X8194Y16531D01*
G01X8182Y16542D01*
G01X7692Y17032D01*
G01X7682Y17044D01*
G01X7674Y17057D01*
G01X7668Y17072D01*
G01X7664Y17088D01*
G01X7663Y17103D01*
G01X7663Y17258D01*
G01X7664Y17273D01*
G01X7667Y17287D01*
G01X7672Y17300D01*
G01X7679Y17313D01*
G01X7687Y17325D01*
G01X7698Y17335D01*
G01X7709Y17344D01*
G01X7722Y17351D01*
G01X7736Y17356D01*
G01X7750Y17359D01*
G01X7764Y17360D01*
G01X8201Y17360D01*
G01X8229Y17361D01*
G01X8257Y17366D01*
G01X8284Y17373D01*
G01X8309Y17384D01*
G01X8323Y17389D01*
G01X8338Y17392D01*
G01X8352Y17393D01*
G01X8367Y17392D01*
G01X8381Y17389D01*
G01X8395Y17384D01*
G01X8421Y17373D01*
G01X8448Y17366D01*
G01X8476Y17361D01*
G01X8503Y17360D01*
G01X9001Y17360D01*
G01X9029Y17361D01*
G01X9057Y17366D01*
G01X9084Y17373D01*
G01X9110Y17384D01*
G01X9123Y17389D01*
G01X9138Y17392D01*
G01X9152Y17393D01*
G01X9167Y17392D01*
G01X9181Y17389D01*
G01X9195Y17384D01*
G01X9221Y17373D01*
G01X9248Y17366D01*
G01X9276Y17361D01*
G01X9304Y17360D01*
G01X9801Y17360D01*
G01X9829Y17361D01*
G01X9857Y17366D01*
G01X9884Y17373D01*
G01X9910Y17384D01*
G01X9923Y17389D01*
G01X9938Y17392D01*
G01X9952Y17393D01*
G01X9967Y17392D01*
G01X9982Y17389D01*
G01X9995Y17384D01*
G01X10021Y17373D01*
G01X10048Y17366D01*
G01X10076Y17361D01*
G01X10104Y17360D01*
G01X10165Y17360D01*
G01X10165Y18203D01*
G01X10160Y18203D01*
G01X10145Y18204D01*
G01X10131Y18207D01*
G01X10117Y18212D01*
G01X10105Y18219D01*
G01X10093Y18228D01*
G01X10083Y18238D01*
G01X10074Y18250D01*
G01X10067Y18262D01*
G01X10062Y18276D01*
G01X10059Y18290D01*
G01X10058Y18305D01*
G01X10058Y19529D01*
G01X10059Y19543D01*
G01X10062Y19558D01*
G01X10067Y19571D01*
G01X10074Y19584D01*
G01X10083Y19595D01*
G01X10093Y19606D01*
G01X10105Y19614D01*
G01X10117Y19621D01*
G01X10131Y19626D01*
G01X10145Y19629D01*
G01X10160Y19631D01*
G01X10165Y19631D01*
G01X10165Y20474D01*
G01X10104Y20474D01*
G01X10076Y20472D01*
G01X10048Y20468D01*
G01X10021Y20460D01*
G01X9982Y20445D01*
G01X9967Y20441D01*
G01X9952Y20440D01*
G01X9938Y20441D01*
G01X9923Y20445D01*
G01X9884Y20460D01*
G01X9857Y20468D01*
G01X9829Y20472D01*
G01X9801Y20474D01*
G01X9304Y20474D01*
G01X9280Y20473D01*
G01X9256Y20469D01*
G01X9237Y20468D01*
G01X9223Y20469D01*
G01X9209Y20472D01*
G01X9195Y20477D01*
G01X9183Y20484D01*
G01X9171Y20492D01*
G01X9161Y20503D01*
G01X9152Y20514D01*
G01X9145Y20527D01*
G01X9140Y20541D01*
G01X9137Y20555D01*
G01X9136Y20569D01*
G01X9136Y20929D01*
G01X9137Y20944D01*
G01X9140Y20958D01*
G01X9145Y20972D01*
G01X9159Y21004D01*
G01X9171Y21037D01*
G01X9180Y21070D01*
G01X9188Y21104D01*
G01X9193Y21139D01*
G01X9196Y21174D01*
G01X9198Y21209D01*
G01X9197Y21242D01*
G01X9193Y21276D01*
G01X9188Y21310D01*
G01X9181Y21343D01*
G01X9172Y21376D01*
G01X9161Y21408D01*
G01X9148Y21439D01*
G01X9133Y21470D01*
G01X9116Y21499D01*
G01X9098Y21528D01*
G01X9078Y21555D01*
G01X9056Y21581D01*
G01X9033Y21606D01*
G01X9008Y21629D01*
G01X8982Y21651D01*
G01X8955Y21671D01*
G01X8926Y21689D01*
G01X8897Y21706D01*
G01X8866Y21721D01*
G01X8835Y21734D01*
G01X8803Y21745D01*
G01X8770Y21754D01*
G01X8737Y21761D01*
G01X8703Y21766D01*
G01X8669Y21770D01*
G01X8636Y21771D01*
G01X8572Y21767D01*
G01X8560Y21766D01*
G01X8546Y21767D01*
G01X8532Y21770D01*
G01X8518Y21775D01*
G01X8505Y21782D01*
G01X8494Y21791D01*
G01X8483Y21801D01*
G01X8475Y21813D01*
G01X8468Y21826D01*
G01X8463Y21839D01*
G01X8460Y21853D01*
G01X8459Y21868D01*
G01X8460Y21882D01*
G01X8463Y21896D01*
G01X8468Y21910D01*
G01X8474Y21922D01*
G01X8493Y21953D01*
G01X8509Y21984D01*
G01X8523Y22017D01*
G01X8535Y22050D01*
G01X8545Y22084D01*
G01X8553Y22119D01*
G01X8558Y22154D01*
G01X8561Y22189D01*
G01X8563Y22225D01*
G01X8562Y22258D01*
G01X8558Y22292D01*
G01X8553Y22326D01*
G01X8546Y22359D01*
G01X8537Y22392D01*
G01X8526Y22424D01*
G01X8513Y22455D01*
G01X8498Y22486D01*
G01X8481Y22515D01*
G01X8463Y22544D01*
G01X8443Y22571D01*
G01X8421Y22597D01*
G01X8398Y22622D01*
G01X8373Y22645D01*
G01X8347Y22667D01*
G01X8320Y22687D01*
G01X8291Y22705D01*
G01X8262Y22722D01*
G01X8231Y22737D01*
G01X8200Y22750D01*
G01X8168Y22761D01*
G01X8135Y22770D01*
G01X8102Y22777D01*
G01X8068Y22782D01*
G01X8034Y22786D01*
G01X8001Y22787D01*
G01X7967Y22786D01*
G01X7933Y22782D01*
G01X7899Y22777D01*
G01X7866Y22770D01*
G01X7833Y22761D01*
G01X7801Y22750D01*
G01X7770Y22737D01*
G01X7739Y22722D01*
G01X7710Y22706D01*
G01X7681Y22687D01*
G01X7654Y22667D01*
G01X7628Y22645D01*
G01X7603Y22622D01*
G01X7580Y22597D01*
G01X7558Y22571D01*
G01X7538Y22544D01*
G01X7520Y22515D01*
G01X7503Y22486D01*
G01X7488Y22455D01*
G01X7475Y22424D01*
G01X7469Y22410D01*
G01X7460Y22397D01*
G01X7450Y22386D01*
G01X7438Y22376D01*
G01X7425Y22369D01*
G01X7410Y22363D01*
G01X7395Y22360D01*
G01X7380Y22358D01*
G01X7364Y22360D01*
G01X7348Y22364D01*
G01X7333Y22370D01*
G01X7319Y22379D01*
G01X7307Y22389D01*
G01X7297Y22402D01*
G01X7289Y22416D01*
G01X7270Y22452D01*
G01X7249Y22488D01*
G01X7227Y22522D01*
G01X7203Y22555D01*
G01X7177Y22587D01*
G01X7149Y22618D01*
G01X7120Y22647D01*
G01X7090Y22674D01*
G01X7058Y22700D01*
G01X7025Y22725D01*
G01X6991Y22747D01*
G01X6956Y22768D01*
G01X6919Y22787D01*
G01X6882Y22805D01*
G01X6844Y22820D01*
G01X6805Y22833D01*
G01X6766Y22844D01*
G01X6726Y22854D01*
G01X6685Y22861D01*
G01X6645Y22866D01*
G01X6604Y22869D01*
G37*
G36*
G01X21198Y7305D02*
G01X19999Y7305D01*
G01X19976Y7303D01*
G01X19952Y7300D01*
G01X19929Y7295D01*
G01X19907Y7287D01*
G01X19885Y7278D01*
G01X19864Y7266D01*
G01X19845Y7253D01*
G01X19827Y7238D01*
G01X19810Y7221D01*
G01X19795Y7203D01*
G01X19781Y7183D01*
G01X19770Y7162D01*
G01X19760Y7141D01*
G01X19753Y7118D01*
G01X19747Y7095D01*
G01X19744Y7072D01*
G01X19743Y7048D01*
G01X19743Y4889D01*
G01X19744Y4865D01*
G01X19747Y4842D01*
G01X19753Y4818D01*
G01X19760Y4796D01*
G01X19770Y4774D01*
G01X19782Y4753D01*
G01X19795Y4734D01*
G01X19811Y4715D01*
G01X19828Y4699D01*
G01X19839Y4686D01*
G01X19849Y4672D01*
G01X19855Y4657D01*
G01X19860Y4640D01*
G01X19861Y4623D01*
G01X19860Y4607D01*
G01X19856Y4592D01*
G01X19850Y4577D01*
G01X19842Y4563D01*
G01X19831Y4551D01*
G01X18577Y3297D01*
G01X18565Y3286D01*
G01X18551Y3278D01*
G01X18536Y3272D01*
G01X18521Y3268D01*
G01X18505Y3267D01*
G01X18477Y3271D01*
G01X18425Y3284D01*
G01X18373Y3295D01*
G01X18320Y3304D01*
G01X18267Y3310D01*
G01X18214Y3314D01*
G01X18161Y3315D01*
G01X18111Y3314D01*
G01X18062Y3311D01*
G01X18014Y3306D01*
G01X17965Y3298D01*
G01X17917Y3289D01*
G01X17869Y3278D01*
G01X17822Y3264D01*
G01X17775Y3249D01*
G01X17729Y3232D01*
G01X17684Y3212D01*
G01X17640Y3191D01*
G01X17596Y3168D01*
G01X17554Y3143D01*
G01X17513Y3117D01*
G01X17473Y3088D01*
G01X17434Y3058D01*
G01X17396Y3027D01*
G01X17360Y2993D01*
G01X17326Y2959D01*
G01X17292Y2923D01*
G01X17261Y2885D01*
G01X17231Y2846D01*
G01X17202Y2806D01*
G01X17176Y2765D01*
G01X17151Y2723D01*
G01X17128Y2679D01*
G01X17107Y2635D01*
G01X17087Y2590D01*
G01X17070Y2544D01*
G01X17055Y2497D01*
G01X17041Y2450D01*
G01X17030Y2402D01*
G01X17021Y2354D01*
G01X17013Y2305D01*
G01X17008Y2257D01*
G01X17005Y2208D01*
G01X17004Y2159D01*
G01X17005Y2109D01*
G01X17008Y2060D01*
G01X17013Y2012D01*
G01X17021Y1963D01*
G01X17030Y1915D01*
G01X17041Y1867D01*
G01X17055Y1820D01*
G01X17070Y1773D01*
G01X17087Y1727D01*
G01X17107Y1682D01*
G01X17128Y1638D01*
G01X17151Y1594D01*
G01X17176Y1552D01*
G01X17202Y1511D01*
G01X17231Y1471D01*
G01X17261Y1432D01*
G01X17292Y1394D01*
G01X17326Y1358D01*
G01X17360Y1324D01*
G01X17396Y1290D01*
G01X17434Y1259D01*
G01X17473Y1229D01*
G01X17513Y1200D01*
G01X17554Y1174D01*
G01X17596Y1149D01*
G01X17640Y1126D01*
G01X17684Y1105D01*
G01X17729Y1085D01*
G01X17775Y1068D01*
G01X17822Y1053D01*
G01X17869Y1039D01*
G01X17917Y1028D01*
G01X17965Y1019D01*
G01X18014Y1011D01*
G01X18062Y1006D01*
G01X18111Y1003D01*
G01X18161Y1002D01*
G01X18210Y1003D01*
G01X18259Y1006D01*
G01X18307Y1011D01*
G01X18356Y1019D01*
G01X18404Y1028D01*
G01X18452Y1039D01*
G01X18499Y1053D01*
G01X18546Y1068D01*
G01X18592Y1085D01*
G01X18637Y1105D01*
G01X18681Y1126D01*
G01X18725Y1149D01*
G01X18767Y1174D01*
G01X18808Y1200D01*
G01X18848Y1229D01*
G01X18887Y1259D01*
G01X18925Y1290D01*
G01X18961Y1324D01*
G01X18995Y1358D01*
G01X19029Y1394D01*
G01X19060Y1432D01*
G01X19090Y1471D01*
G01X19119Y1511D01*
G01X19145Y1552D01*
G01X19170Y1594D01*
G01X19193Y1638D01*
G01X19214Y1682D01*
G01X19234Y1727D01*
G01X19251Y1773D01*
G01X19266Y1820D01*
G01X19280Y1867D01*
G01X19291Y1915D01*
G01X19300Y1963D01*
G01X19308Y2012D01*
G01X19313Y2060D01*
G01X19316Y2109D01*
G01X19317Y2159D01*
G01X19316Y2212D01*
G01X19312Y2265D01*
G01X19306Y2318D01*
G01X19297Y2371D01*
G01X19286Y2423D01*
G01X19273Y2475D01*
G01X19269Y2503D01*
G01X19270Y2519D01*
G01X19274Y2534D01*
G01X19280Y2549D01*
G01X19288Y2563D01*
G01X19299Y2575D01*
G01X19371Y2647D01*
G01X19383Y2657D01*
G01X19396Y2665D01*
G01X19411Y2671D01*
G01X19426Y2675D01*
G01X19442Y2676D01*
G01X19457Y2675D01*
G01X19471Y2672D01*
G01X20187Y2672D01*
G01X20187Y3388D01*
G01X20184Y3402D01*
G01X20183Y3417D01*
G01X20184Y3433D01*
G01X20188Y3448D01*
G01X20194Y3463D01*
G01X20202Y3476D01*
G01X20212Y3488D01*
G01X20960Y4236D01*
G01X20984Y4261D01*
G01X21005Y4288D01*
G01X21025Y4316D01*
G01X21043Y4346D01*
G01X21059Y4376D01*
G01X21073Y4408D01*
G01X21085Y4441D01*
G01X21094Y4474D01*
G01X21102Y4508D01*
G01X21106Y4542D01*
G01X21109Y4556D01*
G01X21114Y4570D01*
G01X21120Y4583D01*
G01X21129Y4595D01*
G01X21139Y4606D01*
G01X21150Y4615D01*
G01X21163Y4622D01*
G01X21176Y4628D01*
G01X21190Y4631D01*
G01X21205Y4633D01*
G01X21228Y4634D01*
G01X21251Y4638D01*
G01X21274Y4644D01*
G01X21296Y4652D01*
G01X21317Y4661D01*
G01X21337Y4673D01*
G01X21356Y4687D01*
G01X21374Y4702D01*
G01X21390Y4718D01*
G01X21405Y4737D01*
G01X21418Y4756D01*
G01X21429Y4776D01*
G01X21438Y4798D01*
G01X21445Y4820D01*
G01X21451Y4843D01*
G01X21454Y4866D01*
G01X21455Y4889D01*
G01X21455Y7048D01*
G01X21454Y7072D01*
G01X21451Y7095D01*
G01X21445Y7118D01*
G01X21438Y7141D01*
G01X21428Y7162D01*
G01X21416Y7183D01*
G01X21403Y7203D01*
G01X21388Y7221D01*
G01X21371Y7238D01*
G01X21353Y7253D01*
G01X21333Y7266D01*
G01X21313Y7278D01*
G01X21291Y7287D01*
G01X21269Y7295D01*
G01X21245Y7300D01*
G01X21222Y7303D01*
G01X21198Y7305D01*
G37*
G36*
G01X1954Y24904D02*
G01X1905Y24905D01*
G01X1855Y24904D01*
G01X1806Y24901D01*
G01X1758Y24896D01*
G01X1709Y24888D01*
G01X1661Y24879D01*
G01X1613Y24868D01*
G01X1566Y24854D01*
G01X1519Y24839D01*
G01X1473Y24822D01*
G01X1428Y24802D01*
G01X1384Y24781D01*
G01X1340Y24758D01*
G01X1298Y24733D01*
G01X1257Y24707D01*
G01X1217Y24678D01*
G01X1178Y24648D01*
G01X1140Y24617D01*
G01X1104Y24583D01*
G01X1070Y24549D01*
G01X1036Y24513D01*
G01X1005Y24475D01*
G01X975Y24436D01*
G01X946Y24396D01*
G01X920Y24355D01*
G01X895Y24313D01*
G01X872Y24269D01*
G01X851Y24225D01*
G01X831Y24180D01*
G01X814Y24134D01*
G01X799Y24087D01*
G01X785Y24040D01*
G01X774Y23992D01*
G01X765Y23944D01*
G01X757Y23895D01*
G01X752Y23847D01*
G01X749Y23798D01*
G01X748Y23749D01*
G01X749Y23699D01*
G01X752Y23650D01*
G01X757Y23602D01*
G01X765Y23553D01*
G01X774Y23505D01*
G01X785Y23457D01*
G01X799Y23410D01*
G01X814Y23363D01*
G01X831Y23317D01*
G01X851Y23272D01*
G01X872Y23228D01*
G01X895Y23184D01*
G01X920Y23142D01*
G01X946Y23101D01*
G01X975Y23061D01*
G01X1005Y23022D01*
G01X1036Y22984D01*
G01X1070Y22948D01*
G01X1104Y22914D01*
G01X1140Y22880D01*
G01X1178Y22849D01*
G01X1217Y22819D01*
G01X1257Y22790D01*
G01X1298Y22764D01*
G01X1340Y22739D01*
G01X1384Y22716D01*
G01X1428Y22695D01*
G01X1473Y22675D01*
G01X1519Y22658D01*
G01X1566Y22643D01*
G01X1613Y22629D01*
G01X1661Y22618D01*
G01X1709Y22609D01*
G01X1758Y22601D01*
G01X1806Y22596D01*
G01X1855Y22593D01*
G01X1905Y22592D01*
G01X1953Y22593D01*
G01X2001Y22596D01*
G01X2050Y22601D01*
G01X2098Y22608D01*
G01X2145Y22617D01*
G01X2193Y22628D01*
G01X2239Y22642D01*
G01X2286Y22657D01*
G01X2331Y22673D01*
G01X2376Y22692D01*
G01X2420Y22713D01*
G01X2463Y22736D01*
G01X2505Y22760D01*
G01X2546Y22786D01*
G01X2585Y22814D01*
G01X2624Y22843D01*
G01X2661Y22874D01*
G01X2697Y22907D01*
G01X2732Y22941D01*
G01X2765Y22976D01*
G01X2797Y23013D01*
G01X2827Y23051D01*
G01X2855Y23090D01*
G01X2882Y23131D01*
G01X2907Y23172D01*
G01X2931Y23215D01*
G01X2952Y23258D01*
G01X2972Y23303D01*
G01X2989Y23348D01*
G01X3005Y23394D01*
G01X3019Y23440D01*
G01X3031Y23487D01*
G01X3036Y23502D01*
G01X3042Y23516D01*
G01X3051Y23528D01*
G01X3061Y23539D01*
G01X3073Y23549D01*
G01X3086Y23556D01*
G01X3100Y23562D01*
G01X3115Y23565D01*
G01X3130Y23566D01*
G01X3148Y23565D01*
G01X3165Y23560D01*
G01X3182Y23552D01*
G01X3206Y23540D01*
G01X3231Y23530D01*
G01X3258Y23522D01*
G01X3284Y23518D01*
G01X3312Y23517D01*
G01X3749Y23517D01*
G01X3749Y24335D01*
G01X2958Y24335D01*
G01X2943Y24336D01*
G01X2929Y24339D01*
G01X2916Y24344D01*
G01X2903Y24351D01*
G01X2892Y24360D01*
G01X2881Y24370D01*
G01X2873Y24381D01*
G01X2869Y24387D01*
G01X2841Y24428D01*
G01X2811Y24467D01*
G01X2779Y24505D01*
G01X2746Y24542D01*
G01X2711Y24578D01*
G01X2675Y24611D01*
G01X2637Y24644D01*
G01X2598Y24674D01*
G01X2558Y24703D01*
G01X2516Y24730D01*
G01X2474Y24755D01*
G01X2430Y24779D01*
G01X2385Y24800D01*
G01X2340Y24820D01*
G01X2293Y24838D01*
G01X2246Y24853D01*
G01X2199Y24867D01*
G01X2150Y24879D01*
G01X2102Y24888D01*
G01X2053Y24895D01*
G01X2004Y24901D01*
G01X1954Y24904D01*
G37*
G36*
G01X25664Y24905D02*
G01X23865Y24905D01*
G01X23841Y24904D01*
G01X23817Y24901D01*
G01X23794Y24895D01*
G01X23772Y24888D01*
G01X23750Y24878D01*
G01X23729Y24867D01*
G01X23710Y24853D01*
G01X23692Y24838D01*
G01X23675Y24821D01*
G01X23660Y24803D01*
G01X23646Y24784D01*
G01X23635Y24763D01*
G01X23625Y24741D01*
G01X23618Y24719D01*
G01X23612Y24696D01*
G01X23609Y24672D01*
G01X23608Y24648D01*
G01X23608Y22849D01*
G01X23609Y22825D01*
G01X23612Y22801D01*
G01X23618Y22778D01*
G01X23625Y22756D01*
G01X23635Y22734D01*
G01X23646Y22713D01*
G01X23660Y22694D01*
G01X23675Y22676D01*
G01X23692Y22659D01*
G01X23710Y22644D01*
G01X23729Y22630D01*
G01X23750Y22619D01*
G01X23772Y22609D01*
G01X23794Y22602D01*
G01X23817Y22596D01*
G01X23841Y22593D01*
G01X23865Y22592D01*
G01X25664Y22592D01*
G01X25688Y22593D01*
G01X25712Y22596D01*
G01X25735Y22602D01*
G01X25757Y22609D01*
G01X25779Y22619D01*
G01X25800Y22630D01*
G01X25819Y22644D01*
G01X25837Y22659D01*
G01X25854Y22676D01*
G01X25869Y22694D01*
G01X25883Y22713D01*
G01X25894Y22734D01*
G01X25904Y22756D01*
G01X25911Y22778D01*
G01X25917Y22801D01*
G01X25920Y22825D01*
G01X25921Y22849D01*
G01X25921Y24648D01*
G01X25920Y24672D01*
G01X25917Y24696D01*
G01X25911Y24719D01*
G01X25904Y24741D01*
G01X25894Y24763D01*
G01X25883Y24784D01*
G01X25869Y24803D01*
G01X25854Y24821D01*
G01X25837Y24838D01*
G01X25819Y24853D01*
G01X25800Y24867D01*
G01X25779Y24878D01*
G01X25757Y24888D01*
G01X25735Y24895D01*
G01X25712Y24901D01*
G01X25688Y24904D01*
G01X25664Y24905D01*
G37*
G36*
G01X13726Y3315D02*
G01X11927Y3315D01*
G01X11903Y3314D01*
G01X11879Y3311D01*
G01X11856Y3305D01*
G01X11834Y3298D01*
G01X11812Y3288D01*
G01X11791Y3277D01*
G01X11772Y3263D01*
G01X11754Y3248D01*
G01X11737Y3231D01*
G01X11722Y3213D01*
G01X11708Y3194D01*
G01X11697Y3173D01*
G01X11687Y3151D01*
G01X11680Y3129D01*
G01X11674Y3106D01*
G01X11671Y3082D01*
G01X11670Y3058D01*
G01X11670Y1259D01*
G01X11671Y1235D01*
G01X11674Y1211D01*
G01X11680Y1188D01*
G01X11687Y1166D01*
G01X11697Y1144D01*
G01X11708Y1123D01*
G01X11722Y1104D01*
G01X11737Y1086D01*
G01X11754Y1069D01*
G01X11772Y1054D01*
G01X11791Y1040D01*
G01X11812Y1029D01*
G01X11834Y1019D01*
G01X11856Y1012D01*
G01X11879Y1006D01*
G01X11903Y1003D01*
G01X11927Y1002D01*
G01X13726Y1002D01*
G01X13750Y1003D01*
G01X13774Y1006D01*
G01X13797Y1012D01*
G01X13819Y1019D01*
G01X13841Y1029D01*
G01X13862Y1040D01*
G01X13881Y1054D01*
G01X13899Y1069D01*
G01X13916Y1086D01*
G01X13931Y1104D01*
G01X13945Y1123D01*
G01X13956Y1144D01*
G01X13966Y1166D01*
G01X13973Y1188D01*
G01X13979Y1211D01*
G01X13982Y1235D01*
G01X13983Y1259D01*
G01X13983Y3058D01*
G01X13982Y3082D01*
G01X13979Y3106D01*
G01X13973Y3129D01*
G01X13966Y3151D01*
G01X13956Y3173D01*
G01X13945Y3194D01*
G01X13931Y3213D01*
G01X13916Y3231D01*
G01X13899Y3248D01*
G01X13881Y3263D01*
G01X13862Y3277D01*
G01X13841Y3288D01*
G01X13819Y3298D01*
G01X13797Y3305D01*
G01X13774Y3311D01*
G01X13750Y3314D01*
G01X13726Y3315D01*
G37*
G36*
G01X7796Y3314D02*
G01X7747Y3315D01*
G01X7697Y3314D01*
G01X7648Y3311D01*
G01X7600Y3306D01*
G01X7551Y3298D01*
G01X7503Y3289D01*
G01X7455Y3278D01*
G01X7408Y3264D01*
G01X7361Y3249D01*
G01X7315Y3232D01*
G01X7270Y3212D01*
G01X7226Y3191D01*
G01X7182Y3168D01*
G01X7140Y3143D01*
G01X7099Y3117D01*
G01X7059Y3088D01*
G01X7020Y3058D01*
G01X6982Y3027D01*
G01X6946Y2993D01*
G01X6912Y2959D01*
G01X6878Y2923D01*
G01X6847Y2885D01*
G01X6817Y2846D01*
G01X6788Y2806D01*
G01X6762Y2765D01*
G01X6737Y2723D01*
G01X6714Y2679D01*
G01X6693Y2635D01*
G01X6673Y2590D01*
G01X6656Y2544D01*
G01X6641Y2497D01*
G01X6627Y2450D01*
G01X6616Y2402D01*
G01X6607Y2354D01*
G01X6599Y2305D01*
G01X6594Y2257D01*
G01X6591Y2208D01*
G01X6590Y2159D01*
G01X6591Y2109D01*
G01X6594Y2060D01*
G01X6599Y2012D01*
G01X6607Y1963D01*
G01X6616Y1915D01*
G01X6627Y1867D01*
G01X6641Y1820D01*
G01X6656Y1773D01*
G01X6673Y1727D01*
G01X6693Y1682D01*
G01X6714Y1638D01*
G01X6737Y1594D01*
G01X6762Y1552D01*
G01X6788Y1511D01*
G01X6817Y1471D01*
G01X6847Y1432D01*
G01X6878Y1394D01*
G01X6912Y1358D01*
G01X6946Y1324D01*
G01X6982Y1290D01*
G01X7020Y1259D01*
G01X7059Y1229D01*
G01X7099Y1200D01*
G01X7140Y1174D01*
G01X7182Y1149D01*
G01X7226Y1126D01*
G01X7270Y1105D01*
G01X7315Y1085D01*
G01X7361Y1068D01*
G01X7408Y1053D01*
G01X7455Y1039D01*
G01X7503Y1028D01*
G01X7551Y1019D01*
G01X7600Y1011D01*
G01X7648Y1006D01*
G01X7697Y1003D01*
G01X7747Y1002D01*
G01X7796Y1003D01*
G01X7845Y1006D01*
G01X7893Y1011D01*
G01X7942Y1019D01*
G01X7990Y1028D01*
G01X8038Y1039D01*
G01X8085Y1053D01*
G01X8132Y1068D01*
G01X8178Y1085D01*
G01X8223Y1105D01*
G01X8267Y1126D01*
G01X8311Y1149D01*
G01X8353Y1174D01*
G01X8394Y1200D01*
G01X8434Y1229D01*
G01X8473Y1259D01*
G01X8511Y1290D01*
G01X8547Y1324D01*
G01X8581Y1358D01*
G01X8615Y1394D01*
G01X8646Y1432D01*
G01X8676Y1471D01*
G01X8705Y1511D01*
G01X8731Y1552D01*
G01X8756Y1594D01*
G01X8779Y1638D01*
G01X8800Y1682D01*
G01X8820Y1727D01*
G01X8837Y1773D01*
G01X8852Y1820D01*
G01X8866Y1867D01*
G01X8877Y1915D01*
G01X8886Y1963D01*
G01X8894Y2012D01*
G01X8899Y2060D01*
G01X8902Y2109D01*
G01X8903Y2159D01*
G01X8902Y2208D01*
G01X8899Y2257D01*
G01X8894Y2305D01*
G01X8886Y2354D01*
G01X8877Y2402D01*
G01X8866Y2450D01*
G01X8852Y2497D01*
G01X8837Y2544D01*
G01X8820Y2590D01*
G01X8800Y2635D01*
G01X8779Y2679D01*
G01X8756Y2723D01*
G01X8731Y2765D01*
G01X8705Y2806D01*
G01X8676Y2846D01*
G01X8646Y2885D01*
G01X8615Y2923D01*
G01X8581Y2959D01*
G01X8547Y2993D01*
G01X8511Y3027D01*
G01X8473Y3058D01*
G01X8434Y3088D01*
G01X8394Y3117D01*
G01X8353Y3143D01*
G01X8311Y3168D01*
G01X8267Y3191D01*
G01X8223Y3212D01*
G01X8178Y3232D01*
G01X8132Y3249D01*
G01X8085Y3264D01*
G01X8038Y3278D01*
G01X7990Y3289D01*
G01X7942Y3298D01*
G01X7893Y3306D01*
G01X7845Y3311D01*
G01X7796Y3314D01*
G37*
G36*
G01X10336Y3314D02*
G01X10287Y3315D01*
G01X10237Y3314D01*
G01X10188Y3311D01*
G01X10140Y3306D01*
G01X10091Y3298D01*
G01X10043Y3289D01*
G01X9995Y3278D01*
G01X9948Y3264D01*
G01X9901Y3249D01*
G01X9855Y3232D01*
G01X9810Y3212D01*
G01X9766Y3191D01*
G01X9722Y3168D01*
G01X9680Y3143D01*
G01X9639Y3117D01*
G01X9599Y3088D01*
G01X9560Y3058D01*
G01X9522Y3027D01*
G01X9486Y2993D01*
G01X9452Y2959D01*
G01X9418Y2923D01*
G01X9387Y2885D01*
G01X9357Y2846D01*
G01X9328Y2806D01*
G01X9302Y2765D01*
G01X9277Y2723D01*
G01X9254Y2679D01*
G01X9233Y2635D01*
G01X9213Y2590D01*
G01X9196Y2544D01*
G01X9181Y2497D01*
G01X9167Y2450D01*
G01X9156Y2402D01*
G01X9147Y2354D01*
G01X9139Y2305D01*
G01X9134Y2257D01*
G01X9131Y2208D01*
G01X9130Y2159D01*
G01X9131Y2109D01*
G01X9134Y2060D01*
G01X9139Y2012D01*
G01X9147Y1963D01*
G01X9156Y1915D01*
G01X9167Y1867D01*
G01X9181Y1820D01*
G01X9196Y1773D01*
G01X9213Y1727D01*
G01X9233Y1682D01*
G01X9254Y1638D01*
G01X9277Y1594D01*
G01X9302Y1552D01*
G01X9328Y1511D01*
G01X9357Y1471D01*
G01X9387Y1432D01*
G01X9418Y1394D01*
G01X9452Y1358D01*
G01X9486Y1324D01*
G01X9522Y1290D01*
G01X9560Y1259D01*
G01X9599Y1229D01*
G01X9639Y1200D01*
G01X9680Y1174D01*
G01X9722Y1149D01*
G01X9766Y1126D01*
G01X9810Y1105D01*
G01X9855Y1085D01*
G01X9901Y1068D01*
G01X9948Y1053D01*
G01X9995Y1039D01*
G01X10043Y1028D01*
G01X10091Y1019D01*
G01X10140Y1011D01*
G01X10188Y1006D01*
G01X10237Y1003D01*
G01X10287Y1002D01*
G01X10336Y1003D01*
G01X10385Y1006D01*
G01X10433Y1011D01*
G01X10482Y1019D01*
G01X10530Y1028D01*
G01X10578Y1039D01*
G01X10625Y1053D01*
G01X10672Y1068D01*
G01X10718Y1085D01*
G01X10763Y1105D01*
G01X10807Y1126D01*
G01X10851Y1149D01*
G01X10893Y1174D01*
G01X10934Y1200D01*
G01X10974Y1229D01*
G01X11013Y1259D01*
G01X11051Y1290D01*
G01X11087Y1324D01*
G01X11121Y1358D01*
G01X11155Y1394D01*
G01X11186Y1432D01*
G01X11216Y1471D01*
G01X11245Y1511D01*
G01X11271Y1552D01*
G01X11296Y1594D01*
G01X11319Y1638D01*
G01X11340Y1682D01*
G01X11360Y1727D01*
G01X11377Y1773D01*
G01X11392Y1820D01*
G01X11406Y1867D01*
G01X11417Y1915D01*
G01X11426Y1963D01*
G01X11434Y2012D01*
G01X11439Y2060D01*
G01X11442Y2109D01*
G01X11443Y2159D01*
G01X11442Y2208D01*
G01X11439Y2257D01*
G01X11434Y2305D01*
G01X11426Y2354D01*
G01X11417Y2402D01*
G01X11406Y2450D01*
G01X11392Y2497D01*
G01X11377Y2544D01*
G01X11360Y2590D01*
G01X11340Y2635D01*
G01X11319Y2679D01*
G01X11296Y2723D01*
G01X11271Y2765D01*
G01X11245Y2806D01*
G01X11216Y2846D01*
G01X11186Y2885D01*
G01X11155Y2923D01*
G01X11121Y2959D01*
G01X11087Y2993D01*
G01X11051Y3027D01*
G01X11013Y3058D01*
G01X10974Y3088D01*
G01X10934Y3117D01*
G01X10893Y3143D01*
G01X10851Y3168D01*
G01X10807Y3191D01*
G01X10763Y3212D01*
G01X10718Y3232D01*
G01X10672Y3249D01*
G01X10625Y3264D01*
G01X10578Y3278D01*
G01X10530Y3289D01*
G01X10482Y3298D01*
G01X10433Y3306D01*
G01X10385Y3311D01*
G01X10336Y3314D01*
G37*
G36*
G01X24814Y19824D02*
G01X24765Y19825D01*
G01X24715Y19824D01*
G01X24666Y19821D01*
G01X24618Y19816D01*
G01X24569Y19808D01*
G01X24521Y19799D01*
G01X24473Y19788D01*
G01X24426Y19774D01*
G01X24379Y19759D01*
G01X24333Y19742D01*
G01X24288Y19722D01*
G01X24244Y19701D01*
G01X24200Y19678D01*
G01X24158Y19653D01*
G01X24117Y19627D01*
G01X24077Y19598D01*
G01X24038Y19568D01*
G01X24000Y19537D01*
G01X23964Y19503D01*
G01X23930Y19469D01*
G01X23896Y19433D01*
G01X23865Y19395D01*
G01X23835Y19356D01*
G01X23806Y19316D01*
G01X23780Y19275D01*
G01X23755Y19233D01*
G01X23732Y19189D01*
G01X23711Y19145D01*
G01X23691Y19100D01*
G01X23674Y19054D01*
G01X23659Y19007D01*
G01X23645Y18960D01*
G01X23634Y18912D01*
G01X23625Y18864D01*
G01X23617Y18815D01*
G01X23612Y18767D01*
G01X23609Y18718D01*
G01X23608Y18669D01*
G01X23609Y18619D01*
G01X23612Y18570D01*
G01X23617Y18522D01*
G01X23625Y18473D01*
G01X23634Y18425D01*
G01X23645Y18377D01*
G01X23659Y18330D01*
G01X23674Y18283D01*
G01X23691Y18237D01*
G01X23711Y18192D01*
G01X23732Y18148D01*
G01X23755Y18104D01*
G01X23780Y18062D01*
G01X23806Y18021D01*
G01X23835Y17981D01*
G01X23865Y17942D01*
G01X23896Y17904D01*
G01X23930Y17868D01*
G01X23964Y17834D01*
G01X24000Y17800D01*
G01X24038Y17769D01*
G01X24077Y17739D01*
G01X24117Y17710D01*
G01X24158Y17684D01*
G01X24200Y17659D01*
G01X24244Y17636D01*
G01X24288Y17615D01*
G01X24333Y17595D01*
G01X24379Y17578D01*
G01X24426Y17563D01*
G01X24473Y17549D01*
G01X24521Y17538D01*
G01X24569Y17529D01*
G01X24618Y17521D01*
G01X24666Y17516D01*
G01X24715Y17513D01*
G01X24765Y17512D01*
G01X24814Y17513D01*
G01X24863Y17516D01*
G01X24911Y17521D01*
G01X24960Y17529D01*
G01X25008Y17538D01*
G01X25056Y17549D01*
G01X25103Y17563D01*
G01X25150Y17578D01*
G01X25196Y17595D01*
G01X25241Y17615D01*
G01X25285Y17636D01*
G01X25329Y17659D01*
G01X25371Y17684D01*
G01X25412Y17710D01*
G01X25452Y17739D01*
G01X25491Y17769D01*
G01X25529Y17800D01*
G01X25565Y17834D01*
G01X25599Y17868D01*
G01X25633Y17904D01*
G01X25664Y17942D01*
G01X25694Y17981D01*
G01X25723Y18021D01*
G01X25749Y18062D01*
G01X25774Y18104D01*
G01X25797Y18148D01*
G01X25818Y18192D01*
G01X25838Y18237D01*
G01X25855Y18283D01*
G01X25870Y18330D01*
G01X25884Y18377D01*
G01X25895Y18425D01*
G01X25904Y18473D01*
G01X25912Y18522D01*
G01X25917Y18570D01*
G01X25920Y18619D01*
G01X25921Y18669D01*
G01X25920Y18718D01*
G01X25917Y18767D01*
G01X25912Y18815D01*
G01X25904Y18864D01*
G01X25895Y18912D01*
G01X25884Y18960D01*
G01X25870Y19007D01*
G01X25855Y19054D01*
G01X25838Y19100D01*
G01X25818Y19145D01*
G01X25797Y19189D01*
G01X25774Y19233D01*
G01X25749Y19275D01*
G01X25723Y19316D01*
G01X25694Y19356D01*
G01X25664Y19395D01*
G01X25633Y19433D01*
G01X25599Y19469D01*
G01X25565Y19503D01*
G01X25529Y19537D01*
G01X25491Y19568D01*
G01X25452Y19598D01*
G01X25412Y19627D01*
G01X25371Y19653D01*
G01X25329Y19678D01*
G01X25285Y19701D01*
G01X25241Y19722D01*
G01X25196Y19742D01*
G01X25150Y19759D01*
G01X25103Y19774D01*
G01X25056Y19788D01*
G01X25008Y19799D01*
G01X24960Y19808D01*
G01X24911Y19816D01*
G01X24863Y19821D01*
G01X24814Y19824D01*
G37*
G36*
G01X24814Y22364D02*
G01X24765Y22365D01*
G01X24715Y22364D01*
G01X24666Y22361D01*
G01X24618Y22356D01*
G01X24569Y22348D01*
G01X24521Y22339D01*
G01X24473Y22328D01*
G01X24426Y22314D01*
G01X24379Y22299D01*
G01X24333Y22282D01*
G01X24288Y22262D01*
G01X24244Y22241D01*
G01X24200Y22218D01*
G01X24158Y22193D01*
G01X24117Y22167D01*
G01X24077Y22138D01*
G01X24038Y22108D01*
G01X24000Y22077D01*
G01X23964Y22043D01*
G01X23930Y22009D01*
G01X23896Y21973D01*
G01X23865Y21935D01*
G01X23835Y21896D01*
G01X23806Y21856D01*
G01X23780Y21815D01*
G01X23755Y21773D01*
G01X23732Y21729D01*
G01X23711Y21685D01*
G01X23691Y21640D01*
G01X23674Y21594D01*
G01X23659Y21547D01*
G01X23645Y21500D01*
G01X23634Y21452D01*
G01X23625Y21404D01*
G01X23617Y21355D01*
G01X23612Y21307D01*
G01X23609Y21258D01*
G01X23608Y21209D01*
G01X23609Y21159D01*
G01X23612Y21110D01*
G01X23617Y21062D01*
G01X23625Y21013D01*
G01X23634Y20965D01*
G01X23645Y20917D01*
G01X23659Y20870D01*
G01X23674Y20823D01*
G01X23691Y20777D01*
G01X23711Y20732D01*
G01X23732Y20688D01*
G01X23755Y20644D01*
G01X23780Y20602D01*
G01X23806Y20561D01*
G01X23835Y20521D01*
G01X23865Y20482D01*
G01X23896Y20444D01*
G01X23930Y20408D01*
G01X23964Y20374D01*
G01X24000Y20340D01*
G01X24038Y20309D01*
G01X24077Y20279D01*
G01X24117Y20250D01*
G01X24158Y20224D01*
G01X24200Y20199D01*
G01X24244Y20176D01*
G01X24288Y20155D01*
G01X24333Y20135D01*
G01X24379Y20118D01*
G01X24426Y20103D01*
G01X24473Y20089D01*
G01X24521Y20078D01*
G01X24569Y20069D01*
G01X24618Y20061D01*
G01X24666Y20056D01*
G01X24715Y20053D01*
G01X24765Y20052D01*
G01X24814Y20053D01*
G01X24863Y20056D01*
G01X24911Y20061D01*
G01X24960Y20069D01*
G01X25008Y20078D01*
G01X25056Y20089D01*
G01X25103Y20103D01*
G01X25150Y20118D01*
G01X25196Y20135D01*
G01X25241Y20155D01*
G01X25285Y20176D01*
G01X25329Y20199D01*
G01X25371Y20224D01*
G01X25412Y20250D01*
G01X25452Y20279D01*
G01X25491Y20309D01*
G01X25529Y20340D01*
G01X25565Y20374D01*
G01X25599Y20408D01*
G01X25633Y20444D01*
G01X25664Y20482D01*
G01X25694Y20521D01*
G01X25723Y20561D01*
G01X25749Y20602D01*
G01X25774Y20644D01*
G01X25797Y20688D01*
G01X25818Y20732D01*
G01X25838Y20777D01*
G01X25855Y20823D01*
G01X25870Y20870D01*
G01X25884Y20917D01*
G01X25895Y20965D01*
G01X25904Y21013D01*
G01X25912Y21062D01*
G01X25917Y21110D01*
G01X25920Y21159D01*
G01X25921Y21209D01*
G01X25920Y21258D01*
G01X25917Y21307D01*
G01X25912Y21355D01*
G01X25904Y21404D01*
G01X25895Y21452D01*
G01X25884Y21500D01*
G01X25870Y21547D01*
G01X25855Y21594D01*
G01X25838Y21640D01*
G01X25818Y21685D01*
G01X25797Y21729D01*
G01X25774Y21773D01*
G01X25749Y21815D01*
G01X25723Y21856D01*
G01X25694Y21896D01*
G01X25664Y21935D01*
G01X25633Y21973D01*
G01X25599Y22009D01*
G01X25565Y22043D01*
G01X25529Y22077D01*
G01X25491Y22108D01*
G01X25452Y22138D01*
G01X25412Y22167D01*
G01X25371Y22193D01*
G01X25329Y22218D01*
G01X25285Y22241D01*
G01X25241Y22262D01*
G01X25196Y22282D01*
G01X25150Y22299D01*
G01X25103Y22314D01*
G01X25056Y22328D01*
G01X25008Y22339D01*
G01X24960Y22348D01*
G01X24911Y22356D01*
G01X24863Y22361D01*
G01X24814Y22364D01*
G37*
G36*
G01X24814Y14744D02*
G01X24765Y14745D01*
G01X24715Y14744D01*
G01X24666Y14741D01*
G01X24618Y14736D01*
G01X24569Y14728D01*
G01X24521Y14719D01*
G01X24473Y14708D01*
G01X24426Y14694D01*
G01X24379Y14679D01*
G01X24333Y14662D01*
G01X24288Y14642D01*
G01X24244Y14621D01*
G01X24200Y14598D01*
G01X24158Y14573D01*
G01X24117Y14547D01*
G01X24077Y14518D01*
G01X24038Y14488D01*
G01X24000Y14457D01*
G01X23964Y14423D01*
G01X23930Y14389D01*
G01X23896Y14353D01*
G01X23865Y14315D01*
G01X23835Y14276D01*
G01X23806Y14236D01*
G01X23780Y14195D01*
G01X23755Y14153D01*
G01X23732Y14109D01*
G01X23711Y14065D01*
G01X23691Y14020D01*
G01X23674Y13974D01*
G01X23659Y13927D01*
G01X23645Y13880D01*
G01X23634Y13832D01*
G01X23625Y13784D01*
G01X23617Y13735D01*
G01X23612Y13687D01*
G01X23609Y13638D01*
G01X23608Y13589D01*
G01X23609Y13539D01*
G01X23612Y13490D01*
G01X23617Y13442D01*
G01X23625Y13393D01*
G01X23634Y13345D01*
G01X23645Y13297D01*
G01X23659Y13250D01*
G01X23674Y13203D01*
G01X23691Y13157D01*
G01X23711Y13112D01*
G01X23732Y13068D01*
G01X23755Y13024D01*
G01X23780Y12982D01*
G01X23806Y12941D01*
G01X23835Y12901D01*
G01X23865Y12862D01*
G01X23896Y12824D01*
G01X23930Y12788D01*
G01X23964Y12754D01*
G01X24000Y12720D01*
G01X24038Y12689D01*
G01X24077Y12659D01*
G01X24117Y12630D01*
G01X24158Y12604D01*
G01X24200Y12579D01*
G01X24244Y12556D01*
G01X24288Y12535D01*
G01X24333Y12515D01*
G01X24379Y12498D01*
G01X24426Y12483D01*
G01X24473Y12469D01*
G01X24521Y12458D01*
G01X24569Y12449D01*
G01X24618Y12441D01*
G01X24666Y12436D01*
G01X24715Y12433D01*
G01X24765Y12432D01*
G01X24814Y12433D01*
G01X24863Y12436D01*
G01X24911Y12441D01*
G01X24960Y12449D01*
G01X25008Y12458D01*
G01X25056Y12469D01*
G01X25103Y12483D01*
G01X25150Y12498D01*
G01X25196Y12515D01*
G01X25241Y12535D01*
G01X25285Y12556D01*
G01X25329Y12579D01*
G01X25371Y12604D01*
G01X25412Y12630D01*
G01X25452Y12659D01*
G01X25491Y12689D01*
G01X25529Y12720D01*
G01X25565Y12754D01*
G01X25599Y12788D01*
G01X25633Y12824D01*
G01X25664Y12862D01*
G01X25694Y12901D01*
G01X25723Y12941D01*
G01X25749Y12982D01*
G01X25774Y13024D01*
G01X25797Y13068D01*
G01X25818Y13112D01*
G01X25838Y13157D01*
G01X25855Y13203D01*
G01X25870Y13250D01*
G01X25884Y13297D01*
G01X25895Y13345D01*
G01X25904Y13393D01*
G01X25912Y13442D01*
G01X25917Y13490D01*
G01X25920Y13539D01*
G01X25921Y13589D01*
G01X25920Y13638D01*
G01X25917Y13687D01*
G01X25912Y13735D01*
G01X25904Y13784D01*
G01X25895Y13832D01*
G01X25884Y13880D01*
G01X25870Y13927D01*
G01X25855Y13974D01*
G01X25838Y14020D01*
G01X25818Y14065D01*
G01X25797Y14109D01*
G01X25774Y14153D01*
G01X25749Y14195D01*
G01X25723Y14236D01*
G01X25694Y14276D01*
G01X25664Y14315D01*
G01X25633Y14353D01*
G01X25599Y14389D01*
G01X25565Y14423D01*
G01X25529Y14457D01*
G01X25491Y14488D01*
G01X25452Y14518D01*
G01X25412Y14547D01*
G01X25371Y14573D01*
G01X25329Y14598D01*
G01X25285Y14621D01*
G01X25241Y14642D01*
G01X25196Y14662D01*
G01X25150Y14679D01*
G01X25103Y14694D01*
G01X25056Y14708D01*
G01X25008Y14719D01*
G01X24960Y14728D01*
G01X24911Y14736D01*
G01X24863Y14741D01*
G01X24814Y14744D01*
G37*
G36*
G01X2804Y7125D02*
G01X1005Y7125D01*
G01X981Y7124D01*
G01X957Y7121D01*
G01X934Y7115D01*
G01X912Y7108D01*
G01X890Y7098D01*
G01X869Y7087D01*
G01X850Y7073D01*
G01X832Y7058D01*
G01X815Y7041D01*
G01X800Y7023D01*
G01X786Y7004D01*
G01X775Y6983D01*
G01X765Y6961D01*
G01X758Y6939D01*
G01X752Y6916D01*
G01X749Y6892D01*
G01X748Y6868D01*
G01X748Y5069D01*
G01X749Y5045D01*
G01X752Y5021D01*
G01X758Y4998D01*
G01X765Y4976D01*
G01X775Y4954D01*
G01X786Y4933D01*
G01X800Y4914D01*
G01X815Y4896D01*
G01X832Y4879D01*
G01X850Y4864D01*
G01X869Y4850D01*
G01X890Y4839D01*
G01X912Y4829D01*
G01X934Y4822D01*
G01X957Y4816D01*
G01X981Y4813D01*
G01X1005Y4812D01*
G01X2804Y4812D01*
G01X2828Y4813D01*
G01X2852Y4816D01*
G01X2875Y4822D01*
G01X2897Y4829D01*
G01X2919Y4839D01*
G01X2940Y4850D01*
G01X2959Y4864D01*
G01X2977Y4879D01*
G01X2994Y4896D01*
G01X3009Y4914D01*
G01X3023Y4933D01*
G01X3034Y4954D01*
G01X3044Y4976D01*
G01X3051Y4998D01*
G01X3057Y5021D01*
G01X3060Y5045D01*
G01X3061Y5069D01*
G01X3061Y6868D01*
G01X3060Y6892D01*
G01X3057Y6916D01*
G01X3051Y6939D01*
G01X3044Y6961D01*
G01X3034Y6983D01*
G01X3023Y7004D01*
G01X3009Y7023D01*
G01X2994Y7041D01*
G01X2977Y7058D01*
G01X2959Y7073D01*
G01X2940Y7087D01*
G01X2919Y7098D01*
G01X2897Y7108D01*
G01X2875Y7115D01*
G01X2852Y7121D01*
G01X2828Y7124D01*
G01X2804Y7125D01*
G37*
G36*
G01X1954Y14744D02*
G01X1905Y14745D01*
G01X1855Y14744D01*
G01X1806Y14741D01*
G01X1758Y14736D01*
G01X1709Y14728D01*
G01X1661Y14719D01*
G01X1613Y14708D01*
G01X1566Y14694D01*
G01X1519Y14679D01*
G01X1473Y14662D01*
G01X1428Y14642D01*
G01X1384Y14621D01*
G01X1340Y14598D01*
G01X1298Y14573D01*
G01X1257Y14547D01*
G01X1217Y14518D01*
G01X1178Y14488D01*
G01X1140Y14457D01*
G01X1104Y14423D01*
G01X1070Y14389D01*
G01X1036Y14353D01*
G01X1005Y14315D01*
G01X975Y14276D01*
G01X946Y14236D01*
G01X920Y14195D01*
G01X895Y14153D01*
G01X872Y14109D01*
G01X851Y14065D01*
G01X831Y14020D01*
G01X814Y13974D01*
G01X799Y13927D01*
G01X785Y13880D01*
G01X774Y13832D01*
G01X765Y13784D01*
G01X757Y13735D01*
G01X752Y13687D01*
G01X749Y13638D01*
G01X748Y13589D01*
G01X749Y13539D01*
G01X752Y13490D01*
G01X757Y13442D01*
G01X765Y13393D01*
G01X774Y13345D01*
G01X785Y13297D01*
G01X799Y13250D01*
G01X814Y13203D01*
G01X831Y13157D01*
G01X851Y13112D01*
G01X872Y13068D01*
G01X895Y13024D01*
G01X920Y12982D01*
G01X946Y12941D01*
G01X975Y12901D01*
G01X1005Y12862D01*
G01X1036Y12824D01*
G01X1070Y12788D01*
G01X1104Y12754D01*
G01X1140Y12720D01*
G01X1178Y12689D01*
G01X1217Y12659D01*
G01X1257Y12630D01*
G01X1298Y12604D01*
G01X1340Y12579D01*
G01X1384Y12556D01*
G01X1428Y12535D01*
G01X1473Y12515D01*
G01X1519Y12498D01*
G01X1566Y12483D01*
G01X1613Y12469D01*
G01X1661Y12458D01*
G01X1709Y12449D01*
G01X1758Y12441D01*
G01X1806Y12436D01*
G01X1855Y12433D01*
G01X1905Y12432D01*
G01X1954Y12433D01*
G01X2003Y12436D01*
G01X2051Y12441D01*
G01X2100Y12449D01*
G01X2148Y12458D01*
G01X2196Y12469D01*
G01X2243Y12483D01*
G01X2290Y12498D01*
G01X2336Y12515D01*
G01X2381Y12535D01*
G01X2425Y12556D01*
G01X2469Y12579D01*
G01X2511Y12604D01*
G01X2552Y12630D01*
G01X2592Y12659D01*
G01X2631Y12689D01*
G01X2669Y12720D01*
G01X2705Y12754D01*
G01X2739Y12788D01*
G01X2773Y12824D01*
G01X2804Y12862D01*
G01X2834Y12901D01*
G01X2863Y12941D01*
G01X2889Y12982D01*
G01X2914Y13024D01*
G01X2937Y13068D01*
G01X2958Y13112D01*
G01X2978Y13157D01*
G01X2995Y13203D01*
G01X3010Y13250D01*
G01X3024Y13297D01*
G01X3035Y13345D01*
G01X3044Y13393D01*
G01X3052Y13442D01*
G01X3057Y13490D01*
G01X3060Y13539D01*
G01X3061Y13589D01*
G01X3060Y13638D01*
G01X3057Y13687D01*
G01X3052Y13735D01*
G01X3044Y13784D01*
G01X3035Y13832D01*
G01X3024Y13880D01*
G01X3010Y13927D01*
G01X2995Y13974D01*
G01X2978Y14020D01*
G01X2958Y14065D01*
G01X2937Y14109D01*
G01X2914Y14153D01*
G01X2889Y14195D01*
G01X2863Y14236D01*
G01X2834Y14276D01*
G01X2804Y14315D01*
G01X2773Y14353D01*
G01X2739Y14389D01*
G01X2705Y14423D01*
G01X2669Y14457D01*
G01X2631Y14488D01*
G01X2592Y14518D01*
G01X2552Y14547D01*
G01X2511Y14573D01*
G01X2469Y14598D01*
G01X2425Y14621D01*
G01X2381Y14642D01*
G01X2336Y14662D01*
G01X2290Y14679D01*
G01X2243Y14694D01*
G01X2196Y14708D01*
G01X2148Y14719D01*
G01X2100Y14728D01*
G01X2051Y14736D01*
G01X2003Y14741D01*
G01X1954Y14744D01*
G37*
G36*
G01X11003Y22869D02*
G01X10962Y22870D01*
G01X10921Y22869D01*
G01X10881Y22866D01*
G01X10840Y22861D01*
G01X10800Y22854D01*
G01X10760Y22845D01*
G01X10721Y22833D01*
G01X10682Y22820D01*
G01X10644Y22805D01*
G01X10607Y22788D01*
G01X10571Y22769D01*
G01X10535Y22748D01*
G01X10501Y22726D01*
G01X10468Y22702D01*
G01X10437Y22676D01*
G01X10406Y22648D01*
G01X10378Y22620D01*
G01X10350Y22589D01*
G01X10324Y22558D01*
G01X10300Y22525D01*
G01X10278Y22490D01*
G01X10257Y22455D01*
G01X10238Y22419D01*
G01X10221Y22382D01*
G01X10206Y22344D01*
G01X10193Y22305D01*
G01X10181Y22266D01*
G01X10172Y22226D01*
G01X10165Y22186D01*
G01X10160Y22145D01*
G01X10157Y22105D01*
G01X10156Y22064D01*
G01X10157Y22023D01*
G01X10160Y21982D01*
G01X10165Y21942D01*
G01X10172Y21901D01*
G01X10181Y21862D01*
G01X10193Y21822D01*
G01X10206Y21784D01*
G01X10221Y21746D01*
G01X10238Y21709D01*
G01X10257Y21672D01*
G01X10278Y21637D01*
G01X10300Y21603D01*
G01X10324Y21570D01*
G01X10350Y21538D01*
G01X10378Y21508D01*
G01X10406Y21479D01*
G01X10437Y21452D01*
G01X10468Y21426D01*
G01X10501Y21402D01*
G01X10535Y21379D01*
G01X10571Y21359D01*
G01X10607Y21340D01*
G01X10644Y21323D01*
G01X10682Y21308D01*
G01X10721Y21294D01*
G01X10760Y21283D01*
G01X10800Y21274D01*
G01X10840Y21267D01*
G01X10881Y21261D01*
G01X10921Y21258D01*
G01X10962Y21257D01*
G01X11003Y21258D01*
G01X11044Y21261D01*
G01X11084Y21267D01*
G01X11124Y21274D01*
G01X11164Y21283D01*
G01X11204Y21294D01*
G01X11242Y21308D01*
G01X11280Y21323D01*
G01X11317Y21340D01*
G01X11354Y21359D01*
G01X11389Y21379D01*
G01X11423Y21402D01*
G01X11456Y21426D01*
G01X11488Y21452D01*
G01X11518Y21479D01*
G01X11547Y21508D01*
G01X11574Y21538D01*
G01X11600Y21570D01*
G01X11624Y21603D01*
G01X11647Y21637D01*
G01X11667Y21672D01*
G01X11686Y21709D01*
G01X11703Y21746D01*
G01X11718Y21784D01*
G01X11732Y21822D01*
G01X11743Y21862D01*
G01X11752Y21901D01*
G01X11759Y21942D01*
G01X11765Y21982D01*
G01X11768Y22023D01*
G01X11769Y22064D01*
G01X11768Y22105D01*
G01X11765Y22145D01*
G01X11759Y22186D01*
G01X11752Y22226D01*
G01X11743Y22266D01*
G01X11732Y22305D01*
G01X11718Y22344D01*
G01X11703Y22382D01*
G01X11686Y22419D01*
G01X11667Y22455D01*
G01X11647Y22490D01*
G01X11624Y22525D01*
G01X11600Y22558D01*
G01X11574Y22589D01*
G01X11547Y22620D01*
G01X11518Y22648D01*
G01X11488Y22676D01*
G01X11456Y22702D01*
G01X11423Y22726D01*
G01X11389Y22748D01*
G01X11354Y22769D01*
G01X11317Y22788D01*
G01X11280Y22805D01*
G01X11242Y22820D01*
G01X11204Y22833D01*
G01X11164Y22845D01*
G01X11124Y22854D01*
G01X11084Y22861D01*
G01X11044Y22866D01*
G01X11003Y22869D01*
G37*
G36*
G01X3749Y21030D02*
G01X3312Y21030D01*
G01X3281Y21028D01*
G01X3252Y21023D01*
G01X3243Y20970D01*
G01X3233Y20918D01*
G01X3220Y20866D01*
G01X3206Y20814D01*
G01X3189Y20763D01*
G01X3183Y20749D01*
G01X3175Y20736D01*
G01X3164Y20724D01*
G01X3152Y20714D01*
G01X3139Y20706D01*
G01X3124Y20700D01*
G01X3109Y20696D01*
G01X3093Y20695D01*
G01X2418Y20695D01*
G01X2418Y20172D01*
G01X2463Y20196D01*
G01X2507Y20221D01*
G01X2549Y20248D01*
G01X2591Y20278D01*
G01X2631Y20309D01*
G01X2670Y20341D01*
G01X2707Y20376D01*
G01X2743Y20412D01*
G01X2777Y20449D01*
G01X2809Y20488D01*
G01X2840Y20528D01*
G01X2869Y20570D01*
G01X2879Y20583D01*
G01X2891Y20594D01*
G01X2905Y20603D01*
G01X2921Y20610D01*
G01X2937Y20614D01*
G01X2954Y20616D01*
G01X2968Y20614D01*
G01X2982Y20611D01*
G01X2996Y20606D01*
G01X3008Y20599D01*
G01X3020Y20591D01*
G01X3030Y20580D01*
G01X3039Y20569D01*
G01X3046Y20556D01*
G01X3051Y20543D01*
G01X3054Y20528D01*
G01X3055Y20514D01*
G01X3055Y20212D01*
G01X3749Y20212D01*
G01X3749Y21030D01*
G37*
G36*
G01X14213Y26532D02*
G01X13776Y26532D01*
G01X13776Y25713D01*
G01X14470Y25713D01*
G01X14470Y26275D01*
G01X14469Y26299D01*
G01X14466Y26322D01*
G01X14460Y26345D01*
G01X14453Y26368D01*
G01X14443Y26390D01*
G01X14431Y26410D01*
G01X14418Y26430D01*
G01X14403Y26448D01*
G01X14386Y26465D01*
G01X14368Y26480D01*
G01X14348Y26493D01*
G01X14328Y26505D01*
G01X14306Y26514D01*
G01X14284Y26522D01*
G01X14260Y26527D01*
G01X14237Y26531D01*
G01X14213Y26532D01*
G37*
G36*
G01X14470Y24335D02*
G01X13776Y24335D01*
G01X13776Y23517D01*
G01X14213Y23517D01*
G01X14237Y23518D01*
G01X14260Y23521D01*
G01X14284Y23527D01*
G01X14306Y23534D01*
G01X14328Y23544D01*
G01X14348Y23555D01*
G01X14368Y23569D01*
G01X14386Y23584D01*
G01X14403Y23600D01*
G01X14418Y23619D01*
G01X14431Y23638D01*
G01X14443Y23659D01*
G01X14453Y23681D01*
G01X14460Y23703D01*
G01X14466Y23726D01*
G01X14469Y23750D01*
G01X14470Y23773D01*
G01X14470Y24335D01*
G37*
G36*
G01X5313Y26532D02*
G01X4876Y26532D01*
G01X4876Y25713D01*
G01X5570Y25713D01*
G01X5570Y26275D01*
G01X5569Y26299D01*
G01X5565Y26322D01*
G01X5560Y26345D01*
G01X5552Y26368D01*
G01X5543Y26390D01*
G01X5531Y26410D01*
G01X5518Y26430D01*
G01X5503Y26448D01*
G01X5486Y26465D01*
G01X5468Y26480D01*
G01X5448Y26493D01*
G01X5428Y26505D01*
G01X5406Y26514D01*
G01X5383Y26522D01*
G01X5360Y26527D01*
G01X5337Y26531D01*
G01X5313Y26532D01*
G37*
G36*
G01X3749Y26532D02*
G01X3312Y26532D01*
G01X3288Y26531D01*
G01X3265Y26527D01*
G01X3241Y26522D01*
G01X3219Y26514D01*
G01X3197Y26505D01*
G01X3177Y26493D01*
G01X3157Y26480D01*
G01X3139Y26465D01*
G01X3122Y26448D01*
G01X3107Y26430D01*
G01X3094Y26410D01*
G01X3082Y26390D01*
G01X3072Y26368D01*
G01X3065Y26345D01*
G01X3059Y26322D01*
G01X3056Y26299D01*
G01X3055Y26275D01*
G01X3055Y25713D01*
G01X3749Y25713D01*
G01X3749Y26532D01*
G37*
G36*
G01X5570Y24335D02*
G01X4876Y24335D01*
G01X4876Y23517D01*
G01X5313Y23517D01*
G01X5337Y23518D01*
G01X5360Y23521D01*
G01X5383Y23527D01*
G01X5406Y23534D01*
G01X5428Y23544D01*
G01X5448Y23555D01*
G01X5468Y23569D01*
G01X5486Y23584D01*
G01X5503Y23600D01*
G01X5518Y23619D01*
G01X5531Y23638D01*
G01X5543Y23659D01*
G01X5552Y23681D01*
G01X5560Y23703D01*
G01X5565Y23726D01*
G01X5569Y23750D01*
G01X5570Y23773D01*
G01X5570Y24335D01*
G37*
G36*
G01X12649Y24335D02*
G01X11955Y24335D01*
G01X11955Y23773D01*
G01X11956Y23750D01*
G01X11960Y23726D01*
G01X11965Y23703D01*
G01X11973Y23681D01*
G01X11982Y23659D01*
G01X11994Y23638D01*
G01X12007Y23619D01*
G01X12022Y23600D01*
G01X12039Y23584D01*
G01X12057Y23569D01*
G01X12077Y23555D01*
G01X12097Y23544D01*
G01X12119Y23534D01*
G01X12142Y23527D01*
G01X12165Y23521D01*
G01X12188Y23518D01*
G01X12212Y23517D01*
G01X12649Y23517D01*
G01X12649Y24335D01*
G37*
G36*
G01X12649Y26532D02*
G01X12212Y26532D01*
G01X12188Y26531D01*
G01X12165Y26527D01*
G01X12142Y26522D01*
G01X12119Y26514D01*
G01X12097Y26505D01*
G01X12077Y26493D01*
G01X12057Y26480D01*
G01X12039Y26465D01*
G01X12022Y26448D01*
G01X12007Y26430D01*
G01X11994Y26410D01*
G01X11982Y26390D01*
G01X11973Y26368D01*
G01X11965Y26345D01*
G01X11960Y26322D01*
G01X11956Y26299D01*
G01X11955Y26275D01*
G01X11955Y25713D01*
G01X12649Y25713D01*
G01X12649Y26532D01*
G37*
G36*
G01X5313Y21030D02*
G01X4876Y21030D01*
G01X4876Y20212D01*
G01X5570Y20212D01*
G01X5570Y20774D01*
G01X5569Y20797D01*
G01X5565Y20821D01*
G01X5560Y20844D01*
G01X5552Y20866D01*
G01X5543Y20888D01*
G01X5531Y20909D01*
G01X5518Y20928D01*
G01X5503Y20946D01*
G01X5486Y20963D01*
G01X5468Y20978D01*
G01X5448Y20992D01*
G01X5428Y21003D01*
G01X5406Y21013D01*
G01X5383Y21020D01*
G01X5360Y21026D01*
G01X5337Y21029D01*
G01X5313Y21030D01*
G37*
G36*
G01X5570Y18836D02*
G01X4876Y18836D01*
G01X4876Y18018D01*
G01X5313Y18018D01*
G01X5337Y18019D01*
G01X5360Y18022D01*
G01X5383Y18027D01*
G01X5406Y18035D01*
G01X5428Y18045D01*
G01X5448Y18056D01*
G01X5468Y18069D01*
G01X5486Y18085D01*
G01X5503Y18101D01*
G01X5518Y18120D01*
G01X5531Y18139D01*
G01X5543Y18160D01*
G01X5552Y18181D01*
G01X5560Y18204D01*
G01X5565Y18227D01*
G01X5569Y18250D01*
G01X5570Y18274D01*
G01X5570Y18836D01*
G37*
G36*
G01X14467Y18836D02*
G01X13775Y18836D01*
G01X13775Y18018D01*
G01X14211Y18018D01*
G01X14234Y18019D01*
G01X14258Y18022D01*
G01X14281Y18027D01*
G01X14303Y18035D01*
G01X14325Y18045D01*
G01X14346Y18056D01*
G01X14365Y18069D01*
G01X14384Y18085D01*
G01X14400Y18101D01*
G01X14416Y18120D01*
G01X14429Y18139D01*
G01X14440Y18160D01*
G01X14450Y18181D01*
G01X14458Y18204D01*
G01X14463Y18227D01*
G01X14466Y18250D01*
G01X14467Y18274D01*
G01X14467Y18836D01*
G37*
G36*
G01X12648Y21030D02*
G01X12212Y21030D01*
G01X12188Y21029D01*
G01X12165Y21026D01*
G01X12142Y21020D01*
G01X12119Y21013D01*
G01X12097Y21003D01*
G01X12077Y20992D01*
G01X12057Y20978D01*
G01X12039Y20963D01*
G01X12022Y20946D01*
G01X12007Y20928D01*
G01X11994Y20909D01*
G01X11982Y20888D01*
G01X11973Y20866D01*
G01X11965Y20844D01*
G01X11960Y20821D01*
G01X11956Y20797D01*
G01X11955Y20774D01*
G01X11955Y20212D01*
G01X12648Y20212D01*
G01X12648Y21030D01*
G37*
G36*
G01X14211Y21030D02*
G01X13775Y21030D01*
G01X13775Y20212D01*
G01X14467Y20212D01*
G01X14467Y20774D01*
G01X14466Y20797D01*
G01X14463Y20821D01*
G01X14458Y20844D01*
G01X14450Y20866D01*
G01X14440Y20888D01*
G01X14429Y20909D01*
G01X14416Y20928D01*
G01X14400Y20946D01*
G01X14384Y20963D01*
G01X14365Y20978D01*
G01X14346Y20992D01*
G01X14325Y21003D01*
G01X14303Y21013D01*
G01X14281Y21020D01*
G01X14258Y21026D01*
G01X14234Y21029D01*
G01X14211Y21030D01*
G37*
G36*
G01X12648Y18836D02*
G01X11955Y18836D01*
G01X11955Y18274D01*
G01X11956Y18250D01*
G01X11960Y18227D01*
G01X11965Y18204D01*
G01X11973Y18181D01*
G01X11982Y18160D01*
G01X11994Y18139D01*
G01X12007Y18120D01*
G01X12022Y18101D01*
G01X12039Y18085D01*
G01X12057Y18069D01*
G01X12077Y18056D01*
G01X12097Y18045D01*
G01X12119Y18035D01*
G01X12142Y18027D01*
G01X12165Y18022D01*
G01X12188Y18019D01*
G01X12212Y18018D01*
G01X12648Y18018D01*
G01X12648Y18836D01*
G37*
G36*
G01X21600Y3315D02*
G01X21214Y3315D01*
G01X21214Y2672D01*
G01X21857Y2672D01*
G01X21857Y3058D01*
G01X21856Y3082D01*
G01X21853Y3106D01*
G01X21847Y3129D01*
G01X21840Y3151D01*
G01X21830Y3173D01*
G01X21819Y3194D01*
G01X21805Y3213D01*
G01X21790Y3231D01*
G01X21773Y3248D01*
G01X21755Y3263D01*
G01X21736Y3277D01*
G01X21715Y3288D01*
G01X21693Y3298D01*
G01X21671Y3305D01*
G01X21648Y3311D01*
G01X21624Y3314D01*
G01X21600Y3315D01*
G37*
G36*
G01X20187Y1645D02*
G01X19544Y1645D01*
G01X19544Y1259D01*
G01X19545Y1235D01*
G01X19548Y1211D01*
G01X19554Y1188D01*
G01X19561Y1166D01*
G01X19571Y1144D01*
G01X19582Y1123D01*
G01X19596Y1104D01*
G01X19611Y1086D01*
G01X19628Y1069D01*
G01X19646Y1054D01*
G01X19665Y1040D01*
G01X19686Y1029D01*
G01X19708Y1019D01*
G01X19730Y1012D01*
G01X19753Y1006D01*
G01X19777Y1003D01*
G01X19801Y1002D01*
G01X20187Y1002D01*
G01X20187Y1645D01*
G37*
G36*
G01X21857Y1645D02*
G01X21214Y1645D01*
G01X21214Y1002D01*
G01X21600Y1002D01*
G01X21624Y1003D01*
G01X21648Y1006D01*
G01X21671Y1012D01*
G01X21693Y1019D01*
G01X21715Y1029D01*
G01X21736Y1040D01*
G01X21755Y1054D01*
G01X21773Y1069D01*
G01X21790Y1086D01*
G01X21805Y1104D01*
G01X21819Y1123D01*
G01X21830Y1144D01*
G01X21840Y1166D01*
G01X21847Y1188D01*
G01X21853Y1211D01*
G01X21856Y1235D01*
G01X21857Y1259D01*
G01X21857Y1645D01*
G37*
G36*
G01X23436Y5365D02*
G01X22943Y5365D01*
G01X22943Y4632D01*
G01X23180Y4632D01*
G01X23203Y4634D01*
G01X23227Y4637D01*
G01X23250Y4642D01*
G01X23272Y4650D01*
G01X23294Y4659D01*
G01X23315Y4671D01*
G01X23334Y4684D01*
G01X23352Y4699D01*
G01X23369Y4716D01*
G01X23384Y4734D01*
G01X23398Y4754D01*
G01X23409Y4775D01*
G01X23419Y4796D01*
G01X23426Y4819D01*
G01X23432Y4842D01*
G01X23435Y4865D01*
G01X23436Y4889D01*
G01X23436Y5365D01*
G37*
G36*
G01X22217Y5365D02*
G01X21724Y5365D01*
G01X21724Y4889D01*
G01X21725Y4865D01*
G01X21728Y4842D01*
G01X21734Y4819D01*
G01X21741Y4796D01*
G01X21751Y4775D01*
G01X21763Y4754D01*
G01X21776Y4734D01*
G01X21791Y4716D01*
G01X21808Y4699D01*
G01X21826Y4684D01*
G01X21846Y4671D01*
G01X21866Y4659D01*
G01X21888Y4650D01*
G01X21910Y4642D01*
G01X21934Y4637D01*
G01X21957Y4634D01*
G01X21981Y4632D01*
G01X22217Y4632D01*
G01X22217Y5365D01*
G37*
G36*
G01X23180Y7305D02*
G01X22943Y7305D01*
G01X22943Y6572D01*
G01X23436Y6572D01*
G01X23436Y7048D01*
G01X23435Y7072D01*
G01X23432Y7095D01*
G01X23426Y7118D01*
G01X23419Y7141D01*
G01X23409Y7162D01*
G01X23398Y7183D01*
G01X23384Y7203D01*
G01X23369Y7221D01*
G01X23352Y7238D01*
G01X23334Y7253D01*
G01X23315Y7266D01*
G01X23294Y7278D01*
G01X23272Y7287D01*
G01X23250Y7295D01*
G01X23227Y7300D01*
G01X23203Y7303D01*
G01X23180Y7305D01*
G37*
G36*
G01X22217Y7305D02*
G01X21981Y7305D01*
G01X21957Y7303D01*
G01X21934Y7300D01*
G01X21910Y7295D01*
G01X21888Y7287D01*
G01X21866Y7278D01*
G01X21846Y7266D01*
G01X21826Y7253D01*
G01X21808Y7238D01*
G01X21791Y7221D01*
G01X21776Y7203D01*
G01X21763Y7183D01*
G01X21751Y7162D01*
G01X21741Y7141D01*
G01X21734Y7118D01*
G01X21728Y7095D01*
G01X21725Y7072D01*
G01X21724Y7048D01*
G01X21724Y6572D01*
G01X22217Y6572D01*
G01X22217Y7305D01*
G37*
G36*
G01X1391Y21722D02*
G01X1391Y22245D01*
G01X1347Y22222D01*
G01X1303Y22196D01*
G01X1261Y22169D01*
G01X1220Y22141D01*
G01X1180Y22110D01*
G01X1142Y22078D01*
G01X1105Y22044D01*
G01X1069Y22008D01*
G01X1035Y21971D01*
G01X1003Y21933D01*
G01X972Y21893D01*
G01X944Y21852D01*
G01X917Y21810D01*
G01X891Y21766D01*
G01X868Y21722D01*
G01X1391Y21722D01*
G37*
G36*
G01X24251Y15615D02*
G01X23728Y15615D01*
G01X23751Y15571D01*
G01X23777Y15527D01*
G01X23804Y15485D01*
G01X23832Y15444D01*
G01X23863Y15404D01*
G01X23895Y15366D01*
G01X23929Y15329D01*
G01X23965Y15293D01*
G01X24002Y15259D01*
G01X24040Y15227D01*
G01X24080Y15196D01*
G01X24121Y15168D01*
G01X24163Y15141D01*
G01X24207Y15115D01*
G01X24251Y15092D01*
G01X24251Y15615D01*
G37*
G36*
G01X24251Y5455D02*
G01X23728Y5455D01*
G01X23751Y5411D01*
G01X23777Y5367D01*
G01X23804Y5325D01*
G01X23832Y5284D01*
G01X23863Y5244D01*
G01X23895Y5206D01*
G01X23929Y5169D01*
G01X23965Y5133D01*
G01X24002Y5099D01*
G01X24040Y5067D01*
G01X24080Y5036D01*
G01X24121Y5008D01*
G01X24163Y4981D01*
G01X24207Y4955D01*
G01X24251Y4932D01*
G01X24251Y5455D01*
G37*
G36*
G01X24251Y6482D02*
G01X24251Y7005D01*
G01X24207Y6982D01*
G01X24163Y6956D01*
G01X24121Y6929D01*
G01X24080Y6901D01*
G01X24040Y6870D01*
G01X24002Y6838D01*
G01X23965Y6804D01*
G01X23929Y6768D01*
G01X23895Y6731D01*
G01X23863Y6693D01*
G01X23832Y6653D01*
G01X23804Y6612D01*
G01X23777Y6570D01*
G01X23751Y6526D01*
G01X23728Y6482D01*
G01X24251Y6482D01*
G37*
G36*
G01X24251Y16642D02*
G01X24251Y17165D01*
G01X24207Y17142D01*
G01X24163Y17116D01*
G01X24121Y17089D01*
G01X24080Y17061D01*
G01X24040Y17030D01*
G01X24002Y16998D01*
G01X23965Y16964D01*
G01X23929Y16928D01*
G01X23895Y16891D01*
G01X23863Y16853D01*
G01X23832Y16813D01*
G01X23804Y16772D01*
G01X23777Y16730D01*
G01X23751Y16686D01*
G01X23728Y16642D01*
G01X24251Y16642D01*
G37*
G36*
G01X25801Y15615D02*
G01X25278Y15615D01*
G01X25278Y15092D01*
G01X25322Y15115D01*
G01X25366Y15141D01*
G01X25408Y15168D01*
G01X25449Y15196D01*
G01X25489Y15227D01*
G01X25527Y15259D01*
G01X25564Y15293D01*
G01X25600Y15329D01*
G01X25634Y15366D01*
G01X25666Y15404D01*
G01X25697Y15444D01*
G01X25725Y15485D01*
G01X25752Y15527D01*
G01X25778Y15571D01*
G01X25801Y15615D01*
G37*
G36*
G01X25801Y5455D02*
G01X25278Y5455D01*
G01X25278Y4932D01*
G01X25322Y4955D01*
G01X25366Y4981D01*
G01X25408Y5008D01*
G01X25449Y5036D01*
G01X25489Y5067D01*
G01X25527Y5099D01*
G01X25564Y5133D01*
G01X25600Y5169D01*
G01X25634Y5206D01*
G01X25666Y5244D01*
G01X25697Y5284D01*
G01X25725Y5325D01*
G01X25752Y5367D01*
G01X25778Y5411D01*
G01X25801Y5455D01*
G37*
G36*
G01X1391Y20695D02*
G01X868Y20695D01*
G01X891Y20651D01*
G01X917Y20607D01*
G01X944Y20565D01*
G01X972Y20524D01*
G01X1003Y20484D01*
G01X1035Y20446D01*
G01X1069Y20409D01*
G01X1105Y20373D01*
G01X1142Y20339D01*
G01X1180Y20307D01*
G01X1220Y20276D01*
G01X1261Y20248D01*
G01X1303Y20221D01*
G01X1347Y20195D01*
G01X1391Y20172D01*
G01X1391Y20695D01*
G37*
G36*
G01X25322Y6982D02*
G01X25278Y7005D01*
G01X25278Y6482D01*
G01X25801Y6482D01*
G01X25778Y6526D01*
G01X25752Y6570D01*
G01X25725Y6612D01*
G01X25697Y6653D01*
G01X25666Y6693D01*
G01X25634Y6731D01*
G01X25600Y6768D01*
G01X25564Y6804D01*
G01X25527Y6838D01*
G01X25489Y6870D01*
G01X25449Y6901D01*
G01X25408Y6929D01*
G01X25366Y6956D01*
G01X25322Y6982D01*
G37*
G36*
G01X25322Y17142D02*
G01X25278Y17165D01*
G01X25278Y16642D01*
G01X25801Y16642D01*
G01X25778Y16686D01*
G01X25752Y16730D01*
G01X25725Y16772D01*
G01X25697Y16813D01*
G01X25666Y16853D01*
G01X25634Y16891D01*
G01X25600Y16928D01*
G01X25564Y16964D01*
G01X25527Y16998D01*
G01X25489Y17030D01*
G01X25449Y17061D01*
G01X25408Y17089D01*
G01X25366Y17116D01*
G01X25322Y17142D01*
G37*
G36*
G01X2462Y22222D02*
G01X2418Y22245D01*
G01X2418Y21722D01*
G01X2941Y21722D01*
G01X2918Y21766D01*
G01X2892Y21810D01*
G01X2865Y21852D01*
G01X2837Y21893D01*
G01X2806Y21933D01*
G01X2774Y21971D01*
G01X2740Y22008D01*
G01X2704Y22044D01*
G01X2667Y22078D01*
G01X2629Y22110D01*
G01X2589Y22141D01*
G01X2548Y22169D01*
G01X2506Y22196D01*
G01X2462Y22222D01*
G37*
G36*
G01X10858Y18203D02*
G01X10541Y18203D01*
G01X10541Y17360D01*
G01X10601Y17360D01*
G01X10625Y17361D01*
G01X10649Y17364D01*
G01X10672Y17370D01*
G01X10694Y17377D01*
G01X10716Y17387D01*
G01X10737Y17398D01*
G01X10756Y17412D01*
G01X10774Y17427D01*
G01X10791Y17443D01*
G01X10806Y17462D01*
G01X10820Y17481D01*
G01X10831Y17502D01*
G01X10841Y17524D01*
G01X10848Y17546D01*
G01X10854Y17569D01*
G01X10857Y17593D01*
G01X10858Y17616D01*
G01X10858Y18203D01*
G37*
G36*
G01X10601Y20474D02*
G01X10541Y20474D01*
G01X10541Y19631D01*
G01X10858Y19631D01*
G01X10858Y20217D01*
G01X10857Y20241D01*
G01X10854Y20264D01*
G01X10848Y20287D01*
G01X10841Y20310D01*
G01X10831Y20332D01*
G01X10820Y20352D01*
G01X10806Y20372D01*
G01X10791Y20390D01*
G01X10774Y20407D01*
G01X10756Y20422D01*
G01X10737Y20435D01*
G01X10716Y20447D01*
G01X10694Y20456D01*
G01X10672Y20464D01*
G01X10649Y20469D01*
G01X10625Y20473D01*
G01X10601Y20474D01*
G37*

%LPD*%
G54D10*
G01X23114Y17653D02*
G01X22860Y17399D01*
G01X22860Y12954D01*
G54D11*
G01X18161Y2159D02*
G01X20599Y4597D01*
G01X20599Y5969D01*
G54D10*
G01X18669Y24511D02*
G01X20193Y24511D01*
G01X21590Y23114D01*
G01X21590Y11684D01*
G01X24765Y8509D01*
G54D11*
G01X14859Y20447D02*
G01X13936Y19524D01*
G01X13211Y19524D01*
G54D10*
G01X1905Y16129D02*
G01X3810Y16129D01*
G01X9906Y10033D01*
G01X10414Y10033D01*
G01X22225Y24892D02*
G01X22098Y24892D01*
G01X22098Y11938D01*
G01X22987Y11049D01*
G01X24765Y11049D01*
G54D11*
G01X9525Y16002D02*
G01X8001Y16002D01*
G01X7152Y16850D01*
G01X7152Y18917D01*
G54D10*
G01X8636Y21209D02*
G01X8752Y21092D01*
G01X8752Y18917D01*
G01X8001Y22225D02*
G01X7952Y22176D01*
G01X7952Y18917D01*
G01X1905Y18669D02*
G01X9271Y11303D01*
G01X10414Y11303D01*
G01X1905Y8509D02*
G01X1905Y9271D01*
G01X3683Y11049D01*
G01X6604Y11049D01*
G01X9398Y8255D01*
G01X9398Y6731D01*
G01X10033Y6096D01*
G01X10414Y6096D01*
G01X1905Y11049D02*
G01X1905Y11557D01*
G01X6731Y11557D01*
G01X10414Y7874D01*
G01X10414Y7493D01*
G01X3429Y9906D02*
G01X9271Y4064D01*
G01X14224Y4064D01*
G01X15621Y2667D01*
G01X15621Y2159D01*
G01X1905Y18161D02*
G01X1905Y18669D01*
G36*
G01X10601Y17616D02*
G01X10601Y20217D01*
G01X10104Y20217D01*
G01X10104Y17616D01*
G01X10601Y17616D01*
G37*
G36*
G01X9801Y17616D02*
G01X9801Y20217D01*
G01X9304Y20217D01*
G01X9304Y17616D01*
G01X9801Y17616D01*
G37*
G36*
G01X9001Y17616D02*
G01X9001Y20217D01*
G01X8503Y20217D01*
G01X8503Y17616D01*
G01X9001Y17616D01*
G37*
G36*
G01X8201Y17616D02*
G01X8201Y20217D01*
G01X7703Y20217D01*
G01X7703Y17616D01*
G01X8201Y17616D01*
G37*
G36*
G01X7401Y17616D02*
G01X7401Y20217D01*
G01X6903Y20217D01*
G01X6903Y17616D01*
G01X7401Y17616D01*
G37*
G36*
G01X14211Y18274D02*
G01X14211Y20774D01*
G01X12212Y20774D01*
G01X12212Y18274D01*
G01X14211Y18274D01*
G37*
G36*
G01X5313Y20774D02*
G01X3312Y20774D01*
G01X3312Y18274D01*
G01X5313Y18274D01*
G01X5313Y20774D01*
G37*
G36*
G01X5313Y26275D02*
G01X3312Y26275D01*
G01X3312Y23773D01*
G01X5313Y23773D01*
G01X5313Y26275D01*
G37*
G36*
G01X14213Y26275D02*
G01X12212Y26275D01*
G01X12212Y23773D01*
G01X14213Y23773D01*
G01X14213Y26275D01*
G37*
G54D20*
G01X22580Y5969D03*
G01X20599Y5969D03*
G54D21*
G01X15621Y2159D03*
G01X18161Y2159D03*
G54D22*
G01X20701Y2159D03*
G01X24765Y23749D03*
G54D21*
G01X24765Y21209D03*
G01X24765Y18669D03*
G01X24765Y16129D03*
G01X24765Y13589D03*
G01X24765Y11049D03*
G01X24765Y8509D03*
G01X24765Y5969D03*
G54D22*
G01X1905Y5969D03*
G54D21*
G01X1905Y8509D03*
G01X1905Y11049D03*
G01X1905Y13589D03*
G01X1905Y16129D03*
G01X1905Y18669D03*
G01X1905Y21209D03*
G01X1905Y23749D03*
G01X5207Y2159D03*
G01X7747Y2159D03*
G01X10287Y2159D03*
G54D22*
G01X12827Y2159D03*
G54D12*
G01X14859Y20447D03*
G01X9525Y16002D03*
G01X10414Y8890D03*
G01X22225Y24892D03*
G01X8636Y21209D03*
G01X8001Y22225D03*
G01X18669Y24511D03*
G01X22860Y12954D03*
G01X3429Y9906D03*
G01X10414Y7493D03*
G01X10414Y6096D03*
G01X10414Y10033D03*
G01X10414Y11303D03*
G01X23114Y17653D03*
M00*
M02*
