G04 Layer: TopLayer*
G04 EasyEDA v6.4.0, 2020-07-20T23:37:23+02:00*
G04 8414f0393b39484c82beb45b477d05cc,d798ca008b2c48fc9d28453cf4f639a5,10*
G04 Gerber Generator version 0.2*
G04 Scale: 100 percent, Rotated: No, Reflected: No *
G04 Dimensions in millimeters *
G04 leading zeros omitted , absolute positions ,3 integer and 3 decimal *
%FSLAX33Y33*%
%MOMM*%
G90*
G71D02*

%ADD10C,0.254000*%
%ADD11C,0.508000*%
%ADD12C,0.611022*%
%ADD13R,1.099998X0.999998*%
%ADD14R,0.406400X1.803400*%
%ADD15R,0.999998X1.099998*%
%ADD16R,1.299997X0.599999*%
%ADD17R,1.250010X0.699999*%
%ADD18R,1.199998X1.399997*%
%ADD19R,1.803400X0.406400*%
%ADD20R,1.198880X2.159000*%
%ADD21C,1.799996*%
%ADD22R,1.799996X1.799996*%

%LPD*%
G36*
G01X19794Y24467D02*
G01X19778Y24468D01*
G01X19763Y24467D01*
G01X19749Y24464D01*
G01X19736Y24459D01*
G01X19723Y24452D01*
G01X19711Y24443D01*
G01X19701Y24433D01*
G01X19692Y24421D01*
G01X19685Y24408D01*
G01X19680Y24395D01*
G01X19677Y24381D01*
G01X19676Y24366D01*
G01X19676Y23992D01*
G01X19675Y23961D01*
G01X19671Y23932D01*
G01X19666Y23902D01*
G01X19657Y23873D01*
G01X19647Y23845D01*
G01X19634Y23817D01*
G01X19620Y23791D01*
G01X19603Y23766D01*
G01X19584Y23742D01*
G01X19564Y23720D01*
G01X19067Y23223D01*
G01X19045Y23203D01*
G01X19021Y23184D01*
G01X18996Y23167D01*
G01X18970Y23153D01*
G01X18942Y23140D01*
G01X18914Y23130D01*
G01X18885Y23122D01*
G01X18855Y23116D01*
G01X18826Y23112D01*
G01X18796Y23111D01*
G01X13098Y23111D01*
G01X13083Y23110D01*
G01X13069Y23107D01*
G01X13055Y23102D01*
G01X13043Y23095D01*
G01X13031Y23086D01*
G01X13021Y23076D01*
G01X13012Y23064D01*
G01X13005Y23052D01*
G01X13000Y23038D01*
G01X12997Y23024D01*
G01X12996Y23009D01*
G01X12997Y22993D01*
G01X13001Y22978D01*
G01X13007Y22963D01*
G01X13015Y22950D01*
G01X13026Y22938D01*
G01X14364Y21600D01*
G01X14384Y21578D01*
G01X14403Y21554D01*
G01X14419Y21529D01*
G01X14434Y21503D01*
G01X14447Y21475D01*
G01X14457Y21447D01*
G01X14465Y21418D01*
G01X14471Y21388D01*
G01X14475Y21359D01*
G01X14476Y21328D01*
G01X14476Y20036D01*
G01X14477Y20022D01*
G01X14480Y20008D01*
G01X14485Y19994D01*
G01X14492Y19981D01*
G01X14501Y19970D01*
G01X14511Y19960D01*
G01X14523Y19951D01*
G01X14535Y19944D01*
G01X14549Y19939D01*
G01X14563Y19936D01*
G01X14577Y19935D01*
G01X14577Y19256D01*
G01X14569Y19245D01*
G01X14562Y19232D01*
G01X14556Y19218D01*
G01X14553Y19204D01*
G01X14552Y19189D01*
G01X14552Y18364D01*
G01X14553Y18349D01*
G01X14556Y18335D01*
G01X14562Y18321D01*
G01X14569Y18308D01*
G01X14577Y18297D01*
G01X14577Y17618D01*
G01X14539Y17618D01*
G01X14510Y17620D01*
G01X14480Y17625D01*
G01X14452Y17634D01*
G01X14435Y17638D01*
G01X14418Y17640D01*
G01X14400Y17638D01*
G01X14383Y17634D01*
G01X14355Y17625D01*
G01X14325Y17620D01*
G01X14296Y17618D01*
G01X13889Y17618D01*
G01X13860Y17620D01*
G01X13830Y17625D01*
G01X13802Y17634D01*
G01X13785Y17638D01*
G01X13767Y17640D01*
G01X13750Y17638D01*
G01X13733Y17634D01*
G01X13705Y17625D01*
G01X13675Y17620D01*
G01X13646Y17618D01*
G01X13239Y17618D01*
G01X13210Y17620D01*
G01X13180Y17625D01*
G01X13152Y17634D01*
G01X13135Y17638D01*
G01X13118Y17640D01*
G01X13100Y17638D01*
G01X13083Y17634D01*
G01X13055Y17625D01*
G01X13025Y17620D01*
G01X12996Y17618D01*
G01X12632Y17618D01*
G01X12618Y17617D01*
G01X12604Y17614D01*
G01X12590Y17609D01*
G01X12578Y17602D01*
G01X12566Y17593D01*
G01X12556Y17583D01*
G01X12547Y17572D01*
G01X12540Y17559D01*
G01X12535Y17545D01*
G01X12532Y17531D01*
G01X12531Y17517D01*
G01X12532Y17501D01*
G01X12536Y17485D01*
G01X12542Y17471D01*
G01X12550Y17457D01*
G01X12561Y17445D01*
G01X13072Y16934D01*
G01X13084Y16923D01*
G01X13097Y16915D01*
G01X13112Y16909D01*
G01X13128Y16905D01*
G01X13143Y16904D01*
G01X13188Y16904D01*
G01X13203Y16905D01*
G01X13217Y16908D01*
G01X13231Y16913D01*
G01X13243Y16920D01*
G01X13255Y16929D01*
G01X13265Y16939D01*
G01X13274Y16951D01*
G01X13281Y16963D01*
G01X13286Y16977D01*
G01X13289Y16991D01*
G01X13290Y17006D01*
G01X13290Y17020D01*
G01X13291Y17044D01*
G01X13294Y17068D01*
G01X13300Y17091D01*
G01X13307Y17113D01*
G01X13317Y17135D01*
G01X13328Y17156D01*
G01X13342Y17175D01*
G01X13357Y17193D01*
G01X13374Y17210D01*
G01X13392Y17225D01*
G01X13411Y17239D01*
G01X13432Y17250D01*
G01X13454Y17260D01*
G01X13476Y17267D01*
G01X13499Y17273D01*
G01X13523Y17276D01*
G01X13546Y17277D01*
G01X14647Y17277D01*
G01X14670Y17276D01*
G01X14694Y17273D01*
G01X14717Y17267D01*
G01X14739Y17260D01*
G01X14761Y17250D01*
G01X14782Y17239D01*
G01X14801Y17225D01*
G01X14819Y17210D01*
G01X14836Y17193D01*
G01X14851Y17175D01*
G01X14865Y17156D01*
G01X14876Y17135D01*
G01X14886Y17113D01*
G01X14893Y17091D01*
G01X14899Y17068D01*
G01X14902Y17044D01*
G01X14903Y17020D01*
G01X14903Y17006D01*
G01X14904Y16991D01*
G01X14907Y16977D01*
G01X14912Y16963D01*
G01X14919Y16951D01*
G01X14928Y16939D01*
G01X14938Y16929D01*
G01X14950Y16920D01*
G01X14962Y16913D01*
G01X14976Y16908D01*
G01X14990Y16905D01*
G01X15005Y16904D01*
G01X15220Y16904D01*
G01X15235Y16905D01*
G01X15249Y16908D01*
G01X15263Y16913D01*
G01X15275Y16920D01*
G01X15287Y16929D01*
G01X15297Y16939D01*
G01X15306Y16951D01*
G01X15313Y16963D01*
G01X15318Y16977D01*
G01X15321Y16991D01*
G01X15322Y17006D01*
G01X15322Y17020D01*
G01X15323Y17045D01*
G01X15327Y17069D01*
G01X15332Y17092D01*
G01X15340Y17115D01*
G01X15350Y17137D01*
G01X15362Y17158D01*
G01X15376Y17178D01*
G01X15392Y17196D01*
G01X15409Y17213D01*
G01X15428Y17228D01*
G01X15448Y17242D01*
G01X15470Y17253D01*
G01X15492Y17262D01*
G01X15515Y17269D01*
G01X15539Y17274D01*
G01X15563Y17277D01*
G01X15578Y17279D01*
G01X15593Y17283D01*
G01X15607Y17289D01*
G01X15620Y17298D01*
G01X15631Y17308D01*
G01X15641Y17320D01*
G01X15649Y17333D01*
G01X15654Y17348D01*
G01X15658Y17363D01*
G01X15659Y17378D01*
G01X15659Y17517D01*
G01X15658Y17531D01*
G01X15655Y17545D01*
G01X15650Y17559D01*
G01X15643Y17572D01*
G01X15634Y17583D01*
G01X15624Y17593D01*
G01X15612Y17602D01*
G01X15599Y17609D01*
G01X15586Y17614D01*
G01X15572Y17617D01*
G01X15557Y17618D01*
G01X15189Y17618D01*
G01X15160Y17620D01*
G01X15130Y17625D01*
G01X15102Y17634D01*
G01X15085Y17638D01*
G01X15067Y17640D01*
G01X15050Y17638D01*
G01X15033Y17634D01*
G01X15005Y17625D01*
G01X14975Y17620D01*
G01X14946Y17618D01*
G01X14908Y17618D01*
G01X14908Y18297D01*
G01X14916Y18308D01*
G01X14923Y18321D01*
G01X14929Y18335D01*
G01X14932Y18349D01*
G01X14933Y18364D01*
G01X14933Y19189D01*
G01X14932Y19204D01*
G01X14929Y19218D01*
G01X14923Y19232D01*
G01X14916Y19245D01*
G01X14908Y19256D01*
G01X14908Y19935D01*
G01X14946Y19935D01*
G01X14975Y19933D01*
G01X15005Y19928D01*
G01X15033Y19919D01*
G01X15050Y19915D01*
G01X15067Y19913D01*
G01X15085Y19915D01*
G01X15102Y19919D01*
G01X15130Y19928D01*
G01X15160Y19933D01*
G01X15189Y19935D01*
G01X15596Y19935D01*
G01X15625Y19933D01*
G01X15655Y19928D01*
G01X15683Y19919D01*
G01X15700Y19915D01*
G01X15718Y19913D01*
G01X15735Y19915D01*
G01X15752Y19919D01*
G01X15780Y19928D01*
G01X15810Y19933D01*
G01X15839Y19935D01*
G01X16246Y19935D01*
G01X16275Y19933D01*
G01X16305Y19928D01*
G01X16333Y19919D01*
G01X16350Y19915D01*
G01X16367Y19913D01*
G01X16385Y19915D01*
G01X16402Y19919D01*
G01X16430Y19928D01*
G01X16460Y19933D01*
G01X16489Y19935D01*
G01X16527Y19935D01*
G01X16527Y19256D01*
G01X16519Y19245D01*
G01X16512Y19232D01*
G01X16506Y19218D01*
G01X16503Y19204D01*
G01X16502Y19189D01*
G01X16502Y18364D01*
G01X16503Y18349D01*
G01X16506Y18335D01*
G01X16512Y18321D01*
G01X16519Y18308D01*
G01X16527Y18297D01*
G01X16527Y17618D01*
G01X16513Y17617D01*
G01X16499Y17614D01*
G01X16485Y17609D01*
G01X16473Y17602D01*
G01X16461Y17593D01*
G01X16451Y17583D01*
G01X16442Y17572D01*
G01X16435Y17559D01*
G01X16430Y17545D01*
G01X16427Y17531D01*
G01X16426Y17517D01*
G01X16426Y17379D01*
G01X16427Y17364D01*
G01X16430Y17350D01*
G01X16435Y17336D01*
G01X16442Y17324D01*
G01X16451Y17312D01*
G01X16461Y17302D01*
G01X16473Y17293D01*
G01X16485Y17286D01*
G01X16499Y17281D01*
G01X16513Y17278D01*
G01X16528Y17277D01*
G01X16679Y17277D01*
G01X16702Y17276D01*
G01X16726Y17273D01*
G01X16749Y17267D01*
G01X16771Y17260D01*
G01X16793Y17250D01*
G01X16814Y17239D01*
G01X16833Y17225D01*
G01X16851Y17210D01*
G01X16868Y17193D01*
G01X16883Y17175D01*
G01X16897Y17156D01*
G01X16908Y17135D01*
G01X16918Y17113D01*
G01X16925Y17091D01*
G01X16931Y17068D01*
G01X16934Y17044D01*
G01X16935Y17020D01*
G01X16935Y16020D01*
G01X16934Y15997D01*
G01X16931Y15973D01*
G01X16925Y15950D01*
G01X16918Y15928D01*
G01X16908Y15906D01*
G01X16897Y15885D01*
G01X16883Y15866D01*
G01X16868Y15848D01*
G01X16851Y15831D01*
G01X16833Y15816D01*
G01X16814Y15802D01*
G01X16793Y15791D01*
G01X16771Y15781D01*
G01X16749Y15774D01*
G01X16726Y15768D01*
G01X16702Y15765D01*
G01X16679Y15764D01*
G01X15578Y15764D01*
G01X15555Y15765D01*
G01X15531Y15768D01*
G01X15508Y15774D01*
G01X15486Y15781D01*
G01X15464Y15791D01*
G01X15443Y15802D01*
G01X15424Y15816D01*
G01X15406Y15831D01*
G01X15389Y15848D01*
G01X15374Y15866D01*
G01X15360Y15885D01*
G01X15349Y15906D01*
G01X15339Y15928D01*
G01X15332Y15950D01*
G01X15326Y15973D01*
G01X15323Y15997D01*
G01X15322Y16020D01*
G01X15322Y16035D01*
G01X15321Y16050D01*
G01X15318Y16064D01*
G01X15313Y16078D01*
G01X15306Y16090D01*
G01X15297Y16102D01*
G01X15287Y16112D01*
G01X15275Y16121D01*
G01X15263Y16128D01*
G01X15249Y16133D01*
G01X15235Y16136D01*
G01X15220Y16137D01*
G01X15005Y16137D01*
G01X14990Y16136D01*
G01X14976Y16133D01*
G01X14962Y16128D01*
G01X14950Y16121D01*
G01X14938Y16112D01*
G01X14928Y16102D01*
G01X14919Y16090D01*
G01X14912Y16078D01*
G01X14907Y16064D01*
G01X14904Y16050D01*
G01X14903Y16035D01*
G01X14903Y16020D01*
G01X14902Y15997D01*
G01X14899Y15973D01*
G01X14893Y15950D01*
G01X14886Y15928D01*
G01X14876Y15906D01*
G01X14865Y15885D01*
G01X14851Y15866D01*
G01X14836Y15848D01*
G01X14819Y15831D01*
G01X14801Y15816D01*
G01X14782Y15802D01*
G01X14761Y15791D01*
G01X14739Y15781D01*
G01X14717Y15774D01*
G01X14694Y15768D01*
G01X14670Y15765D01*
G01X14647Y15764D01*
G01X13546Y15764D01*
G01X13523Y15765D01*
G01X13499Y15768D01*
G01X13476Y15774D01*
G01X13454Y15781D01*
G01X13432Y15791D01*
G01X13411Y15802D01*
G01X13392Y15816D01*
G01X13374Y15831D01*
G01X13357Y15848D01*
G01X13342Y15866D01*
G01X13328Y15885D01*
G01X13317Y15906D01*
G01X13307Y15928D01*
G01X13300Y15950D01*
G01X13294Y15973D01*
G01X13291Y15997D01*
G01X13290Y16020D01*
G01X13290Y16035D01*
G01X13289Y16050D01*
G01X13286Y16064D01*
G01X13281Y16078D01*
G01X13274Y16090D01*
G01X13265Y16102D01*
G01X13255Y16112D01*
G01X13243Y16121D01*
G01X13231Y16128D01*
G01X13217Y16133D01*
G01X13203Y16136D01*
G01X13188Y16137D01*
G01X12942Y16137D01*
G01X12912Y16138D01*
G01X12882Y16142D01*
G01X12853Y16148D01*
G01X12824Y16156D01*
G01X12796Y16166D01*
G01X12768Y16179D01*
G01X12742Y16194D01*
G01X12717Y16210D01*
G01X12693Y16229D01*
G01X12671Y16249D01*
G01X11835Y17085D01*
G01X11823Y17096D01*
G01X11810Y17104D01*
G01X11795Y17110D01*
G01X11779Y17114D01*
G01X11764Y17115D01*
G01X11260Y17115D01*
G01X11260Y17294D01*
G01X11259Y17309D01*
G01X11256Y17323D01*
G01X11251Y17337D01*
G01X11244Y17349D01*
G01X11235Y17361D01*
G01X11225Y17371D01*
G01X11213Y17380D01*
G01X11201Y17387D01*
G01X11187Y17392D01*
G01X11173Y17395D01*
G01X11158Y17396D01*
G01X10685Y17396D01*
G01X10670Y17395D01*
G01X10656Y17392D01*
G01X10642Y17387D01*
G01X10630Y17380D01*
G01X10618Y17371D01*
G01X10608Y17361D01*
G01X10599Y17349D01*
G01X10592Y17337D01*
G01X10587Y17323D01*
G01X10584Y17309D01*
G01X10583Y17294D01*
G01X10583Y17115D01*
G01X10115Y17115D01*
G01X10115Y17294D01*
G01X10114Y17309D01*
G01X10111Y17323D01*
G01X10106Y17337D01*
G01X10099Y17349D01*
G01X10090Y17361D01*
G01X10080Y17371D01*
G01X10068Y17380D01*
G01X10056Y17387D01*
G01X10042Y17392D01*
G01X10028Y17395D01*
G01X10013Y17396D01*
G01X9656Y17396D01*
G01X9640Y17395D01*
G01X9624Y17391D01*
G01X9609Y17385D01*
G01X9596Y17377D01*
G01X9584Y17366D01*
G01X9501Y17284D01*
G01X9491Y17272D01*
G01X9482Y17258D01*
G01X9476Y17243D01*
G01X9473Y17228D01*
G01X9471Y17212D01*
G01X9472Y17206D01*
G01X9472Y16748D01*
G01X9473Y16732D01*
G01X9477Y16717D01*
G01X9483Y16702D01*
G01X9491Y16688D01*
G01X9502Y16676D01*
G01X9602Y16576D01*
G01X9616Y16564D01*
G01X9633Y16555D01*
G01X9651Y16549D01*
G01X9683Y16541D01*
G01X9716Y16530D01*
G01X9747Y16518D01*
G01X9778Y16503D01*
G01X9807Y16487D01*
G01X9836Y16469D01*
G01X9864Y16450D01*
G01X9890Y16429D01*
G01X9915Y16406D01*
G01X9951Y16370D01*
G01X9965Y16361D01*
G01X9980Y16354D01*
G01X9997Y16350D01*
G01X10013Y16349D01*
G01X10028Y16350D01*
G01X10042Y16353D01*
G01X10056Y16358D01*
G01X10068Y16365D01*
G01X10080Y16374D01*
G01X10090Y16384D01*
G01X10099Y16395D01*
G01X10106Y16408D01*
G01X10111Y16422D01*
G01X10114Y16436D01*
G01X10115Y16450D01*
G01X10115Y16488D01*
G01X10583Y16488D01*
G01X10583Y16060D01*
G01X10584Y16045D01*
G01X10587Y16031D01*
G01X10592Y16017D01*
G01X10599Y16005D01*
G01X10608Y15993D01*
G01X10618Y15983D01*
G01X10630Y15974D01*
G01X10642Y15967D01*
G01X10656Y15962D01*
G01X10670Y15959D01*
G01X10685Y15958D01*
G01X11158Y15958D01*
G01X11173Y15959D01*
G01X11187Y15962D01*
G01X11201Y15967D01*
G01X11213Y15974D01*
G01X11225Y15983D01*
G01X11235Y15993D01*
G01X11244Y16005D01*
G01X11251Y16017D01*
G01X11256Y16031D01*
G01X11259Y16045D01*
G01X11260Y16060D01*
G01X11260Y16488D01*
G01X11728Y16488D01*
G01X11728Y16301D01*
G01X11727Y16278D01*
G01X11724Y16255D01*
G01X11719Y16233D01*
G01X11712Y16211D01*
G01X11702Y16190D01*
G01X11691Y16169D01*
G01X11679Y16150D01*
G01X11664Y16132D01*
G01X11648Y16115D01*
G01X11630Y16100D01*
G01X11612Y16087D01*
G01X11600Y16078D01*
G01X11590Y16068D01*
G01X11581Y16056D01*
G01X11575Y16043D01*
G01X11570Y16030D01*
G01X11567Y16016D01*
G01X11566Y16001D01*
G01X11567Y15987D01*
G01X11570Y15973D01*
G01X11575Y15960D01*
G01X11581Y15947D01*
G01X11590Y15935D01*
G01X11600Y15925D01*
G01X11612Y15916D01*
G01X11630Y15903D01*
G01X11648Y15888D01*
G01X11664Y15871D01*
G01X11678Y15853D01*
G01X11691Y15834D01*
G01X11702Y15813D01*
G01X11711Y15792D01*
G01X11719Y15770D01*
G01X11724Y15748D01*
G01X11727Y15725D01*
G01X11728Y15702D01*
G01X11728Y15687D01*
G01X11729Y15672D01*
G01X11732Y15658D01*
G01X11737Y15644D01*
G01X11744Y15632D01*
G01X11753Y15620D01*
G01X11763Y15610D01*
G01X11775Y15601D01*
G01X11787Y15594D01*
G01X11801Y15589D01*
G01X11815Y15586D01*
G01X11830Y15585D01*
G01X11849Y15585D01*
G01X11879Y15584D01*
G01X11909Y15580D01*
G01X11938Y15574D01*
G01X11967Y15566D01*
G01X11995Y15556D01*
G01X12023Y15543D01*
G01X12049Y15528D01*
G01X12074Y15512D01*
G01X12098Y15493D01*
G01X12120Y15473D01*
G01X13116Y14476D01*
G01X13156Y14437D01*
G01X13168Y14426D01*
G01X13181Y14418D01*
G01X13196Y14412D01*
G01X13212Y14408D01*
G01X13228Y14407D01*
G01X13758Y14407D01*
G01X13758Y13877D01*
G01X13759Y13861D01*
G01X13763Y13845D01*
G01X13769Y13830D01*
G01X13777Y13817D01*
G01X13788Y13805D01*
G01X14511Y13082D01*
G01X14523Y13071D01*
G01X14536Y13063D01*
G01X14551Y13057D01*
G01X14567Y13053D01*
G01X14582Y13052D01*
G01X14869Y13052D01*
G01X14892Y13051D01*
G01X14916Y13048D01*
G01X14939Y13042D01*
G01X14961Y13035D01*
G01X14983Y13025D01*
G01X15004Y13014D01*
G01X15023Y13000D01*
G01X15042Y12985D01*
G01X15058Y12968D01*
G01X15074Y12950D01*
G01X15087Y12931D01*
G01X15098Y12910D01*
G01X15108Y12888D01*
G01X15116Y12866D01*
G01X15121Y12843D01*
G01X15124Y12819D01*
G01X15125Y12796D01*
G01X15125Y12095D01*
G01X15124Y12072D01*
G01X15121Y12048D01*
G01X15116Y12025D01*
G01X15108Y12003D01*
G01X15098Y11981D01*
G01X15087Y11960D01*
G01X15074Y11941D01*
G01X15058Y11923D01*
G01X15042Y11906D01*
G01X15023Y11891D01*
G01X15004Y11877D01*
G01X14983Y11866D01*
G01X14961Y11856D01*
G01X14939Y11849D01*
G01X14916Y11843D01*
G01X14892Y11840D01*
G01X14869Y11839D01*
G01X13619Y11839D01*
G01X13595Y11840D01*
G01X13572Y11843D01*
G01X13549Y11849D01*
G01X13526Y11856D01*
G01X13504Y11866D01*
G01X13484Y11877D01*
G01X13464Y11891D01*
G01X13446Y11906D01*
G01X13429Y11923D01*
G01X13414Y11941D01*
G01X13401Y11960D01*
G01X13389Y11981D01*
G01X13380Y12003D01*
G01X13372Y12025D01*
G01X13367Y12048D01*
G01X13363Y12072D01*
G01X13362Y12095D01*
G01X13362Y12796D01*
G01X13364Y12821D01*
G01X13367Y12845D01*
G01X13373Y12870D01*
G01X13382Y12893D01*
G01X13392Y12916D01*
G01X13405Y12938D01*
G01X13420Y12958D01*
G01X13430Y12972D01*
G01X13437Y12988D01*
G01X13442Y13005D01*
G01X13443Y13022D01*
G01X13442Y13038D01*
G01X13438Y13054D01*
G01X13432Y13068D01*
G01X13424Y13082D01*
G01X13413Y13094D01*
G01X12737Y13770D01*
G01X12725Y13781D01*
G01X12712Y13789D01*
G01X12697Y13795D01*
G01X12681Y13799D01*
G01X12666Y13800D01*
G01X12135Y13800D01*
G01X12135Y14331D01*
G01X12134Y14346D01*
G01X12130Y14362D01*
G01X12124Y14377D01*
G01X12116Y14390D01*
G01X12105Y14402D01*
G01X11873Y14634D01*
G01X11861Y14645D01*
G01X11848Y14653D01*
G01X11833Y14659D01*
G01X11817Y14663D01*
G01X11801Y14664D01*
G01X11787Y14663D01*
G01X11772Y14660D01*
G01X11758Y14654D01*
G01X11745Y14647D01*
G01X11734Y14638D01*
G01X11723Y14627D01*
G01X11715Y14615D01*
G01X11708Y14602D01*
G01X11697Y14579D01*
G01X11684Y14558D01*
G01X11669Y14537D01*
G01X11652Y14519D01*
G01X11633Y14502D01*
G01X11612Y14487D01*
G01X11591Y14474D01*
G01X11568Y14464D01*
G01X11554Y14457D01*
G01X11542Y14449D01*
G01X11531Y14438D01*
G01X11522Y14426D01*
G01X11514Y14413D01*
G01X11509Y14399D01*
G01X11506Y14385D01*
G01X11504Y14370D01*
G01X11508Y14343D01*
G01X11508Y13800D01*
G01X11065Y13800D01*
G01X11065Y14012D01*
G01X11066Y14035D01*
G01X11069Y14058D01*
G01X11074Y14081D01*
G01X11082Y14103D01*
G01X11091Y14124D01*
G01X11102Y14145D01*
G01X11115Y14164D01*
G01X11130Y14183D01*
G01X11147Y14199D01*
G01X11164Y14214D01*
G01X11184Y14228D01*
G01X11204Y14239D01*
G01X11225Y14249D01*
G01X11239Y14256D01*
G01X11251Y14264D01*
G01X11262Y14275D01*
G01X11271Y14287D01*
G01X11279Y14300D01*
G01X11284Y14314D01*
G01X11287Y14328D01*
G01X11288Y14343D01*
G01X11287Y14358D01*
G01X11284Y14372D01*
G01X11279Y14386D01*
G01X11272Y14398D01*
G01X11264Y14410D01*
G01X11253Y14420D01*
G01X11242Y14429D01*
G01X11229Y14436D01*
G01X11215Y14441D01*
G01X11201Y14444D01*
G01X11187Y14445D01*
G01X10656Y14445D01*
G01X10642Y14444D01*
G01X10627Y14441D01*
G01X10614Y14436D01*
G01X10601Y14429D01*
G01X10589Y14420D01*
G01X10579Y14410D01*
G01X10571Y14398D01*
G01X10564Y14386D01*
G01X10559Y14372D01*
G01X10555Y14358D01*
G01X10554Y14343D01*
G01X10556Y14328D01*
G01X10559Y14314D01*
G01X10564Y14300D01*
G01X10572Y14287D01*
G01X10581Y14275D01*
G01X10592Y14264D01*
G01X10604Y14256D01*
G01X10618Y14249D01*
G01X10639Y14239D01*
G01X10659Y14228D01*
G01X10678Y14214D01*
G01X10696Y14199D01*
G01X10713Y14183D01*
G01X10727Y14164D01*
G01X10740Y14145D01*
G01X10752Y14124D01*
G01X10761Y14103D01*
G01X10768Y14081D01*
G01X10774Y14058D01*
G01X10777Y14035D01*
G01X10778Y14012D01*
G01X10778Y13469D01*
G01X10779Y13453D01*
G01X10783Y13438D01*
G01X10789Y13423D01*
G01X10797Y13409D01*
G01X10808Y13397D01*
G01X11052Y13153D01*
G01X11064Y13142D01*
G01X11078Y13134D01*
G01X11093Y13128D01*
G01X11108Y13124D01*
G01X11124Y13123D01*
G01X11508Y13123D01*
G01X11508Y12739D01*
G01X11509Y12723D01*
G01X11513Y12708D01*
G01X11519Y12693D01*
G01X11527Y12679D01*
G01X11538Y12667D01*
G01X11702Y12503D01*
G01X11714Y12493D01*
G01X11727Y12485D01*
G01X11742Y12478D01*
G01X11758Y12475D01*
G01X11773Y12473D01*
G01X11936Y12473D01*
G01X11976Y12472D01*
G01X12017Y12467D01*
G01X12033Y12466D01*
G01X12045Y12466D01*
G01X12070Y12455D01*
G01X12105Y12444D01*
G01X12139Y12431D01*
G01X12159Y12425D01*
G01X12180Y12423D01*
G01X12837Y12423D01*
G01X12861Y12422D01*
G01X12884Y12418D01*
G01X12907Y12413D01*
G01X12930Y12405D01*
G01X12952Y12396D01*
G01X12972Y12384D01*
G01X12992Y12371D01*
G01X13010Y12356D01*
G01X13027Y12339D01*
G01X13042Y12321D01*
G01X13055Y12301D01*
G01X13067Y12280D01*
G01X13076Y12259D01*
G01X13084Y12236D01*
G01X13089Y12213D01*
G01X13093Y12190D01*
G01X13094Y12166D01*
G01X13094Y11760D01*
G01X13093Y11736D01*
G01X13090Y11713D01*
G01X13084Y11691D01*
G01X13077Y11669D01*
G01X13072Y11651D01*
G01X13070Y11633D01*
G01X13072Y11614D01*
G01X13077Y11597D01*
G01X13084Y11575D01*
G01X13090Y11552D01*
G01X13093Y11529D01*
G01X13094Y11506D01*
G01X13094Y11153D01*
G01X13095Y11138D01*
G01X13098Y11124D01*
G01X13103Y11110D01*
G01X13110Y11098D01*
G01X13119Y11086D01*
G01X13129Y11076D01*
G01X13140Y11067D01*
G01X13153Y11060D01*
G01X13167Y11055D01*
G01X13181Y11052D01*
G01X13195Y11051D01*
G01X14165Y11051D01*
G01X14186Y11053D01*
G01X14206Y11060D01*
G01X14231Y11069D01*
G01X14256Y11076D01*
G01X14282Y11080D01*
G01X14308Y11081D01*
G01X15409Y11081D01*
G01X15432Y11080D01*
G01X15456Y11077D01*
G01X15479Y11071D01*
G01X15501Y11064D01*
G01X15523Y11054D01*
G01X15544Y11043D01*
G01X15563Y11029D01*
G01X15581Y11014D01*
G01X15598Y10997D01*
G01X15613Y10979D01*
G01X15627Y10959D01*
G01X15638Y10939D01*
G01X15648Y10917D01*
G01X15655Y10895D01*
G01X15661Y10872D01*
G01X15664Y10848D01*
G01X15665Y10824D01*
G01X15665Y10772D01*
G01X15666Y10757D01*
G01X15669Y10743D01*
G01X15674Y10729D01*
G01X15681Y10717D01*
G01X15690Y10705D01*
G01X15700Y10695D01*
G01X15712Y10686D01*
G01X15724Y10679D01*
G01X15738Y10674D01*
G01X15752Y10671D01*
G01X15767Y10670D01*
G01X15877Y10670D01*
G01X15892Y10671D01*
G01X15906Y10674D01*
G01X15920Y10680D01*
G01X15933Y10687D01*
G01X15945Y10696D01*
G01X15955Y10707D01*
G01X15964Y10719D01*
G01X15982Y10745D01*
G01X16002Y10768D01*
G01X16013Y10780D01*
G01X16021Y10794D01*
G01X16027Y10809D01*
G01X16031Y10824D01*
G01X16032Y10840D01*
G01X16031Y10855D01*
G01X16028Y10870D01*
G01X16023Y10883D01*
G01X16016Y10896D01*
G01X16007Y10908D01*
G01X15996Y10918D01*
G01X15984Y10927D01*
G01X15964Y10940D01*
G01X15946Y10955D01*
G01X15929Y10972D01*
G01X15914Y10990D01*
G01X15900Y11010D01*
G01X15889Y11031D01*
G01X15879Y11053D01*
G01X15872Y11075D01*
G01X15866Y11098D01*
G01X15863Y11122D01*
G01X15862Y11146D01*
G01X15862Y11846D01*
G01X15863Y11869D01*
G01X15866Y11893D01*
G01X15871Y11916D01*
G01X15879Y11938D01*
G01X15889Y11960D01*
G01X15900Y11981D01*
G01X15913Y12000D01*
G01X15929Y12018D01*
G01X15945Y12035D01*
G01X15964Y12050D01*
G01X15983Y12064D01*
G01X16004Y12075D01*
G01X16026Y12085D01*
G01X16048Y12092D01*
G01X16071Y12098D01*
G01X16095Y12101D01*
G01X16118Y12102D01*
G01X16941Y12102D01*
G01X16956Y12103D01*
G01X16972Y12107D01*
G01X16987Y12113D01*
G01X17000Y12121D01*
G01X17012Y12132D01*
G01X17501Y12621D01*
G01X17512Y12633D01*
G01X17520Y12646D01*
G01X17526Y12661D01*
G01X17530Y12677D01*
G01X17531Y12693D01*
G01X17530Y12707D01*
G01X17527Y12721D01*
G01X17522Y12735D01*
G01X17515Y12748D01*
G01X17506Y12759D01*
G01X17496Y12769D01*
G01X17484Y12778D01*
G01X17472Y12785D01*
G01X17458Y12790D01*
G01X17444Y12793D01*
G01X17430Y12794D01*
G01X17412Y12793D01*
G01X17368Y12789D01*
G01X16118Y12789D01*
G01X16095Y12790D01*
G01X16071Y12793D01*
G01X16048Y12799D01*
G01X16026Y12806D01*
G01X16004Y12816D01*
G01X15983Y12827D01*
G01X15964Y12841D01*
G01X15945Y12856D01*
G01X15929Y12873D01*
G01X15913Y12891D01*
G01X15900Y12910D01*
G01X15889Y12931D01*
G01X15879Y12953D01*
G01X15871Y12975D01*
G01X15866Y12998D01*
G01X15863Y13022D01*
G01X15862Y13045D01*
G01X15862Y13745D01*
G01X15863Y13774D01*
G01X15868Y13802D01*
G01X15876Y13829D01*
G01X15880Y13846D01*
G01X15881Y13862D01*
G01X15880Y13880D01*
G01X15875Y13897D01*
G01X15868Y13912D01*
G01X15858Y13927D01*
G01X15875Y13923D01*
G01X15891Y13921D01*
G01X15909Y13923D01*
G01X15926Y13927D01*
G01X15941Y13934D01*
G01X15956Y13944D01*
G01X15976Y13959D01*
G01X15998Y13972D01*
G01X16020Y13983D01*
G01X16044Y13991D01*
G01X16068Y13997D01*
G01X16093Y14001D01*
G01X16118Y14002D01*
G01X16365Y14002D01*
G01X16380Y14003D01*
G01X16394Y14006D01*
G01X16408Y14011D01*
G01X16420Y14018D01*
G01X16432Y14027D01*
G01X16442Y14037D01*
G01X16451Y14049D01*
G01X16458Y14061D01*
G01X16463Y14075D01*
G01X16466Y14089D01*
G01X16467Y14104D01*
G01X16467Y14407D01*
G01X16935Y14407D01*
G01X16935Y14378D01*
G01X16936Y14364D01*
G01X16939Y14350D01*
G01X16944Y14336D01*
G01X16951Y14323D01*
G01X16960Y14312D01*
G01X16970Y14302D01*
G01X16982Y14293D01*
G01X16994Y14286D01*
G01X17008Y14281D01*
G01X17022Y14278D01*
G01X17037Y14277D01*
G01X17053Y14278D01*
G01X17068Y14282D01*
G01X17083Y14288D01*
G01X17096Y14296D01*
G01X17109Y14307D01*
G01X17324Y14524D01*
G01X17335Y14536D01*
G01X17343Y14549D01*
G01X17349Y14564D01*
G01X17353Y14579D01*
G01X17354Y14595D01*
G01X17354Y15321D01*
G01X17355Y15344D01*
G01X17358Y15367D01*
G01X17363Y15389D01*
G01X17370Y15411D01*
G01X17380Y15432D01*
G01X17391Y15453D01*
G01X17403Y15472D01*
G01X17418Y15490D01*
G01X17434Y15507D01*
G01X17451Y15522D01*
G01X17470Y15535D01*
G01X17482Y15544D01*
G01X17492Y15554D01*
G01X17500Y15566D01*
G01X17507Y15579D01*
G01X17512Y15592D01*
G01X17515Y15606D01*
G01X17516Y15621D01*
G01X17515Y15635D01*
G01X17512Y15649D01*
G01X17507Y15662D01*
G01X17500Y15675D01*
G01X17492Y15687D01*
G01X17482Y15697D01*
G01X17470Y15706D01*
G01X17451Y15719D01*
G01X17434Y15734D01*
G01X17418Y15751D01*
G01X17403Y15769D01*
G01X17391Y15788D01*
G01X17380Y15809D01*
G01X17370Y15830D01*
G01X17363Y15852D01*
G01X17358Y15874D01*
G01X17355Y15897D01*
G01X17354Y15920D01*
G01X17354Y16920D01*
G01X17355Y16944D01*
G01X17358Y16968D01*
G01X17364Y16991D01*
G01X17371Y17013D01*
G01X17381Y17035D01*
G01X17392Y17055D01*
G01X17406Y17075D01*
G01X17421Y17093D01*
G01X17438Y17110D01*
G01X17456Y17125D01*
G01X17475Y17139D01*
G01X17496Y17150D01*
G01X17518Y17160D01*
G01X17540Y17167D01*
G01X17563Y17173D01*
G01X17587Y17176D01*
G01X17610Y17177D01*
G01X18711Y17177D01*
G01X18734Y17176D01*
G01X18758Y17173D01*
G01X18781Y17167D01*
G01X18803Y17160D01*
G01X18825Y17150D01*
G01X18846Y17139D01*
G01X18865Y17125D01*
G01X18883Y17110D01*
G01X18900Y17093D01*
G01X18915Y17075D01*
G01X18929Y17055D01*
G01X18940Y17035D01*
G01X18950Y17013D01*
G01X18957Y16991D01*
G01X18963Y16968D01*
G01X18966Y16944D01*
G01X18967Y16920D01*
G01X18967Y16653D01*
G01X18968Y16639D01*
G01X18971Y16625D01*
G01X18976Y16611D01*
G01X18983Y16598D01*
G01X18992Y16587D01*
G01X19002Y16576D01*
G01X19014Y16568D01*
G01X19026Y16561D01*
G01X19040Y16556D01*
G01X19054Y16553D01*
G01X19069Y16552D01*
G01X19086Y16553D01*
G01X19102Y16557D01*
G01X19117Y16564D01*
G01X19131Y16573D01*
G01X19144Y16585D01*
G01X19161Y16602D01*
G01X19179Y16617D01*
G01X19198Y16630D01*
G01X19219Y16642D01*
G01X19241Y16652D01*
G01X19263Y16659D01*
G01X19287Y16665D01*
G01X19310Y16668D01*
G01X19334Y16669D01*
G01X20584Y16669D01*
G01X20607Y16668D01*
G01X20631Y16665D01*
G01X20654Y16659D01*
G01X20676Y16652D01*
G01X20698Y16642D01*
G01X20719Y16631D01*
G01X20738Y16617D01*
G01X20757Y16602D01*
G01X20773Y16585D01*
G01X20789Y16567D01*
G01X20802Y16548D01*
G01X20813Y16527D01*
G01X20823Y16505D01*
G01X20831Y16483D01*
G01X20836Y16460D01*
G01X20839Y16436D01*
G01X20840Y16412D01*
G01X20840Y16294D01*
G01X20841Y16280D01*
G01X20844Y16265D01*
G01X20856Y16239D01*
G01X20865Y16228D01*
G01X20875Y16217D01*
G01X20887Y16209D01*
G01X20900Y16202D01*
G01X20913Y16197D01*
G01X20927Y16193D01*
G01X20942Y16192D01*
G01X20958Y16194D01*
G01X20973Y16197D01*
G01X20988Y16204D01*
G01X21002Y16212D01*
G01X21014Y16222D01*
G01X21430Y16639D01*
G01X21441Y16651D01*
G01X21449Y16664D01*
G01X21455Y16679D01*
G01X21459Y16695D01*
G01X21460Y16710D01*
G01X21460Y17517D01*
G01X21459Y17531D01*
G01X21456Y17545D01*
G01X21451Y17559D01*
G01X21444Y17572D01*
G01X21435Y17583D01*
G01X21425Y17593D01*
G01X21413Y17602D01*
G01X21401Y17609D01*
G01X21387Y17614D01*
G01X21373Y17617D01*
G01X21358Y17618D01*
G01X21039Y17618D01*
G01X21010Y17620D01*
G01X20980Y17625D01*
G01X20952Y17634D01*
G01X20935Y17638D01*
G01X20917Y17640D01*
G01X20900Y17638D01*
G01X20883Y17634D01*
G01X20855Y17625D01*
G01X20825Y17620D01*
G01X20796Y17618D01*
G01X20389Y17618D01*
G01X20360Y17620D01*
G01X20330Y17625D01*
G01X20302Y17634D01*
G01X20285Y17638D01*
G01X20268Y17640D01*
G01X20250Y17638D01*
G01X20233Y17634D01*
G01X20205Y17625D01*
G01X20175Y17620D01*
G01X20146Y17618D01*
G01X19739Y17618D01*
G01X19710Y17620D01*
G01X19680Y17625D01*
G01X19652Y17634D01*
G01X19635Y17638D01*
G01X19618Y17640D01*
G01X19600Y17638D01*
G01X19583Y17634D01*
G01X19555Y17625D01*
G01X19525Y17620D01*
G01X19496Y17618D01*
G01X19458Y17618D01*
G01X19458Y18297D01*
G01X19466Y18308D01*
G01X19473Y18321D01*
G01X19479Y18335D01*
G01X19482Y18349D01*
G01X19483Y18364D01*
G01X19483Y19189D01*
G01X19482Y19204D01*
G01X19479Y19218D01*
G01X19473Y19232D01*
G01X19466Y19245D01*
G01X19458Y19256D01*
G01X19458Y19935D01*
G01X19496Y19935D01*
G01X19525Y19933D01*
G01X19555Y19928D01*
G01X19583Y19919D01*
G01X19600Y19915D01*
G01X19617Y19913D01*
G01X19635Y19915D01*
G01X19652Y19919D01*
G01X19680Y19928D01*
G01X19710Y19933D01*
G01X19739Y19935D01*
G01X20146Y19935D01*
G01X20175Y19933D01*
G01X20205Y19928D01*
G01X20233Y19919D01*
G01X20250Y19915D01*
G01X20268Y19913D01*
G01X20285Y19915D01*
G01X20302Y19919D01*
G01X20330Y19928D01*
G01X20360Y19933D01*
G01X20389Y19935D01*
G01X20796Y19935D01*
G01X20825Y19933D01*
G01X20855Y19928D01*
G01X20883Y19919D01*
G01X20900Y19915D01*
G01X20917Y19913D01*
G01X20935Y19915D01*
G01X20952Y19919D01*
G01X20980Y19928D01*
G01X21010Y19933D01*
G01X21039Y19935D01*
G01X21358Y19935D01*
G01X21373Y19936D01*
G01X21387Y19939D01*
G01X21401Y19944D01*
G01X21413Y19951D01*
G01X21425Y19960D01*
G01X21435Y19970D01*
G01X21444Y19981D01*
G01X21451Y19994D01*
G01X21456Y20008D01*
G01X21459Y20022D01*
G01X21460Y20036D01*
G01X21460Y22786D01*
G01X21459Y22801D01*
G01X21455Y22817D01*
G01X21449Y22832D01*
G01X21441Y22845D01*
G01X21430Y22857D01*
G01X19850Y24438D01*
G01X19837Y24448D01*
G01X19824Y24457D01*
G01X19809Y24463D01*
G01X19794Y24467D01*
G37*

%LPC*%
G36*
G01X16896Y19935D02*
G01X16858Y19935D01*
G01X16858Y19256D01*
G01X16866Y19245D01*
G01X16873Y19232D01*
G01X16879Y19218D01*
G01X16882Y19204D01*
G01X16883Y19189D01*
G01X16883Y18364D01*
G01X16882Y18349D01*
G01X16879Y18335D01*
G01X16873Y18321D01*
G01X16866Y18308D01*
G01X16858Y18297D01*
G01X16858Y17618D01*
G01X16896Y17618D01*
G01X16925Y17620D01*
G01X16955Y17625D01*
G01X16983Y17634D01*
G01X17000Y17638D01*
G01X17018Y17640D01*
G01X17035Y17638D01*
G01X17052Y17634D01*
G01X17080Y17625D01*
G01X17110Y17620D01*
G01X17139Y17618D01*
G01X17546Y17618D01*
G01X17575Y17620D01*
G01X17605Y17625D01*
G01X17633Y17634D01*
G01X17650Y17638D01*
G01X17668Y17640D01*
G01X17685Y17638D01*
G01X17702Y17634D01*
G01X17730Y17625D01*
G01X17760Y17620D01*
G01X17789Y17618D01*
G01X18196Y17618D01*
G01X18225Y17620D01*
G01X18255Y17625D01*
G01X18283Y17634D01*
G01X18300Y17638D01*
G01X18317Y17640D01*
G01X18335Y17638D01*
G01X18352Y17634D01*
G01X18380Y17625D01*
G01X18410Y17620D01*
G01X18439Y17618D01*
G01X18846Y17618D01*
G01X18875Y17620D01*
G01X18905Y17625D01*
G01X18933Y17634D01*
G01X18950Y17638D01*
G01X18968Y17640D01*
G01X18985Y17638D01*
G01X19002Y17634D01*
G01X19030Y17625D01*
G01X19060Y17620D01*
G01X19089Y17618D01*
G01X19127Y17618D01*
G01X19127Y18297D01*
G01X19119Y18308D01*
G01X19112Y18321D01*
G01X19106Y18335D01*
G01X19103Y18349D01*
G01X19102Y18364D01*
G01X19102Y19189D01*
G01X19103Y19204D01*
G01X19106Y19218D01*
G01X19112Y19232D01*
G01X19119Y19245D01*
G01X19127Y19256D01*
G01X19127Y19935D01*
G01X19089Y19935D01*
G01X19060Y19933D01*
G01X19030Y19928D01*
G01X19002Y19919D01*
G01X18985Y19915D01*
G01X18968Y19913D01*
G01X18950Y19915D01*
G01X18933Y19919D01*
G01X18905Y19928D01*
G01X18875Y19933D01*
G01X18846Y19935D01*
G01X18439Y19935D01*
G01X18410Y19933D01*
G01X18380Y19928D01*
G01X18352Y19919D01*
G01X18335Y19915D01*
G01X18317Y19913D01*
G01X18300Y19915D01*
G01X18283Y19919D01*
G01X18255Y19928D01*
G01X18225Y19933D01*
G01X18196Y19935D01*
G01X17789Y19935D01*
G01X17760Y19933D01*
G01X17730Y19928D01*
G01X17702Y19919D01*
G01X17685Y19915D01*
G01X17668Y19913D01*
G01X17650Y19915D01*
G01X17633Y19919D01*
G01X17605Y19928D01*
G01X17575Y19933D01*
G01X17546Y19935D01*
G01X17139Y19935D01*
G01X17110Y19933D01*
G01X17080Y19928D01*
G01X17052Y19919D01*
G01X17035Y19915D01*
G01X17018Y19913D01*
G01X17000Y19915D01*
G01X16983Y19919D01*
G01X16955Y19928D01*
G01X16925Y19933D01*
G01X16896Y19935D01*
G37*
G36*
G01X15790Y14407D02*
G01X15322Y14407D01*
G01X15322Y14220D01*
G01X15323Y14197D01*
G01X15326Y14173D01*
G01X15332Y14150D01*
G01X15339Y14128D01*
G01X15349Y14106D01*
G01X15360Y14085D01*
G01X15374Y14066D01*
G01X15389Y14048D01*
G01X15406Y14031D01*
G01X15424Y14016D01*
G01X15443Y14002D01*
G01X15464Y13991D01*
G01X15486Y13981D01*
G01X15508Y13974D01*
G01X15531Y13968D01*
G01X15555Y13965D01*
G01X15578Y13964D01*
G01X15780Y13964D01*
G01X15797Y13963D01*
G01X15813Y13958D01*
G01X15803Y13973D01*
G01X15796Y13989D01*
G01X15791Y14005D01*
G01X15790Y14023D01*
G01X15790Y14407D01*
G37*
G36*
G01X12578Y13123D02*
G01X12135Y13123D01*
G01X12135Y12655D01*
G01X12321Y12655D01*
G01X12345Y12656D01*
G01X12369Y12659D01*
G01X12392Y12665D01*
G01X12414Y12672D01*
G01X12436Y12682D01*
G01X12457Y12693D01*
G01X12476Y12707D01*
G01X12494Y12722D01*
G01X12511Y12739D01*
G01X12526Y12757D01*
G01X12540Y12776D01*
G01X12551Y12797D01*
G01X12561Y12819D01*
G01X12568Y12841D01*
G01X12574Y12864D01*
G01X12577Y12888D01*
G01X12578Y12911D01*
G01X12578Y13123D01*
G37*
G36*
G01X16678Y15477D02*
G01X16467Y15477D01*
G01X16467Y15034D01*
G01X16935Y15034D01*
G01X16935Y15220D01*
G01X16934Y15244D01*
G01X16931Y15268D01*
G01X16925Y15291D01*
G01X16918Y15313D01*
G01X16908Y15335D01*
G01X16897Y15356D01*
G01X16883Y15375D01*
G01X16868Y15393D01*
G01X16851Y15410D01*
G01X16833Y15425D01*
G01X16813Y15439D01*
G01X16793Y15450D01*
G01X16771Y15460D01*
G01X16749Y15467D01*
G01X16726Y15473D01*
G01X16702Y15476D01*
G01X16678Y15477D01*
G37*
G36*
G01X13758Y15477D02*
G01X13546Y15477D01*
G01X13523Y15476D01*
G01X13499Y15473D01*
G01X13476Y15467D01*
G01X13454Y15460D01*
G01X13432Y15450D01*
G01X13411Y15439D01*
G01X13392Y15425D01*
G01X13374Y15410D01*
G01X13357Y15393D01*
G01X13342Y15375D01*
G01X13328Y15356D01*
G01X13317Y15335D01*
G01X13307Y15313D01*
G01X13300Y15291D01*
G01X13294Y15268D01*
G01X13291Y15244D01*
G01X13290Y15220D01*
G01X13290Y15034D01*
G01X13758Y15034D01*
G01X13758Y15477D01*
G37*
G36*
G01X14646Y15477D02*
G01X14435Y15477D01*
G01X14435Y15034D01*
G01X14903Y15034D01*
G01X14903Y15220D01*
G01X14902Y15244D01*
G01X14899Y15268D01*
G01X14893Y15291D01*
G01X14886Y15313D01*
G01X14876Y15335D01*
G01X14865Y15356D01*
G01X14851Y15375D01*
G01X14836Y15393D01*
G01X14819Y15410D01*
G01X14801Y15425D01*
G01X14781Y15439D01*
G01X14761Y15450D01*
G01X14739Y15460D01*
G01X14717Y15467D01*
G01X14694Y15473D01*
G01X14670Y15476D01*
G01X14646Y15477D01*
G37*
G36*
G01X15790Y15477D02*
G01X15578Y15477D01*
G01X15555Y15476D01*
G01X15531Y15473D01*
G01X15508Y15467D01*
G01X15486Y15460D01*
G01X15464Y15450D01*
G01X15443Y15439D01*
G01X15424Y15425D01*
G01X15406Y15410D01*
G01X15389Y15393D01*
G01X15374Y15375D01*
G01X15360Y15356D01*
G01X15349Y15335D01*
G01X15339Y15313D01*
G01X15332Y15291D01*
G01X15326Y15268D01*
G01X15323Y15244D01*
G01X15322Y15220D01*
G01X15322Y15034D01*
G01X15790Y15034D01*
G01X15790Y15477D01*
G37*
G36*
G01X14903Y14407D02*
G01X14435Y14407D01*
G01X14435Y13964D01*
G01X14646Y13964D01*
G01X14670Y13965D01*
G01X14694Y13968D01*
G01X14717Y13974D01*
G01X14739Y13981D01*
G01X14761Y13991D01*
G01X14781Y14002D01*
G01X14801Y14016D01*
G01X14819Y14031D01*
G01X14836Y14048D01*
G01X14851Y14066D01*
G01X14865Y14085D01*
G01X14876Y14106D01*
G01X14886Y14128D01*
G01X14893Y14150D01*
G01X14899Y14173D01*
G01X14902Y14197D01*
G01X14903Y14220D01*
G01X14903Y14407D01*
G37*

%LPD*%
G36*
G01X9898Y9735D02*
G01X9883Y9736D01*
G01X9868Y9735D01*
G01X9854Y9732D01*
G01X9840Y9727D01*
G01X9828Y9720D01*
G01X9816Y9711D01*
G01X9806Y9701D01*
G01X9797Y9689D01*
G01X9790Y9676D01*
G01X9785Y9663D01*
G01X9782Y9649D01*
G01X9781Y9634D01*
G01X9781Y7891D01*
G01X9782Y7876D01*
G01X9785Y7862D01*
G01X9790Y7849D01*
G01X9797Y7836D01*
G01X9806Y7824D01*
G01X9816Y7814D01*
G01X9828Y7805D01*
G01X9840Y7798D01*
G01X9854Y7793D01*
G01X9868Y7790D01*
G01X9883Y7789D01*
G01X9898Y7790D01*
G01X9914Y7794D01*
G01X9928Y7800D01*
G01X9942Y7808D01*
G01X9954Y7818D01*
G01X9964Y7830D01*
G01X9986Y7857D01*
G01X10009Y7883D01*
G01X10034Y7907D01*
G01X10060Y7930D01*
G01X10088Y7951D01*
G01X10117Y7970D01*
G01X10147Y7987D01*
G01X10178Y8003D01*
G01X10210Y8016D01*
G01X10243Y8028D01*
G01X10276Y8037D01*
G01X10310Y8045D01*
G01X10344Y8050D01*
G01X10379Y8053D01*
G01X10414Y8055D01*
G01X10451Y8053D01*
G01X10489Y8049D01*
G01X10527Y8043D01*
G01X10564Y8034D01*
G01X10600Y8023D01*
G01X10636Y8009D01*
G01X10668Y7993D01*
G01X10700Y7976D01*
G01X10731Y7957D01*
G01X10760Y7935D01*
G01X10788Y7912D01*
G01X10799Y7903D01*
G01X10812Y7896D01*
G01X10826Y7890D01*
G01X10840Y7887D01*
G01X10855Y7886D01*
G01X11478Y7886D01*
G01X11493Y7881D01*
G01X11508Y7877D01*
G01X11523Y7876D01*
G01X12348Y7876D01*
G01X12363Y7877D01*
G01X12378Y7881D01*
G01X12393Y7886D01*
G01X13094Y7886D01*
G01X13094Y7872D01*
G01X13095Y7857D01*
G01X13098Y7842D01*
G01X13104Y7827D01*
G01X13112Y7814D01*
G01X13122Y7802D01*
G01X13134Y7792D01*
G01X13147Y7783D01*
G01X13161Y7777D01*
G01X13187Y7766D01*
G01X13212Y7754D01*
G01X13236Y7740D01*
G01X13259Y7724D01*
G01X13280Y7707D01*
G01X13301Y7688D01*
G01X13880Y7108D01*
G01X13893Y7098D01*
G01X13906Y7089D01*
G01X13921Y7083D01*
G01X13936Y7079D01*
G01X13952Y7078D01*
G01X13967Y7079D01*
G01X13982Y7082D01*
G01X13995Y7088D01*
G01X14008Y7095D01*
G01X14020Y7104D01*
G01X14030Y7115D01*
G01X14039Y7127D01*
G01X14046Y7140D01*
G01X14051Y7154D01*
G01X14053Y7169D01*
G01X14057Y7192D01*
G01X14063Y7215D01*
G01X14070Y7237D01*
G01X14080Y7259D01*
G01X14092Y7279D01*
G01X14106Y7299D01*
G01X14121Y7317D01*
G01X14138Y7333D01*
G01X14156Y7348D01*
G01X14176Y7361D01*
G01X14197Y7372D01*
G01X14218Y7382D01*
G01X14241Y7389D01*
G01X14264Y7394D01*
G01X14279Y7398D01*
G01X14294Y7404D01*
G01X14307Y7413D01*
G01X14319Y7423D01*
G01X14329Y7435D01*
G01X14337Y7449D01*
G01X14343Y7463D01*
G01X14347Y7479D01*
G01X14348Y7494D01*
G01X14348Y7872D01*
G01X14347Y7887D01*
G01X14343Y7903D01*
G01X14337Y7917D01*
G01X14329Y7931D01*
G01X14319Y7943D01*
G01X14307Y7953D01*
G01X14294Y7962D01*
G01X14279Y7968D01*
G01X14264Y7972D01*
G01X14240Y7977D01*
G01X14216Y7985D01*
G01X14193Y7995D01*
G01X14172Y8007D01*
G01X14151Y8022D01*
G01X14132Y8038D01*
G01X14115Y8056D01*
G01X14100Y8075D01*
G01X14086Y8096D01*
G01X14075Y8118D01*
G01X14066Y8141D01*
G01X14059Y8156D01*
G01X14051Y8169D01*
G01X14041Y8181D01*
G01X14029Y8191D01*
G01X14015Y8199D01*
G01X14001Y8205D01*
G01X13985Y8209D01*
G01X13970Y8210D01*
G01X13969Y8210D01*
G01X13195Y8206D01*
G01X12006Y8201D01*
G01X11935Y8201D01*
G01X11901Y8202D01*
G01X11866Y8206D01*
G01X11831Y8212D01*
G01X11798Y8220D01*
G01X11764Y8231D01*
G01X11732Y8244D01*
G01X11712Y8250D01*
G01X11691Y8252D01*
G01X11523Y8252D01*
G01X11508Y8251D01*
G01X11494Y8248D01*
G01X11480Y8243D01*
G01X11467Y8236D01*
G01X11456Y8227D01*
G01X11446Y8216D01*
G01X10777Y8216D01*
G01X10777Y8255D01*
G01X10778Y8278D01*
G01X10781Y8301D01*
G01X10787Y8323D01*
G01X10794Y8345D01*
G01X10799Y8363D01*
G01X10801Y8382D01*
G01X10799Y8400D01*
G01X10794Y8418D01*
G01X10787Y8440D01*
G01X10781Y8462D01*
G01X10778Y8485D01*
G01X10777Y8509D01*
G01X10777Y8915D01*
G01X10779Y8943D01*
G01X10783Y8970D01*
G01X10791Y8997D01*
G01X10795Y9013D01*
G01X10796Y9029D01*
G01X10795Y9046D01*
G01X10791Y9062D01*
G01X10783Y9088D01*
G01X10779Y9116D01*
G01X10777Y9144D01*
G01X10777Y9423D01*
G01X10776Y9437D01*
G01X10773Y9451D01*
G01X10768Y9465D01*
G01X10761Y9478D01*
G01X10752Y9489D01*
G01X10742Y9500D01*
G01X10731Y9508D01*
G01X10718Y9515D01*
G01X10704Y9520D01*
G01X10690Y9523D01*
G01X10676Y9524D01*
G01X10655Y9522D01*
G01X10636Y9516D01*
G01X10600Y9502D01*
G01X10564Y9491D01*
G01X10527Y9482D01*
G01X10489Y9476D01*
G01X10451Y9472D01*
G01X10414Y9470D01*
G01X10379Y9472D01*
G01X10344Y9475D01*
G01X10310Y9480D01*
G01X10276Y9488D01*
G01X10243Y9497D01*
G01X10210Y9509D01*
G01X10178Y9522D01*
G01X10147Y9538D01*
G01X10117Y9555D01*
G01X10088Y9574D01*
G01X10060Y9595D01*
G01X10034Y9618D01*
G01X10009Y9642D01*
G01X9986Y9668D01*
G01X9964Y9695D01*
G01X9954Y9707D01*
G01X9942Y9717D01*
G01X9928Y9725D01*
G01X9914Y9731D01*
G01X9898Y9735D01*
G37*

%LPD*%
G36*
G01X26249Y27302D02*
G01X482Y27302D01*
G01X468Y27301D01*
G01X453Y27298D01*
G01X440Y27293D01*
G01X427Y27286D01*
G01X416Y27277D01*
G01X405Y27267D01*
G01X397Y27255D01*
G01X390Y27243D01*
G01X385Y27229D01*
G01X382Y27215D01*
G01X381Y27200D01*
G01X381Y2996D01*
G01X382Y2982D01*
G01X385Y2968D01*
G01X390Y2954D01*
G01X397Y2941D01*
G01X405Y2930D01*
G01X416Y2920D01*
G01X427Y2911D01*
G01X440Y2904D01*
G01X453Y2899D01*
G01X468Y2896D01*
G01X482Y2895D01*
G01X498Y2896D01*
G01X514Y2900D01*
G01X529Y2906D01*
G01X542Y2914D01*
G01X554Y2925D01*
G01X565Y2937D01*
G01X573Y2951D01*
G01X601Y3005D01*
G01X632Y3059D01*
G01X664Y3111D01*
G01X697Y3162D01*
G01X733Y3212D01*
G01X770Y3261D01*
G01X809Y3308D01*
G01X850Y3354D01*
G01X892Y3399D01*
G01X936Y3442D01*
G01X981Y3483D01*
G01X1027Y3523D01*
G01X1075Y3562D01*
G01X1124Y3598D01*
G01X1175Y3633D01*
G01X1227Y3666D01*
G01X1279Y3698D01*
G01X1333Y3727D01*
G01X1388Y3755D01*
G01X1443Y3780D01*
G01X1500Y3804D01*
G01X1557Y3826D01*
G01X1615Y3846D01*
G01X1674Y3864D01*
G01X1733Y3879D01*
G01X1793Y3893D01*
G01X1853Y3905D01*
G01X1914Y3914D01*
G01X1975Y3921D01*
G01X2036Y3927D01*
G01X2097Y3930D01*
G01X2159Y3931D01*
G01X2220Y3930D01*
G01X2281Y3927D01*
G01X2342Y3922D01*
G01X2403Y3914D01*
G01X2463Y3905D01*
G01X2523Y3893D01*
G01X2583Y3880D01*
G01X2642Y3864D01*
G01X2700Y3846D01*
G01X2758Y3826D01*
G01X2816Y3805D01*
G01X2872Y3781D01*
G01X2928Y3755D01*
G01X2982Y3728D01*
G01X3036Y3699D01*
G01X3089Y3667D01*
G01X3140Y3634D01*
G01X3191Y3600D01*
G01X3240Y3563D01*
G01X3288Y3525D01*
G01X3334Y3485D01*
G01X3379Y3444D01*
G01X3423Y3401D01*
G01X3465Y3356D01*
G01X3505Y3311D01*
G01X3544Y3264D01*
G01X3582Y3215D01*
G01X3617Y3165D01*
G01X3651Y3114D01*
G01X3683Y3062D01*
G01X3714Y3009D01*
G01X3742Y2955D01*
G01X3769Y2900D01*
G01X3793Y2844D01*
G01X3816Y2787D01*
G01X3837Y2729D01*
G01X3855Y2671D01*
G01X3872Y2612D01*
G01X3887Y2553D01*
G01X3899Y2493D01*
G01X3903Y2478D01*
G01X3910Y2464D01*
G01X3918Y2450D01*
G01X3928Y2439D01*
G01X3940Y2429D01*
G01X3954Y2421D01*
G01X3968Y2415D01*
G01X3983Y2412D01*
G01X3999Y2410D01*
G01X4013Y2411D01*
G01X4028Y2414D01*
G01X4054Y2426D01*
G01X4066Y2435D01*
G01X4076Y2445D01*
G01X4085Y2457D01*
G01X4097Y2483D01*
G01X4111Y2530D01*
G01X4128Y2576D01*
G01X4147Y2622D01*
G01X4167Y2666D01*
G01X4190Y2710D01*
G01X4214Y2753D01*
G01X4240Y2794D01*
G01X4268Y2835D01*
G01X4298Y2874D01*
G01X4329Y2912D01*
G01X4362Y2948D01*
G01X4396Y2984D01*
G01X4432Y3017D01*
G01X4469Y3049D01*
G01X4508Y3080D01*
G01X4547Y3109D01*
G01X4588Y3136D01*
G01X4630Y3161D01*
G01X4673Y3185D01*
G01X4717Y3207D01*
G01X4762Y3226D01*
G01X4776Y3233D01*
G01X4788Y3242D01*
G01X4799Y3252D01*
G01X4808Y3264D01*
G01X4815Y3277D01*
G01X4821Y3291D01*
G01X4824Y3305D01*
G01X4825Y3320D01*
G01X4825Y4239D01*
G01X4824Y4253D01*
G01X4821Y4267D01*
G01X4816Y4281D01*
G01X4809Y4294D01*
G01X4800Y4305D01*
G01X4790Y4316D01*
G01X4778Y4324D01*
G01X4766Y4331D01*
G01X4752Y4336D01*
G01X4738Y4339D01*
G01X4723Y4340D01*
G01X4434Y4340D01*
G01X4410Y4341D01*
G01X4387Y4345D01*
G01X4364Y4350D01*
G01X4341Y4358D01*
G01X4319Y4367D01*
G01X4299Y4379D01*
G01X4279Y4392D01*
G01X4261Y4407D01*
G01X4244Y4424D01*
G01X4229Y4442D01*
G01X4216Y4462D01*
G01X4204Y4483D01*
G01X4195Y4504D01*
G01X4187Y4527D01*
G01X4182Y4550D01*
G01X4178Y4573D01*
G01X4177Y4597D01*
G01X4177Y5003D01*
G01X4178Y5027D01*
G01X4181Y5050D01*
G01X4187Y5072D01*
G01X4194Y5094D01*
G01X4199Y5112D01*
G01X4201Y5130D01*
G01X4199Y5149D01*
G01X4194Y5166D01*
G01X4187Y5188D01*
G01X4181Y5211D01*
G01X4178Y5234D01*
G01X4177Y5257D01*
G01X4177Y5664D01*
G01X4179Y5691D01*
G01X4183Y5719D01*
G01X4191Y5746D01*
G01X4195Y5762D01*
G01X4196Y5778D01*
G01X4195Y5794D01*
G01X4191Y5810D01*
G01X4183Y5837D01*
G01X4179Y5865D01*
G01X4177Y5892D01*
G01X4177Y5930D01*
G01X4878Y5930D01*
G01X4893Y5925D01*
G01X4908Y5921D01*
G01X4923Y5920D01*
G01X5091Y5920D01*
G01X5112Y5922D01*
G01X5132Y5929D01*
G01X5164Y5941D01*
G01X5198Y5952D01*
G01X5232Y5960D01*
G01X5266Y5966D01*
G01X5301Y5970D01*
G01X5336Y5971D01*
G01X5370Y5970D01*
G01X5405Y5966D01*
G01X5440Y5960D01*
G01X5473Y5952D01*
G01X5507Y5941D01*
G01X5539Y5929D01*
G01X5559Y5922D01*
G01X5580Y5920D01*
G01X5748Y5920D01*
G01X5763Y5921D01*
G01X5778Y5925D01*
G01X5793Y5930D01*
G01X6372Y5930D01*
G01X6387Y5931D01*
G01X6401Y5935D01*
G01X6415Y5940D01*
G01X6427Y5947D01*
G01X6439Y5955D01*
G01X6449Y5965D01*
G01X6458Y5977D01*
G01X6465Y5990D01*
G01X6470Y6003D01*
G01X6473Y6018D01*
G01X6474Y6032D01*
G01X6474Y6159D01*
G01X6473Y6173D01*
G01X6470Y6188D01*
G01X6465Y6201D01*
G01X6458Y6214D01*
G01X6449Y6226D01*
G01X6439Y6236D01*
G01X6427Y6244D01*
G01X6415Y6251D01*
G01X6401Y6256D01*
G01X6387Y6260D01*
G01X6372Y6261D01*
G01X5850Y6261D01*
G01X5850Y6591D01*
G01X6372Y6591D01*
G01X6387Y6592D01*
G01X6401Y6595D01*
G01X6415Y6600D01*
G01X6427Y6607D01*
G01X6439Y6616D01*
G01X6449Y6626D01*
G01X6458Y6637D01*
G01X6465Y6650D01*
G01X6470Y6664D01*
G01X6473Y6678D01*
G01X6474Y6692D01*
G01X6474Y6804D01*
G01X6473Y6819D01*
G01X6470Y6833D01*
G01X6465Y6846D01*
G01X6458Y6859D01*
G01X6449Y6871D01*
G01X6439Y6881D01*
G01X6427Y6890D01*
G01X6415Y6897D01*
G01X6401Y6902D01*
G01X6387Y6905D01*
G01X6372Y6906D01*
G01X5336Y6906D01*
G01X5301Y6907D01*
G01X5266Y6911D01*
G01X5232Y6916D01*
G01X5198Y6925D01*
G01X5164Y6935D01*
G01X5132Y6948D01*
G01X5112Y6954D01*
G01X5091Y6957D01*
G01X4923Y6957D01*
G01X4908Y6956D01*
G01X4894Y6952D01*
G01X4880Y6947D01*
G01X4867Y6940D01*
G01X4856Y6931D01*
G01X4846Y6921D01*
G01X4177Y6921D01*
G01X4177Y6959D01*
G01X4178Y6982D01*
G01X4181Y7005D01*
G01X4187Y7028D01*
G01X4194Y7050D01*
G01X4199Y7068D01*
G01X4201Y7086D01*
G01X4199Y7104D01*
G01X4194Y7122D01*
G01X4187Y7144D01*
G01X4181Y7167D01*
G01X4178Y7190D01*
G01X4177Y7213D01*
G01X4177Y7620D01*
G01X4179Y7647D01*
G01X4183Y7675D01*
G01X4191Y7701D01*
G01X4195Y7717D01*
G01X4196Y7734D01*
G01X4195Y7750D01*
G01X4191Y7766D01*
G01X4183Y7793D01*
G01X4179Y7820D01*
G01X4177Y7848D01*
G01X4177Y8255D01*
G01X4178Y8278D01*
G01X4181Y8301D01*
G01X4187Y8323D01*
G01X4194Y8345D01*
G01X4199Y8363D01*
G01X4201Y8382D01*
G01X4199Y8400D01*
G01X4194Y8418D01*
G01X4187Y8440D01*
G01X4181Y8462D01*
G01X4178Y8485D01*
G01X4177Y8509D01*
G01X4177Y8915D01*
G01X4179Y8943D01*
G01X4183Y8970D01*
G01X4191Y8997D01*
G01X4195Y9013D01*
G01X4196Y9029D01*
G01X4195Y9046D01*
G01X4191Y9062D01*
G01X4183Y9088D01*
G01X4179Y9116D01*
G01X4177Y9144D01*
G01X4177Y9550D01*
G01X4178Y9573D01*
G01X4181Y9596D01*
G01X4187Y9619D01*
G01X4194Y9641D01*
G01X4199Y9659D01*
G01X4201Y9677D01*
G01X4199Y9695D01*
G01X4194Y9713D01*
G01X4184Y9745D01*
G01X4179Y9778D01*
G01X4176Y9792D01*
G01X4171Y9806D01*
G01X4165Y9819D01*
G01X4156Y9831D01*
G01X4146Y9842D01*
G01X4846Y9842D01*
G01X4856Y9832D01*
G01X4867Y9823D01*
G01X4880Y9816D01*
G01X4894Y9811D01*
G01X4908Y9807D01*
G01X4923Y9806D01*
G01X5091Y9806D01*
G01X5112Y9809D01*
G01X5132Y9815D01*
G01X5164Y9828D01*
G01X5198Y9838D01*
G01X5232Y9847D01*
G01X5266Y9852D01*
G01X5301Y9856D01*
G01X5336Y9857D01*
G01X5370Y9856D01*
G01X5405Y9852D01*
G01X5440Y9847D01*
G01X5473Y9838D01*
G01X5507Y9828D01*
G01X5539Y9815D01*
G01X5559Y9809D01*
G01X5580Y9806D01*
G01X5748Y9806D01*
G01X5763Y9807D01*
G01X5777Y9811D01*
G01X5791Y9816D01*
G01X5804Y9823D01*
G01X5815Y9832D01*
G01X5825Y9842D01*
G01X6499Y9842D01*
G01X6514Y9843D01*
G01X6528Y9846D01*
G01X6542Y9851D01*
G01X6554Y9858D01*
G01X6566Y9867D01*
G01X6576Y9877D01*
G01X6585Y9889D01*
G01X6592Y9901D01*
G01X6597Y9915D01*
G01X6600Y9929D01*
G01X6601Y9944D01*
G01X6601Y10071D01*
G01X6600Y10085D01*
G01X6597Y10099D01*
G01X6592Y10113D01*
G01X6585Y10126D01*
G01X6576Y10137D01*
G01X6566Y10147D01*
G01X6554Y10156D01*
G01X6542Y10163D01*
G01X6528Y10168D01*
G01X6514Y10171D01*
G01X6499Y10172D01*
G01X5850Y10172D01*
G01X5850Y10502D01*
G01X6436Y10502D01*
G01X6451Y10503D01*
G01X6465Y10507D01*
G01X6479Y10512D01*
G01X6491Y10519D01*
G01X6503Y10527D01*
G01X6513Y10537D01*
G01X6522Y10549D01*
G01X6529Y10562D01*
G01X6534Y10575D01*
G01X6537Y10590D01*
G01X6538Y10604D01*
G01X6537Y10620D01*
G01X6533Y10635D01*
G01X6527Y10650D01*
G01X6519Y10664D01*
G01X6508Y10676D01*
G01X6422Y10762D01*
G01X6410Y10773D01*
G01X6396Y10781D01*
G01X6381Y10787D01*
G01X6366Y10791D01*
G01X6350Y10792D01*
G01X5336Y10792D01*
G01X5301Y10793D01*
G01X5266Y10797D01*
G01X5232Y10803D01*
G01X5198Y10811D01*
G01X5164Y10822D01*
G01X5132Y10834D01*
G01X5112Y10841D01*
G01X5091Y10843D01*
G01X4923Y10843D01*
G01X4908Y10842D01*
G01X4893Y10838D01*
G01X4878Y10833D01*
G01X4177Y10833D01*
G01X4177Y10871D01*
G01X4179Y10898D01*
G01X4183Y10926D01*
G01X4191Y10953D01*
G01X4195Y10969D01*
G01X4196Y10985D01*
G01X4195Y11001D01*
G01X4191Y11017D01*
G01X4183Y11044D01*
G01X4179Y11072D01*
G01X4177Y11099D01*
G01X4177Y11506D01*
G01X4178Y11529D01*
G01X4181Y11552D01*
G01X4187Y11575D01*
G01X4194Y11597D01*
G01X4199Y11614D01*
G01X4201Y11633D01*
G01X4199Y11651D01*
G01X4194Y11669D01*
G01X4187Y11691D01*
G01X4181Y11713D01*
G01X4178Y11736D01*
G01X4177Y11760D01*
G01X4177Y12166D01*
G01X4178Y12190D01*
G01X4182Y12213D01*
G01X4187Y12236D01*
G01X4195Y12259D01*
G01X4204Y12280D01*
G01X4216Y12301D01*
G01X4229Y12321D01*
G01X4244Y12339D01*
G01X4261Y12356D01*
G01X4279Y12371D01*
G01X4299Y12384D01*
G01X4319Y12396D01*
G01X4341Y12405D01*
G01X4364Y12413D01*
G01X4387Y12418D01*
G01X4410Y12422D01*
G01X4434Y12423D01*
G01X5091Y12423D01*
G01X5112Y12425D01*
G01X5132Y12431D01*
G01X5164Y12444D01*
G01X5198Y12454D01*
G01X5232Y12463D01*
G01X5266Y12469D01*
G01X5301Y12472D01*
G01X5336Y12473D01*
G01X5370Y12472D01*
G01X5405Y12469D01*
G01X5440Y12463D01*
G01X5473Y12454D01*
G01X5507Y12444D01*
G01X5539Y12431D01*
G01X5559Y12425D01*
G01X5580Y12423D01*
G01X6237Y12423D01*
G01X6261Y12422D01*
G01X6284Y12418D01*
G01X6307Y12413D01*
G01X6330Y12405D01*
G01X6352Y12396D01*
G01X6372Y12384D01*
G01X6392Y12371D01*
G01X6410Y12356D01*
G01X6427Y12339D01*
G01X6442Y12321D01*
G01X6455Y12301D01*
G01X6467Y12280D01*
G01X6476Y12259D01*
G01X6484Y12236D01*
G01X6489Y12213D01*
G01X6493Y12190D01*
G01X6494Y12166D01*
G01X6494Y11915D01*
G01X6495Y11900D01*
G01X6498Y11886D01*
G01X6503Y11872D01*
G01X6510Y11860D01*
G01X6519Y11848D01*
G01X6529Y11838D01*
G01X6540Y11829D01*
G01X6553Y11822D01*
G01X6567Y11817D01*
G01X6581Y11814D01*
G01X6595Y11813D01*
G01X6604Y11813D01*
G01X6637Y11812D01*
G01X6670Y11809D01*
G01X6703Y11803D01*
G01X6736Y11796D01*
G01X6768Y11786D01*
G01X6799Y11774D01*
G01X6829Y11760D01*
G01X6859Y11745D01*
G01X6887Y11727D01*
G01X6914Y11708D01*
G01X6940Y11686D01*
G01X6965Y11664D01*
G01X7473Y11156D01*
G01X7495Y11131D01*
G01X7517Y11105D01*
G01X7536Y11078D01*
G01X7554Y11050D01*
G01X7569Y11020D01*
G01X7583Y10990D01*
G01X7595Y10959D01*
G01X7605Y10927D01*
G01X7612Y10894D01*
G01X7618Y10861D01*
G01X7621Y10828D01*
G01X7622Y10795D01*
G01X7622Y9397D01*
G01X7623Y9381D01*
G01X7627Y9366D01*
G01X7633Y9351D01*
G01X7641Y9337D01*
G01X7652Y9325D01*
G01X8587Y8390D01*
G01X8599Y8380D01*
G01X8612Y8372D01*
G01X8627Y8366D01*
G01X8642Y8362D01*
G01X8658Y8361D01*
G01X8673Y8362D01*
G01X8687Y8365D01*
G01X8701Y8370D01*
G01X8713Y8377D01*
G01X8725Y8386D01*
G01X8735Y8396D01*
G01X8744Y8407D01*
G01X8751Y8420D01*
G01X8756Y8434D01*
G01X8759Y8448D01*
G01X8760Y8462D01*
G01X8760Y12674D01*
G01X8759Y12689D01*
G01X8756Y12703D01*
G01X8751Y12716D01*
G01X8744Y12729D01*
G01X8735Y12741D01*
G01X8725Y12751D01*
G01X8713Y12760D01*
G01X8701Y12767D01*
G01X8687Y12772D01*
G01X8673Y12775D01*
G01X8658Y12776D01*
G01X8643Y12775D01*
G01X8627Y12771D01*
G01X8602Y12764D01*
G01X8576Y12760D01*
G01X8550Y12759D01*
G01X7350Y12759D01*
G01X7326Y12760D01*
G01X7302Y12763D01*
G01X7279Y12769D01*
G01X7257Y12776D01*
G01X7235Y12786D01*
G01X7215Y12797D01*
G01X7195Y12811D01*
G01X7177Y12826D01*
G01X7160Y12843D01*
G01X7145Y12861D01*
G01X7131Y12880D01*
G01X7120Y12901D01*
G01X7110Y12923D01*
G01X7103Y12945D01*
G01X7097Y12968D01*
G01X7094Y12992D01*
G01X7093Y13016D01*
G01X7093Y14249D01*
G01X7092Y14265D01*
G01X7088Y14280D01*
G01X7082Y14295D01*
G01X7074Y14309D01*
G01X7063Y14321D01*
G01X6030Y15354D01*
G01X6018Y15365D01*
G01X6004Y15373D01*
G01X5989Y15379D01*
G01X5974Y15383D01*
G01X5958Y15384D01*
G01X5515Y15384D01*
G01X5492Y15385D01*
G01X5468Y15388D01*
G01X5445Y15394D01*
G01X5423Y15401D01*
G01X5401Y15411D01*
G01X5380Y15422D01*
G01X5361Y15436D01*
G01X5343Y15451D01*
G01X5326Y15468D01*
G01X5311Y15486D01*
G01X5297Y15505D01*
G01X5286Y15526D01*
G01X5276Y15548D01*
G01X5269Y15570D01*
G01X5263Y15593D01*
G01X5260Y15617D01*
G01X5259Y15640D01*
G01X5259Y16083D01*
G01X5258Y16099D01*
G01X5254Y16114D01*
G01X5248Y16129D01*
G01X5240Y16143D01*
G01X5229Y16155D01*
G01X3829Y17554D01*
G01X3807Y17579D01*
G01X3785Y17605D01*
G01X3766Y17632D01*
G01X3748Y17660D01*
G01X3733Y17690D01*
G01X3719Y17720D01*
G01X3707Y17751D01*
G01X3697Y17783D01*
G01X3690Y17816D01*
G01X3684Y17849D01*
G01X3681Y17882D01*
G01X3680Y17915D01*
G01X3680Y21844D01*
G01X3679Y21860D01*
G01X3675Y21875D01*
G01X3669Y21890D01*
G01X3661Y21904D01*
G01X3650Y21916D01*
G01X2743Y22823D01*
G01X2731Y22833D01*
G01X2717Y22842D01*
G01X2703Y22848D01*
G01X2687Y22851D01*
G01X2671Y22853D01*
G01X2655Y22851D01*
G01X2639Y22847D01*
G01X2623Y22841D01*
G01X2609Y22832D01*
G01X2569Y22802D01*
G01X2527Y22774D01*
G01X2483Y22747D01*
G01X2439Y22723D01*
G01X2394Y22701D01*
G01X2348Y22680D01*
G01X2301Y22662D01*
G01X2253Y22646D01*
G01X2204Y22631D01*
G01X2155Y22619D01*
G01X2106Y22610D01*
G01X2056Y22602D01*
G01X2005Y22596D01*
G01X1955Y22593D01*
G01X1905Y22592D01*
G01X1855Y22593D01*
G01X1806Y22596D01*
G01X1758Y22601D01*
G01X1709Y22609D01*
G01X1661Y22618D01*
G01X1613Y22629D01*
G01X1566Y22643D01*
G01X1519Y22658D01*
G01X1473Y22675D01*
G01X1428Y22695D01*
G01X1384Y22716D01*
G01X1340Y22739D01*
G01X1298Y22764D01*
G01X1257Y22790D01*
G01X1217Y22819D01*
G01X1178Y22849D01*
G01X1140Y22880D01*
G01X1104Y22914D01*
G01X1070Y22948D01*
G01X1036Y22984D01*
G01X1005Y23022D01*
G01X975Y23061D01*
G01X946Y23101D01*
G01X920Y23142D01*
G01X895Y23184D01*
G01X872Y23228D01*
G01X851Y23272D01*
G01X831Y23317D01*
G01X814Y23363D01*
G01X799Y23410D01*
G01X785Y23457D01*
G01X774Y23505D01*
G01X765Y23553D01*
G01X757Y23602D01*
G01X752Y23650D01*
G01X749Y23699D01*
G01X748Y23749D01*
G01X749Y23798D01*
G01X752Y23847D01*
G01X757Y23895D01*
G01X765Y23944D01*
G01X774Y23992D01*
G01X785Y24040D01*
G01X799Y24087D01*
G01X814Y24134D01*
G01X831Y24180D01*
G01X851Y24225D01*
G01X872Y24269D01*
G01X895Y24313D01*
G01X920Y24355D01*
G01X946Y24396D01*
G01X975Y24436D01*
G01X1005Y24475D01*
G01X1036Y24513D01*
G01X1070Y24549D01*
G01X1104Y24583D01*
G01X1140Y24617D01*
G01X1178Y24648D01*
G01X1217Y24678D01*
G01X1257Y24707D01*
G01X1298Y24733D01*
G01X1340Y24758D01*
G01X1384Y24781D01*
G01X1428Y24802D01*
G01X1473Y24822D01*
G01X1519Y24839D01*
G01X1566Y24854D01*
G01X1613Y24868D01*
G01X1661Y24879D01*
G01X1709Y24888D01*
G01X1758Y24896D01*
G01X1806Y24901D01*
G01X1855Y24904D01*
G01X1905Y24905D01*
G01X1953Y24904D01*
G01X2002Y24901D01*
G01X2051Y24896D01*
G01X2099Y24889D01*
G01X2147Y24879D01*
G01X2195Y24868D01*
G01X2242Y24855D01*
G01X2288Y24840D01*
G01X2334Y24822D01*
G01X2379Y24803D01*
G01X2423Y24782D01*
G01X2466Y24759D01*
G01X2508Y24735D01*
G01X2550Y24708D01*
G01X2590Y24680D01*
G01X2628Y24651D01*
G01X2666Y24619D01*
G01X2702Y24586D01*
G01X2737Y24552D01*
G01X2770Y24516D01*
G01X2801Y24479D01*
G01X2832Y24440D01*
G01X2860Y24400D01*
G01X2887Y24359D01*
G01X2912Y24317D01*
G01X2935Y24274D01*
G01X2956Y24230D01*
G01X2975Y24185D01*
G01X2993Y24140D01*
G01X3008Y24093D01*
G01X3022Y24046D01*
G01X3034Y23999D01*
G01X3038Y23985D01*
G01X3044Y23972D01*
G01X3052Y23960D01*
G01X3061Y23949D01*
G01X4552Y22459D01*
G01X4574Y22434D01*
G01X4596Y22408D01*
G01X4615Y22381D01*
G01X4633Y22353D01*
G01X4648Y22323D01*
G01X4662Y22293D01*
G01X4674Y22262D01*
G01X4684Y22230D01*
G01X4691Y22197D01*
G01X4697Y22164D01*
G01X4700Y22131D01*
G01X4701Y22098D01*
G01X4701Y18169D01*
G01X4702Y18153D01*
G01X4706Y18138D01*
G01X4712Y18123D01*
G01X4720Y18109D01*
G01X4731Y18097D01*
G01X5086Y17742D01*
G01X5098Y17732D01*
G01X5111Y17724D01*
G01X5126Y17718D01*
G01X5141Y17714D01*
G01X5157Y17713D01*
G01X5172Y17714D01*
G01X5186Y17717D01*
G01X5200Y17722D01*
G01X5212Y17729D01*
G01X5224Y17738D01*
G01X5234Y17748D01*
G01X5243Y17759D01*
G01X5250Y17772D01*
G01X5255Y17786D01*
G01X5258Y17800D01*
G01X5259Y17814D01*
G01X5259Y18141D01*
G01X5260Y18164D01*
G01X5263Y18188D01*
G01X5269Y18211D01*
G01X5276Y18233D01*
G01X5286Y18255D01*
G01X5297Y18276D01*
G01X5311Y18295D01*
G01X5326Y18313D01*
G01X5343Y18330D01*
G01X5361Y18345D01*
G01X5380Y18359D01*
G01X5401Y18370D01*
G01X5423Y18380D01*
G01X5445Y18387D01*
G01X5468Y18393D01*
G01X5492Y18396D01*
G01X5515Y18397D01*
G01X6815Y18397D01*
G01X6839Y18396D01*
G01X6863Y18393D01*
G01X6886Y18387D01*
G01X6908Y18380D01*
G01X6930Y18370D01*
G01X6951Y18359D01*
G01X6970Y18345D01*
G01X6988Y18330D01*
G01X7005Y18313D01*
G01X7020Y18295D01*
G01X7034Y18276D01*
G01X7045Y18255D01*
G01X7055Y18233D01*
G01X7062Y18211D01*
G01X7068Y18188D01*
G01X7071Y18164D01*
G01X7072Y18141D01*
G01X7072Y17525D01*
G01X7071Y17519D01*
G01X7073Y17503D01*
G01X7076Y17488D01*
G01X7082Y17473D01*
G01X7091Y17459D01*
G01X7101Y17447D01*
G01X7486Y17063D01*
G01X7498Y17052D01*
G01X7511Y17044D01*
G01X7526Y17038D01*
G01X7541Y17034D01*
G01X7557Y17033D01*
G01X7572Y17034D01*
G01X7586Y17037D01*
G01X7600Y17042D01*
G01X7612Y17049D01*
G01X7624Y17058D01*
G01X7634Y17068D01*
G01X7643Y17080D01*
G01X7650Y17092D01*
G01X7655Y17106D01*
G01X7658Y17120D01*
G01X7659Y17135D01*
G01X7659Y17190D01*
G01X7660Y17214D01*
G01X7663Y17238D01*
G01X7669Y17261D01*
G01X7676Y17283D01*
G01X7686Y17305D01*
G01X7697Y17326D01*
G01X7711Y17345D01*
G01X7726Y17363D01*
G01X7743Y17380D01*
G01X7761Y17395D01*
G01X7780Y17409D01*
G01X7801Y17420D01*
G01X7823Y17430D01*
G01X7845Y17437D01*
G01X7868Y17443D01*
G01X7892Y17446D01*
G01X7915Y17447D01*
G01X8538Y17447D01*
G01X8554Y17448D01*
G01X8569Y17452D01*
G01X8584Y17458D01*
G01X8597Y17466D01*
G01X8609Y17477D01*
G01X9183Y18051D01*
G01X9206Y18071D01*
G01X9229Y18090D01*
G01X9254Y18107D01*
G01X9280Y18121D01*
G01X9308Y18134D01*
G01X9336Y18144D01*
G01X9365Y18152D01*
G01X9395Y18158D01*
G01X9425Y18162D01*
G01X9455Y18163D01*
G01X11684Y18163D01*
G01X11714Y18162D01*
G01X11743Y18158D01*
G01X11773Y18152D01*
G01X11802Y18144D01*
G01X11830Y18134D01*
G01X11858Y18121D01*
G01X11884Y18107D01*
G01X11909Y18090D01*
G01X11933Y18071D01*
G01X11955Y18051D01*
G01X12159Y17846D01*
G01X12171Y17836D01*
G01X12185Y17827D01*
G01X12200Y17821D01*
G01X12215Y17818D01*
G01X12231Y17816D01*
G01X12246Y17817D01*
G01X12260Y17820D01*
G01X12286Y17832D01*
G01X12298Y17841D01*
G01X12308Y17851D01*
G01X12317Y17863D01*
G01X12324Y17876D01*
G01X12329Y17889D01*
G01X12332Y17903D01*
G01X12333Y17918D01*
G01X12333Y19678D01*
G01X12334Y19701D01*
G01X12337Y19724D01*
G01X12342Y19747D01*
G01X12349Y19769D01*
G01X12364Y19804D01*
G01X12367Y19819D01*
G01X12369Y19834D01*
G01X12368Y19849D01*
G01X12364Y19863D01*
G01X12359Y19877D01*
G01X12352Y19889D01*
G01X12344Y19901D01*
G01X12334Y19911D01*
G01X12322Y19920D01*
G01X12309Y19927D01*
G01X12296Y19932D01*
G01X12281Y19935D01*
G01X12267Y19936D01*
G01X9525Y19936D01*
G01X9494Y19937D01*
G01X9465Y19941D01*
G01X9435Y19947D01*
G01X9406Y19955D01*
G01X9378Y19965D01*
G01X9350Y19978D01*
G01X9324Y19992D01*
G01X9299Y20009D01*
G01X9275Y20028D01*
G01X9253Y20048D01*
G01X8685Y20617D01*
G01X8673Y20627D01*
G01X8660Y20635D01*
G01X8646Y20641D01*
G01X8631Y20645D01*
G01X8616Y20647D01*
G01X8582Y20649D01*
G01X8547Y20653D01*
G01X8514Y20660D01*
G01X8480Y20668D01*
G01X8447Y20679D01*
G01X8415Y20692D01*
G01X8384Y20706D01*
G01X8353Y20722D01*
G01X8324Y20741D01*
G01X8296Y20761D01*
G01X8269Y20782D01*
G01X8243Y20806D01*
G01X8219Y20831D01*
G01X8197Y20857D01*
G01X8176Y20884D01*
G01X8157Y20913D01*
G01X8140Y20943D01*
G01X8125Y20974D01*
G01X8111Y21006D01*
G01X8100Y21038D01*
G01X8090Y21072D01*
G01X8083Y21105D01*
G01X8078Y21140D01*
G01X8075Y21174D01*
G01X8073Y21209D01*
G01X8075Y21244D01*
G01X8078Y21279D01*
G01X8083Y21314D01*
G01X8091Y21349D01*
G01X8101Y21383D01*
G01X8113Y21416D01*
G01X8127Y21449D01*
G01X8143Y21480D01*
G01X8162Y21511D01*
G01X8168Y21523D01*
G01X8173Y21537D01*
G01X8176Y21551D01*
G01X8177Y21565D01*
G01X8176Y21580D01*
G01X8173Y21594D01*
G01X8168Y21607D01*
G01X8161Y21620D01*
G01X8153Y21632D01*
G01X8142Y21642D01*
G01X8131Y21651D01*
G01X8118Y21658D01*
G01X8104Y21663D01*
G01X8090Y21666D01*
G01X8076Y21667D01*
G01X8064Y21666D01*
G01X8001Y21662D01*
G01X7966Y21664D01*
G01X7931Y21667D01*
G01X7897Y21672D01*
G01X7863Y21679D01*
G01X7830Y21689D01*
G01X7798Y21700D01*
G01X7766Y21714D01*
G01X7735Y21729D01*
G01X7705Y21747D01*
G01X7676Y21766D01*
G01X7648Y21787D01*
G01X7622Y21809D01*
G01X7597Y21833D01*
G01X7574Y21859D01*
G01X7552Y21886D01*
G01X7532Y21914D01*
G01X7522Y21927D01*
G01X7509Y21938D01*
G01X7495Y21947D01*
G01X7480Y21954D01*
G01X7464Y21958D01*
G01X7447Y21959D01*
G01X7432Y21958D01*
G01X7417Y21955D01*
G01X7403Y21949D01*
G01X7390Y21942D01*
G01X7378Y21932D01*
G01X7368Y21921D01*
G01X7360Y21909D01*
G01X7353Y21895D01*
G01X7348Y21881D01*
G01X7338Y21841D01*
G01X7325Y21801D01*
G01X7311Y21762D01*
G01X7294Y21724D01*
G01X7276Y21686D01*
G01X7255Y21650D01*
G01X7233Y21615D01*
G01X7209Y21581D01*
G01X7183Y21548D01*
G01X7156Y21517D01*
G01X7127Y21487D01*
G01X7096Y21459D01*
G01X7064Y21432D01*
G01X7031Y21407D01*
G01X6997Y21384D01*
G01X6961Y21362D01*
G01X6924Y21343D01*
G01X6887Y21325D01*
G01X6848Y21309D01*
G01X6809Y21296D01*
G01X6769Y21284D01*
G01X6728Y21274D01*
G01X6687Y21267D01*
G01X6646Y21262D01*
G01X6604Y21258D01*
G01X6563Y21257D01*
G01X6522Y21258D01*
G01X6481Y21261D01*
G01X6441Y21267D01*
G01X6401Y21274D01*
G01X6361Y21283D01*
G01X6321Y21294D01*
G01X6283Y21308D01*
G01X6245Y21323D01*
G01X6208Y21340D01*
G01X6171Y21359D01*
G01X6136Y21379D01*
G01X6102Y21402D01*
G01X6069Y21426D01*
G01X6037Y21452D01*
G01X6007Y21479D01*
G01X5978Y21508D01*
G01X5951Y21538D01*
G01X5925Y21570D01*
G01X5901Y21603D01*
G01X5878Y21637D01*
G01X5858Y21672D01*
G01X5839Y21709D01*
G01X5822Y21746D01*
G01X5807Y21784D01*
G01X5793Y21822D01*
G01X5782Y21862D01*
G01X5773Y21901D01*
G01X5766Y21942D01*
G01X5760Y21982D01*
G01X5757Y22023D01*
G01X5756Y22064D01*
G01X5757Y22105D01*
G01X5760Y22145D01*
G01X5766Y22186D01*
G01X5773Y22226D01*
G01X5782Y22266D01*
G01X5793Y22305D01*
G01X5807Y22344D01*
G01X5822Y22382D01*
G01X5839Y22419D01*
G01X5858Y22455D01*
G01X5878Y22490D01*
G01X5901Y22525D01*
G01X5925Y22558D01*
G01X5951Y22589D01*
G01X5978Y22620D01*
G01X6007Y22648D01*
G01X6037Y22676D01*
G01X6069Y22702D01*
G01X6102Y22726D01*
G01X6136Y22748D01*
G01X6171Y22769D01*
G01X6208Y22788D01*
G01X6245Y22805D01*
G01X6283Y22820D01*
G01X6321Y22833D01*
G01X6361Y22845D01*
G01X6401Y22854D01*
G01X6441Y22861D01*
G01X6481Y22866D01*
G01X6522Y22869D01*
G01X6563Y22870D01*
G01X6604Y22869D01*
G01X6645Y22866D01*
G01X6685Y22861D01*
G01X6726Y22854D01*
G01X6766Y22844D01*
G01X6805Y22833D01*
G01X6844Y22820D01*
G01X6882Y22805D01*
G01X6919Y22787D01*
G01X6956Y22768D01*
G01X6991Y22747D01*
G01X7025Y22725D01*
G01X7058Y22700D01*
G01X7090Y22674D01*
G01X7120Y22647D01*
G01X7149Y22618D01*
G01X7177Y22587D01*
G01X7203Y22555D01*
G01X7227Y22522D01*
G01X7249Y22488D01*
G01X7270Y22452D01*
G01X7289Y22416D01*
G01X7297Y22402D01*
G01X7307Y22389D01*
G01X7319Y22379D01*
G01X7333Y22370D01*
G01X7348Y22364D01*
G01X7364Y22360D01*
G01X7380Y22358D01*
G01X7395Y22360D01*
G01X7410Y22363D01*
G01X7425Y22369D01*
G01X7438Y22376D01*
G01X7450Y22386D01*
G01X7460Y22397D01*
G01X7469Y22410D01*
G01X7475Y22424D01*
G01X7488Y22455D01*
G01X7503Y22486D01*
G01X7520Y22515D01*
G01X7538Y22544D01*
G01X7558Y22571D01*
G01X7580Y22597D01*
G01X7603Y22622D01*
G01X7628Y22645D01*
G01X7654Y22667D01*
G01X7681Y22687D01*
G01X7710Y22706D01*
G01X7739Y22722D01*
G01X7770Y22737D01*
G01X7801Y22750D01*
G01X7833Y22761D01*
G01X7866Y22770D01*
G01X7899Y22777D01*
G01X7933Y22782D01*
G01X7967Y22786D01*
G01X8001Y22787D01*
G01X8036Y22785D01*
G01X8071Y22782D01*
G01X8105Y22777D01*
G01X8140Y22769D01*
G01X8174Y22759D01*
G01X8207Y22747D01*
G01X8239Y22733D01*
G01X8270Y22718D01*
G01X8301Y22700D01*
G01X8330Y22680D01*
G01X8358Y22659D01*
G01X8384Y22635D01*
G01X8396Y22626D01*
G01X8409Y22618D01*
G01X8423Y22613D01*
G01X8438Y22609D01*
G01X8453Y22608D01*
G01X8636Y22608D01*
G01X8666Y22607D01*
G01X8695Y22603D01*
G01X8725Y22597D01*
G01X8754Y22589D01*
G01X8782Y22579D01*
G01X8810Y22566D01*
G01X8836Y22552D01*
G01X8861Y22535D01*
G01X8885Y22516D01*
G01X8907Y22496D01*
G01X10162Y21241D01*
G01X10174Y21230D01*
G01X10187Y21222D01*
G01X10202Y21216D01*
G01X10218Y21212D01*
G01X10233Y21211D01*
G01X10452Y21211D01*
G01X10466Y21212D01*
G01X10480Y21215D01*
G01X10494Y21220D01*
G01X10507Y21227D01*
G01X10518Y21236D01*
G01X10529Y21246D01*
G01X10537Y21258D01*
G01X10544Y21270D01*
G01X10549Y21284D01*
G01X10552Y21298D01*
G01X10553Y21313D01*
G01X10552Y21329D01*
G01X10548Y21345D01*
G01X10542Y21360D01*
G01X10533Y21374D01*
G01X10522Y21386D01*
G01X10509Y21397D01*
G01X10475Y21421D01*
G01X10443Y21447D01*
G01X10412Y21474D01*
G01X10383Y21503D01*
G01X10355Y21533D01*
G01X10328Y21565D01*
G01X10303Y21598D01*
G01X10280Y21633D01*
G01X10259Y21668D01*
G01X10240Y21705D01*
G01X10222Y21742D01*
G01X10207Y21781D01*
G01X10193Y21820D01*
G01X10182Y21859D01*
G01X10172Y21900D01*
G01X10165Y21940D01*
G01X10160Y21981D01*
G01X10157Y22023D01*
G01X10156Y22064D01*
G01X10157Y22105D01*
G01X10160Y22145D01*
G01X10165Y22186D01*
G01X10172Y22226D01*
G01X10181Y22266D01*
G01X10193Y22305D01*
G01X10206Y22344D01*
G01X10221Y22382D01*
G01X10238Y22419D01*
G01X10257Y22455D01*
G01X10278Y22490D01*
G01X10300Y22525D01*
G01X10324Y22558D01*
G01X10350Y22589D01*
G01X10378Y22620D01*
G01X10406Y22648D01*
G01X10437Y22676D01*
G01X10468Y22702D01*
G01X10501Y22726D01*
G01X10535Y22748D01*
G01X10571Y22769D01*
G01X10607Y22788D01*
G01X10644Y22805D01*
G01X10682Y22820D01*
G01X10721Y22833D01*
G01X10760Y22845D01*
G01X10800Y22854D01*
G01X10840Y22861D01*
G01X10881Y22866D01*
G01X10921Y22869D01*
G01X10962Y22870D01*
G01X11003Y22869D01*
G01X11044Y22866D01*
G01X11084Y22861D01*
G01X11124Y22854D01*
G01X11164Y22845D01*
G01X11204Y22833D01*
G01X11242Y22820D01*
G01X11280Y22805D01*
G01X11317Y22788D01*
G01X11354Y22769D01*
G01X11389Y22748D01*
G01X11423Y22726D01*
G01X11456Y22702D01*
G01X11488Y22676D01*
G01X11518Y22648D01*
G01X11547Y22620D01*
G01X11574Y22589D01*
G01X11600Y22558D01*
G01X11624Y22525D01*
G01X11647Y22490D01*
G01X11667Y22455D01*
G01X11686Y22419D01*
G01X11703Y22382D01*
G01X11718Y22344D01*
G01X11732Y22305D01*
G01X11743Y22266D01*
G01X11752Y22226D01*
G01X11759Y22186D01*
G01X11765Y22145D01*
G01X11768Y22105D01*
G01X11769Y22064D01*
G01X11768Y22023D01*
G01X11764Y21981D01*
G01X11759Y21940D01*
G01X11752Y21900D01*
G01X11742Y21859D01*
G01X11731Y21820D01*
G01X11717Y21781D01*
G01X11702Y21742D01*
G01X11684Y21705D01*
G01X11665Y21668D01*
G01X11644Y21633D01*
G01X11621Y21598D01*
G01X11596Y21565D01*
G01X11570Y21533D01*
G01X11542Y21503D01*
G01X11512Y21474D01*
G01X11481Y21447D01*
G01X11449Y21421D01*
G01X11415Y21397D01*
G01X11403Y21386D01*
G01X11392Y21374D01*
G01X11383Y21360D01*
G01X11376Y21345D01*
G01X11372Y21329D01*
G01X11371Y21313D01*
G01X11372Y21298D01*
G01X11375Y21284D01*
G01X11380Y21270D01*
G01X11387Y21258D01*
G01X11396Y21246D01*
G01X11406Y21236D01*
G01X11418Y21227D01*
G01X11430Y21220D01*
G01X11444Y21215D01*
G01X11458Y21212D01*
G01X11472Y21211D01*
G01X12827Y21211D01*
G01X12857Y21210D01*
G01X12886Y21206D01*
G01X12916Y21200D01*
G01X12945Y21192D01*
G01X12973Y21182D01*
G01X13001Y21169D01*
G01X13027Y21155D01*
G01X13052Y21138D01*
G01X13076Y21119D01*
G01X13098Y21099D01*
G01X13535Y20661D01*
G01X13548Y20651D01*
G01X13561Y20642D01*
G01X13576Y20636D01*
G01X13591Y20632D01*
G01X13607Y20631D01*
G01X13622Y20632D01*
G01X13636Y20635D01*
G01X13649Y20640D01*
G01X13662Y20647D01*
G01X13674Y20656D01*
G01X13684Y20666D01*
G01X13693Y20678D01*
G01X13700Y20691D01*
G01X13705Y20704D01*
G01X13708Y20718D01*
G01X13709Y20733D01*
G01X13709Y21127D01*
G01X13708Y21143D01*
G01X13704Y21159D01*
G01X13698Y21174D01*
G01X13689Y21187D01*
G01X13679Y21199D01*
G01X11419Y23459D01*
G01X11407Y23470D01*
G01X11393Y23478D01*
G01X11379Y23484D01*
G01X11363Y23488D01*
G01X11347Y23489D01*
G01X10625Y23489D01*
G01X10602Y23490D01*
G01X10578Y23493D01*
G01X10555Y23499D01*
G01X10533Y23506D01*
G01X10511Y23516D01*
G01X10490Y23527D01*
G01X10471Y23541D01*
G01X10453Y23556D01*
G01X10436Y23573D01*
G01X10421Y23591D01*
G01X10407Y23610D01*
G01X10396Y23631D01*
G01X10386Y23653D01*
G01X10379Y23675D01*
G01X10373Y23698D01*
G01X10370Y23722D01*
G01X10369Y23746D01*
G01X10369Y24746D01*
G01X10370Y24769D01*
G01X10373Y24793D01*
G01X10379Y24816D01*
G01X10386Y24838D01*
G01X10396Y24860D01*
G01X10407Y24881D01*
G01X10421Y24900D01*
G01X10436Y24918D01*
G01X10453Y24935D01*
G01X10471Y24950D01*
G01X10490Y24964D01*
G01X10511Y24975D01*
G01X10533Y24985D01*
G01X10555Y24992D01*
G01X10578Y24998D01*
G01X10602Y25001D01*
G01X10625Y25002D01*
G01X11726Y25002D01*
G01X11749Y25001D01*
G01X11773Y24998D01*
G01X11796Y24992D01*
G01X11818Y24985D01*
G01X11840Y24975D01*
G01X11861Y24964D01*
G01X11880Y24950D01*
G01X11898Y24935D01*
G01X11915Y24918D01*
G01X11930Y24900D01*
G01X11944Y24881D01*
G01X11955Y24860D01*
G01X11965Y24838D01*
G01X11972Y24816D01*
G01X11978Y24793D01*
G01X11981Y24769D01*
G01X11982Y24746D01*
G01X11982Y24023D01*
G01X11983Y24007D01*
G01X11987Y23992D01*
G01X11993Y23977D01*
G01X12001Y23964D01*
G01X12012Y23951D01*
G01X12055Y23908D01*
G01X12068Y23897D01*
G01X12081Y23889D01*
G01X12096Y23883D01*
G01X12111Y23879D01*
G01X12127Y23878D01*
G01X18270Y23878D01*
G01X18285Y23879D01*
G01X18299Y23882D01*
G01X18312Y23887D01*
G01X18325Y23894D01*
G01X18337Y23903D01*
G01X18347Y23913D01*
G01X18356Y23925D01*
G01X18363Y23937D01*
G01X18368Y23951D01*
G01X18371Y23965D01*
G01X18372Y23980D01*
G01X18371Y23995D01*
G01X18367Y24011D01*
G01X18361Y24025D01*
G01X18353Y24039D01*
G01X18343Y24051D01*
G01X18331Y24061D01*
G01X18304Y24083D01*
G01X18278Y24106D01*
G01X18254Y24131D01*
G01X18231Y24157D01*
G01X18210Y24185D01*
G01X18191Y24214D01*
G01X18174Y24244D01*
G01X18158Y24275D01*
G01X18145Y24307D01*
G01X18133Y24340D01*
G01X18124Y24373D01*
G01X18116Y24407D01*
G01X18111Y24441D01*
G01X18108Y24476D01*
G01X18106Y24511D01*
G01X18108Y24555D01*
G01X18113Y24599D01*
G01X18122Y24643D01*
G01X18125Y24667D01*
G01X18124Y24681D01*
G01X18121Y24695D01*
G01X18116Y24709D01*
G01X18109Y24722D01*
G01X18100Y24733D01*
G01X18090Y24743D01*
G01X18078Y24752D01*
G01X18066Y24759D01*
G01X18052Y24764D01*
G01X18038Y24767D01*
G01X18023Y24768D01*
G01X17789Y24768D01*
G01X17760Y24770D01*
G01X17730Y24775D01*
G01X17702Y24784D01*
G01X17685Y24788D01*
G01X17668Y24790D01*
G01X17650Y24788D01*
G01X17633Y24784D01*
G01X17605Y24775D01*
G01X17575Y24770D01*
G01X17546Y24768D01*
G01X17508Y24768D01*
G01X17508Y25447D01*
G01X17516Y25458D01*
G01X17523Y25471D01*
G01X17529Y25485D01*
G01X17532Y25499D01*
G01X17533Y25514D01*
G01X17533Y26339D01*
G01X17532Y26354D01*
G01X17529Y26368D01*
G01X17523Y26382D01*
G01X17516Y26395D01*
G01X17508Y26406D01*
G01X17508Y27085D01*
G01X17546Y27085D01*
G01X17575Y27083D01*
G01X17605Y27078D01*
G01X17633Y27069D01*
G01X17650Y27065D01*
G01X17668Y27063D01*
G01X17685Y27065D01*
G01X17702Y27069D01*
G01X17730Y27078D01*
G01X17760Y27083D01*
G01X17789Y27085D01*
G01X18196Y27085D01*
G01X18225Y27083D01*
G01X18255Y27078D01*
G01X18283Y27069D01*
G01X18300Y27065D01*
G01X18317Y27063D01*
G01X18335Y27065D01*
G01X18352Y27069D01*
G01X18380Y27078D01*
G01X18410Y27083D01*
G01X18439Y27085D01*
G01X18846Y27085D01*
G01X18875Y27083D01*
G01X18905Y27078D01*
G01X18933Y27069D01*
G01X18950Y27065D01*
G01X18968Y27063D01*
G01X18985Y27065D01*
G01X19002Y27069D01*
G01X19030Y27078D01*
G01X19060Y27083D01*
G01X19089Y27085D01*
G01X19496Y27085D01*
G01X19525Y27083D01*
G01X19555Y27078D01*
G01X19583Y27069D01*
G01X19600Y27065D01*
G01X19618Y27063D01*
G01X19635Y27065D01*
G01X19652Y27069D01*
G01X19680Y27078D01*
G01X19710Y27083D01*
G01X19739Y27085D01*
G01X20146Y27085D01*
G01X20175Y27083D01*
G01X20205Y27078D01*
G01X20233Y27069D01*
G01X20250Y27065D01*
G01X20268Y27063D01*
G01X20285Y27065D01*
G01X20302Y27069D01*
G01X20330Y27078D01*
G01X20360Y27083D01*
G01X20389Y27085D01*
G01X20796Y27085D01*
G01X20825Y27083D01*
G01X20855Y27078D01*
G01X20883Y27069D01*
G01X20900Y27065D01*
G01X20917Y27063D01*
G01X20935Y27065D01*
G01X20952Y27069D01*
G01X20980Y27078D01*
G01X21010Y27083D01*
G01X21039Y27085D01*
G01X21446Y27085D01*
G01X21469Y27084D01*
G01X21493Y27080D01*
G01X21516Y27075D01*
G01X21538Y27067D01*
G01X21560Y27058D01*
G01X21581Y27046D01*
G01X21600Y27033D01*
G01X21619Y27018D01*
G01X21635Y27001D01*
G01X21650Y26983D01*
G01X21664Y26963D01*
G01X21675Y26943D01*
G01X21685Y26921D01*
G01X21692Y26898D01*
G01X21698Y26875D01*
G01X21701Y26852D01*
G01X21702Y26828D01*
G01X21702Y26051D01*
G01X21703Y26035D01*
G01X21707Y26020D01*
G01X21713Y26005D01*
G01X21722Y25992D01*
G01X21732Y25979D01*
G01X22233Y25478D01*
G01X22246Y25468D01*
G01X22260Y25459D01*
G01X22276Y25453D01*
G01X22293Y25449D01*
G01X22326Y25444D01*
G01X22359Y25437D01*
G01X22392Y25428D01*
G01X22424Y25417D01*
G01X22455Y25404D01*
G01X22486Y25389D01*
G01X22515Y25372D01*
G01X22544Y25354D01*
G01X22571Y25334D01*
G01X22597Y25312D01*
G01X22622Y25289D01*
G01X22645Y25264D01*
G01X22667Y25238D01*
G01X22687Y25211D01*
G01X22706Y25182D01*
G01X22722Y25153D01*
G01X22737Y25122D01*
G01X22750Y25091D01*
G01X22761Y25059D01*
G01X22770Y25026D01*
G01X22777Y24993D01*
G01X22782Y24959D01*
G01X22786Y24925D01*
G01X22787Y24892D01*
G01X22786Y24858D01*
G01X22782Y24824D01*
G01X22777Y24790D01*
G01X22770Y24757D01*
G01X22761Y24724D01*
G01X22750Y24692D01*
G01X22737Y24661D01*
G01X22722Y24630D01*
G01X22705Y24601D01*
G01X22687Y24572D01*
G01X22667Y24545D01*
G01X22645Y24519D01*
G01X22622Y24494D01*
G01X22597Y24471D01*
G01X22571Y24449D01*
G01X22544Y24429D01*
G01X22515Y24411D01*
G01X22486Y24394D01*
G01X22455Y24379D01*
G01X22424Y24366D01*
G01X22392Y24355D01*
G01X22359Y24346D01*
G01X22326Y24339D01*
G01X22292Y24334D01*
G01X22258Y24330D01*
G01X22225Y24329D01*
G01X22190Y24330D01*
G01X22157Y24334D01*
G01X22123Y24339D01*
G01X22089Y24346D01*
G01X22057Y24355D01*
G01X22025Y24366D01*
G01X21993Y24379D01*
G01X21962Y24394D01*
G01X21933Y24411D01*
G01X21904Y24430D01*
G01X21877Y24450D01*
G01X21851Y24472D01*
G01X21826Y24495D01*
G01X21803Y24520D01*
G01X21781Y24546D01*
G01X21761Y24574D01*
G01X21742Y24603D01*
G01X21726Y24632D01*
G01X21711Y24663D01*
G01X21698Y24695D01*
G01X21687Y24727D01*
G01X21682Y24740D01*
G01X21675Y24753D01*
G01X21666Y24764D01*
G01X21656Y24774D01*
G01X21644Y24783D01*
G01X21632Y24790D01*
G01X21618Y24795D01*
G01X21604Y24798D01*
G01X21590Y24799D01*
G01X21569Y24796D01*
G01X21549Y24790D01*
G01X21524Y24781D01*
G01X21498Y24774D01*
G01X21472Y24770D01*
G01X21457Y24767D01*
G01X21443Y24762D01*
G01X21430Y24756D01*
G01X21418Y24747D01*
G01X21407Y24737D01*
G01X21398Y24725D01*
G01X21391Y24712D01*
G01X21385Y24698D01*
G01X21382Y24683D01*
G01X21381Y24669D01*
G01X21382Y24653D01*
G01X21386Y24637D01*
G01X21392Y24622D01*
G01X21400Y24609D01*
G01X21411Y24597D01*
G01X22623Y23385D01*
G01X22643Y23363D01*
G01X22662Y23339D01*
G01X22679Y23314D01*
G01X22693Y23288D01*
G01X22706Y23260D01*
G01X22716Y23232D01*
G01X22724Y23203D01*
G01X22730Y23173D01*
G01X22734Y23144D01*
G01X22735Y23114D01*
G01X22735Y22507D01*
G01X22736Y22492D01*
G01X22739Y22478D01*
G01X22744Y22465D01*
G01X22751Y22452D01*
G01X22760Y22440D01*
G01X22770Y22430D01*
G01X22782Y22421D01*
G01X22794Y22414D01*
G01X22808Y22409D01*
G01X22822Y22406D01*
G01X22837Y22405D01*
G01X22853Y22406D01*
G01X22868Y22410D01*
G01X22883Y22416D01*
G01X22896Y22425D01*
G01X22908Y22435D01*
G01X23578Y23105D01*
G01X23589Y23117D01*
G01X23597Y23130D01*
G01X23603Y23145D01*
G01X23607Y23161D01*
G01X23608Y23176D01*
G01X23608Y24648D01*
G01X23609Y24672D01*
G01X23612Y24696D01*
G01X23618Y24719D01*
G01X23625Y24741D01*
G01X23635Y24763D01*
G01X23646Y24784D01*
G01X23660Y24803D01*
G01X23675Y24821D01*
G01X23692Y24838D01*
G01X23710Y24853D01*
G01X23729Y24867D01*
G01X23750Y24878D01*
G01X23772Y24888D01*
G01X23794Y24895D01*
G01X23817Y24901D01*
G01X23841Y24904D01*
G01X23865Y24905D01*
G01X25664Y24905D01*
G01X25688Y24904D01*
G01X25712Y24901D01*
G01X25735Y24895D01*
G01X25757Y24888D01*
G01X25779Y24878D01*
G01X25800Y24867D01*
G01X25819Y24853D01*
G01X25837Y24838D01*
G01X25854Y24821D01*
G01X25869Y24803D01*
G01X25883Y24784D01*
G01X25894Y24763D01*
G01X25904Y24741D01*
G01X25911Y24719D01*
G01X25917Y24696D01*
G01X25920Y24672D01*
G01X25921Y24648D01*
G01X25921Y22849D01*
G01X25920Y22825D01*
G01X25917Y22801D01*
G01X25911Y22778D01*
G01X25904Y22756D01*
G01X25894Y22734D01*
G01X25883Y22713D01*
G01X25869Y22694D01*
G01X25854Y22676D01*
G01X25837Y22659D01*
G01X25819Y22644D01*
G01X25800Y22630D01*
G01X25779Y22619D01*
G01X25757Y22609D01*
G01X25735Y22602D01*
G01X25712Y22596D01*
G01X25688Y22593D01*
G01X25664Y22592D01*
G01X24192Y22592D01*
G01X24177Y22591D01*
G01X24161Y22587D01*
G01X24146Y22581D01*
G01X24133Y22573D01*
G01X24121Y22562D01*
G01X23527Y21968D01*
G01X23516Y21956D01*
G01X23508Y21943D01*
G01X23502Y21928D01*
G01X23498Y21912D01*
G01X23497Y21897D01*
G01X23497Y21681D01*
G01X23498Y21667D01*
G01X23501Y21653D01*
G01X23506Y21639D01*
G01X23513Y21627D01*
G01X23522Y21615D01*
G01X23532Y21605D01*
G01X23544Y21596D01*
G01X23556Y21589D01*
G01X23570Y21584D01*
G01X23584Y21581D01*
G01X23599Y21580D01*
G01X23614Y21581D01*
G01X23628Y21584D01*
G01X23642Y21590D01*
G01X23655Y21597D01*
G01X23667Y21606D01*
G01X23678Y21617D01*
G01X23686Y21630D01*
G01X23693Y21643D01*
G01X23712Y21688D01*
G01X23733Y21732D01*
G01X23757Y21776D01*
G01X23781Y21818D01*
G01X23808Y21859D01*
G01X23836Y21899D01*
G01X23866Y21937D01*
G01X23898Y21975D01*
G01X23931Y22011D01*
G01X23966Y22045D01*
G01X24002Y22078D01*
G01X24040Y22110D01*
G01X24078Y22140D01*
G01X24118Y22168D01*
G01X24160Y22194D01*
G01X24202Y22219D01*
G01X24245Y22242D01*
G01X24289Y22263D01*
G01X24334Y22282D01*
G01X24380Y22299D01*
G01X24427Y22315D01*
G01X24474Y22328D01*
G01X24521Y22339D01*
G01X24570Y22349D01*
G01X24618Y22356D01*
G01X24667Y22361D01*
G01X24716Y22364D01*
G01X24765Y22365D01*
G01X24814Y22364D01*
G01X24863Y22361D01*
G01X24911Y22356D01*
G01X24960Y22348D01*
G01X25008Y22339D01*
G01X25056Y22328D01*
G01X25103Y22314D01*
G01X25150Y22299D01*
G01X25196Y22282D01*
G01X25241Y22262D01*
G01X25285Y22241D01*
G01X25329Y22218D01*
G01X25371Y22193D01*
G01X25412Y22167D01*
G01X25452Y22138D01*
G01X25491Y22108D01*
G01X25529Y22077D01*
G01X25565Y22043D01*
G01X25599Y22009D01*
G01X25633Y21973D01*
G01X25664Y21935D01*
G01X25694Y21896D01*
G01X25723Y21856D01*
G01X25749Y21815D01*
G01X25774Y21773D01*
G01X25797Y21729D01*
G01X25818Y21685D01*
G01X25838Y21640D01*
G01X25855Y21594D01*
G01X25870Y21547D01*
G01X25884Y21500D01*
G01X25895Y21452D01*
G01X25904Y21404D01*
G01X25912Y21355D01*
G01X25917Y21307D01*
G01X25920Y21258D01*
G01X25921Y21209D01*
G01X25920Y21159D01*
G01X25917Y21110D01*
G01X25912Y21062D01*
G01X25904Y21013D01*
G01X25895Y20965D01*
G01X25884Y20917D01*
G01X25870Y20870D01*
G01X25855Y20823D01*
G01X25838Y20777D01*
G01X25818Y20732D01*
G01X25797Y20688D01*
G01X25774Y20644D01*
G01X25749Y20602D01*
G01X25723Y20561D01*
G01X25694Y20521D01*
G01X25664Y20482D01*
G01X25633Y20444D01*
G01X25599Y20408D01*
G01X25565Y20374D01*
G01X25529Y20340D01*
G01X25491Y20309D01*
G01X25452Y20279D01*
G01X25412Y20250D01*
G01X25371Y20224D01*
G01X25329Y20199D01*
G01X25285Y20176D01*
G01X25241Y20155D01*
G01X25196Y20135D01*
G01X25150Y20118D01*
G01X25103Y20103D01*
G01X25056Y20089D01*
G01X25008Y20078D01*
G01X24960Y20069D01*
G01X24911Y20061D01*
G01X24863Y20056D01*
G01X24814Y20053D01*
G01X24765Y20052D01*
G01X24716Y20053D01*
G01X24667Y20056D01*
G01X24618Y20061D01*
G01X24570Y20068D01*
G01X24521Y20078D01*
G01X24474Y20089D01*
G01X24427Y20102D01*
G01X24380Y20118D01*
G01X24334Y20135D01*
G01X24289Y20154D01*
G01X24245Y20175D01*
G01X24202Y20198D01*
G01X24160Y20223D01*
G01X24118Y20249D01*
G01X24078Y20277D01*
G01X24040Y20307D01*
G01X24002Y20339D01*
G01X23966Y20372D01*
G01X23931Y20406D01*
G01X23898Y20442D01*
G01X23866Y20480D01*
G01X23836Y20518D01*
G01X23808Y20558D01*
G01X23781Y20599D01*
G01X23757Y20641D01*
G01X23733Y20685D01*
G01X23712Y20729D01*
G01X23693Y20774D01*
G01X23686Y20787D01*
G01X23678Y20800D01*
G01X23667Y20811D01*
G01X23655Y20820D01*
G01X23642Y20827D01*
G01X23628Y20833D01*
G01X23614Y20836D01*
G01X23599Y20837D01*
G01X23584Y20836D01*
G01X23570Y20833D01*
G01X23556Y20828D01*
G01X23544Y20821D01*
G01X23532Y20812D01*
G01X23522Y20802D01*
G01X23513Y20790D01*
G01X23506Y20778D01*
G01X23501Y20764D01*
G01X23498Y20750D01*
G01X23497Y20736D01*
G01X23497Y19141D01*
G01X23498Y19127D01*
G01X23501Y19113D01*
G01X23506Y19099D01*
G01X23513Y19087D01*
G01X23522Y19075D01*
G01X23532Y19065D01*
G01X23544Y19056D01*
G01X23556Y19049D01*
G01X23570Y19044D01*
G01X23584Y19041D01*
G01X23599Y19040D01*
G01X23614Y19041D01*
G01X23628Y19044D01*
G01X23642Y19050D01*
G01X23655Y19057D01*
G01X23667Y19066D01*
G01X23678Y19077D01*
G01X23686Y19090D01*
G01X23693Y19103D01*
G01X23712Y19148D01*
G01X23733Y19192D01*
G01X23757Y19236D01*
G01X23781Y19278D01*
G01X23808Y19319D01*
G01X23836Y19359D01*
G01X23866Y19397D01*
G01X23898Y19435D01*
G01X23931Y19471D01*
G01X23966Y19505D01*
G01X24002Y19538D01*
G01X24040Y19570D01*
G01X24078Y19600D01*
G01X24118Y19628D01*
G01X24160Y19654D01*
G01X24202Y19679D01*
G01X24245Y19702D01*
G01X24289Y19723D01*
G01X24334Y19742D01*
G01X24380Y19759D01*
G01X24427Y19775D01*
G01X24474Y19788D01*
G01X24521Y19799D01*
G01X24570Y19809D01*
G01X24618Y19816D01*
G01X24667Y19821D01*
G01X24716Y19824D01*
G01X24765Y19825D01*
G01X24814Y19824D01*
G01X24863Y19821D01*
G01X24911Y19816D01*
G01X24960Y19808D01*
G01X25008Y19799D01*
G01X25056Y19788D01*
G01X25103Y19774D01*
G01X25150Y19759D01*
G01X25196Y19742D01*
G01X25241Y19722D01*
G01X25285Y19701D01*
G01X25329Y19678D01*
G01X25371Y19653D01*
G01X25412Y19627D01*
G01X25452Y19598D01*
G01X25491Y19568D01*
G01X25529Y19537D01*
G01X25565Y19503D01*
G01X25599Y19469D01*
G01X25633Y19433D01*
G01X25664Y19395D01*
G01X25694Y19356D01*
G01X25723Y19316D01*
G01X25749Y19275D01*
G01X25774Y19233D01*
G01X25797Y19189D01*
G01X25818Y19145D01*
G01X25838Y19100D01*
G01X25855Y19054D01*
G01X25870Y19007D01*
G01X25884Y18960D01*
G01X25895Y18912D01*
G01X25904Y18864D01*
G01X25912Y18815D01*
G01X25917Y18767D01*
G01X25920Y18718D01*
G01X25921Y18669D01*
G01X25920Y18619D01*
G01X25917Y18570D01*
G01X25912Y18521D01*
G01X25904Y18472D01*
G01X25895Y18424D01*
G01X25883Y18376D01*
G01X25870Y18329D01*
G01X25855Y18282D01*
G01X25837Y18236D01*
G01X25818Y18191D01*
G01X25796Y18146D01*
G01X25773Y18103D01*
G01X25748Y18060D01*
G01X25721Y18019D01*
G01X25693Y17979D01*
G01X25663Y17940D01*
G01X25631Y17902D01*
G01X25598Y17866D01*
G01X25563Y17831D01*
G01X25526Y17798D01*
G01X25489Y17767D01*
G01X25449Y17737D01*
G01X25409Y17708D01*
G01X25368Y17682D01*
G01X25325Y17657D01*
G01X25282Y17634D01*
G01X25237Y17613D01*
G01X25192Y17594D01*
G01X25146Y17577D01*
G01X25099Y17561D01*
G01X25051Y17548D01*
G01X25003Y17537D01*
G01X24955Y17528D01*
G01X24940Y17524D01*
G01X24925Y17518D01*
G01X24912Y17510D01*
G01X24900Y17499D01*
G01X24849Y17449D01*
G01X24281Y16880D01*
G01X24270Y16868D01*
G01X24262Y16855D01*
G01X24256Y16840D01*
G01X24252Y16824D01*
G01X24251Y16809D01*
G01X24251Y16642D01*
G01X24084Y16642D01*
G01X24069Y16641D01*
G01X24053Y16637D01*
G01X24038Y16631D01*
G01X24025Y16623D01*
G01X24013Y16612D01*
G01X23444Y16044D01*
G01X23223Y15823D01*
G01X23213Y15811D01*
G01X23205Y15797D01*
G01X23199Y15783D01*
G01X23195Y15767D01*
G01X23194Y15751D01*
G01X23195Y15735D01*
G01X23199Y15720D01*
G01X23205Y15705D01*
G01X23213Y15692D01*
G01X23223Y15680D01*
G01X23235Y15669D01*
G01X23254Y15654D01*
G01X23271Y15637D01*
G01X23286Y15619D01*
G01X23300Y15599D01*
G01X23312Y15578D01*
G01X23322Y15556D01*
G01X23330Y15534D01*
G01X23335Y15510D01*
G01X23339Y15487D01*
G01X23340Y15463D01*
G01X23340Y14762D01*
G01X23339Y14739D01*
G01X23335Y14715D01*
G01X23330Y14692D01*
G01X23322Y14670D01*
G01X23313Y14648D01*
G01X23301Y14627D01*
G01X23288Y14608D01*
G01X23273Y14590D01*
G01X23256Y14573D01*
G01X23238Y14558D01*
G01X23218Y14544D01*
G01X23198Y14533D01*
G01X23176Y14523D01*
G01X23153Y14516D01*
G01X23130Y14510D01*
G01X23107Y14507D01*
G01X23083Y14506D01*
G01X21833Y14506D01*
G01X21810Y14507D01*
G01X21786Y14510D01*
G01X21763Y14516D01*
G01X21741Y14523D01*
G01X21719Y14533D01*
G01X21698Y14544D01*
G01X21679Y14558D01*
G01X21660Y14573D01*
G01X21644Y14590D01*
G01X21628Y14608D01*
G01X21615Y14627D01*
G01X21604Y14648D01*
G01X21594Y14670D01*
G01X21586Y14692D01*
G01X21581Y14715D01*
G01X21578Y14739D01*
G01X21577Y14762D01*
G01X21577Y14820D01*
G01X21576Y14834D01*
G01X21573Y14849D01*
G01X21561Y14875D01*
G01X21552Y14886D01*
G01X21542Y14897D01*
G01X21530Y14905D01*
G01X21517Y14912D01*
G01X21504Y14917D01*
G01X21490Y14921D01*
G01X21475Y14922D01*
G01X21459Y14920D01*
G01X21444Y14917D01*
G01X21429Y14910D01*
G01X21415Y14902D01*
G01X21403Y14892D01*
G01X20870Y14359D01*
G01X20860Y14347D01*
G01X20851Y14333D01*
G01X20845Y14318D01*
G01X20842Y14303D01*
G01X20840Y14287D01*
G01X20840Y13813D01*
G01X20839Y13789D01*
G01X20836Y13767D01*
G01X20831Y13744D01*
G01X20824Y13722D01*
G01X20815Y13701D01*
G01X20804Y13681D01*
G01X20791Y13662D01*
G01X20777Y13644D01*
G01X20761Y13627D01*
G01X20750Y13615D01*
G01X20741Y13601D01*
G01X20735Y13586D01*
G01X20731Y13570D01*
G01X20729Y13553D01*
G01X20730Y13539D01*
G01X20733Y13504D01*
G01X20733Y12403D01*
G01X20732Y12380D01*
G01X20729Y12356D01*
G01X20723Y12333D01*
G01X20716Y12311D01*
G01X20706Y12289D01*
G01X20694Y12268D01*
G01X20681Y12249D01*
G01X20666Y12231D01*
G01X20649Y12214D01*
G01X20631Y12199D01*
G01X20611Y12185D01*
G01X20591Y12174D01*
G01X20569Y12164D01*
G01X20547Y12157D01*
G01X20524Y12151D01*
G01X20500Y12148D01*
G01X20476Y12147D01*
G01X19476Y12147D01*
G01X19453Y12148D01*
G01X19430Y12151D01*
G01X19408Y12156D01*
G01X19386Y12163D01*
G01X19365Y12173D01*
G01X19344Y12184D01*
G01X19325Y12196D01*
G01X19307Y12211D01*
G01X19290Y12227D01*
G01X19275Y12244D01*
G01X19262Y12263D01*
G01X19253Y12275D01*
G01X19243Y12285D01*
G01X19231Y12293D01*
G01X19218Y12300D01*
G01X19205Y12305D01*
G01X19191Y12308D01*
G01X19176Y12309D01*
G01X19162Y12308D01*
G01X19148Y12305D01*
G01X19135Y12300D01*
G01X19122Y12293D01*
G01X19110Y12285D01*
G01X19100Y12275D01*
G01X19091Y12263D01*
G01X19078Y12244D01*
G01X19063Y12227D01*
G01X19046Y12211D01*
G01X19028Y12196D01*
G01X19009Y12184D01*
G01X18988Y12173D01*
G01X18967Y12163D01*
G01X18945Y12156D01*
G01X18923Y12151D01*
G01X18900Y12148D01*
G01X18877Y12147D01*
G01X18154Y12147D01*
G01X18139Y12146D01*
G01X18123Y12142D01*
G01X18108Y12136D01*
G01X18095Y12128D01*
G01X18083Y12117D01*
G01X17654Y11689D01*
G01X17644Y11677D01*
G01X17636Y11663D01*
G01X17630Y11649D01*
G01X17626Y11633D01*
G01X17625Y11617D01*
G01X17625Y11146D01*
G01X17624Y11123D01*
G01X17621Y11100D01*
G01X17615Y11077D01*
G01X17608Y11055D01*
G01X17599Y11034D01*
G01X17588Y11014D01*
G01X17576Y10995D01*
G01X17561Y10977D01*
G01X17552Y10965D01*
G01X17545Y10952D01*
G01X17540Y10939D01*
G01X17537Y10924D01*
G01X17536Y10910D01*
G01X17537Y10893D01*
G01X17541Y10878D01*
G01X17548Y10863D01*
G01X17556Y10849D01*
G01X17567Y10837D01*
G01X17580Y10826D01*
G01X17594Y10818D01*
G01X17615Y10807D01*
G01X17635Y10793D01*
G01X17654Y10778D01*
G01X17671Y10761D01*
G01X17687Y10743D01*
G01X17700Y10723D01*
G01X17712Y10702D01*
G01X17722Y10681D01*
G01X17730Y10658D01*
G01X17736Y10634D01*
G01X17739Y10611D01*
G01X17740Y10586D01*
G01X17740Y10010D01*
G01X17741Y9995D01*
G01X17744Y9981D01*
G01X17749Y9967D01*
G01X17756Y9955D01*
G01X17765Y9943D01*
G01X17775Y9933D01*
G01X17787Y9924D01*
G01X17799Y9917D01*
G01X17813Y9912D01*
G01X17827Y9909D01*
G01X17842Y9908D01*
G01X19045Y9908D01*
G01X19077Y9907D01*
G01X19109Y9903D01*
G01X19140Y9896D01*
G01X19165Y9893D01*
G01X19883Y9893D01*
G01X19907Y9892D01*
G01X19931Y9889D01*
G01X19954Y9883D01*
G01X19976Y9876D01*
G01X19998Y9866D01*
G01X20019Y9855D01*
G01X20038Y9841D01*
G01X20056Y9826D01*
G01X20073Y9809D01*
G01X20088Y9791D01*
G01X20102Y9772D01*
G01X20113Y9751D01*
G01X20123Y9729D01*
G01X20130Y9707D01*
G01X20136Y9684D01*
G01X20139Y9660D01*
G01X20140Y9636D01*
G01X20140Y9036D01*
G01X20139Y9011D01*
G01X20135Y8987D01*
G01X20129Y8962D01*
G01X20121Y8939D01*
G01X20110Y8916D01*
G01X20097Y8895D01*
G01X20082Y8874D01*
G01X20066Y8856D01*
G01X20047Y8839D01*
G01X20027Y8824D01*
G01X20014Y8814D01*
G01X20003Y8801D01*
G01X19994Y8787D01*
G01X19988Y8772D01*
G01X19984Y8756D01*
G01X19982Y8740D01*
G01X19983Y8725D01*
G01X19986Y8711D01*
G01X19991Y8697D01*
G01X19998Y8685D01*
G01X20007Y8673D01*
G01X20017Y8663D01*
G01X20029Y8654D01*
G01X20042Y8647D01*
G01X20055Y8642D01*
G01X20069Y8639D01*
G01X20084Y8638D01*
G01X20300Y8638D01*
G01X20315Y8639D01*
G01X20329Y8642D01*
G01X20342Y8647D01*
G01X20355Y8654D01*
G01X20367Y8663D01*
G01X20377Y8673D01*
G01X20386Y8685D01*
G01X20393Y8697D01*
G01X20398Y8711D01*
G01X20401Y8725D01*
G01X20402Y8740D01*
G01X20402Y8997D01*
G01X20403Y9021D01*
G01X20406Y9045D01*
G01X20412Y9068D01*
G01X20419Y9090D01*
G01X20429Y9112D01*
G01X20440Y9133D01*
G01X20454Y9152D01*
G01X20469Y9170D01*
G01X20486Y9187D01*
G01X20504Y9202D01*
G01X20523Y9216D01*
G01X20544Y9227D01*
G01X20566Y9237D01*
G01X20588Y9244D01*
G01X20611Y9250D01*
G01X20635Y9253D01*
G01X20658Y9254D01*
G01X21381Y9254D01*
G01X21397Y9255D01*
G01X21412Y9259D01*
G01X21427Y9265D01*
G01X21440Y9273D01*
G01X21453Y9284D01*
G01X21536Y9368D01*
G01X21547Y9380D01*
G01X21555Y9393D01*
G01X21561Y9408D01*
G01X21565Y9423D01*
G01X21566Y9439D01*
G01X21565Y9455D01*
G01X21561Y9470D01*
G01X21555Y9485D01*
G01X21547Y9499D01*
G01X21547Y9984D01*
G01X22111Y9984D01*
G01X22127Y9985D01*
G01X22142Y9989D01*
G01X22157Y9995D01*
G01X22170Y10003D01*
G01X22182Y10014D01*
G01X22188Y10020D01*
G01X22446Y10277D01*
G01X22457Y10290D01*
G01X22465Y10303D01*
G01X22471Y10318D01*
G01X22475Y10333D01*
G01X22476Y10349D01*
G01X22476Y12501D01*
G01X22475Y12516D01*
G01X22471Y12531D01*
G01X22466Y12545D01*
G01X22458Y12558D01*
G01X22449Y12570D01*
G01X22425Y12596D01*
G01X22404Y12624D01*
G01X22384Y12653D01*
G01X22366Y12684D01*
G01X22351Y12715D01*
G01X22337Y12747D01*
G01X22325Y12780D01*
G01X22315Y12814D01*
G01X22307Y12849D01*
G01X22302Y12883D01*
G01X22299Y12918D01*
G01X22297Y12954D01*
G01X22298Y12987D01*
G01X22302Y13021D01*
G01X22307Y13055D01*
G01X22314Y13088D01*
G01X22323Y13121D01*
G01X22334Y13153D01*
G01X22347Y13184D01*
G01X22362Y13215D01*
G01X22379Y13244D01*
G01X22397Y13273D01*
G01X22417Y13300D01*
G01X22439Y13326D01*
G01X22462Y13351D01*
G01X22487Y13374D01*
G01X22513Y13396D01*
G01X22540Y13416D01*
G01X22569Y13434D01*
G01X22598Y13451D01*
G01X22629Y13466D01*
G01X22660Y13479D01*
G01X22692Y13490D01*
G01X22725Y13499D01*
G01X22758Y13506D01*
G01X22792Y13511D01*
G01X22826Y13515D01*
G01X22860Y13516D01*
G01X22893Y13515D01*
G01X22927Y13511D01*
G01X22961Y13506D01*
G01X22994Y13499D01*
G01X23027Y13490D01*
G01X23059Y13479D01*
G01X23090Y13466D01*
G01X23121Y13451D01*
G01X23150Y13434D01*
G01X23179Y13416D01*
G01X23206Y13396D01*
G01X23232Y13374D01*
G01X23257Y13351D01*
G01X23280Y13326D01*
G01X23302Y13300D01*
G01X23322Y13273D01*
G01X23340Y13244D01*
G01X23357Y13215D01*
G01X23372Y13184D01*
G01X23385Y13153D01*
G01X23396Y13121D01*
G01X23405Y13088D01*
G01X23412Y13055D01*
G01X23417Y13021D01*
G01X23421Y12987D01*
G01X23422Y12954D01*
G01X23420Y12918D01*
G01X23417Y12883D01*
G01X23412Y12849D01*
G01X23404Y12814D01*
G01X23394Y12780D01*
G01X23382Y12747D01*
G01X23368Y12715D01*
G01X23353Y12684D01*
G01X23335Y12653D01*
G01X23315Y12624D01*
G01X23294Y12596D01*
G01X23270Y12570D01*
G01X23261Y12558D01*
G01X23253Y12545D01*
G01X23248Y12531D01*
G01X23244Y12516D01*
G01X23243Y12501D01*
G01X23243Y10148D01*
G01X23242Y10118D01*
G01X23238Y10088D01*
G01X23232Y10059D01*
G01X23224Y10030D01*
G01X23214Y10002D01*
G01X23201Y9974D01*
G01X23187Y9948D01*
G01X23170Y9923D01*
G01X23151Y9899D01*
G01X23131Y9877D01*
G01X22045Y8791D01*
G01X22034Y8779D01*
G01X22026Y8765D01*
G01X22020Y8751D01*
G01X22016Y8735D01*
G01X22015Y8719D01*
G01X22015Y7997D01*
G01X22014Y7974D01*
G01X22011Y7950D01*
G01X22005Y7927D01*
G01X21998Y7905D01*
G01X21988Y7883D01*
G01X21977Y7862D01*
G01X21963Y7843D01*
G01X21948Y7825D01*
G01X21931Y7808D01*
G01X21913Y7793D01*
G01X21893Y7779D01*
G01X21873Y7768D01*
G01X21851Y7758D01*
G01X21829Y7751D01*
G01X21806Y7745D01*
G01X21782Y7742D01*
G01X21758Y7741D01*
G01X20658Y7741D01*
G01X20633Y7742D01*
G01X20609Y7746D01*
G01X20584Y7752D01*
G01X20561Y7760D01*
G01X20538Y7771D01*
G01X20516Y7784D01*
G01X20496Y7799D01*
G01X20478Y7816D01*
G01X20461Y7834D01*
G01X20450Y7845D01*
G01X20439Y7854D01*
G01X20426Y7861D01*
G01X20412Y7867D01*
G01X20397Y7870D01*
G01X20382Y7871D01*
G01X15471Y7871D01*
G01X15456Y7870D01*
G01X15442Y7867D01*
G01X15428Y7862D01*
G01X15416Y7855D01*
G01X15404Y7846D01*
G01X15394Y7836D01*
G01X15385Y7824D01*
G01X15378Y7812D01*
G01X15373Y7798D01*
G01X15370Y7784D01*
G01X15369Y7769D01*
G01X15369Y7494D01*
G01X15370Y7478D01*
G01X15374Y7463D01*
G01X15380Y7449D01*
G01X15388Y7435D01*
G01X15398Y7423D01*
G01X15410Y7413D01*
G01X15423Y7404D01*
G01X15438Y7398D01*
G01X15453Y7394D01*
G01X15476Y7389D01*
G01X15499Y7382D01*
G01X15521Y7372D01*
G01X15542Y7361D01*
G01X15562Y7347D01*
G01X15580Y7332D01*
G01X15597Y7315D01*
G01X15612Y7297D01*
G01X15626Y7277D01*
G01X15638Y7257D01*
G01X15647Y7235D01*
G01X15655Y7212D01*
G01X15661Y7189D01*
G01X15664Y7165D01*
G01X15665Y7141D01*
G01X15665Y6327D01*
G01X15666Y6312D01*
G01X15669Y6298D01*
G01X15674Y6284D01*
G01X15681Y6272D01*
G01X15690Y6260D01*
G01X15700Y6250D01*
G01X15712Y6241D01*
G01X15724Y6234D01*
G01X15738Y6229D01*
G01X15752Y6226D01*
G01X15767Y6225D01*
G01X17013Y6225D01*
G01X17044Y6224D01*
G01X17073Y6220D01*
G01X17103Y6214D01*
G01X17132Y6206D01*
G01X17160Y6196D01*
G01X17188Y6183D01*
G01X17214Y6169D01*
G01X17239Y6152D01*
G01X17263Y6133D01*
G01X17285Y6113D01*
G01X17646Y5752D01*
G01X17658Y5741D01*
G01X17671Y5733D01*
G01X17686Y5727D01*
G01X17701Y5723D01*
G01X17717Y5722D01*
G01X17732Y5723D01*
G01X17747Y5727D01*
G01X17761Y5732D01*
G01X17775Y5740D01*
G01X17786Y5749D01*
G01X17797Y5760D01*
G01X17805Y5773D01*
G01X17812Y5786D01*
G01X17816Y5801D01*
G01X17819Y5816D01*
G01X18337Y5816D01*
G01X18337Y5473D01*
G01X18170Y5473D01*
G01X18155Y5472D01*
G01X18141Y5469D01*
G01X18127Y5464D01*
G01X18115Y5457D01*
G01X18103Y5448D01*
G01X18093Y5438D01*
G01X18084Y5426D01*
G01X18077Y5414D01*
G01X18072Y5400D01*
G01X18069Y5386D01*
G01X18068Y5371D01*
G01X18069Y5355D01*
G01X18073Y5340D01*
G01X18079Y5325D01*
G01X18087Y5312D01*
G01X18098Y5300D01*
G01X18682Y4716D01*
G01X18694Y4705D01*
G01X18707Y4697D01*
G01X18722Y4691D01*
G01X18738Y4687D01*
G01X18753Y4686D01*
G01X19375Y4686D01*
G01X19399Y4685D01*
G01X19423Y4682D01*
G01X19446Y4676D01*
G01X19468Y4669D01*
G01X19490Y4659D01*
G01X19511Y4648D01*
G01X19530Y4634D01*
G01X19548Y4619D01*
G01X19565Y4602D01*
G01X19580Y4584D01*
G01X19594Y4565D01*
G01X19605Y4544D01*
G01X19615Y4522D01*
G01X19622Y4500D01*
G01X19628Y4477D01*
G01X19631Y4453D01*
G01X19632Y4429D01*
G01X19632Y3829D01*
G01X19631Y3806D01*
G01X19628Y3782D01*
G01X19622Y3759D01*
G01X19615Y3737D01*
G01X19605Y3715D01*
G01X19594Y3694D01*
G01X19580Y3675D01*
G01X19565Y3657D01*
G01X19548Y3640D01*
G01X19530Y3625D01*
G01X19511Y3611D01*
G01X19490Y3600D01*
G01X19468Y3590D01*
G01X19446Y3583D01*
G01X19423Y3577D01*
G01X19399Y3574D01*
G01X19375Y3573D01*
G01X18075Y3573D01*
G01X18052Y3574D01*
G01X18028Y3577D01*
G01X18005Y3583D01*
G01X17983Y3590D01*
G01X17961Y3600D01*
G01X17940Y3611D01*
G01X17921Y3625D01*
G01X17903Y3640D01*
G01X17886Y3657D01*
G01X17871Y3675D01*
G01X17857Y3694D01*
G01X17846Y3715D01*
G01X17836Y3737D01*
G01X17829Y3759D01*
G01X17823Y3782D01*
G01X17820Y3806D01*
G01X17819Y3829D01*
G01X17819Y4445D01*
G01X17820Y4451D01*
G01X17818Y4467D01*
G01X17815Y4482D01*
G01X17809Y4497D01*
G01X17800Y4511D01*
G01X17790Y4523D01*
G01X17405Y4907D01*
G01X17393Y4917D01*
G01X17380Y4926D01*
G01X17365Y4932D01*
G01X17350Y4936D01*
G01X17334Y4937D01*
G01X17319Y4936D01*
G01X17305Y4933D01*
G01X17291Y4928D01*
G01X17279Y4921D01*
G01X17267Y4912D01*
G01X17257Y4902D01*
G01X17248Y4890D01*
G01X17241Y4877D01*
G01X17236Y4864D01*
G01X17233Y4850D01*
G01X17232Y4835D01*
G01X17232Y4780D01*
G01X17231Y4756D01*
G01X17228Y4732D01*
G01X17222Y4709D01*
G01X17215Y4687D01*
G01X17205Y4665D01*
G01X17194Y4644D01*
G01X17180Y4625D01*
G01X17165Y4607D01*
G01X17148Y4590D01*
G01X17130Y4575D01*
G01X17111Y4561D01*
G01X17090Y4550D01*
G01X17068Y4540D01*
G01X17046Y4533D01*
G01X17023Y4527D01*
G01X16999Y4524D01*
G01X16975Y4523D01*
G01X15746Y4523D01*
G01X15730Y4522D01*
G01X15715Y4518D01*
G01X15701Y4512D01*
G01X15687Y4504D01*
G01X15675Y4494D01*
G01X15665Y4483D01*
G01X15657Y4470D01*
G01X15650Y4455D01*
G01X15640Y4431D01*
G01X15627Y4407D01*
G01X15612Y4385D01*
G01X15594Y4365D01*
G01X15585Y4353D01*
G01X15577Y4339D01*
G01X15571Y4325D01*
G01X15567Y4310D01*
G01X15566Y4295D01*
G01X15567Y4280D01*
G01X15570Y4266D01*
G01X15575Y4252D01*
G01X15582Y4240D01*
G01X15591Y4228D01*
G01X15601Y4218D01*
G01X15613Y4209D01*
G01X15626Y4202D01*
G01X15639Y4197D01*
G01X15653Y4194D01*
G01X15668Y4193D01*
G01X16637Y4193D01*
G01X16670Y4192D01*
G01X16703Y4189D01*
G01X16736Y4183D01*
G01X16769Y4176D01*
G01X16801Y4166D01*
G01X16832Y4154D01*
G01X16862Y4140D01*
G01X16892Y4125D01*
G01X16920Y4107D01*
G01X16947Y4088D01*
G01X16973Y4066D01*
G01X16998Y4044D01*
G01X17744Y3297D01*
G01X17756Y3286D01*
G01X17770Y3278D01*
G01X17785Y3272D01*
G01X17800Y3268D01*
G01X17816Y3267D01*
G01X17844Y3271D01*
G01X17896Y3284D01*
G01X17948Y3295D01*
G01X18001Y3304D01*
G01X18054Y3310D01*
G01X18107Y3314D01*
G01X18161Y3315D01*
G01X18210Y3314D01*
G01X18259Y3311D01*
G01X18307Y3306D01*
G01X18356Y3298D01*
G01X18404Y3289D01*
G01X18452Y3278D01*
G01X18499Y3264D01*
G01X18546Y3249D01*
G01X18592Y3232D01*
G01X18637Y3212D01*
G01X18681Y3191D01*
G01X18725Y3168D01*
G01X18767Y3143D01*
G01X18808Y3117D01*
G01X18848Y3088D01*
G01X18887Y3058D01*
G01X18925Y3027D01*
G01X18961Y2993D01*
G01X18995Y2959D01*
G01X19029Y2923D01*
G01X19060Y2885D01*
G01X19090Y2846D01*
G01X19119Y2806D01*
G01X19145Y2765D01*
G01X19170Y2723D01*
G01X19193Y2679D01*
G01X19214Y2635D01*
G01X19234Y2590D01*
G01X19251Y2544D01*
G01X19266Y2497D01*
G01X19280Y2450D01*
G01X19291Y2402D01*
G01X19300Y2354D01*
G01X19308Y2305D01*
G01X19313Y2257D01*
G01X19316Y2208D01*
G01X19317Y2159D01*
G01X19316Y2109D01*
G01X19313Y2060D01*
G01X19308Y2012D01*
G01X19300Y1963D01*
G01X19291Y1915D01*
G01X19280Y1867D01*
G01X19266Y1820D01*
G01X19251Y1773D01*
G01X19234Y1727D01*
G01X19214Y1682D01*
G01X19193Y1638D01*
G01X19170Y1594D01*
G01X19145Y1552D01*
G01X19119Y1511D01*
G01X19090Y1471D01*
G01X19060Y1432D01*
G01X19029Y1394D01*
G01X18995Y1358D01*
G01X18961Y1324D01*
G01X18925Y1290D01*
G01X18887Y1259D01*
G01X18848Y1229D01*
G01X18808Y1200D01*
G01X18767Y1174D01*
G01X18725Y1149D01*
G01X18681Y1126D01*
G01X18637Y1105D01*
G01X18592Y1085D01*
G01X18546Y1068D01*
G01X18499Y1053D01*
G01X18452Y1039D01*
G01X18404Y1028D01*
G01X18356Y1019D01*
G01X18307Y1011D01*
G01X18259Y1006D01*
G01X18210Y1003D01*
G01X18161Y1002D01*
G01X18111Y1003D01*
G01X18062Y1006D01*
G01X18014Y1011D01*
G01X17965Y1019D01*
G01X17917Y1028D01*
G01X17869Y1039D01*
G01X17822Y1053D01*
G01X17775Y1068D01*
G01X17729Y1085D01*
G01X17684Y1105D01*
G01X17640Y1126D01*
G01X17596Y1149D01*
G01X17554Y1174D01*
G01X17513Y1200D01*
G01X17473Y1229D01*
G01X17434Y1259D01*
G01X17396Y1290D01*
G01X17360Y1324D01*
G01X17326Y1358D01*
G01X17292Y1394D01*
G01X17261Y1432D01*
G01X17231Y1471D01*
G01X17202Y1511D01*
G01X17176Y1552D01*
G01X17151Y1594D01*
G01X17128Y1638D01*
G01X17107Y1682D01*
G01X17087Y1727D01*
G01X17070Y1773D01*
G01X17055Y1820D01*
G01X17041Y1867D01*
G01X17030Y1915D01*
G01X17021Y1963D01*
G01X17013Y2012D01*
G01X17008Y2060D01*
G01X17005Y2109D01*
G01X17004Y2159D01*
G01X17005Y2212D01*
G01X17009Y2265D01*
G01X17015Y2318D01*
G01X17024Y2371D01*
G01X17035Y2423D01*
G01X17048Y2475D01*
G01X17052Y2503D01*
G01X17051Y2519D01*
G01X17047Y2534D01*
G01X17041Y2549D01*
G01X17033Y2563D01*
G01X17022Y2575D01*
G01X16831Y2766D01*
G01X16818Y2777D01*
G01X16805Y2785D01*
G01X16790Y2791D01*
G01X16775Y2795D01*
G01X16759Y2796D01*
G01X16744Y2795D01*
G01X16730Y2792D01*
G01X16717Y2787D01*
G01X16704Y2780D01*
G01X16692Y2771D01*
G01X16682Y2761D01*
G01X16673Y2750D01*
G01X16666Y2737D01*
G01X16661Y2723D01*
G01X16658Y2709D01*
G01X16657Y2695D01*
G01X16658Y2680D01*
G01X16661Y2665D01*
G01X16667Y2651D01*
G01X16687Y2605D01*
G01X16706Y2557D01*
G01X16723Y2509D01*
G01X16737Y2460D01*
G01X16749Y2411D01*
G01X16759Y2361D01*
G01X16767Y2311D01*
G01X16773Y2260D01*
G01X16776Y2209D01*
G01X16777Y2159D01*
G01X16776Y2109D01*
G01X16773Y2060D01*
G01X16768Y2012D01*
G01X16760Y1963D01*
G01X16751Y1915D01*
G01X16740Y1867D01*
G01X16726Y1820D01*
G01X16711Y1773D01*
G01X16694Y1727D01*
G01X16674Y1682D01*
G01X16653Y1638D01*
G01X16630Y1594D01*
G01X16605Y1552D01*
G01X16579Y1511D01*
G01X16550Y1471D01*
G01X16520Y1432D01*
G01X16489Y1394D01*
G01X16455Y1358D01*
G01X16421Y1324D01*
G01X16385Y1290D01*
G01X16347Y1259D01*
G01X16308Y1229D01*
G01X16268Y1200D01*
G01X16227Y1174D01*
G01X16185Y1149D01*
G01X16141Y1126D01*
G01X16097Y1105D01*
G01X16052Y1085D01*
G01X16006Y1068D01*
G01X15959Y1053D01*
G01X15912Y1039D01*
G01X15864Y1028D01*
G01X15816Y1019D01*
G01X15767Y1011D01*
G01X15719Y1006D01*
G01X15670Y1003D01*
G01X15621Y1002D01*
G01X15571Y1003D01*
G01X15522Y1006D01*
G01X15474Y1011D01*
G01X15425Y1019D01*
G01X15377Y1028D01*
G01X15329Y1039D01*
G01X15282Y1053D01*
G01X15235Y1068D01*
G01X15189Y1085D01*
G01X15144Y1105D01*
G01X15100Y1126D01*
G01X15056Y1149D01*
G01X15014Y1174D01*
G01X14973Y1200D01*
G01X14933Y1229D01*
G01X14894Y1259D01*
G01X14856Y1290D01*
G01X14820Y1324D01*
G01X14786Y1358D01*
G01X14752Y1394D01*
G01X14721Y1432D01*
G01X14691Y1471D01*
G01X14662Y1511D01*
G01X14636Y1552D01*
G01X14611Y1594D01*
G01X14588Y1638D01*
G01X14567Y1682D01*
G01X14547Y1727D01*
G01X14530Y1773D01*
G01X14515Y1820D01*
G01X14501Y1867D01*
G01X14490Y1915D01*
G01X14481Y1963D01*
G01X14473Y2012D01*
G01X14468Y2060D01*
G01X14465Y2109D01*
G01X14464Y2159D01*
G01X14465Y2208D01*
G01X14468Y2257D01*
G01X14473Y2306D01*
G01X14481Y2355D01*
G01X14490Y2403D01*
G01X14502Y2451D01*
G01X14515Y2499D01*
G01X14531Y2546D01*
G01X14548Y2592D01*
G01X14568Y2637D01*
G01X14589Y2682D01*
G01X14612Y2725D01*
G01X14637Y2768D01*
G01X14664Y2809D01*
G01X14693Y2849D01*
G01X14723Y2888D01*
G01X14755Y2926D01*
G01X14789Y2962D01*
G01X14824Y2997D01*
G01X14835Y3009D01*
G01X14843Y3023D01*
G01X14850Y3038D01*
G01X14854Y3054D01*
G01X14855Y3070D01*
G01X14854Y3085D01*
G01X14851Y3099D01*
G01X14846Y3113D01*
G01X14839Y3125D01*
G01X14830Y3137D01*
G01X14820Y3147D01*
G01X14809Y3156D01*
G01X14796Y3163D01*
G01X14782Y3168D01*
G01X14768Y3171D01*
G01X14754Y3172D01*
G01X14084Y3172D01*
G01X14070Y3171D01*
G01X14056Y3168D01*
G01X14042Y3163D01*
G01X14030Y3156D01*
G01X14018Y3147D01*
G01X14008Y3137D01*
G01X13999Y3125D01*
G01X13992Y3113D01*
G01X13987Y3099D01*
G01X13984Y3085D01*
G01X13983Y3070D01*
G01X13983Y1259D01*
G01X13982Y1235D01*
G01X13979Y1211D01*
G01X13973Y1188D01*
G01X13966Y1166D01*
G01X13956Y1144D01*
G01X13945Y1123D01*
G01X13931Y1104D01*
G01X13916Y1086D01*
G01X13899Y1069D01*
G01X13881Y1054D01*
G01X13862Y1040D01*
G01X13841Y1029D01*
G01X13819Y1019D01*
G01X13797Y1012D01*
G01X13774Y1006D01*
G01X13750Y1003D01*
G01X13726Y1002D01*
G01X11927Y1002D01*
G01X11903Y1003D01*
G01X11879Y1006D01*
G01X11856Y1012D01*
G01X11834Y1019D01*
G01X11812Y1029D01*
G01X11791Y1040D01*
G01X11772Y1054D01*
G01X11754Y1069D01*
G01X11737Y1086D01*
G01X11722Y1104D01*
G01X11708Y1123D01*
G01X11697Y1144D01*
G01X11687Y1166D01*
G01X11680Y1188D01*
G01X11674Y1211D01*
G01X11671Y1235D01*
G01X11670Y1259D01*
G01X11670Y2551D01*
G01X11669Y2567D01*
G01X11665Y2582D01*
G01X11659Y2597D01*
G01X11651Y2611D01*
G01X11640Y2623D01*
G01X11497Y2766D01*
G01X11484Y2777D01*
G01X11471Y2785D01*
G01X11456Y2791D01*
G01X11441Y2795D01*
G01X11425Y2796D01*
G01X11410Y2795D01*
G01X11396Y2792D01*
G01X11383Y2787D01*
G01X11370Y2780D01*
G01X11358Y2771D01*
G01X11348Y2761D01*
G01X11339Y2750D01*
G01X11332Y2737D01*
G01X11327Y2723D01*
G01X11324Y2709D01*
G01X11323Y2695D01*
G01X11324Y2680D01*
G01X11327Y2665D01*
G01X11333Y2651D01*
G01X11353Y2605D01*
G01X11372Y2557D01*
G01X11389Y2509D01*
G01X11403Y2460D01*
G01X11415Y2411D01*
G01X11425Y2361D01*
G01X11433Y2311D01*
G01X11439Y2260D01*
G01X11442Y2209D01*
G01X11443Y2159D01*
G01X11442Y2109D01*
G01X11439Y2060D01*
G01X11434Y2012D01*
G01X11426Y1963D01*
G01X11417Y1915D01*
G01X11406Y1867D01*
G01X11392Y1820D01*
G01X11377Y1773D01*
G01X11360Y1727D01*
G01X11340Y1682D01*
G01X11319Y1638D01*
G01X11296Y1594D01*
G01X11271Y1552D01*
G01X11245Y1511D01*
G01X11216Y1471D01*
G01X11186Y1432D01*
G01X11155Y1394D01*
G01X11121Y1358D01*
G01X11087Y1324D01*
G01X11051Y1290D01*
G01X11013Y1259D01*
G01X10974Y1229D01*
G01X10934Y1200D01*
G01X10893Y1174D01*
G01X10851Y1149D01*
G01X10807Y1126D01*
G01X10763Y1105D01*
G01X10718Y1085D01*
G01X10672Y1068D01*
G01X10625Y1053D01*
G01X10578Y1039D01*
G01X10530Y1028D01*
G01X10482Y1019D01*
G01X10433Y1011D01*
G01X10385Y1006D01*
G01X10336Y1003D01*
G01X10287Y1002D01*
G01X10237Y1003D01*
G01X10188Y1006D01*
G01X10140Y1011D01*
G01X10091Y1019D01*
G01X10043Y1028D01*
G01X9995Y1039D01*
G01X9948Y1053D01*
G01X9901Y1068D01*
G01X9855Y1085D01*
G01X9810Y1105D01*
G01X9766Y1126D01*
G01X9722Y1149D01*
G01X9680Y1174D01*
G01X9639Y1200D01*
G01X9599Y1229D01*
G01X9560Y1259D01*
G01X9522Y1290D01*
G01X9486Y1324D01*
G01X9452Y1358D01*
G01X9418Y1394D01*
G01X9387Y1432D01*
G01X9357Y1471D01*
G01X9328Y1511D01*
G01X9302Y1552D01*
G01X9277Y1594D01*
G01X9254Y1638D01*
G01X9233Y1682D01*
G01X9213Y1727D01*
G01X9196Y1773D01*
G01X9181Y1820D01*
G01X9167Y1867D01*
G01X9156Y1915D01*
G01X9147Y1963D01*
G01X9139Y2012D01*
G01X9134Y2060D01*
G01X9131Y2109D01*
G01X9130Y2159D01*
G01X9131Y2212D01*
G01X9135Y2265D01*
G01X9141Y2318D01*
G01X9150Y2371D01*
G01X9161Y2423D01*
G01X9174Y2475D01*
G01X9178Y2503D01*
G01X9177Y2519D01*
G01X9173Y2534D01*
G01X9167Y2549D01*
G01X9159Y2563D01*
G01X9148Y2575D01*
G01X8957Y2766D01*
G01X8944Y2777D01*
G01X8931Y2785D01*
G01X8916Y2791D01*
G01X8901Y2795D01*
G01X8885Y2796D01*
G01X8870Y2795D01*
G01X8856Y2792D01*
G01X8843Y2787D01*
G01X8830Y2780D01*
G01X8818Y2771D01*
G01X8808Y2761D01*
G01X8799Y2750D01*
G01X8792Y2737D01*
G01X8787Y2723D01*
G01X8784Y2709D01*
G01X8783Y2695D01*
G01X8784Y2680D01*
G01X8787Y2665D01*
G01X8793Y2651D01*
G01X8813Y2605D01*
G01X8832Y2557D01*
G01X8849Y2509D01*
G01X8863Y2460D01*
G01X8875Y2411D01*
G01X8885Y2361D01*
G01X8893Y2311D01*
G01X8899Y2260D01*
G01X8902Y2209D01*
G01X8903Y2159D01*
G01X8902Y2109D01*
G01X8899Y2060D01*
G01X8894Y2012D01*
G01X8886Y1963D01*
G01X8877Y1915D01*
G01X8866Y1867D01*
G01X8852Y1820D01*
G01X8837Y1773D01*
G01X8820Y1727D01*
G01X8800Y1682D01*
G01X8779Y1638D01*
G01X8756Y1594D01*
G01X8731Y1552D01*
G01X8705Y1511D01*
G01X8676Y1471D01*
G01X8646Y1432D01*
G01X8615Y1394D01*
G01X8581Y1358D01*
G01X8547Y1324D01*
G01X8511Y1290D01*
G01X8473Y1259D01*
G01X8434Y1229D01*
G01X8394Y1200D01*
G01X8353Y1174D01*
G01X8311Y1149D01*
G01X8267Y1126D01*
G01X8223Y1105D01*
G01X8178Y1085D01*
G01X8132Y1068D01*
G01X8085Y1053D01*
G01X8038Y1039D01*
G01X7990Y1028D01*
G01X7942Y1019D01*
G01X7893Y1011D01*
G01X7845Y1006D01*
G01X7796Y1003D01*
G01X7747Y1002D01*
G01X7697Y1003D01*
G01X7648Y1006D01*
G01X7600Y1011D01*
G01X7551Y1019D01*
G01X7503Y1028D01*
G01X7455Y1039D01*
G01X7408Y1053D01*
G01X7361Y1068D01*
G01X7315Y1085D01*
G01X7270Y1105D01*
G01X7226Y1126D01*
G01X7182Y1149D01*
G01X7140Y1174D01*
G01X7099Y1200D01*
G01X7059Y1229D01*
G01X7020Y1259D01*
G01X6982Y1290D01*
G01X6946Y1324D01*
G01X6912Y1358D01*
G01X6878Y1394D01*
G01X6847Y1432D01*
G01X6817Y1471D01*
G01X6788Y1511D01*
G01X6762Y1552D01*
G01X6737Y1594D01*
G01X6714Y1638D01*
G01X6693Y1682D01*
G01X6673Y1727D01*
G01X6656Y1773D01*
G01X6641Y1820D01*
G01X6627Y1867D01*
G01X6616Y1915D01*
G01X6607Y1963D01*
G01X6599Y2012D01*
G01X6594Y2060D01*
G01X6591Y2109D01*
G01X6590Y2159D01*
G01X6591Y2208D01*
G01X6594Y2257D01*
G01X6599Y2306D01*
G01X6607Y2354D01*
G01X6616Y2402D01*
G01X6627Y2450D01*
G01X6641Y2498D01*
G01X6656Y2544D01*
G01X6674Y2590D01*
G01X6693Y2635D01*
G01X6714Y2680D01*
G01X6737Y2723D01*
G01X6762Y2766D01*
G01X6789Y2807D01*
G01X6817Y2847D01*
G01X6847Y2886D01*
G01X6879Y2923D01*
G01X6912Y2960D01*
G01X6947Y2994D01*
G01X6983Y3027D01*
G01X7021Y3059D01*
G01X7060Y3089D01*
G01X7100Y3117D01*
G01X7141Y3144D01*
G01X7184Y3169D01*
G01X7197Y3177D01*
G01X7208Y3188D01*
G01X7218Y3200D01*
G01X7226Y3213D01*
G01X7231Y3227D01*
G01X7235Y3242D01*
G01X7236Y3258D01*
G01X7236Y3302D01*
G01X7235Y3318D01*
G01X7231Y3333D01*
G01X7225Y3348D01*
G01X7217Y3362D01*
G01X7206Y3374D01*
G01X6623Y3956D01*
G01X6601Y3980D01*
G01X6581Y4005D01*
G01X6561Y4032D01*
G01X6544Y4059D01*
G01X6529Y4088D01*
G01X6515Y4117D01*
G01X6503Y4148D01*
G01X6493Y4179D01*
G01X6485Y4210D01*
G01X6480Y4242D01*
G01X6476Y4275D01*
G01X6473Y4290D01*
G01X6469Y4304D01*
G01X6462Y4318D01*
G01X6454Y4330D01*
G01X6443Y4341D01*
G01X6431Y4350D01*
G01X6418Y4358D01*
G01X6404Y4363D01*
G01X6390Y4367D01*
G01X6375Y4368D01*
G01X6355Y4366D01*
G01X6336Y4360D01*
G01X6312Y4351D01*
G01X6287Y4345D01*
G01X6262Y4342D01*
G01X6237Y4340D01*
G01X5948Y4340D01*
G01X5933Y4339D01*
G01X5919Y4336D01*
G01X5905Y4331D01*
G01X5893Y4324D01*
G01X5881Y4316D01*
G01X5871Y4305D01*
G01X5862Y4294D01*
G01X5855Y4281D01*
G01X5850Y4267D01*
G01X5847Y4253D01*
G01X5846Y4239D01*
G01X5846Y3175D01*
G01X5847Y3159D01*
G01X5851Y3144D01*
G01X5857Y3129D01*
G01X5865Y3116D01*
G01X5876Y3103D01*
G01X5888Y3093D01*
G01X5927Y3063D01*
G01X5965Y3031D01*
G01X6002Y2998D01*
G01X6037Y2963D01*
G01X6071Y2927D01*
G01X6103Y2890D01*
G01X6133Y2851D01*
G01X6162Y2810D01*
G01X6189Y2769D01*
G01X6214Y2726D01*
G01X6237Y2683D01*
G01X6259Y2638D01*
G01X6278Y2593D01*
G01X6296Y2547D01*
G01X6312Y2500D01*
G01X6325Y2452D01*
G01X6337Y2404D01*
G01X6346Y2355D01*
G01X6354Y2306D01*
G01X6359Y2257D01*
G01X6362Y2208D01*
G01X6363Y2159D01*
G01X6362Y2109D01*
G01X6359Y2060D01*
G01X6354Y2012D01*
G01X6346Y1963D01*
G01X6337Y1915D01*
G01X6326Y1867D01*
G01X6312Y1820D01*
G01X6297Y1773D01*
G01X6280Y1727D01*
G01X6260Y1682D01*
G01X6239Y1638D01*
G01X6216Y1594D01*
G01X6191Y1552D01*
G01X6165Y1511D01*
G01X6136Y1471D01*
G01X6106Y1432D01*
G01X6075Y1394D01*
G01X6041Y1358D01*
G01X6007Y1324D01*
G01X5971Y1290D01*
G01X5933Y1259D01*
G01X5894Y1229D01*
G01X5854Y1200D01*
G01X5813Y1174D01*
G01X5771Y1149D01*
G01X5727Y1126D01*
G01X5683Y1105D01*
G01X5638Y1085D01*
G01X5592Y1068D01*
G01X5545Y1053D01*
G01X5498Y1039D01*
G01X5450Y1028D01*
G01X5402Y1019D01*
G01X5353Y1011D01*
G01X5305Y1006D01*
G01X5256Y1003D01*
G01X5207Y1002D01*
G01X5157Y1003D01*
G01X5107Y1006D01*
G01X5058Y1012D01*
G01X5009Y1019D01*
G01X4961Y1028D01*
G01X4912Y1040D01*
G01X4865Y1054D01*
G01X4818Y1069D01*
G01X4771Y1087D01*
G01X4726Y1107D01*
G01X4681Y1128D01*
G01X4637Y1152D01*
G01X4595Y1177D01*
G01X4553Y1204D01*
G01X4513Y1233D01*
G01X4474Y1264D01*
G01X4436Y1296D01*
G01X4400Y1330D01*
G01X4365Y1365D01*
G01X4332Y1402D01*
G01X4300Y1440D01*
G01X4270Y1479D01*
G01X4242Y1520D01*
G01X4216Y1562D01*
G01X4191Y1605D01*
G01X4168Y1649D01*
G01X4147Y1694D01*
G01X4128Y1740D01*
G01X4111Y1786D01*
G01X4097Y1834D01*
G01X4085Y1860D01*
G01X4076Y1872D01*
G01X4066Y1882D01*
G01X4054Y1891D01*
G01X4028Y1903D01*
G01X4013Y1906D01*
G01X3999Y1907D01*
G01X3983Y1905D01*
G01X3968Y1902D01*
G01X3954Y1896D01*
G01X3940Y1888D01*
G01X3928Y1878D01*
G01X3918Y1867D01*
G01X3910Y1853D01*
G01X3903Y1839D01*
G01X3899Y1824D01*
G01X3887Y1765D01*
G01X3872Y1705D01*
G01X3856Y1647D01*
G01X3837Y1589D01*
G01X3816Y1531D01*
G01X3794Y1475D01*
G01X3769Y1419D01*
G01X3743Y1364D01*
G01X3715Y1310D01*
G01X3685Y1257D01*
G01X3653Y1205D01*
G01X3619Y1154D01*
G01X3584Y1105D01*
G01X3547Y1056D01*
G01X3508Y1009D01*
G01X3467Y963D01*
G01X3426Y919D01*
G01X3382Y876D01*
G01X3337Y835D01*
G01X3291Y795D01*
G01X3244Y757D01*
G01X3195Y721D01*
G01X3145Y686D01*
G01X3094Y653D01*
G01X3041Y621D01*
G01X2988Y592D01*
G01X2934Y564D01*
G01X2878Y539D01*
G01X2822Y515D01*
G01X2765Y493D01*
G01X2708Y473D01*
G01X2649Y455D01*
G01X2636Y450D01*
G01X2623Y443D01*
G01X2611Y435D01*
G01X2601Y424D01*
G01X2592Y413D01*
G01X2585Y400D01*
G01X2580Y386D01*
G01X2577Y372D01*
G01X2576Y358D01*
G01X2577Y343D01*
G01X2580Y329D01*
G01X2585Y315D01*
G01X2592Y303D01*
G01X2601Y291D01*
G01X2611Y281D01*
G01X2623Y272D01*
G01X2635Y265D01*
G01X2649Y260D01*
G01X2663Y257D01*
G01X2677Y256D01*
G01X23992Y256D01*
G01X24006Y257D01*
G01X24020Y260D01*
G01X24034Y265D01*
G01X24046Y272D01*
G01X24058Y281D01*
G01X24068Y291D01*
G01X24077Y303D01*
G01X24084Y315D01*
G01X24089Y329D01*
G01X24092Y343D01*
G01X24093Y358D01*
G01X24092Y372D01*
G01X24089Y386D01*
G01X24084Y400D01*
G01X24077Y413D01*
G01X24068Y424D01*
G01X24058Y435D01*
G01X24046Y443D01*
G01X24033Y450D01*
G01X24020Y455D01*
G01X23962Y473D01*
G01X23905Y492D01*
G01X23849Y514D01*
G01X23794Y537D01*
G01X23739Y563D01*
G01X23685Y590D01*
G01X23632Y619D01*
G01X23581Y649D01*
G01X23530Y682D01*
G01X23480Y716D01*
G01X23432Y752D01*
G01X23385Y789D01*
G01X23339Y828D01*
G01X23295Y869D01*
G01X23252Y911D01*
G01X23210Y954D01*
G01X23170Y999D01*
G01X23131Y1045D01*
G01X23094Y1093D01*
G01X23059Y1141D01*
G01X23025Y1191D01*
G01X22993Y1242D01*
G01X22963Y1294D01*
G01X22934Y1347D01*
G01X22908Y1401D01*
G01X22883Y1456D01*
G01X22860Y1512D01*
G01X22839Y1568D01*
G01X22820Y1625D01*
G01X22803Y1683D01*
G01X22788Y1741D01*
G01X22775Y1800D01*
G01X22763Y1859D01*
G01X22754Y1918D01*
G01X22747Y1978D01*
G01X22742Y2038D01*
G01X22739Y2098D01*
G01X22738Y2159D01*
G01X22739Y2219D01*
G01X22742Y2279D01*
G01X22747Y2340D01*
G01X22754Y2400D01*
G01X22764Y2460D01*
G01X22775Y2519D01*
G01X22788Y2578D01*
G01X22804Y2637D01*
G01X22821Y2695D01*
G01X22840Y2752D01*
G01X22862Y2809D01*
G01X22885Y2865D01*
G01X22910Y2920D01*
G01X22937Y2974D01*
G01X22965Y3027D01*
G01X22996Y3079D01*
G01X23028Y3131D01*
G01X23062Y3181D01*
G01X23098Y3230D01*
G01X23136Y3277D01*
G01X23175Y3323D01*
G01X23215Y3368D01*
G01X23257Y3412D01*
G01X23301Y3454D01*
G01X23346Y3494D01*
G01X23392Y3533D01*
G01X23439Y3571D01*
G01X23488Y3607D01*
G01X23538Y3641D01*
G01X23590Y3673D01*
G01X23642Y3704D01*
G01X23695Y3732D01*
G01X23749Y3759D01*
G01X23804Y3784D01*
G01X23860Y3807D01*
G01X23917Y3829D01*
G01X23974Y3848D01*
G01X24032Y3865D01*
G01X24091Y3881D01*
G01X24150Y3894D01*
G01X24209Y3905D01*
G01X24269Y3915D01*
G01X24329Y3922D01*
G01X24390Y3927D01*
G01X24450Y3930D01*
G01X24511Y3931D01*
G01X24571Y3930D01*
G01X24631Y3927D01*
G01X24691Y3922D01*
G01X24751Y3915D01*
G01X24810Y3906D01*
G01X24869Y3894D01*
G01X24928Y3881D01*
G01X24986Y3866D01*
G01X25044Y3849D01*
G01X25101Y3830D01*
G01X25157Y3809D01*
G01X25213Y3786D01*
G01X25268Y3761D01*
G01X25322Y3735D01*
G01X25375Y3706D01*
G01X25427Y3676D01*
G01X25478Y3644D01*
G01X25528Y3610D01*
G01X25576Y3575D01*
G01X25624Y3538D01*
G01X25670Y3499D01*
G01X25715Y3459D01*
G01X25758Y3417D01*
G01X25800Y3374D01*
G01X25841Y3330D01*
G01X25880Y3284D01*
G01X25917Y3237D01*
G01X25953Y3189D01*
G01X25987Y3139D01*
G01X26020Y3088D01*
G01X26050Y3037D01*
G01X26079Y2984D01*
G01X26106Y2930D01*
G01X26132Y2875D01*
G01X26155Y2820D01*
G01X26177Y2764D01*
G01X26196Y2707D01*
G01X26214Y2649D01*
G01X26219Y2636D01*
G01X26226Y2623D01*
G01X26234Y2611D01*
G01X26245Y2601D01*
G01X26256Y2592D01*
G01X26269Y2585D01*
G01X26283Y2580D01*
G01X26297Y2577D01*
G01X26311Y2576D01*
G01X26326Y2577D01*
G01X26340Y2580D01*
G01X26354Y2585D01*
G01X26366Y2592D01*
G01X26378Y2601D01*
G01X26388Y2611D01*
G01X26397Y2623D01*
G01X26404Y2635D01*
G01X26409Y2649D01*
G01X26412Y2663D01*
G01X26413Y2677D01*
G01X26413Y27138D01*
G01X26412Y27154D01*
G01X26408Y27169D01*
G01X26402Y27184D01*
G01X26394Y27198D01*
G01X26383Y27210D01*
G01X26321Y27272D01*
G01X26309Y27283D01*
G01X26295Y27291D01*
G01X26280Y27297D01*
G01X26265Y27301D01*
G01X26249Y27302D01*
G37*

%LPC*%
G36*
G01X1954Y14744D02*
G01X1905Y14745D01*
G01X1855Y14744D01*
G01X1806Y14741D01*
G01X1758Y14736D01*
G01X1709Y14728D01*
G01X1661Y14719D01*
G01X1613Y14708D01*
G01X1566Y14694D01*
G01X1519Y14679D01*
G01X1473Y14662D01*
G01X1428Y14642D01*
G01X1384Y14621D01*
G01X1340Y14598D01*
G01X1298Y14573D01*
G01X1257Y14547D01*
G01X1217Y14518D01*
G01X1178Y14488D01*
G01X1140Y14457D01*
G01X1104Y14423D01*
G01X1070Y14389D01*
G01X1036Y14353D01*
G01X1005Y14315D01*
G01X975Y14276D01*
G01X946Y14236D01*
G01X920Y14195D01*
G01X895Y14153D01*
G01X872Y14109D01*
G01X851Y14065D01*
G01X831Y14020D01*
G01X814Y13974D01*
G01X799Y13927D01*
G01X785Y13880D01*
G01X774Y13832D01*
G01X765Y13784D01*
G01X757Y13735D01*
G01X752Y13687D01*
G01X749Y13638D01*
G01X748Y13589D01*
G01X749Y13539D01*
G01X752Y13490D01*
G01X757Y13442D01*
G01X765Y13393D01*
G01X774Y13345D01*
G01X785Y13297D01*
G01X799Y13250D01*
G01X814Y13203D01*
G01X831Y13157D01*
G01X851Y13112D01*
G01X872Y13068D01*
G01X895Y13024D01*
G01X920Y12982D01*
G01X946Y12941D01*
G01X975Y12901D01*
G01X1005Y12862D01*
G01X1036Y12824D01*
G01X1070Y12788D01*
G01X1104Y12754D01*
G01X1140Y12720D01*
G01X1178Y12689D01*
G01X1217Y12659D01*
G01X1257Y12630D01*
G01X1298Y12604D01*
G01X1340Y12579D01*
G01X1384Y12556D01*
G01X1428Y12535D01*
G01X1473Y12515D01*
G01X1519Y12498D01*
G01X1566Y12483D01*
G01X1613Y12469D01*
G01X1661Y12458D01*
G01X1709Y12449D01*
G01X1758Y12441D01*
G01X1806Y12436D01*
G01X1855Y12433D01*
G01X1905Y12432D01*
G01X1955Y12433D01*
G01X2004Y12436D01*
G01X2054Y12442D01*
G01X2104Y12449D01*
G01X2153Y12459D01*
G01X2201Y12471D01*
G01X2250Y12485D01*
G01X2297Y12501D01*
G01X2344Y12519D01*
G01X2363Y12524D01*
G01X2382Y12526D01*
G01X2398Y12525D01*
G01X2414Y12521D01*
G01X2428Y12515D01*
G01X2442Y12507D01*
G01X2454Y12496D01*
G01X3015Y11935D01*
G01X3026Y11923D01*
G01X3034Y11910D01*
G01X3040Y11895D01*
G01X3044Y11879D01*
G01X3045Y11864D01*
G01X3045Y11758D01*
G01X3044Y11744D01*
G01X3041Y11730D01*
G01X3036Y11716D01*
G01X3029Y11703D01*
G01X3020Y11692D01*
G01X3010Y11681D01*
G01X2998Y11673D01*
G01X2986Y11666D01*
G01X2972Y11661D01*
G01X2958Y11658D01*
G01X2943Y11657D01*
G01X2927Y11658D01*
G01X2911Y11662D01*
G01X2896Y11668D01*
G01X2882Y11677D01*
G01X2870Y11688D01*
G01X2859Y11701D01*
G01X2831Y11741D01*
G01X2801Y11779D01*
G01X2769Y11816D01*
G01X2736Y11852D01*
G01X2702Y11887D01*
G01X2628Y11951D01*
G01X2589Y11981D01*
G01X2549Y12009D01*
G01X2508Y12035D01*
G01X2466Y12060D01*
G01X2423Y12082D01*
G01X2379Y12103D01*
G01X2334Y12122D01*
G01X2288Y12140D01*
G01X2241Y12155D01*
G01X2194Y12168D01*
G01X2147Y12179D01*
G01X2099Y12189D01*
G01X2051Y12196D01*
G01X2002Y12201D01*
G01X1953Y12204D01*
G01X1905Y12205D01*
G01X1855Y12204D01*
G01X1806Y12201D01*
G01X1758Y12196D01*
G01X1709Y12188D01*
G01X1661Y12179D01*
G01X1613Y12168D01*
G01X1566Y12154D01*
G01X1519Y12139D01*
G01X1473Y12122D01*
G01X1428Y12102D01*
G01X1384Y12081D01*
G01X1340Y12058D01*
G01X1298Y12033D01*
G01X1257Y12007D01*
G01X1217Y11978D01*
G01X1178Y11948D01*
G01X1140Y11917D01*
G01X1104Y11883D01*
G01X1070Y11849D01*
G01X1036Y11813D01*
G01X1005Y11775D01*
G01X975Y11736D01*
G01X946Y11696D01*
G01X920Y11655D01*
G01X895Y11613D01*
G01X872Y11569D01*
G01X851Y11525D01*
G01X831Y11480D01*
G01X814Y11434D01*
G01X799Y11387D01*
G01X785Y11340D01*
G01X774Y11292D01*
G01X765Y11244D01*
G01X757Y11195D01*
G01X752Y11147D01*
G01X749Y11098D01*
G01X748Y11049D01*
G01X749Y10999D01*
G01X752Y10950D01*
G01X757Y10902D01*
G01X765Y10853D01*
G01X774Y10805D01*
G01X785Y10757D01*
G01X799Y10710D01*
G01X814Y10663D01*
G01X831Y10617D01*
G01X851Y10572D01*
G01X872Y10528D01*
G01X895Y10484D01*
G01X920Y10442D01*
G01X946Y10401D01*
G01X975Y10361D01*
G01X1005Y10322D01*
G01X1036Y10284D01*
G01X1070Y10248D01*
G01X1104Y10214D01*
G01X1140Y10180D01*
G01X1178Y10149D01*
G01X1217Y10119D01*
G01X1257Y10090D01*
G01X1298Y10064D01*
G01X1340Y10039D01*
G01X1384Y10016D01*
G01X1428Y9995D01*
G01X1473Y9975D01*
G01X1519Y9958D01*
G01X1566Y9943D01*
G01X1613Y9929D01*
G01X1661Y9918D01*
G01X1709Y9909D01*
G01X1758Y9901D01*
G01X1806Y9896D01*
G01X1855Y9893D01*
G01X1905Y9892D01*
G01X1955Y9893D01*
G01X2006Y9896D01*
G01X2056Y9902D01*
G01X2106Y9910D01*
G01X2156Y9920D01*
G01X2205Y9932D01*
G01X2253Y9946D01*
G01X2301Y9962D01*
G01X2348Y9981D01*
G01X2395Y10001D01*
G01X2440Y10023D01*
G01X2484Y10048D01*
G01X2528Y10074D01*
G01X2570Y10102D01*
G01X2610Y10132D01*
G01X2650Y10164D01*
G01X2688Y10197D01*
G01X2724Y10233D01*
G01X2759Y10269D01*
G01X2771Y10281D01*
G01X2786Y10290D01*
G01X2801Y10297D01*
G01X2817Y10301D01*
G01X2834Y10302D01*
G01X2849Y10301D01*
G01X2863Y10298D01*
G01X2876Y10293D01*
G01X2889Y10286D01*
G01X2901Y10278D01*
G01X2911Y10267D01*
G01X2920Y10256D01*
G01X2927Y10243D01*
G01X2932Y10229D01*
G01X2935Y10215D01*
G01X2936Y10201D01*
G01X2935Y10185D01*
G01X2931Y10170D01*
G01X2925Y10156D01*
G01X2910Y10122D01*
G01X2897Y10087D01*
G01X2886Y10052D01*
G01X2877Y10016D01*
G01X2871Y9979D01*
G01X2868Y9942D01*
G01X2866Y9906D01*
G01X2867Y9872D01*
G01X2871Y9838D01*
G01X2876Y9804D01*
G01X2883Y9771D01*
G01X2892Y9738D01*
G01X2903Y9706D01*
G01X2916Y9675D01*
G01X2931Y9644D01*
G01X2948Y9615D01*
G01X2966Y9586D01*
G01X2986Y9559D01*
G01X3008Y9533D01*
G01X3031Y9508D01*
G01X3056Y9485D01*
G01X3082Y9463D01*
G01X3109Y9443D01*
G01X3138Y9425D01*
G01X3167Y9408D01*
G01X3198Y9393D01*
G01X3229Y9380D01*
G01X3261Y9369D01*
G01X3294Y9360D01*
G01X3327Y9353D01*
G01X3361Y9348D01*
G01X3395Y9344D01*
G01X3429Y9343D01*
G01X3463Y9345D01*
G01X3498Y9348D01*
G01X3532Y9353D01*
G01X3566Y9361D01*
G01X3600Y9370D01*
G01X3632Y9382D01*
G01X3664Y9395D01*
G01X3695Y9411D01*
G01X3725Y9428D01*
G01X3754Y9448D01*
G01X3782Y9469D01*
G01X3808Y9491D01*
G01X3833Y9516D01*
G01X3857Y9541D01*
G01X3878Y9568D01*
G01X3898Y9597D01*
G01X3916Y9627D01*
G01X3933Y9657D01*
G01X3947Y9689D01*
G01X3960Y9721D01*
G01X3970Y9755D01*
G01X3978Y9788D01*
G01X3983Y9803D01*
G01X3989Y9817D01*
G01X3998Y9830D01*
G01X4009Y9842D01*
G01X4021Y9851D01*
G01X4035Y9859D01*
G01X4022Y9869D01*
G01X4012Y9880D01*
G01X4003Y9893D01*
G01X3996Y9907D01*
G01X3992Y9922D01*
G01X3990Y9938D01*
G01X3985Y9984D01*
G01X3977Y10030D01*
G01X3967Y10066D01*
G01X3955Y10101D01*
G01X3941Y10135D01*
G01X3925Y10169D01*
G01X3907Y10201D01*
G01X3886Y10232D01*
G01X3864Y10261D01*
G01X3839Y10289D01*
G01X3830Y10301D01*
G01X3822Y10314D01*
G01X3817Y10328D01*
G01X3813Y10343D01*
G01X3812Y10358D01*
G01X3812Y12065D01*
G01X3811Y12095D01*
G01X3807Y12124D01*
G01X3801Y12154D01*
G01X3793Y12183D01*
G01X3783Y12211D01*
G01X3770Y12239D01*
G01X3756Y12265D01*
G01X3739Y12290D01*
G01X3720Y12314D01*
G01X3700Y12336D01*
G01X2997Y13039D01*
G01X2986Y13051D01*
G01X2978Y13065D01*
G01X2972Y13079D01*
G01X2968Y13095D01*
G01X2967Y13111D01*
G01X2969Y13130D01*
G01X2974Y13149D01*
G01X2992Y13196D01*
G01X3008Y13243D01*
G01X3022Y13292D01*
G01X3034Y13340D01*
G01X3044Y13389D01*
G01X3051Y13439D01*
G01X3057Y13489D01*
G01X3060Y13538D01*
G01X3061Y13589D01*
G01X3060Y13638D01*
G01X3057Y13687D01*
G01X3052Y13735D01*
G01X3044Y13784D01*
G01X3035Y13832D01*
G01X3024Y13880D01*
G01X3010Y13927D01*
G01X2995Y13974D01*
G01X2978Y14020D01*
G01X2958Y14065D01*
G01X2937Y14109D01*
G01X2914Y14153D01*
G01X2889Y14195D01*
G01X2863Y14236D01*
G01X2834Y14276D01*
G01X2804Y14315D01*
G01X2773Y14353D01*
G01X2739Y14389D01*
G01X2705Y14423D01*
G01X2669Y14457D01*
G01X2631Y14488D01*
G01X2592Y14518D01*
G01X2552Y14547D01*
G01X2511Y14573D01*
G01X2469Y14598D01*
G01X2425Y14621D01*
G01X2381Y14642D01*
G01X2336Y14662D01*
G01X2290Y14679D01*
G01X2243Y14694D01*
G01X2196Y14708D01*
G01X2148Y14719D01*
G01X2100Y14728D01*
G01X2051Y14736D01*
G01X2003Y14741D01*
G01X1954Y14744D01*
G37*
G36*
G01X12996Y27085D02*
G01X12589Y27085D01*
G01X12566Y27084D01*
G01X12542Y27080D01*
G01X12519Y27075D01*
G01X12497Y27067D01*
G01X12475Y27058D01*
G01X12454Y27046D01*
G01X12435Y27033D01*
G01X12416Y27018D01*
G01X12400Y27001D01*
G01X12385Y26983D01*
G01X12371Y26963D01*
G01X12360Y26943D01*
G01X12350Y26921D01*
G01X12343Y26898D01*
G01X12337Y26875D01*
G01X12334Y26852D01*
G01X12333Y26828D01*
G01X12333Y25025D01*
G01X12334Y25001D01*
G01X12337Y24978D01*
G01X12343Y24955D01*
G01X12350Y24932D01*
G01X12360Y24910D01*
G01X12371Y24890D01*
G01X12385Y24870D01*
G01X12400Y24852D01*
G01X12416Y24835D01*
G01X12435Y24820D01*
G01X12454Y24807D01*
G01X12475Y24795D01*
G01X12497Y24786D01*
G01X12519Y24778D01*
G01X12542Y24773D01*
G01X12566Y24769D01*
G01X12589Y24768D01*
G01X12996Y24768D01*
G01X13025Y24770D01*
G01X13055Y24775D01*
G01X13083Y24784D01*
G01X13100Y24788D01*
G01X13118Y24790D01*
G01X13135Y24788D01*
G01X13152Y24784D01*
G01X13180Y24775D01*
G01X13210Y24770D01*
G01X13239Y24768D01*
G01X13646Y24768D01*
G01X13675Y24770D01*
G01X13705Y24775D01*
G01X13733Y24784D01*
G01X13750Y24788D01*
G01X13767Y24790D01*
G01X13785Y24788D01*
G01X13802Y24784D01*
G01X13830Y24775D01*
G01X13860Y24770D01*
G01X13889Y24768D01*
G01X14296Y24768D01*
G01X14325Y24770D01*
G01X14355Y24775D01*
G01X14383Y24784D01*
G01X14400Y24788D01*
G01X14418Y24790D01*
G01X14435Y24788D01*
G01X14452Y24784D01*
G01X14480Y24775D01*
G01X14510Y24770D01*
G01X14539Y24768D01*
G01X14946Y24768D01*
G01X14975Y24770D01*
G01X15005Y24775D01*
G01X15033Y24784D01*
G01X15050Y24788D01*
G01X15067Y24790D01*
G01X15085Y24788D01*
G01X15102Y24784D01*
G01X15130Y24775D01*
G01X15160Y24770D01*
G01X15189Y24768D01*
G01X15596Y24768D01*
G01X15625Y24770D01*
G01X15655Y24775D01*
G01X15683Y24784D01*
G01X15700Y24788D01*
G01X15718Y24790D01*
G01X15735Y24788D01*
G01X15752Y24784D01*
G01X15780Y24775D01*
G01X15810Y24770D01*
G01X15839Y24768D01*
G01X16246Y24768D01*
G01X16275Y24770D01*
G01X16305Y24775D01*
G01X16333Y24784D01*
G01X16350Y24788D01*
G01X16368Y24790D01*
G01X16385Y24788D01*
G01X16402Y24784D01*
G01X16430Y24775D01*
G01X16460Y24770D01*
G01X16489Y24768D01*
G01X16896Y24768D01*
G01X16925Y24770D01*
G01X16955Y24775D01*
G01X16983Y24784D01*
G01X17000Y24788D01*
G01X17018Y24790D01*
G01X17035Y24788D01*
G01X17052Y24784D01*
G01X17080Y24775D01*
G01X17110Y24770D01*
G01X17139Y24768D01*
G01X17177Y24768D01*
G01X17177Y25447D01*
G01X17169Y25458D01*
G01X17162Y25471D01*
G01X17156Y25485D01*
G01X17153Y25499D01*
G01X17152Y25514D01*
G01X17152Y26339D01*
G01X17153Y26354D01*
G01X17156Y26368D01*
G01X17162Y26382D01*
G01X17169Y26395D01*
G01X17177Y26406D01*
G01X17177Y27085D01*
G01X17139Y27085D01*
G01X17110Y27083D01*
G01X17080Y27078D01*
G01X17052Y27069D01*
G01X17035Y27065D01*
G01X17018Y27063D01*
G01X17000Y27065D01*
G01X16983Y27069D01*
G01X16955Y27078D01*
G01X16925Y27083D01*
G01X16896Y27085D01*
G01X16489Y27085D01*
G01X16460Y27083D01*
G01X16430Y27078D01*
G01X16402Y27069D01*
G01X16385Y27065D01*
G01X16368Y27063D01*
G01X16350Y27065D01*
G01X16333Y27069D01*
G01X16305Y27078D01*
G01X16275Y27083D01*
G01X16246Y27085D01*
G01X15839Y27085D01*
G01X15810Y27083D01*
G01X15780Y27078D01*
G01X15752Y27069D01*
G01X15735Y27065D01*
G01X15718Y27063D01*
G01X15700Y27065D01*
G01X15683Y27069D01*
G01X15655Y27078D01*
G01X15625Y27083D01*
G01X15596Y27085D01*
G01X15189Y27085D01*
G01X15160Y27083D01*
G01X15130Y27078D01*
G01X15102Y27069D01*
G01X15085Y27065D01*
G01X15067Y27063D01*
G01X15050Y27065D01*
G01X15033Y27069D01*
G01X15005Y27078D01*
G01X14975Y27083D01*
G01X14946Y27085D01*
G01X14539Y27085D01*
G01X14510Y27083D01*
G01X14480Y27078D01*
G01X14452Y27069D01*
G01X14435Y27065D01*
G01X14418Y27063D01*
G01X14400Y27065D01*
G01X14383Y27069D01*
G01X14355Y27078D01*
G01X14325Y27083D01*
G01X14296Y27085D01*
G01X13889Y27085D01*
G01X13860Y27083D01*
G01X13830Y27078D01*
G01X13802Y27069D01*
G01X13785Y27065D01*
G01X13767Y27063D01*
G01X13750Y27065D01*
G01X13733Y27069D01*
G01X13705Y27078D01*
G01X13675Y27083D01*
G01X13646Y27085D01*
G01X13239Y27085D01*
G01X13210Y27083D01*
G01X13180Y27078D01*
G01X13152Y27069D01*
G01X13135Y27065D01*
G01X13118Y27063D01*
G01X13100Y27065D01*
G01X13083Y27069D01*
G01X13055Y27078D01*
G01X13025Y27083D01*
G01X12996Y27085D01*
G37*
G36*
G01X21198Y7305D02*
G01X19999Y7305D01*
G01X19976Y7303D01*
G01X19952Y7300D01*
G01X19929Y7295D01*
G01X19907Y7287D01*
G01X19885Y7278D01*
G01X19864Y7266D01*
G01X19845Y7253D01*
G01X19827Y7238D01*
G01X19810Y7221D01*
G01X19795Y7203D01*
G01X19781Y7183D01*
G01X19770Y7162D01*
G01X19760Y7141D01*
G01X19753Y7118D01*
G01X19747Y7095D01*
G01X19744Y7072D01*
G01X19743Y7048D01*
G01X19743Y6570D01*
G01X19742Y6555D01*
G01X19739Y6541D01*
G01X19734Y6527D01*
G01X19727Y6515D01*
G01X19718Y6503D01*
G01X19708Y6493D01*
G01X19696Y6484D01*
G01X19684Y6477D01*
G01X19670Y6472D01*
G01X19656Y6469D01*
G01X19641Y6468D01*
G01X19624Y6469D01*
G01X19608Y6474D01*
G01X19592Y6480D01*
G01X19578Y6490D01*
G01X19566Y6501D01*
G01X19549Y6518D01*
G01X19531Y6534D01*
G01X19511Y6547D01*
G01X19490Y6559D01*
G01X19469Y6569D01*
G01X19446Y6576D01*
G01X19423Y6582D01*
G01X19399Y6585D01*
G01X19376Y6586D01*
G01X19114Y6586D01*
G01X19114Y6243D01*
G01X19641Y6243D01*
G01X19656Y6242D01*
G01X19670Y6239D01*
G01X19684Y6234D01*
G01X19696Y6227D01*
G01X19708Y6218D01*
G01X19718Y6208D01*
G01X19727Y6196D01*
G01X19734Y6184D01*
G01X19739Y6170D01*
G01X19742Y6156D01*
G01X19743Y6141D01*
G01X19743Y5918D01*
G01X19742Y5903D01*
G01X19739Y5889D01*
G01X19734Y5875D01*
G01X19727Y5863D01*
G01X19718Y5851D01*
G01X19708Y5841D01*
G01X19696Y5832D01*
G01X19684Y5825D01*
G01X19670Y5820D01*
G01X19656Y5817D01*
G01X19641Y5816D01*
G01X19114Y5816D01*
G01X19114Y5473D01*
G01X19376Y5473D01*
G01X19399Y5474D01*
G01X19423Y5477D01*
G01X19446Y5483D01*
G01X19469Y5490D01*
G01X19490Y5500D01*
G01X19511Y5512D01*
G01X19531Y5525D01*
G01X19549Y5541D01*
G01X19566Y5558D01*
G01X19578Y5569D01*
G01X19592Y5579D01*
G01X19608Y5585D01*
G01X19624Y5590D01*
G01X19641Y5591D01*
G01X19656Y5590D01*
G01X19670Y5587D01*
G01X19684Y5582D01*
G01X19696Y5575D01*
G01X19708Y5566D01*
G01X19718Y5556D01*
G01X19727Y5544D01*
G01X19734Y5532D01*
G01X19739Y5518D01*
G01X19742Y5504D01*
G01X19743Y5490D01*
G01X19743Y4889D01*
G01X19744Y4865D01*
G01X19747Y4842D01*
G01X19753Y4819D01*
G01X19760Y4796D01*
G01X19770Y4775D01*
G01X19781Y4754D01*
G01X19795Y4734D01*
G01X19810Y4716D01*
G01X19827Y4699D01*
G01X19845Y4684D01*
G01X19864Y4671D01*
G01X19885Y4659D01*
G01X19907Y4650D01*
G01X19929Y4642D01*
G01X19952Y4637D01*
G01X19976Y4634D01*
G01X19999Y4632D01*
G01X21198Y4632D01*
G01X21222Y4634D01*
G01X21245Y4637D01*
G01X21269Y4642D01*
G01X21291Y4650D01*
G01X21313Y4659D01*
G01X21333Y4671D01*
G01X21353Y4684D01*
G01X21371Y4699D01*
G01X21388Y4716D01*
G01X21403Y4734D01*
G01X21416Y4754D01*
G01X21428Y4775D01*
G01X21438Y4796D01*
G01X21445Y4819D01*
G01X21451Y4842D01*
G01X21454Y4865D01*
G01X21455Y4889D01*
G01X21455Y7048D01*
G01X21454Y7072D01*
G01X21451Y7095D01*
G01X21445Y7118D01*
G01X21438Y7141D01*
G01X21428Y7162D01*
G01X21416Y7183D01*
G01X21403Y7203D01*
G01X21388Y7221D01*
G01X21371Y7238D01*
G01X21353Y7253D01*
G01X21333Y7266D01*
G01X21313Y7278D01*
G01X21291Y7287D01*
G01X21269Y7295D01*
G01X21245Y7300D01*
G01X21222Y7303D01*
G01X21198Y7305D01*
G37*
G36*
G01X24814Y12204D02*
G01X24765Y12205D01*
G01X24715Y12204D01*
G01X24666Y12201D01*
G01X24618Y12196D01*
G01X24569Y12188D01*
G01X24521Y12179D01*
G01X24473Y12168D01*
G01X24426Y12154D01*
G01X24379Y12139D01*
G01X24333Y12122D01*
G01X24288Y12102D01*
G01X24244Y12081D01*
G01X24200Y12058D01*
G01X24158Y12033D01*
G01X24117Y12007D01*
G01X24077Y11978D01*
G01X24038Y11948D01*
G01X24000Y11917D01*
G01X23964Y11883D01*
G01X23930Y11849D01*
G01X23896Y11813D01*
G01X23865Y11775D01*
G01X23835Y11736D01*
G01X23806Y11696D01*
G01X23780Y11655D01*
G01X23755Y11613D01*
G01X23732Y11569D01*
G01X23711Y11525D01*
G01X23691Y11480D01*
G01X23674Y11434D01*
G01X23659Y11387D01*
G01X23645Y11340D01*
G01X23634Y11292D01*
G01X23625Y11244D01*
G01X23617Y11195D01*
G01X23612Y11147D01*
G01X23609Y11098D01*
G01X23608Y11049D01*
G01X23609Y10999D01*
G01X23612Y10950D01*
G01X23617Y10902D01*
G01X23625Y10853D01*
G01X23634Y10805D01*
G01X23645Y10757D01*
G01X23659Y10710D01*
G01X23674Y10663D01*
G01X23691Y10617D01*
G01X23711Y10572D01*
G01X23732Y10528D01*
G01X23755Y10484D01*
G01X23780Y10442D01*
G01X23806Y10401D01*
G01X23835Y10361D01*
G01X23865Y10322D01*
G01X23896Y10284D01*
G01X23930Y10248D01*
G01X23964Y10214D01*
G01X24000Y10180D01*
G01X24038Y10149D01*
G01X24077Y10119D01*
G01X24117Y10090D01*
G01X24158Y10064D01*
G01X24200Y10039D01*
G01X24244Y10016D01*
G01X24288Y9995D01*
G01X24333Y9975D01*
G01X24379Y9958D01*
G01X24426Y9943D01*
G01X24473Y9929D01*
G01X24521Y9918D01*
G01X24569Y9909D01*
G01X24618Y9901D01*
G01X24666Y9896D01*
G01X24715Y9893D01*
G01X24765Y9892D01*
G01X24814Y9893D01*
G01X24863Y9896D01*
G01X24911Y9901D01*
G01X24960Y9909D01*
G01X25008Y9918D01*
G01X25056Y9929D01*
G01X25103Y9943D01*
G01X25150Y9958D01*
G01X25196Y9975D01*
G01X25241Y9995D01*
G01X25285Y10016D01*
G01X25329Y10039D01*
G01X25371Y10064D01*
G01X25412Y10090D01*
G01X25452Y10119D01*
G01X25491Y10149D01*
G01X25529Y10180D01*
G01X25565Y10214D01*
G01X25599Y10248D01*
G01X25633Y10284D01*
G01X25664Y10322D01*
G01X25694Y10361D01*
G01X25723Y10401D01*
G01X25749Y10442D01*
G01X25774Y10484D01*
G01X25797Y10528D01*
G01X25818Y10572D01*
G01X25838Y10617D01*
G01X25855Y10663D01*
G01X25870Y10710D01*
G01X25884Y10757D01*
G01X25895Y10805D01*
G01X25904Y10853D01*
G01X25912Y10902D01*
G01X25917Y10950D01*
G01X25920Y10999D01*
G01X25921Y11049D01*
G01X25920Y11098D01*
G01X25917Y11147D01*
G01X25912Y11195D01*
G01X25904Y11244D01*
G01X25895Y11292D01*
G01X25884Y11340D01*
G01X25870Y11387D01*
G01X25855Y11434D01*
G01X25838Y11480D01*
G01X25818Y11525D01*
G01X25797Y11569D01*
G01X25774Y11613D01*
G01X25749Y11655D01*
G01X25723Y11696D01*
G01X25694Y11736D01*
G01X25664Y11775D01*
G01X25633Y11813D01*
G01X25599Y11849D01*
G01X25565Y11883D01*
G01X25529Y11917D01*
G01X25491Y11948D01*
G01X25452Y11978D01*
G01X25412Y12007D01*
G01X25371Y12033D01*
G01X25329Y12058D01*
G01X25285Y12081D01*
G01X25241Y12102D01*
G01X25196Y12122D01*
G01X25150Y12139D01*
G01X25103Y12154D01*
G01X25056Y12168D01*
G01X25008Y12179D01*
G01X24960Y12188D01*
G01X24911Y12196D01*
G01X24863Y12201D01*
G01X24814Y12204D01*
G37*
G36*
G01X24814Y9664D02*
G01X24765Y9665D01*
G01X24715Y9664D01*
G01X24666Y9661D01*
G01X24618Y9656D01*
G01X24569Y9648D01*
G01X24521Y9639D01*
G01X24473Y9628D01*
G01X24426Y9614D01*
G01X24379Y9599D01*
G01X24333Y9582D01*
G01X24288Y9562D01*
G01X24244Y9541D01*
G01X24200Y9518D01*
G01X24158Y9493D01*
G01X24117Y9467D01*
G01X24077Y9438D01*
G01X24038Y9408D01*
G01X24000Y9377D01*
G01X23964Y9343D01*
G01X23930Y9309D01*
G01X23896Y9273D01*
G01X23865Y9235D01*
G01X23835Y9196D01*
G01X23806Y9156D01*
G01X23780Y9115D01*
G01X23755Y9073D01*
G01X23732Y9029D01*
G01X23711Y8985D01*
G01X23691Y8940D01*
G01X23674Y8894D01*
G01X23659Y8847D01*
G01X23645Y8800D01*
G01X23634Y8752D01*
G01X23625Y8704D01*
G01X23617Y8655D01*
G01X23612Y8607D01*
G01X23609Y8558D01*
G01X23608Y8509D01*
G01X23609Y8459D01*
G01X23612Y8410D01*
G01X23617Y8362D01*
G01X23625Y8313D01*
G01X23634Y8265D01*
G01X23645Y8217D01*
G01X23659Y8170D01*
G01X23674Y8123D01*
G01X23691Y8077D01*
G01X23711Y8032D01*
G01X23732Y7988D01*
G01X23755Y7944D01*
G01X23780Y7902D01*
G01X23806Y7861D01*
G01X23835Y7821D01*
G01X23865Y7782D01*
G01X23896Y7744D01*
G01X23930Y7708D01*
G01X23964Y7674D01*
G01X24000Y7640D01*
G01X24038Y7609D01*
G01X24077Y7579D01*
G01X24117Y7550D01*
G01X24158Y7524D01*
G01X24200Y7499D01*
G01X24244Y7476D01*
G01X24288Y7455D01*
G01X24333Y7435D01*
G01X24379Y7418D01*
G01X24426Y7403D01*
G01X24473Y7389D01*
G01X24521Y7378D01*
G01X24569Y7369D01*
G01X24618Y7361D01*
G01X24666Y7356D01*
G01X24715Y7353D01*
G01X24765Y7352D01*
G01X24814Y7353D01*
G01X24863Y7356D01*
G01X24911Y7361D01*
G01X24960Y7369D01*
G01X25008Y7378D01*
G01X25056Y7389D01*
G01X25103Y7403D01*
G01X25150Y7418D01*
G01X25196Y7435D01*
G01X25241Y7455D01*
G01X25285Y7476D01*
G01X25329Y7499D01*
G01X25371Y7524D01*
G01X25412Y7550D01*
G01X25452Y7579D01*
G01X25491Y7609D01*
G01X25529Y7640D01*
G01X25565Y7674D01*
G01X25599Y7708D01*
G01X25633Y7744D01*
G01X25664Y7782D01*
G01X25694Y7821D01*
G01X25723Y7861D01*
G01X25749Y7902D01*
G01X25774Y7944D01*
G01X25797Y7988D01*
G01X25818Y8032D01*
G01X25838Y8077D01*
G01X25855Y8123D01*
G01X25870Y8170D01*
G01X25884Y8217D01*
G01X25895Y8265D01*
G01X25904Y8313D01*
G01X25912Y8362D01*
G01X25917Y8410D01*
G01X25920Y8459D01*
G01X25921Y8509D01*
G01X25920Y8558D01*
G01X25917Y8607D01*
G01X25912Y8655D01*
G01X25904Y8704D01*
G01X25895Y8752D01*
G01X25884Y8800D01*
G01X25870Y8847D01*
G01X25855Y8894D01*
G01X25838Y8940D01*
G01X25818Y8985D01*
G01X25797Y9029D01*
G01X25774Y9073D01*
G01X25749Y9115D01*
G01X25723Y9156D01*
G01X25694Y9196D01*
G01X25664Y9235D01*
G01X25633Y9273D01*
G01X25599Y9309D01*
G01X25565Y9343D01*
G01X25529Y9377D01*
G01X25491Y9408D01*
G01X25452Y9438D01*
G01X25412Y9467D01*
G01X25371Y9493D01*
G01X25329Y9518D01*
G01X25285Y9541D01*
G01X25241Y9562D01*
G01X25196Y9582D01*
G01X25150Y9599D01*
G01X25103Y9614D01*
G01X25056Y9628D01*
G01X25008Y9639D01*
G01X24960Y9648D01*
G01X24911Y9656D01*
G01X24863Y9661D01*
G01X24814Y9664D01*
G37*
G36*
G01X24814Y14744D02*
G01X24765Y14745D01*
G01X24715Y14744D01*
G01X24666Y14741D01*
G01X24618Y14736D01*
G01X24569Y14728D01*
G01X24521Y14719D01*
G01X24473Y14708D01*
G01X24426Y14694D01*
G01X24379Y14679D01*
G01X24333Y14662D01*
G01X24288Y14642D01*
G01X24244Y14621D01*
G01X24200Y14598D01*
G01X24158Y14573D01*
G01X24117Y14547D01*
G01X24077Y14518D01*
G01X24038Y14488D01*
G01X24000Y14457D01*
G01X23964Y14423D01*
G01X23930Y14389D01*
G01X23896Y14353D01*
G01X23865Y14315D01*
G01X23835Y14276D01*
G01X23806Y14236D01*
G01X23780Y14195D01*
G01X23755Y14153D01*
G01X23732Y14109D01*
G01X23711Y14065D01*
G01X23691Y14020D01*
G01X23674Y13974D01*
G01X23659Y13927D01*
G01X23645Y13880D01*
G01X23634Y13832D01*
G01X23625Y13784D01*
G01X23617Y13735D01*
G01X23612Y13687D01*
G01X23609Y13638D01*
G01X23608Y13589D01*
G01X23609Y13539D01*
G01X23612Y13490D01*
G01X23617Y13442D01*
G01X23625Y13393D01*
G01X23634Y13345D01*
G01X23645Y13297D01*
G01X23659Y13250D01*
G01X23674Y13203D01*
G01X23691Y13157D01*
G01X23711Y13112D01*
G01X23732Y13068D01*
G01X23755Y13024D01*
G01X23780Y12982D01*
G01X23806Y12941D01*
G01X23835Y12901D01*
G01X23865Y12862D01*
G01X23896Y12824D01*
G01X23930Y12788D01*
G01X23964Y12754D01*
G01X24000Y12720D01*
G01X24038Y12689D01*
G01X24077Y12659D01*
G01X24117Y12630D01*
G01X24158Y12604D01*
G01X24200Y12579D01*
G01X24244Y12556D01*
G01X24288Y12535D01*
G01X24333Y12515D01*
G01X24379Y12498D01*
G01X24426Y12483D01*
G01X24473Y12469D01*
G01X24521Y12458D01*
G01X24569Y12449D01*
G01X24618Y12441D01*
G01X24666Y12436D01*
G01X24715Y12433D01*
G01X24765Y12432D01*
G01X24814Y12433D01*
G01X24863Y12436D01*
G01X24911Y12441D01*
G01X24960Y12449D01*
G01X25008Y12458D01*
G01X25056Y12469D01*
G01X25103Y12483D01*
G01X25150Y12498D01*
G01X25196Y12515D01*
G01X25241Y12535D01*
G01X25285Y12556D01*
G01X25329Y12579D01*
G01X25371Y12604D01*
G01X25412Y12630D01*
G01X25452Y12659D01*
G01X25491Y12689D01*
G01X25529Y12720D01*
G01X25565Y12754D01*
G01X25599Y12788D01*
G01X25633Y12824D01*
G01X25664Y12862D01*
G01X25694Y12901D01*
G01X25723Y12941D01*
G01X25749Y12982D01*
G01X25774Y13024D01*
G01X25797Y13068D01*
G01X25818Y13112D01*
G01X25838Y13157D01*
G01X25855Y13203D01*
G01X25870Y13250D01*
G01X25884Y13297D01*
G01X25895Y13345D01*
G01X25904Y13393D01*
G01X25912Y13442D01*
G01X25917Y13490D01*
G01X25920Y13539D01*
G01X25921Y13589D01*
G01X25920Y13638D01*
G01X25917Y13687D01*
G01X25912Y13735D01*
G01X25904Y13784D01*
G01X25895Y13832D01*
G01X25884Y13880D01*
G01X25870Y13927D01*
G01X25855Y13974D01*
G01X25838Y14020D01*
G01X25818Y14065D01*
G01X25797Y14109D01*
G01X25774Y14153D01*
G01X25749Y14195D01*
G01X25723Y14236D01*
G01X25694Y14276D01*
G01X25664Y14315D01*
G01X25633Y14353D01*
G01X25599Y14389D01*
G01X25565Y14423D01*
G01X25529Y14457D01*
G01X25491Y14488D01*
G01X25452Y14518D01*
G01X25412Y14547D01*
G01X25371Y14573D01*
G01X25329Y14598D01*
G01X25285Y14621D01*
G01X25241Y14642D01*
G01X25196Y14662D01*
G01X25150Y14679D01*
G01X25103Y14694D01*
G01X25056Y14708D01*
G01X25008Y14719D01*
G01X24960Y14728D01*
G01X24911Y14736D01*
G01X24863Y14741D01*
G01X24814Y14744D01*
G37*
G36*
G01X2804Y7125D02*
G01X1005Y7125D01*
G01X981Y7124D01*
G01X957Y7121D01*
G01X934Y7115D01*
G01X912Y7108D01*
G01X890Y7098D01*
G01X869Y7087D01*
G01X850Y7073D01*
G01X832Y7058D01*
G01X815Y7041D01*
G01X800Y7023D01*
G01X786Y7004D01*
G01X775Y6983D01*
G01X765Y6961D01*
G01X758Y6939D01*
G01X752Y6916D01*
G01X749Y6892D01*
G01X748Y6868D01*
G01X748Y5069D01*
G01X749Y5045D01*
G01X752Y5021D01*
G01X758Y4998D01*
G01X765Y4976D01*
G01X775Y4954D01*
G01X786Y4933D01*
G01X800Y4914D01*
G01X815Y4896D01*
G01X832Y4879D01*
G01X850Y4864D01*
G01X869Y4850D01*
G01X890Y4839D01*
G01X912Y4829D01*
G01X934Y4822D01*
G01X957Y4816D01*
G01X981Y4813D01*
G01X1005Y4812D01*
G01X2804Y4812D01*
G01X2828Y4813D01*
G01X2852Y4816D01*
G01X2875Y4822D01*
G01X2897Y4829D01*
G01X2919Y4839D01*
G01X2940Y4850D01*
G01X2959Y4864D01*
G01X2977Y4879D01*
G01X2994Y4896D01*
G01X3009Y4914D01*
G01X3023Y4933D01*
G01X3034Y4954D01*
G01X3044Y4976D01*
G01X3051Y4998D01*
G01X3057Y5021D01*
G01X3060Y5045D01*
G01X3061Y5069D01*
G01X3061Y6868D01*
G01X3060Y6892D01*
G01X3057Y6916D01*
G01X3051Y6939D01*
G01X3044Y6961D01*
G01X3034Y6983D01*
G01X3023Y7004D01*
G01X3009Y7023D01*
G01X2994Y7041D01*
G01X2977Y7058D01*
G01X2959Y7073D01*
G01X2940Y7087D01*
G01X2919Y7098D01*
G01X2897Y7108D01*
G01X2875Y7115D01*
G01X2852Y7121D01*
G01X2828Y7124D01*
G01X2804Y7125D01*
G37*
G36*
G01X1954Y17284D02*
G01X1905Y17285D01*
G01X1855Y17284D01*
G01X1806Y17281D01*
G01X1758Y17276D01*
G01X1709Y17268D01*
G01X1661Y17259D01*
G01X1613Y17248D01*
G01X1566Y17234D01*
G01X1519Y17219D01*
G01X1473Y17202D01*
G01X1428Y17182D01*
G01X1384Y17161D01*
G01X1340Y17138D01*
G01X1298Y17113D01*
G01X1257Y17087D01*
G01X1217Y17058D01*
G01X1178Y17028D01*
G01X1140Y16997D01*
G01X1104Y16963D01*
G01X1070Y16929D01*
G01X1036Y16893D01*
G01X1005Y16855D01*
G01X975Y16816D01*
G01X946Y16776D01*
G01X920Y16735D01*
G01X895Y16693D01*
G01X872Y16649D01*
G01X851Y16605D01*
G01X831Y16560D01*
G01X814Y16514D01*
G01X799Y16467D01*
G01X785Y16420D01*
G01X774Y16372D01*
G01X765Y16324D01*
G01X757Y16275D01*
G01X752Y16227D01*
G01X749Y16178D01*
G01X748Y16129D01*
G01X749Y16079D01*
G01X752Y16030D01*
G01X757Y15982D01*
G01X765Y15933D01*
G01X774Y15885D01*
G01X785Y15837D01*
G01X799Y15790D01*
G01X814Y15743D01*
G01X831Y15697D01*
G01X851Y15652D01*
G01X872Y15608D01*
G01X895Y15564D01*
G01X920Y15522D01*
G01X946Y15481D01*
G01X975Y15441D01*
G01X1005Y15402D01*
G01X1036Y15364D01*
G01X1070Y15328D01*
G01X1104Y15294D01*
G01X1140Y15260D01*
G01X1178Y15229D01*
G01X1217Y15199D01*
G01X1257Y15170D01*
G01X1298Y15144D01*
G01X1340Y15119D01*
G01X1384Y15096D01*
G01X1428Y15075D01*
G01X1473Y15055D01*
G01X1519Y15038D01*
G01X1566Y15023D01*
G01X1613Y15009D01*
G01X1661Y14998D01*
G01X1709Y14989D01*
G01X1758Y14981D01*
G01X1806Y14976D01*
G01X1855Y14973D01*
G01X1905Y14972D01*
G01X1954Y14973D01*
G01X2003Y14976D01*
G01X2051Y14981D01*
G01X2100Y14989D01*
G01X2148Y14998D01*
G01X2196Y15009D01*
G01X2243Y15023D01*
G01X2290Y15038D01*
G01X2336Y15055D01*
G01X2381Y15075D01*
G01X2425Y15096D01*
G01X2469Y15119D01*
G01X2511Y15144D01*
G01X2552Y15170D01*
G01X2592Y15199D01*
G01X2631Y15229D01*
G01X2669Y15260D01*
G01X2705Y15294D01*
G01X2739Y15328D01*
G01X2773Y15364D01*
G01X2804Y15402D01*
G01X2834Y15441D01*
G01X2863Y15481D01*
G01X2889Y15522D01*
G01X2914Y15564D01*
G01X2937Y15608D01*
G01X2958Y15652D01*
G01X2978Y15697D01*
G01X2995Y15743D01*
G01X3010Y15790D01*
G01X3024Y15837D01*
G01X3035Y15885D01*
G01X3044Y15933D01*
G01X3052Y15982D01*
G01X3057Y16030D01*
G01X3060Y16079D01*
G01X3061Y16129D01*
G01X3060Y16178D01*
G01X3057Y16227D01*
G01X3052Y16275D01*
G01X3044Y16324D01*
G01X3035Y16372D01*
G01X3024Y16420D01*
G01X3010Y16467D01*
G01X2995Y16514D01*
G01X2978Y16560D01*
G01X2958Y16605D01*
G01X2937Y16649D01*
G01X2914Y16693D01*
G01X2889Y16735D01*
G01X2863Y16776D01*
G01X2834Y16816D01*
G01X2804Y16855D01*
G01X2773Y16893D01*
G01X2739Y16929D01*
G01X2705Y16963D01*
G01X2669Y16997D01*
G01X2631Y17028D01*
G01X2592Y17058D01*
G01X2552Y17087D01*
G01X2511Y17113D01*
G01X2469Y17138D01*
G01X2425Y17161D01*
G01X2381Y17182D01*
G01X2336Y17202D01*
G01X2290Y17219D01*
G01X2243Y17234D01*
G01X2196Y17248D01*
G01X2148Y17259D01*
G01X2100Y17268D01*
G01X2051Y17276D01*
G01X2003Y17281D01*
G01X1954Y17284D01*
G37*
G36*
G01X1954Y9664D02*
G01X1905Y9665D01*
G01X1855Y9664D01*
G01X1806Y9661D01*
G01X1758Y9656D01*
G01X1709Y9648D01*
G01X1661Y9639D01*
G01X1613Y9628D01*
G01X1566Y9614D01*
G01X1519Y9599D01*
G01X1473Y9582D01*
G01X1428Y9562D01*
G01X1384Y9541D01*
G01X1340Y9518D01*
G01X1298Y9493D01*
G01X1257Y9467D01*
G01X1217Y9438D01*
G01X1178Y9408D01*
G01X1140Y9377D01*
G01X1104Y9343D01*
G01X1070Y9309D01*
G01X1036Y9273D01*
G01X1005Y9235D01*
G01X975Y9196D01*
G01X946Y9156D01*
G01X920Y9115D01*
G01X895Y9073D01*
G01X872Y9029D01*
G01X851Y8985D01*
G01X831Y8940D01*
G01X814Y8894D01*
G01X799Y8847D01*
G01X785Y8800D01*
G01X774Y8752D01*
G01X765Y8704D01*
G01X757Y8655D01*
G01X752Y8607D01*
G01X749Y8558D01*
G01X748Y8509D01*
G01X749Y8459D01*
G01X752Y8410D01*
G01X757Y8362D01*
G01X765Y8313D01*
G01X774Y8265D01*
G01X785Y8217D01*
G01X799Y8170D01*
G01X814Y8123D01*
G01X831Y8077D01*
G01X851Y8032D01*
G01X872Y7988D01*
G01X895Y7944D01*
G01X920Y7902D01*
G01X946Y7861D01*
G01X975Y7821D01*
G01X1005Y7782D01*
G01X1036Y7744D01*
G01X1070Y7708D01*
G01X1104Y7674D01*
G01X1140Y7640D01*
G01X1178Y7609D01*
G01X1217Y7579D01*
G01X1257Y7550D01*
G01X1298Y7524D01*
G01X1340Y7499D01*
G01X1384Y7476D01*
G01X1428Y7455D01*
G01X1473Y7435D01*
G01X1519Y7418D01*
G01X1566Y7403D01*
G01X1613Y7389D01*
G01X1661Y7378D01*
G01X1709Y7369D01*
G01X1758Y7361D01*
G01X1806Y7356D01*
G01X1855Y7353D01*
G01X1905Y7352D01*
G01X1954Y7353D01*
G01X2003Y7356D01*
G01X2051Y7361D01*
G01X2100Y7369D01*
G01X2148Y7378D01*
G01X2196Y7389D01*
G01X2243Y7403D01*
G01X2290Y7418D01*
G01X2336Y7435D01*
G01X2381Y7455D01*
G01X2425Y7476D01*
G01X2469Y7499D01*
G01X2511Y7524D01*
G01X2552Y7550D01*
G01X2592Y7579D01*
G01X2631Y7609D01*
G01X2669Y7640D01*
G01X2705Y7674D01*
G01X2739Y7708D01*
G01X2773Y7744D01*
G01X2804Y7782D01*
G01X2834Y7821D01*
G01X2863Y7861D01*
G01X2889Y7902D01*
G01X2914Y7944D01*
G01X2937Y7988D01*
G01X2958Y8032D01*
G01X2978Y8077D01*
G01X2995Y8123D01*
G01X3010Y8170D01*
G01X3024Y8217D01*
G01X3035Y8265D01*
G01X3044Y8313D01*
G01X3052Y8362D01*
G01X3057Y8410D01*
G01X3060Y8459D01*
G01X3061Y8509D01*
G01X3060Y8558D01*
G01X3057Y8607D01*
G01X3052Y8655D01*
G01X3044Y8704D01*
G01X3035Y8752D01*
G01X3024Y8800D01*
G01X3010Y8847D01*
G01X2995Y8894D01*
G01X2978Y8940D01*
G01X2958Y8985D01*
G01X2937Y9029D01*
G01X2914Y9073D01*
G01X2889Y9115D01*
G01X2863Y9156D01*
G01X2834Y9196D01*
G01X2804Y9235D01*
G01X2773Y9273D01*
G01X2739Y9309D01*
G01X2705Y9343D01*
G01X2669Y9377D01*
G01X2631Y9408D01*
G01X2592Y9438D01*
G01X2552Y9467D01*
G01X2511Y9493D01*
G01X2469Y9518D01*
G01X2425Y9541D01*
G01X2381Y9562D01*
G01X2336Y9582D01*
G01X2290Y9599D01*
G01X2243Y9614D01*
G01X2196Y9628D01*
G01X2148Y9639D01*
G01X2100Y9648D01*
G01X2051Y9656D01*
G01X2003Y9661D01*
G01X1954Y9664D01*
G37*
G36*
G01X1954Y19824D02*
G01X1905Y19825D01*
G01X1855Y19824D01*
G01X1806Y19821D01*
G01X1758Y19816D01*
G01X1709Y19808D01*
G01X1661Y19799D01*
G01X1613Y19788D01*
G01X1566Y19774D01*
G01X1519Y19759D01*
G01X1473Y19742D01*
G01X1428Y19722D01*
G01X1384Y19701D01*
G01X1340Y19678D01*
G01X1298Y19653D01*
G01X1257Y19627D01*
G01X1217Y19598D01*
G01X1178Y19568D01*
G01X1140Y19537D01*
G01X1104Y19503D01*
G01X1070Y19469D01*
G01X1036Y19433D01*
G01X1005Y19395D01*
G01X975Y19356D01*
G01X946Y19316D01*
G01X920Y19275D01*
G01X895Y19233D01*
G01X872Y19189D01*
G01X851Y19145D01*
G01X831Y19100D01*
G01X814Y19054D01*
G01X799Y19007D01*
G01X785Y18960D01*
G01X774Y18912D01*
G01X765Y18864D01*
G01X757Y18815D01*
G01X752Y18767D01*
G01X749Y18718D01*
G01X748Y18669D01*
G01X749Y18619D01*
G01X752Y18570D01*
G01X757Y18522D01*
G01X765Y18473D01*
G01X774Y18425D01*
G01X785Y18377D01*
G01X799Y18330D01*
G01X814Y18283D01*
G01X831Y18237D01*
G01X851Y18192D01*
G01X872Y18148D01*
G01X895Y18104D01*
G01X920Y18062D01*
G01X946Y18021D01*
G01X975Y17981D01*
G01X1005Y17942D01*
G01X1036Y17904D01*
G01X1070Y17868D01*
G01X1104Y17834D01*
G01X1140Y17800D01*
G01X1178Y17769D01*
G01X1217Y17739D01*
G01X1257Y17710D01*
G01X1298Y17684D01*
G01X1340Y17659D01*
G01X1384Y17636D01*
G01X1428Y17615D01*
G01X1473Y17595D01*
G01X1519Y17578D01*
G01X1566Y17563D01*
G01X1613Y17549D01*
G01X1661Y17538D01*
G01X1709Y17529D01*
G01X1758Y17521D01*
G01X1806Y17516D01*
G01X1855Y17513D01*
G01X1905Y17512D01*
G01X1954Y17513D01*
G01X2003Y17516D01*
G01X2051Y17521D01*
G01X2100Y17529D01*
G01X2148Y17538D01*
G01X2196Y17549D01*
G01X2243Y17563D01*
G01X2290Y17578D01*
G01X2336Y17595D01*
G01X2381Y17615D01*
G01X2425Y17636D01*
G01X2469Y17659D01*
G01X2511Y17684D01*
G01X2552Y17710D01*
G01X2592Y17739D01*
G01X2631Y17769D01*
G01X2669Y17800D01*
G01X2705Y17834D01*
G01X2739Y17868D01*
G01X2773Y17904D01*
G01X2804Y17942D01*
G01X2834Y17981D01*
G01X2863Y18021D01*
G01X2889Y18062D01*
G01X2914Y18104D01*
G01X2937Y18148D01*
G01X2958Y18192D01*
G01X2978Y18237D01*
G01X2995Y18283D01*
G01X3010Y18330D01*
G01X3024Y18377D01*
G01X3035Y18425D01*
G01X3044Y18473D01*
G01X3052Y18522D01*
G01X3057Y18570D01*
G01X3060Y18619D01*
G01X3061Y18669D01*
G01X3060Y18718D01*
G01X3057Y18767D01*
G01X3052Y18815D01*
G01X3044Y18864D01*
G01X3035Y18912D01*
G01X3024Y18960D01*
G01X3010Y19007D01*
G01X2995Y19054D01*
G01X2978Y19100D01*
G01X2958Y19145D01*
G01X2937Y19189D01*
G01X2914Y19233D01*
G01X2889Y19275D01*
G01X2863Y19316D01*
G01X2834Y19356D01*
G01X2804Y19395D01*
G01X2773Y19433D01*
G01X2739Y19469D01*
G01X2705Y19503D01*
G01X2669Y19537D01*
G01X2631Y19568D01*
G01X2592Y19598D01*
G01X2552Y19627D01*
G01X2511Y19653D01*
G01X2469Y19678D01*
G01X2425Y19701D01*
G01X2381Y19722D01*
G01X2336Y19742D01*
G01X2290Y19759D01*
G01X2243Y19774D01*
G01X2196Y19788D01*
G01X2148Y19799D01*
G01X2100Y19808D01*
G01X2051Y19816D01*
G01X2003Y19821D01*
G01X1954Y19824D01*
G37*
G36*
G01X20187Y3315D02*
G01X19801Y3315D01*
G01X19777Y3314D01*
G01X19753Y3311D01*
G01X19730Y3305D01*
G01X19708Y3298D01*
G01X19686Y3288D01*
G01X19665Y3277D01*
G01X19646Y3263D01*
G01X19628Y3248D01*
G01X19611Y3231D01*
G01X19596Y3213D01*
G01X19582Y3194D01*
G01X19571Y3173D01*
G01X19561Y3151D01*
G01X19554Y3129D01*
G01X19548Y3106D01*
G01X19545Y3082D01*
G01X19544Y3058D01*
G01X19544Y2672D01*
G01X20187Y2672D01*
G01X20187Y3315D01*
G37*
G36*
G01X21600Y3315D02*
G01X21214Y3315D01*
G01X21214Y2672D01*
G01X21857Y2672D01*
G01X21857Y3058D01*
G01X21856Y3082D01*
G01X21853Y3106D01*
G01X21847Y3129D01*
G01X21840Y3151D01*
G01X21830Y3173D01*
G01X21819Y3194D01*
G01X21805Y3213D01*
G01X21790Y3231D01*
G01X21773Y3248D01*
G01X21755Y3263D01*
G01X21736Y3277D01*
G01X21715Y3288D01*
G01X21693Y3298D01*
G01X21671Y3305D01*
G01X21648Y3311D01*
G01X21624Y3314D01*
G01X21600Y3315D01*
G37*
G36*
G01X20187Y1645D02*
G01X19544Y1645D01*
G01X19544Y1259D01*
G01X19545Y1235D01*
G01X19548Y1211D01*
G01X19554Y1188D01*
G01X19561Y1166D01*
G01X19571Y1144D01*
G01X19582Y1123D01*
G01X19596Y1104D01*
G01X19611Y1086D01*
G01X19628Y1069D01*
G01X19646Y1054D01*
G01X19665Y1040D01*
G01X19686Y1029D01*
G01X19708Y1019D01*
G01X19730Y1012D01*
G01X19753Y1006D01*
G01X19777Y1003D01*
G01X19801Y1002D01*
G01X20187Y1002D01*
G01X20187Y1645D01*
G37*
G36*
G01X21857Y1645D02*
G01X21214Y1645D01*
G01X21214Y1002D01*
G01X21600Y1002D01*
G01X21624Y1003D01*
G01X21648Y1006D01*
G01X21671Y1012D01*
G01X21693Y1019D01*
G01X21715Y1029D01*
G01X21736Y1040D01*
G01X21755Y1054D01*
G01X21773Y1069D01*
G01X21790Y1086D01*
G01X21805Y1104D01*
G01X21819Y1123D01*
G01X21830Y1144D01*
G01X21840Y1166D01*
G01X21847Y1188D01*
G01X21853Y1211D01*
G01X21856Y1235D01*
G01X21857Y1259D01*
G01X21857Y1645D01*
G37*
G36*
G01X22217Y5365D02*
G01X21724Y5365D01*
G01X21724Y4889D01*
G01X21725Y4865D01*
G01X21728Y4842D01*
G01X21734Y4819D01*
G01X21741Y4796D01*
G01X21751Y4775D01*
G01X21763Y4754D01*
G01X21776Y4734D01*
G01X21791Y4716D01*
G01X21808Y4699D01*
G01X21826Y4684D01*
G01X21846Y4671D01*
G01X21866Y4659D01*
G01X21888Y4650D01*
G01X21910Y4642D01*
G01X21934Y4637D01*
G01X21957Y4634D01*
G01X21981Y4632D01*
G01X22217Y4632D01*
G01X22217Y5365D01*
G37*
G36*
G01X23436Y5365D02*
G01X22943Y5365D01*
G01X22943Y4632D01*
G01X23180Y4632D01*
G01X23203Y4634D01*
G01X23227Y4637D01*
G01X23250Y4642D01*
G01X23272Y4650D01*
G01X23294Y4659D01*
G01X23315Y4671D01*
G01X23334Y4684D01*
G01X23352Y4699D01*
G01X23369Y4716D01*
G01X23384Y4734D01*
G01X23398Y4754D01*
G01X23409Y4775D01*
G01X23419Y4796D01*
G01X23426Y4819D01*
G01X23432Y4842D01*
G01X23435Y4865D01*
G01X23436Y4889D01*
G01X23436Y5365D01*
G37*
G36*
G01X23180Y7305D02*
G01X22943Y7305D01*
G01X22943Y6572D01*
G01X23436Y6572D01*
G01X23436Y7048D01*
G01X23435Y7072D01*
G01X23432Y7095D01*
G01X23426Y7118D01*
G01X23419Y7141D01*
G01X23409Y7162D01*
G01X23398Y7183D01*
G01X23384Y7203D01*
G01X23369Y7221D01*
G01X23352Y7238D01*
G01X23334Y7253D01*
G01X23315Y7266D01*
G01X23294Y7278D01*
G01X23272Y7287D01*
G01X23250Y7295D01*
G01X23227Y7300D01*
G01X23203Y7303D01*
G01X23180Y7305D01*
G37*
G36*
G01X22217Y7305D02*
G01X21981Y7305D01*
G01X21957Y7303D01*
G01X21934Y7300D01*
G01X21910Y7295D01*
G01X21888Y7287D01*
G01X21866Y7278D01*
G01X21846Y7266D01*
G01X21826Y7253D01*
G01X21808Y7238D01*
G01X21791Y7221D01*
G01X21776Y7203D01*
G01X21763Y7183D01*
G01X21751Y7162D01*
G01X21741Y7141D01*
G01X21734Y7118D01*
G01X21728Y7095D01*
G01X21725Y7072D01*
G01X21724Y7048D01*
G01X21724Y6572D01*
G01X22217Y6572D01*
G01X22217Y7305D01*
G37*
G36*
G01X1391Y21722D02*
G01X1391Y22245D01*
G01X1347Y22222D01*
G01X1303Y22196D01*
G01X1261Y22169D01*
G01X1220Y22141D01*
G01X1180Y22110D01*
G01X1142Y22078D01*
G01X1105Y22044D01*
G01X1069Y22008D01*
G01X1035Y21971D01*
G01X1003Y21933D01*
G01X972Y21893D01*
G01X944Y21852D01*
G01X917Y21810D01*
G01X891Y21766D01*
G01X868Y21722D01*
G01X1391Y21722D01*
G37*
G36*
G01X24251Y5455D02*
G01X23728Y5455D01*
G01X23751Y5411D01*
G01X23777Y5367D01*
G01X23804Y5325D01*
G01X23832Y5284D01*
G01X23863Y5244D01*
G01X23895Y5206D01*
G01X23929Y5169D01*
G01X23965Y5133D01*
G01X24002Y5099D01*
G01X24040Y5067D01*
G01X24080Y5036D01*
G01X24121Y5008D01*
G01X24163Y4981D01*
G01X24207Y4955D01*
G01X24251Y4932D01*
G01X24251Y5455D01*
G37*
G36*
G01X24251Y6482D02*
G01X24251Y7005D01*
G01X24207Y6982D01*
G01X24163Y6956D01*
G01X24121Y6929D01*
G01X24080Y6901D01*
G01X24040Y6870D01*
G01X24002Y6838D01*
G01X23965Y6804D01*
G01X23929Y6768D01*
G01X23895Y6731D01*
G01X23863Y6693D01*
G01X23832Y6653D01*
G01X23804Y6612D01*
G01X23777Y6570D01*
G01X23751Y6526D01*
G01X23728Y6482D01*
G01X24251Y6482D01*
G37*
G36*
G01X25801Y15615D02*
G01X25278Y15615D01*
G01X25278Y15092D01*
G01X25322Y15115D01*
G01X25366Y15141D01*
G01X25408Y15168D01*
G01X25449Y15196D01*
G01X25489Y15227D01*
G01X25527Y15259D01*
G01X25564Y15293D01*
G01X25600Y15329D01*
G01X25634Y15366D01*
G01X25666Y15404D01*
G01X25697Y15444D01*
G01X25725Y15485D01*
G01X25752Y15527D01*
G01X25778Y15571D01*
G01X25801Y15615D01*
G37*
G36*
G01X25801Y5455D02*
G01X25278Y5455D01*
G01X25278Y4932D01*
G01X25322Y4955D01*
G01X25366Y4981D01*
G01X25408Y5008D01*
G01X25449Y5036D01*
G01X25489Y5067D01*
G01X25527Y5099D01*
G01X25564Y5133D01*
G01X25600Y5169D01*
G01X25634Y5206D01*
G01X25666Y5244D01*
G01X25697Y5284D01*
G01X25725Y5325D01*
G01X25752Y5367D01*
G01X25778Y5411D01*
G01X25801Y5455D01*
G37*
G36*
G01X25322Y6982D02*
G01X25278Y7005D01*
G01X25278Y6482D01*
G01X25801Y6482D01*
G01X25778Y6526D01*
G01X25752Y6570D01*
G01X25725Y6612D01*
G01X25697Y6653D01*
G01X25666Y6693D01*
G01X25634Y6731D01*
G01X25600Y6768D01*
G01X25564Y6804D01*
G01X25527Y6838D01*
G01X25489Y6870D01*
G01X25449Y6901D01*
G01X25408Y6929D01*
G01X25366Y6956D01*
G01X25322Y6982D01*
G37*
G36*
G01X1391Y20695D02*
G01X868Y20695D01*
G01X891Y20651D01*
G01X917Y20607D01*
G01X944Y20565D01*
G01X972Y20524D01*
G01X1003Y20484D01*
G01X1035Y20446D01*
G01X1069Y20409D01*
G01X1105Y20373D01*
G01X1142Y20339D01*
G01X1180Y20307D01*
G01X1220Y20276D01*
G01X1261Y20248D01*
G01X1303Y20221D01*
G01X1347Y20195D01*
G01X1391Y20172D01*
G01X1391Y20695D01*
G37*
G36*
G01X25322Y17142D02*
G01X25278Y17165D01*
G01X25278Y16642D01*
G01X25801Y16642D01*
G01X25778Y16686D01*
G01X25752Y16730D01*
G01X25725Y16772D01*
G01X25697Y16813D01*
G01X25666Y16853D01*
G01X25634Y16891D01*
G01X25600Y16928D01*
G01X25564Y16964D01*
G01X25527Y16998D01*
G01X25489Y17030D01*
G01X25449Y17061D01*
G01X25408Y17089D01*
G01X25366Y17116D01*
G01X25322Y17142D01*
G37*
G36*
G01X2462Y22222D02*
G01X2418Y22245D01*
G01X2418Y21722D01*
G01X2941Y21722D01*
G01X2918Y21766D01*
G01X2892Y21810D01*
G01X2865Y21852D01*
G01X2837Y21893D01*
G01X2806Y21933D01*
G01X2774Y21971D01*
G01X2740Y22008D01*
G01X2704Y22044D01*
G01X2667Y22078D01*
G01X2629Y22110D01*
G01X2589Y22141D01*
G01X2548Y22169D01*
G01X2506Y22196D01*
G01X2462Y22222D01*
G37*
G36*
G01X24251Y15615D02*
G01X23728Y15615D01*
G01X23751Y15571D01*
G01X23777Y15527D01*
G01X23804Y15485D01*
G01X23832Y15444D01*
G01X23863Y15404D01*
G01X23895Y15366D01*
G01X23929Y15329D01*
G01X23965Y15293D01*
G01X24002Y15259D01*
G01X24040Y15227D01*
G01X24080Y15196D01*
G01X24121Y15168D01*
G01X24163Y15141D01*
G01X24207Y15115D01*
G01X24251Y15092D01*
G01X24251Y15615D01*
G37*
G36*
G01X2941Y20695D02*
G01X2418Y20695D01*
G01X2418Y20172D01*
G01X2462Y20195D01*
G01X2506Y20221D01*
G01X2548Y20248D01*
G01X2589Y20276D01*
G01X2629Y20307D01*
G01X2667Y20339D01*
G01X2704Y20373D01*
G01X2740Y20409D01*
G01X2774Y20446D01*
G01X2806Y20484D01*
G01X2837Y20524D01*
G01X2865Y20565D01*
G01X2892Y20607D01*
G01X2918Y20651D01*
G01X2941Y20695D01*
G37*
G36*
G01X5349Y14672D02*
G01X5113Y14672D01*
G01X5113Y14129D01*
G01X5606Y14129D01*
G01X5606Y14415D01*
G01X5605Y14439D01*
G01X5602Y14463D01*
G01X5596Y14486D01*
G01X5589Y14508D01*
G01X5579Y14530D01*
G01X5568Y14551D01*
G01X5554Y14570D01*
G01X5539Y14588D01*
G01X5522Y14605D01*
G01X5504Y14620D01*
G01X5484Y14634D01*
G01X5464Y14645D01*
G01X5442Y14655D01*
G01X5420Y14662D01*
G01X5397Y14668D01*
G01X5373Y14671D01*
G01X5349Y14672D01*
G37*
G36*
G01X4386Y14672D02*
G01X4149Y14672D01*
G01X4126Y14671D01*
G01X4102Y14668D01*
G01X4079Y14662D01*
G01X4057Y14655D01*
G01X4035Y14645D01*
G01X4014Y14634D01*
G01X3995Y14620D01*
G01X3977Y14605D01*
G01X3960Y14588D01*
G01X3945Y14570D01*
G01X3931Y14551D01*
G01X3920Y14530D01*
G01X3910Y14508D01*
G01X3903Y14486D01*
G01X3897Y14463D01*
G01X3894Y14439D01*
G01X3893Y14415D01*
G01X3893Y14129D01*
G01X4386Y14129D01*
G01X4386Y14672D01*
G37*
G36*
G01X4386Y13302D02*
G01X3893Y13302D01*
G01X3893Y13016D01*
G01X3894Y12992D01*
G01X3897Y12968D01*
G01X3903Y12945D01*
G01X3910Y12923D01*
G01X3920Y12901D01*
G01X3931Y12880D01*
G01X3945Y12861D01*
G01X3960Y12843D01*
G01X3977Y12826D01*
G01X3995Y12811D01*
G01X4014Y12797D01*
G01X4035Y12786D01*
G01X4057Y12776D01*
G01X4079Y12769D01*
G01X4102Y12763D01*
G01X4126Y12760D01*
G01X4149Y12759D01*
G01X4386Y12759D01*
G01X4386Y13302D01*
G37*
G36*
G01X5606Y13302D02*
G01X5113Y13302D01*
G01X5113Y12759D01*
G01X5349Y12759D01*
G01X5373Y12760D01*
G01X5397Y12763D01*
G01X5420Y12769D01*
G01X5442Y12776D01*
G01X5464Y12786D01*
G01X5484Y12797D01*
G01X5504Y12811D01*
G01X5522Y12826D01*
G01X5539Y12843D01*
G01X5554Y12861D01*
G01X5568Y12880D01*
G01X5579Y12901D01*
G01X5589Y12923D01*
G01X5596Y12945D01*
G01X5602Y12968D01*
G01X5605Y12992D01*
G01X5606Y13016D01*
G01X5606Y13302D01*
G37*
G36*
G01X4821Y6591D02*
G01X4177Y6591D01*
G01X4177Y6553D01*
G01X4178Y6529D01*
G01X4181Y6506D01*
G01X4187Y6484D01*
G01X4194Y6462D01*
G01X4199Y6444D01*
G01X4201Y6426D01*
G01X4199Y6407D01*
G01X4194Y6390D01*
G01X4187Y6368D01*
G01X4181Y6345D01*
G01X4178Y6322D01*
G01X4177Y6299D01*
G01X4177Y6261D01*
G01X4821Y6261D01*
G01X4821Y6591D01*
G37*
G36*
G01X4821Y10502D02*
G01X4177Y10502D01*
G01X4177Y10464D01*
G01X4178Y10441D01*
G01X4181Y10418D01*
G01X4187Y10395D01*
G01X4194Y10373D01*
G01X4199Y10356D01*
G01X4201Y10337D01*
G01X4199Y10319D01*
G01X4194Y10301D01*
G01X4187Y10279D01*
G01X4181Y10257D01*
G01X4178Y10234D01*
G01X4177Y10210D01*
G01X4177Y10172D01*
G01X4821Y10172D01*
G01X4821Y10502D01*
G37*
G36*
G01X11725Y26802D02*
G01X11514Y26802D01*
G01X11514Y26359D01*
G01X11982Y26359D01*
G01X11982Y26546D01*
G01X11981Y26569D01*
G01X11978Y26593D01*
G01X11972Y26616D01*
G01X11965Y26638D01*
G01X11955Y26660D01*
G01X11944Y26681D01*
G01X11930Y26700D01*
G01X11915Y26718D01*
G01X11898Y26735D01*
G01X11880Y26750D01*
G01X11860Y26764D01*
G01X11840Y26775D01*
G01X11818Y26785D01*
G01X11796Y26792D01*
G01X11773Y26798D01*
G01X11749Y26801D01*
G01X11725Y26802D01*
G37*
G36*
G01X20870Y11054D02*
G01X20658Y11054D01*
G01X20635Y11053D01*
G01X20611Y11050D01*
G01X20588Y11044D01*
G01X20566Y11037D01*
G01X20544Y11027D01*
G01X20523Y11016D01*
G01X20504Y11002D01*
G01X20486Y10987D01*
G01X20469Y10970D01*
G01X20454Y10952D01*
G01X20440Y10933D01*
G01X20429Y10912D01*
G01X20419Y10890D01*
G01X20412Y10868D01*
G01X20406Y10845D01*
G01X20403Y10821D01*
G01X20402Y10797D01*
G01X20402Y10611D01*
G01X20870Y10611D01*
G01X20870Y11054D01*
G37*
G36*
G01X10837Y26802D02*
G01X10625Y26802D01*
G01X10602Y26801D01*
G01X10578Y26798D01*
G01X10555Y26792D01*
G01X10533Y26785D01*
G01X10511Y26775D01*
G01X10490Y26764D01*
G01X10471Y26750D01*
G01X10453Y26735D01*
G01X10436Y26718D01*
G01X10421Y26700D01*
G01X10407Y26681D01*
G01X10396Y26660D01*
G01X10386Y26638D01*
G01X10379Y26616D01*
G01X10373Y26593D01*
G01X10370Y26569D01*
G01X10369Y26546D01*
G01X10369Y26359D01*
G01X10837Y26359D01*
G01X10837Y26802D01*
G37*
G36*
G01X21759Y11054D02*
G01X21547Y11054D01*
G01X21547Y10611D01*
G01X22015Y10611D01*
G01X22015Y10797D01*
G01X22014Y10821D01*
G01X22011Y10845D01*
G01X22005Y10868D01*
G01X21998Y10890D01*
G01X21988Y10912D01*
G01X21977Y10933D01*
G01X21963Y10952D01*
G01X21948Y10970D01*
G01X21931Y10987D01*
G01X21913Y11002D01*
G01X21894Y11016D01*
G01X21873Y11027D01*
G01X21851Y11037D01*
G01X21829Y11044D01*
G01X21806Y11050D01*
G01X21782Y11053D01*
G01X21759Y11054D01*
G37*
G36*
G01X10837Y25732D02*
G01X10369Y25732D01*
G01X10369Y25546D01*
G01X10370Y25522D01*
G01X10373Y25498D01*
G01X10379Y25475D01*
G01X10386Y25453D01*
G01X10396Y25431D01*
G01X10407Y25410D01*
G01X10421Y25391D01*
G01X10436Y25373D01*
G01X10453Y25356D01*
G01X10471Y25341D01*
G01X10490Y25327D01*
G01X10511Y25316D01*
G01X10533Y25306D01*
G01X10555Y25299D01*
G01X10578Y25293D01*
G01X10602Y25290D01*
G01X10625Y25289D01*
G01X10837Y25289D01*
G01X10837Y25732D01*
G37*
G36*
G01X20870Y9984D02*
G01X20402Y9984D01*
G01X20402Y9797D01*
G01X20403Y9774D01*
G01X20406Y9750D01*
G01X20412Y9727D01*
G01X20419Y9705D01*
G01X20429Y9683D01*
G01X20440Y9662D01*
G01X20454Y9643D01*
G01X20469Y9625D01*
G01X20486Y9608D01*
G01X20504Y9593D01*
G01X20523Y9579D01*
G01X20544Y9568D01*
G01X20566Y9558D01*
G01X20588Y9551D01*
G01X20611Y9545D01*
G01X20635Y9542D01*
G01X20658Y9541D01*
G01X20870Y9541D01*
G01X20870Y9984D01*
G37*
G36*
G01X11982Y25732D02*
G01X11514Y25732D01*
G01X11514Y25289D01*
G01X11725Y25289D01*
G01X11749Y25290D01*
G01X11773Y25293D01*
G01X11796Y25299D01*
G01X11818Y25306D01*
G01X11840Y25316D01*
G01X11860Y25327D01*
G01X11880Y25341D01*
G01X11898Y25356D01*
G01X11915Y25373D01*
G01X11930Y25391D01*
G01X11944Y25410D01*
G01X11955Y25431D01*
G01X11965Y25453D01*
G01X11972Y25475D01*
G01X11978Y25498D01*
G01X11981Y25522D01*
G01X11982Y25546D01*
G01X11982Y25732D01*
G37*
G36*
G01X20140Y11023D02*
G01X19622Y11023D01*
G01X19622Y10680D01*
G01X19884Y10680D01*
G01X19907Y10681D01*
G01X19931Y10684D01*
G01X19954Y10690D01*
G01X19976Y10697D01*
G01X19998Y10707D01*
G01X20019Y10718D01*
G01X20038Y10732D01*
G01X20056Y10747D01*
G01X20073Y10764D01*
G01X20088Y10782D01*
G01X20102Y10801D01*
G01X20113Y10822D01*
G01X20123Y10844D01*
G01X20130Y10866D01*
G01X20136Y10889D01*
G01X20139Y10913D01*
G01X20140Y10936D01*
G01X20140Y11023D01*
G37*
G36*
G01X18845Y11023D02*
G01X18327Y11023D01*
G01X18327Y10936D01*
G01X18328Y10913D01*
G01X18331Y10889D01*
G01X18337Y10866D01*
G01X18344Y10844D01*
G01X18354Y10822D01*
G01X18365Y10801D01*
G01X18379Y10782D01*
G01X18394Y10764D01*
G01X18411Y10747D01*
G01X18429Y10732D01*
G01X18448Y10718D01*
G01X18469Y10707D01*
G01X18491Y10697D01*
G01X18513Y10690D01*
G01X18536Y10684D01*
G01X18560Y10681D01*
G01X18584Y10680D01*
G01X18845Y10680D01*
G01X18845Y11023D01*
G37*
G36*
G01X19884Y11793D02*
G01X19622Y11793D01*
G01X19622Y11450D01*
G01X20140Y11450D01*
G01X20140Y11536D01*
G01X20139Y11560D01*
G01X20136Y11584D01*
G01X20130Y11607D01*
G01X20123Y11629D01*
G01X20113Y11651D01*
G01X20102Y11672D01*
G01X20088Y11691D01*
G01X20073Y11709D01*
G01X20056Y11726D01*
G01X20038Y11741D01*
G01X20019Y11755D01*
G01X19998Y11766D01*
G01X19976Y11776D01*
G01X19954Y11783D01*
G01X19931Y11789D01*
G01X19907Y11792D01*
G01X19884Y11793D01*
G37*
G36*
G01X18845Y11793D02*
G01X18584Y11793D01*
G01X18560Y11792D01*
G01X18536Y11789D01*
G01X18513Y11783D01*
G01X18491Y11776D01*
G01X18469Y11766D01*
G01X18448Y11755D01*
G01X18429Y11741D01*
G01X18411Y11726D01*
G01X18394Y11709D01*
G01X18379Y11691D01*
G01X18365Y11672D01*
G01X18354Y11651D01*
G01X18344Y11629D01*
G01X18337Y11607D01*
G01X18331Y11584D01*
G01X18328Y11560D01*
G01X18327Y11536D01*
G01X18327Y11450D01*
G01X18845Y11450D01*
G01X18845Y11793D01*
G37*
G36*
G01X18337Y6586D02*
G01X18076Y6586D01*
G01X18052Y6585D01*
G01X18028Y6582D01*
G01X18005Y6576D01*
G01X17983Y6569D01*
G01X17961Y6559D01*
G01X17940Y6548D01*
G01X17921Y6534D01*
G01X17903Y6519D01*
G01X17886Y6502D01*
G01X17871Y6484D01*
G01X17857Y6465D01*
G01X17846Y6444D01*
G01X17836Y6422D01*
G01X17829Y6400D01*
G01X17823Y6377D01*
G01X17820Y6353D01*
G01X17819Y6329D01*
G01X17819Y6243D01*
G01X18337Y6243D01*
G01X18337Y6586D01*
G37*

%LPD*%
G54D10*
G01X7950Y13716D02*
G01X8204Y13462D01*
G01X10021Y13462D01*
G01X12793Y18778D02*
G01X12793Y20099D01*
G01X12573Y20320D01*
G01X9525Y20320D01*
G01X8636Y21209D01*
G01X13441Y18778D02*
G01X13441Y20213D01*
G01X12827Y20828D01*
G01X10033Y20828D01*
G01X8636Y22225D01*
G01X8001Y22225D01*
G01X19959Y14163D02*
G01X20132Y14163D01*
G01X22352Y16383D01*
G01X22352Y23114D01*
G01X20594Y24871D01*
G01X20594Y25925D01*
G01X18161Y14820D02*
G01X18453Y15113D01*
G01X20447Y15113D01*
G01X21844Y16510D01*
G01X21844Y22987D01*
G01X19944Y24886D01*
G01X19944Y25925D01*
G01X14859Y8724D02*
G01X15328Y8255D01*
G01X20828Y8255D01*
G01X21071Y8498D01*
G01X21209Y8498D01*
G01X21209Y8497D02*
G01X22860Y10148D01*
G01X22860Y12954D01*
G01X18725Y4130D02*
G01X17013Y5842D01*
G01X14097Y5842D01*
G01X13716Y6223D01*
G01X13716Y6731D01*
G01X13030Y7416D01*
G01X11936Y7416D01*
G54D11*
G01X8566Y16890D02*
G01X9454Y16002D01*
G01X9525Y16002D01*
G01X6166Y15940D02*
G01X4191Y17915D01*
G01X4191Y22098D01*
G01X2540Y23749D01*
G01X1905Y23749D01*
G01X6166Y15940D02*
G01X7950Y14156D01*
G01X7950Y13716D01*
G54D10*
G01X8566Y16890D02*
G01X9455Y17780D01*
G01X11684Y17780D01*
G01X12942Y16521D01*
G01X14097Y16521D01*
G01X6166Y17840D02*
G01X8804Y15202D01*
G01X10922Y15202D01*
G01X14244Y12446D02*
G01X14244Y12806D01*
G01X11849Y15201D01*
G01X10922Y15201D01*
G01X21243Y25927D02*
G01X22225Y24945D01*
G01X22225Y24892D01*
G01X11176Y24245D02*
G01X14092Y21328D01*
G01X14092Y18776D01*
G01X19293Y25927D02*
G01X19293Y23992D01*
G01X18796Y23495D01*
G01X11926Y23495D01*
G01X11176Y24245D01*
G01X18643Y25927D02*
G01X18669Y25901D01*
G01X18669Y24511D01*
G01X24765Y23749D02*
G01X23114Y22098D01*
G01X23114Y17653D01*
G01X16129Y16521D02*
G01X16042Y16607D01*
G01X16042Y18776D01*
G01X22458Y15113D02*
G01X22458Y15600D01*
G01X24765Y17907D01*
G01X24765Y18669D01*
G01X16743Y13395D02*
G01X18161Y14820D01*
G01X19959Y16062D02*
G01X18519Y16062D01*
G01X18161Y16421D01*
G01X18377Y12954D02*
G01X16919Y11496D01*
G01X16743Y11496D01*
G01X19976Y12954D02*
G01X19959Y12971D01*
G01X19959Y14163D01*
G01X14097Y16521D02*
G01X16129Y16521D01*
G54D11*
G01X14859Y8724D02*
G01X14859Y6642D01*
G54D10*
G01X14859Y10324D02*
G01X14896Y10287D01*
G01X16834Y10287D01*
G01X11935Y10668D02*
G01X14515Y10668D01*
G01X14859Y10324D01*
G01X11935Y10007D02*
G01X13360Y10007D01*
G01X13843Y9525D01*
G01X19045Y9525D01*
G01X19233Y9337D01*
G01X16326Y5080D02*
G01X16288Y5042D01*
G01X14859Y5042D01*
G01X11935Y6756D02*
G01X12928Y6756D01*
G01X13208Y6477D01*
G01X13208Y5461D01*
G01X13626Y5042D01*
G01X14859Y5042D01*
G54D11*
G01X12004Y8712D02*
G01X14859Y8724D01*
G01X11935Y9347D02*
G01X11935Y8712D01*
G01X11935Y4800D02*
G01X11935Y5461D01*
G01X11935Y4800D02*
G01X13053Y3683D01*
G01X16637Y3683D01*
G01X18161Y2159D01*
G54D10*
G01X10414Y6096D02*
G01X11935Y6096D01*
G01X10414Y7493D02*
G01X10490Y7416D01*
G01X11935Y7416D01*
G01X10414Y10033D02*
G01X10439Y10007D01*
G01X11935Y10007D01*
G01X10414Y11303D02*
G01X11935Y11303D01*
G54D11*
G01X5336Y8712D02*
G01X6400Y8712D01*
G01X7747Y7366D01*
G01X7747Y4699D01*
G01X10287Y2159D01*
G01X5336Y7416D02*
G01X6680Y7416D01*
G01X6985Y7112D01*
G01X6985Y4318D01*
G01X7747Y3556D01*
G01X7747Y2159D01*
G01X5336Y11303D02*
G01X6604Y11303D01*
G01X7112Y10795D01*
G01X7112Y9144D01*
G01X8509Y7747D01*
G01X8509Y5207D01*
G01X10033Y3683D01*
G01X11303Y3683D01*
G01X12827Y2159D01*
G01X11936Y11963D02*
G01X11520Y11963D01*
G01X10021Y13462D01*
G01X11936Y4800D02*
G01X11910Y4826D01*
G01X10033Y4826D01*
G01X9271Y5588D01*
G01X9271Y12711D01*
G01X10021Y13462D01*
G01X5336Y11963D02*
G01X5336Y11303D01*
G01X5336Y4800D02*
G01X5336Y2288D01*
G01X5207Y2159D01*
G01X5336Y9347D02*
G01X5336Y8712D01*
G01X5336Y8051D02*
G01X5336Y7416D01*
G01X5336Y5461D02*
G01X5336Y4800D01*
G54D10*
G01X1905Y13589D02*
G01X3429Y12065D01*
G01X3429Y9906D01*
G54D11*
G01X12003Y8712D02*
G01X11935Y8712D01*
G54D10*
G01X24765Y23749D02*
G01X24765Y23495D01*
G54D13*
G01X14097Y16521D03*
G01X14097Y14720D03*
G01X10922Y15202D03*
G01X10922Y16801D03*
G54D14*
G01X21243Y25927D03*
G01X20593Y25927D03*
G01X19943Y25927D03*
G01X19293Y25927D03*
G01X18643Y25927D03*
G01X17993Y25927D03*
G01X17342Y25927D03*
G01X16692Y25927D03*
G01X16042Y25927D03*
G01X15392Y25927D03*
G01X14742Y25927D03*
G01X14092Y25927D03*
G01X13442Y25927D03*
G01X12792Y25927D03*
G01X12792Y18776D03*
G01X13442Y18776D03*
G01X14092Y18776D03*
G01X14742Y18776D03*
G01X15392Y18776D03*
G01X16042Y18776D03*
G01X16692Y18776D03*
G01X17342Y18776D03*
G01X17993Y18776D03*
G01X18643Y18776D03*
G01X19293Y18776D03*
G01X19943Y18776D03*
G01X20593Y18776D03*
G01X21243Y18776D03*
G54D15*
G01X19976Y12954D03*
G01X18377Y12954D03*
G54D13*
G01X18161Y14821D03*
G01X18161Y16420D03*
G54D16*
G01X6166Y15940D03*
G01X8566Y16890D03*
G01X6166Y17840D03*
G54D17*
G01X14244Y12446D03*
G01X16743Y13395D03*
G01X16743Y11496D03*
G01X22458Y15113D03*
G01X19959Y14163D03*
G01X19959Y16062D03*
G54D13*
G01X16129Y16521D03*
G01X16129Y14720D03*
G01X11176Y24245D03*
G01X11176Y26046D03*
G54D16*
G01X19233Y11236D03*
G01X16834Y10287D03*
G01X19233Y9337D03*
G01X18725Y6029D03*
G01X16326Y5080D03*
G01X18725Y4130D03*
G54D18*
G01X7950Y13716D03*
G01X4749Y13716D03*
G54D13*
G01X14859Y8724D03*
G01X14859Y10324D03*
G01X14859Y6642D03*
G01X14859Y5042D03*
G54D19*
G01X5336Y11963D03*
G01X5336Y11303D03*
G01X5336Y10668D03*
G01X5336Y10007D03*
G01X5336Y9347D03*
G01X5336Y8712D03*
G01X5336Y8051D03*
G01X5336Y7416D03*
G01X5336Y6756D03*
G01X5336Y6096D03*
G01X5336Y5461D03*
G01X5336Y4800D03*
G01X11935Y4800D03*
G01X11935Y5461D03*
G01X11935Y6096D03*
G01X11935Y6756D03*
G01X11935Y7416D03*
G01X11935Y8051D03*
G01X11935Y8712D03*
G01X11935Y9347D03*
G01X11935Y10007D03*
G01X11935Y10668D03*
G01X11935Y11303D03*
G01X11935Y11963D03*
G54D15*
G01X11821Y13462D03*
G01X10021Y13462D03*
G54D13*
G01X21209Y10297D03*
G01X21209Y8497D03*
G54D20*
G01X22580Y5969D03*
G01X20599Y5969D03*
G54D21*
G01X15621Y2159D03*
G01X18161Y2159D03*
G54D22*
G01X20701Y2159D03*
G01X24765Y23749D03*
G54D21*
G01X24765Y21209D03*
G01X24765Y18669D03*
G01X24765Y16129D03*
G01X24765Y13589D03*
G01X24765Y11049D03*
G01X24765Y8509D03*
G01X24765Y5969D03*
G54D22*
G01X1905Y5969D03*
G54D21*
G01X1905Y8509D03*
G01X1905Y11049D03*
G01X1905Y13589D03*
G01X1905Y16129D03*
G01X1905Y18669D03*
G01X1905Y21209D03*
G01X1905Y23749D03*
G01X5207Y2159D03*
G01X7747Y2159D03*
G01X10287Y2159D03*
G54D22*
G01X12827Y2159D03*
G54D12*
G01X14859Y20447D03*
G01X9525Y16002D03*
G01X10414Y8890D03*
G01X22225Y24892D03*
G01X8636Y21209D03*
G01X8001Y22225D03*
G01X18669Y24511D03*
G01X22860Y12954D03*
G01X3429Y9906D03*
G01X10414Y7493D03*
G01X10414Y6096D03*
G01X10414Y10033D03*
G01X10414Y11303D03*
G01X23114Y17653D03*
M00*
M02*
