G04 Layer: TopSolderMaskLayer*
G04 EasyEDA v6.4.0, 2020-07-20T23:37:23+02:00*
G04 8414f0393b39484c82beb45b477d05cc,d798ca008b2c48fc9d28453cf4f639a5,10*
G04 Gerber Generator version 0.2*
G04 Scale: 100 percent, Rotated: No, Reflected: No *
G04 Dimensions in millimeters *
G04 leading zeros omitted , absolute positions ,3 integer and 3 decimal *
%FSLAX33Y33*%
%MOMM*%
G90*
G71D02*

%ADD34C,2.003196*%

%LPD*%
G36*
G01X21879Y4787D02*
G01X21879Y7150D01*
G01X23281Y7150D01*
G01X23281Y4787D01*
G01X21879Y4787D01*
G37*
G36*
G01X19898Y4787D02*
G01X19898Y7150D01*
G01X21300Y7150D01*
G01X21300Y4787D01*
G01X19898Y4787D01*
G37*
G36*
G01X13444Y15918D02*
G01X13444Y17122D01*
G01X14749Y17122D01*
G01X14749Y15918D01*
G01X13444Y15918D01*
G37*
G36*
G01X13444Y14119D02*
G01X13444Y15321D01*
G01X14749Y15321D01*
G01X14749Y14119D01*
G01X13444Y14119D01*
G37*
G36*
G01X10269Y14599D02*
G01X10269Y15803D01*
G01X11574Y15803D01*
G01X11574Y14599D01*
G01X10269Y14599D01*
G37*
G36*
G01X10269Y16200D02*
G01X10269Y17404D01*
G01X11574Y17404D01*
G01X11574Y16200D01*
G01X10269Y16200D01*
G37*
G36*
G01X20937Y24922D02*
G01X20937Y26929D01*
G01X21546Y26929D01*
G01X21546Y24922D01*
G01X20937Y24922D01*
G37*
G36*
G01X20286Y24922D02*
G01X20286Y26929D01*
G01X20896Y26929D01*
G01X20896Y24922D01*
G01X20286Y24922D01*
G37*
G36*
G01X19639Y24922D02*
G01X19639Y26929D01*
G01X20248Y26929D01*
G01X20248Y24922D01*
G01X19639Y24922D01*
G37*
G36*
G01X18989Y24922D02*
G01X18989Y26929D01*
G01X19598Y26929D01*
G01X19598Y24922D01*
G01X18989Y24922D01*
G37*
G36*
G01X18338Y24922D02*
G01X18338Y26929D01*
G01X18948Y26929D01*
G01X18948Y24922D01*
G01X18338Y24922D01*
G37*
G36*
G01X17688Y24922D02*
G01X17688Y26929D01*
G01X18298Y26929D01*
G01X18298Y24922D01*
G01X17688Y24922D01*
G37*
G36*
G01X17038Y24922D02*
G01X17038Y26929D01*
G01X17647Y26929D01*
G01X17647Y24922D01*
G01X17038Y24922D01*
G37*
G36*
G01X16388Y24922D02*
G01X16388Y26929D01*
G01X16997Y26929D01*
G01X16997Y24922D01*
G01X16388Y24922D01*
G37*
G36*
G01X15737Y24922D02*
G01X15737Y26929D01*
G01X16347Y26929D01*
G01X16347Y24922D01*
G01X15737Y24922D01*
G37*
G36*
G01X15087Y24922D02*
G01X15087Y26929D01*
G01X15697Y26929D01*
G01X15697Y24922D01*
G01X15087Y24922D01*
G37*
G36*
G01X14437Y24922D02*
G01X14437Y26929D01*
G01X15046Y26929D01*
G01X15046Y24922D01*
G01X14437Y24922D01*
G37*
G36*
G01X13787Y24922D02*
G01X13787Y26929D01*
G01X14396Y26929D01*
G01X14396Y24922D01*
G01X13787Y24922D01*
G37*
G36*
G01X13139Y24922D02*
G01X13139Y26929D01*
G01X13749Y26929D01*
G01X13749Y24922D01*
G01X13139Y24922D01*
G37*
G36*
G01X12489Y24922D02*
G01X12489Y26929D01*
G01X13098Y26929D01*
G01X13098Y24922D01*
G01X12489Y24922D01*
G37*
G36*
G01X12489Y17774D02*
G01X12489Y19781D01*
G01X13098Y19781D01*
G01X13098Y17774D01*
G01X12489Y17774D01*
G37*
G36*
G01X13139Y17774D02*
G01X13139Y19781D01*
G01X13749Y19781D01*
G01X13749Y17774D01*
G01X13139Y17774D01*
G37*
G36*
G01X13787Y17774D02*
G01X13787Y19781D01*
G01X14396Y19781D01*
G01X14396Y17774D01*
G01X13787Y17774D01*
G37*
G36*
G01X14437Y17774D02*
G01X14437Y19781D01*
G01X15046Y19781D01*
G01X15046Y17774D01*
G01X14437Y17774D01*
G37*
G36*
G01X15087Y17774D02*
G01X15087Y19781D01*
G01X15697Y19781D01*
G01X15697Y17774D01*
G01X15087Y17774D01*
G37*
G36*
G01X15737Y17774D02*
G01X15737Y19781D01*
G01X16347Y19781D01*
G01X16347Y17774D01*
G01X15737Y17774D01*
G37*
G36*
G01X16388Y17774D02*
G01X16388Y19781D01*
G01X16997Y19781D01*
G01X16997Y17774D01*
G01X16388Y17774D01*
G37*
G36*
G01X17038Y17774D02*
G01X17038Y19781D01*
G01X17647Y19781D01*
G01X17647Y17774D01*
G01X17038Y17774D01*
G37*
G36*
G01X17688Y17774D02*
G01X17688Y19781D01*
G01X18298Y19781D01*
G01X18298Y17774D01*
G01X17688Y17774D01*
G37*
G36*
G01X18338Y17774D02*
G01X18338Y19781D01*
G01X18948Y19781D01*
G01X18948Y17774D01*
G01X18338Y17774D01*
G37*
G36*
G01X18989Y17774D02*
G01X18989Y19781D01*
G01X19598Y19781D01*
G01X19598Y17774D01*
G01X18989Y17774D01*
G37*
G36*
G01X19639Y17774D02*
G01X19639Y19781D01*
G01X20248Y19781D01*
G01X20248Y17774D01*
G01X19639Y17774D01*
G37*
G36*
G01X20286Y17774D02*
G01X20286Y19781D01*
G01X20896Y19781D01*
G01X20896Y17774D01*
G01X20286Y17774D01*
G37*
G36*
G01X20937Y17774D02*
G01X20937Y19781D01*
G01X21546Y19781D01*
G01X21546Y17774D01*
G01X20937Y17774D01*
G37*
G36*
G01X19375Y12301D02*
G01X19375Y13606D01*
G01X20579Y13606D01*
G01X20579Y12301D01*
G01X19375Y12301D01*
G37*
G36*
G01X17774Y12301D02*
G01X17774Y13606D01*
G01X18978Y13606D01*
G01X18978Y12301D01*
G01X17774Y12301D01*
G37*
G36*
G01X17508Y14218D02*
G01X17508Y15422D01*
G01X18813Y15422D01*
G01X18813Y14218D01*
G01X17508Y14218D01*
G37*
G36*
G01X17508Y15819D02*
G01X17508Y17023D01*
G01X18813Y17023D01*
G01X18813Y15819D01*
G01X17508Y15819D01*
G37*
G36*
G01X5415Y15539D02*
G01X5415Y16342D01*
G01X6916Y16342D01*
G01X6916Y15539D01*
G01X5415Y15539D01*
G37*
G36*
G01X7815Y16489D02*
G01X7815Y17292D01*
G01X9316Y17292D01*
G01X9316Y16489D01*
G01X7815Y16489D01*
G37*
G36*
G01X5415Y17439D02*
G01X5415Y18242D01*
G01X6916Y18242D01*
G01X6916Y17439D01*
G01X5415Y17439D01*
G37*
G36*
G01X13517Y11993D02*
G01X13517Y12898D01*
G01X14970Y12898D01*
G01X14970Y11993D01*
G01X13517Y11993D01*
G37*
G36*
G01X16017Y12943D02*
G01X16017Y13848D01*
G01X17470Y13848D01*
G01X17470Y12943D01*
G01X16017Y12943D01*
G37*
G36*
G01X16017Y11043D02*
G01X16017Y11948D01*
G01X17470Y11948D01*
G01X17470Y11043D01*
G01X16017Y11043D01*
G37*
G36*
G01X21732Y14660D02*
G01X21732Y15565D01*
G01X23185Y15565D01*
G01X23185Y14660D01*
G01X21732Y14660D01*
G37*
G36*
G01X19232Y13710D02*
G01X19232Y14615D01*
G01X20685Y14615D01*
G01X20685Y13710D01*
G01X19232Y13710D01*
G37*
G36*
G01X19232Y15610D02*
G01X19232Y16515D01*
G01X20685Y16515D01*
G01X20685Y15610D01*
G01X19232Y15610D01*
G37*
G36*
G01X15476Y15918D02*
G01X15476Y17122D01*
G01X16781Y17122D01*
G01X16781Y15918D01*
G01X15476Y15918D01*
G37*
G36*
G01X15476Y14119D02*
G01X15476Y15321D01*
G01X16781Y15321D01*
G01X16781Y14119D01*
G01X15476Y14119D01*
G37*
G36*
G01X10523Y23644D02*
G01X10523Y24848D01*
G01X11828Y24848D01*
G01X11828Y23644D01*
G01X10523Y23644D01*
G37*
G36*
G01X10523Y25445D02*
G01X10523Y26647D01*
G01X11828Y26647D01*
G01X11828Y25445D01*
G01X10523Y25445D01*
G37*
G54D34*
G01X15621Y2159D03*
G01X18161Y2159D03*
G36*
G01X19700Y1158D02*
G01X19700Y3159D01*
G01X21701Y3159D01*
G01X21701Y1158D01*
G01X19700Y1158D01*
G37*
G36*
G01X18483Y10835D02*
G01X18483Y11638D01*
G01X19984Y11638D01*
G01X19984Y10835D01*
G01X18483Y10835D01*
G37*
G36*
G01X16083Y9885D02*
G01X16083Y10688D01*
G01X17584Y10688D01*
G01X17584Y9885D01*
G01X16083Y9885D01*
G37*
G36*
G01X18483Y8935D02*
G01X18483Y9738D01*
G01X19984Y9738D01*
G01X19984Y8935D01*
G01X18483Y8935D01*
G37*
G36*
G01X17975Y5628D02*
G01X17975Y6431D01*
G01X19476Y6431D01*
G01X19476Y5628D01*
G01X17975Y5628D01*
G37*
G36*
G01X15575Y4678D02*
G01X15575Y5481D01*
G01X17076Y5481D01*
G01X17076Y4678D01*
G01X15575Y4678D01*
G37*
G36*
G01X17975Y3728D02*
G01X17975Y4531D01*
G01X19476Y4531D01*
G01X19476Y3728D01*
G01X17975Y3728D01*
G37*
G36*
G01X7249Y12913D02*
G01X7249Y14518D01*
G01X8651Y14518D01*
G01X8651Y12913D01*
G01X7249Y12913D01*
G37*
G36*
G01X4048Y12913D02*
G01X4048Y14518D01*
G01X5450Y14518D01*
G01X5450Y12913D01*
G01X4048Y12913D01*
G37*
G36*
G01X23764Y22748D02*
G01X23764Y24749D01*
G01X25765Y24749D01*
G01X25765Y22748D01*
G01X23764Y22748D01*
G37*
G01X24765Y21209D03*
G01X24765Y18669D03*
G01X24765Y16129D03*
G01X24765Y13589D03*
G01X24765Y11049D03*
G01X24765Y8509D03*
G01X24765Y5969D03*
G36*
G01X904Y4968D02*
G01X904Y6969D01*
G01X2905Y6969D01*
G01X2905Y4968D01*
G01X904Y4968D01*
G37*
G01X1905Y8509D03*
G01X1905Y11049D03*
G01X1905Y13589D03*
G01X1905Y16129D03*
G01X1905Y18669D03*
G01X1905Y21209D03*
G01X1905Y23749D03*
G36*
G01X14206Y8122D02*
G01X14206Y9326D01*
G01X15511Y9326D01*
G01X15511Y8122D01*
G01X14206Y8122D01*
G37*
G36*
G01X14206Y9723D02*
G01X14206Y10927D01*
G01X15511Y10927D01*
G01X15511Y9723D01*
G01X14206Y9723D01*
G37*
G36*
G01X14206Y6040D02*
G01X14206Y7244D01*
G01X15511Y7244D01*
G01X15511Y6040D01*
G01X14206Y6040D01*
G37*
G36*
G01X14206Y4439D02*
G01X14206Y5643D01*
G01X15511Y5643D01*
G01X15511Y4439D01*
G01X14206Y4439D01*
G37*
G36*
G01X4333Y11658D02*
G01X4333Y12268D01*
G01X6339Y12268D01*
G01X6339Y11658D01*
G01X4333Y11658D01*
G37*
G36*
G01X4333Y10998D02*
G01X4333Y11607D01*
G01X6339Y11607D01*
G01X6339Y10998D01*
G01X4333Y10998D01*
G37*
G36*
G01X4333Y10363D02*
G01X4333Y10972D01*
G01X6339Y10972D01*
G01X6339Y10363D01*
G01X4333Y10363D01*
G37*
G36*
G01X4333Y9702D02*
G01X4333Y10312D01*
G01X6339Y10312D01*
G01X6339Y9702D01*
G01X4333Y9702D01*
G37*
G36*
G01X4333Y9042D02*
G01X4333Y9652D01*
G01X6339Y9652D01*
G01X6339Y9042D01*
G01X4333Y9042D01*
G37*
G36*
G01X4333Y8407D02*
G01X4333Y9017D01*
G01X6339Y9017D01*
G01X6339Y8407D01*
G01X4333Y8407D01*
G37*
G36*
G01X4333Y7747D02*
G01X4333Y8356D01*
G01X6339Y8356D01*
G01X6339Y7747D01*
G01X4333Y7747D01*
G37*
G36*
G01X4333Y7112D02*
G01X4333Y7721D01*
G01X6339Y7721D01*
G01X6339Y7112D01*
G01X4333Y7112D01*
G37*
G36*
G01X4333Y6451D02*
G01X4333Y7061D01*
G01X6339Y7061D01*
G01X6339Y6451D01*
G01X4333Y6451D01*
G37*
G36*
G01X4333Y5791D02*
G01X4333Y6400D01*
G01X6339Y6400D01*
G01X6339Y5791D01*
G01X4333Y5791D01*
G37*
G36*
G01X4333Y5156D02*
G01X4333Y5765D01*
G01X6339Y5765D01*
G01X6339Y5156D01*
G01X4333Y5156D01*
G37*
G36*
G01X4333Y4495D02*
G01X4333Y5105D01*
G01X6339Y5105D01*
G01X6339Y4495D01*
G01X4333Y4495D01*
G37*
G36*
G01X10932Y4495D02*
G01X10932Y5105D01*
G01X12938Y5105D01*
G01X12938Y4495D01*
G01X10932Y4495D01*
G37*
G36*
G01X10932Y5156D02*
G01X10932Y5765D01*
G01X12938Y5765D01*
G01X12938Y5156D01*
G01X10932Y5156D01*
G37*
G36*
G01X10932Y5791D02*
G01X10932Y6400D01*
G01X12938Y6400D01*
G01X12938Y5791D01*
G01X10932Y5791D01*
G37*
G36*
G01X10932Y6451D02*
G01X10932Y7061D01*
G01X12938Y7061D01*
G01X12938Y6451D01*
G01X10932Y6451D01*
G37*
G36*
G01X10932Y7112D02*
G01X10932Y7721D01*
G01X12938Y7721D01*
G01X12938Y7112D01*
G01X10932Y7112D01*
G37*
G36*
G01X10932Y7747D02*
G01X10932Y8356D01*
G01X12938Y8356D01*
G01X12938Y7747D01*
G01X10932Y7747D01*
G37*
G36*
G01X10932Y8407D02*
G01X10932Y9017D01*
G01X12938Y9017D01*
G01X12938Y8407D01*
G01X10932Y8407D01*
G37*
G36*
G01X10932Y9042D02*
G01X10932Y9652D01*
G01X12938Y9652D01*
G01X12938Y9042D01*
G01X10932Y9042D01*
G37*
G36*
G01X10932Y9702D02*
G01X10932Y10312D01*
G01X12938Y10312D01*
G01X12938Y9702D01*
G01X10932Y9702D01*
G37*
G36*
G01X10932Y10363D02*
G01X10932Y10972D01*
G01X12938Y10972D01*
G01X12938Y10363D01*
G01X10932Y10363D01*
G37*
G36*
G01X10932Y10998D02*
G01X10932Y11607D01*
G01X12938Y11607D01*
G01X12938Y10998D01*
G01X10932Y10998D01*
G37*
G36*
G01X10932Y11658D02*
G01X10932Y12268D01*
G01X12938Y12268D01*
G01X12938Y11658D01*
G01X10932Y11658D01*
G37*
G36*
G01X11219Y12809D02*
G01X11219Y14114D01*
G01X12423Y14114D01*
G01X12423Y12809D01*
G01X11219Y12809D01*
G37*
G36*
G01X9420Y12809D02*
G01X9420Y14114D01*
G01X10622Y14114D01*
G01X10622Y12809D01*
G01X9420Y12809D01*
G37*
G36*
G01X20556Y9695D02*
G01X20556Y10899D01*
G01X21861Y10899D01*
G01X21861Y9695D01*
G01X20556Y9695D01*
G37*
G36*
G01X20556Y7896D02*
G01X20556Y9098D01*
G01X21861Y9098D01*
G01X21861Y7896D01*
G01X20556Y7896D01*
G37*
G01X5207Y2159D03*
G01X7747Y2159D03*
G01X10287Y2159D03*
G36*
G01X11826Y1158D02*
G01X11826Y3159D01*
G01X13827Y3159D01*
G01X13827Y1158D01*
G01X11826Y1158D01*
G37*
M00*
M02*
