G04 Layer: TopSilkLayer*
G04 EasyEDA v6.4.0, 2020-07-20T23:37:23+02:00*
G04 8414f0393b39484c82beb45b477d05cc,d798ca008b2c48fc9d28453cf4f639a5,10*
G04 Gerber Generator version 0.2*
G04 Scale: 100 percent, Rotated: No, Reflected: No *
G04 Dimensions in millimeters *
G04 leading zeros omitted , absolute positions ,3 integer and 3 decimal *
%FSLAX33Y33*%
%MOMM*%
G90*
G71D02*

%ADD10C,0.254000*%
%ADD25C,0.200000*%
%ADD26C,0.203200*%
%ADD27C,0.152400*%

%LPD*%
G54D10*
G01X24536Y3632D02*
G01X18694Y3632D01*
G01X18694Y3632D02*
G01X18694Y8128D01*
G01X18694Y8128D02*
G01X24536Y8128D01*
G01X24536Y8128D02*
G01X24536Y3632D01*
G01X14697Y13970D02*
G01X13497Y13970D01*
G01X14897Y16020D02*
G01X14897Y17020D01*
G01X13296Y16020D02*
G01X13296Y17020D01*
G01X14897Y15220D02*
G01X14897Y14221D01*
G01X13296Y15220D02*
G01X13296Y14221D01*
G01X14697Y17271D02*
G01X13497Y17271D01*
G01X14897Y17071D02*
G01X14897Y17020D01*
G01X13296Y17070D02*
G01X13296Y17020D01*
G01X14897Y14170D02*
G01X14897Y14221D01*
G01X13296Y14171D02*
G01X13296Y14221D01*
G01X11722Y17551D02*
G01X10121Y17551D01*
G01X10127Y15701D02*
G01X10127Y14451D01*
G01X11727Y15701D02*
G01X11727Y14451D01*
G01X10121Y16301D02*
G01X10121Y17551D01*
G01X11722Y16301D02*
G01X11722Y17551D01*
G01X11727Y14451D02*
G01X10127Y14451D01*
G01X11918Y25002D02*
G01X11918Y19701D01*
G01X22117Y19701D02*
G01X22117Y21590D01*
G01X22117Y25002D02*
G01X22117Y23114D01*
G01X22117Y19701D02*
G01X21676Y19701D01*
G01X12359Y19701D02*
G01X11918Y19701D01*
G01X11918Y25002D02*
G01X12359Y25002D01*
G01X21676Y25002D02*
G01X22117Y25002D01*
G01X17627Y13754D02*
G01X17627Y12153D01*
G01X19477Y12159D02*
G01X20727Y12159D01*
G01X19477Y13759D02*
G01X20727Y13759D01*
G01X18877Y12153D02*
G01X17627Y12153D01*
G01X18877Y13754D02*
G01X17627Y13754D01*
G01X20727Y13759D02*
G01X20727Y12159D01*
G01X18961Y17170D02*
G01X17360Y17170D01*
G01X17366Y15320D02*
G01X17366Y14070D01*
G01X18966Y15320D02*
G01X18966Y14070D01*
G01X17360Y15920D02*
G01X17360Y17170D01*
G01X18961Y15920D02*
G01X18961Y17170D01*
G01X18966Y14070D02*
G01X17366Y14070D01*
G01X6666Y17204D02*
G01X6666Y16577D01*
G01X8065Y18390D02*
G01X8065Y17526D01*
G01X8065Y16255D02*
G01X8065Y15391D01*
G01X8065Y18390D02*
G01X7065Y18390D01*
G01X8065Y15391D02*
G01X7065Y15391D01*
G01X15659Y10986D02*
G01X14844Y10986D01*
G01X14844Y11645D01*
G01X14844Y13246D02*
G01X14844Y13905D01*
G01X14844Y13246D01*
G01X14844Y13905D01*
G01X15659Y13905D01*
G54D25*
G01X16393Y12146D02*
G01X16393Y12745D01*
G54D10*
G01X21043Y16572D02*
G01X21858Y16572D01*
G01X21858Y15913D01*
G01X21858Y14312D02*
G01X21858Y13653D01*
G01X21858Y14312D01*
G01X21858Y13653D01*
G01X21043Y13653D01*
G54D25*
G01X20309Y15412D02*
G01X20309Y14813D01*
G54D10*
G01X16729Y13970D02*
G01X15529Y13970D01*
G01X16929Y16020D02*
G01X16929Y17020D01*
G01X15328Y16020D02*
G01X15328Y17020D01*
G01X16929Y15220D02*
G01X16929Y14221D01*
G01X15328Y15220D02*
G01X15328Y14221D01*
G01X16729Y17271D02*
G01X15529Y17271D01*
G01X16929Y17071D02*
G01X16929Y17020D01*
G01X15328Y17070D02*
G01X15328Y17020D01*
G01X16929Y14170D02*
G01X16929Y14221D01*
G01X15328Y14171D02*
G01X15328Y14221D01*
G01X10575Y26796D02*
G01X11775Y26796D01*
G01X10375Y24746D02*
G01X10375Y23746D01*
G01X11976Y24746D02*
G01X11976Y23746D01*
G01X10375Y25546D02*
G01X10375Y26545D01*
G01X11976Y25546D02*
G01X11976Y26545D01*
G01X10575Y23495D02*
G01X11775Y23495D01*
G01X10375Y23695D02*
G01X10375Y23746D01*
G01X11976Y23696D02*
G01X11976Y23746D01*
G01X10375Y26596D02*
G01X10375Y26545D01*
G01X11976Y26595D02*
G01X11976Y26545D01*
G01X15621Y-1651D02*
G01X15621Y-8001D01*
G01X18161Y-1651D02*
G01X18161Y-8001D01*
G01X20701Y-1651D02*
G01X20701Y-8001D01*
G01X21971Y-1651D02*
G01X14351Y-1651D01*
G01X14351Y889D01*
G01X21971Y889D01*
G01X21971Y-1651D01*
G01X18733Y9973D02*
G01X18733Y10600D01*
G01X17334Y8787D02*
G01X17334Y9651D01*
G01X17334Y10922D02*
G01X17334Y11786D01*
G01X17334Y8787D02*
G01X18334Y8787D01*
G01X17334Y11786D02*
G01X18334Y11786D01*
G01X18225Y4766D02*
G01X18225Y5393D01*
G01X16826Y3580D02*
G01X16826Y4444D01*
G01X16826Y5715D02*
G01X16826Y6579D01*
G01X16826Y3580D02*
G01X17826Y3580D01*
G01X16826Y6579D02*
G01X17826Y6579D01*
G01X7950Y14859D02*
G01X6478Y14859D01*
G01X6478Y14859D01*
G01X4750Y14859D01*
G01X7949Y12573D02*
G01X4749Y12573D01*
G01X7949Y12573D02*
G01X7949Y12784D01*
G01X7949Y14647D02*
G01X7949Y14859D01*
G01X4749Y12573D02*
G01X4749Y12784D01*
G01X4749Y14647D02*
G01X4749Y14859D01*
G01X7039Y12573D02*
G01X7039Y14859D01*
G01X25984Y25268D02*
G01X25984Y4449D01*
G01X25984Y4449D02*
G01X23545Y4449D01*
G01X23545Y4449D02*
G01X23545Y25268D01*
G01X23545Y25268D02*
G01X25984Y25268D01*
G01X685Y4449D02*
G01X685Y25268D01*
G01X685Y25268D02*
G01X3124Y25268D01*
G01X3124Y25268D02*
G01X3124Y4449D01*
G01X3124Y4449D02*
G01X685Y4449D01*
G01X15659Y11074D02*
G01X14058Y11074D01*
G01X14064Y9224D02*
G01X14064Y7974D01*
G01X15664Y9224D02*
G01X15664Y7974D01*
G01X14058Y9824D02*
G01X14058Y11074D01*
G01X15659Y9824D02*
G01X15659Y11074D01*
G01X15664Y7974D02*
G01X14064Y7974D01*
G01X14058Y4292D02*
G01X15659Y4292D01*
G01X15653Y6142D02*
G01X15653Y7392D01*
G01X14053Y6142D02*
G01X14053Y7392D01*
G01X15659Y5542D02*
G01X15659Y4292D01*
G01X14058Y5542D02*
G01X14058Y4292D01*
G01X14053Y7392D02*
G01X15653Y7392D01*
G01X6036Y4282D02*
G01X11235Y4282D01*
G01X11235Y12481D02*
G01X11235Y12397D01*
G01X11235Y4366D02*
G01X11235Y4282D01*
G01X6036Y12481D02*
G01X6036Y12397D01*
G01X6036Y4366D02*
G01X6036Y4282D01*
G01X11235Y12481D02*
G01X9235Y12481D01*
G01X6036Y12481D02*
G01X8036Y12481D01*
G01X9271Y12861D02*
G01X9271Y14061D01*
G01X11321Y12661D02*
G01X12321Y12661D01*
G01X11321Y14262D02*
G01X12321Y14262D01*
G01X10521Y12661D02*
G01X9522Y12661D01*
G01X10521Y14262D02*
G01X9522Y14262D01*
G01X12572Y12861D02*
G01X12572Y14061D01*
G01X12372Y12661D02*
G01X12321Y12661D01*
G01X12371Y14262D02*
G01X12321Y14262D01*
G01X9471Y12661D02*
G01X9522Y12661D01*
G01X9472Y14262D02*
G01X9522Y14262D01*
G01X21809Y7747D02*
G01X20609Y7747D01*
G01X22009Y9797D02*
G01X22009Y10797D01*
G01X20408Y9797D02*
G01X20408Y10797D01*
G01X22009Y8997D02*
G01X22009Y7998D01*
G01X20408Y8997D02*
G01X20408Y7998D01*
G01X21809Y11048D02*
G01X20609Y11048D01*
G01X22009Y10848D02*
G01X22009Y10797D01*
G01X20408Y10847D02*
G01X20408Y10797D01*
G01X22009Y7947D02*
G01X22009Y7998D01*
G01X20408Y7948D02*
G01X20408Y7998D01*
G01X7747Y-1651D02*
G01X7747Y-7651D01*
G01X10287Y-1651D02*
G01X10287Y-7651D01*
G01X5207Y-1651D02*
G01X5207Y-7651D01*
G01X12827Y-1651D02*
G01X12827Y-7651D01*
G01X14097Y-1651D02*
G01X3937Y-1651D01*
G01X3937Y889D01*
G01X14097Y889D01*
G01X14097Y-1651D01*
G54D26*
G01X4318Y3931D02*
G01X4318Y3215D01*
G01X4318Y3931D02*
G01X4625Y3931D01*
G01X4726Y3898D01*
G01X4759Y3863D01*
G01X4795Y3794D01*
G01X4795Y3726D01*
G01X4759Y3660D01*
G01X4726Y3624D01*
G01X4625Y3591D01*
G01X4318Y3591D02*
G01X4625Y3591D01*
G01X4726Y3556D01*
G01X4759Y3522D01*
G01X4795Y3454D01*
G01X4795Y3352D01*
G01X4759Y3284D01*
G01X4726Y3251D01*
G01X4625Y3215D01*
G01X4318Y3215D01*
G01X5224Y3931D02*
G01X5123Y3898D01*
G01X5054Y3794D01*
G01X5019Y3624D01*
G01X5019Y3522D01*
G01X5054Y3352D01*
G01X5123Y3251D01*
G01X5224Y3215D01*
G01X5293Y3215D01*
G01X5394Y3251D01*
G01X5463Y3352D01*
G01X5496Y3522D01*
G01X5496Y3624D01*
G01X5463Y3794D01*
G01X5394Y3898D01*
G01X5293Y3931D01*
G01X5224Y3931D01*
G01X5722Y3794D02*
G01X5791Y3830D01*
G01X5892Y3931D01*
G01X5892Y3215D01*
G01X6604Y3931D02*
G01X6604Y3215D01*
G01X6604Y3931D02*
G01X6911Y3931D01*
G01X7012Y3898D01*
G01X7045Y3863D01*
G01X7081Y3794D01*
G01X7081Y3726D01*
G01X7045Y3660D01*
G01X7012Y3624D01*
G01X6911Y3591D01*
G01X6604Y3591D02*
G01X6911Y3591D01*
G01X7012Y3556D01*
G01X7045Y3522D01*
G01X7081Y3454D01*
G01X7081Y3352D01*
G01X7045Y3284D01*
G01X7012Y3251D01*
G01X6911Y3215D01*
G01X6604Y3215D01*
G01X7510Y3931D02*
G01X7409Y3898D01*
G01X7340Y3794D01*
G01X7305Y3624D01*
G01X7305Y3522D01*
G01X7340Y3352D01*
G01X7409Y3251D01*
G01X7510Y3215D01*
G01X7579Y3215D01*
G01X7680Y3251D01*
G01X7749Y3352D01*
G01X7782Y3522D01*
G01X7782Y3624D01*
G01X7749Y3794D01*
G01X7680Y3898D01*
G01X7579Y3931D01*
G01X7510Y3931D01*
G01X8041Y3761D02*
G01X8041Y3794D01*
G01X8077Y3863D01*
G01X8110Y3898D01*
G01X8178Y3931D01*
G01X8315Y3931D01*
G01X8384Y3898D01*
G01X8417Y3863D01*
G01X8450Y3794D01*
G01X8450Y3726D01*
G01X8417Y3660D01*
G01X8348Y3556D01*
G01X8008Y3215D01*
G01X8486Y3215D01*
G01X9542Y3931D02*
G01X9271Y3215D01*
G01X9542Y3931D02*
G01X9817Y3215D01*
G01X9372Y3454D02*
G01X9712Y3454D01*
G01X10246Y3931D02*
G01X10144Y3898D01*
G01X10076Y3794D01*
G01X10040Y3624D01*
G01X10040Y3522D01*
G01X10076Y3352D01*
G01X10144Y3251D01*
G01X10246Y3215D01*
G01X10314Y3215D01*
G01X10416Y3251D01*
G01X10485Y3352D01*
G01X10518Y3522D01*
G01X10518Y3624D01*
G01X10485Y3794D01*
G01X10416Y3898D01*
G01X10314Y3931D01*
G01X10246Y3931D01*
G01X10777Y3761D02*
G01X10777Y3794D01*
G01X10812Y3863D01*
G01X10845Y3898D01*
G01X10914Y3931D01*
G01X11051Y3931D01*
G01X11117Y3898D01*
G01X11153Y3863D01*
G01X11186Y3794D01*
G01X11186Y3726D01*
G01X11153Y3660D01*
G01X11084Y3556D01*
G01X10744Y3215D01*
G01X11221Y3215D01*
G01X12082Y3931D02*
G01X11811Y3215D01*
G01X12082Y3931D02*
G01X12357Y3215D01*
G01X11912Y3454D02*
G01X12252Y3454D01*
G01X12786Y3931D02*
G01X12684Y3898D01*
G01X12616Y3794D01*
G01X12580Y3624D01*
G01X12580Y3522D01*
G01X12616Y3352D01*
G01X12684Y3251D01*
G01X12786Y3215D01*
G01X12854Y3215D01*
G01X12956Y3251D01*
G01X13025Y3352D01*
G01X13058Y3522D01*
G01X13058Y3624D01*
G01X13025Y3794D01*
G01X12956Y3898D01*
G01X12854Y3931D01*
G01X12786Y3931D01*
G01X13284Y3794D02*
G01X13352Y3830D01*
G01X13454Y3931D01*
G01X13454Y3215D01*
G01X15113Y3921D02*
G01X15181Y3957D01*
G01X15283Y4058D01*
G01X15283Y3342D01*
G01X15918Y4058D02*
G01X15577Y4058D01*
G01X15542Y3751D01*
G01X15577Y3787D01*
G01X15679Y3820D01*
G01X15781Y3820D01*
G01X15882Y3787D01*
G01X15951Y3718D01*
G01X15986Y3614D01*
G01X15986Y3548D01*
G01X15951Y3444D01*
G01X15882Y3378D01*
G01X15781Y3342D01*
G01X15679Y3342D01*
G01X15577Y3378D01*
G01X15542Y3411D01*
G01X15509Y3479D01*
G01X16891Y3804D02*
G01X17162Y3088D01*
G01X17437Y3804D02*
G01X17162Y3088D01*
G01X18173Y3634D02*
G01X18138Y3703D01*
G01X18069Y3771D01*
G01X18003Y3804D01*
G01X17866Y3804D01*
G01X17797Y3771D01*
G01X17729Y3703D01*
G01X17696Y3634D01*
G01X17660Y3533D01*
G01X17660Y3360D01*
G01X17696Y3258D01*
G01X17729Y3190D01*
G01X17797Y3124D01*
G01X17866Y3088D01*
G01X18003Y3088D01*
G01X18069Y3124D01*
G01X18138Y3190D01*
G01X18173Y3258D01*
G01X18910Y3634D02*
G01X18874Y3703D01*
G01X18806Y3771D01*
G01X18737Y3804D01*
G01X18602Y3804D01*
G01X18534Y3771D01*
G01X18465Y3703D01*
G01X18432Y3634D01*
G01X18397Y3533D01*
G01X18397Y3360D01*
G01X18432Y3258D01*
G01X18465Y3190D01*
G01X18534Y3124D01*
G01X18602Y3088D01*
G01X18737Y3088D01*
G01X18806Y3124D01*
G01X18874Y3190D01*
G01X18910Y3258D01*
G01X20322Y3761D02*
G01X20289Y3830D01*
G01X20220Y3898D01*
G01X20152Y3931D01*
G01X20017Y3931D01*
G01X19949Y3898D01*
G01X19880Y3830D01*
G01X19845Y3761D01*
G01X19812Y3660D01*
G01X19812Y3487D01*
G01X19845Y3385D01*
G01X19880Y3317D01*
G01X19949Y3251D01*
G01X20017Y3215D01*
G01X20152Y3215D01*
G01X20220Y3251D01*
G01X20289Y3317D01*
G01X20322Y3385D01*
G01X20322Y3487D01*
G01X20152Y3487D02*
G01X20322Y3487D01*
G01X20548Y3931D02*
G01X20548Y3215D01*
G01X20548Y3931D02*
G01X21026Y3215D01*
G01X21026Y3931D02*
G01X21026Y3215D01*
G01X21249Y3931D02*
G01X21249Y3215D01*
G01X21249Y3931D02*
G01X21488Y3931D01*
G01X21592Y3898D01*
G01X21658Y3830D01*
G01X21694Y3761D01*
G01X21727Y3660D01*
G01X21727Y3487D01*
G01X21694Y3385D01*
G01X21658Y3317D01*
G01X21592Y3251D01*
G01X21488Y3215D01*
G01X21249Y3215D01*
G01X3281Y12992D02*
G01X3589Y12446D01*
G01X3896Y12992D01*
G01X3589Y13215D02*
G01X3589Y13830D01*
G01X3418Y14988D02*
G01X3896Y14988D01*
G01X3520Y14988D02*
G01X3451Y14919D01*
G01X3418Y14853D01*
G01X3418Y14749D01*
G01X3451Y14681D01*
G01X3520Y14615D01*
G01X3624Y14579D01*
G01X3690Y14579D01*
G01X3794Y14615D01*
G01X3860Y14681D01*
G01X3896Y14749D01*
G01X3896Y14853D01*
G01X3860Y14919D01*
G01X3794Y14988D01*
G01X3418Y15214D02*
G01X3896Y15214D01*
G01X3556Y15214D02*
G01X3451Y15316D01*
G01X3418Y15384D01*
G01X3418Y15486D01*
G01X3451Y15554D01*
G01X3556Y15587D01*
G01X3896Y15587D01*
G01X3180Y15915D02*
G01X3759Y15915D01*
G01X3860Y15951D01*
G01X3896Y16019D01*
G01X3896Y16085D01*
G01X3418Y15814D02*
G01X3418Y16052D01*
G01X3624Y16311D02*
G01X3624Y16720D01*
G01X3556Y16720D01*
G01X3487Y16687D01*
G01X3451Y16652D01*
G01X3418Y16583D01*
G01X3418Y16482D01*
G01X3451Y16413D01*
G01X3520Y16344D01*
G01X3624Y16311D01*
G01X3690Y16311D01*
G01X3794Y16344D01*
G01X3860Y16413D01*
G01X3896Y16482D01*
G01X3896Y16583D01*
G01X3860Y16652D01*
G01X3794Y16720D01*
G01X3418Y16946D02*
G01X3896Y16946D01*
G01X3556Y16946D02*
G01X3451Y17048D01*
G01X3418Y17117D01*
G01X3418Y17218D01*
G01X3451Y17287D01*
G01X3556Y17320D01*
G01X3896Y17320D01*
G01X3418Y17546D02*
G01X3896Y17546D01*
G01X3556Y17546D02*
G01X3451Y17647D01*
G01X3418Y17716D01*
G01X3418Y17818D01*
G01X3451Y17886D01*
G01X3556Y17922D01*
G01X3896Y17922D01*
G01X3418Y18554D02*
G01X3896Y18554D01*
G01X3520Y18554D02*
G01X3451Y18486D01*
G01X3418Y18417D01*
G01X3418Y18315D01*
G01X3451Y18247D01*
G01X3520Y18181D01*
G01X3624Y18145D01*
G01X3690Y18145D01*
G01X3794Y18181D01*
G01X3860Y18247D01*
G01X3896Y18315D01*
G01X3896Y18417D01*
G01X3860Y18486D01*
G01X3794Y18554D01*
G01X4846Y20916D02*
G01X4538Y21463D01*
G01X4231Y20916D01*
G01X4538Y20693D02*
G01X4538Y20078D01*
G01X4846Y18851D02*
G01X4914Y18920D01*
G01X4947Y19022D01*
G01X4947Y19159D01*
G01X4914Y19260D01*
G01X4846Y19329D01*
G01X4777Y19329D01*
G01X4709Y19293D01*
G01X4676Y19260D01*
G01X4640Y19192D01*
G01X4572Y18989D01*
G01X4538Y18920D01*
G01X4503Y18884D01*
G01X4437Y18851D01*
G01X4333Y18851D01*
G01X4267Y18920D01*
G01X4231Y19022D01*
G01X4231Y19159D01*
G01X4267Y19260D01*
G01X4333Y19329D01*
G01X4947Y18625D02*
G01X4231Y18625D01*
G01X4947Y18625D02*
G01X4947Y18387D01*
G01X4914Y18285D01*
G01X4846Y18216D01*
G01X4777Y18183D01*
G01X4676Y18148D01*
G01X4503Y18148D01*
G01X4401Y18183D01*
G01X4333Y18216D01*
G01X4267Y18285D01*
G01X4231Y18387D01*
G01X4231Y18625D01*
G01X4607Y16990D02*
G01X4676Y17058D01*
G01X4709Y17127D01*
G01X4709Y17228D01*
G01X4676Y17297D01*
G01X4607Y17365D01*
G01X4503Y17399D01*
G01X4437Y17399D01*
G01X4333Y17365D01*
G01X4267Y17297D01*
G01X4231Y17228D01*
G01X4231Y17127D01*
G01X4267Y17058D01*
G01X4333Y16990D01*
G01X4709Y16355D02*
G01X4231Y16355D01*
G01X4607Y16355D02*
G01X4676Y16423D01*
G01X4709Y16492D01*
G01X4709Y16593D01*
G01X4676Y16662D01*
G01X4607Y16730D01*
G01X4503Y16766D01*
G01X4437Y16766D01*
G01X4333Y16730D01*
G01X4267Y16662D01*
G01X4231Y16593D01*
G01X4231Y16492D01*
G01X4267Y16423D01*
G01X4333Y16355D01*
G01X4709Y16131D02*
G01X4231Y16131D01*
G01X4503Y16131D02*
G01X4607Y16095D01*
G01X4676Y16029D01*
G01X4709Y15961D01*
G01X4709Y15857D01*
G01X4947Y15224D02*
G01X4231Y15224D01*
G01X4607Y15224D02*
G01X4676Y15293D01*
G01X4709Y15361D01*
G01X4709Y15463D01*
G01X4676Y15532D01*
G01X4607Y15598D01*
G01X4503Y15633D01*
G01X4437Y15633D01*
G01X4333Y15598D01*
G01X4267Y15532D01*
G01X4231Y15463D01*
G01X4231Y15361D01*
G01X4267Y15293D01*
G01X4333Y15224D01*
G01X762Y26283D02*
G01X1033Y25567D01*
G01X1308Y26283D02*
G01X1033Y25567D01*
G01X2044Y26113D02*
G01X2009Y26182D01*
G01X1940Y26250D01*
G01X1874Y26283D01*
G01X1737Y26283D01*
G01X1668Y26250D01*
G01X1600Y26182D01*
G01X1567Y26113D01*
G01X1531Y26012D01*
G01X1531Y25839D01*
G01X1567Y25737D01*
G01X1600Y25669D01*
G01X1668Y25603D01*
G01X1737Y25567D01*
G01X1874Y25567D01*
G01X1940Y25603D01*
G01X2009Y25669D01*
G01X2044Y25737D01*
G01X2781Y26113D02*
G01X2745Y26182D01*
G01X2677Y26250D01*
G01X2608Y26283D01*
G01X2473Y26283D01*
G01X2405Y26250D01*
G01X2336Y26182D01*
G01X2303Y26113D01*
G01X2268Y26012D01*
G01X2268Y25839D01*
G01X2303Y25737D01*
G01X2336Y25669D01*
G01X2405Y25603D01*
G01X2473Y25567D01*
G01X2608Y25567D01*
G01X2677Y25603D01*
G01X2745Y25669D01*
G01X2781Y25737D01*
G01X24325Y26283D02*
G01X24698Y26283D01*
G01X24495Y26012D01*
G01X24597Y26012D01*
G01X24665Y25976D01*
G01X24698Y25943D01*
G01X24734Y25839D01*
G01X24734Y25773D01*
G01X24698Y25669D01*
G01X24632Y25603D01*
G01X24528Y25567D01*
G01X24427Y25567D01*
G01X24325Y25603D01*
G01X24290Y25636D01*
G01X24257Y25704D01*
G01X24958Y26283D02*
G01X25232Y25567D01*
G01X25504Y26283D02*
G01X25232Y25567D01*
G01X25798Y26283D02*
G01X26172Y26283D01*
G01X25968Y26012D01*
G01X26070Y26012D01*
G01X26139Y25976D01*
G01X26172Y25943D01*
G01X26207Y25839D01*
G01X26207Y25773D01*
G01X26172Y25669D01*
G01X26103Y25603D01*
G01X26001Y25567D01*
G01X25900Y25567D01*
G01X25798Y25603D01*
G01X25763Y25636D01*
G01X25730Y25704D01*
G01X4282Y24599D02*
G01X4224Y24711D01*
G01X4109Y24825D01*
G01X3997Y24884D01*
G01X3769Y24884D01*
G01X3655Y24825D01*
G01X3543Y24711D01*
G01X3484Y24599D01*
G01X3429Y24429D01*
G01X3429Y24145D01*
G01X3484Y23975D01*
G01X3543Y23860D01*
G01X3655Y23746D01*
G01X3769Y23690D01*
G01X3997Y23690D01*
G01X4109Y23746D01*
G01X4224Y23860D01*
G01X4282Y23975D01*
G01X4770Y24884D02*
G01X5394Y24884D01*
G01X5054Y24429D01*
G01X5224Y24429D01*
G01X5339Y24371D01*
G01X5394Y24315D01*
G01X5450Y24145D01*
G01X5450Y24030D01*
G01X5394Y23860D01*
G01X5280Y23746D01*
G01X5110Y23690D01*
G01X4940Y23690D01*
G01X4770Y23746D01*
G01X4714Y23804D01*
G01X4655Y23916D01*
G01X5826Y24201D02*
G01X6850Y24201D01*
G01X7223Y24884D02*
G01X7223Y23690D01*
G01X7223Y24884D02*
G01X7736Y24884D01*
G01X7907Y24825D01*
G01X7962Y24770D01*
G01X8018Y24655D01*
G01X8018Y24485D01*
G01X7962Y24371D01*
G01X7907Y24315D01*
G01X7736Y24259D01*
G01X7223Y24259D01*
G01X8394Y24884D02*
G01X8394Y23690D01*
G01X8394Y24884D02*
G01X8905Y24884D01*
G01X9077Y24825D01*
G01X9133Y24770D01*
G01X9189Y24655D01*
G01X9189Y24541D01*
G01X9133Y24429D01*
G01X9077Y24371D01*
G01X8905Y24315D01*
G01X8394Y24315D01*
G01X8793Y24315D02*
G01X9189Y23690D01*
G01X10439Y24485D02*
G01X10439Y23690D01*
G01X10439Y24145D02*
G01X10497Y24315D01*
G01X10609Y24429D01*
G01X10723Y24485D01*
G01X10894Y24485D01*
G01X11325Y23975D02*
G01X11269Y23916D01*
G01X11325Y23860D01*
G01X11384Y23916D01*
G01X11325Y23975D01*
G01X11757Y24655D02*
G01X11871Y24711D01*
G01X12042Y24884D01*
G01X12042Y23690D01*
G54D27*
G01X21666Y2072D02*
G01X21666Y2852D01*
G01X21615Y3007D01*
G01X21511Y3111D01*
G01X21353Y3162D01*
G01X21249Y3162D01*
G01X21094Y3111D01*
G01X20990Y3007D01*
G01X20939Y2852D01*
G01X20939Y2072D01*
G01X20492Y2072D02*
G01X19921Y2072D01*
G01X20231Y2489D01*
G01X20076Y2489D01*
G01X19972Y2540D01*
G01X19921Y2590D01*
G01X19867Y2748D01*
G01X19867Y2852D01*
G01X19921Y3007D01*
G01X20025Y3111D01*
G01X20180Y3162D01*
G01X20335Y3162D01*
G01X20492Y3111D01*
G01X20543Y3060D01*
G01X20596Y2956D01*
G01X20802Y7459D02*
G01X20756Y7437D01*
G01X20688Y7368D01*
G01X20688Y7853D01*
G01X11816Y19032D02*
G01X11920Y19085D01*
G01X12024Y19189D01*
G01X12075Y19291D01*
G01X12075Y19499D01*
G01X12024Y19603D01*
G01X11920Y19707D01*
G01X11816Y19761D01*
G01X11658Y19812D01*
G01X11399Y19812D01*
G01X11244Y19761D01*
G01X11140Y19707D01*
G01X11036Y19603D01*
G01X10985Y19499D01*
G01X10985Y19291D01*
G01X11036Y19189D01*
G01X11140Y19085D01*
G01X11244Y19032D01*
G01X12075Y18067D02*
G01X12075Y18585D01*
G01X11607Y18638D01*
G01X11658Y18585D01*
G01X11711Y18430D01*
G01X11711Y18275D01*
G01X11658Y18117D01*
G01X11557Y18013D01*
G01X11399Y17962D01*
G01X11295Y17962D01*
G01X11140Y18013D01*
G01X11036Y18117D01*
G01X10985Y18275D01*
G01X10985Y18430D01*
G01X11036Y18585D01*
G01X11087Y18638D01*
G01X11191Y18689D01*
G01X12964Y16764D02*
G01X11874Y16764D01*
G01X12964Y16764D02*
G01X12964Y16296D01*
G01X12913Y16141D01*
G01X12860Y16088D01*
G01X12755Y16037D01*
G01X12651Y16037D01*
G01X12547Y16088D01*
G01X12496Y16141D01*
G01X12446Y16296D01*
G01X12446Y16764D01*
G01X12446Y16400D02*
G01X11874Y16037D01*
G01X12964Y15069D02*
G01X12964Y15590D01*
G01X12496Y15641D01*
G01X12547Y15590D01*
G01X12600Y15433D01*
G01X12600Y15278D01*
G01X12547Y15123D01*
G01X12446Y15019D01*
G01X12288Y14965D01*
G01X12184Y14965D01*
G01X12029Y15019D01*
G01X11925Y15123D01*
G01X11874Y15278D01*
G01X11874Y15433D01*
G01X11925Y15590D01*
G01X11976Y15641D01*
G01X12080Y15694D01*
G01X11557Y19928D02*
G01X11557Y20708D01*
G01X11506Y20863D01*
G01X11402Y20967D01*
G01X11244Y21018D01*
G01X11140Y21018D01*
G01X10985Y20967D01*
G01X10881Y20863D01*
G01X10830Y20708D01*
G01X10830Y19928D01*
G01X10434Y20187D02*
G01X10434Y20137D01*
G01X10383Y20032D01*
G01X10330Y19979D01*
G01X10226Y19928D01*
G01X10020Y19928D01*
G01X9916Y19979D01*
G01X9862Y20032D01*
G01X9812Y20137D01*
G01X9812Y20241D01*
G01X9862Y20345D01*
G01X9966Y20500D01*
G01X10487Y21018D01*
G01X9758Y21018D01*
G01X21082Y12583D02*
G01X21082Y11493D01*
G01X21082Y12583D02*
G01X21549Y12583D01*
G01X21704Y12532D01*
G01X21757Y12479D01*
G01X21808Y12374D01*
G01X21808Y12270D01*
G01X21757Y12166D01*
G01X21704Y12115D01*
G01X21549Y12065D01*
G01X21082Y12065D01*
G01X21445Y12065D02*
G01X21808Y11493D01*
G01X22204Y12324D02*
G01X22204Y12374D01*
G01X22255Y12479D01*
G01X22308Y12532D01*
G01X22412Y12583D01*
G01X22618Y12583D01*
G01X22722Y12532D01*
G01X22776Y12479D01*
G01X22826Y12374D01*
G01X22826Y12270D01*
G01X22776Y12166D01*
G01X22672Y12011D01*
G01X22151Y11493D01*
G01X22880Y11493D01*
G01X20203Y16129D02*
G01X19113Y16129D01*
G01X20203Y16129D02*
G01X20203Y15661D01*
G01X20152Y15506D01*
G01X20099Y15453D01*
G01X19994Y15402D01*
G01X19890Y15402D01*
G01X19786Y15453D01*
G01X19735Y15506D01*
G01X19685Y15661D01*
G01X19685Y16129D01*
G01X19685Y15765D02*
G01X19113Y15402D01*
G01X20203Y14955D02*
G01X20203Y14384D01*
G01X19786Y14693D01*
G01X19786Y14538D01*
G01X19735Y14434D01*
G01X19685Y14384D01*
G01X19527Y14330D01*
G01X19423Y14330D01*
G01X19268Y14384D01*
G01X19164Y14488D01*
G01X19113Y14643D01*
G01X19113Y14798D01*
G01X19164Y14955D01*
G01X19215Y15006D01*
G01X19319Y15059D01*
G01X9789Y18102D02*
G01X9738Y18206D01*
G01X9634Y18310D01*
G01X9530Y18364D01*
G01X9372Y18415D01*
G01X9113Y18415D01*
G01X8958Y18364D01*
G01X8854Y18310D01*
G01X8750Y18206D01*
G01X8699Y18102D01*
G01X8699Y17894D01*
G01X8750Y17792D01*
G01X8854Y17688D01*
G01X8958Y17635D01*
G01X9113Y17584D01*
G01X9372Y17584D01*
G01X9530Y17635D01*
G01X9634Y17688D01*
G01X9738Y17792D01*
G01X9789Y17894D01*
G01X9789Y18102D01*
G01X8905Y17947D02*
G01X8595Y17635D01*
G01X9789Y16616D02*
G01X9789Y17137D01*
G01X9321Y17188D01*
G01X9372Y17137D01*
G01X9425Y16979D01*
G01X9425Y16824D01*
G01X9372Y16670D01*
G01X9271Y16565D01*
G01X9113Y16512D01*
G01X9009Y16512D01*
G01X8854Y16565D01*
G01X8750Y16670D01*
G01X8699Y16824D01*
G01X8699Y16979D01*
G01X8750Y17137D01*
G01X8801Y17188D01*
G01X8905Y17241D01*
G01X13520Y12202D02*
G01X13416Y12151D01*
G01X13312Y12047D01*
G01X13258Y11943D01*
G01X13208Y11785D01*
G01X13208Y11526D01*
G01X13258Y11371D01*
G01X13312Y11267D01*
G01X13416Y11163D01*
G01X13520Y11112D01*
G01X13728Y11112D01*
G01X13830Y11163D01*
G01X13934Y11267D01*
G01X13987Y11371D01*
G01X14038Y11526D01*
G01X14038Y11785D01*
G01X13987Y11943D01*
G01X13934Y12047D01*
G01X13830Y12151D01*
G01X13728Y12202D01*
G01X13520Y12202D01*
G01X13675Y11318D02*
G01X13987Y11008D01*
G01X14381Y11993D02*
G01X14485Y12047D01*
G01X14643Y12202D01*
G01X14643Y11112D01*
G01X21404Y16626D02*
G01X21508Y16677D01*
G01X21612Y16781D01*
G01X21666Y16885D01*
G01X21717Y17043D01*
G01X21717Y17302D01*
G01X21666Y17457D01*
G01X21612Y17561D01*
G01X21508Y17665D01*
G01X21404Y17716D01*
G01X21196Y17716D01*
G01X21094Y17665D01*
G01X20990Y17561D01*
G01X20937Y17457D01*
G01X20886Y17302D01*
G01X20886Y17043D01*
G01X20937Y16885D01*
G01X20990Y16781D01*
G01X21094Y16677D01*
G01X21196Y16626D01*
G01X21404Y16626D01*
G01X21249Y17510D02*
G01X20937Y17820D01*
G01X20490Y16885D02*
G01X20490Y16835D01*
G01X20439Y16730D01*
G01X20386Y16677D01*
G01X20281Y16626D01*
G01X20076Y16626D01*
G01X19972Y16677D01*
G01X19918Y16730D01*
G01X19867Y16835D01*
G01X19867Y16939D01*
G01X19918Y17043D01*
G01X20022Y17198D01*
G01X20543Y17716D01*
G01X19814Y17716D01*
G01X15753Y12936D02*
G01X15857Y12989D01*
G01X15961Y13093D01*
G01X16012Y13195D01*
G01X16012Y13403D01*
G01X15961Y13507D01*
G01X15857Y13611D01*
G01X15753Y13665D01*
G01X15595Y13716D01*
G01X15336Y13716D01*
G01X15181Y13665D01*
G01X15077Y13611D01*
G01X14973Y13507D01*
G01X14922Y13403D01*
G01X14922Y13195D01*
G01X14973Y13093D01*
G01X15077Y12989D01*
G01X15181Y12936D01*
G01X16012Y12075D02*
G01X15285Y12593D01*
G01X15285Y11813D01*
G01X16012Y12075D02*
G01X14922Y12075D01*
G01X9011Y26052D02*
G01X8907Y25999D01*
G01X8803Y25895D01*
G01X8752Y25793D01*
G01X8752Y25585D01*
G01X8803Y25481D01*
G01X8907Y25377D01*
G01X9011Y25323D01*
G01X9169Y25273D01*
G01X9428Y25273D01*
G01X9583Y25323D01*
G01X9687Y25377D01*
G01X9791Y25481D01*
G01X9842Y25585D01*
G01X9842Y25793D01*
G01X9791Y25895D01*
G01X9687Y25999D01*
G01X9583Y26052D01*
G01X8907Y27017D02*
G01X8803Y26967D01*
G01X8752Y26809D01*
G01X8752Y26708D01*
G01X8803Y26550D01*
G01X8961Y26446D01*
G01X9220Y26395D01*
G01X9479Y26395D01*
G01X9687Y26446D01*
G01X9791Y26550D01*
G01X9842Y26708D01*
G01X9842Y26758D01*
G01X9791Y26913D01*
G01X9687Y27017D01*
G01X9532Y27071D01*
G01X9479Y27071D01*
G01X9324Y27017D01*
G01X9220Y26913D01*
G01X9169Y26758D01*
G01X9169Y26708D01*
G01X9220Y26550D01*
G01X9324Y26446D01*
G01X9479Y26395D01*
G01X20076Y9847D02*
G01X20025Y9951D01*
G01X19921Y10055D01*
G01X19817Y10109D01*
G01X19659Y10160D01*
G01X19400Y10160D01*
G01X19245Y10109D01*
G01X19141Y10055D01*
G01X19037Y9951D01*
G01X18986Y9847D01*
G01X18986Y9639D01*
G01X19037Y9537D01*
G01X19141Y9433D01*
G01X19245Y9380D01*
G01X19400Y9329D01*
G01X19659Y9329D01*
G01X19817Y9380D01*
G01X19921Y9433D01*
G01X20025Y9537D01*
G01X20076Y9639D01*
G01X20076Y9847D01*
G01X19192Y9692D02*
G01X18882Y9380D01*
G01X20076Y8882D02*
G01X20076Y8310D01*
G01X19659Y8623D01*
G01X19659Y8465D01*
G01X19608Y8361D01*
G01X19558Y8310D01*
G01X19400Y8257D01*
G01X19296Y8257D01*
G01X19141Y8310D01*
G01X19037Y8415D01*
G01X18986Y8569D01*
G01X18986Y8724D01*
G01X19037Y8882D01*
G01X19088Y8933D01*
G01X19192Y8986D01*
G01X15737Y6281D02*
G01X15788Y6177D01*
G01X15892Y6073D01*
G01X15996Y6019D01*
G01X16154Y5969D01*
G01X16413Y5969D01*
G01X16568Y6019D01*
G01X16672Y6073D01*
G01X16776Y6177D01*
G01X16827Y6281D01*
G01X16827Y6489D01*
G01X16776Y6591D01*
G01X16672Y6695D01*
G01X16568Y6748D01*
G01X16413Y6799D01*
G01X16154Y6799D01*
G01X15996Y6748D01*
G01X15892Y6695D01*
G01X15788Y6591D01*
G01X15737Y6489D01*
G01X15737Y6281D01*
G01X16621Y6436D02*
G01X16931Y6748D01*
G01X15737Y7663D02*
G01X16464Y7142D01*
G01X16464Y7922D01*
G01X15737Y7663D02*
G01X16827Y7663D01*
G01X4808Y11424D02*
G01X4861Y11320D01*
G01X4965Y11216D01*
G01X5067Y11165D01*
G01X5275Y11165D01*
G01X5379Y11216D01*
G01X5483Y11320D01*
G01X5537Y11424D01*
G01X5588Y11582D01*
G01X5588Y11841D01*
G01X5537Y11996D01*
G01X5483Y12100D01*
G01X5379Y12204D01*
G01X5275Y12255D01*
G01X5067Y12255D01*
G01X4965Y12204D01*
G01X4861Y12100D01*
G01X4808Y11996D01*
G01X4361Y11165D02*
G01X3789Y11165D01*
G01X4102Y11582D01*
G01X3947Y11582D01*
G01X3843Y11633D01*
G01X3789Y11684D01*
G01X3738Y11841D01*
G01X3738Y11945D01*
G01X3789Y12100D01*
G01X3893Y12204D01*
G01X4051Y12255D01*
G01X4206Y12255D01*
G01X4361Y12204D01*
G01X4414Y12153D01*
G01X4465Y12049D01*
G01X17028Y9652D02*
G01X15938Y9652D01*
G01X17028Y9652D02*
G01X17028Y9184D01*
G01X16977Y9029D01*
G01X16924Y8976D01*
G01X16819Y8925D01*
G01X16715Y8925D01*
G01X16611Y8976D01*
G01X16560Y9029D01*
G01X16510Y9184D01*
G01X16510Y9652D01*
G01X16510Y9288D02*
G01X15938Y8925D01*
G01X16819Y8582D02*
G01X16873Y8478D01*
G01X17028Y8321D01*
G01X15938Y8321D01*
G01X12689Y4318D02*
G01X13779Y4318D01*
G01X12689Y4318D02*
G01X12689Y4785D01*
G01X12740Y4940D01*
G01X12793Y4993D01*
G01X12898Y5044D01*
G01X13002Y5044D01*
G01X13106Y4993D01*
G01X13157Y4940D01*
G01X13208Y4785D01*
G01X13208Y4318D01*
G01X13208Y4681D02*
G01X13779Y5044D01*
G01X12689Y5908D02*
G01X13416Y5387D01*
G01X13416Y6167D01*
G01X12689Y5908D02*
G01X13779Y5908D01*
G01X7874Y10297D02*
G01X7874Y9517D01*
G01X7924Y9362D01*
G01X8028Y9258D01*
G01X8186Y9207D01*
G01X8290Y9207D01*
G01X8445Y9258D01*
G01X8549Y9362D01*
G01X8600Y9517D01*
G01X8600Y10297D01*
G01X8943Y10088D02*
G01X9047Y10142D01*
G01X9204Y10297D01*
G01X9204Y9207D01*
G01X13571Y13075D02*
G01X13624Y12971D01*
G01X13728Y12867D01*
G01X13830Y12816D01*
G01X14038Y12816D01*
G01X14142Y12867D01*
G01X14246Y12971D01*
G01X14300Y13075D01*
G01X14351Y13233D01*
G01X14351Y13492D01*
G01X14300Y13647D01*
G01X14246Y13751D01*
G01X14142Y13855D01*
G01X14038Y13906D01*
G01X13830Y13906D01*
G01X13728Y13855D01*
G01X13624Y13751D01*
G01X13571Y13647D01*
G01X13228Y13025D02*
G01X13124Y12971D01*
G01X12969Y12816D01*
G01X12969Y13906D01*
G01X23119Y9380D02*
G01X23223Y9433D01*
G01X23327Y9537D01*
G01X23378Y9639D01*
G01X23378Y9847D01*
G01X23327Y9951D01*
G01X23223Y10055D01*
G01X23119Y10109D01*
G01X22961Y10160D01*
G01X22702Y10160D01*
G01X22547Y10109D01*
G01X22443Y10055D01*
G01X22339Y9951D01*
G01X22288Y9847D01*
G01X22288Y9639D01*
G01X22339Y9537D01*
G01X22443Y9433D01*
G01X22547Y9380D01*
G01X23119Y8986D02*
G01X23169Y8986D01*
G01X23274Y8933D01*
G01X23327Y8882D01*
G01X23378Y8778D01*
G01X23378Y8569D01*
G01X23327Y8465D01*
G01X23274Y8415D01*
G01X23169Y8361D01*
G01X23065Y8361D01*
G01X22961Y8415D01*
G01X22806Y8519D01*
G01X22288Y9037D01*
G01X22288Y8310D01*
G54D10*
G75*
G01X14697Y17271D02*
G02X14897Y17071I0J-200D01*
G01*
G75*
G01X13497Y17271D02*
G03X13297Y17071I0J-200D01*
G01*
G75*
G01X14697Y13971D02*
G03X14897Y14171I0J200D01*
G01*
G75*
G01X13497Y13971D02*
G02X13297Y14171I0J200D01*
G01*
G75*
G01X22118Y21590D02*
G02X22118Y23114I0J762D01*
G01*
G75*
G01X16729Y17271D02*
G02X16929Y17071I0J-200D01*
G01*
G75*
G01X15529Y17271D02*
G03X15329Y17071I0J-200D01*
G01*
G75*
G01X16729Y13971D02*
G03X16929Y14171I0J200D01*
G01*
G75*
G01X15529Y13971D02*
G02X15329Y14171I0J200D01*
G01*
G75*
G01X10576Y23496D02*
G02X10376Y23696I0J200D01*
G01*
G75*
G01X11776Y23496D02*
G03X11976Y23696I0J200D01*
G01*
G75*
G01X10576Y26796D02*
G03X10376Y26596I0J-200D01*
G01*
G75*
G01X11776Y26796D02*
G02X11976Y26596I0J-200D01*
G01*
G75*
G01X9236Y12482D02*
G02X8035Y12483I-600J0D01*
G01*
G75*
G01X12572Y12862D02*
G02X12372Y12662I-200J0D01*
G01*
G75*
G01X12572Y14062D02*
G03X12372Y14262I-200J0D01*
G01*
G75*
G01X9272Y12862D02*
G03X9472Y12662I200J0D01*
G01*
G75*
G01X9272Y14062D02*
G02X9472Y14262I200J0D01*
G01*
G75*
G01X21809Y11048D02*
G02X22009Y10848I0J-200D01*
G01*
G75*
G01X20609Y11048D02*
G03X20409Y10848I0J-200D01*
G01*
G75*
G01X21809Y7748D02*
G03X22009Y7948I0J200D01*
G01*
G75*
G01X20609Y7748D02*
G02X20409Y7948I0J200D01*
G01*
G75*
G01X22352Y26162D02*
G03X22352Y26162I-254J0D01*
G01*
G75*
G01X7125Y11887D02*
G03X7125Y11887I-254J0D01*
G01*
G75*
G01X5090Y12446D02*
G03X5090Y12446I-10J0D01*
G01*
M00*
M02*
